<?xml version="1.0" standalone="no"?><!DOCTYPE svg PUBLIC "-//W3C//DTD SVG 1.1//EN" "http://www.w3.org/Graphics/SVG/1.1/DTD/svg11.dtd"><svg t="1584685278511" class="icon" viewBox="0 0 1024 1024" version="1.1" xmlns="http://www.w3.org/2000/svg" p-id="13818" id="mx_n_1584685278512" width="20" height="20" xmlns:xlink="http://www.w3.org/1999/xlink"><defs><style type="text/css"></style></defs><path d="M851.5 545h-434c-17.7 0-32-14.3-32-32s14.3-32 32-32h434c17.7 0 32 14.3 32 32s-14.3 32-32 32z" p-id="13819" fill="#2c2c2c"></path><path d="M288.5 512m-32 0a32 32 0 1 0 64 0 32 32 0 1 0-64 0Z" p-id="13820" fill="#2c2c2c"></path><path d="M160.5 512m-32 0a32 32 0 1 0 64 0 32 32 0 1 0-64 0Z" p-id="13821" fill="#2c2c2c"></path><path d="M641.1 767.4c-8.2 0-16.4-3.1-22.6-9.4-12.5-12.5-12.5-32.7 0-45.3L818.9 512 618.5 311.2c-12.5-12.5-12.5-32.8 0-45.3s32.8-12.5 45.3 0l223 223.4c12.5 12.5 12.5 32.7 0 45.2L663.8 758c-6.3 6.3-14.5 9.4-22.7 9.4z" p-id="13822" fill="#2c2c2c"></path></svg>