<?xml version="1.0" encoding="utf-8"?>
<!-- Generator: Adobe Illustrator 21.0.0, SVG Export Plug-In . SVG Version: 6.00 Build 0)  -->
<svg version="1.1" id="图层_1" xmlns="http://www.w3.org/2000/svg" xmlns:xlink="http://www.w3.org/1999/xlink" x="0px" y="0px"
	 viewBox="0 0 22 22" style="enable-background:new 0 0 22 22;" xml:space="preserve">
<style type="text/css">
	.st0{fill:#29D80F;}
	.st1{fill:#FFFFFF;}
</style>
<circle class="st0" cx="11" cy="11" r="10.9"/>
<path class="st1" d="M2,9.5C2,9.5,6,7.6,7.9,8c3.2,0.6,4.9-4.9,0.8-5.4C8.7,2.5,2.1,2.6,2,9.5z"/>
<path class="st1" d="M9.5,20c0,0-1.9-3.9-1.5-5.9c0.6-3.2-4.9-4.9-5.5-0.8C2.5,13.4,2.6,20,9.5,20z"/>
<path class="st1" d="M19.9,12.5c0,0-3.9,1.9-5.9,1.5c-3.2-0.6-4.9,4.9-0.7,5.5C13.3,19.5,20,19.3,19.9,12.5z"/>
<path class="st1" d="M12.4,2c0,0,1.9,3.9,1.6,5.9c-0.5,3.2,5,4.8,5.5,0.7C19.4,8.6,19.2,2,12.4,2z"/>
<circle class="st1" cx="11" cy="11" r="1.8"/>
</svg>
