<svg xmlns="http://www.w3.org/2000/svg" xmlns:xlink="http://www.w3.org/1999/xlink" viewBox="0 0 1920 1080"><defs><style>.cls-1{fill:#06a8fa;}.cls-2,.cls-3,.cls-7{fill:#f2f2f2;}.cls-15,.cls-16,.cls-17,.cls-18,.cls-19,.cls-20,.cls-22,.cls-23,.cls-24,.cls-3,.cls-51,.cls-63,.cls-64,.cls-66{stroke:#01579b;}.cls-10,.cls-11,.cls-12,.cls-15,.cls-16,.cls-17,.cls-18,.cls-19,.cls-20,.cls-22,.cls-23,.cls-24,.cls-26,.cls-3,.cls-38,.cls-39,.cls-40,.cls-41,.cls-42,.cls-43,.cls-44,.cls-45,.cls-46,.cls-47,.cls-48,.cls-49,.cls-5,.cls-51,.cls-52,.cls-53,.cls-57,.cls-58,.cls-59,.cls-6,.cls-63,.cls-64,.cls-65,.cls-66,.cls-68,.cls-69,.cls-7{stroke-miterlimit:10;}.cls-3,.cls-51{stroke-width:0.75px;}.cls-10,.cls-31,.cls-33,.cls-34,.cls-4,.cls-67,.cls-8,.cls-9{fill:#143a82;}.cls-12,.cls-21,.cls-23,.cls-24,.cls-38,.cls-39,.cls-40,.cls-41,.cls-42,.cls-43,.cls-44,.cls-45,.cls-46,.cls-47,.cls-48,.cls-49,.cls-5,.cls-51,.cls-52,.cls-53,.cls-57,.cls-58,.cls-59,.cls-6,.cls-63,.cls-64,.cls-65,.cls-66,.cls-68,.cls-69{fill:none;}.cls-10,.cls-11,.cls-5,.cls-52,.cls-6{stroke:#143a82;}.cls-15,.cls-16,.cls-17,.cls-18,.cls-19,.cls-20,.cls-22,.cls-38,.cls-39,.cls-40,.cls-41,.cls-42,.cls-43,.cls-44,.cls-45,.cls-46,.cls-47,.cls-48,.cls-49,.cls-5,.cls-53,.cls-57,.cls-58,.cls-59,.cls-63,.cls-65{stroke-width:2px;}.cls-65,.cls-7{stroke:#333f4f;}.cls-8{font-size:2.93px;}.cls-60,.cls-8,.cls-9{font-family:Benmo-Chenhei, Benmo Chenhei;}.cls-9{font-size:2.7px;}.cls-10,.cls-11,.cls-12,.cls-52,.cls-66{stroke-width:3px;}.cls-11{fill:#e6e6e6;}.cls-12{stroke:#b3b3b3;}.cls-13{fill:#333f4f;}.cls-14{fill:#868686;}.cls-15{fill:url(#未命名的渐变_21);}.cls-16{fill:url(#未命名的渐变_21-2);}.cls-17{fill:url(#未命名的渐变_21-3);}.cls-18{fill:url(#未命名的渐变_21-4);}.cls-19{fill:url(#未命名的渐变_31);}.cls-20{fill:#ccc;}.cls-22{fill:url(#未命名的渐变_31-2);}.cls-23,.cls-68,.cls-69{stroke-width:0.5px;}.cls-25{fill:#63c6fa;}.cls-26{fill:#334c68;stroke:#20363f;stroke-width:0.1px;}.cls-27{fill:#5276aa;}.cls-28,.cls-29{fill:#7f91aa;}.cls-29{font-size:8.65px;font-family:AdobeSongStd-Light-GBpc-EUC-H, Adobe Song Std;letter-spacing:-0.09em;}.cls-30{fill:#cee6f9;}.cls-31,.cls-32{font-size:22px;}.cls-31,.cls-32,.cls-33,.cls-34{font-family:PingFang-SC-Medium, PingFang SC;font-weight:500;}.cls-32{fill:#db4516;}.cls-33{font-size:16px;}.cls-34{font-size:14px;}.cls-35{fill:#07a307;}.cls-36{fill:#af0800;}.cls-37{fill:#474747;}.cls-38{stroke:url(#未命名的渐变_15);}.cls-39{stroke:url(#未命名的渐变_15-2);}.cls-40{stroke:url(#未命名的渐变_15-3);}.cls-41{stroke:url(#未命名的渐变_15-4);}.cls-42{stroke:url(#未命名的渐变_15-5);}.cls-43{stroke:url(#未命名的渐变_15-6);}.cls-44{stroke:url(#未命名的渐变_15-7);}.cls-45{stroke:url(#未命名的渐变_15-8);}.cls-46{stroke:url(#未命名的渐变_15-9);}.cls-47{stroke:url(#未命名的渐变_15-10);}.cls-48{stroke:url(#未命名的渐变_15-11);}.cls-49{stroke:url(#未命名的渐变_15-12);}.cls-50{fill:#df592f;}.cls-53{stroke:#10397a;}.cls-54{fill:#0e3773;}.cls-55{fill:#4676a5;}.cls-56{fill:#a1d5ff;}.cls-57{stroke:url(#未命名的渐变_15-13);}.cls-58{stroke:url(#未命名的渐变_15-14);}.cls-59{stroke:url(#未命名的渐变_15-15);}.cls-60{font-size:6.12px;fill:#01579b;}.cls-61{fill:#2a5e96;}.cls-62{fill:#9ac0f7;}.cls-64{stroke-width:1.5px;}.cls-67{font-size:12.16px;font-family:PingFang-SC-Heavy, PingFang SC;font-weight:800;}.cls-68{stroke:#618cd1;}.cls-69{stroke:#fff;}.cls-70{fill:#10397a;}.cls-71,.cls-72{font-size:2.1px;letter-spacing:0.18em;}.cls-71,.cls-72,.cls-73{fill:#fff;}.cls-71{font-family:MicrosoftYaHei-Bold, Microsoft YaHei;font-weight:700;}.cls-72,.cls-73{font-family:MicrosoftYaHei, Microsoft YaHei;}.cls-73{font-size:1.38px;letter-spacing:0.18em;}.cls-74{letter-spacing:0.19em;}.cls-75{letter-spacing:0.18em;}</style><linearGradient id="未命名的渐变_21" x1="-852.41" y1="1862.05" x2="-819.69" y2="1862.05" gradientTransform="translate(873.15 -1530.25) rotate(-16.65)" gradientUnits="userSpaceOnUse"><stop offset="0" stop-color="#fff"/><stop offset="1" stop-color="#ccc"/></linearGradient><linearGradient id="未命名的渐变_21-2" x1="-832.22" y1="1855.1" x2="-825.43" y2="1855.1" gradientTransform="translate(1439.45 -1370.55)" xlink:href="#未命名的渐变_21"/><linearGradient id="未命名的渐变_21-3" x1="-11557.5" y1="-1339.57" x2="-11524.79" y2="-1339.57" gradientTransform="matrix(-0.96, -0.29, -0.29, 0.96, -11100.51, -1530.25)" xlink:href="#未命名的渐变_21"/><linearGradient id="未命名的渐变_21-4" x1="-11537.32" y1="-1346.52" x2="-11530.52" y2="-1346.52" gradientTransform="matrix(0, -1, -1, 0, -1010.9, -11049.37)" xlink:href="#未命名的渐变_21"/><linearGradient id="未命名的渐变_31" x1="316.31" y1="574.23" x2="631.14" y2="574.23" gradientUnits="userSpaceOnUse"><stop offset="0" stop-color="#fff"/><stop offset="1" stop-color="#e6e6e6"/></linearGradient><linearGradient id="未命名的渐变_31-2" x1="427.24" y1="443.72" x2="466.91" y2="443.72" xlink:href="#未命名的渐变_31"/><linearGradient id="未命名的渐变_15" x1="1127.06" y1="426.66" x2="1212.18" y2="426.66" gradientUnits="userSpaceOnUse"><stop offset="0" stop-color="#4f6c99"/><stop offset="0.16" stop-color="#526f9c"/><stop offset="0.29" stop-color="#5b78a6"/><stop offset="0.4" stop-color="#6c87b6"/><stop offset="0.5" stop-color="#829dcd"/><stop offset="0.59" stop-color="#9fb8ea"/><stop offset="0.62" stop-color="#a9c2f4"/><stop offset="1" stop-color="#718dbe"/></linearGradient><linearGradient id="未命名的渐变_15-2" x1="1218.68" y1="390.6" x2="1303.79" y2="390.6" xlink:href="#未命名的渐变_15"/><linearGradient id="未命名的渐变_15-3" x1="1218.68" y1="897.33" x2="1303.79" y2="897.33" xlink:href="#未命名的渐变_15"/><linearGradient id="未命名的渐变_15-4" x1="1127.06" y1="390.39" x2="1212.18" y2="390.39" xlink:href="#未命名的渐变_15"/><linearGradient id="未命名的渐变_15-5" x1="1127.06" y1="934.41" x2="1212.18" y2="934.41" xlink:href="#未命名的渐变_15"/><linearGradient id="未命名的渐变_15-6" x1="1127.06" y1="898.14" x2="1212.18" y2="898.14" xlink:href="#未命名的渐变_15"/><linearGradient id="未命名的渐变_15-7" x1="1127.06" y1="213.79" x2="1212.18" y2="213.79" xlink:href="#未命名的渐变_15"/><linearGradient id="未命名的渐变_15-8" x1="1218.68" y1="177.73" x2="1303.79" y2="177.73" xlink:href="#未命名的渐变_15"/><linearGradient id="未命名的渐变_15-9" x1="1664.5" y1="170.64" x2="1749.62" y2="170.64" xlink:href="#未命名的渐变_15"/><linearGradient id="未命名的渐变_15-10" x1="232.06" y1="304.07" x2="317.17" y2="304.07" xlink:href="#未命名的渐变_15"/><linearGradient id="未命名的渐变_15-11" x1="1542.41" y1="242.99" x2="1627.52" y2="242.99" xlink:href="#未命名的渐变_15"/><linearGradient id="未命名的渐变_15-12" x1="1127.06" y1="177.52" x2="1212.18" y2="177.52" xlink:href="#未命名的渐变_15"/><linearGradient id="未命名的渐变_15-13" x1="1127.06" y1="720.85" x2="1212.18" y2="720.85" xlink:href="#未命名的渐变_15"/><linearGradient id="未命名的渐变_15-14" x1="1218.68" y1="684.79" x2="1303.79" y2="684.79" xlink:href="#未命名的渐变_15"/><linearGradient id="未命名的渐变_15-15" x1="1127.06" y1="684.58" x2="1212.18" y2="684.58" xlink:href="#未命名的渐变_15"/></defs><title>4台泵无负压工艺图 副本</title><g id="图层_1" data-name="图层 1"><rect class="cls-1" x="397.08" y="611.27" width="676.99" height="14" transform="translate(1353.85 -117.31) rotate(90)"/><rect class="cls-2" x="226.29" y="820.23" width="83.41" height="152.94"/><rect class="cls-2" x="406.78" y="820.23" width="83.41" height="152.94"/><rect class="cls-3" x="581.7" y="820.23" width="83.41" height="152.94"/><rect class="cls-2" x="1118.46" y="867.51" width="195.07" height="88.34"/><rect class="cls-1" x="1509.35" y="95.43" width="291.02" height="14"/><rect class="cls-4" x="275.71" y="154.16" width="0.63" height="2.18"/><rect class="cls-4" x="270.08" y="155.83" width="0.63" height="2.18" transform="translate(-38.84 202.87) rotate(-38.58)"/><rect class="cls-4" x="281.2" y="156.15" width="0.63" height="2.18" transform="translate(171.39 -145.82) rotate(40.84)"/><rect class="cls-4" x="284.51" y="161.74" width="0.63" height="2.18" transform="translate(414.77 -138.42) rotate(83.58)"/><rect class="cls-4" x="266.46" y="161.68" width="0.63" height="2.18" transform="translate(68.95 404.7) rotate(-82.12)"/><rect class="cls-4" x="274.45" y="154.11" width="0.33" height="1.21" transform="translate(-24.41 55.03) rotate(-10.96)"/><rect class="cls-4" x="277.18" y="154.11" width="0.33" height="1.21" transform="matrix(0.98, 0.21, -0.21, 0.98, 39.24, -55.43)"/><rect class="cls-4" x="278.38" y="154.36" width="0.33" height="1.21" transform="translate(70.04 -86.13) rotate(20.06)"/><rect class="cls-4" x="279.53" y="154.77" width="0.33" height="1.21" transform="translate(104.94 -112.64) rotate(27.84)"/><rect class="cls-4" x="280.62" y="155.33" width="0.33" height="1.21" transform="matrix(0.81, 0.58, -0.58, 0.81, 143.37, -134.36)"/><rect class="cls-4" x="282.51" y="156.87" width="0.33" height="1.21" transform="translate(228.21 -161.48) rotate(51.19)"/><rect class="cls-4" x="283.28" y="157.82" width="0.33" height="1.21" transform="translate(273.09 -166.12) rotate(58.97)"/><rect class="cls-4" x="283.92" y="158.86" width="0.33" height="1.21" transform="translate(318.48 -164.49) rotate(66.75)"/><rect class="cls-4" x="284.41" y="159.98" width="0.33" height="1.21" transform="translate(363.47 -156.5) rotate(74.54)"/><rect class="cls-4" x="284.95" y="161.16" width="0.33" height="1.21" transform="matrix(0.13, 0.99, -0.99, 0.13, 407.31, -142.41)"/><rect class="cls-4" x="285.32" y="163.4" width="0.33" height="1.21" transform="translate(449.99 -121.19) rotate(90.1)"/><rect class="cls-4" x="285.33" y="164.62" width="0.33" height="1.21" transform="translate(488.32 -94.91) rotate(97.88)"/><rect class="cls-4" x="285.17" y="165.83" width="0.33" height="1.21" transform="translate(522.64 -63.35) rotate(105.67)"/><rect class="cls-4" x="273.31" y="154.37" width="0.33" height="1.21" transform="translate(-34.95 94.29) rotate(-18.41)"/><rect class="cls-4" x="272.21" y="154.79" width="0.33" height="1.21" transform="translate(-40.5 134.34) rotate(-25.86)"/><rect class="cls-4" x="271.17" y="155.34" width="0.33" height="1.21" transform="translate(-41.06 174.6) rotate(-33.3)"/><rect class="cls-4" x="268.72" y="157.01" width="0.33" height="1.21" transform="translate(-26.92 255.8) rotate(-48.74)"/><rect class="cls-4" x="267.91" y="158.15" width="0.33" height="1.21" transform="translate(-10.38 298.5) rotate(-57.28)"/><rect class="cls-4" x="266.86" y="159.39" width="0.33" height="1.21" transform="translate(11.72 338.1) rotate(-65.83)"/><rect class="cls-4" x="266.42" y="160.72" width="0.33" height="1.21" transform="translate(39.41 374.59) rotate(-74.37)"/><rect class="cls-4" x="266.14" y="163.49" width="0.33" height="1.21" transform="translate(109.04 434.5) rotate(-91.46)"/><rect class="cls-4" x="266.11" y="164.88" width="0.33" height="1.21" transform="translate(149.56 456.46) rotate(-100)"/><rect class="cls-4" x="266.49" y="166.23" width="0.33" height="1.21" transform="matrix(-0.32, -0.95, 0.95, -0.32, 193.31, 472.71)"/><rect class="cls-4" x="273.29" y="177.36" width="5.62" height="3.7"/><rect class="cls-4" x="273.29" y="202.7" width="5.62" height="9.59"/><rect class="cls-4" x="273.29" y="185.88" width="5.62" height="2.72"/><rect class="cls-4" x="272.69" y="201.53" width="6.78" height="1.27"/><polygon class="cls-4" points="280.51 190.97 271.71 190.97 273.29 188.8 278.91 188.8 280.51 190.97"/><polygon class="cls-4" points="278.47 180.66 273.72 180.66 271.35 183.11 273.72 185.56 278.47 185.56 280.84 183.11 278.47 180.66"/><polygon class="cls-4" points="279.54 191.22 272.67 191.22 269.24 196.16 272.67 201.11 279.54 201.11 282.97 196.16 279.54 191.22"/><rect class="cls-4" x="267.67" y="192.24" width="2.81" height="8.92"/><rect class="cls-4" x="266.85" y="193.31" width="1.62" height="6.53"/><rect class="cls-4" x="264.7" y="195.09" width="2.32" height="3.16"/><rect class="cls-4" x="259.54" y="195.6" width="1.15" height="2.8" rx="0.37"/><rect class="cls-4" x="263.32" y="193.15" width="1.04" height="7.8"/><rect class="cls-4" x="261.01" y="193.15" width="2.76" height="1.73" rx="0.44"/><rect class="cls-4" x="261.01" y="196.02" width="2.76" height="1.73" rx="0.44"/><rect class="cls-4" x="261.01" y="199.22" width="2.76" height="1.73" rx="0.44"/><circle class="cls-5" cx="275.71" cy="163.87" r="13.34"/><path class="cls-6" d="M265.47,167.73a12.28,12.28,0,0,1-.57-3.69,10.75,10.75,0,0,1,.56-3.23,10.9,10.9,0,1,1,20.68,6.89"/><polygon class="cls-4" points="273.56 166.44 272.44 164.53 276.25 163.28 282.1 160.07 282.23 160.33 276.47 163.61 273.56 166.44"/><circle class="cls-7" cx="275.63" cy="163.86" r="0.84"/><text class="cls-8" transform="translate(272.03 172.32)">MPA</text><rect class="cls-4" x="1707.88" y="39.62" width="0.63" height="2.18"/><rect class="cls-4" x="1702.26" y="41.28" width="0.63" height="2.18" transform="translate(345.16 1070.96) rotate(-38.58)"/><rect class="cls-4" x="1713.38" y="41.61" width="0.63" height="2.18" transform="translate(445.23 -1110.37) rotate(40.84)"/><rect class="cls-4" x="1716.69" y="47.19" width="0.63" height="2.18" transform="translate(1572.92 -1663.34) rotate(83.58)"/><rect class="cls-4" x="1698.63" y="47.14" width="0.63" height="2.18" transform="translate(1418.16 1724.51) rotate(-82.12)"/><rect class="cls-4" x="1706.63" y="39.56" width="0.33" height="1.21" transform="translate(23.49 325.23) rotate(-10.96)"/><rect class="cls-4" x="1709.36" y="39.56" width="0.33" height="1.21" transform="translate(47.63 -362.56) rotate(12.28)"/><rect class="cls-4" x="1710.56" y="39.81" width="0.33" height="1.21" transform="translate(117.63 -584.29) rotate(20.06)"/><rect class="cls-4" x="1711.71" y="40.23" width="0.33" height="1.21" transform="translate(217.22 -794.75) rotate(27.84)"/><rect class="cls-4" x="1712.79" y="40.79" width="0.33" height="1.21" transform="translate(344.67 -989.97) rotate(35.62)"/><rect class="cls-4" x="1714.68" y="42.33" width="0.33" height="1.21" transform="translate(673.5 -1320.2) rotate(51.19)"/><rect class="cls-4" x="1715.46" y="43.28" width="0.33" height="1.21" transform="translate(868.86 -1448.86) rotate(58.97)"/><rect class="cls-4" x="1716.09" y="44.32" width="0.33" height="1.21" transform="translate(1080.14 -1549.73) rotate(66.75)"/><rect class="cls-4" x="1716.58" y="45.44" width="0.33" height="1.21" transform="translate(1303.37 -1620.83) rotate(74.54)"/><rect class="cls-4" x="1717.12" y="46.62" width="0.33" height="1.21" transform="translate(1534.53 -1660.97) rotate(82.32)"/><rect class="cls-4" x="1717.5" y="48.86" width="0.33" height="1.21" transform="translate(1770.14 -1668.11) rotate(90.1)"/><rect class="cls-4" x="1717.51" y="50.08" width="0.33" height="1.21" transform="translate(2003.46 -1643.8) rotate(97.88)"/><rect class="cls-4" x="1717.35" y="51.29" width="0.33" height="1.21" transform="translate(2231.24 -1587.8) rotate(105.67)"/><rect class="cls-4" x="1705.48" y="39.83" width="0.33" height="1.21" transform="translate(74.51 540.69) rotate(-18.41)"/><rect class="cls-4" x="1704.38" y="40.24" width="0.33" height="1.21" transform="translate(152.83 747.47) rotate(-25.86)"/><rect class="cls-4" x="1703.35" y="40.79" width="0.33" height="1.21" transform="translate(257.05 942.18) rotate(-33.3)"/><rect class="cls-4" x="1700.9" y="42.46" width="0.33" height="1.21" transform="translate(546.88 1293.4) rotate(-48.74)"/><rect class="cls-4" x="1700.08" y="43.6" width="0.33" height="1.21" transform="translate(744.12 1450.84) rotate(-57.28)"/><rect class="cls-4" x="1699.04" y="44.85" width="0.33" height="1.21" transform="translate(961.96 1577.06) rotate(-65.83)"/><rect class="cls-4" x="1698.59" y="46.17" width="0.33" height="1.21" transform="translate(1196.09 1670.14) rotate(-74.37)"/><rect class="cls-4" x="1698.32" y="48.95" width="0.33" height="1.21" transform="translate(1692.24 1748.75) rotate(-91.46)"/><rect class="cls-4" x="1698.28" y="50.34" width="0.33" height="1.21" transform="matrix(-0.17, -0.98, 0.98, -0.17, 1943.35, 1732.41)"/><rect class="cls-4" x="1698.66" y="51.68" width="0.33" height="1.21" transform="translate(2189.67 1679.5) rotate(-108.55)"/><rect class="cls-4" x="1705.47" y="62.81" width="5.62" height="3.7"/><rect class="cls-4" x="1705.47" y="88.16" width="5.62" height="9.59"/><rect class="cls-4" x="1705.47" y="71.34" width="5.62" height="2.72"/><rect class="cls-4" x="1704.87" y="86.99" width="6.78" height="1.27"/><polygon class="cls-4" points="1712.69 76.42 1703.89 76.42 1705.47 74.25 1711.08 74.25 1712.69 76.42"/><polygon class="cls-4" points="1710.65 66.11 1705.9 66.11 1703.52 68.56 1705.9 71.01 1710.65 71.01 1713.02 68.56 1710.65 66.11"/><polygon class="cls-4" points="1711.72 76.68 1704.85 76.68 1701.42 81.62 1704.85 86.56 1711.72 86.56 1715.15 81.62 1711.72 76.68"/><rect class="cls-4" x="1699.84" y="77.69" width="2.81" height="8.92"/><rect class="cls-4" x="1699.02" y="78.76" width="1.62" height="6.53"/><rect class="cls-4" x="1696.87" y="80.55" width="2.32" height="3.16"/><rect class="cls-4" x="1691.72" y="81.05" width="1.15" height="2.8" rx="0.37"/><rect class="cls-4" x="1695.49" y="78.6" width="1.04" height="7.8"/><rect class="cls-4" x="1693.18" y="78.6" width="2.76" height="1.73" rx="0.44"/><rect class="cls-4" x="1693.18" y="81.48" width="2.76" height="1.73" rx="0.44"/><rect class="cls-4" x="1693.18" y="84.68" width="2.76" height="1.73" rx="0.44"/><circle class="cls-5" cx="1707.88" cy="49.32" r="13.34"/><path class="cls-6" d="M1697.64,53.18a12.37,12.37,0,0,1-.56-3.68,10.7,10.7,0,0,1,.56-3.23,10.9,10.9,0,1,1,20.68,6.88"/><polygon class="cls-4" points="1705.74 51.9 1704.61 49.98 1708.43 48.74 1714.27 45.52 1714.41 45.78 1708.64 49.07 1705.74 51.9"/><circle class="cls-7" cx="1707.81" cy="49.32" r="0.84"/><text class="cls-8" transform="translate(1704.21 57.77)">MPA</text><rect class="cls-4" x="511.51" y="431.91" width="0.58" height="2"/><rect class="cls-4" x="506.34" y="433.44" width="0.58" height="2" transform="translate(-160.34 410.75) rotate(-38.58)"/><rect class="cls-4" x="516.56" y="433.74" width="0.58" height="2" transform="translate(410.18 -232.16) rotate(40.84)"/><rect class="cls-4" x="519.6" y="438.87" width="0.58" height="2" transform="translate(898.85 -125.96) rotate(83.58)"/><rect class="cls-4" x="503.01" y="438.82" width="0.58" height="2" transform="translate(-1.4 878.04) rotate(-82.12)"/><rect class="cls-4" x="510.35" y="431.86" width="0.3" height="1.11" transform="translate(-72.9 104.95) rotate(-10.96)"/><rect class="cls-4" x="512.87" y="431.86" width="0.3" height="1.11" transform="translate(103.67 -99.19) rotate(12.28)"/><rect class="cls-4" x="513.97" y="432.09" width="0.3" height="1.11" transform="translate(179.57 -150.09) rotate(20.06)"/><rect class="cls-4" x="515.02" y="432.47" width="0.3" height="1.11" transform="translate(261.86 -190.47) rotate(27.84)"/><rect class="cls-4" x="516.02" y="432.98" width="0.3" height="1.11" transform="translate(349.11 -219.51) rotate(35.62)"/><rect class="cls-4" x="517.76" y="434.4" width="0.3" height="1.11" transform="translate(532.22 -241.22) rotate(51.19)"/><rect class="cls-4" x="518.47" y="435.27" width="0.3" height="1.11" transform="translate(624.74 -233.24) rotate(58.97)"/><rect class="cls-4" x="519.05" y="436.23" width="0.3" height="1.11" transform="translate(715.6 -212.66) rotate(66.75)"/><rect class="cls-4" x="519.51" y="437.26" width="0.3" height="1.11" transform="translate(803.06 -179.77) rotate(74.54)"/><rect class="cls-4" x="520" y="438.34" width="0.3" height="1.11" transform="translate(885.58 -135.26) rotate(82.32)"/><rect class="cls-4" x="520.35" y="440.4" width="0.3" height="1.11" transform="translate(962.37 -78.77) rotate(90.1)"/><rect class="cls-4" x="520.35" y="441.52" width="0.3" height="1.11" transform="translate(1029.79 -12.88) rotate(97.88)"/><rect class="cls-4" x="520.21" y="442.63" width="0.3" height="1.11" transform="translate(1087.59 61.83) rotate(105.67)"/><rect class="cls-4" x="509.3" y="432.1" width="0.3" height="1.11" transform="translate(-110.56 183.02) rotate(-18.41)"/><rect class="cls-4" x="508.29" y="432.48" width="0.3" height="1.11" transform="translate(-137.96 265.09) rotate(-25.86)"/><rect class="cls-4" x="507.34" y="432.99" width="0.3" height="1.11" transform="translate(-154.71 349.86) rotate(-33.3)"/><rect class="cls-4" x="505.09" y="434.52" width="0.3" height="1.11" transform="matrix(0.66, -0.75, 0.75, 0.66, -155.01, 527.96)"/><rect class="cls-4" x="504.34" y="435.57" width="0.3" height="1.11" transform="translate(-135.11 624.87) rotate(-57.28)"/><rect class="cls-4" x="503.38" y="436.71" width="0.3" height="1.11" transform="translate(-101.58 717.6) rotate(-65.83)"/><rect class="cls-4" x="502.97" y="437.93" width="0.3" height="1.11" transform="translate(-54.69 804.89) rotate(-74.37)"/><rect class="cls-4" x="502.72" y="440.48" width="0.3" height="1.11" transform="translate(74.79 954.99) rotate(-91.46)"/><rect class="cls-4" x="502.69" y="441.76" width="0.3" height="1.11" transform="translate(154.61 1014.35) rotate(-100)"/><rect class="cls-4" x="503.03" y="443" width="0.3" height="1.11" transform="translate(242.74 1061.7) rotate(-108.55)"/><rect class="cls-4" x="509.29" y="453.23" width="5.16" height="3.4"/><rect class="cls-4" x="509.29" y="476.52" width="5.16" height="8.82"/><rect class="cls-4" x="509.29" y="461.06" width="5.16" height="2.5"/><rect class="cls-4" x="508.74" y="475.44" width="6.23" height="1.17"/><polygon class="cls-4" points="515.93 465.73 507.84 465.73 509.29 463.74 514.45 463.74 515.93 465.73"/><polygon class="cls-4" points="514.05 456.26 509.69 456.26 507.5 458.51 509.69 460.76 514.05 460.76 516.23 458.51 514.05 456.26"/><polygon class="cls-4" points="515.03 465.97 508.72 465.97 505.57 470.51 508.72 475.05 515.03 475.05 518.19 470.51 515.03 465.97"/><rect class="cls-4" x="504.12" y="466.9" width="2.59" height="8.2"/><rect class="cls-4" x="503.37" y="467.89" width="1.49" height="6"/><rect class="cls-4" x="501.39" y="469.53" width="2.13" height="2.91"/><rect class="cls-4" x="496.65" y="469.99" width="1.06" height="2.58" rx="0.37"/><rect class="cls-4" x="500.12" y="467.74" width="0.95" height="7.17"/><rect class="cls-4" x="498" y="467.74" width="2.54" height="1.59" rx="0.44"/><rect class="cls-4" x="498" y="470.38" width="2.54" height="1.59" rx="0.44"/><rect class="cls-4" x="498" y="473.32" width="2.54" height="1.59" rx="0.44"/><circle class="cls-5" cx="511.51" cy="440.83" r="12.26"/><path class="cls-6" d="M502.1,444.37a11.17,11.17,0,0,1-.52-3.38,9.91,9.91,0,0,1,.51-3,10,10,0,0,1,19,6.33"/><polygon class="cls-4" points="509.54 443.19 508.5 441.44 512.01 440.29 517.38 437.34 517.51 437.57 512.21 440.59 509.54 443.19"/><circle class="cls-7" cx="511.44" cy="440.82" r="0.77"/><text class="cls-9" transform="translate(508.13 448.59)">MPA</text><rect class="cls-1" x="397.33" y="373.31" width="298.49" height="14" transform="translate(926.88 -166.27) rotate(90)"/><path class="cls-1" d="M529.34,224.85H158.94c-3.51,0-6.36-3.13-6.36-7h0c0-3.87,2.85-7,6.36-7h370.4c3.52,0,6.37,3.13,6.37,7h0C535.71,221.72,532.86,224.85,529.34,224.85Z"/><rect class="cls-1" x="350.25" y="643.94" width="197.55" height="14" transform="translate(1099.96 201.91) rotate(90)"/><rect class="cls-1" x="1073.9" y="534.87" width="834.73" height="14" transform="translate(2033.13 -949.4) rotate(90)"/><rect class="cls-1" x="464.59" y="759.73" width="263.74" height="14"/><rect class="cls-1" x="753.61" y="251.7" width="287.01" height="14"/><rect class="cls-1" x="1118.38" y="253.63" width="369.67" height="14"/><rect class="cls-4" x="545.18" y="440.46" width="2.79" height="15.76" transform="translate(98.24 994.92) rotate(-90)"/><rect class="cls-4" x="545.18" y="437.64" width="2.79" height="15.76" transform="translate(101.05 992.1) rotate(-90)"/><rect class="cls-4" x="545.18" y="449.55" width="2.79" height="15.76" transform="translate(89.15 1004.01) rotate(-90)"/><rect class="cls-4" x="545.18" y="446.73" width="2.79" height="15.76" transform="translate(91.96 1001.19) rotate(-90)"/><rect class="cls-4" x="447.61" y="670.49" width="2.79" height="15.76" transform="translate(-229.36 1127.38) rotate(-90)"/><rect class="cls-4" x="447.61" y="667.68" width="2.79" height="15.76" transform="translate(-226.55 1124.56) rotate(-90)"/><rect class="cls-4" x="447.61" y="679.58" width="2.79" height="15.76" transform="translate(-238.45 1136.47) rotate(-90)"/><rect class="cls-4" x="447.61" y="676.77" width="2.79" height="15.76" transform="translate(-235.64 1133.65) rotate(-90)"/><rect class="cls-4" x="1489.83" y="471.61" width="2.79" height="15.76" transform="translate(1027.36 1975.65) rotate(-90.6)"/><rect class="cls-4" x="1489.81" y="468.79" width="2.79" height="15.76" transform="translate(1030.15 1972.78) rotate(-90.6)"/><rect class="cls-4" x="1489.93" y="480.7" width="2.79" height="15.76" transform="translate(1018.37 1984.93) rotate(-90.6)"/><rect class="cls-4" x="1489.9" y="477.88" width="2.79" height="15.76" transform="translate(1021.15 1982.06) rotate(-90.6)"/><rect class="cls-1" x="735.2" y="465.62" width="304.35" height="14"/><rect class="cls-1" x="1117.23" y="465.62" width="369.43" height="14"/><rect class="cls-1" x="1118.04" y="971.6" width="362.1" height="14"/><rect class="cls-4" x="1529.2" y="215.72" width="2.97" height="9.2" transform="translate(1751 -1310.37) rotate(90)"/><rect class="cls-4" x="1529.34" y="191.38" width="2.68" height="9.2" transform="translate(1726.66 -1334.71) rotate(90)"/><rect class="cls-4" x="1474.71" y="197.18" width="34.39" height="22.59" transform="translate(1700.38 -1283.43) rotate(90)"/><polygon class="cls-4" points="1486.67 228.84 1480.11 226.18 1502.7 226.18 1496.29 228.84 1486.67 228.84"/><polygon class="cls-4" points="1486.67 188.1 1480.11 190.76 1502.7 190.76 1496.29 188.1 1486.67 188.1"/><rect class="cls-4" x="1489.55" y="223.3" width="3.01" height="18.6" transform="translate(1723.66 -1258.46) rotate(90)"/><rect class="cls-4" x="1489.55" y="227.43" width="3.01" height="18.6" transform="translate(1727.79 -1254.33) rotate(90)"/><rect class="cls-4" x="1489.55" y="170.94" width="3.01" height="18.6" transform="translate(1671.3 -1310.82) rotate(90)"/><rect class="cls-4" x="1489.55" y="175.07" width="3.01" height="18.6" transform="translate(1675.43 -1306.69) rotate(90)"/><rect class="cls-4" x="1497.81" y="205.79" width="14.34" height="5.51" rx="0.4" transform="translate(1713.53 -1296.44) rotate(90)"/><rect class="cls-4" x="1508.56" y="206.71" width="11.97" height="3.32" rx="0.4" transform="translate(1722.92 -1306.18) rotate(90)"/><rect class="cls-4" x="1512.6" y="206.69" width="11.97" height="3.57" rx="0.4" transform="translate(1727.07 -1310.11) rotate(90)"/><rect class="cls-4" x="1507.52" y="204.53" width="5.99" height="7.73" rx="0.4" transform="translate(1718.91 -1302.12) rotate(90)"/><circle class="cls-10" cx="1530.59" cy="208.56" r="11.18"/><circle class="cls-11" cx="1530.4" cy="208.35" r="7.97"/><circle class="cls-12" cx="1530.34" cy="208.54" r="10.32"/><rect class="cls-4" x="1531.44" y="193.74" width="2.76" height="1.69" transform="translate(1727.41 -1338.23) rotate(90)"/><rect class="cls-4" x="1527.15" y="193.74" width="2.76" height="1.69" transform="translate(1723.11 -1333.94) rotate(90)"/><rect class="cls-13" x="1524.97" y="206.49" width="10.75" height="3.82" transform="translate(1738.74 -1321.95) rotate(90)"/><polygon class="cls-14" points="1528.43 205.9 1528.43 203.02 1532.25 203.02 1532.25 208.7 1528.43 205.9"/><path class="cls-4" d="M1497,205.77l3.58-9.12a.42.42,0,0,1,.73-.11l6.11,7.65a.42.42,0,0,1-.27.69l-9.69,1.47A.43.43,0,0,1,1497,205.77Z"/><path class="cls-4" d="M1497,211.35l3.58,9.13a.43.43,0,0,0,.73.11l6.11-7.66a.42.42,0,0,0-.27-.69l-9.69-1.46A.42.42,0,0,0,1497,211.35Z"/><path class="cls-15" d="M586.16,485.06a5.29,5.29,0,0,1,1.88-1.47l18.06-8.44c7.08-3.31,14.4,2.69,13.58,11.14l-2.08,21.55"/><ellipse class="cls-16" cx="610.62" cy="484.55" rx="3.4" ry="3.75" transform="translate(-113.24 195.28) rotate(-16.65)"/><path class="cls-17" d="M360.08,485.06a5.29,5.29,0,0,0-1.88-1.47l-18.06-8.44c-7.09-3.31-14.4,2.69-13.58,11.14l2.08,21.55"/><ellipse class="cls-18" cx="335.62" cy="484.55" rx="3.75" ry="3.4" transform="translate(-224.78 667.26) rotate(-73.35)"/><path class="cls-19" d="M599.56,662.73h-249a46.34,46.34,0,0,1-12.88-8.23c-21.87-19.69-21.54-56.35-21.28-85.07,0,0,.41-46,19.18-74.79a21.92,21.92,0,0,1,5.09-5.48A19.84,19.84,0,0,1,348.2,486a20.33,20.33,0,0,1,2.33-.3h249a20.52,20.52,0,0,1,7.2,3.42,24.47,24.47,0,0,1,7,8.24,142.43,142.43,0,0,1,12,29.5c5.74,20.35,5.56,36.71,5.29,51.8,0,0-1.2,41.93-17.31,75.12-.7,1.45-1.83,4-4.27,5.58A20.37,20.37,0,0,1,599.56,662.73Z"/><rect class="cls-20" x="386.2" y="662.75" width="17.87" height="66.53"/><rect class="cls-20" x="543.99" y="662.75" width="17.87" height="66.53"/><path class="cls-21" d="M615.52,662.22c-4.71.51-263.63.51-263.63.51s-19.81-.19-32.8-45.89"/><rect class="cls-22" x="427.24" y="402.29" width="39.67" height="82.87"/><rect class="cls-23" x="427.81" y="410.85" width="38.54" height="0.99"/><rect class="cls-23" x="427.81" y="413.41" width="38.54" height="0.99"/><rect class="cls-23" x="427.81" y="415.97" width="38.54" height="0.99"/><rect class="cls-24" x="435.71" y="421.3" width="22.59" height="9.74"/><rect class="cls-24" x="417.19" y="462.66" width="59.82" height="3.11"/><rect class="cls-24" x="417.19" y="467.71" width="59.82" height="3.11"/><path class="cls-25" d="M579.36,662c13.28-.06,21.13,1.24,27.91-1.75,6.19-3.1,8.56-11.36,11.7-20.57,12.09-35.47,13.89-69.71,9.11-98.7-11.35,1.22-57.83,16.41-81,13.66s-38.55-22.87-103.28-25.18-126,28.15-126,28.15c-1.39,27.82-3.09,59.25,11,85.2.86,1.59,3.18,6.63,12.39,13.83a39,39,0,0,0,7.84,5.16"/><rect class="cls-4" x="443.11" y="211.09" width="67.24" height="12.45"/><polygon class="cls-4" points="475.39 240.79 451.02 229.35 499.75 229.35 475.39 240.79"/><rect class="cls-26" x="497.04" y="199.47" width="2.49" height="29.88" rx="0.2"/><rect class="cls-4" x="450.48" y="199.47" width="49.81" height="32.37" rx="0.4"/><rect class="cls-27" x="496.6" y="199.47" width="1.68" height="32.37"/><rect class="cls-27" x="493.52" y="199.47" width="1.68" height="32.37"/><rect class="cls-27" x="455.63" y="199.47" width="1.68" height="32.37"/><rect class="cls-27" x="452.56" y="199.47" width="1.68" height="32.37"/><rect class="cls-27" x="460.45" y="237.01" width="29.88" height="4.98" rx="0.2"/><ellipse class="cls-4" cx="475.39" cy="231.01" rx="16.19" ry="7.47"/><rect class="cls-28" x="459.3" y="231.84" width="32.37" height="8.01" rx="0.1"/><rect class="cls-4" x="459.2" y="231.6" width="32.37" height="6.88"/><rect class="cls-27" x="464.66" y="240.54" width="2.49" height="2.49"/><rect class="cls-27" x="471.3" y="240.54" width="2.49" height="2.49"/><rect class="cls-27" x="477.95" y="240.54" width="2.49" height="2.49"/><rect class="cls-27" x="484.59" y="240.54" width="2.49" height="2.49"/><rect class="cls-27" x="459.41" y="206.94" width="31.2" height="14.94" rx="1"/><text class="cls-29" transform="translate(460.63 211.73) scale(1.14 1)">----------<tspan x="2.51" y="3.35">--------</tspan><tspan x="5.02" y="6.7">------</tspan></text><rect class="cls-4" x="502.88" y="209.85" width="7.47" height="14.94" rx="0.1"/><rect class="cls-4" x="440.62" y="209.85" width="7.47" height="14.94" rx="0.1"/><rect class="cls-4" x="1217.48" y="462.4" width="24.9" height="17.43"/><rect class="cls-30" x="1219.97" y="464.89" width="2.49" height="12.54"/><rect class="cls-30" x="1237.41" y="464.6" width="2.49" height="12.74"/><rect class="cls-30" x="1229.57" y="460.99" width="0.74" height="20.08" transform="translate(1606.84 1733) rotate(-127.58)"/><polygon class="cls-4" points="1218.09 458.5 1245.8 458.5 1231.94 453.19 1231.94 453.19 1231.94 455.85 1218.09 455.85 1218.09 458.5"/><rect class="cls-4" x="1217.48" y="968.9" width="24.9" height="17.43"/><rect class="cls-30" x="1219.97" y="971.39" width="2.49" height="12.54"/><rect class="cls-30" x="1237.41" y="971.1" width="2.49" height="12.74"/><rect class="cls-30" x="1229.57" y="967.49" width="0.74" height="20.08" transform="translate(1205.46 2548.42) rotate(-127.58)"/><polygon class="cls-4" points="1218.09 965 1245.8 965 1231.94 959.69 1231.94 959.69 1231.94 962.34 1218.09 962.34 1218.09 965"/><rect class="cls-4" x="1217.48" y="251.59" width="24.9" height="17.43"/><rect class="cls-30" x="1219.97" y="254.08" width="2.49" height="12.54"/><rect class="cls-30" x="1237.41" y="253.78" width="2.49" height="12.74"/><rect class="cls-30" x="1229.57" y="250.18" width="0.74" height="20.08" transform="translate(1773.9 1393.6) rotate(-127.58)"/><polygon class="cls-4" points="1218.09 247.68 1245.8 247.68 1231.94 242.38 1231.94 242.38 1231.94 245.03 1218.09 245.03 1218.09 247.68"/><text class="cls-31" transform="translate(441.62 273.65)">过滤器</text><text class="cls-31" transform="translate(584.06 717.78)">稳流补偿器</text><text class="cls-31" transform="translate(965.27 241.54)">1#泵</text><text class="cls-31" transform="translate(965.27 458.67)">2#泵</text><text class="cls-31" transform="translate(965.27 962.34)">3#泵</text><text class="cls-31" transform="translate(324.69 273.65)">进水阀门</text><text class="cls-31" transform="translate(1535.83 145.98)">出水阀门</text><text class="cls-31" transform="translate(1524.14 783.08) rotate(90)">压力控制器</text><text class="cls-32" transform="translate(135.12 191.96)">市政进水</text><text class="cls-32" transform="translate(1753.66 77.25)">供水入户</text><text class="cls-31" transform="translate(241.29 273.65)">压力表</text><text class="cls-31" transform="translate(1673.47 144.28)">压力表</text><text class="cls-31" transform="translate(1552.2 214.75)">流量计</text><text class="cls-33" transform="translate(148.71 844.55)">进水压力 </text><text class="cls-33" transform="translate(148.71 882.99)">出水压力 </text><text class="cls-33" transform="translate(148.71 921.24)">设定压力 </text><text class="cls-33" transform="translate(504.11 843.27)">余氯 </text><text class="cls-33" transform="translate(329.19 844.55)">PH </text><text class="cls-33" transform="translate(329.19 882.99)">湿度 </text><text class="cls-33" transform="translate(329.19 921.24)">噪音 </text><text class="cls-33" transform="translate(329.19 961.18)">浊度 </text><text class="cls-33" transform="translate(148.71 962.47)">瞬时流量 </text><text class="cls-33" transform="translate(503.11 882.99)">累计流量 </text><text class="cls-33" transform="translate(503.11 921.24)">累计电量 </text><rect class="cls-2" x="1621.06" y="832.49" width="186" height="113.65"/><text class="cls-34" transform="translate(1635.41 863.8)">状态说明 </text><text class="cls-34" transform="translate(1735.43 863.8)">运行状态 </text><text class="cls-34" transform="translate(1735.43 891.35)">停止状态 </text><text class="cls-34" transform="translate(1735.43 918.31)">故障状态 </text><path class="cls-35" d="M1714.15,851.18a7.16,7.16,0,1,0,7.17,7.16,7.16,7.16,0,0,0-7.17-7.16Zm0,13.2a6,6,0,1,1,6-6,6,6,0,0,1-6,6Zm2.87,2.89"/><path class="cls-35" d="M1710.42,857.43c-1.31.66-2.18,2.19-1.31,3.07,1.53,1.53,2.19-.66,3.28-1.32.68-.41,1.32-.87,1.32-1.31s-2-1.1-3.29-.44Zm5,2.18c-.69-.38-1.42-.7-1.8-.48s0,2.25,1.27,3.06,3,.8,3.31-.39c.56-2.1-1.67-1.57-2.78-2.19Zm-.56-1c.38.22,1.93-1.16,2-2.63s-.8-3-2-2.67c-2.09.56-.53,2.23-.5,3.5,0,.79.1,1.58.48,1.8Zm0,0"/><path class="cls-36" d="M1714.15,878.14a7.16,7.16,0,1,0,7.17,7.17,7.17,7.17,0,0,0-7.17-7.17Zm0,13.21a6,6,0,1,1,6-6,6,6,0,0,1-6,6Zm2.87,2.88"/><path class="cls-36" d="M1710.42,884.4c-1.31.66-2.18,2.19-1.31,3.06,1.53,1.54,2.19-.65,3.28-1.31.68-.41,1.32-.88,1.32-1.32s-2-1.09-3.29-.43Zm5,2.18c-.69-.38-1.42-.7-1.8-.48s0,2.25,1.27,3.06,3,.8,3.31-.39c.56-2.1-1.67-1.57-2.78-2.19Zm-.56-1c.38.22,1.93-1.16,2-2.62s-.8-3-2-2.67c-2.09.56-.53,2.22-.5,3.5,0,.79.1,1.58.48,1.79Zm0,0"/><path class="cls-37" d="M1714.15,905.11a7.16,7.16,0,1,0,7.17,7.16,7.17,7.17,0,0,0-7.17-7.16Zm0,13.2a6,6,0,1,1,6-6,6,6,0,0,1-6,6Zm2.87,2.89"/><path class="cls-37" d="M1710.42,911.37c-1.31.65-2.18,2.18-1.31,3.06,1.53,1.53,2.19-.66,3.28-1.31.68-.41,1.32-.88,1.32-1.32s-2-1.09-3.29-.43Zm5,2.18c-.69-.39-1.42-.7-1.8-.49s0,2.26,1.27,3.07,3,.8,3.31-.4c.56-2.09-1.67-1.57-2.78-2.18Zm-.56-1c.38.22,1.93-1.16,2-2.62s-.8-3-2-2.67c-2.09.56-.53,2.22-.5,3.5,0,.79.1,1.57.48,1.79Zm0,0"/><rect class="cls-2" x="1118.46" y="359.76" width="195.07" height="88.34"/><rect class="cls-38" x="1128.06" y="411.56" width="83.11" height="30.2"/><rect class="cls-39" x="1219.68" y="375.5" width="83.11" height="30.2"/><rect class="cls-40" x="1219.68" y="882.23" width="83.11" height="30.2"/><rect class="cls-41" x="1128.06" y="375.29" width="83.11" height="30.2"/><rect class="cls-42" x="1128.06" y="919.31" width="83.11" height="30.2"/><rect class="cls-43" x="1128.06" y="883.04" width="83.11" height="30.2"/><rect class="cls-2" x="1118.46" y="146.89" width="195.07" height="88.34"/><rect class="cls-44" x="1128.06" y="198.69" width="83.11" height="30.2"/><rect class="cls-45" x="1219.68" y="162.63" width="83.11" height="30.2"/><rect class="cls-46" x="1665.5" y="155.54" width="83.11" height="30.2"/><rect class="cls-47" x="233.06" y="288.97" width="83.11" height="30.2"/><rect class="cls-48" x="1543.41" y="227.89" width="83.11" height="30.2"/><rect class="cls-49" x="1128.06" y="162.42" width="83.11" height="30.2"/><polygon class="cls-50" points="820.93 285.82 852.42 285.82 858.44 285.82 854.96 294.01 878.11 284.24 854.96 274.47 858.44 282.65 852.42 282.65 820.93 282.65 820.93 285.82"/><polygon class="cls-50" points="572.72 345.09 572.72 376.58 572.72 382.6 564.53 379.12 574.31 402.27 584.08 379.12 575.89 382.6 575.89 376.58 575.89 345.09 572.72 345.09"/><polygon class="cls-50" points="144.25 264.88 175.73 264.88 181.75 264.88 178.28 273.06 201.43 263.29 178.28 253.52 181.75 261.7 175.73 261.7 144.25 261.7 144.25 264.88"/><polygon class="cls-50" points="1393.62 285.82 1425.1 285.82 1431.12 285.82 1427.65 294.01 1450.79 284.24 1427.65 274.47 1431.12 282.65 1425.1 282.65 1393.62 282.65 1393.62 285.82"/><polygon class="cls-50" points="1769.07 138.49 1800.56 138.49 1806.58 138.49 1803.1 146.68 1826.25 136.91 1803.1 127.13 1806.58 135.32 1800.56 135.32 1769.07 135.32 1769.07 138.49"/><polygon class="cls-50" points="820.93 498.92 852.42 498.92 858.44 498.92 854.96 507.11 878.11 497.34 854.96 487.56 858.44 495.75 852.42 495.75 820.93 495.75 820.93 498.92"/><polygon class="cls-50" points="1393.62 498.92 1425.1 498.92 1431.12 498.92 1427.65 507.11 1450.79 497.34 1427.65 487.56 1431.12 495.75 1425.1 495.75 1393.62 495.75 1393.62 498.92"/><polygon class="cls-50" points="820.93 1016 852.42 1016 858.44 1016 854.96 1024.18 878.11 1014.41 854.96 1004.64 858.44 1012.83 852.42 1012.83 820.93 1012.83 820.93 1016"/><polygon class="cls-50" points="531.63 795.74 563.11 795.74 569.13 795.74 565.66 803.93 588.8 794.15 565.66 784.38 569.13 792.57 563.11 792.57 531.63 792.57 531.63 795.74"/><polygon class="cls-50" points="1393.62 1016 1425.1 1016 1431.12 1016 1427.65 1024.18 1450.79 1014.41 1427.65 1004.64 1431.12 1012.83 1425.1 1012.83 1393.62 1012.83 1393.62 1016"/><polygon class="cls-50" points="1520.19 507.76 1520.19 476.28 1520.19 470.26 1528.38 473.73 1518.61 450.58 1508.83 473.73 1517.02 470.26 1517.02 476.28 1517.02 507.76 1520.19 507.76"/><path class="cls-1" d="M539.45,237.63l14.87.13a26.83,26.83,0,0,0-27.56-26.95v14.27a12.58,12.58,0,0,1,8.18,2.78A13,13,0,0,1,539.45,237.63Z"/><rect class="cls-1" x="523.25" y="209.53" width="3.8" height="16.56" transform="translate(1050.3 435.62) rotate(-180)"/><rect class="cls-1" x="544.9" y="230.67" width="3.8" height="16.56" transform="translate(785.75 -307.86) rotate(90)"/><path class="cls-1" d="M755,266.14q.06-7.44.13-14.87a26.85,26.85,0,0,0-26.95,27.57h14.27a12.58,12.58,0,0,1,2.78-8.19A13,13,0,0,1,755,266.14Z"/><rect class="cls-1" x="733.3" y="272.16" width="3.8" height="16.56" transform="translate(1015.64 -454.76) rotate(90)"/><rect class="cls-1" x="754.44" y="250.51" width="3.8" height="16.56"/><path class="cls-1" d="M1510.89,110.2l.12-14.86a26.83,26.83,0,0,0-26.94,27.56h14.27a12.55,12.55,0,0,1,2.78-8.18A13,13,0,0,1,1510.89,110.2Z"/><rect class="cls-1" x="1489.16" y="116.23" width="3.8" height="16.56" transform="translate(1615.57 -1366.56) rotate(90)"/><rect class="cls-1" x="1510.31" y="94.57" width="3.8" height="16.56"/><rect class="cls-1" x="756.47" y="971.6" width="282.99" height="14"/><path class="cls-1" d="M743.29,959.15,728.43,959A26.81,26.81,0,0,0,756,986V971.71a12.61,12.61,0,0,1-8.18-2.78A13,13,0,0,1,743.29,959.15Z"/><rect class="cls-1" x="755.69" y="970.7" width="3.8" height="16.56"/><rect class="cls-1" x="734.04" y="949.56" width="3.8" height="16.56" transform="translate(-221.9 1693.78) rotate(-90)"/><path class="cls-1" d="M1471.82,971.88l-.12,14.87a26.83,26.83,0,0,0,26.94-27.56h-14.27a12.56,12.56,0,0,1-2.78,8.18A13,13,0,0,1,1471.82,971.88Z"/><rect class="cls-1" x="1489.74" y="949.3" width="3.8" height="16.56" transform="translate(534.06 2449.23) rotate(-90)"/><rect class="cls-1" x="1468.6" y="970.96" width="3.8" height="16.56" transform="translate(2941.01 1958.47) rotate(-180)"/><path class="cls-1" d="M456.35,747l-14.86-.12a26.83,26.83,0,0,0,27.56,26.94V759.53a12.55,12.55,0,0,1-8.18-2.78A13,13,0,0,1,456.35,747Z"/><rect class="cls-1" x="468.75" y="758.52" width="3.8" height="16.56"/><rect class="cls-1" x="447.1" y="737.38" width="3.8" height="16.56" transform="translate(-296.66 1194.66) rotate(-90)"/><rect class="cls-51" x="135.13" y="820.11" width="529.98" height="153.55"/><rect class="cls-51" x="135.12" y="820.72" width="529.98" height="38.16"/><rect class="cls-51" x="135.12" y="859.16" width="529.98" height="38.16"/><rect class="cls-51" x="135.12" y="897.41" width="529.98" height="38.16"/><rect class="cls-51" x="135.12" y="935.51" width="529.98" height="38.16"/><rect class="cls-4" x="931.3" y="250.81" width="3.48" height="15.76"/><rect class="cls-4" x="936.07" y="250.81" width="3.48" height="15.76"/><rect class="cls-4" x="898.15" y="250.81" width="3.48" height="15.76"/><rect class="cls-4" x="902.91" y="250.81" width="3.48" height="15.76"/><circle class="cls-52" cx="918.51" cy="216.81" r="12.98"/><rect class="cls-4" x="912.25" y="206.12" width="1.83" height="10.15" rx="0.91" transform="translate(1708.2 -285.18) rotate(135)"/><rect class="cls-4" x="923.48" y="217.34" width="1.83" height="10.15" rx="0.91" transform="translate(1735.31 -273.95) rotate(135)"/><rect class="cls-4" x="915.61" y="200.89" width="6.59" height="3.25"/><polygon class="cls-4" points="917.75 238.23 916.21 238.7 912.64 232.58 914.19 232.11 917.75 238.23"/><polygon class="cls-4" points="920.83 238.23 922.38 238.7 925.55 232.62 924.4 232.11 920.83 238.23"/><rect class="cls-4" x="918.35" y="231.81" width="1.67" height="6.63" transform="translate(1838.37 470.25) rotate(180)"/><rect class="cls-4" x="930.75" y="212.51" width="3.69" height="7.92"/><rect class="cls-4" x="912.16" y="229.98" width="13.63" height="3.72" rx="0.72"/><rect class="cls-4" x="916.11" y="239.81" width="6.45" height="7.65" rx="0.72"/><rect class="cls-4" x="912.42" y="237.32" width="13.73" height="1.57" rx="0.44"/><rect class="cls-4" x="912.42" y="239.02" width="13.73" height="1.57" rx="0.42"/><rect class="cls-4" x="902.13" y="217.29" width="3.03" height="3.14"/><rect class="cls-4" x="902.13" y="213.02" width="3.03" height="3.14"/><circle class="cls-53" cx="918.78" cy="216.81" r="3.33"/><circle class="cls-54" cx="918.82" cy="216.81" r="2.22"/><rect class="cls-4" x="923.48" y="206.12" width="1.83" height="10.15" rx="0.91" transform="translate(1428.7 1014.17) rotate(-135)"/><rect class="cls-4" x="912.25" y="217.34" width="1.83" height="10.15" rx="0.91" transform="translate(1401.59 1025.4) rotate(-135)"/><rect class="cls-4" x="912.32" y="243.59" width="13.48" height="24.85" rx="4.98"/><rect class="cls-4" x="924.57" y="242.09" width="3.31" height="27.82" rx="1.66"/><rect class="cls-4" x="910.31" y="242.09" width="3.31" height="27.82" rx="1.66"/><circle class="cls-55" cx="918.82" cy="216.81" r="1.33"/><circle class="cls-56" cx="918.82" cy="216.81" r="0.94"/><rect class="cls-4" x="378.65" y="209.72" width="3.48" height="15.76"/><rect class="cls-4" x="383.42" y="209.72" width="3.48" height="15.76"/><rect class="cls-4" x="345.5" y="209.72" width="3.48" height="15.76"/><rect class="cls-4" x="350.27" y="209.72" width="3.48" height="15.76"/><circle class="cls-52" cx="365.86" cy="175.72" r="12.98"/><rect class="cls-4" x="359.6" y="165.03" width="1.83" height="10.15" rx="0.91" transform="translate(735.72 35.46) rotate(135)"/><rect class="cls-4" x="370.83" y="176.25" width="1.83" height="10.15" rx="0.91" transform="translate(762.82 46.69) rotate(135)"/><rect class="cls-4" x="362.96" y="159.8" width="6.59" height="3.25"/><polygon class="cls-4" points="365.11 197.14 363.56 197.61 360 191.49 361.54 191.02 365.11 197.14"/><polygon class="cls-4" points="368.19 197.14 369.73 197.61 372.9 191.53 371.75 191.02 368.19 197.14"/><rect class="cls-4" x="365.7" y="190.72" width="1.67" height="6.63" transform="translate(733.08 388.07) rotate(180)"/><rect class="cls-4" x="378.1" y="171.42" width="3.69" height="7.92"/><rect class="cls-4" x="359.52" y="188.9" width="13.63" height="3.72" rx="0.72"/><rect class="cls-4" x="363.46" y="198.72" width="6.45" height="7.65" rx="0.72"/><rect class="cls-4" x="359.77" y="196.23" width="13.73" height="1.57" rx="0.44"/><rect class="cls-4" x="359.77" y="197.93" width="13.73" height="1.57" rx="0.42"/><rect class="cls-4" x="349.48" y="176.2" width="3.03" height="3.14"/><rect class="cls-4" x="349.48" y="171.93" width="3.03" height="3.14"/><circle class="cls-53" cx="366.13" cy="175.72" r="3.33"/><circle class="cls-54" cx="366.18" cy="175.72" r="2.22"/><rect class="cls-4" x="370.83" y="165.03" width="1.83" height="10.15" rx="0.91" transform="translate(514.32 553.24) rotate(-135)"/><rect class="cls-4" x="359.6" y="176.25" width="1.83" height="10.15" rx="0.91" transform="translate(487.22 564.47) rotate(-135)"/><rect class="cls-4" x="359.67" y="202.5" width="13.48" height="24.85" rx="4.98"/><rect class="cls-4" x="371.92" y="201" width="3.31" height="27.82" rx="1.66"/><rect class="cls-4" x="357.66" y="201" width="3.31" height="27.82" rx="1.66"/><circle class="cls-55" cx="366.18" cy="175.72" r="1.33"/><circle class="cls-56" cx="366.18" cy="175.72" r="0.94"/><rect class="cls-4" x="1589.51" y="93.88" width="3.48" height="15.76"/><rect class="cls-4" x="1594.28" y="93.88" width="3.48" height="15.76"/><rect class="cls-4" x="1556.36" y="93.88" width="3.48" height="15.76"/><rect class="cls-4" x="1561.13" y="93.88" width="3.48" height="15.76"/><circle class="cls-52" cx="1576.72" cy="59.87" r="12.98"/><rect class="cls-4" x="1570.46" y="49.18" width="1.83" height="10.15" rx="0.91" transform="translate(2720.87 -1018.5) rotate(135)"/><rect class="cls-4" x="1581.69" y="60.41" width="1.83" height="10.15" rx="0.91" transform="translate(2747.98 -1007.27) rotate(135)"/><rect class="cls-4" x="1573.82" y="43.95" width="6.59" height="3.25"/><polygon class="cls-4" points="1575.97 81.3 1574.42 81.76 1570.86 75.65 1572.4 75.18 1575.97 81.3"/><polygon class="cls-4" points="1579.05 81.3 1580.59 81.76 1583.76 75.68 1582.61 75.18 1579.05 81.3"/><rect class="cls-4" x="1576.56" y="74.87" width="1.67" height="6.63" transform="translate(3154.8 156.38) rotate(180)"/><rect class="cls-4" x="1588.96" y="55.57" width="3.69" height="7.92"/><rect class="cls-4" x="1570.38" y="73.05" width="13.63" height="3.72" rx="0.72"/><rect class="cls-4" x="1574.32" y="82.87" width="6.45" height="7.65" rx="0.72"/><rect class="cls-4" x="1570.63" y="80.39" width="13.73" height="1.57" rx="0.44"/><rect class="cls-4" x="1570.63" y="82.09" width="13.73" height="1.57" rx="0.42"/><rect class="cls-4" x="1560.34" y="60.35" width="3.03" height="3.14"/><rect class="cls-4" x="1560.34" y="56.09" width="3.03" height="3.14"/><circle class="cls-53" cx="1576.99" cy="59.88" r="3.33"/><circle class="cls-54" cx="1577.04" cy="59.87" r="2.22"/><rect class="cls-4" x="1581.69" y="49.18" width="1.83" height="10.15" rx="0.91" transform="translate(2663.3 1211.69) rotate(-135)"/><rect class="cls-4" x="1570.46" y="60.41" width="1.83" height="10.15" rx="0.91" transform="translate(2636.2 1222.91) rotate(-135)"/><rect class="cls-4" x="1570.53" y="86.65" width="13.48" height="24.85" rx="4.98"/><rect class="cls-4" x="1582.78" y="85.15" width="3.31" height="27.82" rx="1.66"/><rect class="cls-4" x="1568.52" y="85.15" width="3.31" height="27.82" rx="1.66"/><circle class="cls-55" cx="1577.04" cy="59.87" r="1.33"/><circle class="cls-56" cx="1577.04" cy="59.87" r="0.94"/><rect class="cls-4" x="1360.21" y="250.81" width="3.48" height="15.76"/><rect class="cls-4" x="1364.98" y="250.81" width="3.48" height="15.76"/><rect class="cls-4" x="1327.06" y="250.81" width="3.48" height="15.76"/><rect class="cls-4" x="1331.83" y="250.81" width="3.48" height="15.76"/><circle class="cls-52" cx="1347.42" cy="216.81" r="12.98"/><rect class="cls-4" x="1341.16" y="206.12" width="1.83" height="10.15" rx="0.91" transform="translate(2440.4 -588.46) rotate(135)"/><rect class="cls-4" x="1352.39" y="217.34" width="1.83" height="10.15" rx="0.91" transform="translate(2467.5 -577.24) rotate(135)"/><rect class="cls-4" x="1344.52" y="200.89" width="6.59" height="3.25"/><polygon class="cls-4" points="1346.67 238.23 1345.12 238.7 1341.56 232.58 1343.1 232.11 1346.67 238.23"/><polygon class="cls-4" points="1349.74 238.23 1351.29 238.7 1354.46 232.62 1353.31 232.11 1349.74 238.23"/><rect class="cls-4" x="1347.26" y="231.81" width="1.67" height="6.63" transform="translate(2696.19 470.25) rotate(180)"/><rect class="cls-4" x="1359.66" y="212.51" width="3.69" height="7.92"/><rect class="cls-4" x="1341.07" y="229.98" width="13.63" height="3.72" rx="0.72"/><rect class="cls-4" x="1345.02" y="239.81" width="6.45" height="7.65" rx="0.72"/><rect class="cls-4" x="1341.33" y="237.32" width="13.73" height="1.57" rx="0.44"/><rect class="cls-4" x="1341.33" y="239.02" width="13.73" height="1.57" rx="0.42"/><rect class="cls-4" x="1331.04" y="217.29" width="3.03" height="3.14"/><rect class="cls-4" x="1331.04" y="213.02" width="3.03" height="3.14"/><circle class="cls-53" cx="1347.69" cy="216.81" r="3.33"/><circle class="cls-54" cx="1347.73" cy="216.81" r="2.22"/><rect class="cls-4" x="1352.39" y="206.12" width="1.83" height="10.15" rx="0.91" transform="translate(2160.89 1317.46) rotate(-135)"/><rect class="cls-4" x="1341.16" y="217.34" width="1.83" height="10.15" rx="0.91" transform="translate(2133.79 1328.68) rotate(-135)"/><rect class="cls-4" x="1341.23" y="243.59" width="13.48" height="24.85" rx="4.98"/><rect class="cls-4" x="1353.48" y="242.09" width="3.31" height="27.82" rx="1.66"/><rect class="cls-4" x="1339.22" y="242.09" width="3.31" height="27.82" rx="1.66"/><circle class="cls-55" cx="1347.73" cy="216.81" r="1.33"/><circle class="cls-56" cx="1347.73" cy="216.81" r="0.94"/><rect class="cls-4" x="931.3" y="464.51" width="3.48" height="15.76"/><rect class="cls-4" x="936.07" y="464.51" width="3.48" height="15.76"/><rect class="cls-4" x="898.15" y="464.51" width="3.48" height="15.76"/><rect class="cls-4" x="902.91" y="464.51" width="3.48" height="15.76"/><circle class="cls-52" cx="918.51" cy="430.51" r="12.98"/><rect class="cls-4" x="912.25" y="419.81" width="1.83" height="10.15" rx="0.91" transform="translate(1859.31 79.63) rotate(135)"/><rect class="cls-4" x="923.48" y="431.04" width="1.83" height="10.15" rx="0.91" transform="translate(1886.41 90.86) rotate(135)"/><rect class="cls-4" x="915.61" y="414.59" width="6.59" height="3.25"/><polygon class="cls-4" points="917.75 451.93 916.21 452.39 912.64 446.28 914.19 445.81 917.75 451.93"/><polygon class="cls-4" points="920.83 451.93 922.38 452.39 925.55 446.31 924.4 445.81 920.83 451.93"/><rect class="cls-4" x="918.35" y="445.51" width="1.67" height="6.63" transform="translate(1838.37 897.65) rotate(180)"/><rect class="cls-4" x="930.75" y="426.2" width="3.69" height="7.92"/><rect class="cls-4" x="912.16" y="443.68" width="13.63" height="3.72" rx="0.72"/><rect class="cls-4" x="916.11" y="453.51" width="6.45" height="7.65" rx="0.72"/><rect class="cls-4" x="912.42" y="451.02" width="13.73" height="1.57" rx="0.44"/><rect class="cls-4" x="912.42" y="452.72" width="13.73" height="1.57" rx="0.42"/><rect class="cls-4" x="902.13" y="430.98" width="3.03" height="3.14"/><rect class="cls-4" x="902.13" y="426.72" width="3.03" height="3.14"/><circle class="cls-53" cx="918.78" cy="430.51" r="3.33"/><circle class="cls-54" cx="918.82" cy="430.51" r="2.22"/><rect class="cls-4" x="923.48" y="419.81" width="1.83" height="10.15" rx="0.91" transform="translate(1277.59 1378.98) rotate(-135)"/><rect class="cls-4" x="912.25" y="431.04" width="1.83" height="10.15" rx="0.91" transform="translate(1250.48 1390.2) rotate(-135)"/><rect class="cls-4" x="912.32" y="457.29" width="13.48" height="24.85" rx="4.98"/><rect class="cls-4" x="924.57" y="455.79" width="3.31" height="27.82" rx="1.66"/><rect class="cls-4" x="910.31" y="455.79" width="3.31" height="27.82" rx="1.66"/><circle class="cls-55" cx="918.82" cy="430.51" r="1.33"/><circle class="cls-56" cx="918.82" cy="430.51" r="0.94"/><rect class="cls-4" x="1360.21" y="464.51" width="3.48" height="15.76"/><rect class="cls-4" x="1364.98" y="464.51" width="3.48" height="15.76"/><rect class="cls-4" x="1327.06" y="464.51" width="3.48" height="15.76"/><rect class="cls-4" x="1331.83" y="464.51" width="3.48" height="15.76"/><circle class="cls-52" cx="1347.42" cy="430.51" r="12.98"/><rect class="cls-4" x="1341.16" y="419.81" width="1.83" height="10.15" rx="0.91" transform="translate(2591.51 -223.65) rotate(135)"/><rect class="cls-4" x="1352.39" y="431.04" width="1.83" height="10.15" rx="0.91" transform="translate(2618.61 -212.43) rotate(135)"/><rect class="cls-4" x="1344.52" y="414.59" width="6.59" height="3.25"/><polygon class="cls-4" points="1346.67 451.93 1345.12 452.39 1341.56 446.28 1343.1 445.81 1346.67 451.93"/><polygon class="cls-4" points="1349.74 451.93 1351.29 452.39 1354.46 446.31 1353.31 445.81 1349.74 451.93"/><rect class="cls-4" x="1347.26" y="445.51" width="1.67" height="6.63" transform="translate(2696.19 897.65) rotate(180)"/><rect class="cls-4" x="1359.66" y="426.2" width="3.69" height="7.92"/><rect class="cls-4" x="1341.07" y="443.68" width="13.63" height="3.72" rx="0.72"/><rect class="cls-4" x="1345.02" y="453.51" width="6.45" height="7.65" rx="0.72"/><rect class="cls-4" x="1341.33" y="451.02" width="13.73" height="1.57" rx="0.44"/><rect class="cls-4" x="1341.33" y="452.72" width="13.73" height="1.57" rx="0.42"/><rect class="cls-4" x="1331.04" y="430.98" width="3.03" height="3.14"/><rect class="cls-4" x="1331.04" y="426.72" width="3.03" height="3.14"/><circle class="cls-53" cx="1347.69" cy="430.51" r="3.33"/><circle class="cls-54" cx="1347.73" cy="430.51" r="2.22"/><rect class="cls-4" x="1352.39" y="419.81" width="1.83" height="10.15" rx="0.91" transform="translate(2009.78 1682.26) rotate(-135)"/><rect class="cls-4" x="1341.16" y="431.04" width="1.83" height="10.15" rx="0.91" transform="translate(1982.68 1693.49) rotate(-135)"/><rect class="cls-4" x="1341.23" y="457.29" width="13.48" height="24.85" rx="4.98"/><rect class="cls-4" x="1353.48" y="455.79" width="3.31" height="27.82" rx="1.66"/><rect class="cls-4" x="1339.22" y="455.79" width="3.31" height="27.82" rx="1.66"/><circle class="cls-55" cx="1347.73" cy="430.51" r="1.33"/><circle class="cls-56" cx="1347.73" cy="430.51" r="0.94"/><rect class="cls-1" x="735.2" y="759.81" width="304.35" height="14"/><rect class="cls-1" x="1117.23" y="759.81" width="369.43" height="14"/><rect class="cls-4" x="1217.48" y="756.59" width="24.9" height="17.43"/><rect class="cls-30" x="1219.97" y="759.08" width="2.49" height="12.54"/><rect class="cls-30" x="1237.41" y="758.79" width="2.49" height="12.74"/><rect class="cls-30" x="1229.57" y="755.18" width="0.74" height="20.08" transform="translate(1373.7 2206.63) rotate(-127.58)"/><polygon class="cls-4" points="1218.09 752.69 1245.8 752.69 1231.94 747.38 1231.94 747.38 1231.94 750.04 1218.09 750.04 1218.09 752.69"/><text class="cls-31" transform="translate(965.27 752.86)">2#泵</text><rect class="cls-2" x="1118.46" y="653.95" width="195.07" height="88.34"/><rect class="cls-57" x="1128.06" y="705.75" width="83.11" height="30.2"/><rect class="cls-58" x="1219.68" y="669.69" width="83.11" height="30.2"/><rect class="cls-59" x="1128.06" y="669.48" width="83.11" height="30.2"/><polygon class="cls-50" points="820.93 793.11 852.42 793.11 858.44 793.11 854.96 801.3 878.11 791.53 854.96 781.76 858.44 789.94 852.42 789.94 820.93 789.94 820.93 793.11"/><polygon class="cls-50" points="1393.62 791.11 1425.1 791.11 1431.12 791.11 1427.65 799.3 1450.79 789.53 1427.65 779.76 1431.12 787.94 1425.1 787.94 1393.62 787.94 1393.62 791.11"/><rect class="cls-4" x="931.3" y="758.7" width="3.48" height="15.76"/><rect class="cls-4" x="936.07" y="758.7" width="3.48" height="15.76"/><rect class="cls-4" x="898.15" y="758.7" width="3.48" height="15.76"/><rect class="cls-4" x="902.91" y="758.7" width="3.48" height="15.76"/><circle class="cls-52" cx="918.51" cy="724.7" r="12.98"/><rect class="cls-4" x="912.25" y="714" width="1.83" height="10.15" rx="0.91" transform="translate(2067.33 581.84) rotate(135)"/><rect class="cls-4" x="923.48" y="725.23" width="1.83" height="10.15" rx="0.91" transform="translate(2094.44 593.07) rotate(135)"/><rect class="cls-4" x="915.61" y="708.78" width="6.59" height="3.25"/><polygon class="cls-4" points="917.75 746.12 916.21 746.59 912.64 740.47 914.19 740 917.75 746.12"/><polygon class="cls-4" points="920.83 746.12 922.38 746.59 925.55 740.51 924.4 740 920.83 746.12"/><rect class="cls-4" x="918.35" y="739.7" width="1.67" height="6.63" transform="translate(1838.37 1486.03) rotate(180)"/><rect class="cls-4" x="930.75" y="720.39" width="3.69" height="7.92"/><rect class="cls-4" x="912.16" y="737.87" width="13.63" height="3.72" rx="0.72"/><rect class="cls-4" x="916.11" y="747.7" width="6.45" height="7.65" rx="0.72"/><rect class="cls-4" x="912.42" y="745.21" width="13.73" height="1.57" rx="0.44"/><rect class="cls-4" x="912.42" y="746.91" width="13.73" height="1.57" rx="0.42"/><rect class="cls-4" x="902.13" y="725.17" width="3.03" height="3.14"/><rect class="cls-4" x="902.13" y="720.91" width="3.03" height="3.14"/><circle class="cls-53" cx="918.78" cy="724.7" r="3.33"/><circle class="cls-54" cx="918.82" cy="724.7" r="2.22"/><rect class="cls-4" x="923.48" y="714" width="1.83" height="10.15" rx="0.91" transform="translate(1069.56 1881.19) rotate(-135)"/><rect class="cls-4" x="912.25" y="725.23" width="1.83" height="10.15" rx="0.91" transform="translate(1042.46 1892.42) rotate(-135)"/><rect class="cls-4" x="912.32" y="751.48" width="13.48" height="24.85" rx="4.98"/><rect class="cls-4" x="924.57" y="749.98" width="3.31" height="27.82" rx="1.66"/><rect class="cls-4" x="910.31" y="749.98" width="3.31" height="27.82" rx="1.66"/><circle class="cls-55" cx="918.82" cy="724.7" r="1.33"/><circle class="cls-56" cx="918.82" cy="724.7" r="0.94"/><rect class="cls-4" x="1360.21" y="758.7" width="3.48" height="15.76"/><rect class="cls-4" x="1364.98" y="758.7" width="3.48" height="15.76"/><rect class="cls-4" x="1327.06" y="758.7" width="3.48" height="15.76"/><rect class="cls-4" x="1331.83" y="758.7" width="3.48" height="15.76"/><circle class="cls-52" cx="1347.42" cy="724.7" r="12.98"/><rect class="cls-4" x="1341.16" y="714" width="1.83" height="10.15" rx="0.91" transform="translate(2799.53 278.56) rotate(135)"/><rect class="cls-4" x="1352.39" y="725.23" width="1.83" height="10.15" rx="0.91" transform="translate(2826.63 289.78) rotate(135)"/><rect class="cls-4" x="1344.52" y="708.78" width="6.59" height="3.25"/><polygon class="cls-4" points="1346.67 746.12 1345.12 746.59 1341.56 740.47 1343.1 740 1346.67 746.12"/><polygon class="cls-4" points="1349.74 746.12 1351.29 746.59 1354.46 740.51 1353.31 740 1349.74 746.12"/><rect class="cls-4" x="1347.26" y="739.7" width="1.67" height="6.63" transform="translate(2696.19 1486.03) rotate(180)"/><rect class="cls-4" x="1359.66" y="720.39" width="3.69" height="7.92"/><rect class="cls-4" x="1341.07" y="737.87" width="13.63" height="3.72" rx="0.72"/><rect class="cls-4" x="1345.02" y="747.7" width="6.45" height="7.65" rx="0.72"/><rect class="cls-4" x="1341.33" y="745.21" width="13.73" height="1.57" rx="0.44"/><rect class="cls-4" x="1341.33" y="746.91" width="13.73" height="1.57" rx="0.42"/><rect class="cls-4" x="1331.04" y="725.17" width="3.03" height="3.14"/><rect class="cls-4" x="1331.04" y="720.91" width="3.03" height="3.14"/><circle class="cls-53" cx="1347.69" cy="724.7" r="3.33"/><circle class="cls-54" cx="1347.73" cy="724.7" r="2.22"/><rect class="cls-4" x="1352.39" y="714" width="1.83" height="10.15" rx="0.91" transform="translate(1801.75 2184.48) rotate(-135)"/><rect class="cls-4" x="1341.16" y="725.23" width="1.83" height="10.15" rx="0.91" transform="translate(1774.66 2195.7) rotate(-135)"/><rect class="cls-4" x="1341.23" y="751.48" width="13.48" height="24.85" rx="4.98"/><rect class="cls-4" x="1353.48" y="749.98" width="3.31" height="27.82" rx="1.66"/><rect class="cls-4" x="1339.22" y="749.98" width="3.31" height="27.82" rx="1.66"/><circle class="cls-55" cx="1347.73" cy="724.7" r="1.33"/><circle class="cls-56" cx="1347.73" cy="724.7" r="0.94"/><rect class="cls-1" x="735.2" y="565.17" width="753.92" height="14"/><rect class="cls-4" x="906.48" y="562.95" width="24.9" height="17.43"/><rect class="cls-30" x="908.97" y="565.44" width="2.49" height="12.54"/><rect class="cls-30" x="926.41" y="565.15" width="2.49" height="12.74"/><rect class="cls-30" x="918.57" y="561.54" width="0.74" height="20.08" transform="translate(1026.47 1648.42) rotate(-127.58)"/><polygon class="cls-4" points="907.09 559.05 934.79 559.05 920.94 553.74 920.94 553.74 920.94 556.39 907.09 556.39 907.09 559.05"/><polygon class="cls-50" points="937.93 599.47 969.42 599.47 975.44 599.47 971.96 607.66 995.11 597.88 971.96 588.11 975.44 596.3 969.42 596.3 937.93 596.3 937.93 599.47"/><polygon class="cls-50" points="1286.95 599.47 1318.43 599.47 1324.46 599.47 1320.98 607.66 1344.13 597.88 1320.98 588.11 1324.46 596.3 1318.43 596.3 1286.95 596.3 1286.95 599.47"/><rect class="cls-4" x="1251.21" y="564.06" width="3.48" height="15.76"/><rect class="cls-4" x="1255.98" y="564.06" width="3.48" height="15.76"/><rect class="cls-4" x="1218.06" y="564.06" width="3.48" height="15.76"/><rect class="cls-4" x="1222.83" y="564.06" width="3.48" height="15.76"/><circle class="cls-52" cx="1238.42" cy="530.05" r="12.98"/><rect class="cls-4" x="1232.16" y="519.36" width="1.83" height="10.15" rx="0.91" transform="translate(2475.82 23.36) rotate(135)"/><rect class="cls-4" x="1243.39" y="530.59" width="1.83" height="10.15" rx="0.91" transform="translate(2502.93 34.58) rotate(135)"/><rect class="cls-4" x="1235.52" y="514.14" width="6.59" height="3.25"/><polygon class="cls-4" points="1237.67 551.48 1236.12 551.94 1232.56 545.83 1234.1 545.36 1237.67 551.48"/><polygon class="cls-4" points="1240.74 551.48 1242.29 551.94 1245.46 545.86 1244.31 545.36 1240.74 551.48"/><rect class="cls-4" x="1238.26" y="545.06" width="1.67" height="6.63" transform="translate(2478.19 1096.75) rotate(180)"/><rect class="cls-4" x="1250.66" y="525.75" width="3.69" height="7.92"/><rect class="cls-4" x="1232.07" y="543.23" width="13.63" height="3.72" rx="0.72"/><rect class="cls-4" x="1236.02" y="553.05" width="6.45" height="7.65" rx="0.72"/><rect class="cls-4" x="1232.33" y="550.57" width="13.73" height="1.57" rx="0.44"/><rect class="cls-4" x="1232.33" y="552.27" width="13.73" height="1.57" rx="0.42"/><rect class="cls-4" x="1222.04" y="530.53" width="3.03" height="3.14"/><rect class="cls-4" x="1222.04" y="526.27" width="3.03" height="3.14"/><circle class="cls-53" cx="1238.69" cy="530.06" r="3.33"/><circle class="cls-54" cx="1238.73" cy="530.05" r="2.22"/><rect class="cls-4" x="1243.39" y="519.36" width="1.83" height="10.15" rx="0.91" transform="translate(1753.31 1775.13) rotate(-135)"/><rect class="cls-4" x="1232.16" y="530.59" width="1.83" height="10.15" rx="0.91" transform="translate(1726.21 1786.35) rotate(-135)"/><rect class="cls-4" x="1232.23" y="556.83" width="13.48" height="24.85" rx="4.98"/><rect class="cls-4" x="1244.48" y="555.34" width="3.31" height="27.82" rx="1.66"/><rect class="cls-4" x="1230.22" y="555.34" width="3.31" height="27.82" rx="1.66"/><circle class="cls-55" cx="1238.73" cy="530.05" r="1.33"/><circle class="cls-56" cx="1238.73" cy="530.05" r="0.94"/><rect class="cls-4" x="931.3" y="970.93" width="3.48" height="15.76"/><rect class="cls-4" x="936.07" y="970.93" width="3.48" height="15.76"/><rect class="cls-4" x="898.15" y="970.93" width="3.48" height="15.76"/><rect class="cls-4" x="902.91" y="970.93" width="3.48" height="15.76"/><circle class="cls-52" cx="918.51" cy="936.93" r="12.98"/><rect class="cls-4" x="912.25" y="926.23" width="1.83" height="10.15" rx="0.91" transform="translate(2217.4 944.14) rotate(135)"/><rect class="cls-4" x="923.48" y="937.46" width="1.83" height="10.15" rx="0.91" transform="translate(2244.51 955.37) rotate(135)"/><rect class="cls-4" x="915.61" y="921.01" width="6.59" height="3.25"/><polygon class="cls-4" points="917.75 958.35 916.21 958.82 912.64 952.7 914.19 952.23 917.75 958.35"/><polygon class="cls-4" points="920.83 958.35 922.38 958.82 925.55 952.74 924.4 952.23 920.83 958.35"/><rect class="cls-4" x="918.35" y="951.93" width="1.67" height="6.63" transform="translate(1838.37 1910.49) rotate(180)"/><rect class="cls-4" x="930.75" y="932.62" width="3.69" height="7.92"/><rect class="cls-4" x="912.16" y="950.1" width="13.63" height="3.72" rx="0.72"/><rect class="cls-4" x="916.11" y="959.93" width="6.45" height="7.65" rx="0.72"/><rect class="cls-4" x="912.42" y="957.44" width="13.73" height="1.57" rx="0.44"/><rect class="cls-4" x="912.42" y="959.14" width="13.73" height="1.57" rx="0.42"/><rect class="cls-4" x="902.13" y="937.4" width="3.03" height="3.14"/><rect class="cls-4" x="902.13" y="933.14" width="3.03" height="3.14"/><circle class="cls-53" cx="918.78" cy="936.93" r="3.33"/><circle class="cls-54" cx="918.82" cy="936.93" r="2.22"/><rect class="cls-4" x="923.48" y="926.23" width="1.83" height="10.15" rx="0.91" transform="translate(919.5 2243.49) rotate(-135)"/><rect class="cls-4" x="912.25" y="937.46" width="1.83" height="10.15" rx="0.91" transform="translate(892.39 2254.72) rotate(-135)"/><rect class="cls-4" x="912.32" y="963.71" width="13.48" height="24.85" rx="4.98"/><rect class="cls-4" x="924.57" y="962.21" width="3.31" height="27.82" rx="1.66"/><rect class="cls-4" x="910.31" y="962.21" width="3.31" height="27.82" rx="1.66"/><circle class="cls-55" cx="918.82" cy="936.93" r="1.33"/><circle class="cls-56" cx="918.82" cy="936.93" r="0.94"/><rect class="cls-4" x="1360.21" y="970.93" width="3.48" height="15.76"/><rect class="cls-4" x="1364.98" y="970.93" width="3.48" height="15.76"/><rect class="cls-4" x="1327.06" y="970.93" width="3.48" height="15.76"/><rect class="cls-4" x="1331.83" y="970.93" width="3.48" height="15.76"/><circle class="cls-52" cx="1347.42" cy="936.93" r="12.98"/><rect class="cls-4" x="1341.16" y="926.23" width="1.83" height="10.15" rx="0.91" transform="translate(2949.6 640.86) rotate(135)"/><rect class="cls-4" x="1352.39" y="937.46" width="1.83" height="10.15" rx="0.91" transform="translate(2976.7 652.08) rotate(135)"/><rect class="cls-4" x="1344.52" y="921.01" width="6.59" height="3.25"/><polygon class="cls-4" points="1346.67 958.35 1345.12 958.82 1341.56 952.7 1343.1 952.23 1346.67 958.35"/><polygon class="cls-4" points="1349.74 958.35 1351.29 958.82 1354.46 952.74 1353.31 952.23 1349.74 958.35"/><rect class="cls-4" x="1347.26" y="951.93" width="1.67" height="6.63" transform="translate(2696.19 1910.49) rotate(180)"/><rect class="cls-4" x="1359.66" y="932.62" width="3.69" height="7.92"/><rect class="cls-4" x="1341.07" y="950.1" width="13.63" height="3.72" rx="0.72"/><rect class="cls-4" x="1345.02" y="959.93" width="6.45" height="7.65" rx="0.72"/><rect class="cls-4" x="1341.33" y="957.44" width="13.73" height="1.57" rx="0.44"/><rect class="cls-4" x="1341.33" y="959.14" width="13.73" height="1.57" rx="0.42"/><rect class="cls-4" x="1331.04" y="937.4" width="3.03" height="3.14"/><rect class="cls-4" x="1331.04" y="933.14" width="3.03" height="3.14"/><circle class="cls-53" cx="1347.69" cy="936.93" r="3.33"/><circle class="cls-54" cx="1347.73" cy="936.93" r="2.22"/><rect class="cls-4" x="1352.39" y="926.23" width="1.83" height="10.15" rx="0.91" transform="translate(1651.69 2546.77) rotate(-135)"/><rect class="cls-4" x="1341.16" y="937.46" width="1.83" height="10.15" rx="0.91" transform="translate(1624.59 2558) rotate(-135)"/><rect class="cls-4" x="1341.23" y="963.71" width="13.48" height="24.85" rx="4.98"/><rect class="cls-4" x="1353.48" y="962.21" width="3.31" height="27.82" rx="1.66"/><rect class="cls-4" x="1339.22" y="962.21" width="3.31" height="27.82" rx="1.66"/><circle class="cls-55" cx="1347.73" cy="936.93" r="1.33"/><circle class="cls-56" cx="1347.73" cy="936.93" r="0.94"/><text class="cls-60" transform="translate(1066.08 120.76)">SANLEY</text><ellipse class="cls-61" cx="1099.07" cy="156.48" rx="2.12" ry="2.06"/><circle class="cls-62" cx="1099.07" cy="156.48" r="1.84"/><circle class="cls-61" cx="1099.07" cy="156.48" r="1.43"/><circle class="cls-62" cx="1099.07" cy="156.48" r="1.02"/><ellipse class="cls-61" cx="1099.07" cy="163.42" rx="2.12" ry="2.06"/><circle class="cls-62" cx="1099.07" cy="163.42" r="1.84"/><circle class="cls-61" cx="1099.07" cy="163.42" r="1.43"/><circle class="cls-62" cx="1099.07" cy="163.42" r="1.02"/><rect class="cls-63" x="1056.66" y="127.76" width="46.2" height="58.47" rx="10.76"/><rect class="cls-63" x="1056.12" y="110.08" width="46.91" height="75.46" rx="10.76"/><rect class="cls-64" x="1056.8" y="133.21" width="8.16" height="45.27"/><rect class="cls-64" x="1094.87" y="133.21" width="8.16" height="45.27"/><rect class="cls-24" x="1066.66" y="127.42" width="2.04" height="58.47"/><rect class="cls-24" x="1070.74" y="127.42" width="2.04" height="58.47"/><rect class="cls-24" x="1074.82" y="127.42" width="2.04" height="58.47"/><rect class="cls-24" x="1078.9" y="127.42" width="2.04" height="58.47"/><rect class="cls-24" x="1082.98" y="127.42" width="2.04" height="58.47"/><rect class="cls-24" x="1087.06" y="127.42" width="2.04" height="58.47"/><rect class="cls-24" x="1091.13" y="127.42" width="2.04" height="58.47"/><path class="cls-63" d="M1106.88,178.37h-2.56l-1.1-1.1V157.71l1.1-1.1h2.56l1.1,1.1v19.56Z"/><rect class="cls-63" x="1058.44" y="186.22" width="41.87" height="9.52"/><rect class="cls-63" x="1066.32" y="186.22" width="4.76" height="9.52"/><rect class="cls-63" x="1089.44" y="186.22" width="4.76" height="9.52"/><rect class="cls-63" x="1047.56" y="196.42" width="63.91" height="3.4" rx="1.1"/><rect class="cls-63" x="1048.92" y="199.82" width="61.19" height="2.72" rx="1.1"/><rect class="cls-63" x="1055.38" y="202.88" width="48.27" height="3.4" rx="1.1"/><rect class="cls-65" x="1061.5" y="260.67" width="35.35" height="3.4" rx="1.1"/><rect class="cls-63" x="1060.14" y="287.86" width="38.75" height="3.4" rx="1.1"/><rect class="cls-63" x="1065.92" y="206.28" width="27.19" height="20.4"/><rect class="cls-66" x="1057.42" y="226.68" width="44.19" height="6.8" rx="1.1"/><rect class="cls-63" x="1062.78" y="233.47" width="33.51" height="27.19"/><rect class="cls-63" x="1062.18" y="264.07" width="34.12" height="23.79"/><rect class="cls-63" x="1066.26" y="233.47" width="26.51" height="27.19" rx="0.6"/><rect class="cls-63" x="1050.79" y="252.46" width="10.72" height="18.07"/><rect class="cls-63" x="1096.85" y="252.46" width="10.72" height="18.07"/><rect class="cls-63" x="1047.11" y="247.42" width="3.68" height="28.39" rx="0.4"/><rect class="cls-63" x="1040.75" y="247.42" width="3.68" height="28.39" rx="0.4"/><rect class="cls-63" x="1114.15" y="247.42" width="3.68" height="28.39" rx="0.4"/><rect class="cls-63" x="1107.79" y="247.42" width="3.68" height="28.39" rx="0.4"/><text class="cls-67" transform="translate(1066.81 280.87)">变频</text><path class="cls-35" d="M1079.76,236.57a10.5,10.5,0,1,0,10.5,10.5,10.49,10.49,0,0,0-10.5-10.5Zm0,19.35a8.86,8.86,0,1,1,8.85-8.85,8.86,8.86,0,0,1-8.85,8.85Zm4.2,4.23"/><path class="cls-35" d="M1074.29,245.74c-1.92,1-3.2,3.2-1.92,4.49,2.24,2.25,3.21-1,4.81-1.93,1-.59,1.93-1.28,1.93-1.92s-2.89-1.61-4.82-.64Zm7.35,3.19c-1-.56-2.07-1-2.63-.7s0,3.3,1.85,4.49,4.38,1.17,4.86-.58c.82-3.07-2.44-2.3-4.08-3.21Zm-.82-1.42c.55.32,2.83-1.7,3-3.85s-1.17-4.39-2.93-3.92c-3.07.83-.77,3.26-.74,5.14,0,1.15.15,2.3.71,2.63Zm0,0"/><path class="cls-36" d="M1079.23,447.46a10.5,10.5,0,1,0,10.5,10.5,10.5,10.5,0,0,0-10.5-10.5Zm0,19.35a8.86,8.86,0,1,1,8.85-8.85,8.86,8.86,0,0,1-8.85,8.85Zm4.2,4.23"/><path class="cls-36" d="M1073.76,456.63c-1.92,1-3.21,3.21-1.92,4.49,2.24,2.25,3.2-1,4.81-1.93,1-.59,1.93-1.28,1.93-1.92s-2.89-1.61-4.82-.64Zm7.35,3.19c-1-.56-2.07-1-2.63-.7s0,3.3,1.85,4.49,4.38,1.17,4.85-.58c.83-3.07-2.43-2.3-4.07-3.21Zm-.82-1.42c.55.32,2.83-1.7,3-3.85s-1.17-4.39-2.93-3.92c-3.07.83-.77,3.26-.74,5.14,0,1.15.15,2.3.71,2.63Zm0,0"/><text class="cls-60" transform="translate(1065.55 331.65)">SANLEY</text><ellipse class="cls-61" cx="1098.54" cy="367.38" rx="2.12" ry="2.06"/><circle class="cls-62" cx="1098.54" cy="367.38" r="1.84"/><circle class="cls-61" cx="1098.54" cy="367.38" r="1.43"/><circle class="cls-62" cx="1098.54" cy="367.38" r="1.02"/><ellipse class="cls-61" cx="1098.54" cy="374.31" rx="2.12" ry="2.06"/><circle class="cls-62" cx="1098.54" cy="374.31" r="1.84"/><circle class="cls-61" cx="1098.54" cy="374.31" r="1.43"/><circle class="cls-62" cx="1098.54" cy="374.31" r="1.02"/><rect class="cls-63" x="1056.13" y="338.65" width="46.2" height="58.47" rx="10.76"/><rect class="cls-63" x="1055.59" y="320.97" width="46.91" height="75.46" rx="10.76"/><rect class="cls-64" x="1056.27" y="344.1" width="8.16" height="45.27"/><rect class="cls-64" x="1094.34" y="344.1" width="8.16" height="45.27"/><rect class="cls-24" x="1066.13" y="338.31" width="2.04" height="58.47"/><rect class="cls-24" x="1070.21" y="338.31" width="2.04" height="58.47"/><rect class="cls-24" x="1074.29" y="338.31" width="2.04" height="58.47"/><rect class="cls-24" x="1078.37" y="338.31" width="2.04" height="58.47"/><rect class="cls-24" x="1082.45" y="338.31" width="2.04" height="58.47"/><rect class="cls-24" x="1086.52" y="338.31" width="2.04" height="58.47"/><rect class="cls-24" x="1090.6" y="338.31" width="2.04" height="58.47"/><path class="cls-63" d="M1106.35,389.26h-2.56l-1.1-1.1V368.6l1.1-1.1h2.56l1.1,1.1v19.56Z"/><rect class="cls-63" x="1057.91" y="397.12" width="41.87" height="9.52"/><rect class="cls-63" x="1065.79" y="397.12" width="4.76" height="9.52"/><rect class="cls-63" x="1088.9" y="397.12" width="4.76" height="9.52"/><rect class="cls-63" x="1047.03" y="407.31" width="63.91" height="3.4" rx="1.1"/><rect class="cls-63" x="1048.39" y="410.71" width="61.19" height="2.72" rx="1.1"/><rect class="cls-63" x="1054.85" y="413.77" width="48.27" height="3.4" rx="1.1"/><rect class="cls-65" x="1060.97" y="471.56" width="35.35" height="3.4" rx="1.1"/><rect class="cls-63" x="1059.61" y="498.75" width="38.75" height="3.4" rx="1.1"/><rect class="cls-63" x="1065.39" y="417.17" width="27.19" height="20.4"/><rect class="cls-66" x="1056.89" y="437.57" width="44.19" height="6.8" rx="1.1"/><rect class="cls-63" x="1062.25" y="444.36" width="33.51" height="27.19"/><rect class="cls-63" x="1061.65" y="474.96" width="34.12" height="23.79"/><rect class="cls-63" x="1065.73" y="444.36" width="26.51" height="27.19" rx="0.6"/><rect class="cls-63" x="1050.26" y="463.35" width="10.72" height="18.07"/><rect class="cls-63" x="1096.32" y="463.35" width="10.72" height="18.07"/><rect class="cls-63" x="1046.58" y="458.31" width="3.68" height="28.39" rx="0.4"/><rect class="cls-63" x="1040.22" y="458.31" width="3.68" height="28.39" rx="0.4"/><rect class="cls-63" x="1113.62" y="458.31" width="3.68" height="28.39" rx="0.4"/><rect class="cls-63" x="1107.26" y="458.31" width="3.68" height="28.39" rx="0.4"/><text class="cls-67" transform="translate(1066.28 491.76)">变频</text><path class="cls-37" d="M1078.71,741.68a10.5,10.5,0,1,0,10.49,10.49,10.5,10.5,0,0,0-10.49-10.49Zm0,19.35a8.86,8.86,0,1,1,8.85-8.86,8.86,8.86,0,0,1-8.85,8.86Zm4.2,4.23"/><path class="cls-37" d="M1073.24,750.84c-1.93,1-3.21,3.21-1.93,4.5,2.25,2.24,3.21-1,4.82-1.93,1-.6,1.92-1.28,1.92-1.93s-2.88-1.6-4.81-.64Zm7.35,3.2c-1-.56-2.08-1-2.63-.71s0,3.31,1.85,4.49,4.38,1.18,4.85-.58c.82-3.07-2.44-2.29-4.07-3.2Zm-.83-1.43c.56.32,2.84-1.7,3-3.85s-1.18-4.38-2.93-3.91c-3.07.82-.77,3.26-.74,5.13,0,1.16.15,2.31.7,2.63Zm0,0"/><text class="cls-60" transform="translate(1065.03 625.86)">SANLEY</text><ellipse class="cls-61" cx="1098.01" cy="661.59" rx="2.12" ry="2.06"/><circle class="cls-62" cx="1098.01" cy="661.59" r="1.84"/><circle class="cls-61" cx="1098.01" cy="661.59" r="1.43"/><circle class="cls-62" cx="1098.01" cy="661.59" r="1.02"/><ellipse class="cls-61" cx="1098.01" cy="668.53" rx="2.12" ry="2.06"/><circle class="cls-62" cx="1098.01" cy="668.53" r="1.84"/><circle class="cls-61" cx="1098.01" cy="668.53" r="1.43"/><circle class="cls-62" cx="1098.01" cy="668.53" r="1.02"/><rect class="cls-63" x="1055.61" y="632.86" width="46.2" height="58.47" rx="10.76"/><rect class="cls-63" x="1055.07" y="615.19" width="46.91" height="75.46" rx="10.76"/><rect class="cls-64" x="1055.75" y="638.31" width="8.16" height="45.27"/><rect class="cls-64" x="1093.82" y="638.31" width="8.16" height="45.27"/><rect class="cls-24" x="1065.61" y="632.52" width="2.04" height="58.47"/><rect class="cls-24" x="1069.68" y="632.52" width="2.04" height="58.47"/><rect class="cls-24" x="1073.76" y="632.52" width="2.04" height="58.47"/><rect class="cls-24" x="1077.84" y="632.52" width="2.04" height="58.47"/><rect class="cls-24" x="1081.92" y="632.52" width="2.04" height="58.47"/><rect class="cls-24" x="1086" y="632.52" width="2.04" height="58.47"/><rect class="cls-24" x="1090.08" y="632.52" width="2.04" height="58.47"/><path class="cls-63" d="M1105.83,683.48h-2.56l-1.1-1.1V662.82l1.1-1.1h2.56l1.1,1.1v19.56Z"/><rect class="cls-63" x="1057.39" y="691.33" width="41.87" height="9.52"/><rect class="cls-63" x="1065.27" y="691.33" width="4.76" height="9.52"/><rect class="cls-63" x="1088.38" y="691.33" width="4.76" height="9.52"/><rect class="cls-63" x="1046.51" y="701.53" width="63.91" height="3.4" rx="1.1"/><rect class="cls-63" x="1047.87" y="704.93" width="61.19" height="2.72" rx="1.1"/><rect class="cls-63" x="1054.33" y="707.99" width="48.27" height="3.4" rx="1.1"/><rect class="cls-65" x="1060.45" y="765.78" width="35.35" height="3.4" rx="1.1"/><rect class="cls-63" x="1059.09" y="792.97" width="38.75" height="3.4" rx="1.1"/><rect class="cls-63" x="1064.86" y="711.39" width="27.19" height="20.4"/><rect class="cls-66" x="1056.37" y="731.78" width="44.19" height="6.8" rx="1.1"/><rect class="cls-63" x="1061.73" y="738.58" width="33.51" height="27.19"/><rect class="cls-63" x="1061.12" y="769.17" width="34.12" height="23.79"/><rect class="cls-63" x="1065.2" y="738.58" width="26.51" height="27.19" rx="0.6"/><rect class="cls-63" x="1049.73" y="757.57" width="10.72" height="18.07"/><rect class="cls-63" x="1095.8" y="757.57" width="10.72" height="18.07"/><rect class="cls-63" x="1046.05" y="752.53" width="3.68" height="28.39" rx="0.4"/><rect class="cls-63" x="1039.69" y="752.53" width="3.68" height="28.39" rx="0.4"/><rect class="cls-63" x="1113.1" y="752.53" width="3.68" height="28.39" rx="0.4"/><rect class="cls-63" x="1106.74" y="752.53" width="3.68" height="28.39" rx="0.4"/><text class="cls-67" transform="translate(1065.76 785.98)">变频</text><path class="cls-37" d="M1078.71,953.39a10.49,10.49,0,1,0,10.49,10.49,10.49,10.49,0,0,0-10.49-10.49Zm0,19.35a8.86,8.86,0,1,1,8.85-8.86,8.87,8.87,0,0,1-8.85,8.86Zm4.2,4.23"/><path class="cls-37" d="M1073.24,962.55c-1.93,1-3.21,3.21-1.93,4.49,2.25,2.25,3.21-1,4.82-1.92,1-.6,1.92-1.29,1.92-1.93s-2.88-1.6-4.81-.64Zm7.35,3.2c-1-.56-2.08-1-2.63-.71s0,3.3,1.85,4.49,4.38,1.18,4.85-.58c.82-3.07-2.44-2.3-4.07-3.2Zm-.83-1.43c.56.32,2.84-1.7,3-3.85s-1.18-4.38-2.93-3.91c-3.07.82-.77,3.26-.74,5.13,0,1.16.15,2.31.7,2.63Zm0,0"/><text class="cls-60" transform="translate(1065.03 837.57)">SANLEY</text><ellipse class="cls-61" cx="1098.01" cy="873.3" rx="2.12" ry="2.06"/><circle class="cls-62" cx="1098.01" cy="873.3" r="1.84"/><circle class="cls-61" cx="1098.01" cy="873.3" r="1.43"/><circle class="cls-62" cx="1098.01" cy="873.3" r="1.02"/><ellipse class="cls-61" cx="1098.01" cy="880.24" rx="2.12" ry="2.06"/><circle class="cls-62" cx="1098.01" cy="880.24" r="1.84"/><circle class="cls-61" cx="1098.01" cy="880.24" r="1.43"/><circle class="cls-62" cx="1098.01" cy="880.24" r="1.02"/><rect class="cls-63" x="1055.61" y="844.57" width="46.2" height="58.47" rx="10.76"/><rect class="cls-63" x="1055.07" y="826.9" width="46.91" height="75.46" rx="10.76"/><rect class="cls-64" x="1055.75" y="850.02" width="8.16" height="45.27"/><rect class="cls-64" x="1093.82" y="850.02" width="8.16" height="45.27"/><rect class="cls-24" x="1065.61" y="844.23" width="2.04" height="58.47"/><rect class="cls-24" x="1069.68" y="844.23" width="2.04" height="58.47"/><rect class="cls-24" x="1073.76" y="844.23" width="2.04" height="58.47"/><rect class="cls-24" x="1077.84" y="844.23" width="2.04" height="58.47"/><rect class="cls-24" x="1081.92" y="844.23" width="2.04" height="58.47"/><rect class="cls-24" x="1086" y="844.23" width="2.04" height="58.47"/><rect class="cls-24" x="1090.08" y="844.23" width="2.04" height="58.47"/><path class="cls-63" d="M1105.83,895.18h-2.56l-1.1-1.1V874.53l1.1-1.1h2.56l1.1,1.1v19.55Z"/><rect class="cls-63" x="1057.39" y="903.04" width="41.87" height="9.52"/><rect class="cls-63" x="1065.27" y="903.04" width="4.76" height="9.52"/><rect class="cls-63" x="1088.38" y="903.04" width="4.76" height="9.52"/><rect class="cls-63" x="1046.51" y="913.24" width="63.91" height="3.4" rx="1.1"/><rect class="cls-63" x="1047.87" y="916.64" width="61.19" height="2.72" rx="1.1"/><rect class="cls-63" x="1054.33" y="919.7" width="48.27" height="3.4" rx="1.1"/><rect class="cls-65" x="1060.45" y="977.48" width="35.35" height="3.4" rx="1.1"/><rect class="cls-63" x="1059.09" y="1004.68" width="38.75" height="3.4" rx="1.1"/><rect class="cls-63" x="1064.86" y="923.1" width="27.19" height="20.4"/><rect class="cls-66" x="1056.37" y="943.49" width="44.19" height="6.8" rx="1.1"/><rect class="cls-63" x="1061.73" y="950.29" width="33.51" height="27.19"/><rect class="cls-63" x="1061.12" y="980.88" width="34.12" height="23.79"/><rect class="cls-63" x="1065.2" y="950.29" width="26.51" height="27.19" rx="0.6"/><rect class="cls-63" x="1049.73" y="969.28" width="10.72" height="18.07"/><rect class="cls-63" x="1095.8" y="969.28" width="10.72" height="18.07"/><rect class="cls-63" x="1046.05" y="964.24" width="3.68" height="28.39" rx="0.4"/><rect class="cls-63" x="1039.69" y="964.24" width="3.68" height="28.39" rx="0.4"/><rect class="cls-63" x="1113.1" y="964.24" width="3.68" height="28.39" rx="0.4"/><rect class="cls-63" x="1106.74" y="964.24" width="3.68" height="28.39" rx="0.4"/><text class="cls-67" transform="translate(1065.76 997.69)">变频</text></g><g id="图层_5" data-name="图层 5"><rect class="cls-6" x="1520.14" y="733.4" width="32.29" height="29.43" rx="2.35" transform="translate(2284.4 -788.17) rotate(90)"/><rect class="cls-4" x="1521.4" y="734.96" width="29.95" height="26.32" rx="1.91" transform="translate(2284.49 -788.26) rotate(90)"/><ellipse class="cls-68" cx="1525.92" cy="735.65" rx="0.99" ry="1.03"/><ellipse class="cls-68" cx="1525.92" cy="760.36" rx="0.99" ry="1.03"/><ellipse class="cls-68" cx="1547.06" cy="735.65" rx="0.99" ry="1.03"/><ellipse class="cls-68" cx="1547.06" cy="760.36" rx="0.99" ry="1.03"/><rect class="cls-69" x="1523.54" y="752.24" width="3.54" height="4.63" transform="translate(2279.87 -770.76) rotate(90)"/><rect class="cls-4" x="1513.4" y="746.95" width="12.83" height="1.22" transform="translate(2267.38 -772.26) rotate(90)"/><rect class="cls-70" x="1501.64" y="737.55" width="12.83" height="20.12" rx="0.25" transform="translate(2255.67 -760.45) rotate(90)"/><rect class="cls-27" x="1507.47" y="741.76" width="5.77" height="11.7" rx="0.15" transform="translate(2257.97 -762.74) rotate(90)"/><text class="cls-71" transform="translate(1545.31 742.87) rotate(90) scale(1.09 1)">压力开关</text><rect class="cls-27" x="1526.89" y="743.64" width="20.54" height="10.06" transform="translate(2285.83 -788.49) rotate(90)"/><text class="cls-72" transform="translate(1539.78 738.84) rotate(90) scale(1.09 1)">CSS</text><text class="cls-73" transform="translate(1537.02 739.85) rotate(90) scale(1.09 1)">asdsanmlopq<tspan class="cls-74" x="11.59" y="0">r</tspan><tspan class="cls-75" x="12.38" y="0">st</tspan></text><text class="cls-73" transform="translate(1534.25 739.85) rotate(90) scale(1.09 1)">asdsanmlopq<tspan class="cls-74" x="11.59" y="0">r</tspan><tspan class="cls-75" x="12.38" y="0">st</tspan></text></g></svg>