<svg xmlns="http://www.w3.org/2000/svg" xmlns:xlink="http://www.w3.org/1999/xlink" viewBox="0 0 1920 1080"><defs><style>.cls-1{fill:#06a8fa;}.cls-2,.cls-3,.cls-7{fill:#f2f2f2;}.cls-15,.cls-16,.cls-17,.cls-18,.cls-19,.cls-20,.cls-22,.cls-23,.cls-24,.cls-3,.cls-51,.cls-66,.cls-67,.cls-68{stroke:#01579b;}.cls-10,.cls-11,.cls-12,.cls-15,.cls-16,.cls-17,.cls-18,.cls-19,.cls-20,.cls-22,.cls-23,.cls-24,.cls-26,.cls-3,.cls-38,.cls-39,.cls-40,.cls-41,.cls-42,.cls-43,.cls-44,.cls-45,.cls-46,.cls-47,.cls-48,.cls-49,.cls-5,.cls-51,.cls-52,.cls-53,.cls-57,.cls-58,.cls-59,.cls-6,.cls-60,.cls-61,.cls-62,.cls-66,.cls-67,.cls-68,.cls-7,.cls-70,.cls-71{stroke-miterlimit:10;}.cls-3,.cls-51{stroke-width:0.75px;}.cls-10,.cls-31,.cls-33,.cls-34,.cls-4,.cls-69,.cls-8,.cls-9{fill:#143a82;}.cls-12,.cls-21,.cls-23,.cls-24,.cls-38,.cls-39,.cls-40,.cls-41,.cls-42,.cls-43,.cls-44,.cls-45,.cls-46,.cls-47,.cls-48,.cls-49,.cls-5,.cls-51,.cls-52,.cls-53,.cls-57,.cls-58,.cls-59,.cls-6,.cls-60,.cls-61,.cls-62,.cls-66,.cls-67,.cls-68,.cls-70,.cls-71{fill:none;}.cls-10,.cls-11,.cls-5,.cls-52,.cls-6{stroke:#143a82;}.cls-15,.cls-16,.cls-17,.cls-18,.cls-19,.cls-20,.cls-22,.cls-38,.cls-39,.cls-40,.cls-41,.cls-42,.cls-43,.cls-44,.cls-45,.cls-46,.cls-47,.cls-48,.cls-49,.cls-5,.cls-53,.cls-57,.cls-58,.cls-59,.cls-60,.cls-61,.cls-62,.cls-68{stroke-width:2px;}.cls-7{stroke:#333f4f;}.cls-8{font-size:2.55px;}.cls-63,.cls-8,.cls-9{font-family:Benmo-Chenhei, Benmo Chenhei;}.cls-9{font-size:2.34px;}.cls-10,.cls-11,.cls-12,.cls-52{stroke-width:3px;}.cls-11{fill:#e6e6e6;}.cls-12{stroke:#b3b3b3;}.cls-13{fill:#333f4f;}.cls-14{fill:#868686;}.cls-15{fill:url(#未命名的渐变_21);}.cls-16{fill:url(#未命名的渐变_21-2);}.cls-17{fill:url(#未命名的渐变_21-3);}.cls-18{fill:url(#未命名的渐变_21-4);}.cls-19{fill:url(#未命名的渐变_31);}.cls-20{fill:#ccc;}.cls-22{fill:url(#未命名的渐变_31-2);}.cls-23,.cls-70,.cls-71{stroke-width:0.5px;}.cls-25{fill:#63c6fa;}.cls-26{fill:#334c68;stroke:#20363f;stroke-width:0.1px;}.cls-27{fill:#5276aa;}.cls-28,.cls-29{fill:#7f91aa;}.cls-29{font-size:7.51px;font-family:AdobeSongStd-Light-GBpc-EUC-H, Adobe Song Std;letter-spacing:-0.09em;}.cls-30{fill:#cee6f9;}.cls-31,.cls-32{font-size:19.1px;}.cls-31,.cls-32,.cls-33,.cls-34{font-family:PingFang-SC-Medium, PingFang SC;font-weight:500;}.cls-32{fill:#db4516;}.cls-33{font-size:16px;}.cls-34{font-size:14.39px;}.cls-35{fill:#07a307;}.cls-36{fill:#af0800;}.cls-37{fill:#474747;}.cls-38{stroke:url(#未命名的渐变_15);}.cls-39{stroke:url(#未命名的渐变_15-2);}.cls-40{stroke:url(#未命名的渐变_15-3);}.cls-41{stroke:url(#未命名的渐变_15-4);}.cls-42{stroke:url(#未命名的渐变_15-5);}.cls-43{stroke:url(#未命名的渐变_15-6);}.cls-44{stroke:url(#未命名的渐变_15-7);}.cls-45{stroke:url(#未命名的渐变_15-8);}.cls-46{stroke:url(#未命名的渐变_15-9);}.cls-47{stroke:url(#未命名的渐变_15-10);}.cls-48{stroke:url(#未命名的渐变_15-11);}.cls-49{stroke:url(#未命名的渐变_15-12);}.cls-50{fill:#df592f;}.cls-53{stroke:#10397a;}.cls-54{fill:#0e3773;}.cls-55{fill:#4676a5;}.cls-56{fill:#a1d5ff;}.cls-57{stroke:url(#未命名的渐变_15-13);}.cls-58{stroke:url(#未命名的渐变_15-14);}.cls-59{stroke:url(#未命名的渐变_15-15);}.cls-60{stroke:url(#未命名的渐变_15-16);}.cls-61{stroke:url(#未命名的渐变_15-17);}.cls-62{stroke:url(#未命名的渐变_15-18);}.cls-63{font-size:5.31px;fill:#01579b;}.cls-64{fill:#2a5e96;}.cls-65{fill:#9ac0f7;}.cls-66{stroke-width:1.5px;}.cls-67{stroke-width:0.8px;}.cls-69{font-size:10.56px;font-family:PingFang-SC-Heavy, PingFang SC;font-weight:800;}.cls-70{stroke:#618cd1;}.cls-71{stroke:#fff;}.cls-72{fill:#10397a;}.cls-73,.cls-74{font-size:1.83px;letter-spacing:0.18em;}.cls-73,.cls-74,.cls-75{fill:#fff;}.cls-73{font-family:MicrosoftYaHei-Bold, Microsoft YaHei;font-weight:700;}.cls-74,.cls-75{font-family:MicrosoftYaHei, Microsoft YaHei;}.cls-75{font-size:1.2px;letter-spacing:0.18em;}.cls-76{letter-spacing:0.19em;}</style><linearGradient id="未命名的渐变_21" x1="-1194.51" y1="1786.03" x2="-1166.1" y2="1786.03" gradientTransform="translate(1212.94 -1579.97) rotate(-16.65)" gradientUnits="userSpaceOnUse"><stop offset="0" stop-color="#fff"/><stop offset="1" stop-color="#ccc"/></linearGradient><linearGradient id="未命名的渐变_21-2" x1="-1176.98" y1="1779.99" x2="-1171.08" y2="1779.99" gradientTransform="translate(1772.2 -1318.21)" xlink:href="#未命名的渐变_21"/><linearGradient id="未命名的渐变_21-3" x1="-11910.41" y1="-1418.82" x2="-11882" y2="-1418.82" gradientTransform="matrix(-0.96, -0.29, -0.29, 0.96, -11440.31, -1579.97)" xlink:href="#未命名的渐变_21"/><linearGradient id="未命名的渐变_21-4" x1="-11892.88" y1="-1424.85" x2="-11886.98" y2="-1424.85" gradientTransform="matrix(0, -1, -1, 0, -1065.5, -11428.14)" xlink:href="#未命名的渐变_21"/><linearGradient id="未命名的渐变_31" x1="342.58" y1="539.66" x2="615.98" y2="539.66" gradientUnits="userSpaceOnUse"><stop offset="0" stop-color="#fff"/><stop offset="1" stop-color="#e6e6e6"/></linearGradient><linearGradient id="未命名的渐变_31-2" x1="438.92" y1="426.33" x2="473.37" y2="426.33" xlink:href="#未命名的渐变_31"/><linearGradient id="未命名的渐变_15" x1="1097.89" y1="310.82" x2="1172.07" y2="310.82" gradientUnits="userSpaceOnUse"><stop offset="0" stop-color="#4f6c99"/><stop offset="0.16" stop-color="#526f9c"/><stop offset="0.29" stop-color="#5b78a6"/><stop offset="0.4" stop-color="#6c87b6"/><stop offset="0.5" stop-color="#829dcd"/><stop offset="0.59" stop-color="#9fb8ea"/><stop offset="0.62" stop-color="#a9c2f4"/><stop offset="1" stop-color="#718dbe"/></linearGradient><linearGradient id="未命名的渐变_15-2" x1="1177.45" y1="279.5" x2="1251.62" y2="279.5" xlink:href="#未命名的渐变_15"/><linearGradient id="未命名的渐变_15-3" x1="1177.45" y1="881.9" x2="1251.62" y2="881.9" xlink:href="#未命名的渐变_15"/><linearGradient id="未命名的渐变_15-4" x1="1097.89" y1="279.32" x2="1172.07" y2="279.32" xlink:href="#未命名的渐变_15"/><linearGradient id="未命名的渐变_15-5" x1="1097.89" y1="914.1" x2="1172.07" y2="914.1" xlink:href="#未命名的渐变_15"/><linearGradient id="未命名的渐变_15-6" x1="1097.89" y1="882.6" x2="1172.07" y2="882.6" xlink:href="#未命名的渐变_15"/><linearGradient id="未命名的渐变_15-7" x1="1097.89" y1="134.18" x2="1172.07" y2="134.18" xlink:href="#未命名的渐变_15"/><linearGradient id="未命名的渐变_15-8" x1="1177.45" y1="102.86" x2="1251.62" y2="102.86" xlink:href="#未命名的渐变_15"/><linearGradient id="未命名的渐变_15-9" x1="1574.81" y1="174.13" x2="1648.99" y2="174.13" xlink:href="#未命名的渐变_15"/><linearGradient id="未命名的渐变_15-10" x1="269.28" y1="305.06" x2="343.46" y2="305.06" xlink:href="#未命名的渐变_15"/><linearGradient id="未命名的渐变_15-11" x1="1468.85" y1="307.6" x2="1543.03" y2="307.6" xlink:href="#未命名的渐变_15"/><linearGradient id="未命名的渐变_15-12" x1="1097.89" y1="102.68" x2="1172.07" y2="102.68" xlink:href="#未命名的渐变_15"/><linearGradient id="未命名的渐变_15-13" x1="1097.89" y1="738.92" x2="1172.07" y2="738.92" xlink:href="#未命名的渐变_15"/><linearGradient id="未命名的渐变_15-14" x1="1177.45" y1="707.61" x2="1251.62" y2="707.61" xlink:href="#未命名的渐变_15"/><linearGradient id="未命名的渐变_15-15" x1="1097.89" y1="707.42" x2="1172.07" y2="707.42" xlink:href="#未命名的渐变_15"/><linearGradient id="未命名的渐变_15-16" x1="1097.89" y1="556.3" x2="1172.07" y2="556.3" xlink:href="#未命名的渐变_15"/><linearGradient id="未命名的渐变_15-17" x1="1177.45" y1="524.98" x2="1251.62" y2="524.98" xlink:href="#未命名的渐变_15"/><linearGradient id="未命名的渐变_15-18" x1="1097.89" y1="524.8" x2="1172.07" y2="524.8" xlink:href="#未命名的渐变_15"/></defs><title>5台泵无负压工艺图 副本 2</title><g id="图层_1" data-name="图层 1"><rect class="cls-1" x="345.55" y="556.03" width="742.81" height="12.16" transform="translate(1279.06 -154.84) rotate(90)"/><rect class="cls-2" x="226.29" y="800.23" width="83.41" height="152.94"/><rect class="cls-2" x="406.78" y="800.23" width="83.41" height="152.94"/><rect class="cls-3" x="581.7" y="800.23" width="83.41" height="152.94"/><rect class="cls-2" x="1090.55" y="856" width="169.4" height="76.72"/><rect class="cls-1" x="1440.28" y="108.82" width="252.73" height="12.16"/><rect class="cls-4" x="307.32" y="174.87" width="0.55" height="1.89"/><rect class="cls-4" x="302.44" y="176.32" width="0.55" height="1.89" transform="translate(-44.48 227.46) rotate(-38.58)"/><rect class="cls-4" x="312.09" y="176.61" width="0.55" height="1.89" transform="translate(192.18 -161.05) rotate(40.84)"/><rect class="cls-4" x="314.97" y="181.45" width="0.55" height="1.89" transform="translate(461.23 -151.26) rotate(83.58)"/><rect class="cls-4" x="299.29" y="181.41" width="0.55" height="1.89" transform="matrix(0.14, -0.99, 0.99, 0.14, 77.85, 454.08)"/><rect class="cls-4" x="306.23" y="174.83" width="0.28" height="1.05" transform="translate(-27.75 61.45) rotate(-10.96)"/><rect class="cls-4" x="308.6" y="174.83" width="0.28" height="1.05" transform="translate(44.34 -61.64) rotate(12.28)"/><rect class="cls-4" x="309.64" y="175.05" width="0.28" height="1.05" transform="translate(79.01 -95.6) rotate(20.06)"/><rect class="cls-4" x="310.64" y="175.4" width="0.28" height="1.05" transform="translate(118.14 -124.78) rotate(27.84)"/><rect class="cls-4" x="311.58" y="175.89" width="0.28" height="1.05" transform="translate(161.09 -148.55) rotate(35.62)"/><rect class="cls-4" x="313.23" y="177.23" width="0.28" height="1.05" transform="translate(255.47 -177.84) rotate(51.19)"/><rect class="cls-4" x="313.9" y="178.05" width="0.28" height="1.05" transform="translate(305.18 -182.58) rotate(58.97)"/><rect class="cls-4" x="314.45" y="178.96" width="0.28" height="1.05" transform="translate(355.34 -180.41) rotate(66.75)"/><rect class="cls-4" x="314.88" y="179.93" width="0.28" height="1.05" transform="translate(404.95 -171.27) rotate(74.54)"/><rect class="cls-4" x="315.35" y="180.95" width="0.28" height="1.05" transform="translate(453.17 -155.44) rotate(82.32)"/><rect class="cls-4" x="315.67" y="182.9" width="0.28" height="1.05" transform="translate(499.79 -132.07) rotate(90.1)"/><rect class="cls-4" x="315.68" y="183.96" width="0.28" height="1.05" transform="translate(541.88 -103.05) rotate(97.88)"/><rect class="cls-4" x="315.54" y="185.01" width="0.28" height="1.05" transform="translate(579.57 -68.32) rotate(105.67)"/><rect class="cls-4" x="305.24" y="175.06" width="0.28" height="1.05" transform="translate(-39.82 105.42) rotate(-18.41)"/><rect class="cls-4" x="304.28" y="175.42" width="0.28" height="1.05" transform="translate(-46.26 150.38) rotate(-25.86)"/><rect class="cls-4" x="303.38" y="175.9" width="0.28" height="1.05" transform="translate(-47.02 195.64) rotate(-33.3)"/><rect class="cls-4" x="301.26" y="177.35" width="0.28" height="1.05" transform="translate(-31.08 287.14) rotate(-48.74)"/><rect class="cls-4" x="300.55" y="178.34" width="0.28" height="1.05" transform="translate(-12.31 335.18) rotate(-57.28)"/><rect class="cls-4" x="299.64" y="179.42" width="0.28" height="1.05" transform="translate(12.86 379.76) rotate(-65.83)"/><rect class="cls-4" x="299.25" y="180.57" width="0.28" height="1.05" transform="translate(44.34 420.64) rotate(-74.37)"/><rect class="cls-4" x="299.01" y="182.98" width="0.28" height="1.05" transform="translate(123.34 487.24) rotate(-91.46)"/><rect class="cls-4" x="298.99" y="184.19" width="0.28" height="1.05" transform="translate(169.19 511.38) rotate(-100)"/><rect class="cls-4" x="299.31" y="185.36" width="0.28" height="1.05" transform="translate(218.49 528.91) rotate(-108.55)"/><rect class="cls-4" x="305.22" y="195.02" width="4.88" height="3.22"/><rect class="cls-4" x="305.22" y="217.03" width="4.88" height="8.33"/><rect class="cls-4" x="305.22" y="202.42" width="4.88" height="2.36"/><rect class="cls-4" x="304.71" y="216.01" width="5.89" height="1.11"/><polygon class="cls-4" points="311.5 206.84 303.85 206.84 305.22 204.95 310.1 204.95 311.5 206.84"/><polygon class="cls-4" points="309.72 197.88 305.6 197.88 303.54 200.01 305.6 202.14 309.72 202.14 311.78 200.01 309.72 197.88"/><polygon class="cls-4" points="310.65 207.06 304.69 207.06 301.71 211.35 304.69 215.64 310.65 215.64 313.63 211.35 310.65 207.06"/><rect class="cls-4" x="300.34" y="207.94" width="2.44" height="7.75"/><rect class="cls-4" x="299.63" y="208.87" width="1.41" height="5.67"/><rect class="cls-4" x="297.76" y="210.42" width="2.02" height="2.74"/><rect class="cls-4" x="293.28" y="210.86" width="1" height="2.43" rx="0.37"/><rect class="cls-4" x="296.56" y="208.73" width="0.9" height="6.77"/><rect class="cls-4" x="294.56" y="208.73" width="2.4" height="1.5" rx="0.44"/><rect class="cls-4" x="294.56" y="211.23" width="2.4" height="1.5" rx="0.44"/><rect class="cls-4" x="294.56" y="214.01" width="2.4" height="1.5" rx="0.44"/><circle class="cls-5" cx="307.32" cy="183.3" r="11.58"/><path class="cls-6" d="M298.43,186.66a10.58,10.58,0,0,1-.49-3.21,9.46,9.46,0,1,1,18.44,3.18"/><polygon class="cls-4" points="305.46 185.54 304.48 183.88 307.79 182.8 312.87 180 312.99 180.23 307.98 183.08 305.46 185.54"/><circle class="cls-7" cx="307.26" cy="183.3" r="0.73"/><text class="cls-8" transform="translate(304.13 190.64)">MPA</text><rect class="cls-4" x="1612.68" y="60.35" width="0.55" height="1.89"/><rect class="cls-4" x="1607.8" y="61.8" width="0.55" height="1.89" transform="translate(311.83 1016.48) rotate(-38.58)"/><rect class="cls-4" x="1617.46" y="62.08" width="0.55" height="1.89" transform="translate(435.16 -1042.66) rotate(40.84)"/><rect class="cls-4" x="1620.33" y="66.93" width="0.55" height="1.89" transform="translate(1506.78 -1550.14) rotate(83.58)"/><rect class="cls-4" x="1604.65" y="66.89" width="0.55" height="1.89" transform="translate(1317.62 1648.29) rotate(-82.12)"/><rect class="cls-4" x="1611.59" y="60.31" width="0.28" height="1.05" transform="translate(17.83 307.54) rotate(-10.96)"/><rect class="cls-4" x="1613.97" y="60.31" width="0.28" height="1.05" transform="translate(49.84 -341.8) rotate(12.28)"/><rect class="cls-4" x="1615.01" y="60.53" width="0.28" height="1.05" transform="translate(118.91 -550.26) rotate(20.06)"/><rect class="cls-4" x="1616.01" y="60.88" width="0.28" height="1.05" transform="translate(215.75 -747.66) rotate(27.84)"/><rect class="cls-4" x="1616.95" y="61.37" width="0.28" height="1.05" transform="translate(338.67 -930.3) rotate(35.62)"/><rect class="cls-4" x="1618.59" y="62.71" width="0.28" height="1.05" transform="translate(653.44 -1237.73) rotate(51.19)"/><rect class="cls-4" x="1619.26" y="63.53" width="0.28" height="1.05" transform="translate(839.53 -1356.64) rotate(58.97)"/><rect class="cls-4" x="1619.81" y="64.44" width="0.28" height="1.05" transform="translate(1040.26 -1449.11) rotate(66.75)"/><rect class="cls-4" x="1620.24" y="65.41" width="0.28" height="1.05" transform="translate(1251.87 -1513.36) rotate(74.54)"/><rect class="cls-4" x="1620.71" y="66.43" width="0.28" height="1.05" transform="translate(1470.54 -1548.3) rotate(82.32)"/><rect class="cls-4" x="1621.04" y="68.38" width="0.28" height="1.05" transform="translate(1692.93 -1552.15) rotate(90.1)"/><rect class="cls-4" x="1621.04" y="69.44" width="0.28" height="1.05" transform="translate(1912.84 -1526.3) rotate(97.88)"/><rect class="cls-4" x="1620.9" y="70.49" width="0.28" height="1.05" transform="translate(2127.14 -1470.64) rotate(105.67)"/><rect class="cls-4" x="1610.6" y="60.54" width="0.28" height="1.05" transform="translate(63.14 511.77) rotate(-18.41)"/><rect class="cls-4" x="1609.65" y="60.9" width="0.28" height="1.05" transform="translate(134.37 708.21) rotate(-25.86)"/><rect class="cls-4" x="1608.75" y="61.38" width="0.28" height="1.05" transform="translate(230.25 893.6) rotate(-33.3)"/><rect class="cls-4" x="1606.62" y="62.83" width="0.28" height="1.05" transform="translate(499.52 1229.42) rotate(-48.74)"/><rect class="cls-4" x="1605.91" y="63.81" width="0.28" height="1.05" transform="translate(683.9 1380.84) rotate(-57.28)"/><rect class="cls-4" x="1605" y="64.9" width="0.28" height="1.05" transform="translate(888.2 1503.05) rotate(-65.83)"/><rect class="cls-4" x="1604.62" y="66.05" width="0.28" height="1.05" transform="translate(1108.36 1594.08) rotate(-74.37)"/><rect class="cls-4" x="1604.38" y="68.46" width="0.28" height="1.05" transform="translate(1576.46 1674.74) rotate(-91.46)"/><rect class="cls-4" x="1604.35" y="69.66" width="0.28" height="1.05" transform="translate(1814.12 1662.48) rotate(-100)"/><rect class="cls-4" x="1604.68" y="70.83" width="0.28" height="1.05" transform="translate(2047.68 1615.51) rotate(-108.55)"/><rect class="cls-4" x="1610.59" y="80.5" width="4.88" height="3.22"/><rect class="cls-4" x="1610.59" y="102.51" width="4.88" height="8.33"/><rect class="cls-4" x="1610.59" y="87.9" width="4.88" height="2.36"/><rect class="cls-4" x="1610.07" y="101.49" width="5.89" height="1.11"/><polygon class="cls-4" points="1616.86 92.31 1609.21 92.31 1610.59 90.43 1615.46 90.43 1616.86 92.31"/><polygon class="cls-4" points="1615.09 83.36 1610.96 83.36 1608.9 85.49 1610.96 87.62 1615.09 87.62 1617.15 85.49 1615.09 83.36"/><polygon class="cls-4" points="1616.01 92.54 1610.05 92.54 1607.07 96.83 1610.05 101.12 1616.01 101.12 1618.99 96.83 1616.01 92.54"/><rect class="cls-4" x="1605.7" y="93.42" width="2.44" height="7.75"/><rect class="cls-4" x="1604.99" y="94.35" width="1.41" height="5.67"/><rect class="cls-4" x="1603.12" y="95.9" width="2.02" height="2.74"/><rect class="cls-4" x="1598.65" y="96.34" width="1" height="2.43" rx="0.37"/><rect class="cls-4" x="1601.93" y="94.21" width="0.9" height="6.77"/><rect class="cls-4" x="1599.92" y="94.21" width="2.4" height="1.5" rx="0.44"/><rect class="cls-4" x="1599.92" y="96.71" width="2.4" height="1.5" rx="0.44"/><rect class="cls-4" x="1599.92" y="99.48" width="2.4" height="1.5" rx="0.44"/><circle class="cls-5" cx="1612.68" cy="68.78" r="11.58"/><path class="cls-6" d="M1603.79,72.14a11,11,0,0,1-.49-3.21,9.47,9.47,0,1,1,18.45,3.18"/><polygon class="cls-4" points="1610.82 71.02 1609.85 69.36 1613.16 68.28 1618.23 65.48 1618.35 65.71 1613.34 68.56 1610.82 71.02"/><circle class="cls-7" cx="1612.62" cy="68.78" r="0.73"/><text class="cls-8" transform="translate(1609.5 76.12)">MPA</text><rect class="cls-4" x="512.09" y="416.07" width="0.5" height="1.74"/><rect class="cls-4" x="507.61" y="417.4" width="0.5" height="1.74" transform="translate(-149.99 407.98) rotate(-38.58)"/><rect class="cls-4" x="516.48" y="417.66" width="0.5" height="1.74" transform="translate(399.55 -236.03) rotate(40.84)"/><rect class="cls-4" x="519.12" y="422.12" width="0.5" height="1.74" transform="translate(881.61 -140.44) rotate(83.58)"/><rect class="cls-4" x="504.71" y="422.07" width="0.5" height="1.74" transform="translate(16.76 865.13) rotate(-82.12)"/><rect class="cls-4" x="511.09" y="416.03" width="0.26" height="0.97" transform="translate(-69.86 104.79) rotate(-10.96)"/><rect class="cls-4" x="513.27" y="416.03" width="0.26" height="0.97" transform="translate(100.3 -99.64) rotate(12.28)"/><rect class="cls-4" x="514.23" y="416.23" width="0.26" height="0.97" transform="translate(174.12 -151.14) rotate(20.06)"/><rect class="cls-4" x="515.15" y="416.56" width="0.26" height="0.97" transform="translate(254.41 -192.37) rotate(27.84)"/><rect class="cls-4" x="516.01" y="417.01" width="0.26" height="0.97" transform="translate(339.76 -222.5) rotate(35.62)"/><rect class="cls-4" x="517.52" y="418.23" width="0.26" height="0.97" transform="translate(519.48 -247.08) rotate(51.19)"/><rect class="cls-4" x="518.14" y="418.99" width="0.26" height="0.97" transform="translate(610.56 -240.86) rotate(58.97)"/><rect class="cls-4" x="518.65" y="419.82" width="0.26" height="0.97" transform="translate(700.2 -222.24) rotate(66.75)"/><rect class="cls-4" x="519.04" y="420.72" width="0.26" height="0.97" transform="translate(786.69 -191.48) rotate(74.54)"/><rect class="cls-4" x="519.47" y="421.66" width="0.26" height="0.97" transform="translate(868.49 -149.22) rotate(82.32)"/><rect class="cls-4" x="519.77" y="423.44" width="0.26" height="0.97" transform="translate(944.74 -95.23) rotate(90.1)"/><rect class="cls-4" x="519.77" y="424.42" width="0.26" height="0.97" transform="translate(1012.1 -31.81) rotate(97.88)"/><rect class="cls-4" x="519.65" y="425.39" width="0.26" height="0.97" transform="translate(1070.18 40.39) rotate(105.67)"/><rect class="cls-4" x="510.18" y="416.24" width="0.26" height="0.97" transform="translate(-105.48 182.47) rotate(-18.41)"/><rect class="cls-4" x="509.3" y="416.57" width="0.26" height="0.97" transform="translate(-130.88 263.92) rotate(-25.86)"/><rect class="cls-4" x="508.47" y="417.01" width="0.26" height="0.97" transform="translate(-145.71 347.84) rotate(-33.3)"/><rect class="cls-4" x="506.52" y="418.34" width="0.26" height="0.97" transform="translate(-142.32 523.49) rotate(-48.74)"/><rect class="cls-4" x="505.87" y="419.25" width="0.26" height="0.97" transform="translate(-120.63 618.61) rotate(-57.28)"/><rect class="cls-4" x="505.03" y="420.24" width="0.26" height="0.97" transform="translate(-85.53 709.33) rotate(-65.83)"/><rect class="cls-4" x="504.68" y="421.3" width="0.26" height="0.97" transform="translate(-37.37 794.31) rotate(-74.37)"/><rect class="cls-4" x="504.46" y="423.52" width="0.26" height="0.97" transform="translate(93.59 939.24) rotate(-91.46)"/><rect class="cls-4" x="504.43" y="424.63" width="0.26" height="0.97" transform="translate(173.57 995.86) rotate(-100)"/><rect class="cls-4" x="504.73" y="425.7" width="0.26" height="0.97" transform="translate(261.42 1040.4) rotate(-108.55)"/><rect class="cls-4" x="510.17" y="434.58" width="4.48" height="2.96"/><rect class="cls-4" x="510.17" y="454.81" width="4.48" height="7.66"/><rect class="cls-4" x="510.17" y="441.39" width="4.48" height="2.17"/><rect class="cls-4" x="509.69" y="453.88" width="5.41" height="1.02"/><polygon class="cls-4" points="515.93 445.44 508.9 445.44 510.17 443.71 514.65 443.71 515.93 445.44"/><polygon class="cls-4" points="514.3 437.22 510.51 437.22 508.62 439.17 510.51 441.13 514.3 441.13 516.19 439.17 514.3 437.22"/><polygon class="cls-4" points="515.15 445.65 509.67 445.65 506.93 449.6 509.67 453.54 515.15 453.54 517.89 449.6 515.15 445.65"/><rect class="cls-4" x="505.68" y="446.46" width="2.25" height="7.12"/><rect class="cls-4" x="505.02" y="447.32" width="1.29" height="5.21"/><rect class="cls-4" x="503.31" y="448.74" width="1.85" height="2.52"/><rect class="cls-4" x="499.19" y="449.14" width="0.92" height="2.24" rx="0.37"/><rect class="cls-4" x="502.21" y="447.18" width="0.83" height="6.23"/><rect class="cls-4" x="500.36" y="447.18" width="2.21" height="1.38" rx="0.44"/><rect class="cls-4" x="500.36" y="449.48" width="2.21" height="1.38" rx="0.44"/><rect class="cls-4" x="500.36" y="452.03" width="2.21" height="1.38" rx="0.44"/><circle class="cls-5" cx="512.09" cy="423.82" r="10.64"/><path class="cls-6" d="M503.92,426.9a10,10,0,0,1-.45-2.95,8.89,8.89,0,0,1,.44-2.57,8.7,8.7,0,1,1,16.51,5.5"/><polygon class="cls-4" points="510.38 425.87 509.48 424.35 512.53 423.35 517.19 420.79 517.3 420.99 512.7 423.61 510.38 425.87"/><circle class="cls-7" cx="512.03" cy="423.81" r="0.67"/><text class="cls-9" transform="translate(509.16 430.56)">MPA</text><rect class="cls-1" x="412.94" y="365.18" width="259.21" height="12.16" transform="translate(913.81 -171.29) rotate(90)"/><path class="cls-1" d="M527.58,236.26H205.92a5.82,5.82,0,0,1-5.52-6.08h0a5.82,5.82,0,0,1,5.52-6.08H527.58a5.83,5.83,0,0,1,5.53,6.08h0A5.83,5.83,0,0,1,527.58,236.26Z"/><rect class="cls-1" x="372.05" y="600.2" width="171.55" height="12.16" transform="translate(1064.11 148.45) rotate(90)"/><rect class="cls-1" x="1024.21" y="528.35" width="800.71" height="12.16" transform="translate(1959 -890.14) rotate(90)"/><rect class="cls-1" x="471.35" y="700.76" width="245.61" height="12.16"/><rect class="cls-1" x="734.72" y="167.09" width="276.96" height="12.16"/><rect class="cls-1" x="1078.71" y="168.78" width="343.08" height="12.16"/><rect class="cls-4" x="541.34" y="423.5" width="2.42" height="13.69" transform="translate(112.2 972.89) rotate(-90)"/><rect class="cls-4" x="541.34" y="421.05" width="2.42" height="13.69" transform="translate(114.65 970.44) rotate(-90)"/><rect class="cls-4" x="541.34" y="431.39" width="2.42" height="13.69" transform="translate(104.31 980.78) rotate(-90)"/><rect class="cls-4" x="541.34" y="428.95" width="2.42" height="13.69" transform="translate(106.75 978.34) rotate(-90)"/><rect class="cls-4" x="456.61" y="623.26" width="2.42" height="13.69" transform="translate(-172.29 1087.92) rotate(-90)"/><rect class="cls-4" x="456.61" y="620.81" width="2.42" height="13.69" transform="translate(-169.84 1085.48) rotate(-90)"/><rect class="cls-4" x="456.61" y="631.15" width="2.42" height="13.69" transform="translate(-180.18 1095.81) rotate(-90)"/><rect class="cls-4" x="456.61" y="628.71" width="2.42" height="13.69" transform="translate(-177.74 1093.37) rotate(-90)"/><rect class="cls-4" x="1423.33" y="450.55" width="2.42" height="13.69" transform="translate(982.07 1886.64) rotate(-90.6)"/><rect class="cls-4" x="1423.31" y="448.1" width="2.42" height="13.69" transform="translate(984.49 1884.15) rotate(-90.6)"/><rect class="cls-4" x="1423.41" y="458.44" width="2.42" height="13.69" transform="translate(974.26 1894.7) rotate(-90.6)"/><rect class="cls-4" x="1423.39" y="456" width="2.42" height="13.69" transform="translate(976.68 1892.2) rotate(-90.6)"/><rect class="cls-1" x="716.95" y="344.65" width="293.69" height="12.16"/><rect class="cls-1" x="1077.94" y="344.65" width="342.56" height="12.16"/><rect class="cls-1" x="1077.29" y="946.39" width="337.17" height="12.16"/><rect class="cls-4" x="1457.51" y="283.91" width="2.58" height="7.99" transform="translate(1746.71 -1170.9) rotate(90)"/><rect class="cls-4" x="1457.64" y="262.77" width="2.33" height="7.99" transform="translate(1725.57 -1192.04) rotate(90)"/><rect class="cls-4" x="1410.2" y="267.81" width="29.86" height="19.62" transform="translate(1702.75 -1147.51) rotate(90)"/><polygon class="cls-4" points="1420.59 295.31 1414.88 292.99 1434.5 292.99 1428.94 295.31 1420.59 295.31"/><polygon class="cls-4" points="1420.59 259.92 1414.88 262.24 1434.5 262.24 1428.94 259.92 1420.59 259.92"/><rect class="cls-4" x="1423.09" y="290.5" width="2.62" height="16.15" transform="translate(1722.97 -1125.82) rotate(90)"/><rect class="cls-4" x="1423.09" y="294.08" width="2.62" height="16.15" transform="translate(1726.55 -1122.24) rotate(90)"/><rect class="cls-4" x="1423.09" y="245.03" width="2.62" height="16.15" transform="translate(1677.5 -1171.29) rotate(90)"/><rect class="cls-4" x="1423.09" y="248.61" width="2.62" height="16.15" transform="translate(1681.08 -1167.71) rotate(90)"/><rect class="cls-4" x="1430.26" y="275.29" width="12.45" height="4.79" rx="0.4" transform="translate(1714.16 -1158.81) rotate(90)"/><rect class="cls-4" x="1439.6" y="276.08" width="10.4" height="2.88" rx="0.4" transform="translate(1722.32 -1167.27) rotate(90)"/><rect class="cls-4" x="1443.1" y="276.07" width="10.4" height="3.1" rx="0.4" transform="translate(1725.92 -1170.68) rotate(90)"/><rect class="cls-4" x="1438.69" y="274.19" width="5.2" height="6.71" rx="0.4" transform="translate(1718.84 -1163.74) rotate(90)"/><circle class="cls-10" cx="1458.72" cy="277.69" r="9.71"/><circle class="cls-11" cx="1458.56" cy="277.51" r="6.92"/><circle class="cls-12" cx="1458.51" cy="277.67" r="8.96"/><rect class="cls-4" x="1459.46" y="264.83" width="2.39" height="1.47" transform="translate(1726.22 -1195.1) rotate(90)"/><rect class="cls-4" x="1455.73" y="264.83" width="2.39" height="1.47" transform="translate(1722.49 -1191.37) rotate(90)"/><rect class="cls-13" x="1453.84" y="275.89" width="9.33" height="3.31" transform="translate(1736.06 -1180.96) rotate(90)"/><polygon class="cls-14" points="1456.85 275.38 1456.85 272.88 1460.16 272.88 1460.16 277.82 1456.85 275.38"/><path class="cls-4" d="M1429.62,275.18l3-7.74a.42.42,0,0,1,.73-.11l5.19,6.5a.43.43,0,0,1-.27.69l-8.22,1.24A.43.43,0,0,1,1429.62,275.18Z"/><path class="cls-4" d="M1429.62,280.21l3,7.74a.42.42,0,0,0,.73.11l5.19-6.49a.43.43,0,0,0-.27-.69l-8.22-1.25A.43.43,0,0,0,1429.62,280.21Z"/><path class="cls-15" d="M576.92,462.23a4.47,4.47,0,0,1,1.63-1.27l15.69-7.33c6.15-2.88,12.5,2.33,11.79,9.67L604.22,482"/><ellipse class="cls-16" cx="598.16" cy="461.79" rx="2.95" ry="3.26" transform="translate(-107.24 190.76) rotate(-16.65)"/><path class="cls-17" d="M380.59,462.23A4.47,4.47,0,0,0,379,461l-15.69-7.33c-6.15-2.88-12.5,2.33-11.79,9.67L353.29,482"/><ellipse class="cls-18" cx="359.35" cy="461.79" rx="3.26" ry="2.95" transform="translate(-186.04 673.75) rotate(-73.35)"/><path class="cls-19" d="M588.56,616.52H372.3a40.45,40.45,0,0,1-11.19-7.15c-19-17.1-18.7-48.94-18.48-73.88,0,0,.36-39.93,16.66-64.94a19,19,0,0,1,4.42-4.76,17.16,17.16,0,0,1,6.57-2.71,16.25,16.25,0,0,1,2-.27H588.56a17.88,17.88,0,0,1,6.25,3,21.09,21.09,0,0,1,6.07,7.16,123.85,123.85,0,0,1,10.41,25.61c5,17.68,4.84,31.88,4.6,45,0,0-1,36.41-15,65.24a11.06,11.06,0,0,1-3.71,4.84A17.67,17.67,0,0,1,588.56,616.52Z"/><rect class="cls-20" x="403.28" y="616.54" width="15.52" height="57.78"/><rect class="cls-20" x="540.3" y="616.54" width="15.52" height="57.78"/><path class="cls-21" d="M602.41,616.08c-4.09.44-228.93.44-228.93.44s-17.2-.16-28.49-39.85"/><rect class="cls-22" x="438.92" y="390.35" width="34.45" height="71.96"/><rect class="cls-23" x="439.41" y="397.79" width="33.47" height="0.86"/><rect class="cls-23" x="439.41" y="400.01" width="33.47" height="0.86"/><rect class="cls-23" x="439.41" y="402.23" width="33.47" height="0.86"/><rect class="cls-24" x="446.27" y="406.86" width="19.62" height="8.46"/><rect class="cls-24" x="430.19" y="442.78" width="51.94" height="2.7"/><rect class="cls-24" x="430.19" y="447.16" width="51.94" height="2.7"/><path class="cls-25" d="M571,615.87c11.54-.06,18.35,1.07,24.24-1.52,5.38-2.7,7.44-9.87,10.17-17.87,10.49-30.8,12.05-60.53,7.9-85.71C603.47,511.83,563.1,525,543,522.64s-33.48-19.86-89.7-21.87-109.46,24.44-109.46,24.44c-1.2,24.17-2.68,51.46,9.54,74,.76,1.38,2.77,5.76,10.76,12a33.91,33.91,0,0,0,6.81,4.48"/><rect class="cls-4" x="452.69" y="224.31" width="58.39" height="10.81"/><polygon class="cls-4" points="480.73 250.11 459.56 240.17 501.89 240.17 480.73 250.11"/><rect class="cls-26" x="499.53" y="214.22" width="2.16" height="25.95" rx="0.2"/><rect class="cls-4" x="459.1" y="214.22" width="43.25" height="28.11" rx="0.4"/><rect class="cls-27" x="499.15" y="214.22" width="1.46" height="28.11"/><rect class="cls-27" x="496.47" y="214.22" width="1.46" height="28.11"/><rect class="cls-27" x="463.57" y="214.22" width="1.46" height="28.11"/><rect class="cls-27" x="460.9" y="214.22" width="1.46" height="28.11"/><rect class="cls-27" x="467.75" y="246.82" width="25.95" height="4.33" rx="0.2"/><ellipse class="cls-4" cx="480.73" cy="241.61" rx="14.06" ry="6.49"/><rect class="cls-28" x="466.75" y="242.33" width="28.11" height="6.95" rx="0.1"/><rect class="cls-4" x="466.67" y="242.13" width="28.11" height="5.97"/><rect class="cls-27" x="471.41" y="249.88" width="2.16" height="2.16"/><rect class="cls-27" x="477.18" y="249.88" width="2.16" height="2.16"/><rect class="cls-27" x="482.95" y="249.88" width="2.16" height="2.16"/><rect class="cls-27" x="488.71" y="249.88" width="2.16" height="2.16"/><rect class="cls-27" x="466.85" y="220.71" width="27.1" height="12.98" rx="1"/><text class="cls-29" transform="translate(467.91 224.87) scale(1.14 1)">----------<tspan x="2.18" y="2.91">--------</tspan><tspan x="4.36" y="5.82">------</tspan></text><rect class="cls-4" x="504.6" y="223.23" width="6.49" height="12.98" rx="0.1"/><rect class="cls-4" x="450.53" y="223.23" width="6.49" height="12.98" rx="0.1"/><rect class="cls-4" x="1166.27" y="342.88" width="21.63" height="15.14"/><rect class="cls-30" x="1168.43" y="345.04" width="2.16" height="10.89"/><rect class="cls-30" x="1183.57" y="344.79" width="2.16" height="11.07"/><rect class="cls-30" x="1176.76" y="341.66" width="0.64" height="17.44" transform="translate(1617.36 1496.86) rotate(-127.58)"/><polygon class="cls-4" points="1166.79 339.49 1190.85 339.49 1178.82 334.88 1178.82 334.88 1178.82 337.19 1166.79 337.19 1166.79 339.49"/><rect class="cls-4" x="1166.27" y="945.08" width="21.63" height="15.14"/><rect class="cls-30" x="1168.43" y="947.24" width="2.16" height="10.89"/><rect class="cls-30" x="1183.57" y="946.99" width="2.16" height="11.07"/><rect class="cls-30" x="1176.76" y="943.86" width="0.64" height="17.44" transform="translate(1140.15 2466.36) rotate(-127.58)"/><polygon class="cls-4" points="1166.79 941.69 1190.85 941.69 1178.82 937.08 1178.82 937.08 1178.82 939.39 1166.79 939.39 1166.79 941.69"/><rect class="cls-4" x="1166.27" y="168.03" width="21.63" height="15.14"/><rect class="cls-30" x="1168.43" y="170.19" width="2.16" height="10.89"/><rect class="cls-30" x="1183.57" y="169.94" width="2.16" height="11.07"/><rect class="cls-30" x="1176.76" y="166.81" width="0.64" height="17.44" transform="translate(1755.92 1215.37) rotate(-127.58)"/><polygon class="cls-4" points="1166.79 164.64 1190.85 164.64 1178.82 160.03 1178.82 160.03 1178.82 162.34 1166.79 162.34 1166.79 164.64"/><text class="cls-31" transform="translate(451.4 278.64)">过滤器</text><text class="cls-31" transform="translate(575.1 664.32)">稳流补偿器</text><text class="cls-31" transform="translate(947.24 158.28)">1#泵</text><text class="cls-31" transform="translate(947.24 338.61)">2#泵</text><text class="cls-31" transform="translate(947.24 938.36)">3#泵</text><text class="cls-31" transform="translate(349.86 278.64)">进水阀门</text><text class="cls-31" transform="translate(1463.27 152.72)">出水阀门</text><text class="cls-31" transform="translate(1453.12 721.03) rotate(90)">压力控制器</text><text class="cls-32" transform="translate(185.24 207.7)">市政进水</text><text class="cls-32" transform="translate(1652.44 93.04)">供水入户</text><text class="cls-31" transform="translate(277.44 278.64)">压力表</text><text class="cls-31" transform="translate(1582.8 151.25)">压力表</text><text class="cls-31" transform="translate(1477.49 283.07)">流量计</text><text class="cls-33" transform="translate(148.7 824.56)">进水压力 </text><text class="cls-33" transform="translate(148.7 862.99)">出水压力 </text><text class="cls-33" transform="translate(148.7 901.24)">设定压力 </text><text class="cls-33" transform="translate(504.11 823.27)">余氯 </text><text class="cls-33" transform="translate(329.19 824.56)">PH </text><text class="cls-33" transform="translate(329.19 862.99)">湿度 </text><text class="cls-33" transform="translate(329.19 901.24)">噪音 </text><text class="cls-33" transform="translate(329.19 941.18)">浊度 </text><text class="cls-33" transform="translate(148.7 942.47)">瞬时流量 </text><text class="cls-33" transform="translate(503.11 862.99)">累计流量 </text><text class="cls-33" transform="translate(503.11 901.24)">累计电量 </text><rect class="cls-2" x="1637.97" y="810.46" width="191.12" height="116.78"/><text class="cls-34" transform="translate(1652.72 842.63)">状态说明 </text><text class="cls-34" transform="translate(1755.49 842.63)">运行状态 </text><text class="cls-34" transform="translate(1755.49 870.93)">停止状态 </text><text class="cls-34" transform="translate(1755.49 898.64)">故障状态 </text><path class="cls-35" d="M1733.63,829.66A7.36,7.36,0,1,0,1741,837a7.36,7.36,0,0,0-7.36-7.36Zm0,13.56a6.21,6.21,0,1,1,6.21-6.2,6.21,6.21,0,0,1-6.21,6.2Zm2.95,3"/><path class="cls-35" d="M1729.8,836.08c-1.35.68-2.25,2.25-1.35,3.15,1.57,1.58,2.25-.67,3.37-1.35.7-.42,1.35-.9,1.35-1.35s-2-1.12-3.37-.45Zm5.15,2.24c-.71-.39-1.45-.71-1.84-.49s0,2.31,1.29,3.15,3.08.82,3.41-.41c.57-2.15-1.71-1.61-2.86-2.25Zm-.58-1c.39.23,2-1.19,2.08-2.69s-.82-3.08-2-2.75c-2.15.58-.54,2.29-.52,3.6,0,.81.1,1.62.49,1.84Zm0,0"/><path class="cls-36" d="M1733.63,857.37a7.36,7.36,0,1,0,7.36,7.36,7.36,7.36,0,0,0-7.36-7.36Zm0,13.56a6.21,6.21,0,1,1,6.21-6.2,6.21,6.21,0,0,1-6.21,6.2Zm2.95,3"/><path class="cls-36" d="M1729.8,863.79c-1.35.68-2.25,2.25-1.35,3.15,1.57,1.58,2.25-.67,3.37-1.35.7-.42,1.35-.9,1.35-1.35s-2-1.12-3.37-.45ZM1735,866c-.71-.39-1.45-.71-1.84-.49s0,2.31,1.29,3.15,3.08.82,3.41-.41c.57-2.15-1.71-1.61-2.86-2.25Zm-.58-1c.39.23,2-1.19,2.08-2.69s-.82-3.08-2-2.75c-2.15.58-.54,2.29-.52,3.6,0,.81.1,1.62.49,1.84Zm0,0"/><path class="cls-37" d="M1733.63,885.08a7.36,7.36,0,1,0,7.36,7.36,7.36,7.36,0,0,0-7.36-7.36Zm0,13.56a6.21,6.21,0,1,1,6.21-6.2,6.21,6.21,0,0,1-6.21,6.2Zm2.95,3"/><path class="cls-37" d="M1729.8,891.5c-1.35.68-2.25,2.25-1.35,3.15,1.57,1.58,2.25-.67,3.37-1.35.7-.41,1.35-.9,1.35-1.35s-2-1.12-3.37-.45Zm5.15,2.24c-.71-.39-1.45-.71-1.84-.49s0,2.32,1.29,3.15,3.08.82,3.41-.41c.57-2.15-1.71-1.61-2.86-2.25Zm-.58-1c.39.23,2-1.19,2.08-2.69s-.82-3.08-2-2.75c-2.15.58-.54,2.29-.52,3.6,0,.81.1,1.62.49,1.84Zm0,0"/><rect class="cls-2" x="1090.55" y="252.71" width="169.4" height="76.72"/><rect class="cls-38" x="1098.89" y="297.7" width="72.18" height="26.23"/><rect class="cls-39" x="1178.45" y="266.39" width="72.18" height="26.23"/><rect class="cls-40" x="1178.45" y="868.79" width="72.18" height="26.23"/><rect class="cls-41" x="1098.89" y="266.2" width="72.18" height="26.23"/><rect class="cls-42" x="1098.89" y="900.99" width="72.18" height="26.23"/><rect class="cls-43" x="1098.89" y="869.49" width="72.18" height="26.23"/><rect class="cls-2" x="1090.55" y="76.08" width="169.4" height="76.72"/><rect class="cls-44" x="1098.89" y="121.07" width="72.18" height="26.23"/><rect class="cls-45" x="1178.45" y="89.75" width="72.18" height="26.23"/><rect class="cls-46" x="1575.81" y="161.02" width="72.18" height="26.23"/><rect class="cls-47" x="270.28" y="291.94" width="72.18" height="26.23"/><rect class="cls-48" x="1469.85" y="294.48" width="72.18" height="26.23"/><rect class="cls-49" x="1098.89" y="89.57" width="72.18" height="26.23"/><polygon class="cls-50" points="823.76 196.94 848.6 196.94 854.62 196.94 851.15 205.13 874.3 195.36 851.15 185.59 854.62 193.77 848.6 193.77 823.76 193.77 823.76 196.94"/><polygon class="cls-50" points="565.04 340.68 565.04 364.64 565.04 370.66 556.86 367.19 566.63 390.33 576.4 367.19 568.21 370.66 568.21 364.64 568.21 340.68 565.04 340.68"/><polygon class="cls-50" points="193.16 271.23 217.12 271.23 223.15 271.23 219.67 279.42 242.82 269.64 219.67 259.87 223.15 268.06 217.12 268.06 193.16 268.06 193.16 271.23"/><polygon class="cls-50" points="1339.77 196.94 1363.73 196.94 1369.76 196.94 1366.28 205.13 1389.43 195.36 1366.28 185.59 1369.76 193.77 1363.73 193.77 1339.77 193.77 1339.77 196.94"/><polygon class="cls-50" points="1665.82 146.42 1689.78 146.42 1695.8 146.42 1692.33 154.61 1715.47 144.84 1692.33 135.07 1695.8 143.25 1689.78 143.25 1665.82 143.25 1665.82 146.42"/><polygon class="cls-50" points="823.76 373.77 848.6 373.77 854.62 373.77 851.15 381.96 874.3 372.19 851.15 362.42 854.62 370.61 848.6 370.61 823.76 370.61 823.76 373.77"/><polygon class="cls-50" points="1339.77 373.77 1363.73 373.77 1369.76 373.77 1366.28 381.96 1389.43 372.19 1366.28 362.42 1369.76 370.61 1363.73 370.61 1339.77 370.61 1339.77 373.77"/><polygon class="cls-50" points="823.76 985.16 848.6 985.16 854.62 985.16 851.15 993.35 874.3 983.58 851.15 973.81 854.62 981.99 848.6 981.99 823.76 981.99 823.76 985.16"/><polygon class="cls-50" points="591.22 732.23 615.18 732.23 621.2 732.23 617.73 740.42 640.87 730.65 617.73 720.88 621.2 729.06 615.18 729.06 591.22 729.06 591.22 732.23"/><polygon class="cls-50" points="1339.77 985.16 1363.73 985.16 1369.76 985.16 1366.28 993.35 1389.43 983.58 1366.28 973.81 1369.76 981.99 1363.73 981.99 1339.77 981.99 1339.77 985.16"/><polygon class="cls-50" points="1449.9 481.94 1449.9 457.98 1449.9 451.96 1458.09 455.44 1448.32 432.29 1438.54 455.44 1446.73 451.96 1446.73 457.98 1446.73 481.94 1449.9 481.94"/><path class="cls-1" d="M536.36,247.36l12.91.11a23.3,23.3,0,0,0-23.93-23.4v12.39a11,11,0,0,1,7.1,2.41A11.33,11.33,0,0,1,536.36,247.36Z"/><rect class="cls-1" x="522.29" y="222.96" width="3.3" height="14.38" transform="translate(1047.88 460.29) rotate(-180)"/><rect class="cls-1" x="541.09" y="241.32" width="3.3" height="14.38" transform="translate(791.25 -294.24) rotate(90)"/><path class="cls-1" d="M733.84,179.64q0-6.45.1-12.91a23.3,23.3,0,0,0-23.39,23.93h12.38a11,11,0,0,1,2.42-7.1A11.32,11.32,0,0,1,733.84,179.64Z"/><rect class="cls-1" x="714.97" y="184.87" width="3.3" height="14.38" transform="translate(908.68 -524.56) rotate(90)"/><rect class="cls-1" x="733.33" y="166.07" width="3.3" height="14.38"/><path class="cls-1" d="M1441.62,121.65q0-6.45.1-12.91a23.28,23.28,0,0,0-23.39,23.94h12.38a11,11,0,0,1,2.42-7.11A11.31,11.31,0,0,1,1441.62,121.65Z"/><rect class="cls-1" x="1422.75" y="126.88" width="3.3" height="14.38" transform="translate(1558.47 -1290.33) rotate(90)"/><rect class="cls-1" x="1441.11" y="108.08" width="3.3" height="14.38"/><rect class="cls-1" x="737.48" y="946.39" width="271.42" height="12.16"/><path class="cls-1" d="M723.65,935.59l-12.91-.11a23.3,23.3,0,0,0,23.94,23.4V946.49a11,11,0,0,1-7.11-2.41A11.33,11.33,0,0,1,723.65,935.59Z"/><rect class="cls-1" x="734.42" y="945.62" width="3.3" height="14.38"/><rect class="cls-1" x="715.62" y="927.26" width="3.3" height="14.38" transform="translate(-217.18 1651.71) rotate(-90)"/><path class="cls-1" d="M1407.69,946.64q-.06,6.47-.11,12.91A23.28,23.28,0,0,0,1431,935.62h-12.38a10.92,10.92,0,0,1-2.42,7.1A11.3,11.3,0,0,1,1407.69,946.64Z"/><rect class="cls-1" x="1423.25" y="927.03" width="3.3" height="14.38" transform="translate(490.68 2359.13) rotate(-90)"/><rect class="cls-1" x="1404.89" y="945.84" width="3.3" height="14.38" transform="translate(2813.09 1906.05) rotate(-180)"/><path class="cls-1" d="M464.19,689.68l-12.9-.11A23.3,23.3,0,0,0,475.22,713V700.58a11,11,0,0,1-7.1-2.41A11.31,11.31,0,0,1,464.19,689.68Z"/><rect class="cls-1" x="474.96" y="699.71" width="3.3" height="14.38"/><rect class="cls-1" x="456.16" y="681.35" width="3.3" height="14.38" transform="translate(-230.73 1146.35) rotate(-90)"/><rect class="cls-51" x="135.13" y="800.11" width="529.98" height="153.55"/><rect class="cls-51" x="135.12" y="800.72" width="529.98" height="38.16"/><rect class="cls-51" x="135.12" y="839.16" width="529.98" height="38.16"/><rect class="cls-51" x="135.12" y="877.41" width="529.98" height="38.16"/><rect class="cls-51" x="135.12" y="915.51" width="529.98" height="38.16"/><rect class="cls-4" x="917.75" y="166.33" width="3.02" height="13.69"/><rect class="cls-4" x="921.88" y="166.33" width="3.02" height="13.69"/><rect class="cls-4" x="888.96" y="166.33" width="3.02" height="13.69"/><rect class="cls-4" x="893.09" y="166.33" width="3.02" height="13.69"/><circle class="cls-52" cx="906.63" cy="136.8" r="11.27"/><rect class="cls-4" x="901.2" y="127.51" width="1.59" height="8.82" rx="0.77" transform="translate(1633.08 -412.6) rotate(135)"/><rect class="cls-4" x="910.95" y="137.26" width="1.59" height="8.82" rx="0.77" transform="translate(1656.62 -402.85) rotate(135)"/><rect class="cls-4" x="904.12" y="122.97" width="5.72" height="2.82"/><polygon class="cls-4" points="905.98 155.4 904.64 155.81 901.54 150.5 902.88 150.09 905.98 155.4"/><polygon class="cls-4" points="908.66 155.4 910 155.81 912.75 150.53 911.75 150.09 908.66 155.4"/><rect class="cls-4" x="906.5" y="149.83" width="1.45" height="5.76" transform="translate(1814.45 305.41) rotate(180)"/><rect class="cls-4" x="917.27" y="133.06" width="3.2" height="6.87"/><rect class="cls-4" x="901.13" y="148.24" width="11.84" height="3.23" rx="0.72"/><rect class="cls-4" x="904.55" y="156.77" width="5.6" height="6.64" rx="0.72"/><rect class="cls-4" x="901.35" y="154.61" width="11.93" height="1.37" rx="0.44"/><rect class="cls-4" x="901.35" y="156.09" width="11.93" height="1.37" rx="0.42"/><rect class="cls-4" x="892.41" y="137.21" width="2.63" height="2.72"/><rect class="cls-4" x="892.41" y="133.51" width="2.63" height="2.72"/><circle class="cls-53" cx="906.87" cy="136.8" r="2.89"/><circle class="cls-54" cx="906.91" cy="136.8" r="1.93"/><rect class="cls-4" x="910.95" y="127.51" width="1.59" height="8.82" rx="0.77" transform="translate(1463.16 869.9) rotate(-135)"/><rect class="cls-4" x="901.2" y="137.26" width="1.59" height="8.82" rx="0.77" transform="translate(1439.62 879.65) rotate(-135)"/><rect class="cls-4" x="901.26" y="160.05" width="11.7" height="21.58" rx="4.98"/><rect class="cls-4" x="911.9" y="158.75" width="2.87" height="24.16" rx="1.4"/><rect class="cls-4" x="899.52" y="158.75" width="2.87" height="24.16" rx="1.4"/><circle class="cls-55" cx="906.91" cy="136.8" r="1.15"/><circle class="cls-56" cx="906.91" cy="136.8" r="0.82"/><rect class="cls-4" x="396.72" y="223.12" width="3.02" height="13.69"/><rect class="cls-4" x="400.86" y="223.12" width="3.02" height="13.69"/><rect class="cls-4" x="367.93" y="223.12" width="3.02" height="13.69"/><rect class="cls-4" x="372.07" y="223.12" width="3.02" height="13.69"/><circle class="cls-52" cx="385.61" cy="193.6" r="11.27"/><rect class="cls-4" x="380.18" y="184.31" width="1.59" height="8.82" rx="0.77" transform="translate(783.8 52.78) rotate(135)"/><rect class="cls-4" x="389.93" y="194.06" width="1.59" height="8.82" rx="0.77" transform="translate(807.34 62.53) rotate(135)"/><rect class="cls-4" x="383.09" y="179.77" width="5.72" height="2.82"/><polygon class="cls-4" points="384.96 212.2 383.62 212.6 380.52 207.29 381.86 206.89 384.96 212.2"/><polygon class="cls-4" points="387.63 212.2 388.97 212.6 391.73 207.32 390.73 206.89 387.63 212.2"/><rect class="cls-4" x="385.47" y="206.62" width="1.45" height="5.76" transform="translate(772.4 419.01) rotate(180)"/><rect class="cls-4" x="396.24" y="189.86" width="3.2" height="6.87"/><rect class="cls-4" x="380.1" y="205.04" width="11.84" height="3.23" rx="0.72"/><rect class="cls-4" x="383.53" y="213.57" width="5.6" height="6.64" rx="0.72"/><rect class="cls-4" x="380.32" y="211.41" width="11.93" height="1.37" rx="0.44"/><rect class="cls-4" x="380.32" y="212.89" width="11.93" height="1.37" rx="0.42"/><rect class="cls-4" x="371.39" y="194.01" width="2.63" height="2.72"/><rect class="cls-4" x="371.39" y="190.31" width="2.63" height="2.72"/><circle class="cls-53" cx="385.85" cy="193.6" r="2.89"/><circle class="cls-54" cx="385.89" cy="193.6" r="1.93"/><rect class="cls-4" x="389.93" y="184.31" width="1.59" height="8.82" rx="0.77" transform="translate(533.56 598.44) rotate(-135)"/><rect class="cls-4" x="380.18" y="194.06" width="1.59" height="8.82" rx="0.77" transform="translate(510.02 608.19) rotate(-135)"/><rect class="cls-4" x="380.24" y="216.85" width="11.7" height="21.58" rx="4.98"/><rect class="cls-4" x="390.88" y="215.55" width="2.87" height="24.16" rx="1.4"/><rect class="cls-4" x="378.49" y="215.55" width="2.87" height="24.16" rx="1.4"/><circle class="cls-55" cx="385.89" cy="193.6" r="1.15"/><circle class="cls-56" cx="385.89" cy="193.6" r="0.82"/><rect class="cls-4" x="1509.89" y="107.47" width="3.02" height="13.69"/><rect class="cls-4" x="1514.03" y="107.47" width="3.02" height="13.69"/><rect class="cls-4" x="1481.1" y="107.47" width="3.02" height="13.69"/><rect class="cls-4" x="1485.24" y="107.47" width="3.02" height="13.69"/><circle class="cls-52" cx="1498.78" cy="77.94" r="11.27"/><rect class="cls-4" x="1493.35" y="68.66" width="1.59" height="8.82" rx="0.77" transform="translate(2602.32 -931.78) rotate(135)"/><rect class="cls-4" x="1503.1" y="78.41" width="1.59" height="8.82" rx="0.77" transform="translate(2625.87 -922.03) rotate(135)"/><rect class="cls-4" x="1496.26" y="64.12" width="5.72" height="2.82"/><polygon class="cls-4" points="1498.13 96.55 1496.79 96.95 1493.69 91.64 1495.03 91.24 1498.13 96.55"/><polygon class="cls-4" points="1500.8 96.55 1502.14 96.95 1504.9 91.67 1503.9 91.24 1500.8 96.55"/><rect class="cls-4" x="1498.64" y="90.97" width="1.45" height="5.76" transform="translate(2998.74 187.71) rotate(180)"/><rect class="cls-4" x="1509.41" y="74.21" width="3.2" height="6.87"/><rect class="cls-4" x="1493.27" y="89.39" width="11.84" height="3.23" rx="0.72"/><rect class="cls-4" x="1496.7" y="97.92" width="5.6" height="6.64" rx="0.72"/><rect class="cls-4" x="1493.49" y="95.76" width="11.93" height="1.37" rx="0.44"/><rect class="cls-4" x="1493.49" y="97.23" width="11.93" height="1.37" rx="0.42"/><rect class="cls-4" x="1484.56" y="78.36" width="2.63" height="2.72"/><rect class="cls-4" x="1484.56" y="74.66" width="2.63" height="2.72"/><circle class="cls-53" cx="1499.02" cy="77.95" r="2.89"/><circle class="cls-54" cx="1499.06" cy="77.94" r="1.93"/><rect class="cls-4" x="1503.1" y="68.66" width="1.59" height="8.82" rx="0.77" transform="translate(2515.64 1188.14) rotate(-135)"/><rect class="cls-4" x="1493.35" y="78.41" width="1.59" height="8.82" rx="0.77" transform="translate(2492.1 1197.89) rotate(-135)"/><rect class="cls-4" x="1493.41" y="101.2" width="11.7" height="21.58" rx="4.98"/><rect class="cls-4" x="1504.05" y="99.9" width="2.87" height="24.16" rx="1.4"/><rect class="cls-4" x="1491.66" y="99.9" width="2.87" height="24.16" rx="1.4"/><circle class="cls-55" cx="1499.06" cy="77.94" r="1.15"/><circle class="cls-56" cx="1499.06" cy="77.94" r="0.82"/><rect class="cls-4" x="1310.77" y="166.33" width="3.02" height="13.69"/><rect class="cls-4" x="1314.9" y="166.33" width="3.02" height="13.69"/><rect class="cls-4" x="1281.98" y="166.33" width="3.02" height="13.69"/><rect class="cls-4" x="1286.11" y="166.33" width="3.02" height="13.69"/><circle class="cls-52" cx="1299.65" cy="136.8" r="11.27"/><rect class="cls-4" x="1294.22" y="127.51" width="1.59" height="8.82" rx="0.77" transform="translate(2304.01 -690.5) rotate(135)"/><rect class="cls-4" x="1303.97" y="137.26" width="1.59" height="8.82" rx="0.77" transform="translate(2327.55 -680.76) rotate(135)"/><rect class="cls-4" x="1297.14" y="122.97" width="5.72" height="2.82"/><polygon class="cls-4" points="1299 155.4 1297.66 155.81 1294.57 150.5 1295.9 150.09 1299 155.4"/><polygon class="cls-4" points="1301.68 155.4 1303.02 155.81 1305.77 150.53 1304.77 150.09 1301.68 155.4"/><rect class="cls-4" x="1299.52" y="149.83" width="1.45" height="5.76" transform="translate(2600.49 305.41) rotate(180)"/><rect class="cls-4" x="1310.29" y="133.06" width="3.2" height="6.87"/><rect class="cls-4" x="1294.15" y="148.24" width="11.84" height="3.23" rx="0.72"/><rect class="cls-4" x="1297.57" y="156.77" width="5.6" height="6.64" rx="0.72"/><rect class="cls-4" x="1294.37" y="154.61" width="11.93" height="1.37" rx="0.44"/><rect class="cls-4" x="1294.37" y="156.09" width="11.93" height="1.37" rx="0.42"/><rect class="cls-4" x="1285.43" y="137.21" width="2.63" height="2.72"/><rect class="cls-4" x="1285.43" y="133.51" width="2.63" height="2.72"/><circle class="cls-53" cx="1299.89" cy="136.8" r="2.89"/><circle class="cls-54" cx="1299.93" cy="136.8" r="1.93"/><rect class="cls-4" x="1303.97" y="127.51" width="1.59" height="8.82" rx="0.77" transform="translate(2134.08 1147.82) rotate(-135)"/><rect class="cls-4" x="1294.22" y="137.26" width="1.59" height="8.82" rx="0.77" transform="translate(2110.55 1157.56) rotate(-135)"/><rect class="cls-4" x="1294.28" y="160.05" width="11.7" height="21.58" rx="4.98"/><rect class="cls-4" x="1304.92" y="158.75" width="2.87" height="24.16" rx="1.4"/><rect class="cls-4" x="1292.54" y="158.75" width="2.87" height="24.16" rx="1.4"/><circle class="cls-55" cx="1299.93" cy="136.8" r="1.15"/><circle class="cls-56" cx="1299.93" cy="136.8" r="0.82"/><rect class="cls-4" x="917.75" y="343.68" width="3.02" height="13.69"/><rect class="cls-4" x="921.88" y="343.68" width="3.02" height="13.69"/><rect class="cls-4" x="888.96" y="343.68" width="3.02" height="13.69"/><rect class="cls-4" x="893.09" y="343.68" width="3.02" height="13.69"/><circle class="cls-52" cx="906.63" cy="314.15" r="11.27"/><rect class="cls-4" x="901.2" y="304.87" width="1.59" height="8.82" rx="0.77" transform="translate(1758.49 -109.84) rotate(135)"/><rect class="cls-4" x="910.95" y="314.62" width="1.59" height="8.82" rx="0.77" transform="translate(1782.03 -100.08) rotate(135)"/><rect class="cls-4" x="904.12" y="300.33" width="5.72" height="2.82"/><polygon class="cls-4" points="905.98 332.76 904.64 333.16 901.54 327.85 902.88 327.45 905.98 332.76"/><polygon class="cls-4" points="908.66 332.76 910 333.16 912.75 327.88 911.75 327.45 908.66 332.76"/><rect class="cls-4" x="906.5" y="327.18" width="1.45" height="5.76" transform="translate(1814.45 660.12) rotate(180)"/><rect class="cls-4" x="917.27" y="310.42" width="3.2" height="6.87"/><rect class="cls-4" x="901.13" y="325.6" width="11.84" height="3.23" rx="0.72"/><rect class="cls-4" x="904.55" y="334.13" width="5.6" height="6.64" rx="0.72"/><rect class="cls-4" x="901.35" y="331.97" width="11.93" height="1.37" rx="0.44"/><rect class="cls-4" x="901.35" y="333.44" width="11.93" height="1.37" rx="0.42"/><rect class="cls-4" x="892.41" y="314.57" width="2.63" height="2.72"/><rect class="cls-4" x="892.41" y="310.86" width="2.63" height="2.72"/><circle class="cls-53" cx="906.87" cy="314.16" r="2.89"/><circle class="cls-54" cx="906.91" cy="314.15" r="1.93"/><rect class="cls-4" x="910.95" y="304.87" width="1.59" height="8.82" rx="0.77" transform="translate(1337.75 1172.67) rotate(-135)"/><rect class="cls-4" x="901.2" y="314.62" width="1.59" height="8.82" rx="0.77" transform="translate(1314.21 1182.42) rotate(-135)"/><rect class="cls-4" x="901.26" y="337.41" width="11.7" height="21.58" rx="4.98"/><rect class="cls-4" x="911.9" y="336.11" width="2.87" height="24.16" rx="1.4"/><rect class="cls-4" x="899.52" y="336.11" width="2.87" height="24.16" rx="1.4"/><circle class="cls-55" cx="906.91" cy="314.15" r="1.15"/><circle class="cls-56" cx="906.91" cy="314.15" r="0.82"/><rect class="cls-4" x="1310.77" y="343.68" width="3.02" height="13.69"/><rect class="cls-4" x="1314.9" y="343.68" width="3.02" height="13.69"/><rect class="cls-4" x="1281.98" y="343.68" width="3.02" height="13.69"/><rect class="cls-4" x="1286.11" y="343.68" width="3.02" height="13.69"/><circle class="cls-52" cx="1299.65" cy="314.15" r="11.27"/><rect class="cls-4" x="1294.22" y="304.87" width="1.59" height="8.82" rx="0.77" transform="translate(2429.42 -387.74) rotate(135)"/><rect class="cls-4" x="1303.97" y="314.62" width="1.59" height="8.82" rx="0.77" transform="translate(2452.96 -377.99) rotate(135)"/><rect class="cls-4" x="1297.14" y="300.33" width="5.72" height="2.82"/><polygon class="cls-4" points="1299 332.76 1297.66 333.16 1294.57 327.85 1295.9 327.45 1299 332.76"/><polygon class="cls-4" points="1301.68 332.76 1303.02 333.16 1305.77 327.88 1304.77 327.45 1301.68 332.76"/><rect class="cls-4" x="1299.52" y="327.18" width="1.45" height="5.76" transform="translate(2600.49 660.12) rotate(180)"/><rect class="cls-4" x="1310.29" y="310.42" width="3.2" height="6.87"/><rect class="cls-4" x="1294.15" y="325.6" width="11.84" height="3.23" rx="0.72"/><rect class="cls-4" x="1297.57" y="334.13" width="5.6" height="6.64" rx="0.72"/><rect class="cls-4" x="1294.37" y="331.97" width="11.93" height="1.37" rx="0.44"/><rect class="cls-4" x="1294.37" y="333.44" width="11.93" height="1.37" rx="0.42"/><rect class="cls-4" x="1285.43" y="314.57" width="2.63" height="2.72"/><rect class="cls-4" x="1285.43" y="310.86" width="2.63" height="2.72"/><circle class="cls-53" cx="1299.89" cy="314.16" r="2.89"/><circle class="cls-54" cx="1299.93" cy="314.15" r="1.93"/><rect class="cls-4" x="1303.97" y="304.87" width="1.59" height="8.82" rx="0.77" transform="translate(2008.67 1450.58) rotate(-135)"/><rect class="cls-4" x="1294.22" y="314.62" width="1.59" height="8.82" rx="0.77" transform="translate(1985.14 1460.33) rotate(-135)"/><rect class="cls-4" x="1294.28" y="337.41" width="11.7" height="21.58" rx="4.98"/><rect class="cls-4" x="1304.92" y="336.11" width="2.87" height="24.16" rx="1.4"/><rect class="cls-4" x="1292.54" y="336.11" width="2.87" height="24.16" rx="1.4"/><circle class="cls-55" cx="1299.93" cy="314.15" r="1.15"/><circle class="cls-56" cx="1299.93" cy="314.15" r="0.82"/><rect class="cls-1" x="716.95" y="772.76" width="293.89" height="12.16"/><rect class="cls-1" x="1078.61" y="772.76" width="341.89" height="12.16"/><rect class="cls-4" x="1166.27" y="770.99" width="21.63" height="15.14"/><rect class="cls-30" x="1168.43" y="773.15" width="2.16" height="10.89"/><rect class="cls-30" x="1183.57" y="772.89" width="2.16" height="11.07"/><rect class="cls-30" x="1176.76" y="769.76" width="0.64" height="17.44" transform="translate(1278.11 2186.08) rotate(-127.58)"/><polygon class="cls-4" points="1166.79 767.6 1190.85 767.6 1178.82 762.99 1178.82 762.99 1178.82 765.29 1166.79 765.29 1166.79 767.6"/><text class="cls-31" transform="translate(947.24 766.72)">2#泵</text><rect class="cls-2" x="1090.55" y="680.82" width="169.4" height="76.72"/><rect class="cls-57" x="1098.89" y="725.81" width="72.18" height="26.23"/><rect class="cls-58" x="1178.45" y="694.49" width="72.18" height="26.23"/><rect class="cls-59" x="1098.89" y="694.31" width="72.18" height="26.23"/><polygon class="cls-50" points="823.76 801.88 848.6 801.88 854.62 801.88 851.15 810.07 874.3 800.3 851.15 790.52 854.62 798.71 848.6 798.71 823.76 798.71 823.76 801.88"/><polygon class="cls-50" points="1339.77 800.14 1363.73 800.14 1369.76 800.14 1366.28 808.33 1389.43 798.56 1366.28 788.79 1369.76 796.97 1363.73 796.97 1339.77 796.97 1339.77 800.14"/><rect class="cls-4" x="917.75" y="771.79" width="3.02" height="13.69"/><rect class="cls-4" x="921.88" y="771.79" width="3.02" height="13.69"/><rect class="cls-4" x="888.96" y="771.79" width="3.02" height="13.69"/><rect class="cls-4" x="893.09" y="771.79" width="3.02" height="13.69"/><circle class="cls-52" cx="906.63" cy="742.26" r="11.27"/><rect class="cls-4" x="901.2" y="732.97" width="1.59" height="8.82" rx="0.77" transform="translate(2061.21 620.98) rotate(135)"/><rect class="cls-4" x="910.95" y="742.73" width="1.59" height="8.82" rx="0.77" transform="translate(2084.75 630.74) rotate(135)"/><rect class="cls-4" x="904.12" y="728.44" width="5.72" height="2.82"/><polygon class="cls-4" points="905.98 760.86 904.64 761.27 901.54 755.96 902.88 755.55 905.98 760.86"/><polygon class="cls-4" points="908.66 760.86 910 761.27 912.75 755.99 911.75 755.55 908.66 760.86"/><rect class="cls-4" x="906.5" y="755.29" width="1.45" height="5.76" transform="translate(1814.45 1516.34) rotate(180)"/><rect class="cls-4" x="917.27" y="738.52" width="3.2" height="6.87"/><rect class="cls-4" x="901.13" y="753.7" width="11.84" height="3.23" rx="0.72"/><rect class="cls-4" x="904.55" y="762.23" width="5.6" height="6.64" rx="0.72"/><rect class="cls-4" x="901.35" y="760.08" width="11.93" height="1.37" rx="0.44"/><rect class="cls-4" x="901.35" y="761.55" width="11.93" height="1.37" rx="0.42"/><rect class="cls-4" x="892.41" y="742.67" width="2.63" height="2.72"/><rect class="cls-4" x="892.41" y="738.97" width="2.63" height="2.72"/><circle class="cls-53" cx="906.87" cy="742.26" r="2.89"/><circle class="cls-54" cx="906.91" cy="742.26" r="1.93"/><rect class="cls-4" x="910.95" y="732.97" width="1.59" height="8.82" rx="0.77" transform="translate(1035.04 1903.49) rotate(-135)"/><rect class="cls-4" x="901.2" y="742.73" width="1.59" height="8.82" rx="0.77" transform="translate(1011.49 1913.24) rotate(-135)"/><rect class="cls-4" x="901.26" y="765.52" width="11.7" height="21.58" rx="4.98"/><rect class="cls-4" x="911.9" y="764.21" width="2.87" height="24.16" rx="1.4"/><rect class="cls-4" x="899.52" y="764.21" width="2.87" height="24.16" rx="1.4"/><circle class="cls-55" cx="906.91" cy="742.26" r="1.15"/><circle class="cls-56" cx="906.91" cy="742.26" r="0.82"/><rect class="cls-4" x="1310.77" y="771.79" width="3.02" height="13.69"/><rect class="cls-4" x="1314.9" y="771.79" width="3.02" height="13.69"/><rect class="cls-4" x="1281.98" y="771.79" width="3.02" height="13.69"/><rect class="cls-4" x="1286.11" y="771.79" width="3.02" height="13.69"/><circle class="cls-52" cx="1299.65" cy="742.26" r="11.27"/><rect class="cls-4" x="1294.22" y="732.97" width="1.59" height="8.82" rx="0.77" transform="translate(2732.14 343.09) rotate(135)"/><rect class="cls-4" x="1303.97" y="742.73" width="1.59" height="8.82" rx="0.77" transform="translate(2755.67 352.82) rotate(135)"/><rect class="cls-4" x="1297.14" y="728.44" width="5.72" height="2.82"/><polygon class="cls-4" points="1299 760.86 1297.66 761.27 1294.57 755.96 1295.9 755.55 1299 760.86"/><polygon class="cls-4" points="1301.68 760.86 1303.02 761.27 1305.77 755.99 1304.77 755.55 1301.68 760.86"/><rect class="cls-4" x="1299.52" y="755.29" width="1.45" height="5.76" transform="translate(2600.49 1516.34) rotate(180)"/><rect class="cls-4" x="1310.29" y="738.52" width="3.2" height="6.87"/><rect class="cls-4" x="1294.15" y="753.7" width="11.84" height="3.23" rx="0.72"/><rect class="cls-4" x="1297.57" y="762.23" width="5.6" height="6.64" rx="0.72"/><rect class="cls-4" x="1294.37" y="760.08" width="11.93" height="1.37" rx="0.44"/><rect class="cls-4" x="1294.37" y="761.55" width="11.93" height="1.37" rx="0.42"/><rect class="cls-4" x="1285.43" y="742.67" width="2.63" height="2.72"/><rect class="cls-4" x="1285.43" y="738.97" width="2.63" height="2.72"/><circle class="cls-53" cx="1299.89" cy="742.26" r="2.89"/><circle class="cls-54" cx="1299.93" cy="742.26" r="1.93"/><rect class="cls-4" x="1303.97" y="732.97" width="1.59" height="8.82" rx="0.77" transform="translate(1705.96 2181.4) rotate(-135)"/><rect class="cls-4" x="1294.22" y="742.73" width="1.59" height="8.82" rx="0.77" transform="translate(1682.42 2191.15) rotate(-135)"/><rect class="cls-4" x="1294.28" y="765.52" width="11.7" height="21.58" rx="4.98"/><rect class="cls-4" x="1304.92" y="764.21" width="2.87" height="24.16" rx="1.4"/><rect class="cls-4" x="1292.54" y="764.21" width="2.87" height="24.16" rx="1.4"/><circle class="cls-55" cx="1299.93" cy="742.26" r="1.15"/><circle class="cls-56" cx="1299.93" cy="742.26" r="0.82"/><rect class="cls-1" x="716.95" y="590.13" width="294.1" height="12.16"/><rect class="cls-1" x="1078.61" y="590.13" width="341.89" height="12.16"/><rect class="cls-4" x="1166.27" y="588.36" width="21.63" height="15.14"/><rect class="cls-30" x="1168.43" y="590.52" width="2.16" height="10.89"/><rect class="cls-30" x="1183.57" y="590.27" width="2.16" height="11.07"/><rect class="cls-30" x="1176.76" y="587.14" width="0.64" height="17.44" transform="translate(1422.83 1892.07) rotate(-127.58)"/><polygon class="cls-4" points="1166.79 584.97 1190.85 584.97 1178.82 580.36 1178.82 580.36 1178.82 582.67 1166.79 582.67 1166.79 584.97"/><text class="cls-31" transform="translate(947.24 584.09)">2#泵</text><rect class="cls-2" x="1090.55" y="498.19" width="169.4" height="76.72"/><rect class="cls-60" x="1098.89" y="543.18" width="72.18" height="26.23"/><rect class="cls-61" x="1178.45" y="511.87" width="72.18" height="26.23"/><rect class="cls-62" x="1098.89" y="511.68" width="72.18" height="26.23"/><polygon class="cls-50" points="823.76 619.25 848.6 619.25 854.62 619.25 851.15 627.44 874.3 617.67 851.15 607.9 854.62 616.08 848.6 616.08 823.76 616.08 823.76 619.25"/><polygon class="cls-50" points="1339.77 617.52 1363.73 617.52 1369.76 617.52 1366.28 625.7 1389.43 615.93 1366.28 606.16 1369.76 614.35 1363.73 614.35 1339.77 614.35 1339.77 617.52"/><rect class="cls-4" x="917.75" y="589.16" width="3.02" height="13.69"/><rect class="cls-4" x="921.88" y="589.16" width="3.02" height="13.69"/><rect class="cls-4" x="888.96" y="589.16" width="3.02" height="13.69"/><rect class="cls-4" x="893.09" y="589.16" width="3.02" height="13.69"/><circle class="cls-52" cx="906.63" cy="559.63" r="11.27"/><rect class="cls-4" x="901.2" y="550.35" width="1.59" height="8.82" rx="0.77" transform="translate(1932.07 309.22) rotate(135)"/><rect class="cls-4" x="910.95" y="560.1" width="1.59" height="8.82" rx="0.77" transform="translate(1955.61 318.97) rotate(135)"/><rect class="cls-4" x="904.12" y="545.81" width="5.72" height="2.82"/><polygon class="cls-4" points="905.98 578.24 904.64 578.64 901.54 573.33 902.88 572.92 905.98 578.24"/><polygon class="cls-4" points="908.66 578.24 910 578.64 912.75 573.36 911.75 572.92 908.66 578.24"/><rect class="cls-4" x="906.5" y="572.66" width="1.45" height="5.76" transform="translate(1814.45 1151.08) rotate(180)"/><rect class="cls-4" x="917.27" y="555.9" width="3.2" height="6.87"/><rect class="cls-4" x="901.13" y="571.08" width="11.84" height="3.23" rx="0.72"/><rect class="cls-4" x="904.55" y="579.61" width="5.6" height="6.64" rx="0.72"/><rect class="cls-4" x="901.35" y="577.45" width="11.93" height="1.37" rx="0.44"/><rect class="cls-4" x="901.35" y="578.92" width="11.93" height="1.37" rx="0.42"/><rect class="cls-4" x="892.41" y="560.05" width="2.63" height="2.72"/><rect class="cls-4" x="892.41" y="556.34" width="2.63" height="2.72"/><circle class="cls-53" cx="906.87" cy="559.64" r="2.89"/><circle class="cls-54" cx="906.91" cy="559.63" r="1.93"/><rect class="cls-4" x="910.95" y="550.35" width="1.59" height="8.82" rx="0.77" transform="translate(1164.17 1591.73) rotate(-135)"/><rect class="cls-4" x="901.2" y="560.1" width="1.59" height="8.82" rx="0.77" transform="translate(1140.63 1601.48) rotate(-135)"/><rect class="cls-4" x="901.26" y="582.89" width="11.7" height="21.58" rx="4.98"/><rect class="cls-4" x="911.9" y="581.59" width="2.87" height="24.16" rx="1.4"/><rect class="cls-4" x="899.52" y="581.59" width="2.87" height="24.16" rx="1.4"/><circle class="cls-55" cx="906.91" cy="559.63" r="1.15"/><circle class="cls-56" cx="906.91" cy="559.63" r="0.82"/><rect class="cls-4" x="1310.77" y="589.16" width="3.02" height="13.69"/><rect class="cls-4" x="1314.9" y="589.16" width="3.02" height="13.69"/><rect class="cls-4" x="1281.98" y="589.16" width="3.02" height="13.69"/><rect class="cls-4" x="1286.11" y="589.16" width="3.02" height="13.69"/><circle class="cls-52" cx="1299.65" cy="559.63" r="11.27"/><rect class="cls-4" x="1294.22" y="550.35" width="1.59" height="8.82" rx="0.77" transform="translate(2603 31.32) rotate(135)"/><rect class="cls-4" x="1303.97" y="560.1" width="1.59" height="8.82" rx="0.77" transform="translate(2626.54 41.06) rotate(135)"/><rect class="cls-4" x="1297.14" y="545.81" width="5.72" height="2.82"/><polygon class="cls-4" points="1299 578.24 1297.66 578.64 1294.57 573.33 1295.9 572.92 1299 578.24"/><polygon class="cls-4" points="1301.68 578.24 1303.02 578.64 1305.77 573.36 1304.77 572.92 1301.68 578.24"/><rect class="cls-4" x="1299.52" y="572.66" width="1.45" height="5.76" transform="translate(2600.49 1151.08) rotate(180)"/><rect class="cls-4" x="1310.29" y="555.9" width="3.2" height="6.87"/><rect class="cls-4" x="1294.15" y="571.08" width="11.84" height="3.23" rx="0.72"/><rect class="cls-4" x="1297.57" y="579.61" width="5.6" height="6.64" rx="0.72"/><rect class="cls-4" x="1294.37" y="577.45" width="11.93" height="1.37" rx="0.44"/><rect class="cls-4" x="1294.37" y="578.92" width="11.93" height="1.37" rx="0.42"/><rect class="cls-4" x="1285.43" y="560.05" width="2.63" height="2.72"/><rect class="cls-4" x="1285.43" y="556.34" width="2.63" height="2.72"/><circle class="cls-53" cx="1299.89" cy="559.64" r="2.89"/><circle class="cls-54" cx="1299.93" cy="559.63" r="1.93"/><rect class="cls-4" x="1303.97" y="550.35" width="1.59" height="8.82" rx="0.77" transform="translate(1835.09 1869.64) rotate(-135)"/><rect class="cls-4" x="1294.22" y="560.1" width="1.59" height="8.82" rx="0.77" transform="translate(1811.56 1879.39) rotate(-135)"/><rect class="cls-4" x="1294.28" y="582.89" width="11.7" height="21.58" rx="4.98"/><rect class="cls-4" x="1304.92" y="581.59" width="2.87" height="24.16" rx="1.4"/><rect class="cls-4" x="1292.54" y="581.59" width="2.87" height="24.16" rx="1.4"/><circle class="cls-55" cx="1299.93" cy="559.63" r="1.15"/><circle class="cls-56" cx="1299.93" cy="559.63" r="0.82"/><rect class="cls-1" x="716.95" y="429.04" width="705.75" height="12.16"/><rect class="cls-4" x="896.19" y="427.11" width="21.63" height="15.14"/><rect class="cls-30" x="898.36" y="429.28" width="2.16" height="10.89"/><rect class="cls-30" x="913.49" y="429.02" width="2.16" height="11.07"/><rect class="cls-30" x="906.69" y="425.89" width="0.64" height="17.44" transform="translate(1115.81 1418.45) rotate(-127.58)"/><polygon class="cls-4" points="896.72 423.73 920.78 423.73 908.75 419.12 908.75 419.12 908.75 421.42 896.72 421.42 896.72 423.73"/><polygon class="cls-50" points="923.5 459.04 947.46 459.04 953.49 459.04 950.01 467.22 973.16 457.45 950.01 447.68 953.49 455.87 947.46 455.87 923.5 455.87 923.5 459.04"/><polygon class="cls-50" points="1247.15 459.04 1271.11 459.04 1277.13 459.04 1273.65 467.22 1296.8 457.45 1273.65 447.68 1277.13 455.87 1271.11 455.87 1247.15 455.87 1247.15 459.04"/><rect class="cls-4" x="1216.11" y="428.08" width="3.02" height="13.69"/><rect class="cls-4" x="1220.25" y="428.08" width="3.02" height="13.69"/><rect class="cls-4" x="1187.32" y="428.08" width="3.02" height="13.69"/><rect class="cls-4" x="1191.46" y="428.08" width="3.02" height="13.69"/><circle class="cls-52" cx="1205" cy="398.55" r="11.27"/><rect class="cls-4" x="1199.56" y="389.26" width="1.59" height="8.82" rx="0.77" transform="translate(2327.51 -176.73) rotate(135)"/><rect class="cls-4" x="1209.31" y="399.01" width="1.59" height="8.82" rx="0.77" transform="translate(2351.05 -166.99) rotate(135)"/><rect class="cls-4" x="1202.48" y="384.72" width="5.72" height="2.82"/><polygon class="cls-4" points="1204.35 417.15 1203.01 417.56 1199.91 412.25 1201.25 411.84 1204.35 417.15"/><polygon class="cls-4" points="1207.02 417.15 1208.36 417.56 1211.11 412.28 1210.12 411.84 1207.02 417.15"/><rect class="cls-4" x="1204.86" y="411.57" width="1.45" height="5.76" transform="translate(2411.18 828.91) rotate(180)"/><rect class="cls-4" x="1215.63" y="394.81" width="3.2" height="6.87"/><rect class="cls-4" x="1199.49" y="409.99" width="11.84" height="3.23" rx="0.72"/><rect class="cls-4" x="1202.91" y="418.52" width="5.6" height="6.64" rx="0.72"/><rect class="cls-4" x="1199.71" y="416.36" width="11.93" height="1.37" rx="0.44"/><rect class="cls-4" x="1199.71" y="417.84" width="11.93" height="1.37" rx="0.42"/><rect class="cls-4" x="1190.77" y="398.96" width="2.63" height="2.72"/><rect class="cls-4" x="1190.77" y="395.26" width="2.63" height="2.72"/><circle class="cls-53" cx="1205.24" cy="398.55" r="2.89"/><circle class="cls-54" cx="1205.27" cy="398.55" r="1.93"/><rect class="cls-4" x="1209.31" y="389.26" width="1.59" height="8.82" rx="0.77" transform="translate(1787.41 1527.72) rotate(-135)"/><rect class="cls-4" x="1199.56" y="399.01" width="1.59" height="8.82" rx="0.77" transform="translate(1763.88 1537.46) rotate(-135)"/><rect class="cls-4" x="1199.62" y="421.8" width="11.7" height="21.58" rx="4.98"/><rect class="cls-4" x="1210.26" y="420.5" width="2.87" height="24.16" rx="1.4"/><rect class="cls-4" x="1197.88" y="420.5" width="2.87" height="24.16" rx="1.4"/><circle class="cls-55" cx="1205.27" cy="398.55" r="1.15"/><circle class="cls-56" cx="1205.27" cy="398.55" r="0.82"/><rect class="cls-4" x="917.75" y="945.81" width="3.02" height="13.69"/><rect class="cls-4" x="921.88" y="945.81" width="3.02" height="13.69"/><rect class="cls-4" x="888.96" y="945.81" width="3.02" height="13.69"/><rect class="cls-4" x="893.09" y="945.81" width="3.02" height="13.69"/><circle class="cls-52" cx="906.63" cy="916.29" r="11.27"/><rect class="cls-4" x="901.2" y="907" width="1.59" height="8.82" rx="0.77" transform="translate(2184.26 918.07) rotate(135)"/><rect class="cls-4" x="910.95" y="916.75" width="1.59" height="8.82" rx="0.77" transform="translate(2207.8 927.82) rotate(135)"/><rect class="cls-4" x="904.12" y="902.46" width="5.72" height="2.82"/><polygon class="cls-4" points="905.98 934.89 904.64 935.29 901.54 929.98 902.88 929.58 905.98 934.89"/><polygon class="cls-4" points="908.66 934.89 910 935.29 912.75 930.01 911.75 929.58 908.66 934.89"/><rect class="cls-4" x="906.5" y="929.31" width="1.45" height="5.76" transform="translate(1814.45 1864.39) rotate(180)"/><rect class="cls-4" x="917.27" y="912.55" width="3.2" height="6.87"/><rect class="cls-4" x="901.13" y="927.73" width="11.84" height="3.23" rx="0.72"/><rect class="cls-4" x="904.55" y="936.26" width="5.6" height="6.64" rx="0.72"/><rect class="cls-4" x="901.35" y="934.1" width="11.93" height="1.37" rx="0.44"/><rect class="cls-4" x="901.35" y="935.58" width="11.93" height="1.37" rx="0.42"/><rect class="cls-4" x="892.41" y="916.7" width="2.63" height="2.72"/><rect class="cls-4" x="892.41" y="913" width="2.63" height="2.72"/><circle class="cls-53" cx="906.87" cy="916.29" r="2.89"/><circle class="cls-54" cx="906.91" cy="916.29" r="1.93"/><rect class="cls-4" x="910.95" y="907" width="1.59" height="8.82" rx="0.77" transform="translate(911.99 2200.57) rotate(-135)"/><rect class="cls-4" x="901.2" y="916.75" width="1.59" height="8.82" rx="0.77" transform="translate(888.44 2210.32) rotate(-135)"/><rect class="cls-4" x="901.26" y="939.54" width="11.7" height="21.58" rx="4.98"/><rect class="cls-4" x="911.9" y="938.24" width="2.87" height="24.16" rx="1.4"/><rect class="cls-4" x="899.52" y="938.24" width="2.87" height="24.16" rx="1.4"/><circle class="cls-55" cx="906.91" cy="916.29" r="1.15"/><circle class="cls-56" cx="906.91" cy="916.29" r="0.82"/><rect class="cls-4" x="1310.77" y="945.81" width="3.02" height="13.69"/><rect class="cls-4" x="1314.9" y="945.81" width="3.02" height="13.69"/><rect class="cls-4" x="1281.98" y="945.81" width="3.02" height="13.69"/><rect class="cls-4" x="1286.11" y="945.81" width="3.02" height="13.69"/><circle class="cls-52" cx="1299.65" cy="916.29" r="11.27"/><rect class="cls-4" x="1294.22" y="907" width="1.59" height="8.82" rx="0.77" transform="translate(2855.19 640.16) rotate(135)"/><rect class="cls-4" x="1303.97" y="916.75" width="1.59" height="8.82" rx="0.77" transform="translate(2878.73 649.9) rotate(135)"/><rect class="cls-4" x="1297.14" y="902.46" width="5.72" height="2.82"/><polygon class="cls-4" points="1299 934.89 1297.66 935.29 1294.57 929.98 1295.9 929.58 1299 934.89"/><polygon class="cls-4" points="1301.68 934.89 1303.02 935.29 1305.77 930.01 1304.77 929.58 1301.68 934.89"/><rect class="cls-4" x="1299.52" y="929.31" width="1.45" height="5.76" transform="translate(2600.49 1864.39) rotate(180)"/><rect class="cls-4" x="1310.29" y="912.55" width="3.2" height="6.87"/><rect class="cls-4" x="1294.15" y="927.73" width="11.84" height="3.23" rx="0.72"/><rect class="cls-4" x="1297.57" y="936.26" width="5.6" height="6.64" rx="0.72"/><rect class="cls-4" x="1294.37" y="934.1" width="11.93" height="1.37" rx="0.44"/><rect class="cls-4" x="1294.37" y="935.58" width="11.93" height="1.37" rx="0.42"/><rect class="cls-4" x="1285.43" y="916.7" width="2.63" height="2.72"/><rect class="cls-4" x="1285.43" y="913" width="2.63" height="2.72"/><circle class="cls-53" cx="1299.89" cy="916.29" r="2.89"/><circle class="cls-54" cx="1299.93" cy="916.29" r="1.93"/><rect class="cls-4" x="1303.97" y="907" width="1.59" height="8.82" rx="0.77" transform="translate(1582.89 2478.48) rotate(-135)"/><rect class="cls-4" x="1294.22" y="916.75" width="1.59" height="8.82" rx="0.77" transform="translate(1559.37 2488.23) rotate(-135)"/><rect class="cls-4" x="1294.28" y="939.54" width="11.7" height="21.58" rx="4.98"/><rect class="cls-4" x="1304.92" y="938.24" width="2.87" height="24.16" rx="1.4"/><rect class="cls-4" x="1292.54" y="938.24" width="2.87" height="24.16" rx="1.4"/><circle class="cls-55" cx="1299.93" cy="916.29" r="1.15"/><circle class="cls-56" cx="1299.93" cy="916.29" r="0.82"/><text class="cls-63" transform="translate(1033.14 52.39) scale(0.9 1)">SANLEY</text><ellipse class="cls-64" cx="1062.19" cy="83.41" rx="1.84" ry="1.79"/><circle class="cls-65" cx="1062.19" cy="83.41" r="1.6"/><circle class="cls-64" cx="1062.19" cy="83.41" r="1.25"/><circle class="cls-65" cx="1062.19" cy="83.41" r="0.89"/><ellipse class="cls-64" cx="1062.19" cy="89.44" rx="1.84" ry="1.79"/><circle class="cls-65" cx="1062.19" cy="89.44" r="1.6"/><circle class="cls-64" cx="1062.19" cy="89.44" r="1.25"/><circle class="cls-65" cx="1062.19" cy="89.44" r="0.89"/><rect class="cls-66" x="1025.36" y="58.47" width="40.12" height="50.77" rx="8.93"/><path class="cls-66" d="M1033.25,43.12h25.08a7.3,7.3,0,0,1,7.3,7.3V98.91a9.74,9.74,0,0,1-9.74,9.74h-21.25a9.74,9.74,0,0,1-9.74-9.74V51.48A8.36,8.36,0,0,1,1033.25,43.12Z"/><rect class="cls-66" x="1025.92" y="65.07" width="6.27" height="36.18"/><rect class="cls-66" x="1058.92" y="65.07" width="6.24" height="36.18"/><rect class="cls-67" x="1034.05" y="59.2" width="1.77" height="50.04"/><rect class="cls-67" x="1037.59" y="59.2" width="1.77" height="50.04"/><rect class="cls-67" x="1041.13" y="59.2" width="1.77" height="50.04"/><rect class="cls-67" x="1044.67" y="59.2" width="1.77" height="50.04"/><rect class="cls-67" x="1048.22" y="59.2" width="1.77" height="50.04"/><rect class="cls-67" x="1051.76" y="59.2" width="1.77" height="50.04"/><rect class="cls-67" x="1055.3" y="59.2" width="1.77" height="50.04"/><path class="cls-66" d="M1069.1,101.06h-2.78l-.84-.83V83l.84-.83h2.78l.83.83v17.23Z"/><rect class="cls-68" x="1026.91" y="109.24" width="36.36" height="8.27"/><rect class="cls-68" x="1033.75" y="109.24" width="4.13" height="8.27"/><rect class="cls-68" x="1053.82" y="109.24" width="4.13" height="8.27"/><rect class="cls-66" x="1017.46" y="118.1" width="55.5" height="2.95" rx="1.1"/><rect class="cls-66" x="1018.64" y="121.05" width="53.13" height="2.36" rx="1.1"/><rect class="cls-66" x="1024.25" y="123.71" width="41.92" height="2.95" rx="1.1"/><rect class="cls-66" x="1030.6" y="173.89" width="29.94" height="2.95" rx="1.1"/><rect class="cls-66" x="1028.38" y="197.5" width="33.65" height="2.95" rx="1.1"/><rect class="cls-68" x="1033.4" y="126.9" width="23.62" height="17.46"/><rect class="cls-68" x="1026.02" y="144.37" width="38.38" height="5.9" rx="1.1"/><rect class="cls-68" x="1030.68" y="150.27" width="29.1" height="23.62"/><rect class="cls-66" x="1030.75" y="176.84" width="29.63" height="20.66"/><rect class="cls-68" x="1033.7" y="150.27" width="23.03" height="23.62" rx="0.6"/><rect class="cls-68" x="1021.29" y="166.76" width="8.87" height="15.69"/><rect class="cls-68" x="1060.9" y="166.76" width="8.46" height="15.69"/><rect class="cls-66" x="1017.07" y="162.38" width="3.2" height="24.66" rx="0.4"/><rect class="cls-66" x="1011.54" y="162.38" width="3.2" height="24.66" rx="0.4"/><rect class="cls-66" x="1075.29" y="162.38" width="3.2" height="24.66" rx="0.4"/><rect class="cls-66" x="1069.77" y="162.38" width="3.2" height="24.66" rx="0.4"/><text class="cls-69" transform="translate(1035.77 191.44) scale(0.9 1)">变频</text><path class="cls-35" d="M1045.28,152.29a9.53,9.53,0,1,0,9.57,9.53,9.54,9.54,0,0,0-9.57-9.53Zm0,17.56a8,8,0,1,1,8.07-8,8.07,8.07,0,0,1-8.07,8Zm3.83,3.85"/><path class="cls-35" d="M1040.29,160.61c-1.75.87-2.92,2.91-1.75,4.08,2,2,2.92-.88,4.39-1.75.9-.54,1.75-1.17,1.75-1.75s-2.63-1.46-4.39-.58Zm6.7,2.9c-.92-.51-1.89-.93-2.39-.64s0,3,1.68,4.08,4,1.06,4.43-.53c.75-2.79-2.22-2.09-3.72-2.91Zm-.75-1.3c.51.3,2.59-1.54,2.71-3.49s-1.07-4-2.67-3.55c-2.8.74-.71,3-.68,4.66,0,1,.14,2.09.64,2.38Zm0,0"/><path class="cls-36" d="M1044,329.37a9.12,9.12,0,1,0,9.17,9.12,9.14,9.14,0,0,0-9.17-9.12Zm0,16.81a7.7,7.7,0,1,1,7.73-7.69,7.71,7.71,0,0,1-7.73,7.69Zm3.67,3.68"/><path class="cls-36" d="M1039.26,337.33c-1.68.84-2.8,2.79-1.68,3.91,2,1.95,2.8-.84,4.2-1.68.87-.52,1.68-1.12,1.68-1.67s-2.52-1.4-4.2-.56Zm6.42,2.78c-.89-.49-1.82-.89-2.3-.62s0,2.87,1.61,3.91,3.83,1,4.24-.51c.72-2.66-2.13-2-3.55-2.78Zm-.72-1.24c.48.28,2.47-1.48,2.58-3.35s-1-3.8-2.55-3.4c-2.68.72-.68,2.84-.65,4.46,0,1,.13,2,.62,2.29Zm0,0"/><text class="cls-63" transform="translate(1031.92 228.31) scale(0.9 1)">SANLEY</text><ellipse class="cls-64" cx="1060.96" cy="259.33" rx="1.84" ry="1.79"/><circle class="cls-65" cx="1060.96" cy="259.33" r="1.6"/><circle class="cls-64" cx="1060.96" cy="259.33" r="1.25"/><circle class="cls-65" cx="1060.96" cy="259.33" r="0.89"/><ellipse class="cls-64" cx="1060.96" cy="265.35" rx="1.84" ry="1.79"/><circle class="cls-65" cx="1060.96" cy="265.35" r="1.6"/><circle class="cls-64" cx="1060.96" cy="265.35" r="1.25"/><circle class="cls-65" cx="1060.96" cy="265.35" r="0.89"/><rect class="cls-66" x="1024.14" y="234.38" width="40.12" height="50.77" rx="8.93"/><path class="cls-66" d="M1032,219h25.08a7.3,7.3,0,0,1,7.3,7.3v48.49a9.74,9.74,0,0,1-9.74,9.74h-21.25a9.74,9.74,0,0,1-9.74-9.74V227.39A8.36,8.36,0,0,1,1032,219Z"/><rect class="cls-66" x="1024.7" y="240.99" width="6.27" height="36.18"/><rect class="cls-66" x="1057.69" y="240.99" width="6.24" height="36.18"/><rect class="cls-67" x="1032.82" y="235.12" width="1.77" height="50.04"/><rect class="cls-67" x="1036.36" y="235.12" width="1.77" height="50.04"/><rect class="cls-67" x="1039.9" y="235.12" width="1.77" height="50.04"/><rect class="cls-67" x="1043.45" y="235.12" width="1.77" height="50.04"/><rect class="cls-67" x="1046.99" y="235.12" width="1.77" height="50.04"/><rect class="cls-67" x="1050.53" y="235.12" width="1.77" height="50.04"/><rect class="cls-67" x="1054.07" y="235.12" width="1.77" height="50.04"/><path class="cls-66" d="M1067.87,277h-2.78l-.83-.83V258.92l.83-.83h2.78l.83.83v17.23Z"/><rect class="cls-68" x="1025.68" y="285.16" width="36.36" height="8.27"/><rect class="cls-68" x="1032.52" y="285.16" width="4.13" height="8.27"/><rect class="cls-68" x="1052.6" y="285.16" width="4.13" height="8.27"/><rect class="cls-66" x="1016.23" y="294.01" width="55.5" height="2.95" rx="1.1"/><rect class="cls-66" x="1017.42" y="296.97" width="53.13" height="2.36" rx="1.1"/><rect class="cls-66" x="1023.02" y="299.62" width="41.92" height="2.95" rx="1.1"/><rect class="cls-66" x="1029.37" y="349.81" width="29.94" height="2.95" rx="1.1"/><rect class="cls-66" x="1027.16" y="373.42" width="33.65" height="2.95" rx="1.1"/><rect class="cls-68" x="1032.18" y="302.82" width="23.62" height="17.46"/><rect class="cls-68" x="1024.8" y="320.29" width="38.38" height="5.9" rx="1.1"/><rect class="cls-68" x="1029.45" y="326.19" width="29.1" height="23.62"/><rect class="cls-66" x="1029.53" y="352.76" width="29.63" height="20.66"/><rect class="cls-68" x="1032.47" y="326.19" width="23.03" height="23.62" rx="0.6"/><rect class="cls-68" x="1020.06" y="342.68" width="8.87" height="15.69"/><rect class="cls-68" x="1059.67" y="342.68" width="8.46" height="15.69"/><rect class="cls-66" x="1015.84" y="338.3" width="3.2" height="24.66" rx="0.4"/><rect class="cls-66" x="1010.32" y="338.3" width="3.2" height="24.66" rx="0.4"/><rect class="cls-66" x="1074.06" y="338.3" width="3.2" height="24.66" rx="0.4"/><rect class="cls-66" x="1068.54" y="338.3" width="3.2" height="24.66" rx="0.4"/><text class="cls-69" transform="translate(1034.54 367.35) scale(0.9 1)">变频</text><text class="cls-63" transform="translate(1033.37 473.81) scale(0.9 1)">SANLEY</text><ellipse class="cls-64" cx="1062.42" cy="504.83" rx="1.84" ry="1.79"/><circle class="cls-65" cx="1062.42" cy="504.83" r="1.6"/><circle class="cls-64" cx="1062.42" cy="504.83" r="1.25"/><circle class="cls-65" cx="1062.42" cy="504.83" r="0.89"/><ellipse class="cls-64" cx="1062.42" cy="510.86" rx="1.84" ry="1.79"/><circle class="cls-65" cx="1062.42" cy="510.86" r="1.6"/><circle class="cls-64" cx="1062.42" cy="510.86" r="1.25"/><circle class="cls-65" cx="1062.42" cy="510.86" r="0.89"/><rect class="cls-66" x="1025.59" y="479.89" width="40.12" height="50.77" rx="8.93"/><path class="cls-66" d="M1033.48,464.54h25.08a7.3,7.3,0,0,1,7.3,7.3v48.49a9.74,9.74,0,0,1-9.74,9.74h-21.25a9.74,9.74,0,0,1-9.74-9.74V472.9A8.36,8.36,0,0,1,1033.48,464.54Z"/><rect class="cls-66" x="1026.15" y="486.49" width="6.27" height="36.18"/><rect class="cls-66" x="1059.15" y="486.49" width="6.24" height="36.18"/><rect class="cls-67" x="1034.28" y="480.62" width="1.77" height="50.04"/><rect class="cls-67" x="1037.82" y="480.62" width="1.77" height="50.04"/><rect class="cls-67" x="1041.36" y="480.62" width="1.77" height="50.04"/><rect class="cls-67" x="1044.9" y="480.62" width="1.77" height="50.04"/><rect class="cls-67" x="1048.44" y="480.62" width="1.77" height="50.04"/><rect class="cls-67" x="1051.99" y="480.62" width="1.77" height="50.04"/><rect class="cls-67" x="1055.53" y="480.62" width="1.77" height="50.04"/><path class="cls-66" d="M1069.33,522.48h-2.79l-.83-.83V504.42l.83-.83h2.79l.83.83v17.23Z"/><rect class="cls-68" x="1027.14" y="530.66" width="36.36" height="8.27"/><rect class="cls-68" x="1033.98" y="530.66" width="4.13" height="8.27"/><rect class="cls-68" x="1054.05" y="530.66" width="4.13" height="8.27"/><rect class="cls-66" x="1017.69" y="539.52" width="55.5" height="2.95" rx="1.1"/><rect class="cls-66" x="1018.87" y="542.47" width="53.13" height="2.36" rx="1.1"/><rect class="cls-66" x="1024.48" y="545.12" width="41.92" height="2.95" rx="1.1"/><rect class="cls-66" x="1030.83" y="595.31" width="29.94" height="2.95" rx="1.1"/><rect class="cls-66" x="1028.61" y="618.92" width="33.65" height="2.95" rx="1.1"/><rect class="cls-68" x="1033.63" y="548.32" width="23.62" height="17.46"/><rect class="cls-68" x="1026.25" y="565.79" width="38.38" height="5.9" rx="1.1"/><rect class="cls-68" x="1030.91" y="571.69" width="29.1" height="23.62"/><rect class="cls-66" x="1030.98" y="598.26" width="29.63" height="20.66"/><rect class="cls-68" x="1033.93" y="571.69" width="23.03" height="23.62" rx="0.6"/><rect class="cls-68" x="1021.52" y="588.18" width="8.87" height="15.69"/><rect class="cls-68" x="1061.13" y="588.18" width="8.46" height="15.69"/><rect class="cls-66" x="1017.3" y="583.8" width="3.2" height="24.66" rx="0.4"/><rect class="cls-66" x="1011.77" y="583.8" width="3.2" height="24.66" rx="0.4"/><rect class="cls-66" x="1075.52" y="583.8" width="3.2" height="24.66" rx="0.4"/><rect class="cls-66" x="1069.99" y="583.8" width="3.2" height="24.66" rx="0.4"/><text class="cls-69" transform="translate(1036 612.85) scale(0.9 1)">变频</text><path class="cls-35" d="M1045.51,573.7a9.53,9.53,0,1,0,9.57,9.53,9.55,9.55,0,0,0-9.57-9.53Zm0,17.57a8,8,0,1,1,8.07-8,8.06,8.06,0,0,1-8.07,8Zm3.83,3.85"/><path class="cls-35" d="M1040.52,582c-1.75.87-2.92,2.91-1.75,4.08,2,2,2.92-.88,4.39-1.75.9-.54,1.75-1.17,1.75-1.75s-2.63-1.46-4.39-.58Zm6.7,2.9c-.92-.51-1.89-.93-2.4-.64s0,3,1.69,4.07,4,1.07,4.43-.52c.75-2.79-2.22-2.09-3.72-2.91Zm-.75-1.3c.51.29,2.59-1.54,2.71-3.49s-1.08-4-2.67-3.56c-2.8.75-.71,3-.68,4.66,0,1.06.14,2.1.64,2.39Zm0,0"/><path class="cls-36" d="M1044.26,757.79a9.12,9.12,0,1,0,9.16,9.12,9.14,9.14,0,0,0-9.16-9.12Zm0,16.81a7.7,7.7,0,1,1,7.73-7.69,7.71,7.71,0,0,1-7.73,7.69Zm3.67,3.68"/><path class="cls-36" d="M1039.49,765.75c-1.68.84-2.8,2.79-1.68,3.9,2,2,2.8-.83,4.2-1.67.87-.52,1.68-1.12,1.68-1.67s-2.52-1.4-4.2-.56Zm6.41,2.78c-.88-.49-1.81-.89-2.29-.62s.05,2.87,1.61,3.91,3.83,1,4.24-.51c.72-2.67-2.13-2-3.56-2.78Zm-.71-1.24c.48.28,2.47-1.48,2.58-3.35s-1-3.81-2.55-3.4c-2.68.72-.68,2.84-.65,4.46,0,1,.13,2,.62,2.29Zm0,0"/><text class="cls-63" transform="translate(1032.14 656.73) scale(0.9 1)">SANLEY</text><ellipse class="cls-64" cx="1061.19" cy="687.75" rx="1.84" ry="1.79"/><circle class="cls-65" cx="1061.19" cy="687.75" r="1.6"/><circle class="cls-64" cx="1061.19" cy="687.75" r="1.25"/><circle class="cls-65" cx="1061.19" cy="687.75" r="0.89"/><ellipse class="cls-64" cx="1061.19" cy="693.77" rx="1.84" ry="1.79"/><circle class="cls-65" cx="1061.19" cy="693.77" r="1.6"/><circle class="cls-64" cx="1061.19" cy="693.77" r="1.25"/><circle class="cls-65" cx="1061.19" cy="693.77" r="0.89"/><rect class="cls-66" x="1024.36" y="662.8" width="40.12" height="50.77" rx="8.93"/><path class="cls-66" d="M1032.26,647.45h25.08a7.3,7.3,0,0,1,7.3,7.3v48.49a9.74,9.74,0,0,1-9.74,9.74h-21.25a9.74,9.74,0,0,1-9.74-9.74V655.81A8.36,8.36,0,0,1,1032.26,647.45Z"/><rect class="cls-66" x="1024.92" y="669.41" width="6.27" height="36.18"/><rect class="cls-66" x="1057.92" y="669.41" width="6.24" height="36.18"/><rect class="cls-67" x="1033.05" y="663.54" width="1.77" height="50.04"/><rect class="cls-67" x="1036.59" y="663.54" width="1.77" height="50.04"/><rect class="cls-67" x="1040.13" y="663.54" width="1.77" height="50.04"/><rect class="cls-67" x="1043.68" y="663.54" width="1.77" height="50.04"/><rect class="cls-67" x="1047.22" y="663.54" width="1.77" height="50.04"/><rect class="cls-67" x="1050.76" y="663.54" width="1.77" height="50.04"/><rect class="cls-67" x="1054.3" y="663.54" width="1.77" height="50.04"/><path class="cls-66" d="M1068.1,705.4h-2.78l-.83-.83V687.34l.83-.83h2.78l.83.83v17.23Z"/><rect class="cls-68" x="1025.91" y="713.58" width="36.36" height="8.27"/><rect class="cls-68" x="1032.75" y="713.58" width="4.13" height="8.27"/><rect class="cls-68" x="1052.83" y="713.58" width="4.13" height="8.27"/><rect class="cls-66" x="1016.46" y="722.43" width="55.5" height="2.95" rx="1.1"/><rect class="cls-66" x="1017.64" y="725.38" width="53.13" height="2.36" rx="1.1"/><rect class="cls-66" x="1023.25" y="728.04" width="41.92" height="2.95" rx="1.1"/><rect class="cls-66" x="1029.6" y="778.22" width="29.94" height="2.95" rx="1.1"/><rect class="cls-66" x="1027.39" y="801.84" width="33.65" height="2.95" rx="1.1"/><rect class="cls-68" x="1032.4" y="731.24" width="23.62" height="17.46"/><rect class="cls-68" x="1025.02" y="748.71" width="38.38" height="5.9" rx="1.1"/><rect class="cls-68" x="1029.68" y="754.61" width="29.1" height="23.62"/><rect class="cls-66" x="1029.76" y="781.18" width="29.63" height="20.66"/><rect class="cls-68" x="1032.7" y="754.61" width="23.03" height="23.62" rx="0.6"/><rect class="cls-68" x="1020.29" y="771.1" width="8.87" height="15.69"/><rect class="cls-68" x="1059.9" y="771.1" width="8.46" height="15.69"/><rect class="cls-66" x="1016.07" y="766.72" width="3.2" height="24.66" rx="0.4"/><rect class="cls-66" x="1010.55" y="766.72" width="3.2" height="24.66" rx="0.4"/><rect class="cls-66" x="1074.29" y="766.72" width="3.2" height="24.66" rx="0.4"/><rect class="cls-66" x="1068.77" y="766.72" width="3.2" height="24.66" rx="0.4"/><text class="cls-69" transform="translate(1034.77 795.77) scale(0.9 1)">变频</text><path class="cls-37" d="M1042.49,931.1a9.53,9.53,0,1,0,9.57,9.53,9.55,9.55,0,0,0-9.57-9.53Zm0,17.57a8,8,0,1,1,8.07-8,8.06,8.06,0,0,1-8.07,8Zm3.83,3.84"/><path class="cls-37" d="M1037.5,939.43c-1.76.87-2.92,2.91-1.76,4.07,2,2,2.93-.87,4.39-1.74.91-.55,1.76-1.17,1.76-1.75s-2.63-1.46-4.39-.58Zm6.7,2.9c-.92-.51-1.89-.93-2.4-.64s0,3,1.69,4.07,4,1.07,4.43-.52c.75-2.79-2.23-2.09-3.72-2.91Zm-.75-1.3c.51.29,2.59-1.54,2.7-3.49s-1.07-4-2.67-3.56c-2.79.75-.7,3-.67,4.66,0,1.05.13,2.1.64,2.39Zm0,0"/><text class="cls-63" transform="translate(1030.35 831.21) scale(0.9 1)">SANLEY</text><ellipse class="cls-64" cx="1059.4" cy="862.23" rx="1.84" ry="1.79"/><circle class="cls-65" cx="1059.4" cy="862.23" r="1.6"/><circle class="cls-64" cx="1059.4" cy="862.23" r="1.25"/><circle class="cls-65" cx="1059.4" cy="862.23" r="0.89"/><ellipse class="cls-64" cx="1059.4" cy="868.26" rx="1.84" ry="1.79"/><circle class="cls-65" cx="1059.4" cy="868.26" r="1.6"/><circle class="cls-64" cx="1059.4" cy="868.26" r="1.25"/><circle class="cls-65" cx="1059.4" cy="868.26" r="0.89"/><rect class="cls-66" x="1022.57" y="837.29" width="40.12" height="50.77" rx="8.93"/><path class="cls-66" d="M1030.46,821.94h25.08a7.3,7.3,0,0,1,7.3,7.3v48.49a9.74,9.74,0,0,1-9.74,9.74h-21.25a9.74,9.74,0,0,1-9.74-9.74V830.29A8.36,8.36,0,0,1,1030.46,821.94Z"/><rect class="cls-66" x="1023.13" y="843.89" width="6.27" height="36.18"/><rect class="cls-66" x="1056.13" y="843.89" width="6.24" height="36.18"/><rect class="cls-67" x="1031.25" y="838.02" width="1.77" height="50.04"/><rect class="cls-67" x="1034.8" y="838.02" width="1.77" height="50.04"/><rect class="cls-67" x="1038.34" y="838.02" width="1.77" height="50.04"/><rect class="cls-67" x="1041.88" y="838.02" width="1.77" height="50.04"/><rect class="cls-67" x="1045.42" y="838.02" width="1.77" height="50.04"/><rect class="cls-67" x="1048.97" y="838.02" width="1.77" height="50.04"/><rect class="cls-67" x="1052.51" y="838.02" width="1.77" height="50.04"/><path class="cls-66" d="M1066.31,879.88h-2.79l-.83-.83V861.82l.83-.83h2.79l.83.83v17.23Z"/><rect class="cls-68" x="1024.12" y="888.06" width="36.36" height="8.27"/><rect class="cls-68" x="1030.96" y="888.06" width="4.13" height="8.27"/><rect class="cls-68" x="1051.03" y="888.06" width="4.13" height="8.27"/><rect class="cls-66" x="1014.67" y="896.91" width="55.5" height="2.95" rx="1.1"/><rect class="cls-66" x="1015.85" y="899.87" width="53.13" height="2.36" rx="1.1"/><rect class="cls-66" x="1021.46" y="902.52" width="41.92" height="2.95" rx="1.1"/><rect class="cls-66" x="1027.8" y="952.71" width="29.94" height="2.95" rx="1.1"/><rect class="cls-66" x="1025.59" y="976.32" width="33.65" height="2.95" rx="1.1"/><rect class="cls-68" x="1030.61" y="905.72" width="23.62" height="17.46"/><rect class="cls-68" x="1023.23" y="923.19" width="38.38" height="5.9" rx="1.1"/><rect class="cls-68" x="1027.89" y="929.09" width="29.1" height="23.62"/><rect class="cls-66" x="1027.96" y="955.66" width="29.63" height="20.66"/><rect class="cls-68" x="1030.91" y="929.09" width="23.03" height="23.62" rx="0.6"/><rect class="cls-68" x="1018.5" y="945.58" width="8.87" height="15.69"/><rect class="cls-68" x="1058.11" y="945.58" width="8.46" height="15.69"/><rect class="cls-66" x="1014.27" y="941.2" width="3.2" height="24.66" rx="0.4"/><rect class="cls-66" x="1008.75" y="941.2" width="3.2" height="24.66" rx="0.4"/><rect class="cls-66" x="1072.49" y="941.2" width="3.2" height="24.66" rx="0.4"/><rect class="cls-66" x="1066.97" y="941.2" width="3.2" height="24.66" rx="0.4"/><text class="cls-69" transform="translate(1032.98 970.25) scale(0.9 1)">变频</text></g><g id="图层_5" data-name="图层 5"><rect class="cls-6" x="1449.65" y="677.89" width="28.04" height="25.56" rx="2.35" transform="translate(2154.34 -773) rotate(90)"/><rect class="cls-4" x="1450.74" y="679.24" width="26.01" height="22.86" rx="1.91" transform="translate(2154.42 -773.07) rotate(90)"/><ellipse class="cls-70" cx="1454.67" cy="679.85" rx="0.86" ry="0.9"/><ellipse class="cls-70" cx="1454.67" cy="701.3" rx="0.86" ry="0.9"/><ellipse class="cls-70" cx="1473.02" cy="679.85" rx="0.86" ry="0.9"/><ellipse class="cls-70" cx="1473.02" cy="701.3" rx="0.86" ry="0.9"/><rect class="cls-71" x="1452.6" y="694.25" width="3.08" height="4.02" transform="translate(2150.41 -757.88) rotate(90)"/><rect class="cls-4" x="1443.8" y="689.66" width="11.14" height="1.06" transform="translate(2139.55 -759.18) rotate(90)"/><rect class="cls-72" x="1433.59" y="681.5" width="11.14" height="17.47" rx="0.25" transform="translate(2129.39 -748.92) rotate(90)"/><rect class="cls-27" x="1438.64" y="685.15" width="5.01" height="10.16" rx="0.15" transform="translate(2131.38 -750.92) rotate(90)"/><text class="cls-73" transform="translate(1471.51 686.12) rotate(90) scale(1.09 1)">压力开关</text><rect class="cls-27" x="1455.51" y="686.78" width="17.84" height="8.73" transform="translate(2155.58 -773.28) rotate(90)"/><text class="cls-74" transform="translate(1466.71 682.61) rotate(90) scale(1.09 1)">CSS</text><text class="cls-75" transform="translate(1464.3 683.49) rotate(90) scale(1.09 1)">asdsanmlopq<tspan class="cls-76" x="10.06" y="0">r</tspan><tspan x="10.75" y="0">st</tspan></text><text class="cls-75" transform="translate(1461.9 683.49) rotate(90) scale(1.09 1)">asdsanmlopq<tspan class="cls-76" x="10.06" y="0">r</tspan><tspan x="10.75" y="0">st</tspan></text></g></svg>