<?xml version="1.0" encoding="utf-8"?>
<!-- Generator: Adobe Illustrator 26.0.0, SVG Export Plug-In . SVG Version: 6.00 Build 0)  -->
<svg version="1.1" id="图层_1" xmlns="http://www.w3.org/2000/svg" xmlns:xlink="http://www.w3.org/1999/xlink" x="0px" y="0px"
	 viewBox="0 0 100 100" style="enable-background:new 0 0 100 100;" xml:space="preserve">
<style type="text/css">
	.st0{fill:#FFFFFF;stroke:#000000;stroke-width:5;stroke-miterlimit:10;}
</style>
<g>
	<path d="M50,6.14c24.19,0,43.86,19.68,43.86,43.86S74.19,93.86,50,93.86C25.81,93.86,6.14,74.19,6.14,50S25.81,6.14,50,6.14
		 M50,1.14C23.01,1.14,1.14,23.01,1.14,50c0,26.99,21.88,48.86,48.86,48.86S98.86,76.99,98.86,50C98.86,23.01,76.99,1.14,50,1.14
		L50,1.14z"/>
</g>
<path d="M55.66,13.7c6.51,2.07,8.79,8.83,9.09,9.76c2.32,7.24-1.31,13.68-3.02,15.47c-2.08,2.19-5.04,4.64-9.16,6.84
	c-0.75,0.4-1.64-0.2-1.56-1.04c1.08-12.33-4.48-16.35-7.33-18.47c-1-0.74-2.43-3.93-1.48-7.14c0.85-2.88,3.38-4.27,4.29-4.77
	C50.29,12.26,54.31,13.27,55.66,13.7z"/>
<path d="M77.82,72.4c-5.06,4.59-12.06,3.16-13,2.96c-7.43-1.63-11.17-8-11.87-10.38c-0.84-2.9-1.48-6.69-1.31-11.36
	c0.03-0.85,0.99-1.32,1.68-0.83c10.12,7.13,16.39,4.33,19.65,2.94c1.14-0.49,4.62-0.13,6.91,2.31c2.06,2.18,1.99,5.07,1.97,6.11
	C81.77,68.48,78.87,71.44,77.82,72.4z"/>
<path d="M15.81,62.38c-1.47-6.67,3.23-12.04,3.88-12.75c5.1-5.64,12.49-5.73,14.9-5.15c2.94,0.71,6.54,2.04,10.51,4.5
	c0.72,0.45,0.65,1.52-0.11,1.87c-11.21,5.24-11.89,12.07-12.3,15.61c-0.14,1.24-2.18,4.07-5.43,4.86c-2.92,0.7-5.39-0.78-6.28-1.32
	C17.25,67.75,16.11,63.76,15.81,62.38z"/>
</svg>
