<svg id="图层_1" data-name="图层 1" xmlns="http://www.w3.org/2000/svg" xmlns:xlink="http://www.w3.org/1999/xlink" viewBox="0 0 1920 1080"><defs><style>.cls-1,.cls-60{fill:#30719e;}.cls-1{stroke:#32597b;stroke-width:0.4px;}.cls-1,.cls-12,.cls-22,.cls-24,.cls-25,.cls-26,.cls-27,.cls-28,.cls-29,.cls-30,.cls-31,.cls-36,.cls-37,.cls-38,.cls-39,.cls-41,.cls-42,.cls-43,.cls-55,.cls-56,.cls-57,.cls-58,.cls-59,.cls-63,.cls-7,.cls-8{stroke-miterlimit:10;}.cls-2{fill:#06a8fa;}.cls-3,.cls-4{font-size:22px;}.cls-18,.cls-29,.cls-3,.cls-34,.cls-40,.cls-6{fill:#143a82;}.cls-18,.cls-3,.cls-34,.cls-35,.cls-4{font-family:PingFang-SC-Medium, PingFang SC;font-weight:500;}.cls-35,.cls-4{fill:#db4516;}.cls-5{fill:#df592f;}.cls-22,.cls-24,.cls-25,.cls-26,.cls-27,.cls-28,.cls-31,.cls-36,.cls-37,.cls-38,.cls-41,.cls-42,.cls-43,.cls-55,.cls-56,.cls-57,.cls-58,.cls-59,.cls-7,.cls-8{fill:none;}.cls-29,.cls-30,.cls-37,.cls-38,.cls-7{stroke:#143a82;}.cls-29,.cls-30,.cls-31,.cls-59,.cls-7{stroke-width:3px;}.cls-8{stroke:#10397a;}.cls-12,.cls-22,.cls-24,.cls-25,.cls-26,.cls-27,.cls-28,.cls-36,.cls-37,.cls-41,.cls-55,.cls-58,.cls-8{stroke-width:2px;}.cls-9{fill:#0e3773;}.cls-10{fill:#4676a5;}.cls-11{fill:#a1d5ff;}.cls-12,.cls-46,.cls-47,.cls-48,.cls-64{fill:#fff;}.cls-12,.cls-55,.cls-56,.cls-57,.cls-59{stroke:#01579b;}.cls-13{fill:#60c8fc;}.cls-14{fill:#327cc6;}.cls-15{fill:#0a98ef;}.cls-16,.cls-39{fill:#f2f2f2;}.cls-17{fill:#cee6f9;}.cls-18{font-size:14px;}.cls-19{fill:#07a307;}.cls-20{fill:#af0800;}.cls-21{fill:#474747;}.cls-22{stroke:url(#未命名的渐变_15);}.cls-23{fill:#12a31e;}.cls-24{stroke:url(#未命名的渐变_15-2);}.cls-25{stroke:url(#未命名的渐变_15-3);}.cls-26{stroke:url(#未命名的渐变_15-7);}.cls-27{stroke:url(#未命名的渐变_15-8);}.cls-28{stroke:url(#未命名的渐变_15-9);}.cls-30{fill:#e6e6e6;}.cls-31{stroke:#b3b3b3;}.cls-32{fill:#333f4f;}.cls-33{fill:#868686;}.cls-34,.cls-35{font-size:20.23px;}.cls-36{stroke:url(#未命名的渐变_15-13);}.cls-39,.cls-58{stroke:#333f4f;}.cls-40{font-size:2.93px;}.cls-40,.cls-52{font-family:Benmo-Chenhei, Benmo Chenhei;}.cls-41{stroke:url(#未命名的渐变_15-14);}.cls-42{stroke:#618cd1;}.cls-42,.cls-43{stroke-width:0.5px;}.cls-43{stroke:#fff;}.cls-44{fill:#10397a;}.cls-45{fill:#5276aa;}.cls-46,.cls-47{font-size:2.1px;letter-spacing:0.18em;}.cls-46{font-family:MicrosoftYaHei-Bold, Microsoft YaHei;font-weight:700;}.cls-47,.cls-48{font-family:MicrosoftYaHei, Microsoft YaHei;}.cls-48{font-size:1.38px;letter-spacing:0.18em;}.cls-49{letter-spacing:0.19em;}.cls-50{letter-spacing:0.18em;}.cls-51{fill:#0662b5;}.cls-52{font-size:7.04px;fill:#01579b;}.cls-53{fill:#2a5e96;}.cls-54{fill:#9ac0f7;}.cls-56{stroke-width:1.5px;}.cls-61{fill:#3b77ad;}.cls-62,.cls-63{fill:#6ab6ef;}.cls-63{stroke:#5282a2;stroke-width:0.7px;}</style><linearGradient id="未命名的渐变_15" x1="1176.33" y1="861.93" x2="1261.44" y2="861.93" gradientUnits="userSpaceOnUse"><stop offset="0" stop-color="#4f6c99"/><stop offset="0.16" stop-color="#526f9c"/><stop offset="0.29" stop-color="#5b78a6"/><stop offset="0.4" stop-color="#6c87b6"/><stop offset="0.5" stop-color="#829dcd"/><stop offset="0.59" stop-color="#9fb8ea"/><stop offset="0.62" stop-color="#a9c2f4"/><stop offset="1" stop-color="#718dbe"/></linearGradient><linearGradient id="未命名的渐变_15-2" x1="1084.72" y1="899.01" x2="1169.83" y2="899.01" xlink:href="#未命名的渐变_15"/><linearGradient id="未命名的渐变_15-3" x1="1084.72" y1="862.74" x2="1169.83" y2="862.74" xlink:href="#未命名的渐变_15"/><linearGradient id="未命名的渐变_15-7" x1="1084.72" y1="574.39" x2="1169.83" y2="574.39" xlink:href="#未命名的渐变_15"/><linearGradient id="未命名的渐变_15-8" x1="1176.33" y1="538.33" x2="1261.44" y2="538.33" xlink:href="#未命名的渐变_15"/><linearGradient id="未命名的渐变_15-9" x1="1084.72" y1="538.12" x2="1169.83" y2="538.12" xlink:href="#未命名的渐变_15"/><linearGradient id="未命名的渐变_15-13" x1="1541.54" y1="212.74" x2="1619.98" y2="212.74" xlink:href="#未命名的渐变_15"/><linearGradient id="未命名的渐变_15-14" x1="1461.08" y1="526.64" x2="1546.19" y2="526.64" xlink:href="#未命名的渐变_15"/></defs><title>单水箱 2泵 </title><rect class="cls-1" x="1209.12" y="329.57" width="10" height="28.43"/><rect class="cls-2" x="375.99" y="379.9" width="298.49" height="14" transform="translate(912.13 -138.33) rotate(90)"/><path class="cls-2" d="M509.27,231.45H213.09c-2.81,0-5.09-3.14-5.09-7h0c0-3.87,2.28-7,5.09-7H509.27c2.81,0,5.09,3.13,5.09,7h0C514.36,228.31,512.08,231.45,509.27,231.45Z"/><text class="cls-3" transform="translate(323.34 280.25)">进水阀门</text><text class="cls-4" transform="translate(193.78 198.56)">市政进水</text><polygon class="cls-5" points="551.38 351.69 551.38 383.17 551.38 389.19 543.19 385.72 552.96 408.87 562.73 385.72 554.55 389.19 554.55 383.17 554.55 351.69 551.38 351.69"/><polygon class="cls-5" points="202.91 271.47 234.39 271.47 240.41 271.47 236.94 279.66 260.08 269.89 236.94 260.12 240.41 268.3 234.39 268.3 202.91 268.3 202.91 271.47"/><polygon class="cls-5" points="510.29 792.34 541.77 792.34 547.79 792.34 544.32 800.52 567.46 790.75 544.32 780.98 547.79 789.16 541.77 789.16 510.29 789.16 510.29 792.34"/><path class="cls-2" d="M518.11,244.23l14.86.12a26.83,26.83,0,0,0-27.56-26.94v14.26a12.71,12.71,0,0,1,8.19,2.78A13.06,13.06,0,0,1,518.11,244.23Z"/><rect class="cls-2" x="501.91" y="216.13" width="3.8" height="16.56" transform="translate(1007.62 448.81) rotate(-180)"/><rect class="cls-2" x="523.56" y="237.27" width="3.8" height="16.56" transform="translate(771.01 -279.92) rotate(90)"/><rect class="cls-6" x="377.31" y="216.32" width="3.48" height="15.76"/><rect class="cls-6" x="382.08" y="216.32" width="3.48" height="15.76"/><rect class="cls-6" x="344.16" y="216.32" width="3.48" height="15.76"/><rect class="cls-6" x="348.92" y="216.32" width="3.48" height="15.76"/><circle class="cls-7" cx="364.52" cy="182.31" r="12.98"/><rect class="cls-6" x="358.26" y="171.62" width="1.83" height="10.15" rx="0.91" transform="translate(738.09 47.67) rotate(135)"/><rect class="cls-6" x="369.49" y="182.85" width="1.83" height="10.15" rx="0.91" transform="translate(765.2 58.9) rotate(135)"/><rect class="cls-6" x="361.62" y="166.4" width="6.59" height="3.25"/><polygon class="cls-6" points="363.76 203.74 362.22 204.2 358.65 198.09 360.2 197.62 363.76 203.74"/><polygon class="cls-6" points="366.84 203.74 368.39 204.2 371.56 198.12 370.41 197.62 366.84 203.74"/><rect class="cls-6" x="364.36" y="197.32" width="1.67" height="6.63" transform="translate(730.39 401.27) rotate(180)"/><rect class="cls-6" x="376.76" y="178.01" width="3.69" height="7.92"/><rect class="cls-6" x="358.17" y="195.49" width="13.63" height="3.72" rx="0.72"/><rect class="cls-6" x="362.12" y="205.31" width="6.45" height="7.65" rx="0.72"/><rect class="cls-6" x="358.43" y="202.83" width="13.73" height="1.57" rx="0.44"/><rect class="cls-6" x="358.43" y="204.53" width="13.73" height="1.57" rx="0.42"/><rect class="cls-6" x="348.14" y="182.79" width="3.03" height="3.14"/><rect class="cls-6" x="348.14" y="178.53" width="3.03" height="3.14"/><circle class="cls-8" cx="364.79" cy="182.32" r="3.33"/><circle class="cls-9" cx="364.83" cy="182.31" r="2.22"/><rect class="cls-6" x="369.49" y="171.62" width="1.83" height="10.15" rx="0.91" transform="translate(507.37 563.55) rotate(-135)"/><rect class="cls-6" x="358.26" y="182.85" width="1.83" height="10.15" rx="0.91" transform="translate(480.26 574.78) rotate(-135)"/><rect class="cls-6" x="358.33" y="209.09" width="13.48" height="24.85" rx="4.98"/><rect class="cls-6" x="370.58" y="207.6" width="3.31" height="27.82" rx="1.66"/><rect class="cls-6" x="356.32" y="207.6" width="3.31" height="27.82" rx="1.66"/><circle class="cls-10" cx="364.83" cy="182.31" r="1.33"/><circle class="cls-11" cx="364.83" cy="182.31" r="0.94"/><rect class="cls-2" x="375.99" y="379.9" width="298.49" height="14" transform="translate(912.13 -138.33) rotate(90)"/><path class="cls-2" d="M509.27,231.45H213.09c-2.81,0-5.09-3.14-5.09-7h0c0-3.87,2.28-7,5.09-7H509.27c2.81,0,5.09,3.13,5.09,7h0C514.36,228.31,512.08,231.45,509.27,231.45Z"/><text class="cls-3" transform="translate(323.34 280.25)">进水阀门</text><text class="cls-4" transform="translate(193.78 198.56)">市政进水</text><polygon class="cls-5" points="551.38 351.69 551.38 383.17 551.38 389.19 543.19 385.72 552.96 408.87 562.73 385.72 554.55 389.19 554.55 383.17 554.55 351.69 551.38 351.69"/><polygon class="cls-5" points="202.91 271.47 234.39 271.47 240.41 271.47 236.94 279.66 260.08 269.89 236.94 260.12 240.41 268.3 234.39 268.3 202.91 268.3 202.91 271.47"/><polygon class="cls-5" points="510.29 792.34 541.77 792.34 547.79 792.34 544.32 800.52 567.46 790.75 544.32 780.98 547.79 789.16 541.77 789.16 510.29 789.16 510.29 792.34"/><path class="cls-2" d="M518.11,244.23l14.86.12a26.83,26.83,0,0,0-27.56-26.94v14.26a12.71,12.71,0,0,1,8.19,2.78A13.06,13.06,0,0,1,518.11,244.23Z"/><rect class="cls-2" x="501.91" y="216.13" width="3.8" height="16.56" transform="translate(1007.62 448.81) rotate(-180)"/><rect class="cls-2" x="523.56" y="237.27" width="3.8" height="16.56" transform="translate(771.01 -279.92) rotate(90)"/><rect class="cls-6" x="377.31" y="216.32" width="3.48" height="15.76"/><rect class="cls-6" x="382.08" y="216.32" width="3.48" height="15.76"/><rect class="cls-6" x="344.16" y="216.32" width="3.48" height="15.76"/><rect class="cls-6" x="348.92" y="216.32" width="3.48" height="15.76"/><circle class="cls-7" cx="364.52" cy="182.31" r="12.98"/><rect class="cls-6" x="358.26" y="171.62" width="1.83" height="10.15" rx="0.91" transform="translate(738.09 47.67) rotate(135)"/><rect class="cls-6" x="369.49" y="182.85" width="1.83" height="10.15" rx="0.91" transform="translate(765.2 58.9) rotate(135)"/><rect class="cls-6" x="361.62" y="166.4" width="6.59" height="3.25"/><polygon class="cls-6" points="363.76 203.74 362.22 204.2 358.65 198.09 360.2 197.62 363.76 203.74"/><polygon class="cls-6" points="366.84 203.74 368.39 204.2 371.56 198.12 370.41 197.62 366.84 203.74"/><rect class="cls-6" x="364.36" y="197.32" width="1.67" height="6.63" transform="translate(730.39 401.27) rotate(180)"/><rect class="cls-6" x="376.76" y="178.01" width="3.69" height="7.92"/><rect class="cls-6" x="358.17" y="195.49" width="13.63" height="3.72" rx="0.72"/><rect class="cls-6" x="362.12" y="205.31" width="6.45" height="7.65" rx="0.72"/><rect class="cls-6" x="358.43" y="202.83" width="13.73" height="1.57" rx="0.44"/><rect class="cls-6" x="358.43" y="204.53" width="13.73" height="1.57" rx="0.42"/><rect class="cls-6" x="348.14" y="182.79" width="3.03" height="3.14"/><rect class="cls-6" x="348.14" y="178.53" width="3.03" height="3.14"/><circle class="cls-8" cx="364.79" cy="182.32" r="3.33"/><circle class="cls-9" cx="364.83" cy="182.31" r="2.22"/><rect class="cls-6" x="369.49" y="171.62" width="1.83" height="10.15" rx="0.91" transform="translate(507.37 563.55) rotate(-135)"/><rect class="cls-6" x="358.26" y="182.85" width="1.83" height="10.15" rx="0.91" transform="translate(480.26 574.78) rotate(-135)"/><rect class="cls-6" x="358.33" y="209.09" width="13.48" height="24.85" rx="4.98"/><rect class="cls-6" x="370.58" y="207.6" width="3.31" height="27.82" rx="1.66"/><rect class="cls-6" x="356.32" y="207.6" width="3.31" height="27.82" rx="1.66"/><circle class="cls-10" cx="364.83" cy="182.31" r="1.33"/><circle class="cls-11" cx="364.83" cy="182.31" r="0.94"/><rect class="cls-12" x="311.77" y="527" width="315.05" height="212"/><rect class="cls-13" x="313.09" y="578.65" width="312.86" height="158.9"/><rect class="cls-2" x="448" y="756.33" width="257.98" height="14"/><circle class="cls-14" cx="427" cy="714" r="10"/><ellipse class="cls-15" cx="427.25" cy="714.5" rx="8" ry="7.75"/><rect class="cls-2" x="405.23" y="723" width="44" height="14" rx="7" transform="translate(1157.23 302.77) rotate(90)"/><path class="cls-2" d="M435,743.57l-14.87-.12a26.83,26.83,0,0,0,27.57,26.94V756.13a12.64,12.64,0,0,1-8.19-2.78A13,13,0,0,1,435,743.57Z"/><rect class="cls-2" x="447.41" y="755.12" width="3.8" height="16.56"/><rect class="cls-2" x="425.76" y="733.98" width="3.8" height="16.56" transform="translate(-314.6 1169.92) rotate(-90)"/><rect class="cls-2" x="448" y="756.33" width="257.98" height="14"/><circle class="cls-14" cx="427" cy="714" r="10"/><ellipse class="cls-15" cx="427.25" cy="714.5" rx="8" ry="7.75"/><rect class="cls-2" x="405.23" y="723" width="44" height="14" rx="7" transform="translate(1157.23 302.77) rotate(90)"/><path class="cls-2" d="M435,743.57l-14.87-.12a26.83,26.83,0,0,0,27.57,26.94V756.13a12.64,12.64,0,0,1-8.19-2.78A13,13,0,0,1,435,743.57Z"/><rect class="cls-2" x="447.41" y="755.12" width="3.8" height="16.56"/><rect class="cls-2" x="425.76" y="733.98" width="3.8" height="16.56" transform="translate(-314.6 1169.92) rotate(-90)"/><path class="cls-2" d="M1221.41,336.69c-3.81,0-7.72,0-11.52,0,0,1.31.45,5.37,6.89,11.37a21.09,21.09,0,0,0,14.62,5.53v-11c-.81,0-4.47.75-7.05-1.37C1220.94,338.46,1221.41,337.46,1221.41,336.69Z"/><rect class="cls-2" x="1230.18" y="341.7" width="2.92" height="12.72"/><rect class="cls-2" x="1214.04" y="329.1" width="2.92" height="12.72" transform="translate(1550.97 -880.04) rotate(90)"/><rect class="cls-2" x="1212.76" y="319.98" width="3.8" height="16.56" transform="translate(886.4 1542.92) rotate(-90)"/><rect class="cls-16" x="1076.11" y="832.1" width="195.07" height="88.34"/><rect class="cls-2" x="563.33" y="773.91" width="283.82" height="14" transform="translate(1486.15 75.67) rotate(90)"/><rect class="cls-2" x="728" y="936.19" width="257" height="14"/><rect class="cls-6" x="1185.14" y="933.5" width="24.9" height="17.43"/><rect class="cls-17" x="1187.63" y="935.99" width="2.49" height="12.54"/><rect class="cls-17" x="1205.06" y="935.69" width="2.49" height="12.74"/><rect class="cls-17" x="1197.22" y="932.09" width="0.74" height="20.08" transform="translate(1181.45 2465.8) rotate(-127.58)"/><polygon class="cls-6" points="1185.74 929.59 1213.45 929.59 1199.6 924.29 1199.6 924.29 1199.6 926.94 1185.74 926.94 1185.74 929.59"/><text class="cls-3" transform="translate(932.92 926.94)">2#泵</text><rect class="cls-16" x="1488.72" y="839.09" width="186" height="113.65"/><text class="cls-18" transform="translate(1503.07 870.4)">状态说明 </text><text class="cls-18" transform="translate(1603.08 870.4)">运行状态 </text><text class="cls-18" transform="translate(1603.08 897.94)">停止状态 </text><text class="cls-18" transform="translate(1603.08 924.91)">故障状态 </text><path class="cls-19" d="M1581.81,857.77a7.16,7.16,0,1,0,7.16,7.16,7.17,7.17,0,0,0-7.16-7.16Zm0,13.2a6,6,0,1,1,6-6,6,6,0,0,1-6,6Zm2.87,2.89"/><path class="cls-19" d="M1578.08,864c-1.31.65-2.19,2.19-1.31,3.06,1.53,1.54,2.19-.66,3.28-1.31.68-.41,1.32-.88,1.32-1.32s-2-1.09-3.29-.43Zm5,2.18c-.69-.39-1.41-.7-1.79-.48s0,2.25,1.26,3.06,3,.8,3.31-.4c.56-2.09-1.66-1.56-2.78-2.18Zm-.56-1c.38.22,1.94-1.16,2-2.62s-.81-3-2-2.67c-2.1.56-.53,2.22-.51,3.5,0,.79.1,1.57.48,1.79Zm0,0"/><path class="cls-20" d="M1581.81,884.74a7.16,7.16,0,1,0,7.16,7.16,7.17,7.17,0,0,0-7.16-7.16Zm0,13.2a6,6,0,1,1,6-6,6,6,0,0,1-6,6Zm2.87,2.89"/><path class="cls-20" d="M1578.08,891c-1.31.66-2.19,2.19-1.31,3.07,1.53,1.53,2.19-.66,3.28-1.32.68-.4,1.32-.87,1.32-1.31s-2-1.09-3.29-.44Zm5,2.18c-.69-.38-1.41-.69-1.79-.48s0,2.26,1.26,3.07,3,.8,3.31-.4c.56-2.09-1.66-1.57-2.78-2.19Zm-.56-1c.38.22,1.94-1.16,2-2.62s-.81-3-2-2.68c-2.1.57-.53,2.23-.51,3.51,0,.79.1,1.57.48,1.79Zm0,0"/><path class="cls-21" d="M1581.81,911.71a7.16,7.16,0,1,0,7.16,7.16,7.16,7.16,0,0,0-7.16-7.16Zm0,13.2a6,6,0,1,1,6-6,6,6,0,0,1-6,6Zm2.87,2.89"/><path class="cls-21" d="M1578.08,918c-1.31.66-2.19,2.19-1.31,3.07,1.53,1.53,2.19-.66,3.28-1.32.68-.4,1.32-.87,1.32-1.31s-2-1.1-3.29-.44Zm5,2.18c-.69-.38-1.41-.7-1.79-.48s0,2.25,1.26,3.06,3,.81,3.31-.39c.56-2.1-1.66-1.57-2.78-2.19Zm-.56-1c.38.22,1.94-1.16,2-2.63s-.81-3-2-2.67c-2.1.56-.53,2.23-.51,3.5,0,.79.1,1.58.48,1.8Zm0,0"/><rect class="cls-22" x="1177.33" y="846.83" width="83.11" height="30.2"/><path class="cls-23" d="M1189.49,870.36a4.43,4.43,0,0,1-1.11-3.22v-8.67a4.38,4.38,0,0,1,1.12-3.22,5.1,5.1,0,0,1,6.43,0,4.37,4.37,0,0,1,1.12,3.22v8.67a4.41,4.41,0,0,1-1.12,3.23,5.1,5.1,0,0,1-6.44,0Zm5-1.38a2.69,2.69,0,0,0,.58-1.84v-8.67a2.64,2.64,0,0,0-.59-1.84,2.68,2.68,0,0,0-3.5,0,2.69,2.69,0,0,0-.58,1.84v8.67A2.69,2.69,0,0,0,1191,869a2.73,2.73,0,0,0,3.51,0Z"/><path class="cls-23" d="M1199.13,869.33h2v2h-2Z"/><path class="cls-23" d="M1204.32,870.36a4.44,4.44,0,0,1-1.12-3.22v-8.67a4.42,4.42,0,0,1,1.12-3.22,5.12,5.12,0,0,1,6.44,0,4.41,4.41,0,0,1,1.12,3.22v8.67a4.45,4.45,0,0,1-1.12,3.23,4.32,4.32,0,0,1-3.22,1.14A4.25,4.25,0,0,1,1204.32,870.36Zm5-1.38a2.64,2.64,0,0,0,.58-1.84v-8.67a2.64,2.64,0,0,0-.58-1.84,2.26,2.26,0,0,0-1.75-.65,2.23,2.23,0,0,0-1.75.65,2.64,2.64,0,0,0-.58,1.84v8.67a2.64,2.64,0,0,0,.58,1.84,2.71,2.71,0,0,0,3.5,0Z"/><path class="cls-6" d="M1239.44,853.79h1.83v6.58h5.88v-6.58H1249v15.75h-1.84v-7.39h-5.88v7.39h-1.83Z"/><rect class="cls-24" x="1085.72" y="883.91" width="83.11" height="30.2"/><path class="cls-23" d="M1097.88,907.44a4.43,4.43,0,0,1-1.11-3.22v-8.67a4.4,4.4,0,0,1,1.12-3.22,5.1,5.1,0,0,1,6.43,0,4.37,4.37,0,0,1,1.12,3.22v8.67a4.41,4.41,0,0,1-1.12,3.23,5.1,5.1,0,0,1-6.44,0Zm5-1.38a2.69,2.69,0,0,0,.58-1.84v-8.67a2.64,2.64,0,0,0-.59-1.84,2.68,2.68,0,0,0-3.5,0,2.69,2.69,0,0,0-.58,1.84v8.67a2.69,2.69,0,0,0,.58,1.84,2.73,2.73,0,0,0,3.51,0Z"/><path class="cls-23" d="M1107.51,906.41h2v2h-2Z"/><path class="cls-23" d="M1112.71,907.44a4.4,4.4,0,0,1-1.12-3.22v-8.67a4.44,4.44,0,0,1,1.12-3.22,5.12,5.12,0,0,1,6.44,0,4.4,4.4,0,0,1,1.11,3.22v8.67a4.44,4.44,0,0,1-1.11,3.23,4.32,4.32,0,0,1-3.22,1.14A4.25,4.25,0,0,1,1112.71,907.44Zm5-1.38a2.64,2.64,0,0,0,.58-1.84v-8.67a2.59,2.59,0,0,0-.59-1.84,2.67,2.67,0,0,0-3.49,0,2.64,2.64,0,0,0-.58,1.84v8.67a2.64,2.64,0,0,0,.58,1.84,2.71,2.71,0,0,0,3.5,0Z"/><path class="cls-6" d="M1135.83,891.88h1.84v6.57h5.88v-6.57h1.83v15.74h-1.83v-7.39h-5.88v7.39h-1.84Z"/><path class="cls-6" d="M1148.62,906.56l7.17-9h-6.37V896h8.95v1l-7.18,9h7.37v1.63h-9.94Z"/><rect class="cls-25" x="1085.72" y="847.63" width="83.11" height="30.2"/><path class="cls-23" d="M1097.88,871.17a4.45,4.45,0,0,1-1.11-3.22v-8.68a4.37,4.37,0,0,1,1.12-3.21,4.26,4.26,0,0,1,3.21-1.15,4.3,4.3,0,0,1,3.22,1.14,4.38,4.38,0,0,1,1.12,3.22V868a4.38,4.38,0,0,1-1.12,3.22,5.08,5.08,0,0,1-6.44,0Zm5-1.38a2.7,2.7,0,0,0,.58-1.84v-8.68a2.66,2.66,0,0,0-.59-1.84,2.71,2.71,0,0,0-3.5,0,2.7,2.7,0,0,0-.58,1.84V868a2.7,2.7,0,0,0,.58,1.84,2.73,2.73,0,0,0,3.51,0Z"/><path class="cls-23" d="M1107.51,870.14h2v2h-2Z"/><path class="cls-23" d="M1112.71,871.17a4.41,4.41,0,0,1-1.12-3.22v-8.68a4.41,4.41,0,0,1,1.12-3.21,5.1,5.1,0,0,1,6.44,0,4.42,4.42,0,0,1,1.11,3.22V868a4.42,4.42,0,0,1-1.11,3.22,5.08,5.08,0,0,1-6.44,0Zm5-1.38a2.66,2.66,0,0,0,.58-1.84v-8.68a2.61,2.61,0,0,0-.59-1.84,2.7,2.7,0,0,0-3.49,0,2.66,2.66,0,0,0-.58,1.84V868a2.66,2.66,0,0,0,.58,1.84,2.71,2.71,0,0,0,3.5,0Z"/><path class="cls-6" d="M1140.18,855.6h2.3l5.3,15.75h-2.16l-2.71-8.79c-.55-1.75-1.08-3.48-1.56-5.3h-.09c-.51,1.82-1,3.55-1.56,5.3l-2.76,8.79h-2.07Zm-2.5,9.34h7.22v1.63h-7.22Z"/><polygon class="cls-5" points="788.59 980.6 820.07 980.6 826.09 980.6 822.62 988.78 845.77 979.01 822.62 969.24 826.09 977.42 820.07 977.42 788.59 977.42 788.59 980.6"/><polygon class="cls-5" points="1361.27 980.6 1392.76 980.6 1398.78 980.6 1395.3 988.78 1418.45 979.01 1395.3 969.24 1398.78 977.42 1392.76 977.42 1361.27 977.42 1361.27 980.6"/><path class="cls-2" d="M712,923.75l-14.86-.12a26.83,26.83,0,0,0,27.56,26.94V936.31a12.67,12.67,0,0,1-8.19-2.79A13,13,0,0,1,712,923.75Z"/><rect class="cls-2" x="724.35" y="935.3" width="3.8" height="16.56"/><rect class="cls-2" x="702.7" y="914.16" width="3.8" height="16.56" transform="translate(-217.83 1627.03) rotate(-90)"/><path class="cls-2" d="M1428.48,936.48q-.07,7.44-.13,14.86a26.81,26.81,0,0,0,26.94-27.56H1441a12.64,12.64,0,0,1-2.78,8.19A13,13,0,0,1,1428.48,936.48Z"/><rect class="cls-2" x="1446.4" y="913.9" width="3.8" height="16.56" transform="translate(526.12 2370.48) rotate(-90)"/><rect class="cls-2" x="1425.26" y="935.55" width="3.8" height="16.56" transform="translate(2854.32 1887.66) rotate(-180)"/><rect class="cls-6" x="888.96" y="935.53" width="3.48" height="15.76"/><rect class="cls-6" x="893.72" y="935.53" width="3.48" height="15.76"/><rect class="cls-6" x="855.81" y="935.53" width="3.48" height="15.76"/><rect class="cls-6" x="860.57" y="935.53" width="3.48" height="15.76"/><circle class="cls-7" cx="876.16" cy="901.52" r="12.98"/><rect class="cls-6" x="869.91" y="890.83" width="1.83" height="10.15" rx="0.91" transform="translate(2120.08 913.64) rotate(135)"/><rect class="cls-6" x="881.13" y="902.06" width="1.83" height="10.15" rx="0.91" transform="translate(2147.19 924.87) rotate(135)"/><rect class="cls-6" x="873.27" y="885.6" width="6.59" height="3.25"/><polygon class="cls-6" points="875.41 922.94 873.87 923.41 870.3 917.29 871.85 916.83 875.41 922.94"/><polygon class="cls-6" points="878.49 922.94 880.03 923.41 883.21 917.33 882.06 916.83 878.49 922.94"/><rect class="cls-6" x="876.01" y="916.52" width="1.67" height="6.63" transform="translate(1753.69 1839.68) rotate(180)"/><rect class="cls-6" x="888.41" y="897.22" width="3.69" height="7.92"/><rect class="cls-6" x="869.82" y="914.7" width="13.63" height="3.72" rx="0.72"/><rect class="cls-6" x="873.76" y="924.52" width="6.45" height="7.65" rx="0.72"/><rect class="cls-6" x="870.07" y="922.04" width="13.73" height="1.57" rx="0.44"/><rect class="cls-6" x="870.07" y="923.73" width="13.73" height="1.57" rx="0.42"/><rect class="cls-6" x="859.78" y="902" width="3.03" height="3.14"/><rect class="cls-6" x="859.78" y="897.73" width="3.03" height="3.14"/><circle class="cls-8" cx="876.44" cy="901.53" r="3.33"/><circle class="cls-9" cx="876.48" cy="901.52" r="2.22"/><rect class="cls-6" x="881.13" y="890.83" width="1.83" height="10.15" rx="0.91" transform="translate(872.25 2153.11) rotate(-135)"/><rect class="cls-6" x="869.91" y="902.06" width="1.83" height="10.15" rx="0.91" transform="translate(845.14 2164.34) rotate(-135)"/><rect class="cls-6" x="869.98" y="928.3" width="13.48" height="24.85" rx="4.98"/><rect class="cls-6" x="882.23" y="926.8" width="3.31" height="27.82" rx="1.66"/><rect class="cls-6" x="867.97" y="926.8" width="3.31" height="27.82" rx="1.66"/><circle class="cls-10" cx="876.48" cy="901.52" r="1.33"/><circle class="cls-11" cx="876.48" cy="901.52" r="0.94"/><rect class="cls-6" x="1317.87" y="935.53" width="3.48" height="15.76"/><rect class="cls-6" x="1322.63" y="935.53" width="3.48" height="15.76"/><rect class="cls-6" x="1284.72" y="935.53" width="3.48" height="15.76"/><rect class="cls-6" x="1289.48" y="935.53" width="3.48" height="15.76"/><circle class="cls-7" cx="1305.07" cy="901.52" r="12.98"/><rect class="cls-6" x="1298.82" y="890.83" width="1.83" height="10.15" rx="0.91" transform="translate(2852.28 610.36) rotate(135)"/><rect class="cls-6" x="1310.04" y="902.06" width="1.83" height="10.15" rx="0.91" transform="translate(2879.38 621.58) rotate(135)"/><rect class="cls-6" x="1302.18" y="885.6" width="6.59" height="3.25"/><polygon class="cls-6" points="1304.32 922.94 1302.78 923.41 1299.21 917.29 1300.76 916.83 1304.32 922.94"/><polygon class="cls-6" points="1307.4 922.94 1308.95 923.41 1312.12 917.33 1310.97 916.83 1307.4 922.94"/><rect class="cls-6" x="1304.92" y="916.52" width="1.67" height="6.63" transform="translate(2611.51 1839.68) rotate(180)"/><rect class="cls-6" x="1317.32" y="897.22" width="3.69" height="7.92"/><rect class="cls-6" x="1298.73" y="914.7" width="13.63" height="3.72" rx="0.72"/><rect class="cls-6" x="1302.67" y="924.52" width="6.45" height="7.65" rx="0.72"/><rect class="cls-6" x="1298.98" y="922.04" width="13.73" height="1.57" rx="0.44"/><rect class="cls-6" x="1298.98" y="923.73" width="13.73" height="1.57" rx="0.42"/><rect class="cls-6" x="1288.69" y="902" width="3.03" height="3.14"/><rect class="cls-6" x="1288.69" y="897.73" width="3.03" height="3.14"/><circle class="cls-8" cx="1305.35" cy="901.53" r="3.33"/><circle class="cls-9" cx="1305.39" cy="901.52" r="2.22"/><rect class="cls-6" x="1310.04" y="890.83" width="1.83" height="10.15" rx="0.91" transform="translate(1604.44 2456.4) rotate(-135)"/><rect class="cls-6" x="1298.82" y="902.06" width="1.83" height="10.15" rx="0.91" transform="translate(1577.34 2467.62) rotate(-135)"/><rect class="cls-6" x="1298.89" y="928.3" width="13.48" height="24.85" rx="4.98"/><rect class="cls-6" x="1311.14" y="926.8" width="3.31" height="27.82" rx="1.66"/><rect class="cls-6" x="1296.88" y="926.8" width="3.31" height="27.82" rx="1.66"/><circle class="cls-10" cx="1305.39" cy="901.52" r="1.33"/><circle class="cls-11" cx="1305.39" cy="901.52" r="0.94"/><rect class="cls-16" x="1076.11" y="832.1" width="195.07" height="88.34"/><rect class="cls-2" x="568.83" y="779.41" width="272.82" height="14" transform="translate(1491.65 81.17) rotate(90)"/><rect class="cls-2" x="1074" y="936.19" width="355" height="14"/><rect class="cls-6" x="1185.14" y="933.5" width="24.9" height="17.43"/><rect class="cls-17" x="1187.63" y="935.99" width="2.49" height="12.54"/><rect class="cls-17" x="1205.06" y="935.69" width="2.49" height="12.74"/><rect class="cls-17" x="1197.22" y="932.09" width="0.74" height="20.08" transform="translate(1181.45 2465.8) rotate(-127.58)"/><polygon class="cls-6" points="1185.74 929.59 1213.45 929.59 1199.6 924.29 1199.6 924.29 1199.6 926.94 1185.74 926.94 1185.74 929.59"/><text class="cls-3" transform="translate(932.92 926.94)">2#泵</text><rect class="cls-16" x="1488.72" y="839.09" width="186" height="113.65"/><text class="cls-18" transform="translate(1503.07 870.4)">状态说明 </text><text class="cls-18" transform="translate(1603.08 870.4)">运行状态 </text><text class="cls-18" transform="translate(1603.08 897.94)">停止状态 </text><text class="cls-18" transform="translate(1603.08 924.91)">故障状态 </text><path class="cls-19" d="M1581.81,857.77a7.16,7.16,0,1,0,7.16,7.16,7.17,7.17,0,0,0-7.16-7.16Zm0,13.2a6,6,0,1,1,6-6,6,6,0,0,1-6,6Zm2.87,2.89"/><path class="cls-19" d="M1578.08,864c-1.31.65-2.19,2.19-1.31,3.06,1.53,1.54,2.19-.66,3.28-1.31.68-.41,1.32-.88,1.32-1.32s-2-1.09-3.29-.43Zm5,2.18c-.69-.39-1.41-.7-1.79-.48s0,2.25,1.26,3.06,3,.8,3.31-.4c.56-2.09-1.66-1.56-2.78-2.18Zm-.56-1c.38.22,1.94-1.16,2-2.62s-.81-3-2-2.67c-2.1.56-.53,2.22-.51,3.5,0,.79.1,1.57.48,1.79Zm0,0"/><path class="cls-20" d="M1581.81,884.74a7.16,7.16,0,1,0,7.16,7.16,7.17,7.17,0,0,0-7.16-7.16Zm0,13.2a6,6,0,1,1,6-6,6,6,0,0,1-6,6Zm2.87,2.89"/><path class="cls-20" d="M1578.08,891c-1.31.66-2.19,2.19-1.31,3.07,1.53,1.53,2.19-.66,3.28-1.32.68-.4,1.32-.87,1.32-1.31s-2-1.09-3.29-.44Zm5,2.18c-.69-.38-1.41-.69-1.79-.48s0,2.26,1.26,3.07,3,.8,3.31-.4c.56-2.09-1.66-1.57-2.78-2.19Zm-.56-1c.38.22,1.94-1.16,2-2.62s-.81-3-2-2.68c-2.1.57-.53,2.23-.51,3.51,0,.79.1,1.57.48,1.79Zm0,0"/><path class="cls-21" d="M1581.81,911.71a7.16,7.16,0,1,0,7.16,7.16,7.16,7.16,0,0,0-7.16-7.16Zm0,13.2a6,6,0,1,1,6-6,6,6,0,0,1-6,6Zm2.87,2.89"/><path class="cls-21" d="M1578.08,918c-1.31.66-2.19,2.19-1.31,3.07,1.53,1.53,2.19-.66,3.28-1.32.68-.4,1.32-.87,1.32-1.31s-2-1.1-3.29-.44Zm5,2.18c-.69-.38-1.41-.7-1.79-.48s0,2.25,1.26,3.06,3,.81,3.31-.39c.56-2.1-1.66-1.57-2.78-2.19Zm-.56-1c.38.22,1.94-1.16,2-2.63s-.81-3-2-2.67c-2.1.56-.53,2.23-.51,3.5,0,.79.1,1.58.48,1.8Zm0,0"/><rect class="cls-22" x="1177.33" y="846.83" width="83.11" height="30.2"/><rect class="cls-24" x="1085.72" y="883.91" width="83.11" height="30.2"/><rect class="cls-25" x="1085.72" y="847.63" width="83.11" height="30.2"/><polygon class="cls-5" points="788.59 980.6 820.07 980.6 826.09 980.6 822.62 988.78 845.77 979.01 822.62 969.24 826.09 977.42 820.07 977.42 788.59 977.42 788.59 980.6"/><polygon class="cls-5" points="1361.27 980.6 1392.76 980.6 1398.78 980.6 1395.3 988.78 1418.45 979.01 1395.3 969.24 1398.78 977.42 1392.76 977.42 1361.27 977.42 1361.27 980.6"/><rect class="cls-2" x="722.16" y="612.29" width="263.85" height="14"/><rect class="cls-2" x="722" y="612.29" width="264.01" height="14"/><rect class="cls-2" x="1076.04" y="614.23" width="369.67" height="14"/><rect class="cls-6" x="1175.14" y="612.18" width="24.9" height="17.43"/><rect class="cls-17" x="1177.63" y="614.67" width="2.49" height="12.54"/><rect class="cls-17" x="1195.06" y="614.38" width="2.49" height="12.74"/><rect class="cls-17" x="1187.22" y="610.77" width="0.74" height="20.08" transform="translate(1419.97 1940.58) rotate(-127.58)"/><polygon class="cls-6" points="1175.74 608.28 1203.45 608.28 1189.6 602.98 1189.6 602.98 1189.6 605.63 1175.74 605.63 1175.74 608.28"/><text class="cls-3" transform="translate(922.92 602.14)">1#泵</text><rect class="cls-16" x="1076.11" y="507.48" width="195.07" height="88.34"/><rect class="cls-26" x="1085.72" y="559.29" width="83.11" height="30.2"/><path class="cls-23" d="M1097.88,582.82a4.43,4.43,0,0,1-1.11-3.22v-8.67a4.38,4.38,0,0,1,1.12-3.22,5.1,5.1,0,0,1,6.43,0,4.37,4.37,0,0,1,1.12,3.22v8.67a4.41,4.41,0,0,1-1.12,3.23,5.1,5.1,0,0,1-6.44,0Zm5-1.38a2.69,2.69,0,0,0,.58-1.84v-8.67a2.64,2.64,0,0,0-.59-1.84,2.68,2.68,0,0,0-3.5,0,2.69,2.69,0,0,0-.58,1.84v8.67a2.69,2.69,0,0,0,.58,1.84,2.73,2.73,0,0,0,3.51,0Z"/><path class="cls-23" d="M1107.51,581.79h2v2h-2Z"/><path class="cls-23" d="M1112.71,582.82a4.4,4.4,0,0,1-1.12-3.22v-8.67a4.42,4.42,0,0,1,1.12-3.22,5.12,5.12,0,0,1,6.44,0,4.4,4.4,0,0,1,1.11,3.22v8.67a4.44,4.44,0,0,1-1.11,3.23,4.32,4.32,0,0,1-3.22,1.14A4.25,4.25,0,0,1,1112.71,582.82Zm5-1.38a2.64,2.64,0,0,0,.58-1.84v-8.67a2.59,2.59,0,0,0-.59-1.84,2.67,2.67,0,0,0-3.49,0,2.64,2.64,0,0,0-.58,1.84v8.67a2.64,2.64,0,0,0,.58,1.84,2.71,2.71,0,0,0,3.5,0Z"/><path class="cls-6" d="M1135.83,567.25h1.84v6.58h5.88v-6.58h1.83V583h-1.83v-7.39h-5.88V583h-1.84Z"/><path class="cls-6" d="M1148.62,581.94l7.17-9h-6.37v-1.61h8.95v1.06l-7.18,9h7.37V583h-9.94Z"/><rect class="cls-27" x="1177.33" y="523.23" width="83.11" height="30.2"/><path class="cls-23" d="M1189.49,546.76a4.45,4.45,0,0,1-1.11-3.22v-8.67a4.38,4.38,0,0,1,1.12-3.22,5.12,5.12,0,0,1,6.43,0,4.39,4.39,0,0,1,1.12,3.23v8.67a4.42,4.42,0,0,1-1.12,3.23,5.1,5.1,0,0,1-6.44,0Zm5-1.38a2.7,2.7,0,0,0,.58-1.84v-8.67a2.64,2.64,0,0,0-.59-1.84,2.68,2.68,0,0,0-3.5,0,2.69,2.69,0,0,0-.58,1.84v8.67a2.7,2.7,0,0,0,.58,1.84,2.73,2.73,0,0,0,3.51,0Z"/><path class="cls-23" d="M1199.13,545.73h2v2h-2Z"/><path class="cls-23" d="M1204.32,546.76a4.46,4.46,0,0,1-1.12-3.22v-8.67a4.42,4.42,0,0,1,1.12-3.22,5.14,5.14,0,0,1,6.44,0,4.43,4.43,0,0,1,1.12,3.23v8.67a4.46,4.46,0,0,1-1.12,3.23,4.32,4.32,0,0,1-3.22,1.14A4.25,4.25,0,0,1,1204.32,546.76Zm5-1.38a2.66,2.66,0,0,0,.58-1.84v-8.67a2.64,2.64,0,0,0-.58-1.84,2.26,2.26,0,0,0-1.75-.65,2.23,2.23,0,0,0-1.75.65,2.64,2.64,0,0,0-.58,1.84v8.67a2.66,2.66,0,0,0,.58,1.84,2.71,2.71,0,0,0,3.5,0Z"/><path class="cls-6" d="M1240.45,531.19h1.83v6.58h5.88v-6.58H1250v15.75h-1.84v-7.4h-5.88v7.4h-1.83Z"/><rect class="cls-28" x="1085.72" y="523.01" width="83.11" height="30.2"/><path class="cls-23" d="M1097.88,546.55a4.45,4.45,0,0,1-1.11-3.22v-8.68a4.37,4.37,0,0,1,1.12-3.21,4.26,4.26,0,0,1,3.21-1.15,4.3,4.3,0,0,1,3.22,1.14,4.38,4.38,0,0,1,1.12,3.22v8.68a4.38,4.38,0,0,1-1.12,3.22,5.08,5.08,0,0,1-6.44,0Zm5-1.38a2.7,2.7,0,0,0,.58-1.84v-8.68a2.66,2.66,0,0,0-.59-1.84,2.71,2.71,0,0,0-3.5,0,2.7,2.7,0,0,0-.58,1.84v8.68a2.7,2.7,0,0,0,.58,1.84,2.73,2.73,0,0,0,3.51,0Z"/><path class="cls-23" d="M1107.51,545.52h2v2h-2Z"/><path class="cls-23" d="M1112.71,546.55a4.41,4.41,0,0,1-1.12-3.22v-8.68a4.41,4.41,0,0,1,1.12-3.21,5.1,5.1,0,0,1,6.44,0,4.42,4.42,0,0,1,1.11,3.22v8.68a4.42,4.42,0,0,1-1.11,3.22,5.08,5.08,0,0,1-6.44,0Zm5-1.38a2.66,2.66,0,0,0,.58-1.84v-8.68a2.61,2.61,0,0,0-.59-1.84,2.7,2.7,0,0,0-3.49,0,2.66,2.66,0,0,0-.58,1.84v8.68a2.66,2.66,0,0,0,.58,1.84,2.71,2.71,0,0,0,3.5,0Z"/><path class="cls-6" d="M1140.18,531h2.3l5.3,15.75h-2.16l-2.71-8.79c-.55-1.75-1.08-3.48-1.56-5.3h-.09c-.51,1.82-1,3.55-1.56,5.3l-2.76,8.79h-2.07Zm-2.5,9.34h7.22V542h-7.22Z"/><polygon class="cls-5" points="778.59 646.42 810.07 646.42 816.09 646.42 812.62 654.61 835.77 644.84 812.62 635.07 816.09 643.25 810.07 643.25 778.59 643.25 778.59 646.42"/><polygon class="cls-5" points="1351.27 646.42 1382.76 646.42 1388.78 646.42 1385.3 654.61 1408.45 644.84 1385.3 635.07 1388.78 643.25 1382.76 643.25 1351.27 643.25 1351.27 646.42"/><rect class="cls-6" x="888.96" y="611.41" width="3.48" height="15.76"/><rect class="cls-6" x="893.72" y="611.41" width="3.48" height="15.76"/><rect class="cls-6" x="855.81" y="611.41" width="3.48" height="15.76"/><rect class="cls-6" x="860.57" y="611.41" width="3.48" height="15.76"/><circle class="cls-7" cx="876.16" cy="577.4" r="12.98"/><rect class="cls-6" x="869.91" y="566.71" width="1.83" height="10.15" rx="0.91" transform="translate(1890.9 360.34) rotate(135)"/><rect class="cls-6" x="881.13" y="577.94" width="1.83" height="10.15" rx="0.91" transform="translate(1918 371.57) rotate(135)"/><rect class="cls-6" x="873.27" y="561.49" width="6.59" height="3.25"/><polygon class="cls-6" points="875.41 598.83 873.87 599.29 870.3 593.18 871.85 592.71 875.41 598.83"/><polygon class="cls-6" points="878.49 598.83 880.03 599.29 883.21 593.21 882.06 592.71 878.49 598.83"/><rect class="cls-6" x="876.01" y="592.41" width="1.67" height="6.63" transform="translate(1753.69 1191.45) rotate(180)"/><rect class="cls-6" x="888.41" y="573.1" width="3.69" height="7.92"/><rect class="cls-6" x="869.82" y="590.58" width="13.63" height="3.72" rx="0.72"/><rect class="cls-6" x="873.76" y="600.4" width="6.45" height="7.65" rx="0.72"/><rect class="cls-6" x="870.07" y="597.92" width="13.73" height="1.57" rx="0.44"/><rect class="cls-6" x="870.07" y="599.62" width="13.73" height="1.57" rx="0.42"/><rect class="cls-6" x="859.78" y="577.88" width="3.03" height="3.14"/><rect class="cls-6" x="859.78" y="573.62" width="3.03" height="3.14"/><circle class="cls-8" cx="876.44" cy="577.41" r="3.33"/><circle class="cls-9" cx="876.48" cy="577.4" r="2.22"/><rect class="cls-6" x="881.13" y="566.71" width="1.83" height="10.15" rx="0.91" transform="translate(1101.43 1599.8) rotate(-135)"/><rect class="cls-6" x="869.91" y="577.94" width="1.83" height="10.15" rx="0.91" transform="translate(1074.33 1611.03) rotate(-135)"/><rect class="cls-6" x="869.98" y="604.18" width="13.48" height="24.85" rx="4.98"/><rect class="cls-6" x="882.23" y="602.69" width="3.31" height="27.82" rx="1.66"/><rect class="cls-6" x="867.97" y="602.69" width="3.31" height="27.82" rx="1.66"/><circle class="cls-10" cx="876.48" cy="577.4" r="1.33"/><circle class="cls-11" cx="876.48" cy="577.4" r="0.94"/><rect class="cls-6" x="1317.87" y="611.41" width="3.48" height="15.76"/><rect class="cls-6" x="1322.63" y="611.41" width="3.48" height="15.76"/><rect class="cls-6" x="1284.72" y="611.41" width="3.48" height="15.76"/><rect class="cls-6" x="1289.48" y="611.41" width="3.48" height="15.76"/><circle class="cls-7" cx="1305.07" cy="577.4" r="12.98"/><rect class="cls-6" x="1298.82" y="566.71" width="1.83" height="10.15" rx="0.91" transform="translate(2623.09 57.06) rotate(135)"/><rect class="cls-6" x="1310.04" y="577.94" width="1.83" height="10.15" rx="0.91" transform="translate(2650.2 68.28) rotate(135)"/><rect class="cls-6" x="1302.18" y="561.49" width="6.59" height="3.25"/><polygon class="cls-6" points="1304.32 598.83 1302.78 599.29 1299.21 593.18 1300.76 592.71 1304.32 598.83"/><polygon class="cls-6" points="1307.4 598.83 1308.95 599.29 1312.12 593.21 1310.97 592.71 1307.4 598.83"/><rect class="cls-6" x="1304.92" y="592.41" width="1.67" height="6.63" transform="translate(2611.51 1191.45) rotate(180)"/><rect class="cls-6" x="1317.32" y="573.1" width="3.69" height="7.92"/><rect class="cls-6" x="1298.73" y="590.58" width="13.63" height="3.72" rx="0.72"/><rect class="cls-6" x="1302.67" y="600.4" width="6.45" height="7.65" rx="0.72"/><rect class="cls-6" x="1298.98" y="597.92" width="13.73" height="1.57" rx="0.44"/><rect class="cls-6" x="1298.98" y="599.62" width="13.73" height="1.57" rx="0.42"/><rect class="cls-6" x="1288.69" y="577.88" width="3.03" height="3.14"/><rect class="cls-6" x="1288.69" y="573.62" width="3.03" height="3.14"/><circle class="cls-8" cx="1305.35" cy="577.41" r="3.33"/><circle class="cls-9" cx="1305.39" cy="577.4" r="2.22"/><rect class="cls-6" x="1310.04" y="566.71" width="1.83" height="10.15" rx="0.91" transform="translate(1833.63 1903.09) rotate(-135)"/><rect class="cls-6" x="1298.82" y="577.94" width="1.83" height="10.15" rx="0.91" transform="translate(1806.53 1914.32) rotate(-135)"/><rect class="cls-6" x="1298.89" y="604.18" width="13.48" height="24.85" rx="4.98"/><rect class="cls-6" x="1311.14" y="602.69" width="3.31" height="27.82" rx="1.66"/><rect class="cls-6" x="1296.88" y="602.69" width="3.31" height="27.82" rx="1.66"/><circle class="cls-10" cx="1305.39" cy="577.4" r="1.33"/><circle class="cls-11" cx="1305.39" cy="577.4" r="0.94"/><rect class="cls-2" x="1076.04" y="614.23" width="369.67" height="14"/><rect class="cls-6" x="1175.14" y="612.18" width="24.9" height="17.43"/><rect class="cls-17" x="1177.63" y="614.67" width="2.49" height="12.54"/><rect class="cls-17" x="1195.06" y="614.38" width="2.49" height="12.74"/><rect class="cls-17" x="1187.22" y="610.77" width="0.74" height="20.08" transform="translate(1419.97 1940.58) rotate(-127.58)"/><polygon class="cls-6" points="1175.74 608.28 1203.45 608.28 1189.6 602.98 1189.6 602.98 1189.6 605.63 1175.74 605.63 1175.74 608.28"/><text class="cls-3" transform="translate(922.92 602.14)">1#泵</text><rect class="cls-16" x="1076.11" y="507.48" width="195.07" height="88.34"/><rect class="cls-26" x="1085.72" y="559.29" width="83.11" height="30.2"/><rect class="cls-27" x="1177.33" y="523.23" width="83.11" height="30.2"/><rect class="cls-28" x="1085.72" y="523.01" width="83.11" height="30.2"/><polygon class="cls-5" points="778.59 646.42 810.07 646.42 816.09 646.42 812.62 654.61 835.77 644.84 812.62 635.07 816.09 643.25 810.07 643.25 778.59 643.25 778.59 646.42"/><polygon class="cls-5" points="1351.27 646.42 1382.76 646.42 1388.78 646.42 1385.3 654.61 1408.45 644.84 1385.3 635.07 1388.78 643.25 1382.76 643.25 1351.27 643.25 1351.27 646.42"/><rect class="cls-6" x="888.96" y="611.41" width="3.48" height="15.76"/><rect class="cls-6" x="893.72" y="611.41" width="3.48" height="15.76"/><rect class="cls-6" x="855.81" y="611.41" width="3.48" height="15.76"/><rect class="cls-6" x="860.57" y="611.41" width="3.48" height="15.76"/><circle class="cls-7" cx="876.16" cy="577.4" r="12.98"/><rect class="cls-6" x="869.91" y="566.71" width="1.83" height="10.15" rx="0.91" transform="translate(1890.9 360.34) rotate(135)"/><rect class="cls-6" x="881.13" y="577.94" width="1.83" height="10.15" rx="0.91" transform="translate(1918 371.57) rotate(135)"/><rect class="cls-6" x="873.27" y="561.49" width="6.59" height="3.25"/><polygon class="cls-6" points="875.41 598.83 873.87 599.29 870.3 593.18 871.85 592.71 875.41 598.83"/><polygon class="cls-6" points="878.49 598.83 880.03 599.29 883.21 593.21 882.06 592.71 878.49 598.83"/><rect class="cls-6" x="876.01" y="592.41" width="1.67" height="6.63" transform="translate(1753.69 1191.45) rotate(180)"/><rect class="cls-6" x="888.41" y="573.1" width="3.69" height="7.92"/><rect class="cls-6" x="869.82" y="590.58" width="13.63" height="3.72" rx="0.72"/><rect class="cls-6" x="873.76" y="600.4" width="6.45" height="7.65" rx="0.72"/><rect class="cls-6" x="870.07" y="597.92" width="13.73" height="1.57" rx="0.44"/><rect class="cls-6" x="870.07" y="599.62" width="13.73" height="1.57" rx="0.42"/><rect class="cls-6" x="859.78" y="577.88" width="3.03" height="3.14"/><rect class="cls-6" x="859.78" y="573.62" width="3.03" height="3.14"/><circle class="cls-8" cx="876.44" cy="577.41" r="3.33"/><circle class="cls-9" cx="876.48" cy="577.4" r="2.22"/><rect class="cls-6" x="881.13" y="566.71" width="1.83" height="10.15" rx="0.91" transform="translate(1101.43 1599.8) rotate(-135)"/><rect class="cls-6" x="869.91" y="577.94" width="1.83" height="10.15" rx="0.91" transform="translate(1074.33 1611.03) rotate(-135)"/><rect class="cls-6" x="869.98" y="604.18" width="13.48" height="24.85" rx="4.98"/><rect class="cls-6" x="882.23" y="602.69" width="3.31" height="27.82" rx="1.66"/><rect class="cls-6" x="867.97" y="602.69" width="3.31" height="27.82" rx="1.66"/><circle class="cls-10" cx="876.48" cy="577.4" r="1.33"/><circle class="cls-11" cx="876.48" cy="577.4" r="0.94"/><rect class="cls-6" x="1317.87" y="611.41" width="3.48" height="15.76"/><rect class="cls-6" x="1322.63" y="611.41" width="3.48" height="15.76"/><rect class="cls-6" x="1284.72" y="611.41" width="3.48" height="15.76"/><rect class="cls-6" x="1289.48" y="611.41" width="3.48" height="15.76"/><circle class="cls-7" cx="1305.07" cy="577.4" r="12.98"/><rect class="cls-6" x="1298.82" y="566.71" width="1.83" height="10.15" rx="0.91" transform="translate(2623.09 57.06) rotate(135)"/><rect class="cls-6" x="1310.04" y="577.94" width="1.83" height="10.15" rx="0.91" transform="translate(2650.2 68.28) rotate(135)"/><rect class="cls-6" x="1302.18" y="561.49" width="6.59" height="3.25"/><polygon class="cls-6" points="1304.32 598.83 1302.78 599.29 1299.21 593.18 1300.76 592.71 1304.32 598.83"/><polygon class="cls-6" points="1307.4 598.83 1308.95 599.29 1312.12 593.21 1310.97 592.71 1307.4 598.83"/><rect class="cls-6" x="1304.92" y="592.41" width="1.67" height="6.63" transform="translate(2611.51 1191.45) rotate(180)"/><rect class="cls-6" x="1317.32" y="573.1" width="3.69" height="7.92"/><rect class="cls-6" x="1298.73" y="590.58" width="13.63" height="3.72" rx="0.72"/><rect class="cls-6" x="1302.67" y="600.4" width="6.45" height="7.65" rx="0.72"/><rect class="cls-6" x="1298.98" y="597.92" width="13.73" height="1.57" rx="0.44"/><rect class="cls-6" x="1298.98" y="599.62" width="13.73" height="1.57" rx="0.42"/><rect class="cls-6" x="1288.69" y="577.88" width="3.03" height="3.14"/><rect class="cls-6" x="1288.69" y="573.62" width="3.03" height="3.14"/><circle class="cls-8" cx="1305.35" cy="577.41" r="3.33"/><circle class="cls-9" cx="1305.39" cy="577.4" r="2.22"/><rect class="cls-6" x="1310.04" y="566.71" width="1.83" height="10.15" rx="0.91" transform="translate(1833.63 1903.09) rotate(-135)"/><rect class="cls-6" x="1298.82" y="577.94" width="1.83" height="10.15" rx="0.91" transform="translate(1806.53 1914.32) rotate(-135)"/><rect class="cls-6" x="1298.89" y="604.18" width="13.48" height="24.85" rx="4.98"/><rect class="cls-6" x="1311.14" y="602.69" width="3.31" height="27.82" rx="1.66"/><rect class="cls-6" x="1296.88" y="602.69" width="3.31" height="27.82" rx="1.66"/><circle class="cls-10" cx="1305.39" cy="577.4" r="1.33"/><circle class="cls-11" cx="1305.39" cy="577.4" r="0.94"/><rect class="cls-6" x="888.96" y="935.53" width="3.48" height="15.76"/><rect class="cls-6" x="893.72" y="935.53" width="3.48" height="15.76"/><rect class="cls-6" x="855.81" y="935.53" width="3.48" height="15.76"/><rect class="cls-6" x="860.57" y="935.53" width="3.48" height="15.76"/><circle class="cls-7" cx="876.16" cy="901.52" r="12.98"/><rect class="cls-6" x="869.91" y="890.83" width="1.83" height="10.15" rx="0.91" transform="translate(2120.08 913.64) rotate(135)"/><rect class="cls-6" x="881.13" y="902.06" width="1.83" height="10.15" rx="0.91" transform="translate(2147.19 924.87) rotate(135)"/><rect class="cls-6" x="873.27" y="885.6" width="6.59" height="3.25"/><polygon class="cls-6" points="875.41 922.94 873.87 923.41 870.3 917.29 871.85 916.83 875.41 922.94"/><polygon class="cls-6" points="878.49 922.94 880.03 923.41 883.21 917.33 882.06 916.83 878.49 922.94"/><rect class="cls-6" x="876.01" y="916.52" width="1.67" height="6.63" transform="translate(1753.69 1839.68) rotate(180)"/><rect class="cls-6" x="888.41" y="897.22" width="3.69" height="7.92"/><rect class="cls-6" x="869.82" y="914.7" width="13.63" height="3.72" rx="0.72"/><rect class="cls-6" x="873.76" y="924.52" width="6.45" height="7.65" rx="0.72"/><rect class="cls-6" x="870.07" y="922.04" width="13.73" height="1.57" rx="0.44"/><rect class="cls-6" x="870.07" y="923.73" width="13.73" height="1.57" rx="0.42"/><rect class="cls-6" x="859.78" y="902" width="3.03" height="3.14"/><rect class="cls-6" x="859.78" y="897.73" width="3.03" height="3.14"/><circle class="cls-8" cx="876.44" cy="901.53" r="3.33"/><circle class="cls-9" cx="876.48" cy="901.52" r="2.22"/><rect class="cls-6" x="881.13" y="890.83" width="1.83" height="10.15" rx="0.91" transform="translate(872.25 2153.11) rotate(-135)"/><rect class="cls-6" x="869.91" y="902.06" width="1.83" height="10.15" rx="0.91" transform="translate(845.14 2164.34) rotate(-135)"/><rect class="cls-6" x="869.98" y="928.3" width="13.48" height="24.85" rx="4.98"/><rect class="cls-6" x="882.23" y="926.8" width="3.31" height="27.82" rx="1.66"/><rect class="cls-6" x="867.97" y="926.8" width="3.31" height="27.82" rx="1.66"/><circle class="cls-10" cx="876.48" cy="901.52" r="1.33"/><circle class="cls-11" cx="876.48" cy="901.52" r="0.94"/><rect class="cls-6" x="1317.87" y="935.53" width="3.48" height="15.76"/><rect class="cls-6" x="1322.63" y="935.53" width="3.48" height="15.76"/><rect class="cls-6" x="1284.72" y="935.53" width="3.48" height="15.76"/><rect class="cls-6" x="1289.48" y="935.53" width="3.48" height="15.76"/><circle class="cls-7" cx="1305.07" cy="901.52" r="12.98"/><rect class="cls-6" x="1298.82" y="890.83" width="1.83" height="10.15" rx="0.91" transform="translate(2852.28 610.36) rotate(135)"/><rect class="cls-6" x="1310.04" y="902.06" width="1.83" height="10.15" rx="0.91" transform="translate(2879.38 621.58) rotate(135)"/><rect class="cls-6" x="1302.18" y="885.6" width="6.59" height="3.25"/><polygon class="cls-6" points="1304.32 922.94 1302.78 923.41 1299.21 917.29 1300.76 916.83 1304.32 922.94"/><polygon class="cls-6" points="1307.4 922.94 1308.95 923.41 1312.12 917.33 1310.97 916.83 1307.4 922.94"/><rect class="cls-6" x="1304.92" y="916.52" width="1.67" height="6.63" transform="translate(2611.51 1839.68) rotate(180)"/><rect class="cls-6" x="1317.32" y="897.22" width="3.69" height="7.92"/><rect class="cls-6" x="1298.73" y="914.7" width="13.63" height="3.72" rx="0.72"/><rect class="cls-6" x="1302.67" y="924.52" width="6.45" height="7.65" rx="0.72"/><rect class="cls-6" x="1298.98" y="922.04" width="13.73" height="1.57" rx="0.44"/><rect class="cls-6" x="1298.98" y="923.73" width="13.73" height="1.57" rx="0.42"/><rect class="cls-6" x="1288.69" y="902" width="3.03" height="3.14"/><rect class="cls-6" x="1288.69" y="897.73" width="3.03" height="3.14"/><circle class="cls-8" cx="1305.35" cy="901.53" r="3.33"/><circle class="cls-9" cx="1305.39" cy="901.52" r="2.22"/><rect class="cls-6" x="1310.04" y="890.83" width="1.83" height="10.15" rx="0.91" transform="translate(1604.44 2456.4) rotate(-135)"/><rect class="cls-6" x="1298.82" y="902.06" width="1.83" height="10.15" rx="0.91" transform="translate(1577.34 2467.62) rotate(-135)"/><rect class="cls-6" x="1298.89" y="928.3" width="13.48" height="24.85" rx="4.98"/><rect class="cls-6" x="1311.14" y="926.8" width="3.31" height="27.82" rx="1.66"/><rect class="cls-6" x="1296.88" y="926.8" width="3.31" height="27.82" rx="1.66"/><circle class="cls-10" cx="1305.39" cy="901.52" r="1.33"/><circle class="cls-11" cx="1305.39" cy="901.52" r="0.94"/><rect class="cls-2" x="1072.45" y="539.65" width="753.46" height="12.16" transform="translate(1994.9 -903.45) rotate(90)"/><path class="cls-2" d="M1466.22,156.32q.06-6.45.11-12.91a23.3,23.3,0,0,0-23.4,23.94h12.39a11,11,0,0,1,2.41-7.11A11.33,11.33,0,0,1,1466.22,156.32Z"/><rect class="cls-2" x="1447.35" y="161.55" width="3.3" height="14.38" transform="translate(1617.75 -1280.26) rotate(90)"/><rect class="cls-2" x="1465.71" y="142.75" width="3.3" height="14.38"/><rect class="cls-2" x="1467.59" y="143.57" width="227.15" height="12.88"/><rect class="cls-6" x="1590.27" y="109.43" width="2.73" height="8.46"/><rect class="cls-6" x="1568.02" y="109.43" width="2.47" height="8.46"/><rect class="cls-6" x="1564.94" y="138.94" width="31.63" height="20.78"/><polygon class="cls-6" points="1599.48 154.14 1597.03 160.18 1597.03 139.4 1599.48 145.3 1599.48 154.14"/><polygon class="cls-6" points="1562.01 154.14 1564.46 160.18 1564.46 139.4 1562.01 145.3 1562.01 154.14"/><rect class="cls-6" x="1601.55" y="141.55" width="2.77" height="17.11"/><rect class="cls-6" x="1605.35" y="141.55" width="2.77" height="17.11"/><rect class="cls-6" x="1553.4" y="141.55" width="2.77" height="17.11"/><rect class="cls-6" x="1557.19" y="141.55" width="2.77" height="17.11"/><rect class="cls-6" x="1574.21" y="134.77" width="13.19" height="5.07" rx="0.4"/><rect class="cls-6" x="1575.14" y="126.98" width="11.01" height="3.05" rx="0.4"/><rect class="cls-6" x="1575.24" y="123.14" width="11.01" height="3.29" rx="0.4"/><rect class="cls-6" x="1577.92" y="128.66" width="5.51" height="7.11" rx="0.4"/><circle class="cls-29" cx="1580.82" cy="113.75" r="10.28"/><circle class="cls-30" cx="1580.64" cy="113.92" r="7.33"/><circle class="cls-31" cx="1580.8" cy="113.98" r="9.49"/><rect class="cls-6" x="1566.71" y="110.92" width="2.53" height="1.55"/><rect class="cls-6" x="1566.71" y="114.87" width="2.53" height="1.55"/><rect class="cls-32" x="1575.73" y="112.22" width="9.88" height="3.51"/><polygon class="cls-33" points="1578.38 115.73 1575.73 115.73 1575.73 112.22 1580.96 112.22 1578.38 115.73"/><path class="cls-6" d="M1578.21,144.58l-8.29-3.24a.43.43,0,0,1-.11-.73l7-5.55a.42.42,0,0,1,.69.27l1.33,8.79A.42.42,0,0,1,1578.21,144.58Z"/><path class="cls-6" d="M1583.45,144.58l8.28-3.24a.42.42,0,0,0,.11-.73l-6.95-5.55a.43.43,0,0,0-.69.27l-1.33,8.79A.43.43,0,0,0,1583.45,144.58Z"/><text class="cls-34" transform="translate(1457.77 286.52)">出水阀门</text><text class="cls-35" transform="translate(1626.06 126.85)">供水入户</text><text class="cls-34" transform="translate(1550.41 190.06)">流量计</text><rect class="cls-36" x="1542.54" y="198.85" width="76.44" height="27.78"/><polygon class="cls-5" points="1640.24 183.3 1667.13 183.3 1673.15 183.3 1669.68 191.49 1692.83 181.72 1669.68 171.94 1673.15 180.13 1667.13 180.13 1640.24 180.13 1640.24 183.3"/><rect class="cls-6" x="1447.45" y="252.09" width="3.2" height="14.5" transform="translate(1708.39 -1189.72) rotate(90)"/><rect class="cls-6" x="1447.45" y="256.47" width="3.2" height="14.5" transform="translate(1712.77 -1185.33) rotate(90)"/><rect class="cls-6" x="1447.45" y="221.6" width="3.2" height="14.5" transform="translate(1677.9 -1220.21) rotate(90)"/><rect class="cls-6" x="1447.45" y="225.98" width="3.2" height="14.5" transform="translate(1682.28 -1215.83) rotate(90)"/><circle class="cls-7" cx="1487.58" cy="245.97" r="11.94"/><rect class="cls-6" x="1491.9" y="236.38" width="1.68" height="9.34" rx="0.84" transform="translate(2377.82 1467.03) rotate(-135)"/><rect class="cls-6" x="1481.57" y="246.71" width="1.68" height="9.34" rx="0.84" transform="translate(2352.88 1477.36) rotate(-135)"/><rect class="cls-6" x="1497.69" y="244.84" width="6.06" height="2.98" transform="translate(1747.05 -1254.39) rotate(90)"/><polygon class="cls-6" points="1467.87 245.28 1467.44 243.85 1473.07 240.57 1473.5 242 1467.87 245.28"/><polygon class="cls-6" points="1467.87 248.11 1467.44 249.53 1473.04 252.44 1473.5 251.39 1467.87 248.11"/><rect class="cls-6" x="1469.96" y="243.54" width="1.54" height="6.1" transform="translate(1224.14 1717.32) rotate(-90)"/><rect class="cls-6" x="1486.2" y="255.28" width="3.39" height="7.28" transform="translate(1746.81 -1228.97) rotate(90)"/><rect class="cls-6" x="1467.48" y="244.69" width="12.54" height="3.42" rx="0.72" transform="translate(1720.15 -1227.34) rotate(90)"/><rect class="cls-6" x="1459.94" y="243.21" width="5.93" height="7.04" rx="0.72" transform="translate(1709.63 -1216.18) rotate(90)"/><rect class="cls-6" x="1461.67" y="245.96" width="12.63" height="1.45" rx="0.44" transform="translate(1714.66 -1221.3) rotate(90)"/><rect class="cls-6" x="1460.11" y="245.96" width="12.63" height="1.45" rx="0.42" transform="translate(1713.1 -1219.74) rotate(90)"/><rect class="cls-6" x="1484.3" y="230.85" width="2.79" height="2.88" transform="translate(1717.99 -1253.4) rotate(90)"/><rect class="cls-6" x="1488.22" y="230.85" width="2.79" height="2.88" transform="translate(1721.91 -1257.32) rotate(90)"/><circle class="cls-8" cx="1487.57" cy="246.22" r="3.07"/><circle class="cls-9" cx="1487.58" cy="246.26" r="2.04"/><rect class="cls-6" x="1491.9" y="246.71" width="1.68" height="9.34" rx="0.84" transform="translate(259.46 1129.15) rotate(-45)"/><rect class="cls-6" x="1481.57" y="236.38" width="1.68" height="9.34" rx="0.84" transform="translate(263.74 1118.83) rotate(-45)"/><rect class="cls-6" x="1445.32" y="235.05" width="12.4" height="22.85" rx="4.98" transform="translate(1697.99 -1205.05) rotate(90)"/><rect class="cls-6" x="1450.01" y="240.27" width="3.04" height="25.58" rx="1.52" transform="translate(1704.6 -1198.46) rotate(90)"/><rect class="cls-6" x="1450.01" y="227.16" width="3.04" height="25.58" rx="1.52" transform="translate(1691.48 -1211.58) rotate(90)"/><circle class="cls-10" cx="1487.58" cy="246.26" r="1.22"/><circle class="cls-11" cx="1487.58" cy="246.26" r="0.86"/><rect class="cls-6" x="1511.95" y="450.91" width="0.63" height="2.18" transform="translate(1964.27 -1060.26) rotate(90)"/><rect class="cls-6" x="1510.28" y="445.29" width="0.63" height="2.18" transform="translate(917.56 -1012.89) rotate(51.42)"/><rect class="cls-6" x="1509.96" y="456.41" width="0.63" height="2.18" transform="translate(2844.09 -385.8) rotate(130.84)"/><rect class="cls-6" x="1504.37" y="459.71" width="0.63" height="2.18" transform="translate(3051.48 750.41) rotate(173.58)"/><rect class="cls-6" x="1504.43" y="441.66" width="0.63" height="2.18" transform="translate(74.94 -202.19) rotate(7.88)"/><rect class="cls-6" x="1512.64" y="449.99" width="0.33" height="1.21" transform="translate(1667.56 -1120.28) rotate(79.04)"/><rect class="cls-6" x="1512.64" y="452.72" width="0.33" height="1.21" transform="translate(2277.42 -928.5) rotate(102.28)"/><rect class="cls-6" x="1512.39" y="453.92" width="0.33" height="1.21" transform="translate(2458.28 -810.39) rotate(110.06)"/><rect class="cls-6" x="1511.98" y="455.07" width="0.33" height="1.21" transform="translate(2621.26 -668.62) rotate(117.84)"/><rect class="cls-6" x="1511.41" y="456.15" width="0.33" height="1.21" transform="translate(2763.28 -505.9) rotate(125.62)"/><rect class="cls-6" x="1509.87" y="458.05" width="0.33" height="1.21" transform="translate(2974.14 -130.4) rotate(141.19)"/><rect class="cls-6" x="1508.92" y="458.82" width="0.33" height="1.21" transform="translate(3039.06 75.21) rotate(148.97)"/><rect class="cls-6" x="1507.88" y="459.46" width="0.33" height="1.21" transform="translate(3075.24 287.56) rotate(156.75)"/><rect class="cls-6" x="1506.76" y="459.95" width="0.33" height="1.21" transform="translate(3082.1 502.63) rotate(164.54)"/><rect class="cls-6" x="1505.59" y="460.49" width="0.33" height="1.21" transform="translate(3059.62 716.77) rotate(172.32)"/><rect class="cls-6" x="1503.35" y="460.86" width="0.33" height="1.21" transform="translate(3006.21 925.58) rotate(-179.9)"/><rect class="cls-6" x="1502.12" y="460.87" width="0.33" height="1.21" transform="translate(2927.08 1124.63) rotate(-172.12)"/><rect class="cls-6" x="1500.91" y="460.71" width="0.33" height="1.21" transform="translate(2821.83 1310.82) rotate(-164.33)"/><rect class="cls-6" x="1512.37" y="448.85" width="0.33" height="1.21" transform="translate(1461.35 -1127.62) rotate(71.59)"/><rect class="cls-6" x="1511.96" y="447.75" width="0.33" height="1.21" transform="translate(1256.12 -1107.93) rotate(64.14)"/><rect class="cls-6" x="1511.41" y="446.71" width="0.33" height="1.21" transform="translate(1055.43 -1061.61) rotate(56.7)"/><rect class="cls-6" x="1509.74" y="444.26" width="0.33" height="1.21" transform="translate(668.24 -885.29) rotate(41.26)"/><rect class="cls-6" x="1508.6" y="443.45" width="0.33" height="1.21" transform="translate(479.34 -745) rotate(32.72)"/><rect class="cls-6" x="1507.35" y="442.4" width="0.33" height="1.21" transform="translate(313.57 -578.44) rotate(24.17)"/><rect class="cls-6" x="1506.03" y="441.96" width="0.33" height="1.21" transform="translate(174.89 -389.38) rotate(15.63)"/><rect class="cls-6" x="1503.25" y="441.68" width="0.33" height="1.21" transform="translate(-10.79 38.47) rotate(-1.46)"/><rect class="cls-6" x="1501.86" y="441.65" width="0.33" height="1.21" transform="translate(-53.99 267.67) rotate(-10)"/><rect class="cls-6" x="1500.52" y="442.03" width="0.33" height="1.21" transform="translate(-62.85 500.38) rotate(-18.55)"/><rect class="cls-6" x="1485.5" y="450.23" width="5.62" height="3.7" transform="translate(1940.39 -1036.23) rotate(90)"/><rect class="cls-6" x="1457.21" y="447.28" width="5.62" height="9.59" transform="translate(1912.1 -1007.94) rotate(90)"/><rect class="cls-6" x="1477.47" y="450.72" width="5.62" height="2.72" transform="translate(1932.36 -1028.2) rotate(90)"/><rect class="cls-6" x="1461.96" y="451.43" width="6.78" height="1.27" transform="translate(1917.41 -1013.28) rotate(90)"/><polygon class="cls-6" points="1476.55 456.5 1476.55 447.69 1478.72 449.27 1478.72 454.89 1476.55 456.5"/><polygon class="cls-6" points="1486.86 454.45 1486.86 449.7 1484.41 447.33 1481.96 449.7 1481.96 454.45 1484.41 456.83 1486.86 454.45"/><polygon class="cls-6" points="1476.29 455.52 1476.29 448.65 1471.35 445.22 1466.41 448.65 1466.41 455.52 1471.35 458.95 1476.29 455.52"/><rect class="cls-6" x="1469.41" y="440.6" width="2.81" height="8.92" transform="translate(1915.87 -1025.76) rotate(90)"/><rect class="cls-6" x="1470.13" y="440.38" width="1.62" height="6.53" transform="translate(1914.58 -1027.3) rotate(90)"/><rect class="cls-6" x="1469.68" y="440.26" width="2.32" height="3.16" transform="translate(1912.68 -1029) rotate(90)"/><rect class="cls-6" x="1469.94" y="434.7" width="1.15" height="2.8" rx="0.37" transform="translate(1906.61 -1034.42) rotate(90)"/><rect class="cls-6" x="1469.95" y="435.92" width="1.04" height="7.8" transform="translate(1910.29 -1030.65) rotate(90)"/><rect class="cls-6" x="1472.12" y="437.51" width="2.76" height="1.73" rx="0.44" transform="translate(1911.88 -1035.14) rotate(90)"/><rect class="cls-6" x="1469.25" y="437.51" width="2.76" height="1.73" rx="0.44" transform="translate(1909 -1032.26) rotate(90)"/><rect class="cls-6" x="1466.05" y="437.51" width="2.76" height="1.73" rx="0.44" transform="translate(1905.8 -1029.06) rotate(90)"/><circle class="cls-37" cx="1503.65" cy="451.69" r="13.34"/><path class="cls-38" d="M1499.79,441.45a12.24,12.24,0,0,1,3.69-.57,10.9,10.9,0,1,1-3.66,21.24"/><polygon class="cls-6" points="1501.07 449.55 1502.99 448.42 1504.23 452.23 1507.45 458.08 1507.19 458.21 1503.9 452.45 1501.07 449.55"/><circle class="cls-39" cx="1503.65" cy="451.61" r="0.84"/><text class="cls-40" transform="translate(1495.21 448.02) rotate(90)">MPA</text><text class="cls-3" transform="translate(1460.97 774.03)">压力控制器</text><text class="cls-3" transform="translate(1458.08 498.39)">出水压力表</text><rect class="cls-41" x="1462.08" y="511.53" width="83.11" height="30.2"/><polygon class="cls-5" points="1482.68 662.52 1482.68 631.03 1482.68 625.01 1490.87 628.49 1481.1 605.34 1471.33 628.49 1479.51 625.01 1479.51 631.03 1479.51 662.52 1482.68 662.52"/><rect class="cls-38" x="1477.1" y="709.95" width="32.29" height="29.43" rx="2.35" transform="translate(2217.91 -768.58) rotate(90)"/><rect class="cls-6" x="1478.36" y="711.5" width="29.95" height="26.32" rx="1.91" transform="translate(2218 -768.67) rotate(90)"/><ellipse class="cls-42" cx="1482.88" cy="712.2" rx="0.99" ry="1.03"/><ellipse class="cls-42" cx="1482.88" cy="736.91" rx="0.99" ry="1.03"/><ellipse class="cls-42" cx="1504.01" cy="712.2" rx="0.99" ry="1.03"/><ellipse class="cls-42" cx="1504.01" cy="736.91" rx="0.99" ry="1.03"/><rect class="cls-43" x="1480.5" y="728.79" width="3.54" height="4.63" transform="translate(2213.38 -751.17) rotate(90)"/><rect class="cls-6" x="1470.36" y="723.5" width="12.83" height="1.22" transform="translate(2200.89 -752.67) rotate(90)"/><rect class="cls-44" x="1458.6" y="714.1" width="12.83" height="20.12" rx="0.25" transform="translate(2189.18 -740.86) rotate(90)"/><rect class="cls-45" x="1464.43" y="718.31" width="5.77" height="11.7" rx="0.15" transform="translate(2191.48 -743.15) rotate(90)"/><text class="cls-46" transform="translate(1502.27 719.42) rotate(90) scale(1.09 1)">压力开关</text><rect class="cls-45" x="1483.85" y="720.19" width="20.54" height="10.06" transform="translate(2219.34 -768.9) rotate(90)"/><text class="cls-47" transform="translate(1496.74 715.39) rotate(90) scale(1.09 1)">CSS</text><text class="cls-48" transform="translate(1493.98 716.4) rotate(90) scale(1.09 1)">asdsanmlopq<tspan class="cls-49" x="11.59" y="0">r</tspan><tspan class="cls-50" x="12.38" y="0">st</tspan></text><text class="cls-48" transform="translate(1491.21 716.4) rotate(90) scale(1.09 1)">asdsanmlopq<tspan class="cls-49" x="11.59" y="0">r</tspan><tspan class="cls-50" x="12.38" y="0">st</tspan></text><rect class="cls-2" x="1233" y="343" width="216" height="10.9" transform="translate(2682 696.9) rotate(-180)"/><rect class="cls-6" x="1351.14" y="340.41" width="3.48" height="15.76" transform="translate(2705.76 696.58) rotate(-180)"/><rect class="cls-6" x="1346.37" y="340.41" width="3.48" height="15.76" transform="translate(2696.23 696.58) rotate(-180)"/><rect class="cls-6" x="1384.29" y="340.41" width="3.48" height="15.76" transform="translate(2772.06 696.58) rotate(-180)"/><rect class="cls-6" x="1379.53" y="340.41" width="3.48" height="15.76" transform="translate(2762.53 696.58) rotate(-180)"/><circle class="cls-7" cx="1367.42" cy="306.4" r="12.98"/><rect class="cls-6" x="1371.85" y="295.71" width="1.83" height="10.15" rx="0.91" transform="translate(614.76 -882.59) rotate(45)"/><rect class="cls-6" x="1360.62" y="306.94" width="1.83" height="10.15" rx="0.91" transform="translate(619.41 -871.36) rotate(45)"/><rect class="cls-6" x="1363.73" y="290.49" width="6.59" height="3.25" transform="translate(2734.04 584.22) rotate(-180)"/><polygon class="cls-6" points="1368.17 327.83 1369.71 328.29 1373.28 322.18 1371.73 321.71 1368.17 327.83"/><polygon class="cls-6" points="1365.09 327.83 1363.54 328.29 1360.37 322.21 1361.52 321.71 1365.09 327.83"/><rect class="cls-6" x="1365.9" y="321.41" width="1.67" height="6.63"/><rect class="cls-6" x="1351.48" y="302.1" width="3.69" height="7.92" transform="translate(2706.66 612.12) rotate(-180)"/><rect class="cls-6" x="1360.13" y="319.58" width="13.63" height="3.72" rx="0.72" transform="translate(2733.88 642.88) rotate(-180)"/><rect class="cls-6" x="1363.37" y="329.4" width="6.45" height="7.65" rx="0.72" transform="translate(2733.19 666.46) rotate(-180)"/><rect class="cls-6" x="1359.77" y="326.92" width="13.73" height="1.57" rx="0.44" transform="translate(2733.28 655.41) rotate(-180)"/><rect class="cls-6" x="1359.77" y="328.62" width="13.73" height="1.57" rx="0.42" transform="translate(2733.28 658.81) rotate(-180)"/><rect class="cls-6" x="1380.77" y="306.88" width="3.03" height="3.14" transform="translate(2764.56 616.9) rotate(-180)"/><rect class="cls-6" x="1380.77" y="302.62" width="3.03" height="3.14" transform="translate(2764.56 608.37) rotate(-180)"/><circle class="cls-8" cx="1367.14" cy="306.41" r="3.33"/><circle class="cls-9" cx="1367.1" cy="306.4" r="2.22"/><rect class="cls-6" x="1360.62" y="295.71" width="1.83" height="10.15" rx="0.91" transform="translate(186.09 1050.85) rotate(-45)"/><rect class="cls-6" x="1371.85" y="306.94" width="1.83" height="10.15" rx="0.91" transform="translate(181.44 1062.07) rotate(-45)"/><rect class="cls-6" x="1360.13" y="333.18" width="13.48" height="24.85" rx="4.98" transform="translate(2733.73 691.21) rotate(-180)"/><rect class="cls-6" x="1358.04" y="331.69" width="3.31" height="27.82" rx="1.66" transform="translate(2719.39 691.19) rotate(-180)"/><rect class="cls-6" x="1372.3" y="331.69" width="3.31" height="27.82" rx="1.66" transform="translate(2747.91 691.19) rotate(-180)"/><circle class="cls-10" cx="1367.1" cy="306.4" r="1.33"/><circle class="cls-11" cx="1367.1" cy="306.4" r="0.94"/><rect class="cls-2" x="1219.62" y="261.38" width="5.23" height="25.62"/><rect class="cls-2" x="1227.46" y="261.04" width="5.23" height="25.62"/><rect class="cls-51" x="1224.85" y="266.1" width="2.62" height="16.18"/><rect class="cls-2" x="1232.69" y="263.74" width="1.31" height="2.7"/><rect class="cls-2" x="1232.69" y="272.5" width="1.31" height="2.7"/><rect class="cls-2" x="1232.69" y="281.27" width="1.31" height="2.7"/><rect class="cls-2" x="1218.31" y="264.07" width="1.31" height="4.32"/><rect class="cls-2" x="1217" y="264.88" width="2.62" height="2.7"/><rect class="cls-2" x="1218.31" y="272.16" width="1.31" height="4.32"/><rect class="cls-2" x="1217" y="272.97" width="2.62" height="2.7"/><rect class="cls-2" x="1218.31" y="280.26" width="1.31" height="4.32"/><rect class="cls-2" x="1217" y="281.07" width="2.62" height="2.7"/><path class="cls-2" d="M724.68,626.74l.12-14.87a26.83,26.83,0,0,0-26.94,27.56h14.26a12.65,12.65,0,0,1,2.79-8.18A13,13,0,0,1,724.68,626.74Z"/><rect class="cls-2" x="702.95" y="632.76" width="3.8" height="16.56" transform="translate(1345.89 -63.82) rotate(90)"/><rect class="cls-2" x="724.09" y="611.11" width="3.8" height="16.56"/><text class="cls-52" transform="translate(1014.38 779.75)">SANLEY</text><ellipse class="cls-53" cx="1052.36" cy="820.87" rx="2.44" ry="2.37"/><circle class="cls-54" cx="1052.36" cy="820.87" r="2.12"/><circle class="cls-53" cx="1052.36" cy="820.87" r="1.65"/><circle class="cls-54" cx="1052.36" cy="820.87" r="1.18"/><ellipse class="cls-53" cx="1052.36" cy="828.86" rx="2.44" ry="2.37"/><circle class="cls-54" cx="1052.36" cy="828.86" r="2.12"/><circle class="cls-53" cx="1052.36" cy="828.86" r="1.65"/><circle class="cls-54" cx="1052.36" cy="828.86" r="1.18"/><rect class="cls-55" x="1003.54" y="787.8" width="53.19" height="67.31" rx="10.76"/><rect class="cls-55" x="1002.92" y="767.45" width="54.01" height="86.88" rx="10.76"/><rect class="cls-56" x="1003.7" y="794.08" width="9.39" height="52.12"/><rect class="cls-56" x="1047.53" y="794.08" width="9.39" height="52.12"/><rect class="cls-57" x="1015.05" y="787.41" width="2.35" height="67.31"/><rect class="cls-57" x="1019.74" y="787.41" width="2.35" height="67.31"/><rect class="cls-57" x="1024.44" y="787.41" width="2.35" height="67.31"/><rect class="cls-57" x="1029.14" y="787.41" width="2.35" height="67.31"/><rect class="cls-57" x="1033.83" y="787.41" width="2.35" height="67.31"/><rect class="cls-57" x="1038.53" y="787.41" width="2.35" height="67.31"/><rect class="cls-57" x="1043.22" y="787.41" width="2.35" height="67.31"/><path class="cls-55" d="M1061.52,846.07h-3.28l-1.1-1.1V822.12l1.1-1.1h3.28l1.1,1.1V845Z"/><rect class="cls-55" x="1005.58" y="855.11" width="48.21" height="10.96"/><rect class="cls-55" x="1014.66" y="855.11" width="5.48" height="10.96"/><rect class="cls-55" x="1041.27" y="855.11" width="5.48" height="10.96"/><rect class="cls-55" x="993.06" y="866.85" width="73.57" height="3.91" rx="1.1"/><rect class="cls-55" x="994.63" y="870.77" width="70.44" height="3.13" rx="1.1"/><rect class="cls-55" x="1002.06" y="874.29" width="55.57" height="3.91" rx="1.1"/><rect class="cls-58" x="1009.11" y="940.82" width="40.69" height="3.91" rx="1.1"/><rect class="cls-55" x="1007.54" y="972.12" width="44.61" height="3.91" rx="1.1"/><rect class="cls-55" x="1014.19" y="878.2" width="31.31" height="23.48"/><rect class="cls-59" x="1004.41" y="901.68" width="50.87" height="7.83" rx="1.1"/><rect class="cls-55" x="1010.59" y="909.51" width="38.58" height="31.31"/><rect class="cls-55" x="1009.89" y="944.73" width="39.28" height="27.39"/><rect class="cls-55" x="1014.59" y="909.51" width="30.52" height="31.31" rx="0.6"/><rect class="cls-55" x="996.77" y="931.37" width="12.34" height="20.8"/><rect class="cls-55" x="1049.81" y="931.37" width="12.34" height="20.8"/><rect class="cls-55" x="992.54" y="925.57" width="4.24" height="32.69" rx="0.4"/><rect class="cls-55" x="985.22" y="925.57" width="4.24" height="32.69" rx="0.4"/><rect class="cls-55" x="1069.72" y="925.57" width="4.24" height="32.69" rx="0.4"/><rect class="cls-55" x="1062.4" y="925.57" width="4.24" height="32.69" rx="0.4"/><text class="cls-52" transform="translate(1015.38 457.75)">SANLEY</text><ellipse class="cls-53" cx="1053.36" cy="498.87" rx="2.44" ry="2.37"/><circle class="cls-54" cx="1053.36" cy="498.87" r="2.12"/><circle class="cls-53" cx="1053.36" cy="498.87" r="1.65"/><circle class="cls-54" cx="1053.36" cy="498.87" r="1.18"/><ellipse class="cls-53" cx="1053.36" cy="506.86" rx="2.44" ry="2.37"/><circle class="cls-54" cx="1053.36" cy="506.86" r="2.12"/><circle class="cls-53" cx="1053.36" cy="506.86" r="1.65"/><circle class="cls-54" cx="1053.36" cy="506.86" r="1.18"/><rect class="cls-55" x="1004.54" y="465.8" width="53.19" height="67.31" rx="10.76"/><rect class="cls-55" x="1003.92" y="445.45" width="54.01" height="86.88" rx="10.76"/><rect class="cls-56" x="1004.7" y="472.08" width="9.39" height="52.12"/><rect class="cls-56" x="1048.53" y="472.08" width="9.39" height="52.12"/><rect class="cls-57" x="1016.05" y="465.41" width="2.35" height="67.31"/><rect class="cls-57" x="1020.74" y="465.41" width="2.35" height="67.31"/><rect class="cls-57" x="1025.44" y="465.41" width="2.35" height="67.31"/><rect class="cls-57" x="1030.14" y="465.41" width="2.35" height="67.31"/><rect class="cls-57" x="1034.83" y="465.41" width="2.35" height="67.31"/><rect class="cls-57" x="1039.53" y="465.41" width="2.35" height="67.31"/><rect class="cls-57" x="1044.22" y="465.41" width="2.35" height="67.31"/><path class="cls-55" d="M1062.52,524.07h-3.28l-1.1-1.1V500.12l1.1-1.1h3.28l1.1,1.1V523Z"/><rect class="cls-55" x="1006.58" y="533.11" width="48.21" height="10.96"/><rect class="cls-55" x="1015.66" y="533.11" width="5.48" height="10.96"/><rect class="cls-55" x="1042.27" y="533.11" width="5.48" height="10.96"/><rect class="cls-55" x="994.06" y="544.85" width="73.57" height="3.91" rx="1.1"/><rect class="cls-55" x="995.63" y="548.77" width="70.44" height="3.13" rx="1.1"/><rect class="cls-55" x="1003.06" y="552.29" width="55.57" height="3.91" rx="1.1"/><rect class="cls-58" x="1010.11" y="618.82" width="40.69" height="3.91" rx="1.1"/><rect class="cls-55" x="1008.54" y="650.12" width="44.61" height="3.91" rx="1.1"/><rect class="cls-55" x="1015.19" y="556.2" width="31.31" height="23.48"/><rect class="cls-59" x="1005.41" y="579.68" width="50.87" height="7.83" rx="1.1"/><rect class="cls-55" x="1011.59" y="587.51" width="38.58" height="31.31"/><rect class="cls-55" x="1010.89" y="622.73" width="39.28" height="27.39"/><rect class="cls-55" x="1015.59" y="587.51" width="30.52" height="31.31" rx="0.6"/><rect class="cls-55" x="997.77" y="609.37" width="12.34" height="20.8"/><rect class="cls-55" x="1050.81" y="609.37" width="12.34" height="20.8"/><rect class="cls-55" x="993.54" y="603.57" width="4.24" height="32.69" rx="0.4"/><rect class="cls-55" x="986.22" y="603.57" width="4.24" height="32.69" rx="0.4"/><rect class="cls-55" x="1070.72" y="603.57" width="4.24" height="32.69" rx="0.4"/><rect class="cls-55" x="1063.4" y="603.57" width="4.24" height="32.69" rx="0.4"/><polygon class="cls-1" points="1164.7 359 1154 359 1172.45 305.47 1183.15 305.47 1164.7 359"/><polygon class="cls-1" points="1265.3 359 1276 359 1257.55 305.47 1246.85 305.47 1265.3 359"/><rect class="cls-60" x="1237.21" y="162.18" width="6.71" height="14.87"/><rect class="cls-61" x="1233.85" y="159.21" width="13.42" height="2.97"/><rect class="cls-60" x="1212.59" y="157.26" width="6.71" height="14.87"/><rect class="cls-61" x="1209.23" y="154.29" width="13.42" height="2.97"/><rect class="cls-60" x="1186.74" y="162.18" width="6.71" height="14.87"/><rect class="cls-61" x="1183.39" y="159.21" width="13.42" height="2.97"/><ellipse class="cls-62" cx="1214.98" cy="192.18" rx="43.63" ry="28.25"/><ellipse class="cls-62" cx="1214.98" cy="310.19" rx="43.63" ry="28.25"/><rect class="cls-63" x="1171.35" y="195.15" width="87.25" height="115.98"/><rect class="cls-63" x="1168" y="186.23" width="93.96" height="11.9"/><rect class="cls-64" x="1237.21" y="208.54" width="3.36" height="53.53"/><rect class="cls-64" x="1237.21" y="268.01" width="3.36" height="11.9"/></svg>