<svg id="图层_1" data-name="图层 1" xmlns="http://www.w3.org/2000/svg" xmlns:xlink="http://www.w3.org/1999/xlink" viewBox="0 0 1920 1080"><defs><style>.cls-1{fill:#06a8fa;}.cls-2,.cls-51{fill:#f2f2f2;}.cls-3,.cls-41,.cls-46,.cls-5,.cls-52,.cls-6{fill:#143a82;}.cls-4{fill:#cee6f9;}.cls-36,.cls-5{font-size:22px;}.cls-36,.cls-46,.cls-47,.cls-5,.cls-6{font-family:PingFang-SC-Medium, PingFang SC;font-weight:500;}.cls-6{font-size:14px;}.cls-7{fill:#07a307;}.cls-8{fill:#af0800;}.cls-9{fill:#474747;}.cls-10,.cls-11,.cls-12,.cls-13,.cls-14,.cls-15,.cls-16,.cls-17,.cls-18,.cls-20,.cls-21,.cls-25,.cls-26,.cls-27,.cls-31,.cls-32,.cls-33,.cls-34,.cls-35,.cls-43,.cls-48,.cls-49,.cls-50,.cls-53,.cls-54,.cls-55{fill:none;}.cls-10,.cls-11,.cls-12,.cls-13,.cls-14,.cls-15,.cls-16,.cls-17,.cls-18,.cls-20,.cls-21,.cls-25,.cls-26,.cls-27,.cls-31,.cls-32,.cls-33,.cls-34,.cls-35,.cls-37,.cls-41,.cls-42,.cls-43,.cls-48,.cls-49,.cls-50,.cls-51,.cls-53,.cls-54,.cls-55,.cls-63,.cls-68{stroke-miterlimit:10;}.cls-10,.cls-11,.cls-12,.cls-13,.cls-14,.cls-15,.cls-16,.cls-17,.cls-18,.cls-21,.cls-25,.cls-26,.cls-27,.cls-31,.cls-34,.cls-37,.cls-48,.cls-49,.cls-53{stroke-width:2px;}.cls-10{stroke:url(#未命名的渐变_15);}.cls-11{stroke:url(#未命名的渐变_15-2);}.cls-12{stroke:url(#未命名的渐变_15-3);}.cls-13{stroke:url(#未命名的渐变_15-4);}.cls-14{stroke:url(#未命名的渐变_15-5);}.cls-15{stroke:url(#未命名的渐变_15-6);}.cls-16{stroke:url(#未命名的渐变_15-7);}.cls-17{stroke:url(#未命名的渐变_15-8);}.cls-18{stroke:url(#未命名的渐变_15-9);}.cls-19{fill:#df592f;}.cls-20,.cls-41,.cls-42,.cls-49,.cls-50{stroke:#143a82;}.cls-20,.cls-35,.cls-41,.cls-42,.cls-43{stroke-width:3px;}.cls-21{stroke:#10397a;}.cls-22{fill:#0e3773;}.cls-23{fill:#4676a5;}.cls-24{fill:#a1d5ff;}.cls-25{stroke:url(#未命名的渐变_15-10);}.cls-26{stroke:url(#未命名的渐变_15-11);}.cls-27{stroke:url(#未命名的渐变_15-12);}.cls-28{font-size:6.12px;fill:#01579b;}.cls-28,.cls-52{font-family:Benmo-Chenhei, Benmo Chenhei;}.cls-29{fill:#2a5e96;}.cls-30{fill:#9ac0f7;}.cls-31,.cls-32,.cls-33,.cls-35,.cls-37{stroke:#01579b;}.cls-32{stroke-width:1.5px;}.cls-34,.cls-51{stroke:#333f4f;}.cls-36,.cls-47{fill:#db4516;}.cls-37,.cls-58,.cls-59,.cls-60,.cls-69{fill:#fff;}.cls-38{fill:#60c8fc;}.cls-39{fill:#327cc6;}.cls-40{fill:#0a98ef;}.cls-42{fill:#e6e6e6;}.cls-43{stroke:#b3b3b3;}.cls-44{fill:#333f4f;}.cls-45{fill:#868686;}.cls-46,.cls-47{font-size:20.23px;}.cls-48{stroke:url(#未命名的渐变_15-13);}.cls-52{font-size:2.93px;}.cls-53{stroke:url(#未命名的渐变_15-14);}.cls-54{stroke:#618cd1;}.cls-54,.cls-55{stroke-width:0.5px;}.cls-55{stroke:#fff;}.cls-56{fill:#10397a;}.cls-57{fill:#5276aa;}.cls-58,.cls-59{font-size:2.1px;letter-spacing:0.18em;}.cls-58{font-family:MicrosoftYaHei-Bold, Microsoft YaHei;font-weight:700;}.cls-59,.cls-60{font-family:MicrosoftYaHei, Microsoft YaHei;}.cls-60{font-size:1.38px;letter-spacing:0.18em;}.cls-61{letter-spacing:0.19em;}.cls-62{letter-spacing:0.18em;}.cls-63,.cls-65{fill:#30719e;}.cls-63{stroke:#32597b;stroke-width:0.4px;}.cls-64{fill:#0662b5;}.cls-66{fill:#3b77ad;}.cls-67,.cls-68{fill:#6ab6ef;}.cls-68{stroke:#5282a2;stroke-width:0.7px;}</style><linearGradient id="未命名的渐变_15" x1="1068.46" y1="564.61" x2="1153.57" y2="564.61" gradientUnits="userSpaceOnUse"><stop offset="0" stop-color="#4f6c99"/><stop offset="0.16" stop-color="#526f9c"/><stop offset="0.29" stop-color="#5b78a6"/><stop offset="0.4" stop-color="#6c87b6"/><stop offset="0.5" stop-color="#829dcd"/><stop offset="0.59" stop-color="#9fb8ea"/><stop offset="0.62" stop-color="#a9c2f4"/><stop offset="1" stop-color="#718dbe"/></linearGradient><linearGradient id="未命名的渐变_15-2" x1="1160.07" y1="528.54" x2="1245.18" y2="528.54" xlink:href="#未命名的渐变_15"/><linearGradient id="未命名的渐变_15-3" x1="1160.07" y1="912.28" x2="1245.18" y2="912.28" xlink:href="#未命名的渐变_15"/><linearGradient id="未命名的渐变_15-4" x1="1068.46" y1="528.33" x2="1153.57" y2="528.33" xlink:href="#未命名的渐变_15"/><linearGradient id="未命名的渐变_15-5" x1="1068.46" y1="949.36" x2="1153.57" y2="949.36" xlink:href="#未命名的渐变_15"/><linearGradient id="未命名的渐变_15-6" x1="1068.46" y1="913.08" x2="1153.57" y2="913.08" xlink:href="#未命名的渐变_15"/><linearGradient id="未命名的渐变_15-7" x1="1068.46" y1="371.74" x2="1153.57" y2="371.74" xlink:href="#未命名的渐变_15"/><linearGradient id="未命名的渐变_15-8" x1="1160.07" y1="335.68" x2="1245.18" y2="335.68" xlink:href="#未命名的渐变_15"/><linearGradient id="未命名的渐变_15-9" x1="1068.46" y1="335.46" x2="1153.57" y2="335.46" xlink:href="#未命名的渐变_15"/><linearGradient id="未命名的渐变_15-10" x1="1068.46" y1="753.8" x2="1153.57" y2="753.8" xlink:href="#未命名的渐变_15"/><linearGradient id="未命名的渐变_15-11" x1="1160.07" y1="717.74" x2="1245.18" y2="717.74" xlink:href="#未命名的渐变_15"/><linearGradient id="未命名的渐变_15-12" x1="1068.46" y1="717.52" x2="1153.57" y2="717.52" xlink:href="#未命名的渐变_15"/><linearGradient id="未命名的渐变_15-13" x1="1528.54" y1="186.74" x2="1606.98" y2="186.74" xlink:href="#未命名的渐变_15"/><linearGradient id="未命名的渐变_15-14" x1="1445.08" y1="457.64" x2="1530.19" y2="457.64" xlink:href="#未命名的渐变_15"/></defs><title>单水箱 4泵 </title><rect class="cls-1" x="404.12" y="691.85" width="545.71" height="14" transform="translate(1375.83 21.88) rotate(90)"/><rect class="cls-2" x="1059.85" y="882.45" width="195.07" height="88.34"/><rect class="cls-1" x="695" y="409.64" width="287.01" height="14"/><rect class="cls-1" x="1059.78" y="411.58" width="369.67" height="14"/><rect class="cls-1" x="676.59" y="603.57" width="304.35" height="14"/><rect class="cls-1" x="1058.63" y="603.57" width="369.43" height="14"/><rect class="cls-1" x="1059.44" y="986.54" width="362.1" height="14"/><rect class="cls-3" x="1158.88" y="600.34" width="24.9" height="17.43"/><rect class="cls-4" x="1161.37" y="602.84" width="2.49" height="12.54"/><rect class="cls-4" x="1178.8" y="602.54" width="2.49" height="12.74"/><rect class="cls-4" x="1170.96" y="598.94" width="0.74" height="20.08" transform="translate(1403.17 1908.64) rotate(-127.58)"/><polygon class="cls-3" points="1159.48 596.44 1187.19 596.44 1173.34 591.14 1173.34 591.14 1173.34 593.79 1159.48 593.79 1159.48 596.44"/><rect class="cls-3" x="1158.88" y="983.84" width="24.9" height="17.43"/><rect class="cls-4" x="1161.37" y="986.33" width="2.49" height="12.54"/><rect class="cls-4" x="1178.8" y="986.04" width="2.49" height="12.74"/><rect class="cls-4" x="1170.96" y="982.43" width="0.74" height="20.08" transform="translate(1099.27 2526.04) rotate(-127.58)"/><polygon class="cls-3" points="1159.48 979.94 1187.19 979.94 1173.34 974.63 1173.34 974.63 1173.34 977.29 1159.48 977.29 1159.48 979.94"/><rect class="cls-3" x="1158.88" y="409.53" width="24.9" height="17.43"/><rect class="cls-4" x="1161.37" y="412.02" width="2.49" height="12.54"/><rect class="cls-4" x="1178.8" y="411.73" width="2.49" height="12.74"/><rect class="cls-4" x="1170.96" y="408.12" width="0.74" height="20.08" transform="translate(1554.39 1601.44) rotate(-127.58)"/><polygon class="cls-3" points="1159.48 405.63 1187.19 405.63 1173.34 400.32 1173.34 400.32 1173.34 402.98 1159.48 402.98 1159.48 405.63"/><text class="cls-5" transform="translate(906.66 399.49)">1#泵</text><text class="cls-5" transform="translate(906.66 596.61)">2#泵</text><text class="cls-5" transform="translate(906.66 977.29)">4#泵</text><rect class="cls-2" x="1472.46" y="847.43" width="186" height="113.65"/><text class="cls-6" transform="translate(1486.81 878.74)">状态说明 </text><text class="cls-6" transform="translate(1586.82 878.74)">运行状态 </text><text class="cls-6" transform="translate(1586.82 906.29)">停止状态 </text><text class="cls-6" transform="translate(1586.82 933.26)">故障状态 </text><path class="cls-7" d="M1565.55,866.12a7.16,7.16,0,1,0,7.16,7.16,7.16,7.16,0,0,0-7.16-7.16Zm0,13.2a6,6,0,1,1,6-6,6,6,0,0,1-6,6Zm2.87,2.89"/><path class="cls-7" d="M1561.82,872.37c-1.31.66-2.19,2.19-1.31,3.07,1.53,1.53,2.19-.66,3.28-1.32.68-.4,1.32-.87,1.32-1.31s-2-1.09-3.29-.44Zm5,2.18c-.69-.38-1.41-.69-1.79-.48s0,2.26,1.26,3.07,3,.8,3.31-.4c.56-2.09-1.66-1.57-2.78-2.19Zm-.56-1c.38.22,1.94-1.16,2-2.62s-.8-3-2-2.68c-2.1.57-.53,2.23-.51,3.51,0,.79.1,1.57.48,1.79Zm0,0"/><path class="cls-8" d="M1565.55,893.09a7.16,7.16,0,1,0,7.16,7.16,7.15,7.15,0,0,0-7.16-7.16Zm0,13.2a6,6,0,1,1,6-6,6,6,0,0,1-6,6Zm2.87,2.89"/><path class="cls-8" d="M1561.82,899.34c-1.31.66-2.19,2.19-1.31,3.07,1.53,1.53,2.19-.66,3.28-1.32.68-.4,1.32-.87,1.32-1.31s-2-1.1-3.29-.44Zm5,2.18c-.69-.38-1.41-.7-1.79-.48s0,2.25,1.26,3.06,3,.81,3.31-.39c.56-2.1-1.66-1.57-2.78-2.19Zm-.56-1c.38.22,1.94-1.16,2-2.63s-.8-3-2-2.67c-2.1.56-.53,2.23-.51,3.5,0,.79.1,1.58.48,1.8Zm0,0"/><path class="cls-9" d="M1565.55,920.05a7.17,7.17,0,1,0,7.16,7.17,7.16,7.16,0,0,0-7.16-7.17Zm0,13.21a6,6,0,1,1,6-6,6,6,0,0,1-6,6Zm2.87,2.89"/><path class="cls-9" d="M1561.82,926.31c-1.31.66-2.19,2.19-1.31,3.06,1.53,1.54,2.19-.65,3.28-1.31.68-.41,1.32-.88,1.32-1.31s-2-1.1-3.29-.44Zm5,2.18c-.69-.38-1.41-.7-1.79-.48s0,2.25,1.26,3.06,3,.8,3.31-.39c.56-2.1-1.66-1.57-2.78-2.19Zm-.56-1c.38.21,1.94-1.16,2-2.63s-.8-3-2-2.67c-2.1.56-.53,2.22-.51,3.5,0,.79.1,1.58.48,1.8Zm0,0"/><rect class="cls-2" x="1059.85" y="497.7" width="195.07" height="88.34"/><rect class="cls-10" x="1069.46" y="549.51" width="83.11" height="30.2"/><path class="cls-3" d="M1119.57,557.47h1.84v6.58h5.88v-6.58h1.83v15.75h-1.83v-7.4h-5.88v7.4h-1.84Z"/><path class="cls-3" d="M1132.36,572.16l7.17-9h-6.37v-1.61h8.95v1.06l-7.18,9h7.37v1.64h-9.94Z"/><rect class="cls-11" x="1161.07" y="513.44" width="83.11" height="30.2"/><path class="cls-3" d="M1223.18,520.41H1225V527h5.88v-6.58h1.84v15.74h-1.84v-7.39H1225v7.39h-1.83Z"/><rect class="cls-12" x="1161.07" y="897.18" width="83.11" height="30.2"/><path class="cls-3" d="M1223.18,904.14H1225v6.58h5.88v-6.58h1.84v15.75h-1.84v-7.4H1225v7.4h-1.83Z"/><rect class="cls-13" x="1069.46" y="513.23" width="83.11" height="30.2"/><path class="cls-3" d="M1123.92,521.2h2.3l5.3,15.74h-2.16l-2.71-8.78c-.55-1.76-1.08-3.48-1.56-5.31H1125c-.51,1.83-1,3.55-1.56,5.31l-2.76,8.78h-2.07Zm-2.5,9.33h7.22v1.64h-7.22Z"/><rect class="cls-14" x="1069.46" y="934.26" width="83.11" height="30.2"/><path class="cls-3" d="M1119.57,942.22h1.84v6.58h5.88v-6.58h1.83V958h-1.83v-7.39h-5.88V958h-1.84Z"/><path class="cls-3" d="M1132.36,956.91l7.17-9h-6.37V946.3h8.95v1.06l-7.18,9h7.37V958h-9.94Z"/><rect class="cls-15" x="1069.46" y="897.98" width="83.11" height="30.2"/><path class="cls-3" d="M1123.92,906h2.3l5.3,15.74h-2.16l-2.71-8.78c-.55-1.75-1.08-3.48-1.56-5.31H1125c-.51,1.83-1,3.56-1.56,5.31l-2.76,8.78h-2.07Zm-2.5,9.34h7.22v1.63h-7.22Z"/><rect class="cls-2" x="1059.85" y="304.83" width="195.07" height="88.34"/><rect class="cls-16" x="1069.46" y="356.64" width="83.11" height="30.2"/><path class="cls-3" d="M1119.57,364.6h1.84v6.58h5.88V364.6h1.83v15.75h-1.83V373h-5.88v7.39h-1.84Z"/><path class="cls-3" d="M1132.36,379.29l7.17-9h-6.37v-1.61h8.95v1.06l-7.18,9h7.37v1.63h-9.94Z"/><rect class="cls-17" x="1161.07" y="320.57" width="83.11" height="30.2"/><path class="cls-3" d="M1224.18,328.54H1226v6.58h5.88v-6.58h1.83v15.75h-1.83v-7.4H1226v7.4h-1.84Z"/><rect class="cls-18" x="1069.46" y="320.36" width="83.11" height="30.2"/><path class="cls-3" d="M1123.92,328.33h2.3l5.3,15.74h-2.16l-2.71-8.78c-.55-1.75-1.08-3.48-1.56-5.3H1125c-.51,1.82-1,3.55-1.56,5.3l-2.76,8.78h-2.07Zm-2.5,9.34h7.22v1.63h-7.22Z"/><polygon class="cls-19" points="762.33 443.77 793.81 443.77 799.83 443.77 796.36 451.95 819.5 442.18 796.36 432.41 799.83 440.6 793.81 440.6 762.33 440.6 762.33 443.77"/><polygon class="cls-19" points="1335.01 447.77 1366.49 447.77 1372.52 447.77 1369.04 455.95 1392.19 446.18 1369.04 436.41 1372.52 444.6 1366.49 444.6 1335.01 444.6 1335.01 447.77"/><polygon class="cls-19" points="762.33 636.87 793.81 636.87 799.83 636.87 796.36 645.05 819.5 635.28 796.36 625.51 799.83 633.69 793.81 633.69 762.33 633.69 762.33 636.87"/><polygon class="cls-19" points="1335.01 640.87 1366.49 640.87 1372.52 640.87 1369.04 649.05 1392.19 639.28 1369.04 629.51 1372.52 637.69 1366.49 637.69 1335.01 637.69 1335.01 640.87"/><polygon class="cls-19" points="762.33 1030.94 793.81 1030.94 799.83 1030.94 796.36 1039.13 819.5 1029.36 796.36 1019.59 799.83 1027.77 793.81 1027.77 762.33 1027.77 762.33 1030.94"/><polygon class="cls-19" points="1335.01 1030.94 1366.49 1030.94 1372.52 1030.94 1369.04 1039.13 1392.19 1029.36 1369.04 1019.59 1372.52 1027.77 1366.49 1027.77 1335.01 1027.77 1335.01 1030.94"/><path class="cls-1" d="M696.42,424.08l.12-14.86a26.83,26.83,0,0,0-26.94,27.56h14.26a12.67,12.67,0,0,1,2.78-8.18A13,13,0,0,1,696.42,424.08Z"/><rect class="cls-1" x="674.69" y="430.11" width="3.8" height="16.56" transform="translate(1114.98 -238.21) rotate(90)"/><rect class="cls-1" x="695.83" y="408.45" width="3.8" height="16.56"/><rect class="cls-1" x="697.87" y="986.54" width="282.99" height="14"/><path class="cls-1" d="M684.69,974.1,669.82,974a26.85,26.85,0,0,0,27.57,26.94V986.65a12.58,12.58,0,0,1-8.19-2.78A13,13,0,0,1,684.69,974.1Z"/><rect class="cls-1" x="697.09" y="985.64" width="3.8" height="16.56"/><rect class="cls-1" x="675.44" y="964.5" width="3.8" height="16.56" transform="translate(-295.44 1650.12) rotate(-90)"/><path class="cls-1" d="M1413.21,986.83l-.12,14.86A26.81,26.81,0,0,0,1440,974.13h-14.26a12.61,12.61,0,0,1-2.78,8.18A13,13,0,0,1,1413.21,986.83Z"/><rect class="cls-1" x="1431.14" y="964.25" width="3.8" height="16.56" transform="translate(460.51 2405.57) rotate(-90)"/><rect class="cls-1" x="1410" y="985.9" width="3.8" height="16.56" transform="translate(2823.8 1988.36) rotate(-180)"/><rect class="cls-3" x="872.7" y="408.76" width="3.48" height="15.76"/><rect class="cls-3" x="877.46" y="408.76" width="3.48" height="15.76"/><rect class="cls-3" x="839.55" y="408.76" width="3.48" height="15.76"/><rect class="cls-3" x="844.31" y="408.76" width="3.48" height="15.76"/><circle class="cls-20" cx="859.9" cy="374.75" r="12.98"/><rect class="cls-3" x="853.64" y="364.06" width="1.83" height="10.15" rx="0.91" transform="translate(1719.84 25.89) rotate(135)"/><rect class="cls-3" x="864.87" y="375.29" width="1.83" height="10.15" rx="0.91" transform="translate(1746.95 37.12) rotate(135)"/><rect class="cls-3" x="857" y="358.83" width="6.59" height="3.25"/><polygon class="cls-3" points="859.15 396.17 857.61 396.64 854.04 390.52 855.59 390.06 859.15 396.17"/><polygon class="cls-3" points="862.23 396.17 863.77 396.64 866.94 390.56 865.8 390.06 862.23 396.17"/><rect class="cls-3" x="859.74" y="389.75" width="1.67" height="6.63" transform="translate(1721.16 786.14) rotate(180)"/><rect class="cls-3" x="872.14" y="370.45" width="3.69" height="7.92"/><rect class="cls-3" x="853.56" y="387.93" width="13.63" height="3.72" rx="0.72"/><rect class="cls-3" x="857.5" y="397.75" width="6.45" height="7.65" rx="0.72"/><rect class="cls-3" x="853.81" y="395.27" width="13.73" height="1.57" rx="0.44"/><rect class="cls-3" x="853.81" y="396.96" width="13.73" height="1.57" rx="0.42"/><rect class="cls-3" x="843.52" y="375.23" width="3.03" height="3.14"/><rect class="cls-3" x="843.52" y="370.96" width="3.03" height="3.14"/><circle class="cls-21" cx="860.18" cy="374.76" r="3.33"/><circle class="cls-22" cx="860.22" cy="374.75" r="2.22"/><rect class="cls-3" x="864.87" y="364.06" width="1.83" height="10.15" rx="0.91" transform="translate(1216.97 1242.36) rotate(-135)"/><rect class="cls-3" x="853.64" y="375.29" width="1.83" height="10.15" rx="0.91" transform="translate(1189.86 1253.59) rotate(-135)"/><rect class="cls-3" x="853.71" y="401.53" width="13.48" height="24.85" rx="4.98"/><rect class="cls-3" x="865.97" y="400.03" width="3.31" height="27.82" rx="1.66"/><rect class="cls-3" x="851.71" y="400.03" width="3.31" height="27.82" rx="1.66"/><circle class="cls-23" cx="860.22" cy="374.75" r="1.33"/><circle class="cls-24" cx="860.22" cy="374.75" r="0.94"/><rect class="cls-3" x="1301.61" y="408.76" width="3.48" height="15.76"/><rect class="cls-3" x="1306.37" y="408.76" width="3.48" height="15.76"/><rect class="cls-3" x="1268.46" y="408.76" width="3.48" height="15.76"/><rect class="cls-3" x="1273.22" y="408.76" width="3.48" height="15.76"/><circle class="cls-20" cx="1288.81" cy="374.75" r="12.98"/><rect class="cls-3" x="1282.55" y="364.06" width="1.83" height="10.15" rx="0.91" transform="translate(2452.04 -277.39) rotate(135)"/><rect class="cls-3" x="1293.78" y="375.29" width="1.83" height="10.15" rx="0.91" transform="translate(2479.14 -266.17) rotate(135)"/><rect class="cls-3" x="1285.91" y="358.83" width="6.59" height="3.25"/><polygon class="cls-3" points="1288.06 396.17 1286.52 396.64 1282.95 390.52 1284.49 390.06 1288.06 396.17"/><polygon class="cls-3" points="1291.14 396.17 1292.68 396.64 1295.86 390.56 1294.71 390.06 1291.14 396.17"/><rect class="cls-3" x="1288.66" y="389.75" width="1.67" height="6.63" transform="translate(2578.99 786.14) rotate(180)"/><rect class="cls-3" x="1301.06" y="370.45" width="3.69" height="7.92"/><rect class="cls-3" x="1282.47" y="387.93" width="13.63" height="3.72" rx="0.72"/><rect class="cls-3" x="1286.41" y="397.75" width="6.45" height="7.65" rx="0.72"/><rect class="cls-3" x="1282.72" y="395.27" width="13.73" height="1.57" rx="0.44"/><rect class="cls-3" x="1282.72" y="396.96" width="13.73" height="1.57" rx="0.42"/><rect class="cls-3" x="1272.43" y="375.23" width="3.03" height="3.14"/><rect class="cls-3" x="1272.43" y="370.96" width="3.03" height="3.14"/><circle class="cls-21" cx="1289.09" cy="374.76" r="3.33"/><circle class="cls-22" cx="1289.13" cy="374.75" r="2.22"/><rect class="cls-3" x="1293.78" y="364.06" width="1.83" height="10.15" rx="0.91" transform="translate(1949.16 1545.65) rotate(-135)"/><rect class="cls-3" x="1282.55" y="375.29" width="1.83" height="10.15" rx="0.91" transform="translate(1922.06 1556.87) rotate(-135)"/><rect class="cls-3" x="1282.63" y="401.53" width="13.48" height="24.85" rx="4.98"/><rect class="cls-3" x="1294.88" y="400.03" width="3.31" height="27.82" rx="1.66"/><rect class="cls-3" x="1280.62" y="400.03" width="3.31" height="27.82" rx="1.66"/><circle class="cls-23" cx="1289.13" cy="374.75" r="1.33"/><circle class="cls-24" cx="1289.13" cy="374.75" r="0.94"/><rect class="cls-3" x="872.7" y="602.45" width="3.48" height="15.76"/><rect class="cls-3" x="877.46" y="602.45" width="3.48" height="15.76"/><rect class="cls-3" x="839.55" y="602.45" width="3.48" height="15.76"/><rect class="cls-3" x="844.31" y="602.45" width="3.48" height="15.76"/><circle class="cls-20" cx="859.9" cy="568.45" r="12.98"/><rect class="cls-3" x="853.64" y="557.76" width="1.83" height="10.15" rx="0.91" transform="translate(1856.8 356.55) rotate(135)"/><rect class="cls-3" x="864.87" y="568.99" width="1.83" height="10.15" rx="0.91" transform="translate(1883.91 367.78) rotate(135)"/><rect class="cls-3" x="857" y="552.53" width="6.59" height="3.25"/><polygon class="cls-3" points="859.15 589.87 857.61 590.34 854.04 584.22 855.59 583.75 859.15 589.87"/><polygon class="cls-3" points="862.23 589.87 863.77 590.34 866.94 584.26 865.8 583.75 862.23 589.87"/><rect class="cls-3" x="859.74" y="583.45" width="1.67" height="6.63" transform="translate(1721.16 1173.54) rotate(180)"/><rect class="cls-3" x="872.14" y="564.15" width="3.69" height="7.92"/><rect class="cls-3" x="853.56" y="581.63" width="13.63" height="3.72" rx="0.72"/><rect class="cls-3" x="857.5" y="591.45" width="6.45" height="7.65" rx="0.72"/><rect class="cls-3" x="853.81" y="588.97" width="13.73" height="1.57" rx="0.44"/><rect class="cls-3" x="853.81" y="590.66" width="13.73" height="1.57" rx="0.42"/><rect class="cls-3" x="843.52" y="568.93" width="3.03" height="3.14"/><rect class="cls-3" x="843.52" y="564.66" width="3.03" height="3.14"/><circle class="cls-21" cx="860.18" cy="568.45" r="3.33"/><circle class="cls-22" cx="860.22" cy="568.45" r="2.22"/><rect class="cls-3" x="864.87" y="557.76" width="1.83" height="10.15" rx="0.91" transform="translate(1080 1573.02) rotate(-135)"/><rect class="cls-3" x="853.64" y="568.99" width="1.83" height="10.15" rx="0.91" transform="translate(1052.9 1584.25) rotate(-135)"/><rect class="cls-3" x="853.71" y="595.23" width="13.48" height="24.85" rx="4.98"/><rect class="cls-3" x="865.97" y="593.73" width="3.31" height="27.82" rx="1.66"/><rect class="cls-3" x="851.71" y="593.73" width="3.31" height="27.82" rx="1.66"/><circle class="cls-23" cx="860.22" cy="568.45" r="1.33"/><circle class="cls-24" cx="860.22" cy="568.45" r="0.94"/><rect class="cls-3" x="1301.61" y="602.45" width="3.48" height="15.76"/><rect class="cls-3" x="1306.37" y="602.45" width="3.48" height="15.76"/><rect class="cls-3" x="1268.46" y="602.45" width="3.48" height="15.76"/><rect class="cls-3" x="1273.22" y="602.45" width="3.48" height="15.76"/><circle class="cls-20" cx="1288.81" cy="568.45" r="12.98"/><rect class="cls-3" x="1282.55" y="557.76" width="1.83" height="10.15" rx="0.91" transform="translate(2589 53.27) rotate(135)"/><rect class="cls-3" x="1293.78" y="568.99" width="1.83" height="10.15" rx="0.91" transform="translate(2616.11 64.49) rotate(135)"/><rect class="cls-3" x="1285.91" y="552.53" width="6.59" height="3.25"/><polygon class="cls-3" points="1288.06 589.87 1286.52 590.34 1282.95 584.22 1284.49 583.75 1288.06 589.87"/><polygon class="cls-3" points="1291.14 589.87 1292.68 590.34 1295.86 584.26 1294.71 583.75 1291.14 589.87"/><rect class="cls-3" x="1288.66" y="583.45" width="1.67" height="6.63" transform="translate(2578.99 1173.54) rotate(180)"/><rect class="cls-3" x="1301.06" y="564.15" width="3.69" height="7.92"/><rect class="cls-3" x="1282.47" y="581.63" width="13.63" height="3.72" rx="0.72"/><rect class="cls-3" x="1286.41" y="591.45" width="6.45" height="7.65" rx="0.72"/><rect class="cls-3" x="1282.72" y="588.97" width="13.73" height="1.57" rx="0.44"/><rect class="cls-3" x="1282.72" y="590.66" width="13.73" height="1.57" rx="0.42"/><rect class="cls-3" x="1272.43" y="568.93" width="3.03" height="3.14"/><rect class="cls-3" x="1272.43" y="564.66" width="3.03" height="3.14"/><circle class="cls-21" cx="1289.09" cy="568.45" r="3.33"/><circle class="cls-22" cx="1289.13" cy="568.45" r="2.22"/><rect class="cls-3" x="1293.78" y="557.76" width="1.83" height="10.15" rx="0.91" transform="translate(1812.19 1876.31) rotate(-135)"/><rect class="cls-3" x="1282.55" y="568.99" width="1.83" height="10.15" rx="0.91" transform="translate(1785.1 1887.53) rotate(-135)"/><rect class="cls-3" x="1282.63" y="595.23" width="13.48" height="24.85" rx="4.98"/><rect class="cls-3" x="1294.88" y="593.73" width="3.31" height="27.82" rx="1.66"/><rect class="cls-3" x="1280.62" y="593.73" width="3.31" height="27.82" rx="1.66"/><circle class="cls-23" cx="1289.13" cy="568.45" r="1.33"/><circle class="cls-24" cx="1289.13" cy="568.45" r="0.94"/><rect class="cls-1" x="676.59" y="792.76" width="304.35" height="14"/><rect class="cls-1" x="1058.63" y="792.76" width="369.43" height="14"/><rect class="cls-3" x="1158.88" y="789.54" width="24.9" height="17.43"/><rect class="cls-4" x="1161.37" y="792.03" width="2.49" height="12.54"/><rect class="cls-4" x="1178.8" y="791.73" width="2.49" height="12.74"/><rect class="cls-4" x="1170.96" y="788.13" width="0.74" height="20.08" transform="translate(1253.25 2213.22) rotate(-127.58)"/><polygon class="cls-3" points="1159.48 785.63 1187.19 785.63 1173.34 780.33 1173.34 780.33 1173.34 782.98 1159.48 782.98 1159.48 785.63"/><text class="cls-5" transform="translate(906.66 785.8)">3#泵</text><rect class="cls-2" x="1059.85" y="686.89" width="195.07" height="88.34"/><rect class="cls-25" x="1069.46" y="738.7" width="83.11" height="30.2"/><path class="cls-3" d="M1119.57,746.66h1.84v6.58h5.88v-6.58h1.83v15.75h-1.83V755h-5.88v7.4h-1.84Z"/><path class="cls-3" d="M1132.36,761.35l7.17-9h-6.37v-1.61h8.95v1.06l-7.18,9h7.37v1.63h-9.94Z"/><rect class="cls-26" x="1161.07" y="702.63" width="83.11" height="30.2"/><path class="cls-3" d="M1223.18,709.6H1225v6.58h5.88V709.6h1.84v15.74h-1.84V718H1225v7.39h-1.83Z"/><rect class="cls-27" x="1069.46" y="702.42" width="83.11" height="30.2"/><path class="cls-3" d="M1123.92,710.39h2.3l5.3,15.74h-2.16l-2.71-8.78c-.55-1.75-1.08-3.48-1.56-5.31H1125c-.51,1.83-1,3.56-1.56,5.31l-2.76,8.78h-2.07Zm-2.5,9.33h7.22v1.64h-7.22Z"/><polygon class="cls-19" points="762.33 826.05 793.81 826.05 799.83 826.05 796.36 834.24 819.5 824.47 796.36 814.7 799.83 822.88 793.81 822.88 762.33 822.88 762.33 826.05"/><polygon class="cls-19" points="1335.01 824.05 1366.49 824.05 1372.52 824.05 1369.04 832.24 1392.19 822.47 1369.04 812.7 1372.52 820.88 1366.49 820.88 1335.01 820.88 1335.01 824.05"/><rect class="cls-3" x="872.7" y="791.64" width="3.48" height="15.76"/><rect class="cls-3" x="877.46" y="791.64" width="3.48" height="15.76"/><rect class="cls-3" x="839.55" y="791.64" width="3.48" height="15.76"/><rect class="cls-3" x="844.31" y="791.64" width="3.48" height="15.76"/><circle class="cls-20" cx="859.9" cy="757.64" r="12.98"/><rect class="cls-3" x="853.64" y="746.95" width="1.83" height="10.15" rx="0.91" transform="translate(1990.58 679.53) rotate(135)"/><rect class="cls-3" x="864.87" y="758.18" width="1.83" height="10.15" rx="0.91" transform="translate(2017.69 690.75) rotate(135)"/><rect class="cls-3" x="857" y="741.72" width="6.59" height="3.25"/><polygon class="cls-3" points="859.15 779.06 857.61 779.53 854.04 773.41 855.59 772.95 859.15 779.06"/><polygon class="cls-3" points="862.23 779.06 863.77 779.53 866.94 773.45 865.8 772.95 862.23 779.06"/><rect class="cls-3" x="859.74" y="772.64" width="1.67" height="6.63" transform="translate(1721.16 1551.92) rotate(180)"/><rect class="cls-3" x="872.14" y="753.34" width="3.69" height="7.92"/><rect class="cls-3" x="853.56" y="770.82" width="13.63" height="3.72" rx="0.72"/><rect class="cls-3" x="857.5" y="780.64" width="6.45" height="7.65" rx="0.72"/><rect class="cls-3" x="853.81" y="778.16" width="13.73" height="1.57" rx="0.44"/><rect class="cls-3" x="853.81" y="779.85" width="13.73" height="1.57" rx="0.42"/><rect class="cls-3" x="843.52" y="758.12" width="3.03" height="3.14"/><rect class="cls-3" x="843.52" y="753.85" width="3.03" height="3.14"/><circle class="cls-21" cx="860.18" cy="757.65" r="3.33"/><circle class="cls-22" cx="860.22" cy="757.64" r="2.22"/><rect class="cls-3" x="864.87" y="746.95" width="1.83" height="10.15" rx="0.91" transform="translate(946.23 1895.99) rotate(-135)"/><rect class="cls-3" x="853.64" y="758.18" width="1.83" height="10.15" rx="0.91" transform="translate(919.12 1907.22) rotate(-135)"/><rect class="cls-3" x="853.71" y="784.42" width="13.48" height="24.85" rx="4.98"/><rect class="cls-3" x="865.97" y="782.92" width="3.31" height="27.82" rx="1.66"/><rect class="cls-3" x="851.71" y="782.92" width="3.31" height="27.82" rx="1.66"/><circle class="cls-23" cx="860.22" cy="757.64" r="1.33"/><circle class="cls-24" cx="860.22" cy="757.64" r="0.94"/><rect class="cls-3" x="1301.61" y="791.64" width="3.48" height="15.76"/><rect class="cls-3" x="1306.37" y="791.64" width="3.48" height="15.76"/><rect class="cls-3" x="1268.46" y="791.64" width="3.48" height="15.76"/><rect class="cls-3" x="1273.22" y="791.64" width="3.48" height="15.76"/><circle class="cls-20" cx="1288.81" cy="757.64" r="12.98"/><rect class="cls-3" x="1282.55" y="746.95" width="1.83" height="10.15" rx="0.91" transform="translate(2722.78 376.25) rotate(135)"/><rect class="cls-3" x="1293.78" y="758.18" width="1.83" height="10.15" rx="0.91" transform="translate(2749.89 387.46) rotate(135)"/><rect class="cls-3" x="1285.91" y="741.72" width="6.59" height="3.25"/><polygon class="cls-3" points="1288.06 779.06 1286.52 779.53 1282.95 773.41 1284.49 772.95 1288.06 779.06"/><polygon class="cls-3" points="1291.14 779.06 1292.68 779.53 1295.86 773.45 1294.71 772.95 1291.14 779.06"/><rect class="cls-3" x="1288.66" y="772.64" width="1.67" height="6.63" transform="translate(2578.99 1551.92) rotate(180)"/><rect class="cls-3" x="1301.06" y="753.34" width="3.69" height="7.92"/><rect class="cls-3" x="1282.47" y="770.82" width="13.63" height="3.72" rx="0.72"/><rect class="cls-3" x="1286.41" y="780.64" width="6.45" height="7.65" rx="0.72"/><rect class="cls-3" x="1282.72" y="778.16" width="13.73" height="1.57" rx="0.44"/><rect class="cls-3" x="1282.72" y="779.85" width="13.73" height="1.57" rx="0.42"/><rect class="cls-3" x="1272.43" y="758.12" width="3.03" height="3.14"/><rect class="cls-3" x="1272.43" y="753.85" width="3.03" height="3.14"/><circle class="cls-21" cx="1289.09" cy="757.65" r="3.33"/><circle class="cls-22" cx="1289.13" cy="757.64" r="2.22"/><rect class="cls-3" x="1293.78" y="746.95" width="1.83" height="10.15" rx="0.91" transform="translate(1678.42 2199.28) rotate(-135)"/><rect class="cls-3" x="1282.55" y="758.18" width="1.83" height="10.15" rx="0.91" transform="translate(1651.32 2210.5) rotate(-135)"/><rect class="cls-3" x="1282.63" y="784.42" width="13.48" height="24.85" rx="4.98"/><rect class="cls-3" x="1294.88" y="782.92" width="3.31" height="27.82" rx="1.66"/><rect class="cls-3" x="1280.62" y="782.92" width="3.31" height="27.82" rx="1.66"/><circle class="cls-23" cx="1289.13" cy="757.64" r="1.33"/><circle class="cls-24" cx="1289.13" cy="757.64" r="0.94"/><rect class="cls-3" x="872.7" y="985.87" width="3.48" height="15.76"/><rect class="cls-3" x="877.46" y="985.87" width="3.48" height="15.76"/><rect class="cls-3" x="839.55" y="985.87" width="3.48" height="15.76"/><rect class="cls-3" x="844.31" y="985.87" width="3.48" height="15.76"/><circle class="cls-20" cx="859.9" cy="951.87" r="12.98"/><rect class="cls-3" x="853.64" y="941.18" width="1.83" height="10.15" rx="0.91" transform="translate(2127.92 1011.09) rotate(135)"/><rect class="cls-3" x="864.87" y="952.41" width="1.83" height="10.15" rx="0.91" transform="translate(2155.03 1022.32) rotate(135)"/><rect class="cls-3" x="857" y="935.95" width="6.59" height="3.25"/><polygon class="cls-3" points="859.15 973.29 857.61 973.76 854.04 967.64 855.59 967.17 859.15 973.29"/><polygon class="cls-3" points="862.23 973.29 863.77 973.76 866.94 967.68 865.8 967.17 862.23 973.29"/><rect class="cls-3" x="859.74" y="966.87" width="1.67" height="6.63" transform="translate(1721.16 1940.38) rotate(180)"/><rect class="cls-3" x="872.14" y="947.57" width="3.69" height="7.92"/><rect class="cls-3" x="853.56" y="965.05" width="13.63" height="3.72" rx="0.72"/><rect class="cls-3" x="857.5" y="974.87" width="6.45" height="7.65" rx="0.72"/><rect class="cls-3" x="853.81" y="972.39" width="13.73" height="1.57" rx="0.44"/><rect class="cls-3" x="853.81" y="974.08" width="13.73" height="1.57" rx="0.42"/><rect class="cls-3" x="843.52" y="952.35" width="3.03" height="3.14"/><rect class="cls-3" x="843.52" y="948.08" width="3.03" height="3.14"/><circle class="cls-21" cx="860.18" cy="951.87" r="3.33"/><circle class="cls-22" cx="860.22" cy="951.87" r="2.22"/><rect class="cls-3" x="864.87" y="941.18" width="1.83" height="10.15" rx="0.91" transform="translate(808.89 2227.56) rotate(-135)"/><rect class="cls-3" x="853.64" y="952.41" width="1.83" height="10.15" rx="0.91" transform="translate(781.78 2238.79) rotate(-135)"/><rect class="cls-3" x="853.71" y="978.65" width="13.48" height="24.85" rx="4.98"/><rect class="cls-3" x="865.97" y="977.15" width="3.31" height="27.82" rx="1.66"/><rect class="cls-3" x="851.71" y="977.15" width="3.31" height="27.82" rx="1.66"/><circle class="cls-23" cx="860.22" cy="951.87" r="1.33"/><circle class="cls-24" cx="860.22" cy="951.87" r="0.94"/><rect class="cls-3" x="1301.61" y="985.87" width="3.48" height="15.76"/><rect class="cls-3" x="1306.37" y="985.87" width="3.48" height="15.76"/><rect class="cls-3" x="1268.46" y="985.87" width="3.48" height="15.76"/><rect class="cls-3" x="1273.22" y="985.87" width="3.48" height="15.76"/><circle class="cls-20" cx="1288.81" cy="951.87" r="12.98"/><rect class="cls-3" x="1282.55" y="941.18" width="1.83" height="10.15" rx="0.91" transform="translate(2860.12 707.81) rotate(135)"/><rect class="cls-3" x="1293.78" y="952.41" width="1.83" height="10.15" rx="0.91" transform="translate(2887.23 719.03) rotate(135)"/><rect class="cls-3" x="1285.91" y="935.95" width="6.59" height="3.25"/><polygon class="cls-3" points="1288.06 973.29 1286.52 973.76 1282.95 967.64 1284.49 967.17 1288.06 973.29"/><polygon class="cls-3" points="1291.14 973.29 1292.68 973.76 1295.86 967.68 1294.71 967.17 1291.14 973.29"/><rect class="cls-3" x="1288.66" y="966.87" width="1.67" height="6.63" transform="translate(2578.99 1940.38) rotate(180)"/><rect class="cls-3" x="1301.06" y="947.57" width="3.69" height="7.92"/><rect class="cls-3" x="1282.47" y="965.05" width="13.63" height="3.72" rx="0.72"/><rect class="cls-3" x="1286.41" y="974.87" width="6.45" height="7.65" rx="0.72"/><rect class="cls-3" x="1282.72" y="972.39" width="13.73" height="1.57" rx="0.44"/><rect class="cls-3" x="1282.72" y="974.08" width="13.73" height="1.57" rx="0.42"/><rect class="cls-3" x="1272.43" y="952.35" width="3.03" height="3.14"/><rect class="cls-3" x="1272.43" y="948.08" width="3.03" height="3.14"/><circle class="cls-21" cx="1289.09" cy="951.87" r="3.33"/><circle class="cls-22" cx="1289.13" cy="951.87" r="2.22"/><rect class="cls-3" x="1293.78" y="941.18" width="1.83" height="10.15" rx="0.91" transform="translate(1541.08 2530.85) rotate(-135)"/><rect class="cls-3" x="1282.55" y="952.41" width="1.83" height="10.15" rx="0.91" transform="translate(1513.98 2542.07) rotate(-135)"/><rect class="cls-3" x="1282.63" y="978.65" width="13.48" height="24.85" rx="4.98"/><rect class="cls-3" x="1294.88" y="977.15" width="3.31" height="27.82" rx="1.66"/><rect class="cls-3" x="1280.62" y="977.15" width="3.31" height="27.82" rx="1.66"/><circle class="cls-23" cx="1289.13" cy="951.87" r="1.33"/><circle class="cls-24" cx="1289.13" cy="951.87" r="0.94"/><text class="cls-28" transform="translate(1007.63 276.7)">SANLEY</text><ellipse class="cls-29" cx="1040.62" cy="312.43" rx="2.12" ry="2.06"/><circle class="cls-30" cx="1040.62" cy="312.43" r="1.84"/><circle class="cls-29" cx="1040.62" cy="312.43" r="1.43"/><circle class="cls-30" cx="1040.62" cy="312.43" r="1.02"/><ellipse class="cls-29" cx="1040.62" cy="319.36" rx="2.12" ry="2.06"/><circle class="cls-30" cx="1040.62" cy="319.36" r="1.84"/><circle class="cls-29" cx="1040.62" cy="319.36" r="1.43"/><circle class="cls-30" cx="1040.62" cy="319.36" r="1.02"/><rect class="cls-31" x="998.21" y="283.7" width="46.2" height="58.47" rx="10.76"/><rect class="cls-31" x="997.67" y="266.03" width="46.91" height="75.46" rx="10.76"/><rect class="cls-32" x="998.35" y="289.15" width="8.16" height="45.27"/><rect class="cls-32" x="1036.43" y="289.15" width="8.16" height="45.27"/><rect class="cls-33" x="1008.21" y="283.36" width="2.04" height="58.47"/><rect class="cls-33" x="1012.29" y="283.36" width="2.04" height="58.47"/><rect class="cls-33" x="1016.37" y="283.36" width="2.04" height="58.47"/><rect class="cls-33" x="1020.45" y="283.36" width="2.04" height="58.47"/><rect class="cls-33" x="1024.53" y="283.36" width="2.04" height="58.47"/><rect class="cls-33" x="1028.61" y="283.36" width="2.04" height="58.47"/><rect class="cls-33" x="1032.69" y="283.36" width="2.04" height="58.47"/><path class="cls-31" d="M1048.43,334.31h-2.56l-1.1-1.1V313.66l1.1-1.1h2.56l1.1,1.1v19.55Z"/><rect class="cls-31" x="999.99" y="342.17" width="41.87" height="9.52"/><rect class="cls-31" x="1007.87" y="342.17" width="4.76" height="9.52"/><rect class="cls-31" x="1030.99" y="342.17" width="4.76" height="9.52"/><rect class="cls-31" x="989.11" y="352.37" width="63.91" height="3.4" rx="1.1"/><rect class="cls-31" x="990.47" y="355.77" width="61.19" height="2.72" rx="1.1"/><rect class="cls-31" x="996.93" y="358.82" width="48.27" height="3.4" rx="1.1"/><rect class="cls-34" x="1003.06" y="416.61" width="35.35" height="3.4" rx="1.1"/><rect class="cls-31" x="1001.69" y="443.81" width="38.75" height="3.4" rx="1.1"/><rect class="cls-31" x="1007.47" y="362.22" width="27.19" height="20.4"/><rect class="cls-35" x="998.97" y="382.62" width="44.19" height="6.8" rx="1.1"/><rect class="cls-31" x="1004.34" y="389.42" width="33.51" height="27.19"/><rect class="cls-31" x="1003.73" y="420.01" width="34.12" height="23.79"/><rect class="cls-31" x="1007.81" y="389.42" width="26.51" height="27.19" rx="0.6"/><rect class="cls-31" x="992.34" y="408.4" width="10.72" height="18.07"/><rect class="cls-31" x="1038.4" y="408.4" width="10.72" height="18.07"/><rect class="cls-31" x="988.66" y="403.36" width="3.68" height="28.39" rx="0.4"/><rect class="cls-31" x="982.3" y="403.36" width="3.68" height="28.39" rx="0.4"/><rect class="cls-31" x="1055.7" y="403.36" width="3.68" height="28.39" rx="0.4"/><rect class="cls-31" x="1049.34" y="403.36" width="3.68" height="28.39" rx="0.4"/><text class="cls-28" transform="translate(1007.1 469.59)">SANLEY</text><ellipse class="cls-29" cx="1040.09" cy="505.32" rx="2.12" ry="2.06"/><circle class="cls-30" cx="1040.09" cy="505.32" r="1.84"/><circle class="cls-29" cx="1040.09" cy="505.32" r="1.43"/><circle class="cls-30" cx="1040.09" cy="505.32" r="1.02"/><ellipse class="cls-29" cx="1040.09" cy="512.25" rx="2.12" ry="2.06"/><circle class="cls-30" cx="1040.09" cy="512.25" r="1.84"/><circle class="cls-29" cx="1040.09" cy="512.25" r="1.43"/><circle class="cls-30" cx="1040.09" cy="512.25" r="1.02"/><rect class="cls-31" x="997.68" y="476.59" width="46.2" height="58.47" rx="10.76"/><rect class="cls-31" x="997.14" y="458.92" width="46.91" height="75.46" rx="10.76"/><rect class="cls-32" x="997.82" y="482.04" width="8.16" height="45.27"/><rect class="cls-32" x="1035.9" y="482.04" width="8.16" height="45.27"/><rect class="cls-33" x="1007.68" y="476.25" width="2.04" height="58.47"/><rect class="cls-33" x="1011.76" y="476.25" width="2.04" height="58.47"/><rect class="cls-33" x="1015.84" y="476.25" width="2.04" height="58.47"/><rect class="cls-33" x="1019.92" y="476.25" width="2.04" height="58.47"/><rect class="cls-33" x="1024" y="476.25" width="2.04" height="58.47"/><rect class="cls-33" x="1028.08" y="476.25" width="2.04" height="58.47"/><rect class="cls-33" x="1032.16" y="476.25" width="2.04" height="58.47"/><path class="cls-31" d="M1047.9,527.2h-2.56l-1.1-1.1V506.55l1.1-1.1h2.56l1.1,1.1V526.1Z"/><rect class="cls-31" x="999.46" y="535.06" width="41.87" height="9.52"/><rect class="cls-31" x="1007.34" y="535.06" width="4.76" height="9.52"/><rect class="cls-31" x="1030.46" y="535.06" width="4.76" height="9.52"/><rect class="cls-31" x="988.58" y="545.26" width="63.91" height="3.4" rx="1.1"/><rect class="cls-31" x="989.94" y="548.66" width="61.19" height="2.72" rx="1.1"/><rect class="cls-31" x="996.4" y="551.71" width="48.27" height="3.4" rx="1.1"/><rect class="cls-34" x="1002.53" y="609.5" width="35.35" height="3.4" rx="1.1"/><rect class="cls-31" x="1001.16" y="636.7" width="38.75" height="3.4" rx="1.1"/><rect class="cls-31" x="1006.94" y="555.11" width="27.19" height="20.4"/><rect class="cls-35" x="998.44" y="575.51" width="44.19" height="6.8" rx="1.1"/><rect class="cls-31" x="1003.8" y="582.31" width="33.51" height="27.19"/><rect class="cls-31" x="1003.2" y="612.9" width="34.12" height="23.79"/><rect class="cls-31" x="1007.28" y="582.31" width="26.51" height="27.19" rx="0.6"/><rect class="cls-31" x="991.81" y="601.29" width="10.72" height="18.07"/><rect class="cls-31" x="1037.87" y="601.29" width="10.72" height="18.07"/><rect class="cls-31" x="988.13" y="596.26" width="3.68" height="28.39" rx="0.4"/><rect class="cls-31" x="981.77" y="596.26" width="3.68" height="28.39" rx="0.4"/><rect class="cls-31" x="1055.17" y="596.26" width="3.68" height="28.39" rx="0.4"/><rect class="cls-31" x="1048.81" y="596.26" width="3.68" height="28.39" rx="0.4"/><text class="cls-28" transform="translate(1006.58 660.81)">SANLEY</text><ellipse class="cls-29" cx="1039.56" cy="696.54" rx="2.12" ry="2.06"/><circle class="cls-30" cx="1039.56" cy="696.54" r="1.84"/><circle class="cls-29" cx="1039.56" cy="696.54" r="1.43"/><circle class="cls-30" cx="1039.56" cy="696.54" r="1.02"/><ellipse class="cls-29" cx="1039.56" cy="703.47" rx="2.12" ry="2.06"/><circle class="cls-30" cx="1039.56" cy="703.47" r="1.84"/><circle class="cls-29" cx="1039.56" cy="703.47" r="1.43"/><circle class="cls-30" cx="1039.56" cy="703.47" r="1.02"/><rect class="cls-31" x="997.16" y="667.81" width="46.2" height="58.47" rx="10.76"/><rect class="cls-31" x="996.62" y="650.13" width="46.91" height="75.46" rx="10.76"/><rect class="cls-32" x="997.3" y="673.26" width="8.16" height="45.27"/><rect class="cls-32" x="1035.37" y="673.26" width="8.16" height="45.27"/><rect class="cls-33" x="1007.16" y="667.47" width="2.04" height="58.47"/><rect class="cls-33" x="1011.24" y="667.47" width="2.04" height="58.47"/><rect class="cls-33" x="1015.32" y="667.47" width="2.04" height="58.47"/><rect class="cls-33" x="1019.4" y="667.47" width="2.04" height="58.47"/><rect class="cls-33" x="1023.47" y="667.47" width="2.04" height="58.47"/><rect class="cls-33" x="1027.55" y="667.47" width="2.04" height="58.47"/><rect class="cls-33" x="1031.63" y="667.47" width="2.04" height="58.47"/><path class="cls-31" d="M1047.38,718.42h-2.56l-1.1-1.1V697.76l1.1-1.1h2.56l1.1,1.1v19.56Z"/><rect class="cls-31" x="998.94" y="726.27" width="41.87" height="9.52"/><rect class="cls-31" x="1006.82" y="726.27" width="4.76" height="9.52"/><rect class="cls-31" x="1029.93" y="726.27" width="4.76" height="9.52"/><rect class="cls-31" x="988.06" y="736.47" width="63.91" height="3.4" rx="1.1"/><rect class="cls-31" x="989.42" y="739.87" width="61.19" height="2.72" rx="1.1"/><rect class="cls-31" x="995.88" y="742.93" width="48.27" height="3.4" rx="1.1"/><rect class="cls-34" x="1002" y="800.72" width="35.35" height="3.4" rx="1.1"/><rect class="cls-31" x="1000.64" y="827.91" width="38.75" height="3.4" rx="1.1"/><rect class="cls-31" x="1006.42" y="746.33" width="27.19" height="20.4"/><rect class="cls-35" x="997.92" y="766.73" width="44.19" height="6.8" rx="1.1"/><rect class="cls-31" x="1003.28" y="773.52" width="33.51" height="27.19"/><rect class="cls-31" x="1002.68" y="804.12" width="34.12" height="23.79"/><rect class="cls-31" x="1006.76" y="773.52" width="26.51" height="27.19" rx="0.6"/><rect class="cls-31" x="991.28" y="792.51" width="10.72" height="18.07"/><rect class="cls-31" x="1037.35" y="792.51" width="10.72" height="18.07"/><rect class="cls-31" x="987.6" y="787.47" width="3.68" height="28.39" rx="0.4"/><rect class="cls-31" x="981.25" y="787.47" width="3.68" height="28.39" rx="0.4"/><rect class="cls-31" x="1054.65" y="787.47" width="3.68" height="28.39" rx="0.4"/><rect class="cls-31" x="1048.29" y="787.47" width="3.68" height="28.39" rx="0.4"/><text class="cls-28" transform="translate(1006.58 851.52)">SANLEY</text><ellipse class="cls-29" cx="1039.56" cy="887.24" rx="2.12" ry="2.06"/><circle class="cls-30" cx="1039.56" cy="887.24" r="1.84"/><circle class="cls-29" cx="1039.56" cy="887.24" r="1.43"/><circle class="cls-30" cx="1039.56" cy="887.24" r="1.02"/><ellipse class="cls-29" cx="1039.56" cy="894.18" rx="2.12" ry="2.06"/><circle class="cls-30" cx="1039.56" cy="894.18" r="1.84"/><circle class="cls-29" cx="1039.56" cy="894.18" r="1.43"/><circle class="cls-30" cx="1039.56" cy="894.18" r="1.02"/><rect class="cls-31" x="997.16" y="858.52" width="46.2" height="58.47" rx="10.76"/><rect class="cls-31" x="996.62" y="840.84" width="46.91" height="75.46" rx="10.76"/><rect class="cls-32" x="997.3" y="863.97" width="8.16" height="45.27"/><rect class="cls-32" x="1035.37" y="863.97" width="8.16" height="45.27"/><rect class="cls-33" x="1007.16" y="858.18" width="2.04" height="58.47"/><rect class="cls-33" x="1011.24" y="858.18" width="2.04" height="58.47"/><rect class="cls-33" x="1015.32" y="858.18" width="2.04" height="58.47"/><rect class="cls-33" x="1019.4" y="858.18" width="2.04" height="58.47"/><rect class="cls-33" x="1023.47" y="858.18" width="2.04" height="58.47"/><rect class="cls-33" x="1027.55" y="858.18" width="2.04" height="58.47"/><rect class="cls-33" x="1031.63" y="858.18" width="2.04" height="58.47"/><path class="cls-31" d="M1047.38,909.13h-2.56l-1.1-1.1V888.47l1.1-1.1h2.56l1.1,1.1V908Z"/><rect class="cls-31" x="998.94" y="916.98" width="41.87" height="9.52"/><rect class="cls-31" x="1006.82" y="916.98" width="4.76" height="9.52"/><rect class="cls-31" x="1029.93" y="916.98" width="4.76" height="9.52"/><rect class="cls-31" x="988.06" y="927.18" width="63.91" height="3.4" rx="1.1"/><rect class="cls-31" x="989.42" y="930.58" width="61.19" height="2.72" rx="1.1"/><rect class="cls-31" x="995.88" y="933.64" width="48.27" height="3.4" rx="1.1"/><rect class="cls-34" x="1002" y="991.43" width="35.35" height="3.4" rx="1.1"/><rect class="cls-31" x="1000.64" y="1018.62" width="38.75" height="3.4" rx="1.1"/><rect class="cls-31" x="1006.42" y="937.04" width="27.19" height="20.4"/><rect class="cls-35" x="997.92" y="957.43" width="44.19" height="6.8" rx="1.1"/><rect class="cls-31" x="1003.28" y="964.23" width="33.51" height="27.19"/><rect class="cls-31" x="1002.68" y="994.83" width="34.12" height="23.79"/><rect class="cls-31" x="1006.76" y="964.23" width="26.51" height="27.19" rx="0.6"/><rect class="cls-31" x="991.28" y="983.22" width="10.72" height="18.07"/><rect class="cls-31" x="1037.35" y="983.22" width="10.72" height="18.07"/><rect class="cls-31" x="987.6" y="978.18" width="3.68" height="28.39" rx="0.4"/><rect class="cls-31" x="981.25" y="978.18" width="3.68" height="28.39" rx="0.4"/><rect class="cls-31" x="1054.65" y="978.18" width="3.68" height="28.39" rx="0.4"/><rect class="cls-31" x="1048.29" y="978.18" width="3.68" height="28.39" rx="0.4"/><rect class="cls-1" x="343.55" y="416.85" width="298.49" height="14" transform="translate(916.65 -68.94) rotate(90)"/><path class="cls-1" d="M476.83,268.4H180.65c-2.81,0-5.09-3.14-5.09-7h0c0-3.87,2.28-7,5.09-7H476.83c2.81,0,5.09,3.13,5.09,7h0C481.92,265.26,479.64,268.4,476.83,268.4Z"/><text class="cls-5" transform="translate(290.9 317.2)">进水阀门</text><text class="cls-36" transform="translate(161.34 235.51)">市政进水</text><polygon class="cls-19" points="518.94 388.64 518.94 420.13 518.94 426.15 510.75 422.67 520.52 445.82 530.29 422.67 522.11 426.15 522.11 420.13 522.11 388.64 518.94 388.64"/><polygon class="cls-19" points="170.47 308.42 201.95 308.42 207.97 308.42 204.5 316.61 227.64 306.84 204.5 297.07 207.97 305.25 201.95 305.25 170.47 305.25 170.47 308.42"/><polygon class="cls-19" points="477.85 829.29 509.33 829.29 515.35 829.29 511.88 837.48 535.02 827.7 511.88 817.93 515.35 826.12 509.33 826.12 477.85 826.12 477.85 829.29"/><path class="cls-1" d="M485.67,281.18l14.86.12A26.83,26.83,0,0,0,473,254.36v14.27a12.58,12.58,0,0,1,8.19,2.78A13,13,0,0,1,485.67,281.18Z"/><rect class="cls-1" x="469.47" y="253.08" width="3.8" height="16.56" transform="translate(942.74 522.71) rotate(-180)"/><rect class="cls-1" x="491.12" y="274.22" width="3.8" height="16.56" transform="translate(775.52 -210.52) rotate(90)"/><rect class="cls-3" x="344.87" y="253.27" width="3.48" height="15.76"/><rect class="cls-3" x="349.64" y="253.27" width="3.48" height="15.76"/><rect class="cls-3" x="311.72" y="253.27" width="3.48" height="15.76"/><rect class="cls-3" x="316.48" y="253.27" width="3.48" height="15.76"/><circle class="cls-20" cx="332.07" cy="219.27" r="12.98"/><rect class="cls-3" x="325.82" y="208.58" width="1.83" height="10.15" rx="0.91" transform="translate(708.84 133.69) rotate(135)"/><rect class="cls-3" x="337.05" y="219.8" width="1.83" height="10.15" rx="0.91" transform="translate(735.95 144.92) rotate(135)"/><rect class="cls-3" x="329.18" y="203.35" width="6.59" height="3.25"/><polygon class="cls-3" points="331.32 240.69 329.78 241.16 326.21 235.04 327.76 234.57 331.32 240.69"/><polygon class="cls-3" points="334.4 240.69 335.95 241.16 339.12 235.08 337.97 234.57 334.4 240.69"/><rect class="cls-3" x="331.92" y="234.27" width="1.67" height="6.63" transform="translate(665.51 475.17) rotate(180)"/><rect class="cls-3" x="344.32" y="214.97" width="3.69" height="7.92"/><rect class="cls-3" x="325.73" y="232.44" width="13.63" height="3.72" rx="0.72"/><rect class="cls-3" x="329.68" y="242.27" width="6.45" height="7.65" rx="0.72"/><rect class="cls-3" x="325.98" y="239.78" width="13.73" height="1.57" rx="0.44"/><rect class="cls-3" x="325.98" y="241.48" width="13.73" height="1.57" rx="0.42"/><rect class="cls-3" x="315.7" y="219.75" width="3.03" height="3.14"/><rect class="cls-3" x="315.7" y="215.48" width="3.03" height="3.14"/><circle class="cls-21" cx="332.35" cy="219.27" r="3.33"/><circle class="cls-22" cx="332.39" cy="219.27" r="2.22"/><rect class="cls-3" x="337.05" y="208.58" width="1.83" height="10.15" rx="0.91" transform="translate(425.86 603.7) rotate(-135)"/><rect class="cls-3" x="325.82" y="219.8" width="1.83" height="10.15" rx="0.91" transform="translate(398.75 614.93) rotate(-135)"/><rect class="cls-3" x="325.89" y="246.05" width="13.48" height="24.85" rx="4.98"/><rect class="cls-3" x="338.14" y="244.55" width="3.31" height="27.82" rx="1.66"/><rect class="cls-3" x="323.88" y="244.55" width="3.31" height="27.82" rx="1.66"/><circle class="cls-23" cx="332.39" cy="219.27" r="1.33"/><circle class="cls-24" cx="332.39" cy="219.27" r="0.94"/><rect class="cls-1" x="343.55" y="416.85" width="298.49" height="14" transform="translate(916.65 -68.94) rotate(90)"/><path class="cls-1" d="M476.83,268.4H180.65c-2.81,0-5.09-3.14-5.09-7h0c0-3.87,2.28-7,5.09-7H476.83c2.81,0,5.09,3.13,5.09,7h0C481.92,265.26,479.64,268.4,476.83,268.4Z"/><text class="cls-5" transform="translate(290.9 317.2)">进水阀门</text><text class="cls-36" transform="translate(161.34 235.51)">市政进水</text><polygon class="cls-19" points="518.94 388.64 518.94 420.13 518.94 426.15 510.75 422.67 520.52 445.82 530.29 422.67 522.11 426.15 522.11 420.13 522.11 388.64 518.94 388.64"/><polygon class="cls-19" points="170.47 308.42 201.95 308.42 207.97 308.42 204.5 316.61 227.64 306.84 204.5 297.07 207.97 305.25 201.95 305.25 170.47 305.25 170.47 308.42"/><polygon class="cls-19" points="477.85 829.29 509.33 829.29 515.35 829.29 511.88 837.48 535.02 827.7 511.88 817.93 515.35 826.12 509.33 826.12 477.85 826.12 477.85 829.29"/><path class="cls-1" d="M485.67,281.18l14.86.12A26.83,26.83,0,0,0,473,254.36v14.27a12.58,12.58,0,0,1,8.19,2.78A13,13,0,0,1,485.67,281.18Z"/><rect class="cls-1" x="469.47" y="253.08" width="3.8" height="16.56" transform="translate(942.74 522.71) rotate(-180)"/><rect class="cls-1" x="491.12" y="274.22" width="3.8" height="16.56" transform="translate(775.52 -210.52) rotate(90)"/><rect class="cls-3" x="344.87" y="253.27" width="3.48" height="15.76"/><rect class="cls-3" x="349.64" y="253.27" width="3.48" height="15.76"/><rect class="cls-3" x="311.72" y="253.27" width="3.48" height="15.76"/><rect class="cls-3" x="316.48" y="253.27" width="3.48" height="15.76"/><circle class="cls-20" cx="332.07" cy="219.27" r="12.98"/><rect class="cls-3" x="325.82" y="208.58" width="1.83" height="10.15" rx="0.91" transform="translate(708.84 133.69) rotate(135)"/><rect class="cls-3" x="337.05" y="219.8" width="1.83" height="10.15" rx="0.91" transform="translate(735.95 144.92) rotate(135)"/><rect class="cls-3" x="329.18" y="203.35" width="6.59" height="3.25"/><polygon class="cls-3" points="331.32 240.69 329.78 241.16 326.21 235.04 327.76 234.57 331.32 240.69"/><polygon class="cls-3" points="334.4 240.69 335.95 241.16 339.12 235.08 337.97 234.57 334.4 240.69"/><rect class="cls-3" x="331.92" y="234.27" width="1.67" height="6.63" transform="translate(665.51 475.17) rotate(180)"/><rect class="cls-3" x="344.32" y="214.97" width="3.69" height="7.92"/><rect class="cls-3" x="325.73" y="232.44" width="13.63" height="3.72" rx="0.72"/><rect class="cls-3" x="329.68" y="242.27" width="6.45" height="7.65" rx="0.72"/><rect class="cls-3" x="325.98" y="239.78" width="13.73" height="1.57" rx="0.44"/><rect class="cls-3" x="325.98" y="241.48" width="13.73" height="1.57" rx="0.42"/><rect class="cls-3" x="315.7" y="219.75" width="3.03" height="3.14"/><rect class="cls-3" x="315.7" y="215.48" width="3.03" height="3.14"/><circle class="cls-21" cx="332.35" cy="219.27" r="3.33"/><circle class="cls-22" cx="332.39" cy="219.27" r="2.22"/><rect class="cls-3" x="337.05" y="208.58" width="1.83" height="10.15" rx="0.91" transform="translate(425.86 603.7) rotate(-135)"/><rect class="cls-3" x="325.82" y="219.8" width="1.83" height="10.15" rx="0.91" transform="translate(398.75 614.93) rotate(-135)"/><rect class="cls-3" x="325.89" y="246.05" width="13.48" height="24.85" rx="4.98"/><rect class="cls-3" x="338.14" y="244.55" width="3.31" height="27.82" rx="1.66"/><rect class="cls-3" x="323.88" y="244.55" width="3.31" height="27.82" rx="1.66"/><circle class="cls-23" cx="332.39" cy="219.27" r="1.33"/><circle class="cls-24" cx="332.39" cy="219.27" r="0.94"/><rect class="cls-37" x="279.33" y="563.95" width="315.05" height="212"/><rect class="cls-38" x="280.65" y="615.6" width="312.86" height="158.9"/><rect class="cls-1" x="415.56" y="793.28" width="257.98" height="14"/><circle class="cls-39" cx="394.56" cy="750.95" r="10"/><ellipse class="cls-40" cx="394.81" cy="751.45" rx="8" ry="7.75"/><rect class="cls-1" x="372.79" y="759.95" width="44" height="14" rx="7" transform="translate(1161.75 372.16) rotate(90)"/><path class="cls-1" d="M402.57,780.53l-14.87-.13a26.85,26.85,0,0,0,27.56,27V793.08a12.58,12.58,0,0,1-8.18-2.78A13,13,0,0,1,402.57,780.53Z"/><rect class="cls-1" x="414.97" y="792.07" width="3.8" height="16.56"/><rect class="cls-1" x="393.32" y="770.93" width="3.8" height="16.56" transform="translate(-383.99 1174.43) rotate(-90)"/><rect class="cls-1" x="415.56" y="793.28" width="257.98" height="14"/><circle class="cls-39" cx="394.56" cy="750.95" r="10"/><ellipse class="cls-40" cx="394.81" cy="751.45" rx="8" ry="7.75"/><rect class="cls-1" x="372.79" y="759.95" width="44" height="14" rx="7" transform="translate(1161.75 372.16) rotate(90)"/><path class="cls-1" d="M402.57,780.53l-14.87-.13a26.85,26.85,0,0,0,27.56,27V793.08a12.58,12.58,0,0,1-8.18-2.78A13,13,0,0,1,402.57,780.53Z"/><rect class="cls-1" x="414.97" y="792.07" width="3.8" height="16.56"/><rect class="cls-1" x="393.32" y="770.93" width="3.8" height="16.56" transform="translate(-383.99 1174.43) rotate(-90)"/><rect class="cls-1" x="1017.95" y="552.15" width="830.46" height="12.16" transform="translate(1991.4 -874.95) rotate(90)"/><path class="cls-1" d="M1450.22,130.32q.06-6.45.11-12.91a23.3,23.3,0,0,0-23.4,23.94h12.39a11,11,0,0,1,2.41-7.11A11.33,11.33,0,0,1,1450.22,130.32Z"/><rect class="cls-1" x="1431.35" y="135.55" width="3.3" height="14.38" transform="translate(1575.75 -1290.26) rotate(90)"/><rect class="cls-1" x="1449.71" y="116.75" width="3.3" height="14.38"/><rect class="cls-1" x="1451.59" y="117.57" width="227.15" height="12.88"/><rect class="cls-3" x="1577.27" y="83.43" width="2.73" height="8.46"/><rect class="cls-3" x="1555.02" y="83.43" width="2.47" height="8.46"/><rect class="cls-3" x="1551.94" y="112.94" width="31.63" height="20.78"/><polygon class="cls-3" points="1586.48 128.14 1584.03 134.18 1584.03 113.4 1586.48 119.3 1586.48 128.14"/><polygon class="cls-3" points="1549.01 128.14 1551.46 134.18 1551.46 113.4 1549.01 119.3 1549.01 128.14"/><rect class="cls-3" x="1588.55" y="115.55" width="2.77" height="17.11"/><rect class="cls-3" x="1592.35" y="115.55" width="2.77" height="17.11"/><rect class="cls-3" x="1540.4" y="115.55" width="2.77" height="17.11"/><rect class="cls-3" x="1544.19" y="115.55" width="2.77" height="17.11"/><rect class="cls-3" x="1561.21" y="108.77" width="13.19" height="5.07" rx="0.4"/><rect class="cls-3" x="1562.14" y="100.98" width="11.01" height="3.05" rx="0.4"/><rect class="cls-3" x="1562.24" y="97.14" width="11.01" height="3.29" rx="0.4"/><rect class="cls-3" x="1564.92" y="102.66" width="5.51" height="7.11" rx="0.4"/><circle class="cls-41" cx="1567.82" cy="87.75" r="10.28"/><circle class="cls-42" cx="1567.64" cy="87.92" r="7.33"/><circle class="cls-43" cx="1567.8" cy="87.98" r="9.49"/><rect class="cls-3" x="1553.71" y="84.92" width="2.53" height="1.55"/><rect class="cls-3" x="1553.71" y="88.87" width="2.53" height="1.55"/><rect class="cls-44" x="1562.73" y="86.22" width="9.88" height="3.51"/><polygon class="cls-45" points="1565.38 89.73 1562.73 89.73 1562.73 86.22 1567.96 86.22 1565.38 89.73"/><path class="cls-3" d="M1565.21,118.58l-8.29-3.24a.43.43,0,0,1-.11-.73l7-5.55a.42.42,0,0,1,.69.27l1.33,8.79A.42.42,0,0,1,1565.21,118.58Z"/><path class="cls-3" d="M1570.45,118.58l8.28-3.24a.42.42,0,0,0,.11-.73l-6.95-5.55a.43.43,0,0,0-.69.27l-1.33,8.79A.43.43,0,0,0,1570.45,118.58Z"/><text class="cls-46" transform="translate(1441.77 252.52)">出水阀门</text><text class="cls-47" transform="translate(1610.06 100.85)">供水入户</text><text class="cls-46" transform="translate(1537.41 164.06)">流量计</text><rect class="cls-48" x="1529.54" y="172.85" width="76.44" height="27.78"/><polygon class="cls-19" points="1624.24 157.3 1651.13 157.3 1657.15 157.3 1653.68 165.49 1676.83 155.72 1653.68 145.94 1657.15 154.13 1651.13 154.13 1624.24 154.13 1624.24 157.3"/><rect class="cls-3" x="1431.45" y="218.09" width="3.2" height="14.5" transform="translate(1658.39 -1207.72) rotate(90)"/><rect class="cls-3" x="1431.45" y="222.47" width="3.2" height="14.5" transform="translate(1662.77 -1203.33) rotate(90)"/><rect class="cls-3" x="1431.45" y="187.6" width="3.2" height="14.5" transform="translate(1627.9 -1238.21) rotate(90)"/><rect class="cls-3" x="1431.45" y="191.98" width="3.2" height="14.5" transform="translate(1632.28 -1233.83) rotate(90)"/><circle class="cls-20" cx="1471.58" cy="211.97" r="11.94"/><rect class="cls-3" x="1475.9" y="202.38" width="1.68" height="9.34" rx="0.84" transform="translate(2374.54 1397.67) rotate(-135)"/><rect class="cls-3" x="1465.57" y="212.71" width="1.68" height="9.34" rx="0.84" transform="translate(2349.61 1408) rotate(-135)"/><rect class="cls-3" x="1481.69" y="210.84" width="6.06" height="2.98" transform="translate(1697.05 -1272.39) rotate(90)"/><polygon class="cls-3" points="1451.87 211.28 1451.44 209.85 1457.07 206.57 1457.5 208 1451.87 211.28"/><polygon class="cls-3" points="1451.87 214.11 1451.44 215.53 1457.04 218.44 1457.5 217.39 1451.87 214.11"/><rect class="cls-3" x="1453.96" y="209.54" width="1.54" height="6.1" transform="translate(1242.14 1667.32) rotate(-90)"/><rect class="cls-3" x="1470.2" y="221.28" width="3.39" height="7.28" transform="translate(1696.81 -1246.97) rotate(90)"/><rect class="cls-3" x="1451.48" y="210.69" width="12.54" height="3.42" rx="0.72" transform="translate(1670.15 -1245.34) rotate(90)"/><rect class="cls-3" x="1443.94" y="209.21" width="5.93" height="7.04" rx="0.72" transform="translate(1659.63 -1234.18) rotate(90)"/><rect class="cls-3" x="1445.67" y="211.96" width="12.63" height="1.45" rx="0.44" transform="translate(1664.66 -1239.3) rotate(90)"/><rect class="cls-3" x="1444.11" y="211.96" width="12.63" height="1.45" rx="0.42" transform="translate(1663.1 -1237.74) rotate(90)"/><rect class="cls-3" x="1468.3" y="196.85" width="2.79" height="2.88" transform="translate(1667.99 -1271.4) rotate(90)"/><rect class="cls-3" x="1472.22" y="196.85" width="2.79" height="2.88" transform="translate(1671.91 -1275.32) rotate(90)"/><circle class="cls-21" cx="1471.57" cy="212.22" r="3.07"/><circle class="cls-22" cx="1471.58" cy="212.26" r="2.04"/><rect class="cls-3" x="1475.9" y="212.71" width="1.68" height="9.34" rx="0.84" transform="translate(278.82 1107.88) rotate(-45)"/><rect class="cls-3" x="1465.57" y="202.38" width="1.68" height="9.34" rx="0.84" transform="translate(283.1 1097.56) rotate(-45)"/><rect class="cls-3" x="1429.32" y="201.05" width="12.4" height="22.85" rx="4.98" transform="translate(1647.99 -1223.05) rotate(90)"/><rect class="cls-3" x="1434.01" y="206.27" width="3.04" height="25.58" rx="1.52" transform="translate(1654.6 -1216.46) rotate(90)"/><rect class="cls-3" x="1434.01" y="193.16" width="3.04" height="25.58" rx="1.52" transform="translate(1641.48 -1229.58) rotate(90)"/><circle class="cls-23" cx="1471.58" cy="212.26" r="1.22"/><circle class="cls-24" cx="1471.58" cy="212.26" r="0.86"/><rect class="cls-3" x="1495.95" y="381.91" width="0.63" height="2.18" transform="translate(1879.27 -1113.26) rotate(90)"/><rect class="cls-3" x="1494.28" y="376.29" width="0.63" height="2.18" transform="translate(857.6 -1026.35) rotate(51.42)"/><rect class="cls-3" x="1493.96" y="387.41" width="0.63" height="2.18" transform="translate(2765.43 -487.82) rotate(130.84)"/><rect class="cls-3" x="1488.37" y="390.71" width="0.63" height="2.18" transform="translate(3011.86 614.63) rotate(173.58)"/><rect class="cls-3" x="1488.43" y="372.66" width="0.63" height="2.18" transform="translate(65.33 -200.65) rotate(7.88)"/><rect class="cls-3" x="1496.64" y="380.99" width="0.33" height="1.21" transform="translate(1586.86 -1160.46) rotate(79.04)"/><rect class="cls-3" x="1496.64" y="383.72" width="0.33" height="1.21" transform="translate(2190.59 -996.53) rotate(102.28)"/><rect class="cls-3" x="1496.39" y="384.92" width="0.33" height="1.21" transform="translate(2371.97 -888.02) rotate(110.06)"/><rect class="cls-3" x="1495.98" y="386.07" width="0.33" height="1.21" transform="translate(2536.78 -755.7) rotate(117.84)"/><rect class="cls-3" x="1495.41" y="387.15" width="0.33" height="1.21" transform="translate(2681.88 -602.09) rotate(125.62)"/><rect class="cls-3" x="1493.87" y="389.05" width="0.33" height="1.21" transform="translate(2902.42 -243.13) rotate(141.19)"/><rect class="cls-3" x="1492.92" y="389.82" width="0.33" height="1.21" transform="translate(2973.78 -44.67) rotate(148.97)"/><rect class="cls-3" x="1491.88" y="390.46" width="0.33" height="1.21" transform="translate(3017.31 161.48) rotate(156.75)"/><rect class="cls-3" x="1490.76" y="390.95" width="0.33" height="1.21" transform="translate(3032.28 371.39) rotate(164.54)"/><rect class="cls-3" x="1489.59" y="391.49" width="0.33" height="1.21" transform="translate(3018.54 581.53) rotate(172.32)"/><rect class="cls-3" x="1487.35" y="391.86" width="0.33" height="1.21" transform="translate(2974.33 787.55) rotate(-179.9)"/><rect class="cls-3" x="1486.12" y="391.87" width="0.33" height="1.21" transform="translate(2904.7 985.09) rotate(-172.12)"/><rect class="cls-3" x="1484.91" y="391.71" width="0.33" height="1.21" transform="translate(2809.05 1171.06) rotate(-164.33)"/><rect class="cls-3" x="1496.37" y="379.85" width="0.33" height="1.21" transform="translate(1384.94 -1159.65) rotate(71.59)"/><rect class="cls-3" x="1495.96" y="378.75" width="0.33" height="1.21" transform="translate(1185.01 -1132.43) rotate(64.14)"/><rect class="cls-3" x="1495.41" y="377.71" width="0.33" height="1.21" transform="translate(990.55 -1079.35) rotate(56.7)"/><rect class="cls-3" x="1493.74" y="375.26" width="0.33" height="1.21" transform="translate(618.76 -891.87) rotate(41.26)"/><rect class="cls-3" x="1492.6" y="374.45" width="0.33" height="1.21" transform="translate(439.51 -747.29) rotate(32.72)"/><rect class="cls-3" x="1491.35" y="373.4" width="0.33" height="1.21" transform="translate(283.91 -577.94) rotate(24.17)"/><rect class="cls-3" x="1490.03" y="372.96" width="0.33" height="1.21" transform="translate(155.72 -387.62) rotate(15.63)"/><rect class="cls-3" x="1487.25" y="372.68" width="0.33" height="1.21" transform="translate(-9.03 38.04) rotate(-1.46)"/><rect class="cls-3" x="1485.86" y="372.65" width="0.33" height="1.21" transform="translate(-42.25 263.85) rotate(-10)"/><rect class="cls-3" x="1484.52" y="373.03" width="0.33" height="1.21" transform="translate(-41.73 491.71) rotate(-18.55)"/><rect class="cls-3" x="1469.5" y="381.23" width="5.62" height="3.7" transform="translate(1855.39 -1089.23) rotate(90)"/><rect class="cls-3" x="1441.21" y="378.28" width="5.62" height="9.59" transform="translate(1827.1 -1060.94) rotate(90)"/><rect class="cls-3" x="1461.47" y="381.72" width="5.62" height="2.72" transform="translate(1847.36 -1081.2) rotate(90)"/><rect class="cls-3" x="1445.96" y="382.43" width="6.78" height="1.27" transform="translate(1832.41 -1066.28) rotate(90)"/><polygon class="cls-3" points="1460.55 387.5 1460.55 378.69 1462.72 380.27 1462.72 385.89 1460.55 387.5"/><polygon class="cls-3" points="1470.86 385.45 1470.86 380.7 1468.41 378.33 1465.96 380.7 1465.96 385.45 1468.41 387.83 1470.86 385.45"/><polygon class="cls-3" points="1460.29 386.52 1460.29 379.65 1455.35 376.22 1450.41 379.65 1450.41 386.52 1455.35 389.95 1460.29 386.52"/><rect class="cls-3" x="1453.41" y="371.6" width="2.81" height="8.92" transform="translate(1830.87 -1078.76) rotate(90)"/><rect class="cls-3" x="1454.13" y="371.38" width="1.62" height="6.53" transform="translate(1829.58 -1080.3) rotate(90)"/><rect class="cls-3" x="1453.68" y="371.26" width="2.32" height="3.16" transform="translate(1827.68 -1082) rotate(90)"/><rect class="cls-3" x="1453.94" y="365.7" width="1.15" height="2.8" rx="0.37" transform="translate(1821.61 -1087.42) rotate(90)"/><rect class="cls-3" x="1453.95" y="366.92" width="1.04" height="7.8" transform="translate(1825.29 -1083.65) rotate(90)"/><rect class="cls-3" x="1456.12" y="368.51" width="2.76" height="1.73" rx="0.44" transform="translate(1826.88 -1088.14) rotate(90)"/><rect class="cls-3" x="1453.25" y="368.51" width="2.76" height="1.73" rx="0.44" transform="translate(1824 -1085.26) rotate(90)"/><rect class="cls-3" x="1450.05" y="368.51" width="2.76" height="1.73" rx="0.44" transform="translate(1820.8 -1082.06) rotate(90)"/><circle class="cls-49" cx="1487.65" cy="382.69" r="13.34"/><path class="cls-50" d="M1483.79,372.45a12.24,12.24,0,0,1,3.69-.57,10.9,10.9,0,1,1-3.66,21.24"/><polygon class="cls-3" points="1485.07 380.55 1486.99 379.42 1488.23 383.23 1491.45 389.08 1491.19 389.21 1487.9 383.45 1485.07 380.55"/><circle class="cls-51" cx="1487.65" cy="382.61" r="0.84"/><text class="cls-52" transform="translate(1479.21 379.02) rotate(90)">MPA</text><text class="cls-5" transform="translate(1444.97 745.03)">压力控制器</text><text class="cls-5" transform="translate(1442.08 429.39)">出水压力表</text><rect class="cls-53" x="1446.08" y="442.53" width="83.11" height="30.2"/><polygon class="cls-19" points="1466.68 603.52 1466.68 572.03 1466.68 566.01 1474.87 569.49 1465.1 546.34 1455.33 569.49 1463.51 566.01 1463.51 572.03 1463.51 603.52 1466.68 603.52"/><rect class="cls-50" x="1461.1" y="680.95" width="32.29" height="29.43" rx="2.35" transform="translate(2172.91 -781.58) rotate(90)"/><rect class="cls-3" x="1462.36" y="682.5" width="29.95" height="26.32" rx="1.91" transform="translate(2173 -781.67) rotate(90)"/><ellipse class="cls-54" cx="1466.88" cy="683.2" rx="0.99" ry="1.03"/><ellipse class="cls-54" cx="1466.88" cy="707.91" rx="0.99" ry="1.03"/><ellipse class="cls-54" cx="1488.01" cy="683.2" rx="0.99" ry="1.03"/><ellipse class="cls-54" cx="1488.01" cy="707.91" rx="0.99" ry="1.03"/><rect class="cls-55" x="1464.5" y="699.79" width="3.54" height="4.63" transform="translate(2168.38 -764.17) rotate(90)"/><rect class="cls-3" x="1454.36" y="694.5" width="12.83" height="1.22" transform="translate(2155.89 -765.67) rotate(90)"/><rect class="cls-56" x="1442.6" y="685.1" width="12.83" height="20.12" rx="0.25" transform="translate(2144.18 -753.86) rotate(90)"/><rect class="cls-57" x="1448.43" y="689.31" width="5.77" height="11.7" rx="0.15" transform="translate(2146.48 -756.15) rotate(90)"/><text class="cls-58" transform="translate(1486.27 690.42) rotate(90) scale(1.09 1)">压力开关</text><rect class="cls-57" x="1467.85" y="691.19" width="20.54" height="10.06" transform="translate(2174.34 -781.9) rotate(90)"/><text class="cls-59" transform="translate(1480.74 686.39) rotate(90) scale(1.09 1)">CSS</text><text class="cls-60" transform="translate(1477.98 687.4) rotate(90) scale(1.09 1)">asdsanmlopq<tspan class="cls-61" x="11.59" y="0">r</tspan><tspan class="cls-62" x="12.38" y="0">st</tspan></text><text class="cls-60" transform="translate(1475.21 687.4) rotate(90) scale(1.09 1)">asdsanmlopq<tspan class="cls-61" x="11.59" y="0">r</tspan><tspan class="cls-62" x="12.38" y="0">st</tspan></text><rect class="cls-63" x="1188.09" y="238.61" width="8.36" height="23.77"/><path class="cls-1" d="M1199.41,242.69c-3.81,0-7.72,0-11.52,0,0,1.31.45,5.37,6.89,11.37a21.09,21.09,0,0,0,14.62,5.53v-11c-.81,0-4.47.75-7.05-1.37C1198.94,244.46,1199.41,243.46,1199.41,242.69Z"/><rect class="cls-1" x="1208.18" y="247.7" width="2.92" height="12.72"/><rect class="cls-1" x="1192.04" y="235.1" width="2.92" height="12.72" transform="translate(1434.97 -952.04) rotate(90)"/><rect class="cls-1" x="1191.12" y="230.6" width="3.18" height="13.84" transform="translate(955.2 1430.23) rotate(-90)"/><rect class="cls-1" x="1211" y="249" width="216" height="10.9" transform="translate(2638 508.9) rotate(-180)"/><rect class="cls-3" x="1329.14" y="246.41" width="3.48" height="15.76" transform="translate(2661.76 508.58) rotate(-180)"/><rect class="cls-3" x="1324.37" y="246.41" width="3.48" height="15.76" transform="translate(2652.23 508.58) rotate(-180)"/><rect class="cls-3" x="1362.29" y="246.41" width="3.48" height="15.76" transform="translate(2728.06 508.58) rotate(-180)"/><rect class="cls-3" x="1357.53" y="246.41" width="3.48" height="15.76" transform="translate(2718.53 508.58) rotate(-180)"/><circle class="cls-20" cx="1345.42" cy="212.4" r="12.98"/><rect class="cls-3" x="1349.85" y="201.71" width="1.83" height="10.15" rx="0.91" transform="translate(541.85 -894.56) rotate(45)"/><rect class="cls-3" x="1338.62" y="212.94" width="1.83" height="10.15" rx="0.91" transform="translate(546.5 -883.34) rotate(45)"/><rect class="cls-3" x="1341.73" y="196.49" width="6.59" height="3.25" transform="translate(2690.04 396.22) rotate(-180)"/><polygon class="cls-3" points="1346.17 233.83 1347.71 234.29 1351.28 228.18 1349.73 227.71 1346.17 233.83"/><polygon class="cls-3" points="1343.09 233.83 1341.54 234.29 1338.37 228.21 1339.52 227.71 1343.09 233.83"/><rect class="cls-3" x="1343.9" y="227.41" width="1.67" height="6.63"/><rect class="cls-3" x="1329.48" y="208.1" width="3.69" height="7.92" transform="translate(2662.66 424.12) rotate(-180)"/><rect class="cls-3" x="1338.13" y="225.58" width="13.63" height="3.72" rx="0.72" transform="translate(2689.88 454.88) rotate(-180)"/><rect class="cls-3" x="1341.37" y="235.4" width="6.45" height="7.65" rx="0.72" transform="translate(2689.19 478.46) rotate(-180)"/><rect class="cls-3" x="1337.77" y="232.92" width="13.73" height="1.57" rx="0.44" transform="translate(2689.28 467.41) rotate(-180)"/><rect class="cls-3" x="1337.77" y="234.62" width="13.73" height="1.57" rx="0.42" transform="translate(2689.28 470.81) rotate(-180)"/><rect class="cls-3" x="1358.77" y="212.88" width="3.03" height="3.14" transform="translate(2720.56 428.9) rotate(-180)"/><rect class="cls-3" x="1358.77" y="208.62" width="3.03" height="3.14" transform="translate(2720.56 420.37) rotate(-180)"/><circle class="cls-21" cx="1345.14" cy="212.41" r="3.33"/><circle class="cls-22" cx="1345.1" cy="212.4" r="2.22"/><rect class="cls-3" x="1338.62" y="201.71" width="1.83" height="10.15" rx="0.91" transform="translate(246.12 1007.76) rotate(-45)"/><rect class="cls-3" x="1349.85" y="212.94" width="1.83" height="10.15" rx="0.91" transform="translate(241.47 1018.98) rotate(-45)"/><rect class="cls-3" x="1338.13" y="239.18" width="13.48" height="24.85" rx="4.98" transform="translate(2689.73 503.21) rotate(-180)"/><rect class="cls-3" x="1336.04" y="237.69" width="3.31" height="27.82" rx="1.66" transform="translate(2675.39 503.19) rotate(-180)"/><rect class="cls-3" x="1350.3" y="237.69" width="3.31" height="27.82" rx="1.66" transform="translate(2703.91 503.19) rotate(180)"/><circle class="cls-23" cx="1345.1" cy="212.4" r="1.33"/><circle class="cls-24" cx="1345.1" cy="212.4" r="0.94"/><rect class="cls-1" x="1196.86" y="181.6" width="4.37" height="21.42"/><rect class="cls-1" x="1203.42" y="181.32" width="4.37" height="21.42"/><rect class="cls-64" x="1201.23" y="185.55" width="2.19" height="13.53"/><rect class="cls-1" x="1207.79" y="183.57" width="1.09" height="2.26"/><rect class="cls-1" x="1207.79" y="190.9" width="1.09" height="2.26"/><rect class="cls-1" x="1207.79" y="198.23" width="1.09" height="2.26"/><rect class="cls-1" x="1195.77" y="183.85" width="1.09" height="3.61"/><rect class="cls-1" x="1194.67" y="184.53" width="2.19" height="2.26"/><rect class="cls-1" x="1195.77" y="190.62" width="1.09" height="3.61"/><rect class="cls-1" x="1194.67" y="191.3" width="2.19" height="2.26"/><rect class="cls-1" x="1195.77" y="197.39" width="1.09" height="3.61"/><rect class="cls-1" x="1194.67" y="198.06" width="2.19" height="2.26"/><polygon class="cls-63" points="1150.95 263.22 1142 263.22 1157.42 218.47 1166.37 218.47 1150.95 263.22"/><polygon class="cls-63" points="1235.05 263.22 1244 263.22 1228.58 218.47 1219.63 218.47 1235.05 263.22"/><rect class="cls-65" x="1211.57" y="98.67" width="5.61" height="12.43"/><rect class="cls-66" x="1208.76" y="96.18" width="11.22" height="2.49"/><rect class="cls-65" x="1190.99" y="94.55" width="5.61" height="12.43"/><rect class="cls-66" x="1188.18" y="92.07" width="11.22" height="2.49"/><rect class="cls-65" x="1169.37" y="98.67" width="5.61" height="12.43"/><rect class="cls-66" x="1166.57" y="96.18" width="11.22" height="2.49"/><ellipse class="cls-67" cx="1192.98" cy="123.75" rx="36.47" ry="23.62"/><ellipse class="cls-67" cx="1192.98" cy="222.41" rx="36.47" ry="23.62"/><rect class="cls-68" x="1156.51" y="126.23" width="72.95" height="96.97"/><rect class="cls-68" x="1153.7" y="118.77" width="78.56" height="9.95"/><rect class="cls-69" x="1211.57" y="137.42" width="2.81" height="44.75"/><rect class="cls-69" x="1211.57" y="187.15" width="2.81" height="9.95"/></svg>