<svg id="图层_1" data-name="图层 1" xmlns="http://www.w3.org/2000/svg" xmlns:xlink="http://www.w3.org/1999/xlink" viewBox="0 0 1920 1080"><defs><style>.cls-1,.cls-48{fill:#f2f2f2;}.cls-2{fill:#06a8fa;}.cls-3,.cls-38,.cls-43,.cls-49,.cls-5,.cls-6{fill:#143a82;}.cls-4{fill:#cee6f9;}.cls-33,.cls-5{font-size:22px;}.cls-33,.cls-43,.cls-44,.cls-5,.cls-6{font-family:PingFang-SC-Medium, PingFang SC;font-weight:500;}.cls-6{font-size:14px;}.cls-7{fill:#07a307;}.cls-8{fill:#af0800;}.cls-9{fill:#474747;}.cls-10,.cls-11,.cls-12,.cls-13,.cls-14,.cls-15,.cls-16,.cls-17,.cls-18,.cls-20,.cls-21,.cls-28,.cls-29,.cls-30,.cls-31,.cls-32,.cls-40,.cls-45,.cls-46,.cls-47,.cls-50,.cls-51,.cls-52{fill:none;}.cls-10,.cls-11,.cls-12,.cls-13,.cls-14,.cls-15,.cls-16,.cls-17,.cls-18,.cls-20,.cls-21,.cls-28,.cls-29,.cls-30,.cls-31,.cls-32,.cls-34,.cls-38,.cls-39,.cls-40,.cls-45,.cls-46,.cls-47,.cls-48,.cls-50,.cls-51,.cls-52,.cls-60,.cls-65{stroke-miterlimit:10;}.cls-10,.cls-11,.cls-12,.cls-13,.cls-14,.cls-15,.cls-16,.cls-17,.cls-18,.cls-21,.cls-28,.cls-31,.cls-34,.cls-45,.cls-46,.cls-50{stroke-width:2px;}.cls-10{stroke:url(#未命名的渐变_15);}.cls-11{stroke:url(#未命名的渐变_15-2);}.cls-12{stroke:url(#未命名的渐变_15-3);}.cls-13{stroke:url(#未命名的渐变_15-4);}.cls-14{stroke:url(#未命名的渐变_15-5);}.cls-15{stroke:url(#未命名的渐变_15-6);}.cls-16{stroke:url(#未命名的渐变_15-7);}.cls-17{stroke:url(#未命名的渐变_15-8);}.cls-18{stroke:url(#未命名的渐变_15-9);}.cls-19{fill:#df592f;}.cls-20,.cls-38,.cls-39,.cls-46,.cls-47{stroke:#143a82;}.cls-20,.cls-32,.cls-38,.cls-39,.cls-40{stroke-width:3px;}.cls-21{stroke:#10397a;}.cls-22{fill:#0e3773;}.cls-23{fill:#4676a5;}.cls-24{fill:#a1d5ff;}.cls-25{font-size:7.04px;fill:#01579b;}.cls-25,.cls-49{font-family:Benmo-Chenhei, Benmo Chenhei;}.cls-26{fill:#2a5e96;}.cls-27{fill:#9ac0f7;}.cls-28,.cls-29,.cls-30,.cls-32,.cls-34{stroke:#01579b;}.cls-29{stroke-width:1.5px;}.cls-31,.cls-48{stroke:#333f4f;}.cls-33,.cls-44{fill:#db4516;}.cls-34,.cls-55,.cls-56,.cls-57,.cls-66{fill:#fff;}.cls-35{fill:#60c8fc;}.cls-36{fill:#327cc6;}.cls-37{fill:#0a98ef;}.cls-39{fill:#e6e6e6;}.cls-40{stroke:#b3b3b3;}.cls-41{fill:#333f4f;}.cls-42{fill:#868686;}.cls-43,.cls-44{font-size:20.23px;}.cls-45{stroke:url(#未命名的渐变_15-10);}.cls-49{font-size:2.93px;}.cls-50{stroke:url(#未命名的渐变_15-11);}.cls-51{stroke:#618cd1;}.cls-51,.cls-52{stroke-width:0.5px;}.cls-52{stroke:#fff;}.cls-53{fill:#10397a;}.cls-54{fill:#5276aa;}.cls-55,.cls-56{font-size:2.1px;letter-spacing:0.18em;}.cls-55{font-family:MicrosoftYaHei-Bold, Microsoft YaHei;font-weight:700;}.cls-56,.cls-57{font-family:MicrosoftYaHei, Microsoft YaHei;}.cls-57{font-size:1.38px;letter-spacing:0.18em;}.cls-58{letter-spacing:0.19em;}.cls-59{letter-spacing:0.18em;}.cls-60,.cls-62{fill:#30719e;}.cls-60{stroke:#32597b;stroke-width:0.4px;}.cls-61{fill:#0662b5;}.cls-63{fill:#3b77ad;}.cls-64,.cls-65{fill:#6ab6ef;}.cls-65{stroke:#5282a2;stroke-width:0.7px;}</style><linearGradient id="未命名的渐变_15" x1="1099.75" y1="707.37" x2="1184.87" y2="707.37" gradientUnits="userSpaceOnUse"><stop offset="0" stop-color="#4f6c99"/><stop offset="0.16" stop-color="#526f9c"/><stop offset="0.29" stop-color="#5b78a6"/><stop offset="0.4" stop-color="#6c87b6"/><stop offset="0.5" stop-color="#829dcd"/><stop offset="0.59" stop-color="#9fb8ea"/><stop offset="0.62" stop-color="#a9c2f4"/><stop offset="1" stop-color="#718dbe"/></linearGradient><linearGradient id="未命名的渐变_15-2" x1="1191.37" y1="671.31" x2="1276.48" y2="671.31" xlink:href="#未命名的渐变_15"/><linearGradient id="未命名的渐变_15-3" x1="1191.37" y1="896.04" x2="1276.48" y2="896.04" xlink:href="#未命名的渐变_15"/><linearGradient id="未命名的渐变_15-4" x1="1099.75" y1="671.1" x2="1184.87" y2="671.1" xlink:href="#未命名的渐变_15"/><linearGradient id="未命名的渐变_15-5" x1="1099.75" y1="933.12" x2="1184.87" y2="933.12" xlink:href="#未命名的渐变_15"/><linearGradient id="未命名的渐变_15-6" x1="1099.75" y1="896.85" x2="1184.87" y2="896.85" xlink:href="#未命名的渐变_15"/><linearGradient id="未命名的渐变_15-7" x1="1099.75" y1="474.5" x2="1184.87" y2="474.5" xlink:href="#未命名的渐变_15"/><linearGradient id="未命名的渐变_15-8" x1="1191.37" y1="438.44" x2="1276.48" y2="438.44" xlink:href="#未命名的渐变_15"/><linearGradient id="未命名的渐变_15-9" x1="1099.75" y1="438.23" x2="1184.87" y2="438.23" xlink:href="#未命名的渐变_15"/><linearGradient id="未命名的渐变_15-10" x1="1559.54" y1="199.74" x2="1637.98" y2="199.74" xlink:href="#未命名的渐变_15"/><linearGradient id="未命名的渐变_15-11" x1="1476.08" y1="470.64" x2="1561.19" y2="470.64" xlink:href="#未命名的渐变_15"/></defs><title>单水箱 2泵 _1</title><rect class="cls-1" x="1091.15" y="866.21" width="195.07" height="88.34"/><rect class="cls-2" x="510" y="743" width="420" height="14" transform="translate(1470 30) rotate(90)"/><rect class="cls-2" x="738" y="512.4" width="263.04" height="14"/><rect class="cls-2" x="1089.5" y="514.34" width="371.25" height="14"/><rect class="cls-2" x="720.27" y="746.33" width="279.79" height="14"/><rect class="cls-2" x="1089.92" y="746.33" width="369.43" height="14"/><rect class="cls-2" x="739.83" y="970.31" width="260.16" height="14"/><rect class="cls-2" x="1090.73" y="970.31" width="362.1" height="14"/><rect class="cls-3" x="1190.17" y="743.11" width="24.9" height="17.43"/><rect class="cls-4" x="1192.66" y="745.6" width="2.49" height="12.54"/><rect class="cls-4" x="1210.1" y="745.31" width="2.49" height="12.74"/><rect class="cls-4" x="1202.26" y="741.7" width="0.74" height="20.08" transform="translate(1340.42 2163.28) rotate(-127.58)"/><polygon class="cls-3" points="1190.78 739.21 1218.48 739.21 1204.63 733.9 1204.63 733.9 1204.63 736.55 1190.78 736.55 1190.78 739.21"/><rect class="cls-3" x="1190.17" y="967.61" width="24.9" height="17.43"/><rect class="cls-4" x="1192.66" y="970.1" width="2.49" height="12.54"/><rect class="cls-4" x="1210.1" y="969.8" width="2.49" height="12.74"/><rect class="cls-4" x="1202.26" y="966.2" width="0.74" height="20.08" transform="translate(1162.52 2524.7) rotate(-127.58)"/><polygon class="cls-3" points="1190.78 963.71 1218.48 963.71 1204.63 958.4 1204.63 958.4 1204.63 961.05 1190.78 961.05 1190.78 963.71"/><rect class="cls-3" x="1190.17" y="512.3" width="24.9" height="17.43"/><rect class="cls-4" x="1192.66" y="514.79" width="2.49" height="12.54"/><rect class="cls-4" x="1210.1" y="514.49" width="2.49" height="12.74"/><rect class="cls-4" x="1202.26" y="510.89" width="0.74" height="20.08" transform="translate(1523.33 1791.68) rotate(-127.58)"/><polygon class="cls-3" points="1190.78 508.39 1218.48 508.39 1204.63 503.09 1204.63 503.09 1204.63 505.74 1190.78 505.74 1190.78 508.39"/><text class="cls-5" transform="translate(937.96 502.25)">1#泵</text><text class="cls-5" transform="translate(937.96 739.38)">2#泵</text><text class="cls-5" transform="translate(937.96 961.05)">3#泵</text><rect class="cls-1" x="1523.75" y="843.2" width="186" height="113.65"/><text class="cls-6" transform="translate(1538.1 874.51)">状态说明 </text><text class="cls-6" transform="translate(1638.12 874.51)">运行状态 </text><text class="cls-6" transform="translate(1638.12 902.05)">停止状态 </text><text class="cls-6" transform="translate(1638.12 929.02)">故障状态 </text><path class="cls-7" d="M1616.84,861.88a7.16,7.16,0,1,0,7.17,7.17,7.17,7.17,0,0,0-7.17-7.17Zm0,13.21a6,6,0,1,1,6.05-6,6,6,0,0,1-6.05,6Zm2.87,2.88"/><path class="cls-7" d="M1613.12,868.14c-1.32.66-2.19,2.19-1.32,3.06,1.53,1.54,2.19-.65,3.29-1.31.67-.41,1.31-.88,1.31-1.32s-2-1.09-3.28-.43Zm5,2.18c-.69-.38-1.42-.7-1.8-.48s0,2.25,1.27,3.06,3,.8,3.31-.39c.56-2.1-1.67-1.57-2.78-2.19Zm-.56-1c.38.21,1.93-1.16,2-2.63s-.8-3-2-2.67c-2.09.56-.53,2.22-.5,3.5,0,.79.1,1.58.48,1.8Zm0,0"/><path class="cls-8" d="M1616.84,888.85A7.16,7.16,0,1,0,1624,896a7.17,7.17,0,0,0-7.17-7.16Zm0,13.2a6,6,0,1,1,6.05-6,6,6,0,0,1-6.05,6Zm2.87,2.89"/><path class="cls-8" d="M1613.12,895.11c-1.32.65-2.19,2.19-1.32,3.06,1.53,1.54,2.19-.66,3.29-1.31.67-.41,1.31-.88,1.31-1.32s-2-1.09-3.28-.43Zm5,2.18c-.69-.39-1.42-.7-1.8-.49s0,2.26,1.27,3.07,3,.8,3.31-.4c.56-2.09-1.67-1.56-2.78-2.18Zm-.56-1c.38.22,1.93-1.16,2-2.62s-.8-3-2-2.67c-2.09.56-.53,2.22-.5,3.5,0,.79.1,1.57.48,1.79Zm0,0"/><path class="cls-9" d="M1616.84,915.82A7.16,7.16,0,1,0,1624,923a7.17,7.17,0,0,0-7.17-7.16Zm0,13.2a6,6,0,1,1,6.05-6,6,6,0,0,1-6.05,6Zm2.87,2.89"/><path class="cls-9" d="M1613.12,922.07c-1.32.66-2.19,2.19-1.32,3.07,1.53,1.53,2.19-.66,3.29-1.32.67-.4,1.31-.87,1.31-1.31s-2-1.09-3.28-.44Zm5,2.18c-.69-.38-1.42-.69-1.8-.48s0,2.26,1.27,3.07,3,.8,3.31-.4c.56-2.09-1.67-1.57-2.78-2.19Zm-.56-1c.38.22,1.93-1.16,2-2.63s-.8-3-2-2.67c-2.09.57-.53,2.23-.5,3.51,0,.79.1,1.57.48,1.79Zm0,0"/><rect class="cls-1" x="1091.15" y="640.46" width="195.07" height="88.34"/><rect class="cls-10" x="1100.75" y="692.27" width="83.11" height="30.2"/><rect class="cls-11" x="1192.37" y="656.21" width="83.11" height="30.2"/><rect class="cls-12" x="1192.37" y="880.94" width="83.11" height="30.2"/><rect class="cls-13" x="1100.75" y="656" width="83.11" height="30.2"/><rect class="cls-14" x="1100.75" y="918.02" width="83.11" height="30.2"/><rect class="cls-15" x="1100.75" y="881.75" width="83.11" height="30.2"/><rect class="cls-1" x="1091.15" y="407.59" width="195.07" height="88.34"/><rect class="cls-16" x="1100.75" y="459.4" width="83.11" height="30.2"/><rect class="cls-17" x="1192.37" y="423.34" width="83.11" height="30.2"/><rect class="cls-18" x="1100.75" y="423.13" width="83.11" height="30.2"/><polygon class="cls-19" points="793.62 546.53 825.11 546.53 831.13 546.53 827.65 554.72 850.8 544.95 827.65 535.18 831.13 543.36 825.11 543.36 793.62 543.36 793.62 546.53"/><polygon class="cls-19" points="1366.31 546.53 1397.79 546.53 1403.81 546.53 1400.34 554.72 1423.48 544.95 1400.34 535.18 1403.81 543.36 1397.79 543.36 1366.31 543.36 1366.31 546.53"/><polygon class="cls-19" points="793.62 779.63 825.11 779.63 831.13 779.63 827.65 787.82 850.8 778.04 827.65 768.27 831.13 776.46 825.11 776.46 793.62 776.46 793.62 779.63"/><polygon class="cls-19" points="1366.31 779.63 1397.79 779.63 1403.81 779.63 1400.34 787.82 1423.48 778.04 1400.34 768.27 1403.81 776.46 1397.79 776.46 1366.31 776.46 1366.31 779.63"/><polygon class="cls-19" points="793.62 1014.71 825.11 1014.71 831.13 1014.71 827.65 1022.89 850.8 1013.12 827.65 1003.35 831.13 1011.54 825.11 1011.54 793.62 1011.54 793.62 1014.71"/><polygon class="cls-19" points="1366.31 1014.71 1397.79 1014.71 1403.81 1014.71 1400.34 1022.89 1423.48 1013.12 1400.34 1003.35 1403.81 1011.54 1397.79 1011.54 1366.31 1011.54 1366.31 1014.71"/><path class="cls-2" d="M727,957.86l-14.86-.12a26.81,26.81,0,0,0,27.56,26.94V970.42a12.68,12.68,0,0,1-8.18-2.78A13,13,0,0,1,727,957.86Z"/><rect class="cls-2" x="739.38" y="969.41" width="3.8" height="16.56"/><rect class="cls-2" x="717.73" y="948.27" width="3.8" height="16.56" transform="translate(-236.91 1676.18) rotate(-90)"/><path class="cls-2" d="M1444.51,970.59l-.12,14.87a26.85,26.85,0,0,0,26.94-27.56h-14.26a12.67,12.67,0,0,1-2.79,8.18A13,13,0,0,1,1444.51,970.59Z"/><rect class="cls-2" x="1462.43" y="948.01" width="3.8" height="16.56" transform="translate(508.04 2420.62) rotate(-90)"/><rect class="cls-2" x="1441.29" y="969.67" width="3.8" height="16.56" transform="translate(2886.39 1955.89) rotate(-180)"/><rect class="cls-3" x="903.99" y="511.52" width="3.48" height="15.76"/><rect class="cls-3" x="908.76" y="511.52" width="3.48" height="15.76"/><rect class="cls-3" x="870.84" y="511.52" width="3.48" height="15.76"/><rect class="cls-3" x="875.6" y="511.52" width="3.48" height="15.76"/><circle class="cls-20" cx="891.2" cy="477.52" r="12.98"/><rect class="cls-3" x="884.94" y="466.82" width="1.83" height="10.15" rx="0.91" transform="translate(1845.93 179.19) rotate(135)"/><rect class="cls-3" x="896.17" y="478.05" width="1.83" height="10.15" rx="0.91" transform="translate(1873.04 190.42) rotate(135)"/><rect class="cls-3" x="888.3" y="461.6" width="6.59" height="3.25"/><polygon class="cls-3" points="890.45 498.94 888.9 499.41 885.34 493.29 886.88 492.82 890.45 498.94"/><polygon class="cls-3" points="893.52 498.94 895.07 499.41 898.24 493.33 897.09 492.82 893.52 498.94"/><rect class="cls-3" x="891.04" y="492.52" width="1.67" height="6.63" transform="translate(1783.75 991.67) rotate(180)"/><rect class="cls-3" x="903.44" y="473.21" width="3.69" height="7.92"/><rect class="cls-3" x="884.85" y="490.69" width="13.63" height="3.72" rx="0.72"/><rect class="cls-3" x="888.8" y="500.52" width="6.45" height="7.65" rx="0.72"/><rect class="cls-3" x="885.11" y="498.03" width="13.73" height="1.57" rx="0.44"/><rect class="cls-3" x="885.11" y="499.73" width="13.73" height="1.57" rx="0.42"/><rect class="cls-3" x="874.82" y="477.99" width="3.03" height="3.14"/><rect class="cls-3" x="874.82" y="473.73" width="3.03" height="3.14"/><circle class="cls-21" cx="891.47" cy="477.52" r="3.33"/><circle class="cls-22" cx="891.51" cy="477.52" r="2.22"/><rect class="cls-3" x="896.17" y="466.82" width="1.83" height="10.15" rx="0.91" transform="translate(1197.73 1439.92) rotate(-135)"/><rect class="cls-3" x="884.94" y="478.05" width="1.83" height="10.15" rx="0.91" transform="translate(1170.62 1451.14) rotate(-135)"/><rect class="cls-3" x="885.01" y="504.3" width="13.48" height="24.85" rx="4.98"/><rect class="cls-3" x="897.26" y="502.8" width="3.31" height="27.82" rx="1.66"/><rect class="cls-3" x="883" y="502.8" width="3.31" height="27.82" rx="1.66"/><circle class="cls-23" cx="891.51" cy="477.52" r="1.33"/><circle class="cls-24" cx="891.51" cy="477.52" r="0.94"/><rect class="cls-3" x="1332.9" y="511.52" width="3.48" height="15.76"/><rect class="cls-3" x="1337.67" y="511.52" width="3.48" height="15.76"/><rect class="cls-3" x="1299.75" y="511.52" width="3.48" height="15.76"/><rect class="cls-3" x="1304.52" y="511.52" width="3.48" height="15.76"/><circle class="cls-20" cx="1320.11" cy="477.52" r="12.98"/><rect class="cls-3" x="1313.85" y="466.82" width="1.83" height="10.15" rx="0.91" transform="translate(2578.13 -124.09) rotate(135)"/><rect class="cls-3" x="1325.08" y="478.05" width="1.83" height="10.15" rx="0.91" transform="translate(2605.23 -112.87) rotate(135)"/><rect class="cls-3" x="1317.21" y="461.6" width="6.59" height="3.25"/><polygon class="cls-3" points="1319.36 498.94 1317.81 499.41 1314.25 493.29 1315.79 492.82 1319.36 498.94"/><polygon class="cls-3" points="1322.43 498.94 1323.98 499.41 1327.15 493.33 1326 492.82 1322.43 498.94"/><rect class="cls-3" x="1319.95" y="492.52" width="1.67" height="6.63" transform="translate(2641.57 991.67) rotate(180)"/><rect class="cls-3" x="1332.35" y="473.21" width="3.69" height="7.92"/><rect class="cls-3" x="1313.76" y="490.69" width="13.63" height="3.72" rx="0.72"/><rect class="cls-3" x="1317.71" y="500.52" width="6.45" height="7.65" rx="0.72"/><rect class="cls-3" x="1314.02" y="498.03" width="13.73" height="1.57" rx="0.44"/><rect class="cls-3" x="1314.02" y="499.73" width="13.73" height="1.57" rx="0.42"/><rect class="cls-3" x="1303.73" y="477.99" width="3.03" height="3.14"/><rect class="cls-3" x="1303.73" y="473.73" width="3.03" height="3.14"/><circle class="cls-21" cx="1320.38" cy="477.52" r="3.33"/><circle class="cls-22" cx="1320.42" cy="477.52" r="2.22"/><rect class="cls-3" x="1325.08" y="466.82" width="1.83" height="10.15" rx="0.91" transform="translate(1929.92 1743.2) rotate(-135)"/><rect class="cls-3" x="1313.85" y="478.05" width="1.83" height="10.15" rx="0.91" transform="translate(1902.82 1754.43) rotate(-135)"/><rect class="cls-3" x="1313.92" y="504.3" width="13.48" height="24.85" rx="4.98"/><rect class="cls-3" x="1326.17" y="502.8" width="3.31" height="27.82" rx="1.66"/><rect class="cls-3" x="1311.91" y="502.8" width="3.31" height="27.82" rx="1.66"/><circle class="cls-23" cx="1320.42" cy="477.52" r="1.33"/><circle class="cls-24" cx="1320.42" cy="477.52" r="0.94"/><rect class="cls-3" x="903.99" y="745.22" width="3.48" height="15.76"/><rect class="cls-3" x="908.76" y="745.22" width="3.48" height="15.76"/><rect class="cls-3" x="870.84" y="745.22" width="3.48" height="15.76"/><rect class="cls-3" x="875.6" y="745.22" width="3.48" height="15.76"/><circle class="cls-20" cx="891.2" cy="711.21" r="12.98"/><rect class="cls-3" x="884.94" y="700.52" width="1.83" height="10.15" rx="0.91" transform="translate(2011.18 578.14) rotate(135)"/><rect class="cls-3" x="896.17" y="711.75" width="1.83" height="10.15" rx="0.91" transform="translate(2038.28 589.37) rotate(135)"/><rect class="cls-3" x="888.3" y="695.3" width="6.59" height="3.25"/><polygon class="cls-3" points="890.45 732.64 888.9 733.1 885.34 726.99 886.88 726.52 890.45 732.64"/><polygon class="cls-3" points="893.52 732.64 895.07 733.1 898.24 727.02 897.09 726.52 893.52 732.64"/><rect class="cls-3" x="891.04" y="726.21" width="1.67" height="6.63" transform="translate(1783.75 1459.06) rotate(180)"/><rect class="cls-3" x="903.44" y="706.91" width="3.69" height="7.92"/><rect class="cls-3" x="884.85" y="724.39" width="13.63" height="3.72" rx="0.72"/><rect class="cls-3" x="888.8" y="734.21" width="6.45" height="7.65" rx="0.72"/><rect class="cls-3" x="885.11" y="731.73" width="13.73" height="1.57" rx="0.44"/><rect class="cls-3" x="885.11" y="733.43" width="13.73" height="1.57" rx="0.42"/><rect class="cls-3" x="874.82" y="711.69" width="3.03" height="3.14"/><rect class="cls-3" x="874.82" y="707.43" width="3.03" height="3.14"/><circle class="cls-21" cx="891.47" cy="711.22" r="3.33"/><circle class="cls-22" cx="891.51" cy="711.21" r="2.22"/><rect class="cls-3" x="896.17" y="700.52" width="1.83" height="10.15" rx="0.91" transform="translate(1032.47 1838.86) rotate(-135)"/><rect class="cls-3" x="884.94" y="711.75" width="1.83" height="10.15" rx="0.91" transform="translate(1005.37 1850.09) rotate(-135)"/><rect class="cls-3" x="885.01" y="737.99" width="13.48" height="24.85" rx="4.98"/><rect class="cls-3" x="897.26" y="736.5" width="3.31" height="27.82" rx="1.66"/><rect class="cls-3" x="883" y="736.5" width="3.31" height="27.82" rx="1.66"/><circle class="cls-23" cx="891.51" cy="711.21" r="1.33"/><circle class="cls-24" cx="891.51" cy="711.21" r="0.94"/><rect class="cls-3" x="1332.9" y="745.22" width="3.48" height="15.76"/><rect class="cls-3" x="1337.67" y="745.22" width="3.48" height="15.76"/><rect class="cls-3" x="1299.75" y="745.22" width="3.48" height="15.76"/><rect class="cls-3" x="1304.52" y="745.22" width="3.48" height="15.76"/><circle class="cls-20" cx="1320.11" cy="711.21" r="12.98"/><rect class="cls-3" x="1313.85" y="700.52" width="1.83" height="10.15" rx="0.91" transform="translate(2743.38 274.86) rotate(135)"/><rect class="cls-3" x="1325.08" y="711.75" width="1.83" height="10.15" rx="0.91" transform="translate(2770.48 286.08) rotate(135)"/><rect class="cls-3" x="1317.21" y="695.3" width="6.59" height="3.25"/><polygon class="cls-3" points="1319.36 732.64 1317.81 733.1 1314.25 726.99 1315.79 726.52 1319.36 732.64"/><polygon class="cls-3" points="1322.43 732.64 1323.98 733.1 1327.15 727.02 1326 726.52 1322.43 732.64"/><rect class="cls-3" x="1319.95" y="726.21" width="1.67" height="6.63" transform="translate(2641.57 1459.06) rotate(180)"/><rect class="cls-3" x="1332.35" y="706.91" width="3.69" height="7.92"/><rect class="cls-3" x="1313.76" y="724.39" width="13.63" height="3.72" rx="0.72"/><rect class="cls-3" x="1317.71" y="734.21" width="6.45" height="7.65" rx="0.72"/><rect class="cls-3" x="1314.02" y="731.73" width="13.73" height="1.57" rx="0.44"/><rect class="cls-3" x="1314.02" y="733.43" width="13.73" height="1.57" rx="0.42"/><rect class="cls-3" x="1303.73" y="711.69" width="3.03" height="3.14"/><rect class="cls-3" x="1303.73" y="707.43" width="3.03" height="3.14"/><circle class="cls-21" cx="1320.38" cy="711.22" r="3.33"/><circle class="cls-22" cx="1320.42" cy="711.21" r="2.22"/><rect class="cls-3" x="1325.08" y="700.52" width="1.83" height="10.15" rx="0.91" transform="translate(1764.66 2142.15) rotate(-135)"/><rect class="cls-3" x="1313.85" y="711.75" width="1.83" height="10.15" rx="0.91" transform="translate(1737.57 2153.38) rotate(-135)"/><rect class="cls-3" x="1313.92" y="737.99" width="13.48" height="24.85" rx="4.98"/><rect class="cls-3" x="1326.17" y="736.5" width="3.31" height="27.82" rx="1.66"/><rect class="cls-3" x="1311.91" y="736.5" width="3.31" height="27.82" rx="1.66"/><circle class="cls-23" cx="1320.42" cy="711.21" r="1.33"/><circle class="cls-24" cx="1320.42" cy="711.21" r="0.94"/><rect class="cls-3" x="903.99" y="969.64" width="3.48" height="15.76"/><rect class="cls-3" x="908.76" y="969.64" width="3.48" height="15.76"/><rect class="cls-3" x="870.84" y="969.64" width="3.48" height="15.76"/><rect class="cls-3" x="875.6" y="969.64" width="3.48" height="15.76"/><circle class="cls-20" cx="891.2" cy="935.63" r="12.98"/><rect class="cls-3" x="884.94" y="924.94" width="1.83" height="10.15" rx="0.91" transform="translate(2169.87 961.25) rotate(135)"/><rect class="cls-3" x="896.17" y="936.17" width="1.83" height="10.15" rx="0.91" transform="translate(2196.97 972.48) rotate(135)"/><rect class="cls-3" x="888.3" y="919.72" width="6.59" height="3.25"/><polygon class="cls-3" points="890.45 957.06 888.9 957.52 885.34 951.41 886.88 950.94 890.45 957.06"/><polygon class="cls-3" points="893.52 957.06 895.07 957.52 898.24 951.44 897.09 950.94 893.52 957.06"/><rect class="cls-3" x="891.04" y="950.64" width="1.67" height="6.63" transform="translate(1783.75 1907.9) rotate(180)"/><rect class="cls-3" x="903.44" y="931.33" width="3.69" height="7.92"/><rect class="cls-3" x="884.85" y="948.81" width="13.63" height="3.72" rx="0.72"/><rect class="cls-3" x="888.8" y="958.63" width="6.45" height="7.65" rx="0.72"/><rect class="cls-3" x="885.11" y="956.15" width="13.73" height="1.57" rx="0.44"/><rect class="cls-3" x="885.11" y="957.85" width="13.73" height="1.57" rx="0.42"/><rect class="cls-3" x="874.82" y="936.11" width="3.03" height="3.14"/><rect class="cls-3" x="874.82" y="931.85" width="3.03" height="3.14"/><circle class="cls-21" cx="891.47" cy="935.64" r="3.33"/><circle class="cls-22" cx="891.51" cy="935.63" r="2.22"/><rect class="cls-3" x="896.17" y="924.94" width="1.83" height="10.15" rx="0.91" transform="translate(873.79 2221.97) rotate(-135)"/><rect class="cls-3" x="884.94" y="936.17" width="1.83" height="10.15" rx="0.91" transform="translate(846.69 2233.2) rotate(-135)"/><rect class="cls-3" x="885.01" y="962.41" width="13.48" height="24.85" rx="4.98"/><rect class="cls-3" x="897.26" y="960.92" width="3.31" height="27.82" rx="1.66"/><rect class="cls-3" x="883" y="960.92" width="3.31" height="27.82" rx="1.66"/><circle class="cls-23" cx="891.51" cy="935.63" r="1.33"/><circle class="cls-24" cx="891.51" cy="935.63" r="0.94"/><rect class="cls-3" x="1332.9" y="969.64" width="3.48" height="15.76"/><rect class="cls-3" x="1337.67" y="969.64" width="3.48" height="15.76"/><rect class="cls-3" x="1299.75" y="969.64" width="3.48" height="15.76"/><rect class="cls-3" x="1304.52" y="969.64" width="3.48" height="15.76"/><circle class="cls-20" cx="1320.11" cy="935.63" r="12.98"/><rect class="cls-3" x="1313.85" y="924.94" width="1.83" height="10.15" rx="0.91" transform="translate(2902.06 657.97) rotate(135)"/><rect class="cls-3" x="1325.08" y="936.17" width="1.83" height="10.15" rx="0.91" transform="translate(2929.17 669.18) rotate(135)"/><rect class="cls-3" x="1317.21" y="919.72" width="6.59" height="3.25"/><polygon class="cls-3" points="1319.36 957.06 1317.81 957.52 1314.25 951.41 1315.79 950.94 1319.36 957.06"/><polygon class="cls-3" points="1322.43 957.06 1323.98 957.52 1327.15 951.44 1326 950.94 1322.43 957.06"/><rect class="cls-3" x="1319.95" y="950.64" width="1.67" height="6.63" transform="translate(2641.57 1907.9) rotate(180)"/><rect class="cls-3" x="1332.35" y="931.33" width="3.69" height="7.92"/><rect class="cls-3" x="1313.76" y="948.81" width="13.63" height="3.72" rx="0.72"/><rect class="cls-3" x="1317.71" y="958.63" width="6.45" height="7.65" rx="0.72"/><rect class="cls-3" x="1314.02" y="956.15" width="13.73" height="1.57" rx="0.44"/><rect class="cls-3" x="1314.02" y="957.85" width="13.73" height="1.57" rx="0.42"/><rect class="cls-3" x="1303.73" y="936.11" width="3.03" height="3.14"/><rect class="cls-3" x="1303.73" y="931.85" width="3.03" height="3.14"/><circle class="cls-21" cx="1320.38" cy="935.64" r="3.33"/><circle class="cls-22" cx="1320.42" cy="935.63" r="2.22"/><rect class="cls-3" x="1325.08" y="924.94" width="1.83" height="10.15" rx="0.91" transform="translate(1605.98 2525.26) rotate(-135)"/><rect class="cls-3" x="1313.85" y="936.17" width="1.83" height="10.15" rx="0.91" transform="translate(1578.88 2536.48) rotate(-135)"/><rect class="cls-3" x="1313.92" y="962.41" width="13.48" height="24.85" rx="4.98"/><rect class="cls-3" x="1326.17" y="960.92" width="3.31" height="27.82" rx="1.66"/><rect class="cls-3" x="1311.91" y="960.92" width="3.31" height="27.82" rx="1.66"/><circle class="cls-23" cx="1320.42" cy="935.63" r="1.33"/><circle class="cls-24" cx="1320.42" cy="935.63" r="0.94"/><text class="cls-25" transform="translate(1029.92 357.61)">SANLEY</text><ellipse class="cls-26" cx="1067.9" cy="398.74" rx="2.44" ry="2.37"/><circle class="cls-27" cx="1067.9" cy="398.74" r="2.12"/><circle class="cls-26" cx="1067.9" cy="398.74" r="1.65"/><circle class="cls-27" cx="1067.9" cy="398.74" r="1.18"/><ellipse class="cls-26" cx="1067.9" cy="406.73" rx="2.44" ry="2.37"/><circle class="cls-27" cx="1067.9" cy="406.73" r="2.12"/><circle class="cls-26" cx="1067.9" cy="406.73" r="1.65"/><circle class="cls-27" cx="1067.9" cy="406.73" r="1.18"/><rect class="cls-28" x="1019.08" y="365.67" width="53.19" height="67.31" rx="10.76"/><rect class="cls-28" x="1018.46" y="345.32" width="54.01" height="86.88" rx="10.76"/><rect class="cls-29" x="1019.24" y="371.94" width="9.39" height="52.12"/><rect class="cls-29" x="1063.07" y="371.94" width="9.39" height="52.12"/><rect class="cls-30" x="1030.59" y="365.28" width="2.35" height="67.31"/><rect class="cls-30" x="1035.29" y="365.28" width="2.35" height="67.31"/><rect class="cls-30" x="1039.98" y="365.28" width="2.35" height="67.31"/><rect class="cls-30" x="1044.68" y="365.28" width="2.35" height="67.31"/><rect class="cls-30" x="1049.37" y="365.28" width="2.35" height="67.31"/><rect class="cls-30" x="1054.07" y="365.28" width="2.35" height="67.31"/><rect class="cls-30" x="1058.77" y="365.28" width="2.35" height="67.31"/><path class="cls-28" d="M1077.06,423.94h-3.28l-1.1-1.1V400l1.1-1.1h3.28l1.1,1.1v22.85Z"/><rect class="cls-28" x="1021.13" y="432.98" width="48.21" height="10.96"/><rect class="cls-28" x="1030.2" y="432.98" width="5.48" height="10.96"/><rect class="cls-28" x="1056.81" y="432.98" width="5.48" height="10.96"/><rect class="cls-28" x="1008.6" y="444.72" width="73.57" height="3.91" rx="1.1"/><rect class="cls-28" x="1010.17" y="448.63" width="70.44" height="3.13" rx="1.1"/><rect class="cls-28" x="1017.6" y="452.16" width="55.57" height="3.91" rx="1.1"/><rect class="cls-31" x="1024.65" y="518.68" width="40.69" height="3.91" rx="1.1"/><rect class="cls-28" x="1023.08" y="549.99" width="44.61" height="3.91" rx="1.1"/><rect class="cls-28" x="1029.74" y="456.07" width="31.31" height="23.48"/><rect class="cls-32" x="1019.95" y="479.55" width="50.87" height="7.83" rx="1.1"/><rect class="cls-28" x="1026.13" y="487.38" width="38.58" height="31.31"/><rect class="cls-28" x="1025.43" y="522.6" width="39.28" height="27.39"/><rect class="cls-28" x="1030.13" y="487.38" width="30.52" height="31.31" rx="0.6"/><rect class="cls-28" x="1012.31" y="509.23" width="12.34" height="20.8"/><rect class="cls-28" x="1065.35" y="509.23" width="12.34" height="20.8"/><rect class="cls-28" x="1008.08" y="503.43" width="4.24" height="32.69" rx="0.4"/><rect class="cls-28" x="1000.76" y="503.43" width="4.24" height="32.69" rx="0.4"/><rect class="cls-28" x="1085.26" y="503.43" width="4.24" height="32.69" rx="0.4"/><rect class="cls-28" x="1077.94" y="503.43" width="4.24" height="32.69" rx="0.4"/><text class="cls-25" transform="translate(1029.6 591.2)">SANLEY</text><ellipse class="cls-26" cx="1067.58" cy="632.32" rx="2.44" ry="2.37"/><circle class="cls-27" cx="1067.58" cy="632.32" r="2.12"/><circle class="cls-26" cx="1067.58" cy="632.32" r="1.65"/><circle class="cls-27" cx="1067.58" cy="632.32" r="1.18"/><ellipse class="cls-26" cx="1067.58" cy="640.31" rx="2.44" ry="2.37"/><circle class="cls-27" cx="1067.58" cy="640.31" r="2.12"/><circle class="cls-26" cx="1067.58" cy="640.31" r="1.65"/><circle class="cls-27" cx="1067.58" cy="640.31" r="1.18"/><rect class="cls-28" x="1018.76" y="599.25" width="53.19" height="67.31" rx="10.76"/><rect class="cls-28" x="1018.14" y="578.9" width="54.01" height="86.88" rx="10.76"/><rect class="cls-29" x="1018.92" y="605.53" width="9.39" height="52.12"/><rect class="cls-29" x="1062.75" y="605.53" width="9.39" height="52.12"/><rect class="cls-30" x="1030.27" y="598.86" width="2.35" height="67.31"/><rect class="cls-30" x="1034.97" y="598.86" width="2.35" height="67.31"/><rect class="cls-30" x="1039.66" y="598.86" width="2.35" height="67.31"/><rect class="cls-30" x="1044.36" y="598.86" width="2.35" height="67.31"/><rect class="cls-30" x="1049.06" y="598.86" width="2.35" height="67.31"/><rect class="cls-30" x="1053.75" y="598.86" width="2.35" height="67.31"/><rect class="cls-30" x="1058.45" y="598.86" width="2.35" height="67.31"/><path class="cls-28" d="M1076.74,657.52h-3.28l-1.1-1.1V633.57l1.1-1.1h3.28l1.1,1.1v22.85Z"/><rect class="cls-28" x="1020.81" y="666.56" width="48.21" height="10.96"/><rect class="cls-28" x="1029.88" y="666.56" width="5.48" height="10.96"/><rect class="cls-28" x="1056.49" y="666.56" width="5.48" height="10.96"/><rect class="cls-28" x="1008.29" y="678.3" width="73.57" height="3.91" rx="1.1"/><rect class="cls-28" x="1009.85" y="682.22" width="70.44" height="3.13" rx="1.1"/><rect class="cls-28" x="1017.29" y="685.74" width="55.57" height="3.91" rx="1.1"/><rect class="cls-31" x="1024.34" y="752.27" width="40.69" height="3.91" rx="1.1"/><rect class="cls-28" x="1022.77" y="783.57" width="44.61" height="3.91" rx="1.1"/><rect class="cls-28" x="1029.42" y="689.65" width="31.31" height="23.48"/><rect class="cls-32" x="1019.63" y="713.13" width="50.87" height="7.83" rx="1.1"/><rect class="cls-28" x="1025.81" y="720.96" width="38.58" height="31.31"/><rect class="cls-28" x="1025.11" y="756.18" width="39.28" height="27.39"/><rect class="cls-28" x="1029.81" y="720.96" width="30.52" height="31.31" rx="0.6"/><rect class="cls-28" x="1012" y="742.82" width="12.34" height="20.8"/><rect class="cls-28" x="1065.03" y="742.82" width="12.34" height="20.8"/><rect class="cls-28" x="1007.76" y="737.02" width="4.24" height="32.69" rx="0.4"/><rect class="cls-28" x="1000.44" y="737.02" width="4.24" height="32.69" rx="0.4"/><rect class="cls-28" x="1084.94" y="737.02" width="4.24" height="32.69" rx="0.4"/><rect class="cls-28" x="1077.62" y="737.02" width="4.24" height="32.69" rx="0.4"/><text class="cls-25" transform="translate(1030.47 815.48)">SANLEY</text><ellipse class="cls-26" cx="1068.44" cy="856.61" rx="2.44" ry="2.37"/><circle class="cls-27" cx="1068.44" cy="856.61" r="2.12"/><circle class="cls-26" cx="1068.44" cy="856.61" r="1.65"/><circle class="cls-27" cx="1068.44" cy="856.61" r="1.18"/><ellipse class="cls-26" cx="1068.44" cy="864.59" rx="2.44" ry="2.37"/><circle class="cls-27" cx="1068.44" cy="864.59" r="2.12"/><circle class="cls-26" cx="1068.44" cy="864.59" r="1.65"/><circle class="cls-27" cx="1068.44" cy="864.59" r="1.18"/><rect class="cls-28" x="1019.62" y="823.54" width="53.19" height="67.31" rx="10.76"/><rect class="cls-28" x="1019" y="803.19" width="54.01" height="86.88" rx="10.76"/><rect class="cls-29" x="1019.79" y="829.81" width="9.39" height="52.12"/><rect class="cls-29" x="1063.62" y="829.81" width="9.39" height="52.12"/><rect class="cls-30" x="1031.13" y="823.14" width="2.35" height="67.31"/><rect class="cls-30" x="1035.83" y="823.14" width="2.35" height="67.31"/><rect class="cls-30" x="1040.53" y="823.14" width="2.35" height="67.31"/><rect class="cls-30" x="1045.22" y="823.14" width="2.35" height="67.31"/><rect class="cls-30" x="1049.92" y="823.14" width="2.35" height="67.31"/><rect class="cls-30" x="1054.61" y="823.14" width="2.35" height="67.31"/><rect class="cls-30" x="1059.31" y="823.14" width="2.35" height="67.31"/><path class="cls-28" d="M1077.6,881.8h-3.27l-1.1-1.1V857.86l1.1-1.1h3.27l1.1,1.1V880.7Z"/><rect class="cls-28" x="1021.67" y="890.85" width="48.21" height="10.96"/><rect class="cls-28" x="1030.74" y="890.85" width="5.48" height="10.96"/><rect class="cls-28" x="1057.35" y="890.85" width="5.48" height="10.96"/><rect class="cls-28" x="1009.15" y="902.59" width="73.57" height="3.91" rx="1.1"/><rect class="cls-28" x="1010.71" y="906.5" width="70.44" height="3.13" rx="1.1"/><rect class="cls-28" x="1018.15" y="910.02" width="55.57" height="3.91" rx="1.1"/><rect class="cls-31" x="1025.2" y="976.55" width="40.69" height="3.91" rx="1.1"/><rect class="cls-28" x="1023.63" y="1007.86" width="44.61" height="3.91" rx="1.1"/><rect class="cls-28" x="1030.28" y="913.94" width="31.31" height="23.48"/><rect class="cls-32" x="1020.5" y="937.42" width="50.87" height="7.83" rx="1.1"/><rect class="cls-28" x="1026.67" y="945.24" width="38.58" height="31.31"/><rect class="cls-28" x="1025.98" y="980.46" width="39.28" height="27.39"/><rect class="cls-28" x="1030.67" y="945.24" width="30.52" height="31.31" rx="0.6"/><rect class="cls-28" x="1012.86" y="967.1" width="12.34" height="20.8"/><rect class="cls-28" x="1065.89" y="967.1" width="12.34" height="20.8"/><rect class="cls-28" x="1008.62" y="961.3" width="4.24" height="32.69" rx="0.4"/><rect class="cls-28" x="1001.3" y="961.3" width="4.24" height="32.69" rx="0.4"/><rect class="cls-28" x="1085.81" y="961.3" width="4.24" height="32.69" rx="0.4"/><rect class="cls-28" x="1078.49" y="961.3" width="4.24" height="32.69" rx="0.4"/><rect class="cls-2" x="390.99" y="368.9" width="298.49" height="14" transform="translate(916.13 -164.33) rotate(90)"/><path class="cls-2" d="M524.27,220.45H228.09c-2.81,0-5.09-3.14-5.09-7h0c0-3.87,2.28-7,5.09-7H524.27c2.81,0,5.09,3.13,5.09,7h0C529.36,217.31,527.08,220.45,524.27,220.45Z"/><text class="cls-5" transform="translate(338.34 269.25)">进水阀门</text><text class="cls-33" transform="translate(208.78 187.56)">市政进水</text><polygon class="cls-19" points="566.38 340.69 566.38 372.17 566.38 378.19 558.19 374.72 567.96 397.87 577.73 374.72 569.55 378.19 569.55 372.17 569.55 340.69 566.38 340.69"/><polygon class="cls-19" points="217.91 260.47 249.39 260.47 255.41 260.47 251.94 268.66 275.08 258.89 251.94 249.12 255.41 257.3 249.39 257.3 217.91 257.3 217.91 260.47"/><polygon class="cls-19" points="525.29 781.34 556.77 781.34 562.79 781.34 559.32 789.52 582.46 779.75 559.32 769.98 562.79 778.16 556.77 778.16 525.29 778.16 525.29 781.34"/><path class="cls-2" d="M533.11,233.23l14.86.12a26.83,26.83,0,0,0-27.56-26.94v14.26a12.71,12.71,0,0,1,8.19,2.78A13.06,13.06,0,0,1,533.11,233.23Z"/><rect class="cls-2" x="516.91" y="205.13" width="3.8" height="16.56" transform="translate(1037.62 426.81) rotate(-180)"/><rect class="cls-2" x="538.56" y="226.27" width="3.8" height="16.56" transform="translate(775.01 -305.92) rotate(90)"/><rect class="cls-3" x="392.31" y="205.32" width="3.48" height="15.76"/><rect class="cls-3" x="397.08" y="205.32" width="3.48" height="15.76"/><rect class="cls-3" x="359.16" y="205.32" width="3.48" height="15.76"/><rect class="cls-3" x="363.92" y="205.32" width="3.48" height="15.76"/><circle class="cls-20" cx="379.52" cy="171.31" r="12.98"/><rect class="cls-3" x="373.26" y="160.62" width="1.83" height="10.15" rx="0.91" transform="translate(755.92 18.29) rotate(135)"/><rect class="cls-3" x="384.49" y="171.85" width="1.83" height="10.15" rx="0.91" transform="translate(783.02 29.51) rotate(135)"/><rect class="cls-3" x="376.62" y="155.4" width="6.59" height="3.25"/><polygon class="cls-3" points="378.76 192.74 377.22 193.2 373.65 187.09 375.2 186.62 378.76 192.74"/><polygon class="cls-3" points="381.84 192.74 383.39 193.2 386.56 187.12 385.41 186.62 381.84 192.74"/><rect class="cls-3" x="379.36" y="186.32" width="1.67" height="6.63" transform="translate(760.39 379.27) rotate(180)"/><rect class="cls-3" x="391.76" y="167.01" width="3.69" height="7.92"/><rect class="cls-3" x="373.17" y="184.49" width="13.63" height="3.72" rx="0.72"/><rect class="cls-3" x="377.12" y="194.31" width="6.45" height="7.65" rx="0.72"/><rect class="cls-3" x="373.43" y="191.83" width="13.73" height="1.57" rx="0.44"/><rect class="cls-3" x="373.43" y="193.53" width="13.73" height="1.57" rx="0.42"/><rect class="cls-3" x="363.14" y="171.79" width="3.03" height="3.14"/><rect class="cls-3" x="363.14" y="167.53" width="3.03" height="3.14"/><circle class="cls-21" cx="379.79" cy="171.32" r="3.33"/><circle class="cls-22" cx="379.83" cy="171.31" r="2.22"/><rect class="cls-3" x="384.49" y="160.62" width="1.83" height="10.15" rx="0.91" transform="translate(540.75 555.38) rotate(-135)"/><rect class="cls-3" x="373.26" y="171.85" width="1.83" height="10.15" rx="0.91" transform="translate(513.64 566.61) rotate(-135)"/><rect class="cls-3" x="373.33" y="198.09" width="13.48" height="24.85" rx="4.98"/><rect class="cls-3" x="385.58" y="196.6" width="3.31" height="27.82" rx="1.66"/><rect class="cls-3" x="371.32" y="196.6" width="3.31" height="27.82" rx="1.66"/><circle class="cls-23" cx="379.83" cy="171.31" r="1.33"/><circle class="cls-24" cx="379.83" cy="171.31" r="0.94"/><rect class="cls-2" x="390.99" y="368.9" width="298.49" height="14" transform="translate(916.13 -164.33) rotate(90)"/><path class="cls-2" d="M524.27,220.45H228.09c-2.81,0-5.09-3.14-5.09-7h0c0-3.87,2.28-7,5.09-7H524.27c2.81,0,5.09,3.13,5.09,7h0C529.36,217.31,527.08,220.45,524.27,220.45Z"/><text class="cls-5" transform="translate(338.34 269.25)">进水阀门</text><text class="cls-33" transform="translate(208.78 187.56)">市政进水</text><polygon class="cls-19" points="566.38 340.69 566.38 372.17 566.38 378.19 558.19 374.72 567.96 397.87 577.73 374.72 569.55 378.19 569.55 372.17 569.55 340.69 566.38 340.69"/><polygon class="cls-19" points="217.91 260.47 249.39 260.47 255.41 260.47 251.94 268.66 275.08 258.89 251.94 249.12 255.41 257.3 249.39 257.3 217.91 257.3 217.91 260.47"/><polygon class="cls-19" points="525.29 781.34 556.77 781.34 562.79 781.34 559.32 789.52 582.46 779.75 559.32 769.98 562.79 778.16 556.77 778.16 525.29 778.16 525.29 781.34"/><path class="cls-2" d="M533.11,233.23l14.86.12a26.83,26.83,0,0,0-27.56-26.94v14.26a12.71,12.71,0,0,1,8.19,2.78A13.06,13.06,0,0,1,533.11,233.23Z"/><rect class="cls-2" x="516.91" y="205.13" width="3.8" height="16.56" transform="translate(1037.62 426.81) rotate(-180)"/><rect class="cls-2" x="538.56" y="226.27" width="3.8" height="16.56" transform="translate(775.01 -305.92) rotate(90)"/><rect class="cls-3" x="392.31" y="205.32" width="3.48" height="15.76"/><rect class="cls-3" x="397.08" y="205.32" width="3.48" height="15.76"/><rect class="cls-3" x="359.16" y="205.32" width="3.48" height="15.76"/><rect class="cls-3" x="363.92" y="205.32" width="3.48" height="15.76"/><circle class="cls-20" cx="379.52" cy="171.31" r="12.98"/><rect class="cls-3" x="373.26" y="160.62" width="1.83" height="10.15" rx="0.91" transform="translate(755.92 18.29) rotate(135)"/><rect class="cls-3" x="384.49" y="171.85" width="1.83" height="10.15" rx="0.91" transform="translate(783.02 29.51) rotate(135)"/><rect class="cls-3" x="376.62" y="155.4" width="6.59" height="3.25"/><polygon class="cls-3" points="378.76 192.74 377.22 193.2 373.65 187.09 375.2 186.62 378.76 192.74"/><polygon class="cls-3" points="381.84 192.74 383.39 193.2 386.56 187.12 385.41 186.62 381.84 192.74"/><rect class="cls-3" x="379.36" y="186.32" width="1.67" height="6.63" transform="translate(760.39 379.27) rotate(180)"/><rect class="cls-3" x="391.76" y="167.01" width="3.69" height="7.92"/><rect class="cls-3" x="373.17" y="184.49" width="13.63" height="3.72" rx="0.72"/><rect class="cls-3" x="377.12" y="194.31" width="6.45" height="7.65" rx="0.72"/><rect class="cls-3" x="373.43" y="191.83" width="13.73" height="1.57" rx="0.44"/><rect class="cls-3" x="373.43" y="193.53" width="13.73" height="1.57" rx="0.42"/><rect class="cls-3" x="363.14" y="171.79" width="3.03" height="3.14"/><rect class="cls-3" x="363.14" y="167.53" width="3.03" height="3.14"/><circle class="cls-21" cx="379.79" cy="171.32" r="3.33"/><circle class="cls-22" cx="379.83" cy="171.31" r="2.22"/><rect class="cls-3" x="384.49" y="160.62" width="1.83" height="10.15" rx="0.91" transform="translate(540.75 555.38) rotate(-135)"/><rect class="cls-3" x="373.26" y="171.85" width="1.83" height="10.15" rx="0.91" transform="translate(513.64 566.61) rotate(-135)"/><rect class="cls-3" x="373.33" y="198.09" width="13.48" height="24.85" rx="4.98"/><rect class="cls-3" x="385.58" y="196.6" width="3.31" height="27.82" rx="1.66"/><rect class="cls-3" x="371.32" y="196.6" width="3.31" height="27.82" rx="1.66"/><circle class="cls-23" cx="379.83" cy="171.31" r="1.33"/><circle class="cls-24" cx="379.83" cy="171.31" r="0.94"/><rect class="cls-34" x="326.77" y="516" width="315.05" height="212"/><rect class="cls-35" x="328.09" y="567.65" width="312.86" height="158.9"/><rect class="cls-2" x="463" y="745.33" width="257.98" height="14"/><circle class="cls-36" cx="442" cy="703" r="10"/><ellipse class="cls-37" cx="442.25" cy="703.5" rx="8" ry="7.75"/><rect class="cls-2" x="420.23" y="712" width="44" height="14" rx="7" transform="translate(1161.23 276.77) rotate(90)"/><path class="cls-2" d="M450,732.57l-14.87-.12a26.83,26.83,0,0,0,27.57,26.94V745.13a12.64,12.64,0,0,1-8.19-2.78A13,13,0,0,1,450,732.57Z"/><rect class="cls-2" x="462.41" y="744.12" width="3.8" height="16.56"/><rect class="cls-2" x="440.76" y="722.98" width="3.8" height="16.56" transform="translate(-288.6 1173.92) rotate(-90)"/><rect class="cls-2" x="463" y="745.33" width="257.98" height="14"/><circle class="cls-36" cx="442" cy="703" r="10"/><ellipse class="cls-37" cx="442.25" cy="703.5" rx="8" ry="7.75"/><rect class="cls-2" x="420.23" y="712" width="44" height="14" rx="7" transform="translate(1161.23 276.77) rotate(90)"/><path class="cls-2" d="M450,732.57l-14.87-.12a26.83,26.83,0,0,0,27.57,26.94V745.13a12.64,12.64,0,0,1-8.19-2.78A13,13,0,0,1,450,732.57Z"/><rect class="cls-2" x="462.41" y="744.12" width="3.8" height="16.56"/><rect class="cls-2" x="440.76" y="722.98" width="3.8" height="16.56" transform="translate(-288.6 1173.92) rotate(-90)"/><rect class="cls-2" x="1063.82" y="550.02" width="800.71" height="12.16" transform="translate(2020.28 -908.08) rotate(90)"/><path class="cls-2" d="M1481.22,143.32q.06-6.45.11-12.91a23.3,23.3,0,0,0-23.4,23.94h12.39a11,11,0,0,1,2.41-7.11A11.33,11.33,0,0,1,1481.22,143.32Z"/><rect class="cls-2" x="1462.35" y="148.55" width="3.3" height="14.38" transform="translate(1619.75 -1308.26) rotate(90)"/><rect class="cls-2" x="1480.71" y="129.75" width="3.3" height="14.38"/><rect class="cls-2" x="1482.59" y="130.57" width="227.15" height="12.88"/><rect class="cls-3" x="1608.27" y="96.43" width="2.73" height="8.46"/><rect class="cls-3" x="1586.02" y="96.43" width="2.47" height="8.46"/><rect class="cls-3" x="1582.94" y="125.94" width="31.63" height="20.78"/><polygon class="cls-3" points="1617.48 141.14 1615.03 147.18 1615.03 126.4 1617.48 132.3 1617.48 141.14"/><polygon class="cls-3" points="1580.01 141.14 1582.46 147.18 1582.46 126.4 1580.01 132.3 1580.01 141.14"/><rect class="cls-3" x="1619.55" y="128.55" width="2.77" height="17.11"/><rect class="cls-3" x="1623.35" y="128.55" width="2.77" height="17.11"/><rect class="cls-3" x="1571.4" y="128.55" width="2.77" height="17.11"/><rect class="cls-3" x="1575.19" y="128.55" width="2.77" height="17.11"/><rect class="cls-3" x="1592.21" y="121.77" width="13.19" height="5.07" rx="0.4"/><rect class="cls-3" x="1593.14" y="113.98" width="11.01" height="3.05" rx="0.4"/><rect class="cls-3" x="1593.24" y="110.14" width="11.01" height="3.29" rx="0.4"/><rect class="cls-3" x="1595.92" y="115.66" width="5.51" height="7.11" rx="0.4"/><circle class="cls-38" cx="1598.82" cy="100.75" r="10.28"/><circle class="cls-39" cx="1598.64" cy="100.92" r="7.33"/><circle class="cls-40" cx="1598.8" cy="100.98" r="9.49"/><rect class="cls-3" x="1584.71" y="97.92" width="2.53" height="1.55"/><rect class="cls-3" x="1584.71" y="101.87" width="2.53" height="1.55"/><rect class="cls-41" x="1593.73" y="99.22" width="9.88" height="3.51"/><polygon class="cls-42" points="1596.38 102.73 1593.73 102.73 1593.73 99.22 1598.96 99.22 1596.38 102.73"/><path class="cls-3" d="M1596.21,131.58l-8.29-3.24a.43.43,0,0,1-.11-.73l7-5.55a.42.42,0,0,1,.69.27l1.33,8.79A.42.42,0,0,1,1596.21,131.58Z"/><path class="cls-3" d="M1601.45,131.58l8.28-3.24a.42.42,0,0,0,.11-.73l-6.95-5.55a.43.43,0,0,0-.69.27l-1.33,8.79A.43.43,0,0,0,1601.45,131.58Z"/><text class="cls-43" transform="translate(1472.77 270.52)">出水阀门</text><text class="cls-44" transform="translate(1641.06 113.85)">供水入户</text><text class="cls-43" transform="translate(1568.41 177.06)">流量计</text><rect class="cls-45" x="1560.54" y="185.85" width="76.44" height="27.78"/><polygon class="cls-19" points="1655.24 170.3 1682.13 170.3 1688.15 170.3 1684.68 178.49 1707.83 168.72 1684.68 158.94 1688.15 167.13 1682.13 167.13 1655.24 167.13 1655.24 170.3"/><rect class="cls-3" x="1462.45" y="236.09" width="3.2" height="14.5" transform="translate(1707.39 -1220.72) rotate(90)"/><rect class="cls-3" x="1462.45" y="240.47" width="3.2" height="14.5" transform="translate(1711.77 -1216.33) rotate(90)"/><rect class="cls-3" x="1462.45" y="205.6" width="3.2" height="14.5" transform="translate(1676.9 -1251.21) rotate(90)"/><rect class="cls-3" x="1462.45" y="209.98" width="3.2" height="14.5" transform="translate(1681.28 -1246.83) rotate(90)"/><circle class="cls-20" cx="1502.58" cy="229.97" r="11.94"/><rect class="cls-3" x="1506.9" y="220.38" width="1.68" height="9.34" rx="0.84" transform="translate(2414.74 1450.32) rotate(-135)"/><rect class="cls-3" x="1496.57" y="230.71" width="1.68" height="9.34" rx="0.84" transform="translate(2389.8 1460.65) rotate(-135)"/><rect class="cls-3" x="1512.69" y="228.84" width="6.06" height="2.98" transform="translate(1746.05 -1285.39) rotate(90)"/><polygon class="cls-3" points="1482.87 229.28 1482.44 227.85 1488.07 224.57 1488.5 226 1482.87 229.28"/><polygon class="cls-3" points="1482.87 232.11 1482.44 233.53 1488.04 236.44 1488.5 235.39 1482.87 232.11"/><rect class="cls-3" x="1484.96" y="227.54" width="1.54" height="6.1" transform="translate(1255.14 1716.32) rotate(-90)"/><rect class="cls-3" x="1501.2" y="239.28" width="3.39" height="7.28" transform="translate(1745.81 -1259.97) rotate(90)"/><rect class="cls-3" x="1482.48" y="228.69" width="12.54" height="3.42" rx="0.72" transform="translate(1719.15 -1258.34) rotate(90)"/><rect class="cls-3" x="1474.94" y="227.21" width="5.93" height="7.04" rx="0.72" transform="translate(1708.63 -1247.18) rotate(90)"/><rect class="cls-3" x="1476.67" y="229.96" width="12.63" height="1.45" rx="0.44" transform="translate(1713.66 -1252.3) rotate(90)"/><rect class="cls-3" x="1475.11" y="229.96" width="12.63" height="1.45" rx="0.42" transform="translate(1712.1 -1250.74) rotate(90)"/><rect class="cls-3" x="1499.3" y="214.85" width="2.79" height="2.88" transform="translate(1716.99 -1284.4) rotate(90)"/><rect class="cls-3" x="1503.22" y="214.85" width="2.79" height="2.88" transform="translate(1720.91 -1288.32) rotate(90)"/><circle class="cls-21" cx="1502.57" cy="230.22" r="3.07"/><circle class="cls-22" cx="1502.58" cy="230.26" r="2.04"/><rect class="cls-3" x="1506.9" y="230.71" width="1.68" height="9.34" rx="0.84" transform="translate(275.17 1135.07) rotate(-45)"/><rect class="cls-3" x="1496.57" y="220.38" width="1.68" height="9.34" rx="0.84" transform="translate(279.45 1124.75) rotate(-45)"/><rect class="cls-3" x="1460.32" y="219.05" width="12.4" height="22.85" rx="4.98" transform="translate(1696.99 -1236.05) rotate(90)"/><rect class="cls-3" x="1465.01" y="224.27" width="3.04" height="25.58" rx="1.52" transform="translate(1703.6 -1229.46) rotate(90)"/><rect class="cls-3" x="1465.01" y="211.16" width="3.04" height="25.58" rx="1.52" transform="translate(1690.48 -1242.58) rotate(90)"/><circle class="cls-23" cx="1502.58" cy="230.26" r="1.22"/><circle class="cls-24" cx="1502.58" cy="230.26" r="0.86"/><rect class="cls-3" x="1526.95" y="394.91" width="0.63" height="2.18" transform="translate(1923.27 -1131.26) rotate(90)"/><rect class="cls-3" x="1525.28" y="389.29" width="0.63" height="2.18" transform="translate(879.43 -1045.69) rotate(51.42)"/><rect class="cls-3" x="1524.96" y="400.41" width="0.63" height="2.18" transform="translate(2826.53 -489.77) rotate(130.84)"/><rect class="cls-3" x="1519.37" y="403.71" width="0.63" height="2.18" transform="translate(3075.12 637.08) rotate(173.58)"/><rect class="cls-3" x="1519.43" y="385.66" width="0.63" height="2.18" transform="translate(67.41 -204.78) rotate(7.88)"/><rect class="cls-3" x="1527.64" y="393.99" width="0.33" height="1.21" transform="translate(1624.73 -1180.36) rotate(79.04)"/><rect class="cls-3" x="1527.64" y="396.72" width="0.33" height="1.21" transform="translate(2240.89 -1011.06) rotate(102.28)"/><rect class="cls-3" x="1527.39" y="397.92" width="0.33" height="1.21" transform="translate(2425.82 -899.69) rotate(110.06)"/><rect class="cls-3" x="1526.98" y="399.07" width="0.33" height="1.21" transform="translate(2593.75 -764.04) rotate(117.84)"/><rect class="cls-3" x="1526.41" y="400.15" width="0.33" height="1.21" transform="translate(2741.5 -606.71) rotate(125.62)"/><rect class="cls-3" x="1524.87" y="402.05" width="0.33" height="1.21" transform="translate(2965.73 -239.43) rotate(141.19)"/><rect class="cls-3" x="1523.92" y="402.82" width="0.33" height="1.21" transform="translate(3038.04 -36.51) rotate(148.97)"/><rect class="cls-3" x="1522.88" y="403.46" width="0.33" height="1.21" transform="translate(3081.92 174.18) rotate(156.75)"/><rect class="cls-3" x="1521.76" y="403.95" width="0.33" height="1.21" transform="translate(3096.62 388.65) rotate(164.54)"/><rect class="cls-3" x="1520.59" y="404.49" width="0.33" height="1.21" transform="translate(3082 603.27) rotate(172.32)"/><rect class="cls-3" x="1518.35" y="404.86" width="0.33" height="1.21" transform="translate(3036.3 813.6) rotate(-179.9)"/><rect class="cls-3" x="1517.12" y="404.87" width="0.33" height="1.21" transform="translate(2964.62 1015.22) rotate(-172.12)"/><rect class="cls-3" x="1515.91" y="404.71" width="0.33" height="1.21" transform="translate(2866.39 1204.95) rotate(-164.33)"/><rect class="cls-3" x="1527.37" y="392.85" width="0.33" height="1.21" transform="translate(1418.48 -1180.17) rotate(71.59)"/><rect class="cls-3" x="1526.96" y="391.75" width="0.33" height="1.21" transform="translate(1214.19 -1153) rotate(64.14)"/><rect class="cls-3" x="1526.41" y="390.71" width="0.33" height="1.21" transform="translate(1015.39 -1099.4) rotate(56.7)"/><rect class="cls-3" x="1524.74" y="388.26" width="0.33" height="1.21" transform="translate(635.03 -909.08) rotate(41.26)"/><rect class="cls-3" x="1523.6" y="387.45" width="0.33" height="1.21" transform="translate(451.45 -761.99) rotate(32.72)"/><rect class="cls-3" x="1522.35" y="386.4" width="0.33" height="1.21" transform="translate(291.95 -589.49) rotate(24.17)"/><rect class="cls-3" x="1521.03" y="385.96" width="0.33" height="1.21" transform="translate(160.36 -395.49) rotate(15.63)"/><rect class="cls-3" x="1518.25" y="385.68" width="0.33" height="1.21" transform="translate(-9.35 38.83) rotate(-1.46)"/><rect class="cls-3" x="1516.86" y="385.65" width="0.33" height="1.21" transform="translate(-44.03 269.43) rotate(-10)"/><rect class="cls-3" x="1515.52" y="386.03" width="0.33" height="1.21" transform="translate(-44.26 502.24) rotate(-18.55)"/><rect class="cls-3" x="1500.5" y="394.23" width="5.62" height="3.7" transform="translate(1899.39 -1107.23) rotate(90)"/><rect class="cls-3" x="1472.21" y="391.28" width="5.62" height="9.59" transform="translate(1871.1 -1078.94) rotate(90)"/><rect class="cls-3" x="1492.47" y="394.72" width="5.62" height="2.72" transform="translate(1891.36 -1099.2) rotate(90)"/><rect class="cls-3" x="1476.96" y="395.43" width="6.78" height="1.27" transform="translate(1876.41 -1084.28) rotate(90)"/><polygon class="cls-3" points="1491.55 400.5 1491.55 391.69 1493.72 393.27 1493.72 398.89 1491.55 400.5"/><polygon class="cls-3" points="1501.86 398.45 1501.86 393.7 1499.41 391.33 1496.96 393.7 1496.96 398.45 1499.41 400.83 1501.86 398.45"/><polygon class="cls-3" points="1491.29 399.52 1491.29 392.65 1486.35 389.22 1481.41 392.65 1481.41 399.52 1486.35 402.95 1491.29 399.52"/><rect class="cls-3" x="1484.41" y="384.6" width="2.81" height="8.92" transform="translate(1874.87 -1096.76) rotate(90)"/><rect class="cls-3" x="1485.13" y="384.38" width="1.62" height="6.53" transform="translate(1873.58 -1098.3) rotate(90)"/><rect class="cls-3" x="1484.68" y="384.26" width="2.32" height="3.16" transform="translate(1871.68 -1100) rotate(90)"/><rect class="cls-3" x="1484.94" y="378.7" width="1.15" height="2.8" rx="0.37" transform="translate(1865.61 -1105.42) rotate(90)"/><rect class="cls-3" x="1484.95" y="379.92" width="1.04" height="7.8" transform="translate(1869.29 -1101.65) rotate(90)"/><rect class="cls-3" x="1487.12" y="381.51" width="2.76" height="1.73" rx="0.44" transform="translate(1870.88 -1106.14) rotate(90)"/><rect class="cls-3" x="1484.25" y="381.51" width="2.76" height="1.73" rx="0.44" transform="translate(1868 -1103.26) rotate(90)"/><rect class="cls-3" x="1481.05" y="381.51" width="2.76" height="1.73" rx="0.44" transform="translate(1864.8 -1100.06) rotate(90)"/><circle class="cls-46" cx="1518.65" cy="395.69" r="13.34"/><path class="cls-47" d="M1514.79,385.45a12.24,12.24,0,0,1,3.69-.57,10.9,10.9,0,1,1-3.66,21.24"/><polygon class="cls-3" points="1516.07 393.55 1517.99 392.42 1519.23 396.23 1522.45 402.08 1522.19 402.21 1518.9 396.45 1516.07 393.55"/><circle class="cls-48" cx="1518.65" cy="395.61" r="0.84"/><text class="cls-49" transform="translate(1510.21 392.02) rotate(90)">MPA</text><text class="cls-5" transform="translate(1475.97 758.03)">压力控制器</text><text class="cls-5" transform="translate(1473.08 442.39)">出水压力表</text><rect class="cls-50" x="1477.08" y="455.53" width="83.11" height="30.2"/><polygon class="cls-19" points="1497.68 606.52 1497.68 575.03 1497.68 569.01 1505.87 572.49 1496.1 549.34 1486.33 572.49 1494.51 569.01 1494.51 575.03 1494.51 606.52 1497.68 606.52"/><rect class="cls-47" x="1492.1" y="693.95" width="32.29" height="29.43" rx="2.35" transform="translate(2216.91 -799.58) rotate(90)"/><rect class="cls-3" x="1493.36" y="695.5" width="29.95" height="26.32" rx="1.91" transform="translate(2217 -799.67) rotate(90)"/><ellipse class="cls-51" cx="1497.88" cy="696.2" rx="0.99" ry="1.03"/><ellipse class="cls-51" cx="1497.88" cy="720.91" rx="0.99" ry="1.03"/><ellipse class="cls-51" cx="1519.01" cy="696.2" rx="0.99" ry="1.03"/><ellipse class="cls-51" cx="1519.01" cy="720.91" rx="0.99" ry="1.03"/><rect class="cls-52" x="1495.5" y="712.79" width="3.54" height="4.63" transform="translate(2212.38 -782.17) rotate(90)"/><rect class="cls-3" x="1485.36" y="707.5" width="12.83" height="1.22" transform="translate(2199.89 -783.67) rotate(90)"/><rect class="cls-53" x="1473.6" y="698.1" width="12.83" height="20.12" rx="0.25" transform="translate(2188.18 -771.86) rotate(90)"/><rect class="cls-54" x="1479.43" y="702.31" width="5.77" height="11.7" rx="0.15" transform="translate(2190.48 -774.15) rotate(90)"/><text class="cls-55" transform="translate(1517.27 703.42) rotate(90) scale(1.09 1)">压力开关</text><rect class="cls-54" x="1498.85" y="704.19" width="20.54" height="10.06" transform="translate(2218.34 -799.9) rotate(90)"/><text class="cls-56" transform="translate(1511.74 699.39) rotate(90) scale(1.09 1)">CSS</text><text class="cls-57" transform="translate(1508.98 700.4) rotate(90) scale(1.09 1)">asdsanmlopq<tspan class="cls-58" x="11.59" y="0">r</tspan><tspan class="cls-59" x="12.38" y="0">st</tspan></text><text class="cls-57" transform="translate(1506.21 700.4) rotate(90) scale(1.09 1)">asdsanmlopq<tspan class="cls-58" x="11.59" y="0">r</tspan><tspan class="cls-59" x="12.38" y="0">st</tspan></text><path class="cls-2" d="M739.68,526.74l.12-14.87a26.83,26.83,0,0,0-26.94,27.56h14.26a12.65,12.65,0,0,1,2.79-8.18A13,13,0,0,1,739.68,526.74Z"/><rect class="cls-2" x="717.95" y="532.76" width="3.8" height="16.56" transform="translate(1260.89 -178.82) rotate(90)"/><rect class="cls-2" x="739.09" y="511.11" width="3.8" height="16.56"/><rect class="cls-60" x="1218.12" y="290.57" width="10" height="28.43"/><path class="cls-2" d="M1230.41,297.69c-3.81,0-7.72,0-11.52,0,0,1.31.45,5.37,6.89,11.37a21.09,21.09,0,0,0,14.62,5.53v-11c-.81,0-4.47.75-7.05-1.37C1229.94,299.46,1230.41,298.46,1230.41,297.69Z"/><rect class="cls-2" x="1239.18" y="302.7" width="2.92" height="12.72"/><rect class="cls-2" x="1223.04" y="290.1" width="2.92" height="12.72" transform="translate(1520.97 -928.04) rotate(90)"/><rect class="cls-2" x="1221.76" y="280.98" width="3.8" height="16.56" transform="translate(934.4 1512.92) rotate(-90)"/><rect class="cls-2" x="1242" y="304" width="216" height="10.9" transform="translate(2700 618.9) rotate(-180)"/><rect class="cls-3" x="1360.14" y="301.41" width="3.48" height="15.76" transform="translate(2723.76 618.58) rotate(-180)"/><rect class="cls-3" x="1355.37" y="301.41" width="3.48" height="15.76" transform="translate(2714.23 618.58) rotate(-180)"/><rect class="cls-3" x="1393.29" y="301.41" width="3.48" height="15.76" transform="translate(2790.06 618.58) rotate(-180)"/><rect class="cls-3" x="1388.53" y="301.41" width="3.48" height="15.76" transform="translate(2780.53 618.58) rotate(-180)"/><circle class="cls-20" cx="1376.42" cy="267.4" r="12.98"/><rect class="cls-3" x="1380.85" y="256.71" width="1.83" height="10.15" rx="0.91" transform="translate(589.82 -900.37) rotate(45)"/><rect class="cls-3" x="1369.62" y="267.94" width="1.83" height="10.15" rx="0.91" transform="translate(594.47 -889.15) rotate(45)"/><rect class="cls-3" x="1372.73" y="251.49" width="6.59" height="3.25" transform="translate(2752.04 506.22) rotate(-180)"/><polygon class="cls-3" points="1377.17 288.83 1378.71 289.29 1382.28 283.18 1380.73 282.71 1377.17 288.83"/><polygon class="cls-3" points="1374.09 288.83 1372.54 289.29 1369.37 283.21 1370.52 282.71 1374.09 288.83"/><rect class="cls-3" x="1374.9" y="282.41" width="1.67" height="6.63"/><rect class="cls-3" x="1360.48" y="263.1" width="3.69" height="7.92" transform="translate(2724.66 534.12) rotate(-180)"/><rect class="cls-3" x="1369.13" y="280.58" width="13.63" height="3.72" rx="0.72" transform="translate(2751.88 564.88) rotate(-180)"/><rect class="cls-3" x="1372.37" y="290.4" width="6.45" height="7.65" rx="0.72" transform="translate(2751.19 588.46) rotate(-180)"/><rect class="cls-3" x="1368.77" y="287.92" width="13.73" height="1.57" rx="0.44" transform="translate(2751.28 577.41) rotate(-180)"/><rect class="cls-3" x="1368.77" y="289.62" width="13.73" height="1.57" rx="0.42" transform="translate(2751.28 580.81) rotate(-180)"/><rect class="cls-3" x="1389.77" y="267.88" width="3.03" height="3.14" transform="translate(2782.56 538.9) rotate(-180)"/><rect class="cls-3" x="1389.77" y="263.62" width="3.03" height="3.14" transform="translate(2782.56 530.37) rotate(-180)"/><circle class="cls-21" cx="1376.14" cy="267.41" r="3.33"/><circle class="cls-22" cx="1376.1" cy="267.4" r="2.22"/><rect class="cls-3" x="1369.62" y="256.71" width="1.83" height="10.15" rx="0.91" transform="translate(216.31 1045.79) rotate(-45)"/><rect class="cls-3" x="1380.85" y="267.94" width="1.83" height="10.15" rx="0.91" transform="translate(211.65 1057.01) rotate(-45)"/><rect class="cls-3" x="1369.13" y="294.18" width="13.48" height="24.85" rx="4.98" transform="translate(2751.73 613.21) rotate(-180)"/><rect class="cls-3" x="1367.04" y="292.69" width="3.31" height="27.82" rx="1.66" transform="translate(2737.39 613.19) rotate(-180)"/><rect class="cls-3" x="1381.3" y="292.69" width="3.31" height="27.82" rx="1.66" transform="translate(2765.91 613.19) rotate(180)"/><circle class="cls-23" cx="1376.1" cy="267.4" r="1.33"/><circle class="cls-24" cx="1376.1" cy="267.4" r="0.94"/><rect class="cls-2" x="1228.62" y="222.38" width="5.23" height="25.62"/><rect class="cls-2" x="1236.46" y="222.04" width="5.23" height="25.62"/><rect class="cls-61" x="1233.85" y="227.1" width="2.62" height="16.18"/><rect class="cls-2" x="1241.69" y="224.74" width="1.31" height="2.7"/><rect class="cls-2" x="1241.69" y="233.5" width="1.31" height="2.7"/><rect class="cls-2" x="1241.69" y="242.27" width="1.31" height="2.7"/><rect class="cls-2" x="1227.31" y="225.07" width="1.31" height="4.32"/><rect class="cls-2" x="1226" y="225.88" width="2.62" height="2.7"/><rect class="cls-2" x="1227.31" y="233.16" width="1.31" height="4.32"/><rect class="cls-2" x="1226" y="233.97" width="2.62" height="2.7"/><rect class="cls-2" x="1227.31" y="241.26" width="1.31" height="4.32"/><rect class="cls-2" x="1226" y="242.07" width="2.62" height="2.7"/><polygon class="cls-60" points="1173.7 320 1163 320 1181.45 266.47 1192.15 266.47 1173.7 320"/><polygon class="cls-60" points="1274.3 320 1285 320 1266.55 266.47 1255.85 266.47 1274.3 320"/><rect class="cls-62" x="1246.21" y="123.18" width="6.71" height="14.87"/><rect class="cls-63" x="1242.85" y="120.21" width="13.42" height="2.97"/><rect class="cls-62" x="1221.59" y="118.26" width="6.71" height="14.87"/><rect class="cls-63" x="1218.23" y="115.29" width="13.42" height="2.97"/><rect class="cls-62" x="1195.74" y="123.18" width="6.71" height="14.87"/><rect class="cls-63" x="1192.39" y="120.21" width="13.42" height="2.97"/><ellipse class="cls-64" cx="1223.98" cy="153.18" rx="43.63" ry="28.25"/><ellipse class="cls-64" cx="1223.98" cy="271.19" rx="43.63" ry="28.25"/><rect class="cls-65" x="1180.35" y="156.15" width="87.25" height="115.98"/><rect class="cls-65" x="1177" y="147.23" width="93.96" height="11.9"/><rect class="cls-66" x="1246.21" y="169.54" width="3.36" height="53.53"/><rect class="cls-66" x="1246.21" y="229.01" width="3.36" height="11.9"/></svg>