<svg id="图层_1" data-name="图层 1" xmlns="http://www.w3.org/2000/svg" xmlns:xlink="http://www.w3.org/1999/xlink" viewBox="0 0 1920 1080"><defs><style>.cls-1{fill:#06a8fa;}.cls-2,.cls-53{fill:#f2f2f2;}.cls-3,.cls-37,.cls-43,.cls-48,.cls-5,.cls-54,.cls-6{fill:#143a82;}.cls-4{fill:#cee6f9;}.cls-5{font-size:19.1px;}.cls-37,.cls-38,.cls-48,.cls-49,.cls-5,.cls-6{font-family:PingFang-SC-Medium, PingFang SC;font-weight:500;}.cls-6{font-size:14.39px;}.cls-7{fill:#07a307;}.cls-8{fill:#af0800;}.cls-9{fill:#474747;}.cls-10,.cls-11,.cls-12,.cls-13,.cls-14,.cls-15,.cls-16,.cls-17,.cls-18,.cls-20,.cls-21,.cls-25,.cls-26,.cls-27,.cls-28,.cls-29,.cls-30,.cls-33,.cls-34,.cls-35,.cls-45,.cls-50,.cls-51,.cls-52,.cls-55,.cls-56,.cls-57{fill:none;}.cls-10,.cls-11,.cls-12,.cls-13,.cls-14,.cls-15,.cls-16,.cls-17,.cls-18,.cls-20,.cls-21,.cls-25,.cls-26,.cls-27,.cls-28,.cls-29,.cls-30,.cls-33,.cls-34,.cls-35,.cls-39,.cls-43,.cls-44,.cls-45,.cls-50,.cls-51,.cls-52,.cls-53,.cls-55,.cls-56,.cls-57{stroke-miterlimit:10;}.cls-10,.cls-11,.cls-12,.cls-13,.cls-14,.cls-15,.cls-16,.cls-17,.cls-18,.cls-21,.cls-25,.cls-26,.cls-27,.cls-28,.cls-29,.cls-30,.cls-35,.cls-39,.cls-50,.cls-51,.cls-55{stroke-width:2px;}.cls-10{stroke:url(#未命名的渐变_15);}.cls-11{stroke:url(#未命名的渐变_15-2);}.cls-12{stroke:url(#未命名的渐变_15-3);}.cls-13{stroke:url(#未命名的渐变_15-4);}.cls-14{stroke:url(#未命名的渐变_15-5);}.cls-15{stroke:url(#未命名的渐变_15-6);}.cls-16{stroke:url(#未命名的渐变_15-7);}.cls-17{stroke:url(#未命名的渐变_15-8);}.cls-18{stroke:url(#未命名的渐变_15-9);}.cls-19{fill:#df592f;}.cls-20,.cls-43,.cls-44,.cls-51,.cls-52{stroke:#143a82;}.cls-20,.cls-43,.cls-44,.cls-45{stroke-width:3px;}.cls-21{stroke:#10397a;}.cls-22{fill:#0e3773;}.cls-23{fill:#4676a5;}.cls-24{fill:#a1d5ff;}.cls-25{stroke:url(#未命名的渐变_15-10);}.cls-26{stroke:url(#未命名的渐变_15-11);}.cls-27{stroke:url(#未命名的渐变_15-12);}.cls-28{stroke:url(#未命名的渐变_15-13);}.cls-29{stroke:url(#未命名的渐变_15-14);}.cls-30{stroke:url(#未命名的渐变_15-15);}.cls-31{fill:#2a5e96;}.cls-32{fill:#9ac0f7;}.cls-33,.cls-34,.cls-35,.cls-39{stroke:#01579b;}.cls-33{stroke-width:1.5px;}.cls-34{stroke-width:0.8px;}.cls-36{font-size:5.31px;fill:#01579b;}.cls-36,.cls-54{font-family:Benmo-Chenhei, Benmo Chenhei;}.cls-37,.cls-38{font-size:22px;}.cls-38,.cls-49{fill:#db4516;}.cls-39,.cls-60,.cls-61,.cls-62{fill:#fff;}.cls-40{fill:#60c8fc;}.cls-41{fill:#327cc6;}.cls-42{fill:#0a98ef;}.cls-44{fill:#e6e6e6;}.cls-45{stroke:#b3b3b3;}.cls-46{fill:#333f4f;}.cls-47{fill:#868686;}.cls-48,.cls-49{font-size:20.23px;}.cls-50{stroke:url(#未命名的渐变_15-16);}.cls-53{stroke:#333f4f;}.cls-54{font-size:2.93px;}.cls-55{stroke:url(#未命名的渐变_15-17);}.cls-56{stroke:#618cd1;}.cls-56,.cls-57{stroke-width:0.5px;}.cls-57{stroke:#fff;}.cls-58{fill:#10397a;}.cls-59{fill:#5276aa;}.cls-60,.cls-61{font-size:2.1px;letter-spacing:0.18em;}.cls-60{font-family:MicrosoftYaHei-Bold, Microsoft YaHei;font-weight:700;}.cls-61,.cls-62{font-family:MicrosoftYaHei, Microsoft YaHei;}.cls-62{font-size:1.38px;letter-spacing:0.18em;}.cls-63{letter-spacing:0.19em;}.cls-64{letter-spacing:0.18em;}</style><linearGradient id="未命名的渐变_15" x1="1074.5" y1="407.49" x2="1148.67" y2="407.49" gradientUnits="userSpaceOnUse"><stop offset="0" stop-color="#4f6c99"/><stop offset="0.16" stop-color="#526f9c"/><stop offset="0.29" stop-color="#5b78a6"/><stop offset="0.4" stop-color="#6c87b6"/><stop offset="0.5" stop-color="#829dcd"/><stop offset="0.59" stop-color="#9fb8ea"/><stop offset="0.62" stop-color="#a9c2f4"/><stop offset="1" stop-color="#718dbe"/></linearGradient><linearGradient id="未命名的渐变_15-2" x1="1154.05" y1="376.17" x2="1228.23" y2="376.17" xlink:href="#未命名的渐变_15"/><linearGradient id="未命名的渐变_15-3" x1="1154.05" y1="918.58" x2="1228.23" y2="918.58" xlink:href="#未命名的渐变_15"/><linearGradient id="未命名的渐变_15-4" x1="1074.5" y1="375.99" x2="1148.67" y2="375.99" xlink:href="#未命名的渐变_15"/><linearGradient id="未命名的渐变_15-5" x1="1074.5" y1="950.78" x2="1148.67" y2="950.78" xlink:href="#未命名的渐变_15"/><linearGradient id="未命名的渐变_15-6" x1="1074.5" y1="919.28" x2="1148.67" y2="919.28" xlink:href="#未命名的渐变_15"/><linearGradient id="未命名的渐变_15-7" x1="1074.5" y1="227.85" x2="1148.67" y2="227.85" xlink:href="#未命名的渐变_15"/><linearGradient id="未命名的渐变_15-8" x1="1154.05" y1="199.54" x2="1228.23" y2="199.54" xlink:href="#未命名的渐变_15"/><linearGradient id="未命名的渐变_15-9" x1="1074.5" y1="196.35" x2="1148.67" y2="196.35" xlink:href="#未命名的渐变_15"/><linearGradient id="未命名的渐变_15-10" x1="1074.5" y1="775.59" x2="1148.67" y2="775.59" xlink:href="#未命名的渐变_15"/><linearGradient id="未命名的渐变_15-11" x1="1154.05" y1="744.28" x2="1228.23" y2="744.28" xlink:href="#未命名的渐变_15"/><linearGradient id="未命名的渐变_15-12" x1="1074.5" y1="744.09" x2="1148.67" y2="744.09" xlink:href="#未命名的渐变_15"/><linearGradient id="未命名的渐变_15-13" x1="1074.5" y1="592.97" x2="1148.67" y2="592.97" xlink:href="#未命名的渐变_15"/><linearGradient id="未命名的渐变_15-14" x1="1154.05" y1="561.65" x2="1228.23" y2="561.65" xlink:href="#未命名的渐变_15"/><linearGradient id="未命名的渐变_15-15" x1="1074.5" y1="561.47" x2="1148.67" y2="561.47" xlink:href="#未命名的渐变_15"/><linearGradient id="未命名的渐变_15-16" x1="1494.54" y1="171.74" x2="1572.98" y2="171.74" xlink:href="#未命名的渐变_15"/><linearGradient id="未命名的渐变_15-17" x1="1411.08" y1="433.64" x2="1496.19" y2="433.64" xlink:href="#未命名的渐变_15"/></defs><title>单水箱 5泵 </title><rect class="cls-1" x="351.97" y="622.51" width="683.19" height="12.16" transform="translate(1322.15 -64.97) rotate(90)"/><rect class="cls-2" x="1067.15" y="892.67" width="169.4" height="76.72"/><rect class="cls-1" x="711.33" y="260.77" width="276.96" height="12.16"/><rect class="cls-1" x="1055.29" y="262.45" width="342.11" height="12.16"/><rect class="cls-1" x="693.56" y="441.32" width="293.69" height="12.16"/><rect class="cls-1" x="1053.76" y="441.32" width="343.34" height="12.16"/><rect class="cls-1" x="1052.61" y="983.07" width="328.39" height="12.16"/><rect class="cls-3" x="1142.87" y="439.55" width="21.63" height="15.14"/><rect class="cls-4" x="1145.04" y="441.71" width="2.16" height="10.89"/><rect class="cls-4" x="1160.18" y="441.46" width="2.16" height="11.07"/><rect class="cls-4" x="1153.37" y="438.33" width="0.64" height="17.44" transform="translate(1503.09 1633.96) rotate(-127.58)"/><polygon class="cls-3" points="1143.4 436.16 1167.46 436.16 1155.43 431.56 1155.43 431.56 1155.43 433.86 1143.4 433.86 1143.4 436.16"/><rect class="cls-3" x="1142.87" y="981.75" width="21.63" height="15.14"/><rect class="cls-4" x="1145.04" y="983.91" width="2.16" height="10.89"/><rect class="cls-4" x="1160.18" y="983.66" width="2.16" height="11.07"/><rect class="cls-4" x="1153.37" y="980.53" width="0.64" height="17.44" transform="translate(1073.42 2506.86) rotate(-127.58)"/><polygon class="cls-3" points="1143.4 978.36 1167.46 978.36 1155.43 973.75 1155.43 973.75 1155.43 976.06 1143.4 976.06 1143.4 978.36"/><rect class="cls-3" x="1142.87" y="260.7" width="21.63" height="15.14"/><rect class="cls-4" x="1145.04" y="262.86" width="2.16" height="10.89"/><rect class="cls-4" x="1160.18" y="262.61" width="2.16" height="11.07"/><rect class="cls-4" x="1153.37" y="259.48" width="0.64" height="17.44" transform="translate(1644.82 1346.02) rotate(-127.58)"/><polygon class="cls-3" points="1143.4 257.31 1167.46 257.31 1155.43 252.7 1155.43 252.7 1155.43 255.01 1143.4 255.01 1143.4 257.31"/><text class="cls-5" transform="translate(923.85 251.95)">1#泵</text><text class="cls-5" transform="translate(923.85 435.28)">2#泵</text><text class="cls-5" transform="translate(923.85 975.03)">5#泵</text><rect class="cls-2" x="1484.58" y="847.13" width="191.12" height="116.78"/><text class="cls-6" transform="translate(1499.33 879.3)">状态说明 </text><text class="cls-6" transform="translate(1602.1 879.3)">运行状态 </text><text class="cls-6" transform="translate(1602.1 907.6)">停止状态 </text><text class="cls-6" transform="translate(1602.1 935.32)">故障状态 </text><path class="cls-7" d="M1580.24,866.33a7.36,7.36,0,1,0,7.36,7.36,7.35,7.35,0,0,0-7.36-7.36Zm0,13.56a6.21,6.21,0,1,1,6.2-6.2,6.21,6.21,0,0,1-6.2,6.2Zm2.94,3"/><path class="cls-7" d="M1576.41,872.75c-1.36.68-2.25,2.25-1.36,3.15,1.58,1.58,2.25-.67,3.38-1.35.69-.41,1.35-.9,1.35-1.35s-2-1.12-3.37-.45Zm5.15,2.25c-.71-.4-1.46-.72-1.85-.5s0,2.32,1.3,3.15,3.07.82,3.4-.41c.58-2.15-1.71-1.61-2.85-2.24Zm-.58-1c.39.23,2-1.19,2.08-2.69s-.83-3.08-2.06-2.75c-2.15.58-.54,2.29-.51,3.6,0,.81.1,1.62.49,1.84Zm0,0"/><path class="cls-8" d="M1580.24,894a7.36,7.36,0,1,0,7.36,7.36,7.35,7.35,0,0,0-7.36-7.36Zm0,13.56a6.21,6.21,0,1,1,6.2-6.2,6.21,6.21,0,0,1-6.2,6.2Zm2.94,3"/><path class="cls-8" d="M1576.41,900.47c-1.36.67-2.25,2.24-1.36,3.15,1.58,1.57,2.25-.68,3.38-1.36.69-.41,1.35-.9,1.35-1.35s-2-1.12-3.37-.44Zm5.15,2.24c-.71-.4-1.46-.72-1.85-.5s0,2.32,1.3,3.15,3.07.82,3.4-.41c.58-2.15-1.71-1.61-2.85-2.24Zm-.58-1c.39.22,2-1.2,2.08-2.7s-.83-3.08-2.06-2.75c-2.15.58-.54,2.29-.51,3.6,0,.81.1,1.62.49,1.85Zm0,0"/><path class="cls-9" d="M1580.24,921.75a7.36,7.36,0,1,0,7.36,7.36,7.35,7.35,0,0,0-7.36-7.36Zm0,13.57a6.21,6.21,0,1,1,6.2-6.21,6.22,6.22,0,0,1-6.2,6.21Zm2.94,3"/><path class="cls-9" d="M1576.41,928.18c-1.36.67-2.25,2.25-1.36,3.15,1.58,1.57,2.25-.68,3.38-1.36.69-.41,1.35-.9,1.35-1.35s-2-1.12-3.37-.44Zm5.15,2.24c-.71-.4-1.46-.72-1.85-.5s0,2.32,1.3,3.15,3.07.82,3.4-.41c.58-2.15-1.71-1.61-2.85-2.24Zm-.58-1c.39.22,2-1.2,2.08-2.7s-.83-3.08-2.06-2.75c-2.15.58-.54,2.29-.51,3.6,0,.81.1,1.62.49,1.85Zm0,0"/><rect class="cls-2" x="1067.15" y="349.39" width="169.4" height="76.72"/><rect class="cls-10" x="1075.5" y="394.38" width="72.18" height="26.23"/><rect class="cls-11" x="1155.05" y="363.06" width="72.18" height="26.23"/><rect class="cls-12" x="1155.05" y="905.46" width="72.18" height="26.23"/><rect class="cls-13" x="1075.5" y="362.87" width="72.18" height="26.23"/><rect class="cls-14" x="1075.5" y="937.66" width="72.18" height="26.23"/><rect class="cls-15" x="1075.5" y="906.16" width="72.18" height="26.23"/><rect class="cls-2" x="1067.15" y="169.75" width="169.4" height="76.72"/><rect class="cls-16" x="1075.5" y="214.74" width="72.18" height="26.23"/><rect class="cls-17" x="1155.05" y="186.42" width="72.18" height="26.23"/><rect class="cls-18" x="1075.5" y="183.24" width="72.18" height="26.23"/><polygon class="cls-19" points="800.37 288.61 825.21 288.61 831.23 288.61 827.76 296.8 850.9 287.03 827.76 277.26 831.23 285.44 825.21 285.44 800.37 285.44 800.37 288.61"/><polygon class="cls-19" points="1316.38 291.61 1340.34 291.61 1346.36 291.61 1342.89 299.8 1366.03 290.03 1342.89 280.26 1346.36 288.44 1340.34 288.44 1316.38 288.44 1316.38 291.61"/><polygon class="cls-19" points="800.37 470.45 825.21 470.45 831.23 470.45 827.76 478.63 850.9 468.86 827.76 459.09 831.23 467.28 825.21 467.28 800.37 467.28 800.37 470.45"/><polygon class="cls-19" points="1316.38 470.45 1340.34 470.45 1346.36 470.45 1342.89 478.63 1366.03 468.86 1342.89 459.09 1346.36 467.28 1340.34 467.28 1316.38 467.28 1316.38 470.45"/><polygon class="cls-19" points="800.37 1021.83 825.21 1021.83 831.23 1021.83 827.76 1030.02 850.9 1020.25 827.76 1010.48 831.23 1018.66 825.21 1018.66 800.37 1018.66 800.37 1021.83"/><polygon class="cls-19" points="1316.38 1021.83 1340.34 1021.83 1346.36 1021.83 1342.89 1030.02 1366.03 1020.25 1342.89 1010.48 1346.36 1018.66 1340.34 1018.66 1316.38 1018.66 1316.38 1021.83"/><path class="cls-1" d="M710.45,273.31q0-6.45.1-12.91a23.28,23.28,0,0,0-23.39,23.94h12.38a11,11,0,0,1,2.42-7.11A11.31,11.31,0,0,1,710.45,273.31Z"/><rect class="cls-1" x="691.58" y="278.54" width="3.3" height="14.38" transform="translate(978.96 -407.5) rotate(90)"/><rect class="cls-1" x="709.94" y="259.74" width="3.3" height="14.38"/><rect class="cls-1" x="714.09" y="983.07" width="271.42" height="12.16"/><path class="cls-1" d="M700.26,972.26l-12.91-.11a23.3,23.3,0,0,0,23.93,23.4V983.16a11,11,0,0,1-7.1-2.41A11.32,11.32,0,0,1,700.26,972.26Z"/><rect class="cls-1" x="711.03" y="982.29" width="3.3" height="14.38"/><rect class="cls-1" x="692.22" y="963.93" width="3.3" height="14.38" transform="translate(-277.24 1664.99) rotate(-90)"/><path class="cls-1" d="M1381.29,982.32q0,6.45-.1,12.9a23.3,23.3,0,0,0,23.39-23.93H1392.2a11,11,0,0,1-2.42,7.11A11.32,11.32,0,0,1,1381.29,982.32Z"/><rect class="cls-1" x="1396.86" y="962.71" width="3.3" height="14.38" transform="translate(428.61 2368.4) rotate(-90)"/><rect class="cls-1" x="1378.5" y="981.51" width="3.3" height="14.38" transform="translate(2760.3 1977.4) rotate(-180)"/><rect class="cls-3" x="894.35" y="260" width="3.02" height="13.69"/><rect class="cls-3" x="898.49" y="260" width="3.02" height="13.69"/><rect class="cls-3" x="865.56" y="260" width="3.02" height="13.69"/><rect class="cls-3" x="869.7" y="260" width="3.02" height="13.69"/><circle class="cls-20" cx="883.24" cy="230.47" r="11.27"/><rect class="cls-3" x="877.81" y="221.19" width="1.59" height="8.82" rx="0.77" transform="translate(1659.38 -236.15) rotate(135)"/><rect class="cls-3" x="887.56" y="230.94" width="1.59" height="8.82" rx="0.77" transform="translate(1682.92 -226.4) rotate(135)"/><rect class="cls-3" x="880.72" y="216.65" width="5.72" height="2.82"/><polygon class="cls-3" points="882.59 249.07 881.25 249.48 878.15 244.17 879.49 243.76 882.59 249.07"/><polygon class="cls-3" points="885.26 249.07 886.6 249.48 889.36 244.2 888.36 243.76 885.26 249.07"/><rect class="cls-3" x="883.1" y="243.5" width="1.45" height="5.76" transform="translate(1767.66 492.76) rotate(180)"/><rect class="cls-3" x="893.87" y="226.73" width="3.2" height="6.87"/><rect class="cls-3" x="877.73" y="241.91" width="11.84" height="3.23" rx="0.72"/><rect class="cls-3" x="881.16" y="250.44" width="5.6" height="6.64" rx="0.72"/><rect class="cls-3" x="877.95" y="248.29" width="11.93" height="1.37" rx="0.44"/><rect class="cls-3" x="877.95" y="249.76" width="11.93" height="1.37" rx="0.42"/><rect class="cls-3" x="869.02" y="230.89" width="2.63" height="2.72"/><rect class="cls-3" x="869.02" y="227.18" width="2.63" height="2.72"/><circle class="cls-21" cx="883.48" cy="230.48" r="2.89"/><circle class="cls-22" cx="883.52" cy="230.47" r="1.93"/><rect class="cls-3" x="887.56" y="221.19" width="1.59" height="8.82" rx="0.77" transform="translate(1356.99 1013.27) rotate(-135)"/><rect class="cls-3" x="877.81" y="230.94" width="1.59" height="8.82" rx="0.77" transform="translate(1333.45 1023.02) rotate(-135)"/><rect class="cls-3" x="877.87" y="253.73" width="11.7" height="21.58" rx="4.98"/><rect class="cls-3" x="888.51" y="252.42" width="2.87" height="24.16" rx="1.4"/><rect class="cls-3" x="876.12" y="252.42" width="2.87" height="24.16" rx="1.4"/><circle class="cls-23" cx="883.52" cy="230.47" r="1.15"/><circle class="cls-24" cx="883.52" cy="230.47" r="0.82"/><rect class="cls-3" x="1287.37" y="263" width="3.02" height="13.69"/><rect class="cls-3" x="1291.51" y="263" width="3.02" height="13.69"/><rect class="cls-3" x="1258.58" y="263" width="3.02" height="13.69"/><rect class="cls-3" x="1262.72" y="263" width="3.02" height="13.69"/><circle class="cls-20" cx="1276.26" cy="233.47" r="11.27"/><rect class="cls-3" x="1270.83" y="224.19" width="1.59" height="8.82" rx="0.77" transform="translate(2332.43 -508.93) rotate(135)"/><rect class="cls-3" x="1280.58" y="233.94" width="1.59" height="8.82" rx="0.77" transform="translate(2355.97 -499.19) rotate(135)"/><rect class="cls-3" x="1273.74" y="219.65" width="5.72" height="2.82"/><polygon class="cls-3" points="1275.61 252.07 1274.27 252.48 1271.17 247.17 1272.51 246.76 1275.61 252.07"/><polygon class="cls-3" points="1278.28 252.07 1279.62 252.48 1282.38 247.2 1281.38 246.76 1278.28 252.07"/><rect class="cls-3" x="1276.12" y="246.5" width="1.45" height="5.76" transform="translate(2553.7 498.76) rotate(180)"/><rect class="cls-3" x="1286.89" y="229.73" width="3.2" height="6.87"/><rect class="cls-3" x="1270.75" y="244.91" width="11.84" height="3.23" rx="0.72"/><rect class="cls-3" x="1274.18" y="253.44" width="5.6" height="6.64" rx="0.72"/><rect class="cls-3" x="1270.97" y="251.29" width="11.93" height="1.37" rx="0.44"/><rect class="cls-3" x="1270.97" y="252.76" width="11.93" height="1.37" rx="0.42"/><rect class="cls-3" x="1262.04" y="233.89" width="2.63" height="2.72"/><rect class="cls-3" x="1262.04" y="230.18" width="2.63" height="2.72"/><circle class="cls-21" cx="1276.5" cy="233.48" r="2.89"/><circle class="cls-22" cx="1276.54" cy="233.47" r="1.93"/><rect class="cls-3" x="1280.58" y="224.19" width="1.59" height="8.82" rx="0.77" transform="translate(2025.79 1296.3) rotate(-135)"/><rect class="cls-3" x="1270.83" y="233.94" width="1.59" height="8.82" rx="0.77" transform="translate(2002.26 1306.05) rotate(-135)"/><rect class="cls-3" x="1270.89" y="256.73" width="11.7" height="21.58" rx="4.98"/><rect class="cls-3" x="1281.53" y="255.42" width="2.87" height="24.16" rx="1.4"/><rect class="cls-3" x="1269.14" y="255.42" width="2.87" height="24.16" rx="1.4"/><circle class="cls-23" cx="1276.54" cy="233.47" r="1.15"/><circle class="cls-24" cx="1276.54" cy="233.47" r="0.82"/><rect class="cls-3" x="894.35" y="440.36" width="3.02" height="13.69"/><rect class="cls-3" x="898.49" y="440.36" width="3.02" height="13.69"/><rect class="cls-3" x="865.56" y="440.36" width="3.02" height="13.69"/><rect class="cls-3" x="869.7" y="440.36" width="3.02" height="13.69"/><circle class="cls-20" cx="883.24" cy="410.83" r="11.27"/><rect class="cls-3" x="877.81" y="401.54" width="1.59" height="8.82" rx="0.77" transform="translate(1786.91 71.74) rotate(135)"/><rect class="cls-3" x="887.56" y="411.29" width="1.59" height="8.82" rx="0.77" transform="translate(1810.45 81.49) rotate(135)"/><rect class="cls-3" x="880.72" y="397" width="5.72" height="2.82"/><polygon class="cls-3" points="882.59 429.43 881.25 429.83 878.15 424.52 879.49 424.12 882.59 429.43"/><polygon class="cls-3" points="885.26 429.43 886.6 429.83 889.36 424.56 888.36 424.12 885.26 429.43"/><rect class="cls-3" x="883.1" y="423.85" width="1.45" height="5.76" transform="translate(1767.66 853.47) rotate(180)"/><rect class="cls-3" x="893.87" y="407.09" width="3.2" height="6.87"/><rect class="cls-3" x="877.73" y="422.27" width="11.84" height="3.23" rx="0.72"/><rect class="cls-3" x="881.16" y="430.8" width="5.6" height="6.64" rx="0.72"/><rect class="cls-3" x="877.95" y="428.64" width="11.93" height="1.37" rx="0.44"/><rect class="cls-3" x="877.95" y="430.12" width="11.93" height="1.37" rx="0.42"/><rect class="cls-3" x="869.02" y="411.24" width="2.63" height="2.72"/><rect class="cls-3" x="869.02" y="407.54" width="2.63" height="2.72"/><circle class="cls-21" cx="883.48" cy="410.83" r="2.89"/><circle class="cls-22" cx="883.52" cy="410.83" r="1.93"/><rect class="cls-3" x="887.56" y="401.54" width="1.59" height="8.82" rx="0.77" transform="translate(1229.46 1321.16) rotate(-135)"/><rect class="cls-3" x="877.81" y="411.29" width="1.59" height="8.82" rx="0.77" transform="translate(1205.92 1330.91) rotate(-135)"/><rect class="cls-3" x="877.87" y="434.08" width="11.7" height="21.58" rx="4.98"/><rect class="cls-3" x="888.51" y="432.78" width="2.87" height="24.16" rx="1.4"/><rect class="cls-3" x="876.12" y="432.78" width="2.87" height="24.16" rx="1.4"/><circle class="cls-23" cx="883.52" cy="410.83" r="1.15"/><circle class="cls-24" cx="883.52" cy="410.83" r="0.82"/><rect class="cls-3" x="1287.37" y="440.36" width="3.02" height="13.69"/><rect class="cls-3" x="1291.51" y="440.36" width="3.02" height="13.69"/><rect class="cls-3" x="1258.58" y="440.36" width="3.02" height="13.69"/><rect class="cls-3" x="1262.72" y="440.36" width="3.02" height="13.69"/><circle class="cls-20" cx="1276.26" cy="410.83" r="11.27"/><rect class="cls-3" x="1270.83" y="401.54" width="1.59" height="8.82" rx="0.77" transform="translate(2457.84 -206.17) rotate(135)"/><rect class="cls-3" x="1280.58" y="411.29" width="1.59" height="8.82" rx="0.77" transform="translate(2481.38 -196.42) rotate(135)"/><rect class="cls-3" x="1273.74" y="397" width="5.72" height="2.82"/><polygon class="cls-3" points="1275.61 429.43 1274.27 429.83 1271.17 424.52 1272.51 424.12 1275.61 429.43"/><polygon class="cls-3" points="1278.28 429.43 1279.62 429.83 1282.38 424.56 1281.38 424.12 1278.28 429.43"/><rect class="cls-3" x="1276.12" y="423.85" width="1.45" height="5.76" transform="translate(2553.7 853.47) rotate(180)"/><rect class="cls-3" x="1286.89" y="407.09" width="3.2" height="6.87"/><rect class="cls-3" x="1270.75" y="422.27" width="11.84" height="3.23" rx="0.72"/><rect class="cls-3" x="1274.18" y="430.8" width="5.6" height="6.64" rx="0.72"/><rect class="cls-3" x="1270.97" y="428.64" width="11.93" height="1.37" rx="0.44"/><rect class="cls-3" x="1270.97" y="430.12" width="11.93" height="1.37" rx="0.42"/><rect class="cls-3" x="1262.04" y="411.24" width="2.63" height="2.72"/><rect class="cls-3" x="1262.04" y="407.54" width="2.63" height="2.72"/><circle class="cls-21" cx="1276.5" cy="410.83" r="2.89"/><circle class="cls-22" cx="1276.54" cy="410.83" r="1.93"/><rect class="cls-3" x="1280.58" y="401.54" width="1.59" height="8.82" rx="0.77" transform="translate(1900.38 1599.07) rotate(-135)"/><rect class="cls-3" x="1270.83" y="411.29" width="1.59" height="8.82" rx="0.77" transform="translate(1876.85 1608.81) rotate(-135)"/><rect class="cls-3" x="1270.89" y="434.08" width="11.7" height="21.58" rx="4.98"/><rect class="cls-3" x="1281.53" y="432.78" width="2.87" height="24.16" rx="1.4"/><rect class="cls-3" x="1269.14" y="432.78" width="2.87" height="24.16" rx="1.4"/><circle class="cls-23" cx="1276.54" cy="410.83" r="1.15"/><circle class="cls-24" cx="1276.54" cy="410.83" r="0.82"/><rect class="cls-1" x="693.56" y="809.43" width="293.89" height="12.16"/><rect class="cls-1" x="1055.22" y="809.43" width="341.89" height="12.16"/><rect class="cls-3" x="1142.87" y="807.66" width="21.63" height="15.14"/><rect class="cls-4" x="1145.04" y="809.82" width="2.16" height="10.89"/><rect class="cls-4" x="1160.18" y="809.57" width="2.16" height="11.07"/><rect class="cls-4" x="1153.37" y="806.43" width="0.64" height="17.44" transform="translate(1211.38 2226.59) rotate(-127.58)"/><polygon class="cls-3" points="1143.4 804.27 1167.46 804.27 1155.43 799.66 1155.43 799.66 1155.43 801.97 1143.4 801.97 1143.4 804.27"/><text class="cls-5" transform="translate(923.85 803.39)">4#泵</text><rect class="cls-2" x="1067.15" y="717.49" width="169.4" height="76.72"/><rect class="cls-25" x="1075.5" y="762.48" width="72.18" height="26.23"/><rect class="cls-26" x="1155.05" y="731.16" width="72.18" height="26.23"/><rect class="cls-27" x="1075.5" y="730.98" width="72.18" height="26.23"/><polygon class="cls-19" points="800.37 838.55 825.21 838.55 831.23 838.55 827.76 846.74 850.9 836.97 827.76 827.2 831.23 835.38 825.21 835.38 800.37 835.38 800.37 838.55"/><polygon class="cls-19" points="1316.38 836.82 1340.34 836.82 1346.36 836.82 1342.89 845 1366.03 835.23 1342.89 825.46 1346.36 833.64 1340.34 833.64 1316.38 833.64 1316.38 836.82"/><rect class="cls-3" x="894.35" y="808.46" width="3.02" height="13.69"/><rect class="cls-3" x="898.49" y="808.46" width="3.02" height="13.69"/><rect class="cls-3" x="865.56" y="808.46" width="3.02" height="13.69"/><rect class="cls-3" x="869.7" y="808.46" width="3.02" height="13.69"/><circle class="cls-20" cx="883.24" cy="778.93" r="11.27"/><rect class="cls-3" x="877.81" y="769.65" width="1.59" height="8.82" rx="0.77" transform="translate(2047.2 700.13) rotate(135)"/><rect class="cls-3" x="887.56" y="779.4" width="1.59" height="8.82" rx="0.77" transform="translate(2070.74 709.88) rotate(135)"/><rect class="cls-3" x="880.72" y="765.11" width="5.72" height="2.82"/><polygon class="cls-3" points="882.59 797.53 881.25 797.94 878.15 792.63 879.49 792.22 882.59 797.53"/><polygon class="cls-3" points="885.26 797.53 886.6 797.94 889.36 792.66 888.36 792.22 885.26 797.53"/><rect class="cls-3" x="883.1" y="791.96" width="1.45" height="5.76" transform="translate(1767.66 1589.68) rotate(180)"/><rect class="cls-3" x="893.87" y="775.2" width="3.2" height="6.87"/><rect class="cls-3" x="877.73" y="790.37" width="11.84" height="3.23" rx="0.72"/><rect class="cls-3" x="881.16" y="798.9" width="5.6" height="6.64" rx="0.72"/><rect class="cls-3" x="877.95" y="796.75" width="11.93" height="1.37" rx="0.44"/><rect class="cls-3" x="877.95" y="798.22" width="11.93" height="1.37" rx="0.42"/><rect class="cls-3" x="869.02" y="779.35" width="2.63" height="2.72"/><rect class="cls-3" x="869.02" y="775.64" width="2.63" height="2.72"/><circle class="cls-21" cx="883.48" cy="778.94" r="2.89"/><circle class="cls-22" cx="883.52" cy="778.93" r="1.93"/><rect class="cls-3" x="887.56" y="769.65" width="1.59" height="8.82" rx="0.77" transform="translate(969.17 1949.55) rotate(-135)"/><rect class="cls-3" x="877.81" y="779.4" width="1.59" height="8.82" rx="0.77" transform="translate(945.63 1959.3) rotate(-135)"/><rect class="cls-3" x="877.87" y="802.19" width="11.7" height="21.58" rx="4.98"/><rect class="cls-3" x="888.51" y="800.89" width="2.87" height="24.16" rx="1.4"/><rect class="cls-3" x="876.12" y="800.89" width="2.87" height="24.16" rx="1.4"/><circle class="cls-23" cx="883.52" cy="778.93" r="1.15"/><circle class="cls-24" cx="883.52" cy="778.93" r="0.82"/><rect class="cls-3" x="1287.37" y="808.46" width="3.02" height="13.69"/><rect class="cls-3" x="1291.51" y="808.46" width="3.02" height="13.69"/><rect class="cls-3" x="1258.58" y="808.46" width="3.02" height="13.69"/><rect class="cls-3" x="1262.72" y="808.46" width="3.02" height="13.69"/><circle class="cls-20" cx="1276.26" cy="778.93" r="11.27"/><rect class="cls-3" x="1270.83" y="769.65" width="1.59" height="8.82" rx="0.77" transform="translate(2718.13 422.23) rotate(135)"/><rect class="cls-3" x="1280.58" y="779.4" width="1.59" height="8.82" rx="0.77" transform="translate(2741.67 431.97) rotate(135)"/><rect class="cls-3" x="1273.74" y="765.11" width="5.72" height="2.82"/><polygon class="cls-3" points="1275.61 797.53 1274.27 797.94 1271.17 792.63 1272.51 792.22 1275.61 797.53"/><polygon class="cls-3" points="1278.28 797.53 1279.62 797.94 1282.38 792.66 1281.38 792.22 1278.28 797.53"/><rect class="cls-3" x="1276.12" y="791.96" width="1.45" height="5.76" transform="translate(2553.7 1589.68) rotate(180)"/><rect class="cls-3" x="1286.89" y="775.2" width="3.2" height="6.87"/><rect class="cls-3" x="1270.75" y="790.37" width="11.84" height="3.23" rx="0.72"/><rect class="cls-3" x="1274.18" y="798.9" width="5.6" height="6.64" rx="0.72"/><rect class="cls-3" x="1270.97" y="796.75" width="11.93" height="1.37" rx="0.44"/><rect class="cls-3" x="1270.97" y="798.22" width="11.93" height="1.37" rx="0.42"/><rect class="cls-3" x="1262.04" y="779.35" width="2.63" height="2.72"/><rect class="cls-3" x="1262.04" y="775.64" width="2.63" height="2.72"/><circle class="cls-21" cx="1276.5" cy="778.94" r="2.89"/><circle class="cls-22" cx="1276.54" cy="778.93" r="1.93"/><rect class="cls-3" x="1280.58" y="769.65" width="1.59" height="8.82" rx="0.77" transform="translate(1640.09 2227.46) rotate(-135)"/><rect class="cls-3" x="1270.83" y="779.4" width="1.59" height="8.82" rx="0.77" transform="translate(1616.55 2237.21) rotate(-135)"/><rect class="cls-3" x="1270.89" y="802.19" width="11.7" height="21.58" rx="4.98"/><rect class="cls-3" x="1281.53" y="800.89" width="2.87" height="24.16" rx="1.4"/><rect class="cls-3" x="1269.14" y="800.89" width="2.87" height="24.16" rx="1.4"/><circle class="cls-23" cx="1276.54" cy="778.93" r="1.15"/><circle class="cls-24" cx="1276.54" cy="778.93" r="0.82"/><rect class="cls-1" x="693.56" y="626.8" width="293.69" height="12.16"/><rect class="cls-1" x="1055.22" y="626.8" width="341.89" height="12.16"/><rect class="cls-3" x="1142.87" y="625.03" width="21.63" height="15.14"/><rect class="cls-4" x="1145.04" y="627.19" width="2.16" height="10.89"/><rect class="cls-4" x="1160.18" y="626.94" width="2.16" height="11.07"/><rect class="cls-4" x="1153.37" y="623.81" width="0.64" height="17.44" transform="translate(1356.11 1932.57) rotate(-127.58)"/><polygon class="cls-3" points="1143.4 621.64 1167.46 621.64 1155.43 617.03 1155.43 617.03 1155.43 619.34 1143.4 619.34 1143.4 621.64"/><text class="cls-5" transform="translate(923.85 620.76)">3#泵</text><rect class="cls-2" x="1067.15" y="534.86" width="169.4" height="76.72"/><rect class="cls-28" x="1075.5" y="579.85" width="72.18" height="26.23"/><rect class="cls-29" x="1155.05" y="548.54" width="72.18" height="26.23"/><rect class="cls-30" x="1075.5" y="548.35" width="72.18" height="26.23"/><polygon class="cls-19" points="800.37 655.93 825.21 655.93 831.23 655.93 827.76 664.11 850.9 654.34 827.76 644.57 831.23 652.75 825.21 652.75 800.37 652.75 800.37 655.93"/><polygon class="cls-19" points="1316.38 654.19 1340.34 654.19 1346.36 654.19 1342.89 662.38 1366.03 652.61 1342.89 642.83 1346.36 651.02 1340.34 651.02 1316.38 651.02 1316.38 654.19"/><rect class="cls-3" x="894.35" y="625.83" width="3.02" height="13.69"/><rect class="cls-3" x="898.49" y="625.83" width="3.02" height="13.69"/><rect class="cls-3" x="865.56" y="625.83" width="3.02" height="13.69"/><rect class="cls-3" x="869.7" y="625.83" width="3.02" height="13.69"/><circle class="cls-20" cx="883.24" cy="596.3" r="11.27"/><rect class="cls-3" x="877.81" y="587.02" width="1.59" height="8.82" rx="0.77" transform="translate(1918.07 388.37) rotate(135)"/><rect class="cls-3" x="887.56" y="596.77" width="1.59" height="8.82" rx="0.77" transform="translate(1941.61 398.12) rotate(135)"/><rect class="cls-3" x="880.72" y="582.48" width="5.72" height="2.82"/><polygon class="cls-3" points="882.59 614.91 881.25 615.31 878.15 610 879.49 609.6 882.59 614.91"/><polygon class="cls-3" points="885.26 614.91 886.6 615.31 889.36 610.03 888.36 609.6 885.26 614.91"/><rect class="cls-3" x="883.1" y="609.33" width="1.45" height="5.76" transform="translate(1767.66 1224.43) rotate(180)"/><rect class="cls-3" x="893.87" y="592.57" width="3.2" height="6.87"/><rect class="cls-3" x="877.73" y="607.75" width="11.84" height="3.23" rx="0.72"/><rect class="cls-3" x="881.16" y="616.28" width="5.6" height="6.64" rx="0.72"/><rect class="cls-3" x="877.95" y="614.12" width="11.93" height="1.37" rx="0.44"/><rect class="cls-3" x="877.95" y="615.59" width="11.93" height="1.37" rx="0.42"/><rect class="cls-3" x="869.02" y="596.72" width="2.63" height="2.72"/><rect class="cls-3" x="869.02" y="593.02" width="2.63" height="2.72"/><circle class="cls-21" cx="883.48" cy="596.31" r="2.89"/><circle class="cls-22" cx="883.52" cy="596.3" r="1.93"/><rect class="cls-3" x="887.56" y="587.02" width="1.59" height="8.82" rx="0.77" transform="translate(1098.31 1637.79) rotate(-135)"/><rect class="cls-3" x="877.81" y="596.77" width="1.59" height="8.82" rx="0.77" transform="translate(1074.76 1647.54) rotate(-135)"/><rect class="cls-3" x="877.87" y="619.56" width="11.7" height="21.58" rx="4.98"/><rect class="cls-3" x="888.51" y="618.26" width="2.87" height="24.16" rx="1.4"/><rect class="cls-3" x="876.12" y="618.26" width="2.87" height="24.16" rx="1.4"/><circle class="cls-23" cx="883.52" cy="596.3" r="1.15"/><circle class="cls-24" cx="883.52" cy="596.3" r="0.82"/><rect class="cls-3" x="1287.37" y="625.83" width="3.02" height="13.69"/><rect class="cls-3" x="1291.51" y="625.83" width="3.02" height="13.69"/><rect class="cls-3" x="1258.58" y="625.83" width="3.02" height="13.69"/><rect class="cls-3" x="1262.72" y="625.83" width="3.02" height="13.69"/><circle class="cls-20" cx="1276.26" cy="596.3" r="11.27"/><rect class="cls-3" x="1270.83" y="587.02" width="1.59" height="8.82" rx="0.77" transform="translate(2589 110.47) rotate(135)"/><rect class="cls-3" x="1280.58" y="596.77" width="1.59" height="8.82" rx="0.77" transform="translate(2612.53 120.2) rotate(135)"/><rect class="cls-3" x="1273.74" y="582.48" width="5.72" height="2.82"/><polygon class="cls-3" points="1275.61 614.91 1274.27 615.31 1271.17 610 1272.51 609.6 1275.61 614.91"/><polygon class="cls-3" points="1278.28 614.91 1279.62 615.31 1282.38 610.03 1281.38 609.6 1278.28 614.91"/><rect class="cls-3" x="1276.12" y="609.33" width="1.45" height="5.76" transform="translate(2553.7 1224.43) rotate(180)"/><rect class="cls-3" x="1286.89" y="592.57" width="3.2" height="6.87"/><rect class="cls-3" x="1270.75" y="607.75" width="11.84" height="3.23" rx="0.72"/><rect class="cls-3" x="1274.18" y="616.28" width="5.6" height="6.64" rx="0.72"/><rect class="cls-3" x="1270.97" y="614.12" width="11.93" height="1.37" rx="0.44"/><rect class="cls-3" x="1270.97" y="615.59" width="11.93" height="1.37" rx="0.42"/><rect class="cls-3" x="1262.04" y="596.72" width="2.63" height="2.72"/><rect class="cls-3" x="1262.04" y="593.02" width="2.63" height="2.72"/><circle class="cls-21" cx="1276.5" cy="596.31" r="2.89"/><circle class="cls-22" cx="1276.54" cy="596.3" r="1.93"/><rect class="cls-3" x="1280.58" y="587.02" width="1.59" height="8.82" rx="0.77" transform="translate(1769.23 1915.7) rotate(-135)"/><rect class="cls-3" x="1270.83" y="596.77" width="1.59" height="8.82" rx="0.77" transform="translate(1745.69 1925.45) rotate(-135)"/><rect class="cls-3" x="1270.89" y="619.56" width="11.7" height="21.58" rx="4.98"/><rect class="cls-3" x="1281.53" y="618.26" width="2.87" height="24.16" rx="1.4"/><rect class="cls-3" x="1269.14" y="618.26" width="2.87" height="24.16" rx="1.4"/><circle class="cls-23" cx="1276.54" cy="596.3" r="1.15"/><circle class="cls-24" cx="1276.54" cy="596.3" r="0.82"/><rect class="cls-3" x="894.35" y="982.49" width="3.02" height="13.69"/><rect class="cls-3" x="898.49" y="982.49" width="3.02" height="13.69"/><rect class="cls-3" x="865.56" y="982.49" width="3.02" height="13.69"/><rect class="cls-3" x="869.7" y="982.49" width="3.02" height="13.69"/><circle class="cls-20" cx="883.24" cy="952.96" r="11.27"/><rect class="cls-3" x="877.81" y="943.67" width="1.59" height="8.82" rx="0.77" transform="translate(2170.26 997.22) rotate(135)"/><rect class="cls-3" x="887.56" y="953.42" width="1.59" height="8.82" rx="0.77" transform="translate(2193.8 1006.96) rotate(135)"/><rect class="cls-3" x="880.72" y="939.13" width="5.72" height="2.82"/><polygon class="cls-3" points="882.59 971.56 881.25 971.97 878.15 966.65 879.49 966.25 882.59 971.56"/><polygon class="cls-3" points="885.26 971.56 886.6 971.97 889.36 966.69 888.36 966.25 885.26 971.56"/><rect class="cls-3" x="883.1" y="965.98" width="1.45" height="5.76" transform="translate(1767.66 1937.73) rotate(180)"/><rect class="cls-3" x="893.87" y="949.22" width="3.2" height="6.87"/><rect class="cls-3" x="877.73" y="964.4" width="11.84" height="3.23" rx="0.72"/><rect class="cls-3" x="881.16" y="972.93" width="5.6" height="6.64" rx="0.72"/><rect class="cls-3" x="877.95" y="970.77" width="11.93" height="1.37" rx="0.44"/><rect class="cls-3" x="877.95" y="972.25" width="11.93" height="1.37" rx="0.42"/><rect class="cls-3" x="869.02" y="953.37" width="2.63" height="2.72"/><rect class="cls-3" x="869.02" y="949.67" width="2.63" height="2.72"/><circle class="cls-21" cx="883.48" cy="952.96" r="2.89"/><circle class="cls-22" cx="883.52" cy="952.96" r="1.93"/><rect class="cls-3" x="887.56" y="943.67" width="1.59" height="8.82" rx="0.77" transform="translate(846.12 2246.63) rotate(-135)"/><rect class="cls-3" x="877.81" y="953.42" width="1.59" height="8.82" rx="0.77" transform="translate(822.58 2256.38) rotate(-135)"/><rect class="cls-3" x="877.87" y="976.21" width="11.7" height="21.58" rx="4.98"/><rect class="cls-3" x="888.51" y="974.91" width="2.87" height="24.16" rx="1.4"/><rect class="cls-3" x="876.12" y="974.91" width="2.87" height="24.16" rx="1.4"/><circle class="cls-23" cx="883.52" cy="952.96" r="1.15"/><circle class="cls-24" cx="883.52" cy="952.96" r="0.82"/><rect class="cls-3" x="1287.37" y="982.49" width="3.02" height="13.69"/><rect class="cls-3" x="1291.51" y="982.49" width="3.02" height="13.69"/><rect class="cls-3" x="1258.58" y="982.49" width="3.02" height="13.69"/><rect class="cls-3" x="1262.72" y="982.49" width="3.02" height="13.69"/><circle class="cls-20" cx="1276.26" cy="952.96" r="11.27"/><rect class="cls-3" x="1270.83" y="943.67" width="1.59" height="8.82" rx="0.77" transform="translate(2841.19 719.31) rotate(135)"/><rect class="cls-3" x="1280.58" y="953.42" width="1.59" height="8.82" rx="0.77" transform="translate(2864.72 729.05) rotate(135)"/><rect class="cls-3" x="1273.74" y="939.13" width="5.72" height="2.82"/><polygon class="cls-3" points="1275.61 971.56 1274.27 971.97 1271.17 966.65 1272.51 966.25 1275.61 971.56"/><polygon class="cls-3" points="1278.28 971.56 1279.62 971.97 1282.38 966.69 1281.38 966.25 1278.28 971.56"/><rect class="cls-3" x="1276.12" y="965.98" width="1.45" height="5.76" transform="translate(2553.7 1937.73) rotate(180)"/><rect class="cls-3" x="1286.89" y="949.22" width="3.2" height="6.87"/><rect class="cls-3" x="1270.75" y="964.4" width="11.84" height="3.23" rx="0.72"/><rect class="cls-3" x="1274.18" y="972.93" width="5.6" height="6.64" rx="0.72"/><rect class="cls-3" x="1270.97" y="970.77" width="11.93" height="1.37" rx="0.44"/><rect class="cls-3" x="1270.97" y="972.25" width="11.93" height="1.37" rx="0.42"/><rect class="cls-3" x="1262.04" y="953.37" width="2.63" height="2.72"/><rect class="cls-3" x="1262.04" y="949.67" width="2.63" height="2.72"/><circle class="cls-21" cx="1276.5" cy="952.96" r="2.89"/><circle class="cls-22" cx="1276.54" cy="952.96" r="1.93"/><rect class="cls-3" x="1280.58" y="943.67" width="1.59" height="8.82" rx="0.77" transform="translate(1517.03 2524.54) rotate(-135)"/><rect class="cls-3" x="1270.83" y="953.42" width="1.59" height="8.82" rx="0.77" transform="translate(1493.51 2534.29) rotate(-135)"/><rect class="cls-3" x="1270.89" y="976.21" width="11.7" height="21.58" rx="4.98"/><rect class="cls-3" x="1281.53" y="974.91" width="2.87" height="24.16" rx="1.4"/><rect class="cls-3" x="1269.14" y="974.91" width="2.87" height="24.16" rx="1.4"/><circle class="cls-23" cx="1276.54" cy="952.96" r="1.15"/><circle class="cls-24" cx="1276.54" cy="952.96" r="0.82"/><ellipse class="cls-31" cx="1037.47" cy="356" rx="1.84" ry="1.79"/><circle class="cls-32" cx="1037.47" cy="356" r="1.6"/><circle class="cls-31" cx="1037.47" cy="356" r="1.25"/><circle class="cls-32" cx="1037.47" cy="356" r="0.89"/><ellipse class="cls-31" cx="1037.47" cy="362.03" rx="1.84" ry="1.79"/><circle class="cls-32" cx="1037.47" cy="362.03" r="1.6"/><circle class="cls-31" cx="1037.47" cy="362.03" r="1.25"/><circle class="cls-32" cx="1037.47" cy="362.03" r="0.89"/><rect class="cls-33" x="1000.64" y="331.06" width="40.12" height="50.77" rx="8.93"/><path class="cls-33" d="M1008.54,315.71h25.08a7.3,7.3,0,0,1,7.3,7.3V371.5a9.74,9.74,0,0,1-9.74,9.74h-21.25a9.74,9.74,0,0,1-9.74-9.74V324.07A8.36,8.36,0,0,1,1008.54,315.71Z"/><rect class="cls-33" x="1001.2" y="337.66" width="6.27" height="36.18"/><rect class="cls-33" x="1034.2" y="337.66" width="6.24" height="36.18"/><rect class="cls-34" x="1009.33" y="331.79" width="1.77" height="50.04"/><rect class="cls-34" x="1012.87" y="331.79" width="1.77" height="50.04"/><rect class="cls-34" x="1016.41" y="331.79" width="1.77" height="50.04"/><rect class="cls-34" x="1019.95" y="331.79" width="1.77" height="50.04"/><rect class="cls-34" x="1023.5" y="331.79" width="1.77" height="50.04"/><rect class="cls-34" x="1027.04" y="331.79" width="1.77" height="50.04"/><rect class="cls-34" x="1030.58" y="331.79" width="1.77" height="50.04"/><path class="cls-33" d="M1044.38,373.65h-2.78l-.83-.83V355.59l.83-.83h2.78l.83.83v17.23Z"/><rect class="cls-35" x="1002.19" y="381.83" width="36.36" height="8.27"/><rect class="cls-35" x="1009.03" y="381.83" width="4.13" height="8.27"/><rect class="cls-35" x="1029.11" y="381.83" width="4.13" height="8.27"/><rect class="cls-33" x="992.74" y="390.69" width="55.5" height="2.95" rx="1.1"/><rect class="cls-33" x="993.92" y="393.64" width="53.13" height="2.36" rx="1.1"/><rect class="cls-33" x="999.53" y="396.29" width="41.92" height="2.95" rx="1.1"/><rect class="cls-33" x="1005.88" y="446.48" width="29.94" height="2.95" rx="1.1"/><rect class="cls-33" x="1003.67" y="470.09" width="33.65" height="2.95" rx="1.1"/><rect class="cls-35" x="1008.68" y="399.49" width="23.62" height="17.46"/><rect class="cls-35" x="1001.3" y="416.96" width="38.38" height="5.9" rx="1.1"/><rect class="cls-35" x="1005.96" y="422.86" width="29.1" height="23.62"/><rect class="cls-33" x="1006.04" y="449.43" width="29.63" height="20.66"/><rect class="cls-35" x="1008.98" y="422.86" width="23.03" height="23.62" rx="0.6"/><rect class="cls-35" x="996.57" y="439.35" width="8.87" height="15.69"/><rect class="cls-35" x="1036.18" y="439.35" width="8.46" height="15.69"/><rect class="cls-33" x="992.35" y="434.97" width="3.2" height="24.66" rx="0.4"/><rect class="cls-33" x="986.83" y="434.97" width="3.2" height="24.66" rx="0.4"/><rect class="cls-33" x="1050.57" y="434.97" width="3.2" height="24.66" rx="0.4"/><rect class="cls-33" x="1045.05" y="434.97" width="3.2" height="24.66" rx="0.4"/><ellipse class="cls-31" cx="1038.47" cy="175" rx="1.84" ry="1.79"/><circle class="cls-32" cx="1038.47" cy="175" r="1.6"/><circle class="cls-31" cx="1038.47" cy="175" r="1.25"/><circle class="cls-32" cx="1038.47" cy="175" r="0.89"/><ellipse class="cls-31" cx="1038.47" cy="181.03" rx="1.84" ry="1.79"/><circle class="cls-32" cx="1038.47" cy="181.03" r="1.6"/><circle class="cls-31" cx="1038.47" cy="181.03" r="1.25"/><circle class="cls-32" cx="1038.47" cy="181.03" r="0.89"/><rect class="cls-33" x="1001.64" y="150.06" width="40.12" height="50.77" rx="8.93"/><path class="cls-33" d="M1009.54,134.71h25.08a7.3,7.3,0,0,1,7.3,7.3V190.5a9.74,9.74,0,0,1-9.74,9.74h-21.25a9.74,9.74,0,0,1-9.74-9.74V143.07A8.36,8.36,0,0,1,1009.54,134.71Z"/><rect class="cls-33" x="1002.2" y="156.66" width="6.27" height="36.18"/><rect class="cls-33" x="1035.2" y="156.66" width="6.24" height="36.18"/><rect class="cls-34" x="1010.33" y="150.79" width="1.77" height="50.04"/><rect class="cls-34" x="1013.87" y="150.79" width="1.77" height="50.04"/><rect class="cls-34" x="1017.41" y="150.79" width="1.77" height="50.04"/><rect class="cls-34" x="1020.95" y="150.79" width="1.77" height="50.04"/><rect class="cls-34" x="1024.5" y="150.79" width="1.77" height="50.04"/><rect class="cls-34" x="1028.04" y="150.79" width="1.77" height="50.04"/><rect class="cls-34" x="1031.58" y="150.79" width="1.77" height="50.04"/><path class="cls-33" d="M1045.38,192.65h-2.78l-.83-.83V174.59l.83-.83h2.78l.83.83v17.23Z"/><rect class="cls-35" x="1003.19" y="200.83" width="36.36" height="8.27"/><rect class="cls-35" x="1010.03" y="200.83" width="4.13" height="8.27"/><rect class="cls-35" x="1030.11" y="200.83" width="4.13" height="8.27"/><rect class="cls-33" x="993.74" y="209.69" width="55.5" height="2.95" rx="1.1"/><rect class="cls-33" x="994.92" y="212.64" width="53.13" height="2.36" rx="1.1"/><rect class="cls-33" x="1000.53" y="215.29" width="41.92" height="2.95" rx="1.1"/><rect class="cls-33" x="1006.88" y="265.48" width="29.94" height="2.95" rx="1.1"/><rect class="cls-33" x="1004.67" y="289.09" width="33.65" height="2.95" rx="1.1"/><rect class="cls-35" x="1009.68" y="218.49" width="23.62" height="17.46"/><rect class="cls-35" x="1002.3" y="235.96" width="38.38" height="5.9" rx="1.1"/><rect class="cls-35" x="1006.96" y="241.86" width="29.1" height="23.62"/><rect class="cls-33" x="1007.04" y="268.43" width="29.63" height="20.66"/><rect class="cls-35" x="1009.98" y="241.86" width="23.03" height="23.62" rx="0.6"/><rect class="cls-35" x="997.57" y="258.35" width="8.87" height="15.69"/><rect class="cls-35" x="1037.18" y="258.35" width="8.46" height="15.69"/><rect class="cls-33" x="993.35" y="253.97" width="3.2" height="24.66" rx="0.4"/><rect class="cls-33" x="987.83" y="253.97" width="3.2" height="24.66" rx="0.4"/><rect class="cls-33" x="1051.57" y="253.97" width="3.2" height="24.66" rx="0.4"/><rect class="cls-33" x="1046.05" y="253.97" width="3.2" height="24.66" rx="0.4"/><text class="cls-36" transform="translate(1009.88 508.48) scale(0.9 1)">SANLEY</text><ellipse class="cls-31" cx="1038.93" cy="539.51" rx="1.84" ry="1.79"/><circle class="cls-32" cx="1038.93" cy="539.51" r="1.6"/><circle class="cls-31" cx="1038.93" cy="539.51" r="1.25"/><circle class="cls-32" cx="1038.93" cy="539.51" r="0.89"/><ellipse class="cls-31" cx="1038.93" cy="545.53" rx="1.84" ry="1.79"/><circle class="cls-32" cx="1038.93" cy="545.53" r="1.6"/><circle class="cls-31" cx="1038.93" cy="545.53" r="1.25"/><circle class="cls-32" cx="1038.93" cy="545.53" r="0.89"/><rect class="cls-33" x="1002.1" y="514.56" width="40.12" height="50.77" rx="8.93"/><path class="cls-33" d="M1010,499.21h25.08a7.3,7.3,0,0,1,7.3,7.3V555a9.74,9.74,0,0,1-9.74,9.74h-21.25a9.74,9.74,0,0,1-9.74-9.74V507.57A8.36,8.36,0,0,1,1010,499.21Z"/><rect class="cls-33" x="1002.66" y="521.16" width="6.27" height="36.18"/><rect class="cls-33" x="1035.66" y="521.16" width="6.24" height="36.18"/><rect class="cls-34" x="1010.78" y="515.29" width="1.77" height="50.04"/><rect class="cls-34" x="1014.33" y="515.29" width="1.77" height="50.04"/><rect class="cls-34" x="1017.87" y="515.29" width="1.77" height="50.04"/><rect class="cls-34" x="1021.41" y="515.29" width="1.77" height="50.04"/><rect class="cls-34" x="1024.95" y="515.29" width="1.77" height="50.04"/><rect class="cls-34" x="1028.5" y="515.29" width="1.77" height="50.04"/><rect class="cls-34" x="1032.04" y="515.29" width="1.77" height="50.04"/><path class="cls-33" d="M1045.84,557.15h-2.79l-.83-.83V539.09l.83-.83h2.79l.83.83v17.23Z"/><rect class="cls-35" x="1003.65" y="565.33" width="36.36" height="8.27"/><rect class="cls-35" x="1010.49" y="565.33" width="4.13" height="8.27"/><rect class="cls-35" x="1030.56" y="565.33" width="4.13" height="8.27"/><rect class="cls-33" x="994.2" y="574.19" width="55.5" height="2.95" rx="1.1"/><rect class="cls-33" x="995.38" y="577.14" width="53.13" height="2.36" rx="1.1"/><rect class="cls-33" x="1000.99" y="579.8" width="41.92" height="2.95" rx="1.1"/><rect class="cls-33" x="1007.33" y="629.98" width="29.94" height="2.95" rx="1.1"/><rect class="cls-33" x="1005.12" y="653.59" width="33.65" height="2.95" rx="1.1"/><rect class="cls-35" x="1010.14" y="583" width="23.62" height="17.46"/><rect class="cls-35" x="1002.76" y="600.46" width="38.38" height="5.9" rx="1.1"/><rect class="cls-35" x="1007.42" y="606.36" width="29.1" height="23.62"/><rect class="cls-33" x="1007.49" y="632.93" width="29.63" height="20.66"/><rect class="cls-35" x="1010.43" y="606.36" width="23.03" height="23.62" rx="0.6"/><rect class="cls-35" x="998.03" y="622.85" width="8.87" height="15.69"/><rect class="cls-35" x="1037.64" y="622.85" width="8.46" height="15.69"/><rect class="cls-33" x="993.8" y="618.48" width="3.2" height="24.66" rx="0.4"/><rect class="cls-33" x="988.28" y="618.48" width="3.2" height="24.66" rx="0.4"/><rect class="cls-33" x="1052.02" y="618.48" width="3.2" height="24.66" rx="0.4"/><rect class="cls-33" x="1046.5" y="618.48" width="3.2" height="24.66" rx="0.4"/><text class="cls-36" transform="translate(1008.65 693.4) scale(0.9 1)">SANLEY</text><ellipse class="cls-31" cx="1037.7" cy="724.42" rx="1.84" ry="1.79"/><circle class="cls-32" cx="1037.7" cy="724.42" r="1.6"/><circle class="cls-31" cx="1037.7" cy="724.42" r="1.25"/><circle class="cls-32" cx="1037.7" cy="724.42" r="0.89"/><ellipse class="cls-31" cx="1037.7" cy="730.45" rx="1.84" ry="1.79"/><circle class="cls-32" cx="1037.7" cy="730.45" r="1.6"/><circle class="cls-31" cx="1037.7" cy="730.45" r="1.25"/><circle class="cls-32" cx="1037.7" cy="730.45" r="0.89"/><rect class="cls-33" x="1000.87" y="699.48" width="40.12" height="50.77" rx="8.93"/><path class="cls-33" d="M1008.76,684.13h25.08a7.3,7.3,0,0,1,7.3,7.3v48.49a9.74,9.74,0,0,1-9.74,9.74h-21.25a9.74,9.74,0,0,1-9.74-9.74V692.48A8.36,8.36,0,0,1,1008.76,684.13Z"/><rect class="cls-33" x="1001.43" y="706.08" width="6.27" height="36.18"/><rect class="cls-33" x="1034.43" y="706.08" width="6.24" height="36.18"/><rect class="cls-34" x="1009.56" y="700.21" width="1.77" height="50.04"/><rect class="cls-34" x="1013.1" y="700.21" width="1.77" height="50.04"/><rect class="cls-34" x="1016.64" y="700.21" width="1.77" height="50.04"/><rect class="cls-34" x="1020.18" y="700.21" width="1.77" height="50.04"/><rect class="cls-34" x="1023.73" y="700.21" width="1.77" height="50.04"/><rect class="cls-34" x="1027.27" y="700.21" width="1.77" height="50.04"/><rect class="cls-34" x="1030.81" y="700.21" width="1.77" height="50.04"/><path class="cls-33" d="M1044.61,742.07h-2.78l-.84-.83V724l.84-.83h2.78l.83.83v17.23Z"/><rect class="cls-35" x="1002.42" y="750.25" width="36.36" height="8.27"/><rect class="cls-35" x="1009.26" y="750.25" width="4.13" height="8.27"/><rect class="cls-35" x="1029.33" y="750.25" width="4.13" height="8.27"/><rect class="cls-33" x="992.97" y="759.1" width="55.5" height="2.95" rx="1.1"/><rect class="cls-33" x="994.15" y="762.06" width="53.13" height="2.36" rx="1.1"/><rect class="cls-33" x="999.76" y="764.71" width="41.92" height="2.95" rx="1.1"/><rect class="cls-33" x="1006.11" y="814.9" width="29.94" height="2.95" rx="1.1"/><rect class="cls-33" x="1003.89" y="838.51" width="33.65" height="2.95" rx="1.1"/><rect class="cls-35" x="1008.91" y="767.91" width="23.62" height="17.46"/><rect class="cls-35" x="1001.53" y="785.38" width="38.38" height="5.9" rx="1.1"/><rect class="cls-35" x="1006.19" y="791.28" width="29.1" height="23.62"/><rect class="cls-33" x="1006.26" y="817.85" width="29.63" height="20.66"/><rect class="cls-35" x="1009.21" y="791.28" width="23.03" height="23.62" rx="0.6"/><rect class="cls-35" x="996.8" y="807.77" width="8.87" height="15.69"/><rect class="cls-35" x="1036.41" y="807.77" width="8.46" height="15.69"/><rect class="cls-33" x="992.58" y="803.39" width="3.2" height="24.66" rx="0.4"/><rect class="cls-33" x="987.05" y="803.39" width="3.2" height="24.66" rx="0.4"/><rect class="cls-33" x="1050.8" y="803.39" width="3.2" height="24.66" rx="0.4"/><rect class="cls-33" x="1045.27" y="803.39" width="3.2" height="24.66" rx="0.4"/><text class="cls-36" transform="translate(1006.86 867.88) scale(0.9 1)">SANLEY</text><ellipse class="cls-31" cx="1035.9" cy="898.9" rx="1.84" ry="1.79"/><circle class="cls-32" cx="1035.9" cy="898.9" r="1.6"/><circle class="cls-31" cx="1035.9" cy="898.9" r="1.25"/><circle class="cls-32" cx="1035.9" cy="898.9" r="0.89"/><ellipse class="cls-31" cx="1035.9" cy="904.93" rx="1.84" ry="1.79"/><circle class="cls-32" cx="1035.9" cy="904.93" r="1.6"/><circle class="cls-31" cx="1035.9" cy="904.93" r="1.25"/><circle class="cls-32" cx="1035.9" cy="904.93" r="0.89"/><rect class="cls-33" x="999.08" y="873.96" width="40.12" height="50.77" rx="8.93"/><path class="cls-33" d="M1007,858.61H1032a7.3,7.3,0,0,1,7.3,7.3V914.4a9.74,9.74,0,0,1-9.74,9.74h-21.25a9.74,9.74,0,0,1-9.74-9.74V867A8.36,8.36,0,0,1,1007,858.61Z"/><rect class="cls-33" x="999.64" y="880.56" width="6.27" height="36.18"/><rect class="cls-33" x="1032.64" y="880.56" width="6.24" height="36.18"/><rect class="cls-34" x="1007.76" y="874.69" width="1.77" height="50.04"/><rect class="cls-34" x="1011.31" y="874.69" width="1.77" height="50.04"/><rect class="cls-34" x="1014.85" y="874.69" width="1.77" height="50.04"/><rect class="cls-34" x="1018.39" y="874.69" width="1.77" height="50.04"/><rect class="cls-34" x="1021.93" y="874.69" width="1.77" height="50.04"/><rect class="cls-34" x="1025.47" y="874.69" width="1.77" height="50.04"/><rect class="cls-34" x="1029.02" y="874.69" width="1.77" height="50.04"/><path class="cls-33" d="M1042.81,916.55H1040l-.83-.83V898.49l.83-.83h2.78l.84.83v17.23Z"/><rect class="cls-35" x="1000.62" y="924.73" width="36.36" height="8.27"/><rect class="cls-35" x="1007.47" y="924.73" width="4.13" height="8.27"/><rect class="cls-35" x="1027.54" y="924.73" width="4.13" height="8.27"/><rect class="cls-33" x="991.18" y="933.59" width="55.5" height="2.95" rx="1.1"/><rect class="cls-33" x="992.36" y="936.54" width="53.13" height="2.36" rx="1.1"/><rect class="cls-33" x="997.97" y="939.19" width="41.92" height="2.95" rx="1.1"/><rect class="cls-33" x="1004.31" y="989.38" width="29.94" height="2.95" rx="1.1"/><rect class="cls-33" x="1002.1" y="1012.99" width="33.65" height="2.95" rx="1.1"/><rect class="cls-35" x="1007.12" y="942.39" width="23.62" height="17.46"/><rect class="cls-35" x="999.74" y="959.86" width="38.38" height="5.9" rx="1.1"/><rect class="cls-35" x="1004.4" y="965.76" width="29.1" height="23.62"/><rect class="cls-33" x="1004.47" y="992.33" width="29.63" height="20.66"/><rect class="cls-35" x="1007.41" y="965.76" width="23.03" height="23.62" rx="0.6"/><rect class="cls-35" x="995.01" y="982.25" width="8.87" height="15.69"/><rect class="cls-35" x="1034.62" y="982.25" width="8.46" height="15.69"/><rect class="cls-33" x="990.78" y="977.87" width="3.2" height="24.66" rx="0.4"/><rect class="cls-33" x="985.26" y="977.87" width="3.2" height="24.66" rx="0.4"/><rect class="cls-33" x="1049" y="977.87" width="3.2" height="24.66" rx="0.4"/><rect class="cls-33" x="1043.48" y="977.87" width="3.2" height="24.66" rx="0.4"/><rect class="cls-1" x="356.72" y="396.97" width="298.49" height="14" transform="translate(909.94 -102) rotate(90)"/><path class="cls-1" d="M490,248.52H193.82c-2.81,0-5.08-3.14-5.08-7h0c0-3.87,2.27-7,5.08-7H490c2.81,0,5.09,3.13,5.09,7h0C495.1,245.38,492.82,248.52,490,248.52Z"/><text class="cls-37" transform="translate(304.08 297.32)">进水阀门</text><text class="cls-38" transform="translate(174.52 215.63)">市政进水</text><polygon class="cls-19" points="532.11 368.76 532.11 400.24 532.11 406.26 523.93 402.79 533.7 425.94 543.47 402.79 535.28 406.26 535.28 400.24 535.28 368.76 532.11 368.76"/><polygon class="cls-19" points="183.64 288.54 215.13 288.54 221.15 288.54 217.67 296.73 240.82 286.96 217.67 277.19 221.15 285.37 215.13 285.37 183.64 285.37 183.64 288.54"/><polygon class="cls-19" points="491.02 809.41 522.5 809.41 528.53 809.41 525.05 817.59 548.2 807.82 525.05 798.05 528.53 806.24 522.5 806.24 491.02 806.24 491.02 809.41"/><path class="cls-1" d="M498.85,261.3l14.86.12a26.83,26.83,0,0,0-27.56-26.94v14.26a12.68,12.68,0,0,1,8.18,2.78A13,13,0,0,1,498.85,261.3Z"/><rect class="cls-1" x="482.64" y="233.2" width="3.8" height="16.56" transform="translate(969.09 482.95) rotate(-180)"/><rect class="cls-1" x="504.3" y="254.34" width="3.8" height="16.56" transform="translate(768.81 -243.58) rotate(90)"/><rect class="cls-3" x="358.05" y="233.39" width="3.48" height="15.76"/><rect class="cls-3" x="362.81" y="233.39" width="3.48" height="15.76"/><rect class="cls-3" x="324.89" y="233.39" width="3.48" height="15.76"/><rect class="cls-3" x="329.66" y="233.39" width="3.48" height="15.76"/><circle class="cls-20" cx="345.25" cy="199.38" r="12.98"/><rect class="cls-3" x="338.99" y="188.69" width="1.83" height="10.15" rx="0.91" transform="translate(717.27 90.43) rotate(135)"/><rect class="cls-3" x="350.22" y="199.92" width="1.83" height="10.15" rx="0.91" transform="translate(744.38 101.66) rotate(135)"/><rect class="cls-3" x="342.35" y="183.47" width="6.59" height="3.25"/><polygon class="cls-3" points="344.5 220.81 342.96 221.28 339.39 215.16 340.93 214.69 344.5 220.81"/><polygon class="cls-3" points="347.58 220.81 349.12 221.28 352.29 215.19 351.14 214.69 347.58 220.81"/><rect class="cls-3" x="345.09" y="214.39" width="1.67" height="6.63" transform="translate(691.86 435.41) rotate(180)"/><rect class="cls-3" x="357.49" y="195.08" width="3.69" height="7.92"/><rect class="cls-3" x="338.91" y="212.56" width="13.63" height="3.72" rx="0.72"/><rect class="cls-3" x="342.85" y="222.39" width="6.45" height="7.65" rx="0.72"/><rect class="cls-3" x="339.16" y="219.9" width="13.73" height="1.57" rx="0.44"/><rect class="cls-3" x="339.16" y="221.6" width="13.73" height="1.57" rx="0.42"/><rect class="cls-3" x="328.87" y="199.86" width="3.03" height="3.14"/><rect class="cls-3" x="328.87" y="195.6" width="3.03" height="3.14"/><circle class="cls-21" cx="345.53" cy="199.39" r="3.33"/><circle class="cls-22" cx="345.57" cy="199.38" r="2.22"/><rect class="cls-3" x="350.22" y="188.69" width="1.83" height="10.15" rx="0.91" transform="translate(462.41 579.07) rotate(-135)"/><rect class="cls-3" x="338.99" y="199.92" width="1.83" height="10.15" rx="0.91" transform="translate(435.3 590.3) rotate(-135)"/><rect class="cls-3" x="339.06" y="226.16" width="13.48" height="24.85" rx="4.98"/><rect class="cls-3" x="351.32" y="224.67" width="3.31" height="27.82" rx="1.66"/><rect class="cls-3" x="337.06" y="224.67" width="3.31" height="27.82" rx="1.66"/><circle class="cls-23" cx="345.57" cy="199.38" r="1.33"/><circle class="cls-24" cx="345.57" cy="199.38" r="0.94"/><rect class="cls-1" x="356.72" y="396.97" width="298.49" height="14" transform="translate(909.94 -102) rotate(90)"/><path class="cls-1" d="M490,248.52H193.82c-2.81,0-5.08-3.14-5.08-7h0c0-3.87,2.27-7,5.08-7H490c2.81,0,5.09,3.13,5.09,7h0C495.1,245.38,492.82,248.52,490,248.52Z"/><text class="cls-37" transform="translate(304.08 297.32)">进水阀门</text><text class="cls-38" transform="translate(174.52 215.63)">市政进水</text><polygon class="cls-19" points="532.11 368.76 532.11 400.24 532.11 406.26 523.93 402.79 533.7 425.94 543.47 402.79 535.28 406.26 535.28 400.24 535.28 368.76 532.11 368.76"/><polygon class="cls-19" points="183.64 288.54 215.13 288.54 221.15 288.54 217.67 296.73 240.82 286.96 217.67 277.19 221.15 285.37 215.13 285.37 183.64 285.37 183.64 288.54"/><polygon class="cls-19" points="491.02 809.41 522.5 809.41 528.53 809.41 525.05 817.59 548.2 807.82 525.05 798.05 528.53 806.24 522.5 806.24 491.02 806.24 491.02 809.41"/><path class="cls-1" d="M498.85,261.3l14.86.12a26.83,26.83,0,0,0-27.56-26.94v14.26a12.68,12.68,0,0,1,8.18,2.78A13,13,0,0,1,498.85,261.3Z"/><rect class="cls-1" x="482.64" y="233.2" width="3.8" height="16.56" transform="translate(969.09 482.95) rotate(-180)"/><rect class="cls-1" x="504.3" y="254.34" width="3.8" height="16.56" transform="translate(768.81 -243.58) rotate(90)"/><rect class="cls-3" x="358.05" y="233.39" width="3.48" height="15.76"/><rect class="cls-3" x="362.81" y="233.39" width="3.48" height="15.76"/><rect class="cls-3" x="324.89" y="233.39" width="3.48" height="15.76"/><rect class="cls-3" x="329.66" y="233.39" width="3.48" height="15.76"/><circle class="cls-20" cx="345.25" cy="199.38" r="12.98"/><rect class="cls-3" x="338.99" y="188.69" width="1.83" height="10.15" rx="0.91" transform="translate(717.27 90.43) rotate(135)"/><rect class="cls-3" x="350.22" y="199.92" width="1.83" height="10.15" rx="0.91" transform="translate(744.38 101.66) rotate(135)"/><rect class="cls-3" x="342.35" y="183.47" width="6.59" height="3.25"/><polygon class="cls-3" points="344.5 220.81 342.96 221.28 339.39 215.16 340.93 214.69 344.5 220.81"/><polygon class="cls-3" points="347.58 220.81 349.12 221.28 352.29 215.19 351.14 214.69 347.58 220.81"/><rect class="cls-3" x="345.09" y="214.39" width="1.67" height="6.63" transform="translate(691.86 435.41) rotate(180)"/><rect class="cls-3" x="357.49" y="195.08" width="3.69" height="7.92"/><rect class="cls-3" x="338.91" y="212.56" width="13.63" height="3.72" rx="0.72"/><rect class="cls-3" x="342.85" y="222.39" width="6.45" height="7.65" rx="0.72"/><rect class="cls-3" x="339.16" y="219.9" width="13.73" height="1.57" rx="0.44"/><rect class="cls-3" x="339.16" y="221.6" width="13.73" height="1.57" rx="0.42"/><rect class="cls-3" x="328.87" y="199.86" width="3.03" height="3.14"/><rect class="cls-3" x="328.87" y="195.6" width="3.03" height="3.14"/><circle class="cls-21" cx="345.53" cy="199.39" r="3.33"/><circle class="cls-22" cx="345.57" cy="199.38" r="2.22"/><rect class="cls-3" x="350.22" y="188.69" width="1.83" height="10.15" rx="0.91" transform="translate(462.41 579.07) rotate(-135)"/><rect class="cls-3" x="338.99" y="199.92" width="1.83" height="10.15" rx="0.91" transform="translate(435.3 590.3) rotate(-135)"/><rect class="cls-3" x="339.06" y="226.16" width="13.48" height="24.85" rx="4.98"/><rect class="cls-3" x="351.32" y="224.67" width="3.31" height="27.82" rx="1.66"/><rect class="cls-3" x="337.06" y="224.67" width="3.31" height="27.82" rx="1.66"/><circle class="cls-23" cx="345.57" cy="199.38" r="1.33"/><circle class="cls-24" cx="345.57" cy="199.38" r="0.94"/><rect class="cls-39" x="292.51" y="544.07" width="315.05" height="212"/><rect class="cls-40" x="293.82" y="595.72" width="312.86" height="158.9"/><rect class="cls-1" x="428.74" y="773.4" width="257.98" height="14"/><circle class="cls-41" cx="407.74" cy="731.07" r="10"/><ellipse class="cls-42" cx="407.99" cy="731.57" rx="8" ry="7.75"/><rect class="cls-1" x="385.97" y="740.07" width="44" height="14" rx="7" transform="translate(1155.04 339.1) rotate(90)"/><path class="cls-1" d="M415.74,760.64l-14.86-.12a26.81,26.81,0,0,0,27.56,26.94V773.2a12.62,12.62,0,0,1-8.18-2.78A13,13,0,0,1,415.74,760.64Z"/><rect class="cls-1" x="428.14" y="772.19" width="3.8" height="16.56"/><rect class="cls-1" x="406.49" y="751.05" width="3.8" height="16.56" transform="translate(-350.93 1167.72) rotate(-90)"/><rect class="cls-1" x="428.74" y="773.4" width="262.26" height="14"/><circle class="cls-41" cx="407.74" cy="731.07" r="10"/><ellipse class="cls-42" cx="407.99" cy="731.57" rx="8" ry="7.75"/><rect class="cls-1" x="385.97" y="740.07" width="44" height="14" rx="7" transform="translate(1155.04 339.1) rotate(90)"/><path class="cls-1" d="M415.74,760.64l-14.86-.12a26.81,26.81,0,0,0,27.56,26.94V773.2a12.62,12.62,0,0,1-8.18-2.78A13,13,0,0,1,415.74,760.64Z"/><rect class="cls-1" x="428.14" y="772.19" width="3.8" height="16.56"/><rect class="cls-1" x="406.49" y="751.05" width="3.8" height="16.56" transform="translate(-350.93 1167.72) rotate(-90)"/><rect class="cls-1" x="976.68" y="542.42" width="845" height="12.16" transform="translate(1947.68 -850.68) rotate(90)"/><path class="cls-1" d="M1416.22,115.32q.06-6.45.11-12.91a23.3,23.3,0,0,0-23.4,23.94h12.39a11,11,0,0,1,2.41-7.11A11.33,11.33,0,0,1,1416.22,115.32Z"/><rect class="cls-1" x="1397.35" y="120.55" width="3.3" height="14.38" transform="translate(1526.75 -1271.26) rotate(90)"/><rect class="cls-1" x="1415.71" y="101.75" width="3.3" height="14.38"/><rect class="cls-1" x="1417.59" y="102.57" width="227.15" height="12.88"/><rect class="cls-3" x="1543.27" y="68.43" width="2.73" height="8.46"/><rect class="cls-3" x="1521.02" y="68.43" width="2.47" height="8.46"/><rect class="cls-3" x="1517.94" y="97.94" width="31.63" height="20.78"/><polygon class="cls-3" points="1552.48 113.14 1550.03 119.18 1550.03 98.4 1552.48 104.3 1552.48 113.14"/><polygon class="cls-3" points="1515.01 113.14 1517.46 119.18 1517.46 98.4 1515.01 104.3 1515.01 113.14"/><rect class="cls-3" x="1554.55" y="100.55" width="2.77" height="17.11"/><rect class="cls-3" x="1558.35" y="100.55" width="2.77" height="17.11"/><rect class="cls-3" x="1506.4" y="100.55" width="2.77" height="17.11"/><rect class="cls-3" x="1510.19" y="100.55" width="2.77" height="17.11"/><rect class="cls-3" x="1527.21" y="93.77" width="13.19" height="5.07" rx="0.4"/><rect class="cls-3" x="1528.14" y="85.98" width="11.01" height="3.05" rx="0.4"/><rect class="cls-3" x="1528.24" y="82.14" width="11.01" height="3.29" rx="0.4"/><rect class="cls-3" x="1530.92" y="87.66" width="5.51" height="7.11" rx="0.4"/><circle class="cls-43" cx="1533.82" cy="72.75" r="10.28"/><circle class="cls-44" cx="1533.64" cy="72.92" r="7.33"/><circle class="cls-45" cx="1533.8" cy="72.98" r="9.49"/><rect class="cls-3" x="1519.71" y="69.92" width="2.53" height="1.55"/><rect class="cls-3" x="1519.71" y="73.87" width="2.53" height="1.55"/><rect class="cls-46" x="1528.73" y="71.22" width="9.88" height="3.51"/><polygon class="cls-47" points="1531.38 74.73 1528.73 74.73 1528.73 71.22 1533.96 71.22 1531.38 74.73"/><path class="cls-3" d="M1531.21,103.58l-8.29-3.24a.43.43,0,0,1-.11-.73l7-5.55a.42.42,0,0,1,.69.27l1.33,8.79A.42.42,0,0,1,1531.21,103.58Z"/><path class="cls-3" d="M1536.45,103.58l8.28-3.24a.42.42,0,0,0,.11-.73l-6.95-5.55a.43.43,0,0,0-.69.27l-1.33,8.79A.43.43,0,0,0,1536.45,103.58Z"/><text class="cls-48" transform="translate(1407.77 243.52)">出水阀门</text><text class="cls-49" transform="translate(1576.06 85.85)">供水入户</text><text class="cls-48" transform="translate(1503.41 149.06)">流量计</text><rect class="cls-50" x="1495.54" y="157.85" width="76.44" height="27.78"/><polygon class="cls-19" points="1590.24 142.3 1617.13 142.3 1623.15 142.3 1619.68 150.49 1642.83 140.72 1619.68 130.94 1623.15 139.13 1617.13 139.13 1590.24 139.13 1590.24 142.3"/><rect class="cls-3" x="1397.45" y="209.09" width="3.2" height="14.5" transform="translate(1615.39 -1182.72) rotate(90)"/><rect class="cls-3" x="1397.45" y="213.47" width="3.2" height="14.5" transform="translate(1619.77 -1178.33) rotate(90)"/><rect class="cls-3" x="1397.45" y="178.6" width="3.2" height="14.5" transform="translate(1584.9 -1213.21) rotate(90)"/><rect class="cls-3" x="1397.45" y="182.98" width="3.2" height="14.5" transform="translate(1589.28 -1208.83) rotate(90)"/><circle class="cls-20" cx="1437.58" cy="202.97" r="11.94"/><rect class="cls-3" x="1441.9" y="193.38" width="1.68" height="9.34" rx="0.84" transform="translate(2322.87 1358.27) rotate(-135)"/><rect class="cls-3" x="1431.57" y="203.71" width="1.68" height="9.34" rx="0.84" transform="translate(2297.94 1368.59) rotate(-135)"/><rect class="cls-3" x="1447.69" y="201.84" width="6.06" height="2.98" transform="translate(1654.05 -1247.39) rotate(90)"/><polygon class="cls-3" points="1417.87 202.28 1417.44 200.85 1423.07 197.57 1423.5 199 1417.87 202.28"/><polygon class="cls-3" points="1417.87 205.11 1417.44 206.53 1423.04 209.44 1423.5 208.39 1417.87 205.11"/><rect class="cls-3" x="1419.96" y="200.54" width="1.54" height="6.1" transform="translate(1217.14 1624.32) rotate(-90)"/><rect class="cls-3" x="1436.2" y="212.28" width="3.39" height="7.28" transform="translate(1653.81 -1221.97) rotate(90)"/><rect class="cls-3" x="1417.48" y="201.69" width="12.54" height="3.42" rx="0.72" transform="translate(1627.15 -1220.34) rotate(90)"/><rect class="cls-3" x="1409.94" y="200.21" width="5.93" height="7.04" rx="0.72" transform="translate(1616.63 -1209.18) rotate(90)"/><rect class="cls-3" x="1411.67" y="202.96" width="12.63" height="1.45" rx="0.44" transform="translate(1621.66 -1214.3) rotate(90)"/><rect class="cls-3" x="1410.11" y="202.96" width="12.63" height="1.45" rx="0.42" transform="translate(1620.1 -1212.74) rotate(90)"/><rect class="cls-3" x="1434.3" y="187.85" width="2.79" height="2.88" transform="translate(1624.99 -1246.4) rotate(90)"/><rect class="cls-3" x="1438.22" y="187.85" width="2.79" height="2.88" transform="translate(1628.91 -1250.32) rotate(90)"/><circle class="cls-21" cx="1437.57" cy="203.22" r="3.07"/><circle class="cls-22" cx="1437.58" cy="203.26" r="2.04"/><rect class="cls-3" x="1441.9" y="203.71" width="1.68" height="9.34" rx="0.84" transform="translate(275.22 1081.2) rotate(-45)"/><rect class="cls-3" x="1431.57" y="193.38" width="1.68" height="9.34" rx="0.84" transform="translate(279.51 1070.88) rotate(-45)"/><rect class="cls-3" x="1395.32" y="192.05" width="12.4" height="22.85" rx="4.98" transform="translate(1604.99 -1198.05) rotate(90)"/><rect class="cls-3" x="1400.01" y="197.27" width="3.04" height="25.58" rx="1.52" transform="translate(1611.6 -1191.46) rotate(90)"/><rect class="cls-3" x="1400.01" y="184.16" width="3.04" height="25.58" rx="1.52" transform="translate(1598.48 -1204.58) rotate(90)"/><circle class="cls-23" cx="1437.58" cy="203.26" r="1.22"/><circle class="cls-24" cx="1437.58" cy="203.26" r="0.86"/><rect class="cls-3" x="1461.95" y="357.91" width="0.63" height="2.18" transform="translate(1821.27 -1103.26) rotate(90)"/><rect class="cls-3" x="1460.28" y="352.29" width="0.63" height="2.18" transform="translate(826.04 -1008.81) rotate(51.42)"/><rect class="cls-3" x="1459.96" y="363.41" width="0.63" height="2.18" transform="translate(2691.03 -501.8) rotate(130.84)"/><rect class="cls-3" x="1454.37" y="366.71" width="0.63" height="2.18" transform="translate(2941.39 570.59) rotate(173.58)"/><rect class="cls-3" x="1454.43" y="348.66" width="0.63" height="2.18" transform="translate(61.72 -196.21) rotate(7.88)"/><rect class="cls-3" x="1462.64" y="356.99" width="0.33" height="1.21" transform="translate(1535.76 -1146.51) rotate(79.04)"/><rect class="cls-3" x="1462.64" y="359.72" width="0.33" height="1.21" transform="translate(2125.91 -992.41) rotate(102.28)"/><rect class="cls-3" x="1462.39" y="360.92" width="0.33" height="1.21" transform="translate(2303.77 -888.32) rotate(110.06)"/><rect class="cls-3" x="1461.98" y="362.07" width="0.33" height="1.21" transform="translate(2465.68 -760.84) rotate(117.84)"/><rect class="cls-3" x="1461.41" y="363.15" width="0.33" height="1.21" transform="translate(2608.56 -612.43) rotate(125.62)"/><rect class="cls-3" x="1459.87" y="365.05" width="0.33" height="1.21" transform="translate(2826.89 -264.53) rotate(141.19)"/><rect class="cls-3" x="1458.92" y="365.82" width="0.33" height="1.21" transform="translate(2898.27 -71.71) rotate(148.97)"/><rect class="cls-3" x="1457.88" y="366.46" width="0.33" height="1.21" transform="translate(2942.59 128.84) rotate(156.75)"/><rect class="cls-3" x="1456.76" y="366.95" width="0.33" height="1.21" transform="translate(2959.11 333.32) rotate(164.54)"/><rect class="cls-3" x="1455.59" y="367.49" width="0.33" height="1.21" transform="translate(2947.64 538.29) rotate(172.32)"/><rect class="cls-3" x="1453.35" y="367.86" width="0.33" height="1.21" transform="translate(2906.37 739.49) rotate(-179.9)"/><rect class="cls-3" x="1452.12" y="367.87" width="0.33" height="1.21" transform="matrix(-0.99, -0.14, 0.14, -0.99, 2840.31, 932.65)"/><rect class="cls-3" x="1450.91" y="367.71" width="0.33" height="1.21" transform="translate(2748.79 1114.77) rotate(-164.33)"/><rect class="cls-3" x="1462.37" y="355.85" width="0.33" height="1.21" transform="translate(1338.9 -1143.81) rotate(71.59)"/><rect class="cls-3" x="1461.96" y="354.75" width="0.33" height="1.21" transform="translate(1144.24 -1115.37) rotate(64.14)"/><rect class="cls-3" x="1461.41" y="353.71" width="0.33" height="1.21" transform="translate(955.16 -1061.76) rotate(56.7)"/><rect class="cls-3" x="1459.74" y="351.26" width="0.33" height="1.21" transform="translate(594.5 -875.4) rotate(41.26)"/><rect class="cls-3" x="1458.6" y="350.45" width="0.33" height="1.21" transform="translate(421.14 -732.73) rotate(32.72)"/><rect class="cls-3" x="1457.35" y="349.4" width="0.33" height="1.21" transform="translate(271.1 -566.12) rotate(24.17)"/><rect class="cls-3" x="1456.03" y="348.96" width="0.33" height="1.21" transform="translate(147.99 -379.35) rotate(15.63)"/><rect class="cls-3" x="1453.25" y="348.68" width="0.33" height="1.21" transform="translate(-8.43 37.16) rotate(-1.46)"/><rect class="cls-3" x="1451.86" y="348.65" width="0.33" height="1.21" transform="translate(-38.6 257.57) rotate(-10)"/><rect class="cls-3" x="1450.52" y="349.03" width="0.33" height="1.21" transform="translate(-35.86 479.64) rotate(-18.55)"/><rect class="cls-3" x="1435.5" y="357.23" width="5.62" height="3.7" transform="translate(1797.39 -1079.23) rotate(90)"/><rect class="cls-3" x="1407.21" y="354.28" width="5.62" height="9.59" transform="translate(1769.1 -1050.94) rotate(90)"/><rect class="cls-3" x="1427.47" y="357.72" width="5.62" height="2.72" transform="translate(1789.36 -1071.2) rotate(90)"/><rect class="cls-3" x="1411.96" y="358.43" width="6.78" height="1.27" transform="translate(1774.41 -1056.28) rotate(90)"/><polygon class="cls-3" points="1426.55 363.5 1426.55 354.69 1428.72 356.27 1428.72 361.89 1426.55 363.5"/><polygon class="cls-3" points="1436.86 361.45 1436.86 356.7 1434.41 354.33 1431.96 356.7 1431.96 361.45 1434.41 363.83 1436.86 361.45"/><polygon class="cls-3" points="1426.29 362.52 1426.29 355.65 1421.35 352.22 1416.41 355.65 1416.41 362.52 1421.35 365.95 1426.29 362.52"/><rect class="cls-3" x="1419.41" y="347.6" width="2.81" height="8.92" transform="translate(1772.87 -1068.76) rotate(90)"/><rect class="cls-3" x="1420.13" y="347.38" width="1.62" height="6.53" transform="translate(1771.58 -1070.3) rotate(90)"/><rect class="cls-3" x="1419.68" y="347.26" width="2.32" height="3.16" transform="translate(1769.68 -1072) rotate(90)"/><rect class="cls-3" x="1419.94" y="341.7" width="1.15" height="2.8" rx="0.37" transform="translate(1763.61 -1077.42) rotate(90)"/><rect class="cls-3" x="1419.95" y="342.92" width="1.04" height="7.8" transform="translate(1767.29 -1073.65) rotate(90)"/><rect class="cls-3" x="1422.12" y="344.51" width="2.76" height="1.73" rx="0.44" transform="translate(1768.88 -1078.14) rotate(90)"/><rect class="cls-3" x="1419.25" y="344.51" width="2.76" height="1.73" rx="0.44" transform="translate(1766 -1075.26) rotate(90)"/><rect class="cls-3" x="1416.05" y="344.51" width="2.76" height="1.73" rx="0.44" transform="translate(1762.8 -1072.06) rotate(90)"/><circle class="cls-51" cx="1453.65" cy="358.69" r="13.34"/><path class="cls-52" d="M1449.79,348.45a12.24,12.24,0,0,1,3.69-.57,10.9,10.9,0,1,1-3.66,21.24"/><polygon class="cls-3" points="1451.07 356.55 1452.99 355.42 1454.23 359.23 1457.45 365.08 1457.19 365.21 1453.9 359.45 1451.07 356.55"/><circle class="cls-53" cx="1453.65" cy="358.61" r="0.84"/><text class="cls-54" transform="translate(1445.21 355.02) rotate(90)">MPA</text><text class="cls-37" transform="translate(1410.97 721.03)">压力控制器</text><text class="cls-37" transform="translate(1408.08 405.39)">出水压力表</text><rect class="cls-55" x="1412.08" y="418.53" width="83.11" height="30.2"/><polygon class="cls-19" points="1432.68 569.52 1432.68 538.03 1432.68 532.01 1440.87 535.49 1431.1 512.34 1421.33 535.49 1429.51 532.01 1429.51 538.03 1429.51 569.52 1432.68 569.52"/><rect class="cls-52" x="1427.1" y="656.95" width="32.29" height="29.43" rx="2.35" transform="translate(2114.91 -771.58) rotate(90)"/><rect class="cls-3" x="1428.36" y="658.5" width="29.95" height="26.32" rx="1.91" transform="translate(2115 -771.67) rotate(90)"/><ellipse class="cls-56" cx="1432.88" cy="659.2" rx="0.99" ry="1.03"/><ellipse class="cls-56" cx="1432.88" cy="683.91" rx="0.99" ry="1.03"/><ellipse class="cls-56" cx="1454.01" cy="659.2" rx="0.99" ry="1.03"/><ellipse class="cls-56" cx="1454.01" cy="683.91" rx="0.99" ry="1.03"/><rect class="cls-57" x="1430.5" y="675.79" width="3.54" height="4.63" transform="translate(2110.38 -754.17) rotate(90)"/><rect class="cls-3" x="1420.36" y="670.5" width="12.83" height="1.22" transform="translate(2097.89 -755.67) rotate(90)"/><rect class="cls-58" x="1408.6" y="661.1" width="12.83" height="20.12" rx="0.25" transform="translate(2086.18 -743.86) rotate(90)"/><rect class="cls-59" x="1414.43" y="665.31" width="5.77" height="11.7" rx="0.15" transform="translate(2088.48 -746.15) rotate(90)"/><text class="cls-60" transform="translate(1452.27 666.42) rotate(90) scale(1.09 1)">压力开关</text><rect class="cls-59" x="1433.85" y="667.19" width="20.54" height="10.06" transform="translate(2116.34 -771.9) rotate(90)"/><text class="cls-61" transform="translate(1446.74 662.39) rotate(90) scale(1.09 1)">CSS</text><text class="cls-62" transform="translate(1443.98 663.4) rotate(90) scale(1.09 1)">asdsanmlopq<tspan class="cls-63" x="11.59" y="0">r</tspan><tspan class="cls-64" x="12.38" y="0">st</tspan></text><text class="cls-62" transform="translate(1441.21 663.4) rotate(90) scale(1.09 1)">asdsanmlopq<tspan class="cls-63" x="11.59" y="0">r</tspan><tspan class="cls-64" x="12.38" y="0">st</tspan></text></svg>