<svg id="图层_1" data-name="图层 1" xmlns="http://www.w3.org/2000/svg" xmlns:xlink="http://www.w3.org/1999/xlink" viewBox="0 0 1920 1080"><defs><style>.cls-1,.cls-18,.cls-2,.cls-3,.cls-47,.cls-57,.cls-58,.cls-59{stroke:#01579b;}.cls-1,.cls-10,.cls-11,.cls-18,.cls-19,.cls-2,.cls-20,.cls-21,.cls-23,.cls-24,.cls-25,.cls-3,.cls-36,.cls-37,.cls-38,.cls-39,.cls-40,.cls-41,.cls-42,.cls-43,.cls-44,.cls-45,.cls-46,.cls-47,.cls-48,.cls-49,.cls-50,.cls-51,.cls-52,.cls-53,.cls-57,.cls-58,.cls-59,.cls-60,.cls-61{stroke-miterlimit:10;}.cls-1,.cls-11,.cls-19,.cls-2,.cls-3,.cls-36,.cls-37,.cls-38,.cls-39,.cls-40,.cls-41,.cls-42,.cls-43,.cls-44,.cls-45,.cls-46,.cls-48,.cls-49,.cls-50,.cls-51,.cls-52,.cls-53,.cls-59{stroke-width:2px;}.cls-1{fill:url(#未命名的渐变_31);}.cls-2{fill:url(#未命名的渐变_31-2);}.cls-3{fill:url(#未命名的渐变_31-3);}.cls-4{fill:#63c6fa;}.cls-5{fill:#06a8fa;}.cls-22,.cls-23,.cls-29,.cls-31,.cls-32,.cls-6,.cls-7{fill:#143a82;}.cls-7,.cls-8{font-size:20.69px;}.cls-29,.cls-30,.cls-31,.cls-32,.cls-7,.cls-8{font-family:PingFang-SC-Medium, PingFang SC;font-weight:500;}.cls-30,.cls-8{fill:#db4516;}.cls-9{fill:#df592f;}.cls-10,.cls-11,.cls-19,.cls-20,.cls-25,.cls-36,.cls-37,.cls-38,.cls-39,.cls-40,.cls-41,.cls-42,.cls-43,.cls-44,.cls-45,.cls-46,.cls-47,.cls-48,.cls-49,.cls-50,.cls-51,.cls-52,.cls-53,.cls-57,.cls-58,.cls-59,.cls-60,.cls-61{fill:none;}.cls-10,.cls-19,.cls-20,.cls-23,.cls-24{stroke:#143a82;}.cls-10,.cls-23,.cls-24,.cls-25{stroke-width:3px;}.cls-11{stroke:#10397a;}.cls-12{fill:#0e3773;}.cls-13{fill:#4676a5;}.cls-14{fill:#a1d5ff;}.cls-15{fill:#327cc6;}.cls-16{fill:#0a98ef;}.cls-17,.cls-18,.cls-21{fill:#f2f2f2;}.cls-18,.cls-47{stroke-width:0.75px;}.cls-21{stroke:#333f4f;}.cls-22{font-size:2.55px;}.cls-22,.cls-54{font-family:Benmo-Chenhei, Benmo Chenhei;}.cls-24{fill:#e6e6e6;}.cls-25{stroke:#b3b3b3;}.cls-26{fill:#333f4f;}.cls-27{fill:#868686;}.cls-28{fill:#cee6f9;}.cls-29,.cls-30{font-size:19.1px;}.cls-31{font-size:16px;}.cls-32{font-size:14.39px;}.cls-33{fill:#07a307;}.cls-34{fill:#af0800;}.cls-35{fill:#474747;}.cls-36{stroke:url(#未命名的渐变_15);}.cls-37{stroke:url(#未命名的渐变_15-2);}.cls-38{stroke:url(#未命名的渐变_15-3);}.cls-39{stroke:url(#未命名的渐变_15-4);}.cls-40{stroke:url(#未命名的渐变_15-5);}.cls-41{stroke:url(#未命名的渐变_15-6);}.cls-42{stroke:url(#未命名的渐变_15-7);}.cls-43{stroke:url(#未命名的渐变_15-8);}.cls-44{stroke:url(#未命名的渐变_15-9);}.cls-45{stroke:url(#未命名的渐变_15-10);}.cls-46{stroke:url(#未命名的渐变_15-11);}.cls-48{stroke:url(#未命名的渐变_15-12);}.cls-49{stroke:url(#未命名的渐变_15-13);}.cls-50{stroke:url(#未命名的渐变_15-14);}.cls-51{stroke:url(#未命名的渐变_15-15);}.cls-52{stroke:url(#未命名的渐变_15-16);}.cls-53{stroke:url(#未命名的渐变_15-17);}.cls-54{font-size:5.31px;fill:#01579b;}.cls-55{fill:#2a5e96;}.cls-56{fill:#9ac0f7;}.cls-57{stroke-width:1.5px;}.cls-58{stroke-width:0.8px;}.cls-60{stroke:#618cd1;}.cls-60,.cls-61{stroke-width:0.5px;}.cls-61{stroke:#fff;}.cls-62{fill:#10397a;}.cls-63{fill:#5276aa;}.cls-64,.cls-65{font-size:1.83px;letter-spacing:0.18em;}.cls-64,.cls-65,.cls-66{fill:#fff;}.cls-64{font-family:MicrosoftYaHei-Bold, Microsoft YaHei;font-weight:700;}.cls-65,.cls-66{font-family:MicrosoftYaHei, Microsoft YaHei;}.cls-66{font-size:1.2px;letter-spacing:0.18em;}.cls-67{letter-spacing:0.19em;}</style><linearGradient id="未命名的渐变_31" x1="256.52" y1="654.56" x2="552.82" y2="654.56" gradientUnits="userSpaceOnUse"><stop offset="0" stop-color="#fff"/><stop offset="1" stop-color="#e6e6e6"/></linearGradient><linearGradient id="未命名的渐变_31-2" x1="256.31" y1="553.48" x2="577.26" y2="553.48" xlink:href="#未命名的渐变_31"/><linearGradient id="未命名的渐变_31-3" x1="1219.22" y1="1309.58" x2="1420.44" y2="1309.58" gradientTransform="matrix(0, -1, -1, 0, 1874.78, 1969.22)" xlink:href="#未命名的渐变_31"/><linearGradient id="未命名的渐变_15" x1="1074.5" y1="347.49" x2="1148.67" y2="347.49" gradientUnits="userSpaceOnUse"><stop offset="0" stop-color="#4f6c99"/><stop offset="0.16" stop-color="#526f9c"/><stop offset="0.29" stop-color="#5b78a6"/><stop offset="0.4" stop-color="#6c87b6"/><stop offset="0.5" stop-color="#829dcd"/><stop offset="0.59" stop-color="#9fb8ea"/><stop offset="0.62" stop-color="#a9c2f4"/><stop offset="1" stop-color="#718dbe"/></linearGradient><linearGradient id="未命名的渐变_15-2" x1="1154.05" y1="316.17" x2="1228.23" y2="316.17" xlink:href="#未命名的渐变_15"/><linearGradient id="未命名的渐变_15-3" x1="1154.05" y1="918.58" x2="1228.23" y2="918.58" xlink:href="#未命名的渐变_15"/><linearGradient id="未命名的渐变_15-4" x1="1074.5" y1="315.99" x2="1148.67" y2="315.99" xlink:href="#未命名的渐变_15"/><linearGradient id="未命名的渐变_15-5" x1="1074.5" y1="950.78" x2="1148.67" y2="950.78" xlink:href="#未命名的渐变_15"/><linearGradient id="未命名的渐变_15-6" x1="1074.5" y1="919.28" x2="1148.67" y2="919.28" xlink:href="#未命名的渐变_15"/><linearGradient id="未命名的渐变_15-7" x1="1074.5" y1="170.85" x2="1148.67" y2="170.85" xlink:href="#未命名的渐变_15"/><linearGradient id="未命名的渐变_15-8" x1="1154.05" y1="139.54" x2="1228.23" y2="139.54" xlink:href="#未命名的渐变_15"/><linearGradient id="未命名的渐变_15-9" x1="1551.42" y1="210.8" x2="1625.59" y2="210.8" xlink:href="#未命名的渐变_15"/><linearGradient id="未命名的渐变_15-10" x1="1445.46" y1="344.27" x2="1519.64" y2="344.27" xlink:href="#未命名的渐变_15"/><linearGradient id="未命名的渐变_15-11" x1="1074.5" y1="139.35" x2="1148.67" y2="139.35" xlink:href="#未命名的渐变_15"/><linearGradient id="未命名的渐变_15-12" x1="1074.5" y1="775.59" x2="1148.67" y2="775.59" xlink:href="#未命名的渐变_15"/><linearGradient id="未命名的渐变_15-13" x1="1154.05" y1="744.28" x2="1228.23" y2="744.28" xlink:href="#未命名的渐变_15"/><linearGradient id="未命名的渐变_15-14" x1="1074.5" y1="744.09" x2="1148.67" y2="744.09" xlink:href="#未命名的渐变_15"/><linearGradient id="未命名的渐变_15-15" x1="1074.5" y1="592.97" x2="1148.67" y2="592.97" xlink:href="#未命名的渐变_15"/><linearGradient id="未命名的渐变_15-16" x1="1154.05" y1="561.65" x2="1228.23" y2="561.65" xlink:href="#未命名的渐变_15"/><linearGradient id="未命名的渐变_15-17" x1="1074.5" y1="561.47" x2="1148.67" y2="561.47" xlink:href="#未命名的渐变_15"/></defs><title>5泵 副本</title><polyline class="cls-1" points="552.82 559.12 552.82 750 256.51 750 256.51 559.12"/><path class="cls-2" d="M552.65,558.18h-296c-.4,0-.53-.42-.17-.55l24.23-8.83a.47.47,0,0,1,.17,0h296c.4,0,.52.42.16.55l-24.23,8.83A.45.45,0,0,1,552.65,558.18Z"/><path class="cls-3" d="M552.82,558.27V749.76c0,.25,1.09.33,1.44.1l23.26-15.19a.13.13,0,0,0,.07-.1V549c0-.25-1.09-.33-1.44-.1C576.15,548.91,552.82,558.23,552.82,558.27Z"/><path class="cls-4" d="M257.47,650.33c6.62-2.82,43.41-23.93,68.29-28.5,29.08-5.35,57.56-1.59,75.53,5.44,4.94,1.93,36.25,24,55.92,24,22.25,0,87-13.17,94.66-16V749.06H257.47Z"/><path class="cls-4" d="M553.77,635.28V749.06l22.87-15V622.12Z"/><rect class="cls-5" x="377.45" y="405.67" width="280.67" height="13.34" transform="translate(930.13 -105.45) rotate(90)"/><path class="cls-5" d="M502.59,266.17H220.39c-2.67,0-4.84-2.95-4.84-6.59h0c0-3.63,2.17-6.58,4.84-6.58h282.2c2.67,0,4.84,2.95,4.84,6.58h0C507.43,263.22,505.26,266.17,502.59,266.17Z"/><rect class="cls-5" x="444.21" y="769.11" width="245.79" height="13.16"/><rect class="cls-6" x="516.48" y="468.8" width="2.62" height="15.02" transform="translate(41.48 994.1) rotate(-90)"/><rect class="cls-6" x="516.48" y="466.16" width="2.62" height="15.02" transform="translate(44.12 991.46) rotate(-90)"/><rect class="cls-6" x="516.48" y="477.35" width="2.62" height="15.02" transform="translate(32.93 1002.65) rotate(-90)"/><rect class="cls-6" x="516.48" y="474.7" width="2.62" height="15.02" transform="translate(35.58 1000) rotate(-90)"/><text class="cls-7" transform="translate(325.44 312.06) scale(1.01 1)">进水阀门</text><text class="cls-8" transform="translate(202 235.24) scale(1.01 1)">市政进水</text><polygon class="cls-9" points="542.63 379.23 542.63 407.3 542.63 413.32 534.44 409.85 544.21 432.99 553.98 409.85 545.8 413.32 545.8 407.3 545.8 379.23 542.63 379.23"/><polygon class="cls-9" points="210.69 303.9 239.48 303.9 245.5 303.9 242.02 312.08 265.17 302.31 242.02 292.54 245.5 300.73 239.48 300.73 210.69 300.73 210.69 303.9"/><polygon class="cls-9" points="503.55 803.06 532.33 803.06 538.35 803.06 534.88 811.25 558.02 801.48 534.88 791.71 538.35 799.89 532.33 799.89 503.55 799.89 503.55 803.06"/><path class="cls-5" d="M511,278.19l14.17.11A25.82,25.82,0,0,0,517,259.73,26.42,26.42,0,0,0,498.91,253v13.41A11.66,11.66,0,0,1,511,278.19Z"/><rect class="cls-5" x="495.57" y="251.76" width="3.62" height="15.57" transform="translate(994.76 519.09) rotate(-180)"/><rect class="cls-5" x="516.22" y="271.54" width="3.58" height="15.77" transform="translate(797.43 -238.58) rotate(90)"/><rect class="cls-6" x="376.86" y="251.94" width="3.32" height="14.82"/><rect class="cls-6" x="381.4" y="251.94" width="3.32" height="14.82"/><rect class="cls-6" x="345.27" y="251.94" width="3.32" height="14.82"/><rect class="cls-6" x="349.81" y="251.94" width="3.32" height="14.82"/><ellipse class="cls-10" cx="364.67" cy="219.97" rx="12.36" ry="12.2"/><path class="cls-6" d="M363,218.07h0a.85.85,0,0,0,0-1.21l-5.62-5.54a.88.88,0,0,0-1.22,0h0a.83.83,0,0,0,0,1.2l5.62,5.55A.88.88,0,0,0,363,218.07Z"/><path class="cls-6" d="M373.69,228.63h0a.86.86,0,0,0,0-1.21l-5.62-5.54a.86.86,0,0,0-1.22,0h0a.83.83,0,0,0,0,1.2l5.62,5.55A.88.88,0,0,0,373.69,228.63Z"/><rect class="cls-6" x="361.91" y="205" width="6.28" height="3.05"/><polygon class="cls-6" points="363.95 240.11 362.48 240.55 359.08 234.8 360.55 234.36 363.95 240.11"/><polygon class="cls-6" points="366.88 240.11 368.36 240.55 371.38 234.83 370.28 234.36 366.88 240.11"/><rect class="cls-6" x="364.52" y="234.07" width="1.6" height="6.24" transform="translate(730.63 474.39) rotate(180)"/><rect class="cls-6" x="376.33" y="215.92" width="3.52" height="7.44"/><rect class="cls-6" x="358.62" y="232.36" width="12.99" height="3.5" rx="0.72"/><rect class="cls-6" x="362.38" y="241.59" width="6.14" height="7.19" rx="0.72"/><rect class="cls-6" x="358.86" y="239.26" width="13.09" height="1.48" rx="0.44"/><rect class="cls-6" x="358.86" y="240.85" width="13.09" height="1.48" rx="0.42"/><rect class="cls-6" x="349.06" y="220.42" width="2.89" height="2.95"/><rect class="cls-6" x="349.06" y="216.41" width="2.89" height="2.95"/><ellipse class="cls-11" cx="364.93" cy="219.97" rx="3.18" ry="3.13"/><ellipse class="cls-12" cx="364.97" cy="219.97" rx="2.11" ry="2.09"/><path class="cls-6" d="M366.85,218.06h0a.88.88,0,0,0,1.22,0l5.62-5.55a.85.85,0,0,0,0-1.2h0a.88.88,0,0,0-1.22,0l-5.62,5.54A.85.85,0,0,0,366.85,218.06Z"/><path class="cls-6" d="M356.15,228.62h0a.88.88,0,0,0,1.22,0l5.62-5.55a.83.83,0,0,0,0-1.2h0a.86.86,0,0,0-1.22,0l-5.62,5.54A.85.85,0,0,0,356.15,228.62Z"/><rect class="cls-6" x="358.77" y="245.15" width="12.84" height="23.36" rx="4.98"/><rect class="cls-6" x="370.45" y="243.74" width="3.15" height="26.16" rx="1.54"/><rect class="cls-6" x="356.86" y="243.74" width="3.15" height="26.16" rx="1.54"/><ellipse class="cls-13" cx="364.97" cy="219.97" rx="1.27" ry="1.25"/><ellipse class="cls-14" cx="364.97" cy="219.97" rx="0.89" ry="0.88"/><ellipse class="cls-15" cx="424.2" cy="729.31" rx="9.53" ry="9.4"/><ellipse class="cls-16" cx="424.44" cy="729.78" rx="7.62" ry="7.29"/><rect class="cls-5" x="403.73" y="737.69" width="41.37" height="13.34" rx="6.51" transform="translate(1168.78 319.93) rotate(90)"/><path class="cls-5" d="M431.83,757.12,417.67,757a25.81,25.81,0,0,0,8.13,18.57,26.42,26.42,0,0,0,18.13,6.77V768.92a11.66,11.66,0,0,1-12.1-11.8Z"/><rect class="cls-5" x="443.64" y="767.98" width="3.62" height="15.57"/><rect class="cls-5" x="423.04" y="747.99" width="3.58" height="15.77" transform="translate(-331.06 1180.71) rotate(-90)"/><rect class="cls-5" x="322.16" y="592.7" width="742.81" height="12.16" transform="translate(1292.34 -94.78) rotate(90)"/><rect class="cls-17" x="202.9" y="836.9" width="83.41" height="152.94"/><rect class="cls-17" x="383.39" y="836.9" width="83.41" height="152.94"/><rect class="cls-18" x="558.31" y="836.9" width="83.41" height="152.94"/><rect class="cls-17" x="1067.15" y="892.67" width="169.4" height="76.72"/><rect class="cls-5" x="1416.89" y="145.5" width="252.73" height="12.16"/><rect class="cls-6" x="1589.29" y="97.03" width="0.55" height="1.89"/><rect class="cls-6" x="1584.41" y="98.47" width="0.55" height="1.89" transform="translate(283.86 1009.89) rotate(-38.58)"/><rect class="cls-6" x="1594.06" y="98.76" width="0.55" height="1.89" transform="translate(453.44 -1018.43) rotate(40.84)"/><rect class="cls-6" x="1596.94" y="103.6" width="0.55" height="1.89" transform="translate(1522.45 -1494.33) rotate(83.58)"/><rect class="cls-6" x="1581.26" y="103.56" width="0.55" height="1.89" transform="matrix(0.14, -0.99, 0.99, 0.14, 1261.11, 1656.76)"/><rect class="cls-6" x="1588.2" y="96.98" width="0.28" height="1.05" transform="translate(10.43 303.76) rotate(-10.96)"/><rect class="cls-6" x="1590.57" y="96.98" width="0.28" height="1.05" transform="translate(57.1 -335.99) rotate(12.28)"/><rect class="cls-6" x="1591.61" y="97.2" width="0.28" height="1.05" transform="translate(130.07 -540.01) rotate(20.06)"/><rect class="cls-6" x="1592.61" y="97.55" width="0.28" height="1.05" transform="translate(230.17 -732.49) rotate(27.84)"/><rect class="cls-6" x="1593.55" y="98.04" width="0.28" height="1.05" transform="translate(355.65 -909.81) rotate(35.62)"/><rect class="cls-6" x="1595.2" y="99.38" width="0.28" height="1.05" transform="translate(673.29 -1205.81) rotate(51.19)"/><rect class="cls-6" x="1595.87" y="100.2" width="0.28" height="1.05" transform="translate(859.62 -1318.82) rotate(58.97)"/><rect class="cls-6" x="1596.42" y="101.11" width="0.28" height="1.05" transform="translate(1059.8 -1405.42) rotate(66.75)"/><rect class="cls-6" x="1596.85" y="102.08" width="0.28" height="1.05" transform="translate(1270.06 -1463.92) rotate(74.54)"/><rect class="cls-6" x="1597.32" y="103.1" width="0.28" height="1.05" transform="translate(1486.62 -1493.34) rotate(82.32)"/><rect class="cls-6" x="1597.64" y="105.05" width="0.28" height="1.05" transform="translate(1706.17 -1492.02) rotate(90.1)"/><rect class="cls-6" x="1597.65" y="106.11" width="0.28" height="1.05" transform="translate(1922.56 -1461.43) rotate(97.88)"/><rect class="cls-6" x="1597.51" y="107.16" width="0.28" height="1.05" transform="translate(2132.74 -1401.54) rotate(105.67)"/><rect class="cls-6" x="1587.21" y="97.21" width="0.28" height="1.05" transform="translate(50.36 506.26) rotate(-18.41)"/><rect class="cls-6" x="1586.25" y="97.57" width="0.28" height="1.05" transform="translate(116.03 701.68) rotate(-25.86)"/><rect class="cls-6" x="1585.35" y="98.05" width="0.28" height="1.05" transform="translate(206.27 886.77) rotate(-33.3)"/><rect class="cls-6" x="1583.23" y="99.5" width="0.28" height="1.05" transform="translate(463.99 1224.33) rotate(-48.74)"/><rect class="cls-6" x="1582.52" y="100.49" width="0.28" height="1.05" transform="translate(642.29 1378.01) rotate(-57.28)"/><rect class="cls-6" x="1581.61" y="101.57" width="0.28" height="1.05" transform="translate(840.93 1503.36) rotate(-65.83)"/><rect class="cls-6" x="1581.22" y="102.72" width="0.28" height="1.05" transform="translate(1055.95 1598.34) rotate(-74.37)"/><rect class="cls-6" x="1580.98" y="105.13" width="0.28" height="1.05" transform="translate(1515.81 1688.96) rotate(-91.46)"/><rect class="cls-6" x="1580.96" y="106.34" width="0.28" height="1.05" transform="translate(1750.55 1682.48) rotate(-100)"/><rect class="cls-6" x="1581.28" y="107.51" width="0.28" height="1.05" transform="translate(1982.08 1641.67) rotate(-108.55)"/><rect class="cls-6" x="1587.19" y="117.17" width="4.88" height="3.22"/><rect class="cls-6" x="1587.19" y="139.18" width="4.88" height="8.33"/><rect class="cls-6" x="1587.19" y="124.57" width="4.88" height="2.36"/><rect class="cls-6" x="1586.68" y="138.16" width="5.89" height="1.11"/><polygon class="cls-6" points="1593.46 128.99 1585.82 128.99 1587.19 127.1 1592.07 127.1 1593.46 128.99"/><polygon class="cls-6" points="1591.69 120.03 1587.57 120.03 1585.51 122.16 1587.57 124.29 1591.69 124.29 1593.75 122.16 1591.69 120.03"/><polygon class="cls-6" points="1592.62 129.21 1586.66 129.21 1583.68 133.5 1586.66 137.79 1592.62 137.79 1595.6 133.5 1592.62 129.21"/><rect class="cls-6" x="1582.31" y="130.09" width="2.44" height="7.75"/><rect class="cls-6" x="1581.6" y="131.02" width="1.41" height="5.67"/><rect class="cls-6" x="1579.73" y="132.57" width="2.02" height="2.74"/><rect class="cls-6" x="1575.25" y="133.01" width="1" height="2.43" rx="0.37"/><rect class="cls-6" x="1578.53" y="130.88" width="0.9" height="6.77"/><rect class="cls-6" x="1576.53" y="130.88" width="2.4" height="1.5" rx="0.44"/><rect class="cls-6" x="1576.53" y="133.38" width="2.4" height="1.5" rx="0.44"/><rect class="cls-6" x="1576.53" y="136.16" width="2.4" height="1.5" rx="0.44"/><circle class="cls-19" cx="1589.29" cy="105.45" r="11.58"/><path class="cls-20" d="M1580.4,108.81a10.58,10.58,0,0,1-.49-3.21,9.46,9.46,0,1,1,18.44,3.18"/><polygon class="cls-6" points="1587.43 107.69 1586.45 106.03 1589.76 104.95 1594.84 102.16 1594.96 102.38 1589.95 105.23 1587.43 107.69"/><circle class="cls-21" cx="1589.23" cy="105.45" r="0.73"/><text class="cls-22" transform="translate(1586.1 112.79)">MPA</text><rect class="cls-5" x="1000.82" y="565.02" width="800.71" height="12.16" transform="translate(1972.28 -830.08) rotate(90)"/><rect class="cls-5" x="711.33" y="203.77" width="276.96" height="12.16"/><rect class="cls-5" x="1056.29" y="205.45" width="342.11" height="12.16"/><rect class="cls-6" x="1399.94" y="487.22" width="2.42" height="13.69" transform="translate(921.77 1900.3) rotate(-90.6)"/><rect class="cls-6" x="1399.91" y="484.78" width="2.42" height="13.69" transform="translate(924.18 1897.81) rotate(-90.6)"/><rect class="cls-6" x="1400.02" y="495.11" width="2.42" height="13.69" transform="matrix(-0.01, -1, 1, -0.01, 913.96, 1908.36)"/><rect class="cls-6" x="1399.99" y="492.67" width="2.42" height="13.69" transform="translate(916.37 1905.87) rotate(-90.6)"/><rect class="cls-5" x="693.56" y="381.32" width="293.69" height="12.16"/><rect class="cls-5" x="1053.76" y="381.32" width="343.34" height="12.16"/><rect class="cls-5" x="1052.61" y="983.07" width="338.46" height="12.16"/><rect class="cls-6" x="1434.12" y="320.58" width="2.58" height="7.99" transform="translate(1759.99 -1110.83) rotate(90)"/><rect class="cls-6" x="1434.25" y="299.44" width="2.33" height="7.99" transform="translate(1738.85 -1131.97) rotate(90)"/><rect class="cls-6" x="1386.8" y="304.48" width="29.86" height="19.62" transform="translate(1716.03 -1087.44) rotate(90)"/><polygon class="cls-6" points="1397.19 331.98 1391.49 329.66 1411.11 329.66 1405.54 331.98 1397.19 331.98"/><polygon class="cls-6" points="1397.19 296.6 1391.49 298.91 1411.11 298.91 1405.54 296.6 1397.19 296.6"/><rect class="cls-6" x="1399.69" y="327.17" width="2.62" height="16.15" transform="translate(1736.25 -1065.76) rotate(90)"/><rect class="cls-6" x="1399.69" y="330.75" width="2.62" height="16.15" transform="translate(1739.83 -1062.18) rotate(90)"/><rect class="cls-6" x="1399.69" y="281.7" width="2.62" height="16.15" transform="translate(1690.78 -1111.23) rotate(90)"/><rect class="cls-6" x="1399.69" y="285.28" width="2.62" height="16.15" transform="translate(1694.36 -1107.64) rotate(90)"/><rect class="cls-6" x="1406.86" y="311.96" width="12.45" height="4.79" rx="0.4" transform="translate(1727.44 -1098.74) rotate(90)"/><rect class="cls-6" x="1416.2" y="312.76" width="10.4" height="2.88" rx="0.4" transform="translate(1735.6 -1107.2) rotate(90)"/><rect class="cls-6" x="1419.71" y="312.74" width="10.4" height="3.1" rx="0.4" transform="translate(1739.2 -1110.61) rotate(90)"/><rect class="cls-6" x="1415.29" y="310.87" width="5.2" height="6.71" rx="0.4" transform="translate(1732.12 -1103.67) rotate(90)"/><circle class="cls-23" cx="1435.33" cy="314.36" r="9.71"/><circle class="cls-24" cx="1435.17" cy="314.19" r="6.92"/><circle class="cls-25" cx="1435.11" cy="314.34" r="8.96"/><rect class="cls-6" x="1436.07" y="301.5" width="2.39" height="1.47" transform="translate(1739.5 -1135.04) rotate(90)"/><rect class="cls-6" x="1432.34" y="301.5" width="2.39" height="1.47" transform="translate(1735.77 -1131.3) rotate(90)"/><rect class="cls-26" x="1430.45" y="312.57" width="9.33" height="3.31" transform="translate(1749.34 -1120.89) rotate(90)"/><polygon class="cls-27" points="1433.46 312.06 1433.46 309.56 1436.77 309.56 1436.77 314.49 1433.46 312.06"/><path class="cls-6" d="M1406.23,311.85l3-7.74a.43.43,0,0,1,.74-.11l5.18,6.5a.43.43,0,0,1-.27.69l-8.22,1.24A.43.43,0,0,1,1406.23,311.85Z"/><path class="cls-6" d="M1406.23,316.88l3,7.74a.44.44,0,0,0,.74.12l5.18-6.5a.42.42,0,0,0-.27-.69l-8.22-1.25A.43.43,0,0,0,1406.23,316.88Z"/><rect class="cls-6" x="1142.87" y="379.55" width="21.63" height="15.14"/><rect class="cls-28" x="1145.04" y="381.71" width="2.16" height="10.89"/><rect class="cls-28" x="1160.18" y="381.46" width="2.16" height="11.07"/><rect class="cls-28" x="1153.37" y="378.33" width="0.64" height="17.44" transform="translate(1550.64 1537.37) rotate(-127.58)"/><polygon class="cls-6" points="1143.4 376.16 1167.46 376.16 1155.43 371.56 1155.43 371.56 1155.43 373.86 1143.4 373.86 1143.4 376.16"/><rect class="cls-6" x="1142.87" y="981.75" width="21.63" height="15.14"/><rect class="cls-28" x="1145.04" y="983.91" width="2.16" height="10.89"/><rect class="cls-28" x="1160.18" y="983.66" width="2.16" height="11.07"/><rect class="cls-28" x="1153.37" y="980.53" width="0.64" height="17.44" transform="translate(1073.42 2506.86) rotate(-127.58)"/><polygon class="cls-6" points="1143.4 978.36 1167.46 978.36 1155.43 973.75 1155.43 973.75 1155.43 976.06 1143.4 976.06 1143.4 978.36"/><rect class="cls-6" x="1142.87" y="204.7" width="21.63" height="15.14"/><rect class="cls-28" x="1145.04" y="206.86" width="2.16" height="10.89"/><rect class="cls-28" x="1160.18" y="206.61" width="2.16" height="11.07"/><rect class="cls-28" x="1153.37" y="203.48" width="0.64" height="17.44" transform="translate(1689.2 1255.87) rotate(-127.58)"/><polygon class="cls-6" points="1143.4 201.31 1167.46 201.31 1155.43 196.7 1155.43 196.7 1155.43 199.01 1143.4 199.01 1143.4 201.31"/><text class="cls-29" transform="translate(923.85 194.95)">1#泵</text><text class="cls-29" transform="translate(923.85 375.28)">2#泵</text><text class="cls-29" transform="translate(923.85 975.03)">5#泵</text><text class="cls-29" transform="translate(1439.88 189.39)">出水阀门</text><text class="cls-29" transform="translate(1429.72 757.7) rotate(90)">压力控制器</text><text class="cls-30" transform="translate(1629.04 129.71)">供水入户</text><text class="cls-29" transform="translate(1559.4 187.92)">压力表</text><text class="cls-29" transform="translate(1454.09 319.74)">流量计</text><text class="cls-31" transform="translate(125.31 861.23)">水箱液位 </text><text class="cls-31" transform="translate(125.31 899.66)">出水压力 </text><text class="cls-31" transform="translate(125.31 937.91)">设定压力 </text><text class="cls-31" transform="translate(480.72 859.94)">余氯 </text><text class="cls-31" transform="translate(305.8 861.23)">PH </text><text class="cls-31" transform="translate(305.8 899.66)">湿度 </text><text class="cls-31" transform="translate(305.8 937.91)">噪音 </text><text class="cls-31" transform="translate(305.8 977.85)">浊度 </text><text class="cls-31" transform="translate(125.31 979.14)">瞬时流量 </text><text class="cls-31" transform="translate(479.72 899.66)">累计流量 </text><text class="cls-31" transform="translate(479.72 937.91)">累计电量 </text><text class="cls-31" transform="translate(480.72 977.85)">- - </text><rect class="cls-17" x="1614.58" y="847.13" width="191.12" height="116.78"/><text class="cls-32" transform="translate(1629.33 879.3)">状态说明 </text><text class="cls-32" transform="translate(1732.1 879.3)">运行状态 </text><text class="cls-32" transform="translate(1732.1 907.6)">停止状态 </text><text class="cls-32" transform="translate(1732.1 935.32)">故障状态 </text><path class="cls-33" d="M1710.24,866.33a7.36,7.36,0,1,0,7.36,7.36,7.35,7.35,0,0,0-7.36-7.36Zm0,13.56a6.21,6.21,0,1,1,6.2-6.2,6.21,6.21,0,0,1-6.2,6.2Zm2.94,3"/><path class="cls-33" d="M1706.41,872.75c-1.36.68-2.25,2.25-1.36,3.15,1.58,1.58,2.25-.67,3.38-1.35.69-.41,1.35-.9,1.35-1.35s-2-1.12-3.37-.45Zm5.15,2.25c-.71-.4-1.46-.72-1.85-.5s0,2.32,1.3,3.15,3.07.82,3.4-.41c.58-2.15-1.71-1.61-2.85-2.24Zm-.58-1c.39.23,2-1.19,2.08-2.69s-.83-3.08-2.06-2.75c-2.15.58-.54,2.29-.51,3.6,0,.81.1,1.62.49,1.84Zm0,0"/><path class="cls-34" d="M1710.24,894a7.36,7.36,0,1,0,7.36,7.36,7.35,7.35,0,0,0-7.36-7.36Zm0,13.56a6.21,6.21,0,1,1,6.2-6.2,6.21,6.21,0,0,1-6.2,6.2Zm2.94,3"/><path class="cls-34" d="M1706.41,900.47c-1.36.67-2.25,2.24-1.36,3.15,1.58,1.57,2.25-.68,3.38-1.36.69-.41,1.35-.9,1.35-1.35s-2-1.12-3.37-.44Zm5.15,2.24c-.71-.4-1.46-.72-1.85-.5s0,2.32,1.3,3.15,3.07.82,3.4-.41c.58-2.15-1.71-1.61-2.85-2.24Zm-.58-1c.39.22,2-1.2,2.08-2.7s-.83-3.08-2.06-2.75c-2.15.58-.54,2.29-.51,3.6,0,.81.1,1.62.49,1.85Zm0,0"/><path class="cls-35" d="M1710.24,921.75a7.36,7.36,0,1,0,7.36,7.36,7.35,7.35,0,0,0-7.36-7.36Zm0,13.57a6.21,6.21,0,1,1,6.2-6.21,6.22,6.22,0,0,1-6.2,6.21Zm2.94,3"/><path class="cls-35" d="M1706.41,928.18c-1.36.67-2.25,2.25-1.36,3.15,1.58,1.57,2.25-.68,3.38-1.36.69-.41,1.35-.9,1.35-1.35s-2-1.12-3.37-.44Zm5.15,2.24c-.71-.4-1.46-.72-1.85-.5s0,2.32,1.3,3.15,3.07.82,3.4-.41c.58-2.15-1.71-1.61-2.85-2.24Zm-.58-1c.39.22,2-1.2,2.08-2.7s-.83-3.08-2.06-2.75c-2.15.58-.54,2.29-.51,3.6,0,.81.1,1.62.49,1.85Zm0,0"/><rect class="cls-17" x="1067.15" y="289.39" width="169.4" height="76.72"/><rect class="cls-36" x="1075.5" y="334.38" width="72.18" height="26.23"/><rect class="cls-37" x="1155.05" y="303.06" width="72.18" height="26.23"/><rect class="cls-38" x="1155.05" y="905.46" width="72.18" height="26.23"/><rect class="cls-39" x="1075.5" y="302.87" width="72.18" height="26.23"/><rect class="cls-40" x="1075.5" y="937.66" width="72.18" height="26.23"/><rect class="cls-41" x="1075.5" y="906.16" width="72.18" height="26.23"/><rect class="cls-17" x="1067.15" y="112.75" width="169.4" height="76.72"/><rect class="cls-42" x="1075.5" y="157.74" width="72.18" height="26.23"/><rect class="cls-43" x="1155.05" y="126.42" width="72.18" height="26.23"/><rect class="cls-44" x="1552.42" y="197.69" width="72.18" height="26.23"/><rect class="cls-45" x="1446.46" y="331.15" width="72.18" height="26.23"/><rect class="cls-46" x="1075.5" y="126.24" width="72.18" height="26.23"/><polygon class="cls-9" points="800.37 233.61 825.21 233.61 831.23 233.61 827.76 241.8 850.9 232.03 827.76 222.26 831.23 230.44 825.21 230.44 800.37 230.44 800.37 233.61"/><polygon class="cls-9" points="1316.38 233.61 1340.34 233.61 1346.36 233.61 1342.89 241.8 1366.03 232.03 1342.89 222.26 1346.36 230.44 1340.34 230.44 1316.38 230.44 1316.38 233.61"/><polygon class="cls-9" points="1642.43 183.1 1666.39 183.1 1672.41 183.1 1668.93 191.28 1692.08 181.51 1668.93 171.74 1672.41 179.93 1666.39 179.93 1642.43 179.93 1642.43 183.1"/><polygon class="cls-9" points="800.37 410.45 825.21 410.45 831.23 410.45 827.76 418.63 850.9 408.86 827.76 399.09 831.23 407.28 825.21 407.28 800.37 407.28 800.37 410.45"/><polygon class="cls-9" points="1316.38 410.45 1340.34 410.45 1346.36 410.45 1342.89 418.63 1366.03 408.86 1342.89 399.09 1346.36 407.28 1340.34 407.28 1316.38 407.28 1316.38 410.45"/><polygon class="cls-9" points="800.37 1021.83 825.21 1021.83 831.23 1021.83 827.76 1030.02 850.9 1020.25 827.76 1010.48 831.23 1018.66 825.21 1018.66 800.37 1018.66 800.37 1021.83"/><polygon class="cls-9" points="1316.38 1021.83 1340.34 1021.83 1346.36 1021.83 1342.89 1030.02 1366.03 1020.25 1342.89 1010.48 1346.36 1018.66 1340.34 1018.66 1316.38 1018.66 1316.38 1021.83"/><polygon class="cls-9" points="1426.51 518.61 1426.51 494.65 1426.51 488.63 1434.69 492.11 1424.92 468.96 1415.15 492.11 1423.34 488.63 1423.34 494.65 1423.34 518.61 1426.51 518.61"/><path class="cls-5" d="M710.45,216.31q0-6.45.1-12.91a23.28,23.28,0,0,0-23.39,23.94h12.38a11,11,0,0,1,2.42-7.11A11.31,11.31,0,0,1,710.45,216.31Z"/><rect class="cls-5" x="691.58" y="221.54" width="3.3" height="14.38" transform="translate(921.96 -464.5) rotate(90)"/><rect class="cls-5" x="709.94" y="202.74" width="3.3" height="14.38"/><path class="cls-5" d="M1418.22,158.32q.06-6.45.11-12.91a23.3,23.3,0,0,0-23.4,23.94h12.39a11,11,0,0,1,2.41-7.11A11.33,11.33,0,0,1,1418.22,158.32Z"/><rect class="cls-5" x="1399.35" y="163.55" width="3.3" height="14.38" transform="translate(1571.75 -1230.26) rotate(90)"/><rect class="cls-5" x="1417.71" y="144.75" width="3.3" height="14.38"/><rect class="cls-5" x="714.09" y="983.07" width="271.42" height="12.16"/><path class="cls-5" d="M700.26,972.26l-12.91-.11a23.3,23.3,0,0,0,23.93,23.4V983.16a11,11,0,0,1-7.1-2.41A11.32,11.32,0,0,1,700.26,972.26Z"/><rect class="cls-5" x="711.03" y="982.29" width="3.3" height="14.38"/><rect class="cls-5" x="692.22" y="963.93" width="3.3" height="14.38" transform="translate(-277.24 1664.99) rotate(-90)"/><path class="cls-5" d="M1384.29,983.32q0,6.45-.1,12.9a23.3,23.3,0,0,0,23.39-23.93H1395.2a11,11,0,0,1-2.42,7.11A11.32,11.32,0,0,1,1384.29,983.32Z"/><rect class="cls-5" x="1399.86" y="963.71" width="3.3" height="14.38" transform="translate(430.61 2372.4) rotate(-90)"/><rect class="cls-5" x="1381.5" y="982.51" width="3.3" height="14.38" transform="translate(2766.3 1979.4) rotate(-180)"/><rect class="cls-47" x="111.74" y="836.78" width="529.98" height="153.55"/><rect class="cls-47" x="111.73" y="837.4" width="529.98" height="38.16"/><rect class="cls-47" x="111.73" y="875.83" width="529.98" height="38.16"/><rect class="cls-47" x="111.73" y="914.08" width="529.98" height="38.16"/><rect class="cls-47" x="111.73" y="952.18" width="529.98" height="38.16"/><rect class="cls-6" x="894.35" y="203" width="3.02" height="13.69"/><rect class="cls-6" x="898.49" y="203" width="3.02" height="13.69"/><rect class="cls-6" x="865.56" y="203" width="3.02" height="13.69"/><rect class="cls-6" x="869.7" y="203" width="3.02" height="13.69"/><circle class="cls-10" cx="883.24" cy="173.47" r="11.27"/><rect class="cls-6" x="877.81" y="164.19" width="1.59" height="8.82" rx="0.77" transform="translate(1619.08 -333.45) rotate(135)"/><rect class="cls-6" x="887.56" y="173.94" width="1.59" height="8.82" rx="0.77" transform="translate(1642.62 -323.71) rotate(135)"/><rect class="cls-6" x="880.72" y="159.65" width="5.72" height="2.82"/><polygon class="cls-6" points="882.59 192.07 881.25 192.48 878.15 187.17 879.49 186.76 882.59 192.07"/><polygon class="cls-6" points="885.26 192.07 886.6 192.48 889.36 187.2 888.36 186.76 885.26 192.07"/><rect class="cls-6" x="883.1" y="186.5" width="1.45" height="5.76" transform="translate(1767.66 378.76) rotate(180)"/><rect class="cls-6" x="893.87" y="169.73" width="3.2" height="6.87"/><rect class="cls-6" x="877.73" y="184.91" width="11.84" height="3.23" rx="0.72"/><rect class="cls-6" x="881.16" y="193.44" width="5.6" height="6.64" rx="0.72"/><rect class="cls-6" x="877.95" y="191.29" width="11.93" height="1.37" rx="0.44"/><rect class="cls-6" x="877.95" y="192.76" width="11.93" height="1.37" rx="0.42"/><rect class="cls-6" x="869.02" y="173.89" width="2.63" height="2.72"/><rect class="cls-6" x="869.02" y="170.18" width="2.63" height="2.72"/><circle class="cls-11" cx="883.48" cy="173.48" r="2.89"/><circle class="cls-12" cx="883.52" cy="173.47" r="1.93"/><rect class="cls-6" x="887.56" y="164.19" width="1.59" height="8.82" rx="0.77" transform="translate(1397.3 915.97) rotate(-135)"/><rect class="cls-6" x="877.81" y="173.94" width="1.59" height="8.82" rx="0.77" transform="translate(1373.76 925.72) rotate(-135)"/><rect class="cls-6" x="877.87" y="196.73" width="11.7" height="21.58" rx="4.98"/><rect class="cls-6" x="888.51" y="195.42" width="2.87" height="24.16" rx="1.4"/><rect class="cls-6" x="876.12" y="195.42" width="2.87" height="24.16" rx="1.4"/><circle class="cls-13" cx="883.52" cy="173.47" r="1.15"/><circle class="cls-14" cx="883.52" cy="173.47" r="0.82"/><rect class="cls-6" x="1486.5" y="144.15" width="3.02" height="13.69"/><rect class="cls-6" x="1490.64" y="144.15" width="3.02" height="13.69"/><rect class="cls-6" x="1457.71" y="144.15" width="3.02" height="13.69"/><rect class="cls-6" x="1461.85" y="144.15" width="3.02" height="13.69"/><circle class="cls-10" cx="1475.39" cy="114.62" r="11.27"/><rect class="cls-6" x="1469.95" y="105.33" width="1.59" height="8.82" rx="0.77" transform="translate(2588.32 -852.64) rotate(135)"/><rect class="cls-6" x="1479.7" y="115.08" width="1.59" height="8.82" rx="0.77" transform="translate(2611.86 -842.88) rotate(135)"/><rect class="cls-6" x="1472.87" y="100.79" width="5.72" height="2.82"/><polygon class="cls-6" points="1474.73 133.22 1473.39 133.63 1470.3 128.31 1471.64 127.91 1474.73 133.22"/><polygon class="cls-6" points="1477.41 133.22 1478.75 133.63 1481.5 128.35 1480.51 127.91 1477.41 133.22"/><rect class="cls-6" x="1475.25" y="127.64" width="1.45" height="5.76" transform="translate(2951.96 261.05) rotate(180)"/><rect class="cls-6" x="1486.02" y="110.88" width="3.2" height="6.87"/><rect class="cls-6" x="1469.88" y="126.06" width="11.84" height="3.23" rx="0.72"/><rect class="cls-6" x="1473.3" y="134.59" width="5.6" height="6.64" rx="0.72"/><rect class="cls-6" x="1470.1" y="132.43" width="11.93" height="1.37" rx="0.44"/><rect class="cls-6" x="1470.1" y="133.91" width="11.93" height="1.37" rx="0.42"/><rect class="cls-6" x="1461.16" y="115.03" width="2.63" height="2.72"/><rect class="cls-6" x="1461.16" y="111.33" width="2.63" height="2.72"/><circle class="cls-11" cx="1475.63" cy="114.62" r="2.89"/><circle class="cls-12" cx="1475.66" cy="114.62" r="1.93"/><rect class="cls-6" x="1479.7" y="105.33" width="1.59" height="8.82" rx="0.77" transform="translate(2449.77 1234.21) rotate(-135)"/><rect class="cls-6" x="1469.95" y="115.08" width="1.59" height="8.82" rx="0.77" transform="translate(2426.23 1243.96) rotate(-135)"/><rect class="cls-6" x="1470.01" y="137.87" width="11.7" height="21.58" rx="4.98"/><rect class="cls-6" x="1480.65" y="136.57" width="2.87" height="24.16" rx="1.4"/><rect class="cls-6" x="1468.27" y="136.57" width="2.87" height="24.16" rx="1.4"/><circle class="cls-13" cx="1475.66" cy="114.62" r="1.15"/><circle class="cls-14" cx="1475.66" cy="114.62" r="0.82"/><rect class="cls-6" x="1287.37" y="203" width="3.02" height="13.69"/><rect class="cls-6" x="1291.51" y="203" width="3.02" height="13.69"/><rect class="cls-6" x="1258.58" y="203" width="3.02" height="13.69"/><rect class="cls-6" x="1262.72" y="203" width="3.02" height="13.69"/><circle class="cls-10" cx="1276.26" cy="173.47" r="11.27"/><rect class="cls-6" x="1270.83" y="164.19" width="1.59" height="8.82" rx="0.77" transform="translate(2290.01 -611.36) rotate(135)"/><rect class="cls-6" x="1280.58" y="173.94" width="1.59" height="8.82" rx="0.77" transform="translate(2313.54 -601.62) rotate(135)"/><rect class="cls-6" x="1273.74" y="159.65" width="5.72" height="2.82"/><polygon class="cls-6" points="1275.61 192.07 1274.27 192.48 1271.17 187.17 1272.51 186.76 1275.61 192.07"/><polygon class="cls-6" points="1278.28 192.07 1279.62 192.48 1282.38 187.2 1281.38 186.76 1278.28 192.07"/><rect class="cls-6" x="1276.12" y="186.5" width="1.45" height="5.76" transform="translate(2553.7 378.76) rotate(180)"/><rect class="cls-6" x="1286.89" y="169.73" width="3.2" height="6.87"/><rect class="cls-6" x="1270.75" y="184.91" width="11.84" height="3.23" rx="0.72"/><rect class="cls-6" x="1274.18" y="193.44" width="5.6" height="6.64" rx="0.72"/><rect class="cls-6" x="1270.97" y="191.29" width="11.93" height="1.37" rx="0.44"/><rect class="cls-6" x="1270.97" y="192.76" width="11.93" height="1.37" rx="0.42"/><rect class="cls-6" x="1262.04" y="173.89" width="2.63" height="2.72"/><rect class="cls-6" x="1262.04" y="170.18" width="2.63" height="2.72"/><circle class="cls-11" cx="1276.5" cy="173.48" r="2.89"/><circle class="cls-12" cx="1276.54" cy="173.47" r="1.93"/><rect class="cls-6" x="1280.58" y="164.19" width="1.59" height="8.82" rx="0.77" transform="translate(2068.22 1193.88) rotate(-135)"/><rect class="cls-6" x="1270.83" y="173.94" width="1.59" height="8.82" rx="0.77" transform="translate(2044.69 1203.62) rotate(-135)"/><rect class="cls-6" x="1270.89" y="196.73" width="11.7" height="21.58" rx="4.98"/><rect class="cls-6" x="1281.53" y="195.42" width="2.87" height="24.16" rx="1.4"/><rect class="cls-6" x="1269.14" y="195.42" width="2.87" height="24.16" rx="1.4"/><circle class="cls-13" cx="1276.54" cy="173.47" r="1.15"/><circle class="cls-14" cx="1276.54" cy="173.47" r="0.82"/><rect class="cls-6" x="894.35" y="380.36" width="3.02" height="13.69"/><rect class="cls-6" x="898.49" y="380.36" width="3.02" height="13.69"/><rect class="cls-6" x="865.56" y="380.36" width="3.02" height="13.69"/><rect class="cls-6" x="869.7" y="380.36" width="3.02" height="13.69"/><circle class="cls-10" cx="883.24" cy="350.83" r="11.27"/><rect class="cls-6" x="877.81" y="341.54" width="1.59" height="8.82" rx="0.77" transform="translate(1744.49 -30.69) rotate(135)"/><rect class="cls-6" x="887.56" y="351.29" width="1.59" height="8.82" rx="0.77" transform="translate(1768.03 -20.94) rotate(135)"/><rect class="cls-6" x="880.72" y="337" width="5.72" height="2.82"/><polygon class="cls-6" points="882.59 369.43 881.25 369.83 878.15 364.52 879.49 364.12 882.59 369.43"/><polygon class="cls-6" points="885.26 369.43 886.6 369.83 889.36 364.56 888.36 364.12 885.26 369.43"/><rect class="cls-6" x="883.1" y="363.85" width="1.45" height="5.76" transform="translate(1767.66 733.47) rotate(180)"/><rect class="cls-6" x="893.87" y="347.09" width="3.2" height="6.87"/><rect class="cls-6" x="877.73" y="362.27" width="11.84" height="3.23" rx="0.72"/><rect class="cls-6" x="881.16" y="370.8" width="5.6" height="6.64" rx="0.72"/><rect class="cls-6" x="877.95" y="368.64" width="11.93" height="1.37" rx="0.44"/><rect class="cls-6" x="877.95" y="370.12" width="11.93" height="1.37" rx="0.42"/><rect class="cls-6" x="869.02" y="351.24" width="2.63" height="2.72"/><rect class="cls-6" x="869.02" y="347.54" width="2.63" height="2.72"/><circle class="cls-11" cx="883.48" cy="350.83" r="2.89"/><circle class="cls-12" cx="883.52" cy="350.83" r="1.93"/><rect class="cls-6" x="887.56" y="341.54" width="1.59" height="8.82" rx="0.77" transform="translate(1271.88 1218.73) rotate(-135)"/><rect class="cls-6" x="877.81" y="351.29" width="1.59" height="8.82" rx="0.77" transform="translate(1248.35 1228.48) rotate(-135)"/><rect class="cls-6" x="877.87" y="374.08" width="11.7" height="21.58" rx="4.98"/><rect class="cls-6" x="888.51" y="372.78" width="2.87" height="24.16" rx="1.4"/><rect class="cls-6" x="876.12" y="372.78" width="2.87" height="24.16" rx="1.4"/><circle class="cls-13" cx="883.52" cy="350.83" r="1.15"/><circle class="cls-14" cx="883.52" cy="350.83" r="0.82"/><rect class="cls-6" x="1287.37" y="380.36" width="3.02" height="13.69"/><rect class="cls-6" x="1291.51" y="380.36" width="3.02" height="13.69"/><rect class="cls-6" x="1258.58" y="380.36" width="3.02" height="13.69"/><rect class="cls-6" x="1262.72" y="380.36" width="3.02" height="13.69"/><circle class="cls-10" cx="1276.26" cy="350.83" r="11.27"/><rect class="cls-6" x="1270.83" y="341.54" width="1.59" height="8.82" rx="0.77" transform="translate(2415.42 -308.59) rotate(135)"/><rect class="cls-6" x="1280.58" y="351.29" width="1.59" height="8.82" rx="0.77" transform="translate(2438.95 -298.85) rotate(135)"/><rect class="cls-6" x="1273.74" y="337" width="5.72" height="2.82"/><polygon class="cls-6" points="1275.61 369.43 1274.27 369.83 1271.17 364.52 1272.51 364.12 1275.61 369.43"/><polygon class="cls-6" points="1278.28 369.43 1279.62 369.83 1282.38 364.56 1281.38 364.12 1278.28 369.43"/><rect class="cls-6" x="1276.12" y="363.85" width="1.45" height="5.76" transform="translate(2553.7 733.47) rotate(180)"/><rect class="cls-6" x="1286.89" y="347.09" width="3.2" height="6.87"/><rect class="cls-6" x="1270.75" y="362.27" width="11.84" height="3.23" rx="0.72"/><rect class="cls-6" x="1274.18" y="370.8" width="5.6" height="6.64" rx="0.72"/><rect class="cls-6" x="1270.97" y="368.64" width="11.93" height="1.37" rx="0.44"/><rect class="cls-6" x="1270.97" y="370.12" width="11.93" height="1.37" rx="0.42"/><rect class="cls-6" x="1262.04" y="351.24" width="2.63" height="2.72"/><rect class="cls-6" x="1262.04" y="347.54" width="2.63" height="2.72"/><circle class="cls-11" cx="1276.5" cy="350.83" r="2.89"/><circle class="cls-12" cx="1276.54" cy="350.83" r="1.93"/><rect class="cls-6" x="1280.58" y="341.54" width="1.59" height="8.82" rx="0.77" transform="translate(1942.81 1496.64) rotate(-135)"/><rect class="cls-6" x="1270.83" y="351.29" width="1.59" height="8.82" rx="0.77" transform="translate(1919.28 1506.39) rotate(-135)"/><rect class="cls-6" x="1270.89" y="374.08" width="11.7" height="21.58" rx="4.98"/><rect class="cls-6" x="1281.53" y="372.78" width="2.87" height="24.16" rx="1.4"/><rect class="cls-6" x="1269.14" y="372.78" width="2.87" height="24.16" rx="1.4"/><circle class="cls-13" cx="1276.54" cy="350.83" r="1.15"/><circle class="cls-14" cx="1276.54" cy="350.83" r="0.82"/><rect class="cls-5" x="693.56" y="809.43" width="293.89" height="12.16"/><rect class="cls-5" x="1055.22" y="809.43" width="341.89" height="12.16"/><rect class="cls-6" x="1142.87" y="807.66" width="21.63" height="15.14"/><rect class="cls-28" x="1145.04" y="809.82" width="2.16" height="10.89"/><rect class="cls-28" x="1160.18" y="809.57" width="2.16" height="11.07"/><rect class="cls-28" x="1153.37" y="806.43" width="0.64" height="17.44" transform="translate(1211.38 2226.59) rotate(-127.58)"/><polygon class="cls-6" points="1143.4 804.27 1167.46 804.27 1155.43 799.66 1155.43 799.66 1155.43 801.97 1143.4 801.97 1143.4 804.27"/><text class="cls-29" transform="translate(923.85 803.39)">4#泵</text><rect class="cls-17" x="1067.15" y="717.49" width="169.4" height="76.72"/><rect class="cls-48" x="1075.5" y="762.48" width="72.18" height="26.23"/><rect class="cls-49" x="1155.05" y="731.16" width="72.18" height="26.23"/><rect class="cls-50" x="1075.5" y="730.98" width="72.18" height="26.23"/><polygon class="cls-9" points="800.37 838.55 825.21 838.55 831.23 838.55 827.76 846.74 850.9 836.97 827.76 827.2 831.23 835.38 825.21 835.38 800.37 835.38 800.37 838.55"/><polygon class="cls-9" points="1316.38 836.82 1340.34 836.82 1346.36 836.82 1342.89 845 1366.03 835.23 1342.89 825.46 1346.36 833.64 1340.34 833.64 1316.38 833.64 1316.38 836.82"/><rect class="cls-6" x="894.35" y="808.46" width="3.02" height="13.69"/><rect class="cls-6" x="898.49" y="808.46" width="3.02" height="13.69"/><rect class="cls-6" x="865.56" y="808.46" width="3.02" height="13.69"/><rect class="cls-6" x="869.7" y="808.46" width="3.02" height="13.69"/><circle class="cls-10" cx="883.24" cy="778.93" r="11.27"/><rect class="cls-6" x="877.81" y="769.65" width="1.59" height="8.82" rx="0.77" transform="translate(2047.2 700.13) rotate(135)"/><rect class="cls-6" x="887.56" y="779.4" width="1.59" height="8.82" rx="0.77" transform="translate(2070.74 709.88) rotate(135)"/><rect class="cls-6" x="880.72" y="765.11" width="5.72" height="2.82"/><polygon class="cls-6" points="882.59 797.53 881.25 797.94 878.15 792.63 879.49 792.22 882.59 797.53"/><polygon class="cls-6" points="885.26 797.53 886.6 797.94 889.36 792.66 888.36 792.22 885.26 797.53"/><rect class="cls-6" x="883.1" y="791.96" width="1.45" height="5.76" transform="translate(1767.66 1589.68) rotate(180)"/><rect class="cls-6" x="893.87" y="775.2" width="3.2" height="6.87"/><rect class="cls-6" x="877.73" y="790.37" width="11.84" height="3.23" rx="0.72"/><rect class="cls-6" x="881.16" y="798.9" width="5.6" height="6.64" rx="0.72"/><rect class="cls-6" x="877.95" y="796.75" width="11.93" height="1.37" rx="0.44"/><rect class="cls-6" x="877.95" y="798.22" width="11.93" height="1.37" rx="0.42"/><rect class="cls-6" x="869.02" y="779.35" width="2.63" height="2.72"/><rect class="cls-6" x="869.02" y="775.64" width="2.63" height="2.72"/><circle class="cls-11" cx="883.48" cy="778.94" r="2.89"/><circle class="cls-12" cx="883.52" cy="778.93" r="1.93"/><rect class="cls-6" x="887.56" y="769.65" width="1.59" height="8.82" rx="0.77" transform="translate(969.17 1949.55) rotate(-135)"/><rect class="cls-6" x="877.81" y="779.4" width="1.59" height="8.82" rx="0.77" transform="translate(945.63 1959.3) rotate(-135)"/><rect class="cls-6" x="877.87" y="802.19" width="11.7" height="21.58" rx="4.98"/><rect class="cls-6" x="888.51" y="800.89" width="2.87" height="24.16" rx="1.4"/><rect class="cls-6" x="876.12" y="800.89" width="2.87" height="24.16" rx="1.4"/><circle class="cls-13" cx="883.52" cy="778.93" r="1.15"/><circle class="cls-14" cx="883.52" cy="778.93" r="0.82"/><rect class="cls-6" x="1287.37" y="808.46" width="3.02" height="13.69"/><rect class="cls-6" x="1291.51" y="808.46" width="3.02" height="13.69"/><rect class="cls-6" x="1258.58" y="808.46" width="3.02" height="13.69"/><rect class="cls-6" x="1262.72" y="808.46" width="3.02" height="13.69"/><circle class="cls-10" cx="1276.26" cy="778.93" r="11.27"/><rect class="cls-6" x="1270.83" y="769.65" width="1.59" height="8.82" rx="0.77" transform="translate(2718.13 422.23) rotate(135)"/><rect class="cls-6" x="1280.58" y="779.4" width="1.59" height="8.82" rx="0.77" transform="translate(2741.67 431.97) rotate(135)"/><rect class="cls-6" x="1273.74" y="765.11" width="5.72" height="2.82"/><polygon class="cls-6" points="1275.61 797.53 1274.27 797.94 1271.17 792.63 1272.51 792.22 1275.61 797.53"/><polygon class="cls-6" points="1278.28 797.53 1279.62 797.94 1282.38 792.66 1281.38 792.22 1278.28 797.53"/><rect class="cls-6" x="1276.12" y="791.96" width="1.45" height="5.76" transform="translate(2553.7 1589.68) rotate(180)"/><rect class="cls-6" x="1286.89" y="775.2" width="3.2" height="6.87"/><rect class="cls-6" x="1270.75" y="790.37" width="11.84" height="3.23" rx="0.72"/><rect class="cls-6" x="1274.18" y="798.9" width="5.6" height="6.64" rx="0.72"/><rect class="cls-6" x="1270.97" y="796.75" width="11.93" height="1.37" rx="0.44"/><rect class="cls-6" x="1270.97" y="798.22" width="11.93" height="1.37" rx="0.42"/><rect class="cls-6" x="1262.04" y="779.35" width="2.63" height="2.72"/><rect class="cls-6" x="1262.04" y="775.64" width="2.63" height="2.72"/><circle class="cls-11" cx="1276.5" cy="778.94" r="2.89"/><circle class="cls-12" cx="1276.54" cy="778.93" r="1.93"/><rect class="cls-6" x="1280.58" y="769.65" width="1.59" height="8.82" rx="0.77" transform="translate(1640.09 2227.46) rotate(-135)"/><rect class="cls-6" x="1270.83" y="779.4" width="1.59" height="8.82" rx="0.77" transform="translate(1616.55 2237.21) rotate(-135)"/><rect class="cls-6" x="1270.89" y="802.19" width="11.7" height="21.58" rx="4.98"/><rect class="cls-6" x="1281.53" y="800.89" width="2.87" height="24.16" rx="1.4"/><rect class="cls-6" x="1269.14" y="800.89" width="2.87" height="24.16" rx="1.4"/><circle class="cls-13" cx="1276.54" cy="778.93" r="1.15"/><circle class="cls-14" cx="1276.54" cy="778.93" r="0.82"/><rect class="cls-5" x="693.56" y="626.8" width="293.69" height="12.16"/><rect class="cls-5" x="1055.22" y="626.8" width="341.89" height="12.16"/><rect class="cls-6" x="1142.87" y="625.03" width="21.63" height="15.14"/><rect class="cls-28" x="1145.04" y="627.19" width="2.16" height="10.89"/><rect class="cls-28" x="1160.18" y="626.94" width="2.16" height="11.07"/><rect class="cls-28" x="1153.37" y="623.81" width="0.64" height="17.44" transform="translate(1356.11 1932.57) rotate(-127.58)"/><polygon class="cls-6" points="1143.4 621.64 1167.46 621.64 1155.43 617.03 1155.43 617.03 1155.43 619.34 1143.4 619.34 1143.4 621.64"/><text class="cls-29" transform="translate(923.85 620.76)">3#泵</text><rect class="cls-17" x="1067.15" y="534.86" width="169.4" height="76.72"/><rect class="cls-51" x="1075.5" y="579.85" width="72.18" height="26.23"/><rect class="cls-52" x="1155.05" y="548.54" width="72.18" height="26.23"/><rect class="cls-53" x="1075.5" y="548.35" width="72.18" height="26.23"/><polygon class="cls-9" points="800.37 655.93 825.21 655.93 831.23 655.93 827.76 664.11 850.9 654.34 827.76 644.57 831.23 652.75 825.21 652.75 800.37 652.75 800.37 655.93"/><polygon class="cls-9" points="1316.38 654.19 1340.34 654.19 1346.36 654.19 1342.89 662.38 1366.03 652.61 1342.89 642.83 1346.36 651.02 1340.34 651.02 1316.38 651.02 1316.38 654.19"/><rect class="cls-6" x="894.35" y="625.83" width="3.02" height="13.69"/><rect class="cls-6" x="898.49" y="625.83" width="3.02" height="13.69"/><rect class="cls-6" x="865.56" y="625.83" width="3.02" height="13.69"/><rect class="cls-6" x="869.7" y="625.83" width="3.02" height="13.69"/><circle class="cls-10" cx="883.24" cy="596.3" r="11.27"/><rect class="cls-6" x="877.81" y="587.02" width="1.59" height="8.82" rx="0.77" transform="translate(1918.07 388.37) rotate(135)"/><rect class="cls-6" x="887.56" y="596.77" width="1.59" height="8.82" rx="0.77" transform="translate(1941.61 398.12) rotate(135)"/><rect class="cls-6" x="880.72" y="582.48" width="5.72" height="2.82"/><polygon class="cls-6" points="882.59 614.91 881.25 615.31 878.15 610 879.49 609.6 882.59 614.91"/><polygon class="cls-6" points="885.26 614.91 886.6 615.31 889.36 610.03 888.36 609.6 885.26 614.91"/><rect class="cls-6" x="883.1" y="609.33" width="1.45" height="5.76" transform="translate(1767.66 1224.43) rotate(180)"/><rect class="cls-6" x="893.87" y="592.57" width="3.2" height="6.87"/><rect class="cls-6" x="877.73" y="607.75" width="11.84" height="3.23" rx="0.72"/><rect class="cls-6" x="881.16" y="616.28" width="5.6" height="6.64" rx="0.72"/><rect class="cls-6" x="877.95" y="614.12" width="11.93" height="1.37" rx="0.44"/><rect class="cls-6" x="877.95" y="615.59" width="11.93" height="1.37" rx="0.42"/><rect class="cls-6" x="869.02" y="596.72" width="2.63" height="2.72"/><rect class="cls-6" x="869.02" y="593.02" width="2.63" height="2.72"/><circle class="cls-11" cx="883.48" cy="596.31" r="2.89"/><circle class="cls-12" cx="883.52" cy="596.3" r="1.93"/><rect class="cls-6" x="887.56" y="587.02" width="1.59" height="8.82" rx="0.77" transform="translate(1098.31 1637.79) rotate(-135)"/><rect class="cls-6" x="877.81" y="596.77" width="1.59" height="8.82" rx="0.77" transform="translate(1074.76 1647.54) rotate(-135)"/><rect class="cls-6" x="877.87" y="619.56" width="11.7" height="21.58" rx="4.98"/><rect class="cls-6" x="888.51" y="618.26" width="2.87" height="24.16" rx="1.4"/><rect class="cls-6" x="876.12" y="618.26" width="2.87" height="24.16" rx="1.4"/><circle class="cls-13" cx="883.52" cy="596.3" r="1.15"/><circle class="cls-14" cx="883.52" cy="596.3" r="0.82"/><rect class="cls-6" x="1287.37" y="625.83" width="3.02" height="13.69"/><rect class="cls-6" x="1291.51" y="625.83" width="3.02" height="13.69"/><rect class="cls-6" x="1258.58" y="625.83" width="3.02" height="13.69"/><rect class="cls-6" x="1262.72" y="625.83" width="3.02" height="13.69"/><circle class="cls-10" cx="1276.26" cy="596.3" r="11.27"/><rect class="cls-6" x="1270.83" y="587.02" width="1.59" height="8.82" rx="0.77" transform="translate(2589 110.47) rotate(135)"/><rect class="cls-6" x="1280.58" y="596.77" width="1.59" height="8.82" rx="0.77" transform="translate(2612.53 120.2) rotate(135)"/><rect class="cls-6" x="1273.74" y="582.48" width="5.72" height="2.82"/><polygon class="cls-6" points="1275.61 614.91 1274.27 615.31 1271.17 610 1272.51 609.6 1275.61 614.91"/><polygon class="cls-6" points="1278.28 614.91 1279.62 615.31 1282.38 610.03 1281.38 609.6 1278.28 614.91"/><rect class="cls-6" x="1276.12" y="609.33" width="1.45" height="5.76" transform="translate(2553.7 1224.43) rotate(180)"/><rect class="cls-6" x="1286.89" y="592.57" width="3.2" height="6.87"/><rect class="cls-6" x="1270.75" y="607.75" width="11.84" height="3.23" rx="0.72"/><rect class="cls-6" x="1274.18" y="616.28" width="5.6" height="6.64" rx="0.72"/><rect class="cls-6" x="1270.97" y="614.12" width="11.93" height="1.37" rx="0.44"/><rect class="cls-6" x="1270.97" y="615.59" width="11.93" height="1.37" rx="0.42"/><rect class="cls-6" x="1262.04" y="596.72" width="2.63" height="2.72"/><rect class="cls-6" x="1262.04" y="593.02" width="2.63" height="2.72"/><circle class="cls-11" cx="1276.5" cy="596.31" r="2.89"/><circle class="cls-12" cx="1276.54" cy="596.3" r="1.93"/><rect class="cls-6" x="1280.58" y="587.02" width="1.59" height="8.82" rx="0.77" transform="translate(1769.23 1915.7) rotate(-135)"/><rect class="cls-6" x="1270.83" y="596.77" width="1.59" height="8.82" rx="0.77" transform="translate(1745.69 1925.45) rotate(-135)"/><rect class="cls-6" x="1270.89" y="619.56" width="11.7" height="21.58" rx="4.98"/><rect class="cls-6" x="1281.53" y="618.26" width="2.87" height="24.16" rx="1.4"/><rect class="cls-6" x="1269.14" y="618.26" width="2.87" height="24.16" rx="1.4"/><circle class="cls-13" cx="1276.54" cy="596.3" r="1.15"/><circle class="cls-14" cx="1276.54" cy="596.3" r="0.82"/><rect class="cls-5" x="693.56" y="465.72" width="705.75" height="12.16"/><rect class="cls-6" x="872.8" y="463.79" width="21.63" height="15.14"/><rect class="cls-28" x="874.96" y="465.95" width="2.16" height="10.89"/><rect class="cls-28" x="890.1" y="465.69" width="2.16" height="11.07"/><rect class="cls-28" x="883.29" y="462.56" width="0.64" height="17.44" transform="translate(1049.09 1458.96) rotate(-127.58)"/><polygon class="cls-6" points="873.33 460.4 897.39 460.4 885.36 455.79 885.36 455.79 885.36 458.09 873.33 458.09 873.33 460.4"/><polygon class="cls-9" points="900.11 495.71 924.07 495.71 930.09 495.71 926.62 503.89 949.76 494.13 926.62 484.35 930.09 492.54 924.07 492.54 900.11 492.54 900.11 495.71"/><polygon class="cls-9" points="1223.75 495.71 1247.71 495.71 1253.73 495.71 1250.26 503.89 1273.4 494.13 1250.26 484.35 1253.73 492.54 1247.71 492.54 1223.75 492.54 1223.75 495.71"/><rect class="cls-6" x="1192.72" y="464.75" width="3.02" height="13.69"/><rect class="cls-6" x="1196.85" y="464.75" width="3.02" height="13.69"/><rect class="cls-6" x="1163.93" y="464.75" width="3.02" height="13.69"/><rect class="cls-6" x="1168.06" y="464.75" width="3.02" height="13.69"/><circle class="cls-10" cx="1181.6" cy="435.22" r="11.27"/><rect class="cls-6" x="1176.17" y="425.93" width="1.59" height="8.82" rx="0.77" transform="translate(2313.5 -97.59) rotate(135)"/><rect class="cls-6" x="1185.92" y="435.69" width="1.59" height="8.82" rx="0.77" transform="translate(2337.04 -87.85) rotate(135)"/><rect class="cls-6" x="1179.09" y="421.4" width="5.72" height="2.82"/><polygon class="cls-6" points="1180.95 453.82 1179.61 454.23 1176.52 448.92 1177.86 448.51 1180.95 453.82"/><polygon class="cls-6" points="1183.63 453.82 1184.97 454.23 1187.72 448.95 1186.72 448.51 1183.63 453.82"/><rect class="cls-6" x="1181.47" y="448.25" width="1.45" height="5.76" transform="translate(2364.39 902.25) rotate(180)"/><rect class="cls-6" x="1192.24" y="431.48" width="3.2" height="6.87"/><rect class="cls-6" x="1176.1" y="446.66" width="11.84" height="3.23" rx="0.72"/><rect class="cls-6" x="1179.52" y="455.19" width="5.6" height="6.64" rx="0.72"/><rect class="cls-6" x="1176.32" y="453.04" width="11.93" height="1.37" rx="0.44"/><rect class="cls-6" x="1176.32" y="454.51" width="11.93" height="1.37" rx="0.42"/><rect class="cls-6" x="1167.38" y="435.63" width="2.63" height="2.72"/><rect class="cls-6" x="1167.38" y="431.93" width="2.63" height="2.72"/><circle class="cls-11" cx="1181.84" cy="435.22" r="2.89"/><circle class="cls-12" cx="1181.88" cy="435.22" r="1.93"/><rect class="cls-6" x="1185.92" y="425.93" width="1.59" height="8.82" rx="0.77" transform="translate(1721.54 1573.78) rotate(-135)"/><rect class="cls-6" x="1176.17" y="435.69" width="1.59" height="8.82" rx="0.77" transform="translate(1698.01 1583.52) rotate(-135)"/><rect class="cls-6" x="1176.23" y="458.48" width="11.7" height="21.58" rx="4.98"/><rect class="cls-6" x="1186.87" y="457.17" width="2.87" height="24.16" rx="1.4"/><rect class="cls-6" x="1174.49" y="457.17" width="2.87" height="24.16" rx="1.4"/><circle class="cls-13" cx="1181.88" cy="435.22" r="1.15"/><circle class="cls-14" cx="1181.88" cy="435.22" r="0.82"/><rect class="cls-6" x="894.35" y="982.49" width="3.02" height="13.69"/><rect class="cls-6" x="898.49" y="982.49" width="3.02" height="13.69"/><rect class="cls-6" x="865.56" y="982.49" width="3.02" height="13.69"/><rect class="cls-6" x="869.7" y="982.49" width="3.02" height="13.69"/><circle class="cls-10" cx="883.24" cy="952.96" r="11.27"/><rect class="cls-6" x="877.81" y="943.67" width="1.59" height="8.82" rx="0.77" transform="translate(2170.26 997.22) rotate(135)"/><rect class="cls-6" x="887.56" y="953.42" width="1.59" height="8.82" rx="0.77" transform="translate(2193.8 1006.96) rotate(135)"/><rect class="cls-6" x="880.72" y="939.13" width="5.72" height="2.82"/><polygon class="cls-6" points="882.59 971.56 881.25 971.97 878.15 966.65 879.49 966.25 882.59 971.56"/><polygon class="cls-6" points="885.26 971.56 886.6 971.97 889.36 966.69 888.36 966.25 885.26 971.56"/><rect class="cls-6" x="883.1" y="965.98" width="1.45" height="5.76" transform="translate(1767.66 1937.73) rotate(180)"/><rect class="cls-6" x="893.87" y="949.22" width="3.2" height="6.87"/><rect class="cls-6" x="877.73" y="964.4" width="11.84" height="3.23" rx="0.72"/><rect class="cls-6" x="881.16" y="972.93" width="5.6" height="6.64" rx="0.72"/><rect class="cls-6" x="877.95" y="970.77" width="11.93" height="1.37" rx="0.44"/><rect class="cls-6" x="877.95" y="972.25" width="11.93" height="1.37" rx="0.42"/><rect class="cls-6" x="869.02" y="953.37" width="2.63" height="2.72"/><rect class="cls-6" x="869.02" y="949.67" width="2.63" height="2.72"/><circle class="cls-11" cx="883.48" cy="952.96" r="2.89"/><circle class="cls-12" cx="883.52" cy="952.96" r="1.93"/><rect class="cls-6" x="887.56" y="943.67" width="1.59" height="8.82" rx="0.77" transform="translate(846.12 2246.63) rotate(-135)"/><rect class="cls-6" x="877.81" y="953.42" width="1.59" height="8.82" rx="0.77" transform="translate(822.58 2256.38) rotate(-135)"/><rect class="cls-6" x="877.87" y="976.21" width="11.7" height="21.58" rx="4.98"/><rect class="cls-6" x="888.51" y="974.91" width="2.87" height="24.16" rx="1.4"/><rect class="cls-6" x="876.12" y="974.91" width="2.87" height="24.16" rx="1.4"/><circle class="cls-13" cx="883.52" cy="952.96" r="1.15"/><circle class="cls-14" cx="883.52" cy="952.96" r="0.82"/><rect class="cls-6" x="1287.37" y="982.49" width="3.02" height="13.69"/><rect class="cls-6" x="1291.51" y="982.49" width="3.02" height="13.69"/><rect class="cls-6" x="1258.58" y="982.49" width="3.02" height="13.69"/><rect class="cls-6" x="1262.72" y="982.49" width="3.02" height="13.69"/><circle class="cls-10" cx="1276.26" cy="952.96" r="11.27"/><rect class="cls-6" x="1270.83" y="943.67" width="1.59" height="8.82" rx="0.77" transform="translate(2841.19 719.31) rotate(135)"/><rect class="cls-6" x="1280.58" y="953.42" width="1.59" height="8.82" rx="0.77" transform="translate(2864.72 729.05) rotate(135)"/><rect class="cls-6" x="1273.74" y="939.13" width="5.72" height="2.82"/><polygon class="cls-6" points="1275.61 971.56 1274.27 971.97 1271.17 966.65 1272.51 966.25 1275.61 971.56"/><polygon class="cls-6" points="1278.28 971.56 1279.62 971.97 1282.38 966.69 1281.38 966.25 1278.28 971.56"/><rect class="cls-6" x="1276.12" y="965.98" width="1.45" height="5.76" transform="translate(2553.7 1937.73) rotate(180)"/><rect class="cls-6" x="1286.89" y="949.22" width="3.2" height="6.87"/><rect class="cls-6" x="1270.75" y="964.4" width="11.84" height="3.23" rx="0.72"/><rect class="cls-6" x="1274.18" y="972.93" width="5.6" height="6.64" rx="0.72"/><rect class="cls-6" x="1270.97" y="970.77" width="11.93" height="1.37" rx="0.44"/><rect class="cls-6" x="1270.97" y="972.25" width="11.93" height="1.37" rx="0.42"/><rect class="cls-6" x="1262.04" y="953.37" width="2.63" height="2.72"/><rect class="cls-6" x="1262.04" y="949.67" width="2.63" height="2.72"/><circle class="cls-11" cx="1276.5" cy="952.96" r="2.89"/><circle class="cls-12" cx="1276.54" cy="952.96" r="1.93"/><rect class="cls-6" x="1280.58" y="943.67" width="1.59" height="8.82" rx="0.77" transform="translate(1517.03 2524.54) rotate(-135)"/><rect class="cls-6" x="1270.83" y="953.42" width="1.59" height="8.82" rx="0.77" transform="translate(1493.51 2534.29) rotate(-135)"/><rect class="cls-6" x="1270.89" y="976.21" width="11.7" height="21.58" rx="4.98"/><rect class="cls-6" x="1281.53" y="974.91" width="2.87" height="24.16" rx="1.4"/><rect class="cls-6" x="1269.14" y="974.91" width="2.87" height="24.16" rx="1.4"/><circle class="cls-13" cx="1276.54" cy="952.96" r="1.15"/><circle class="cls-14" cx="1276.54" cy="952.96" r="0.82"/><text class="cls-54" transform="translate(1009.65 89.06) scale(0.9 1)">SANLEY</text><ellipse class="cls-55" cx="1038.7" cy="120.09" rx="1.84" ry="1.79"/><circle class="cls-56" cx="1038.7" cy="120.09" r="1.6"/><circle class="cls-55" cx="1038.7" cy="120.09" r="1.25"/><circle class="cls-56" cx="1038.7" cy="120.09" r="0.89"/><ellipse class="cls-55" cx="1038.7" cy="126.11" rx="1.84" ry="1.79"/><circle class="cls-56" cx="1038.7" cy="126.11" r="1.6"/><circle class="cls-55" cx="1038.7" cy="126.11" r="1.25"/><circle class="cls-56" cx="1038.7" cy="126.11" r="0.89"/><rect class="cls-57" x="1001.87" y="95.14" width="40.12" height="50.77" rx="8.93"/><path class="cls-57" d="M1009.76,79.79h25.08a7.3,7.3,0,0,1,7.3,7.3v48.49a9.74,9.74,0,0,1-9.74,9.74h-21.25a9.74,9.74,0,0,1-9.74-9.74V88.15A8.36,8.36,0,0,1,1009.76,79.79Z"/><rect class="cls-57" x="1002.43" y="101.74" width="6.27" height="36.18"/><rect class="cls-57" x="1035.43" y="101.74" width="6.24" height="36.18"/><rect class="cls-58" x="1010.55" y="95.87" width="1.77" height="50.04"/><rect class="cls-58" x="1014.1" y="95.87" width="1.77" height="50.04"/><rect class="cls-58" x="1017.64" y="95.87" width="1.77" height="50.04"/><rect class="cls-58" x="1021.18" y="95.87" width="1.77" height="50.04"/><rect class="cls-58" x="1024.72" y="95.87" width="1.77" height="50.04"/><rect class="cls-58" x="1028.27" y="95.87" width="1.77" height="50.04"/><rect class="cls-58" x="1031.81" y="95.87" width="1.77" height="50.04"/><path class="cls-57" d="M1045.61,137.73h-2.79l-.83-.83V119.67l.83-.83h2.79l.83.83V136.9Z"/><rect class="cls-59" x="1003.42" y="145.91" width="36.36" height="8.27"/><rect class="cls-59" x="1010.26" y="145.91" width="4.13" height="8.27"/><rect class="cls-59" x="1030.33" y="145.91" width="4.13" height="8.27"/><rect class="cls-57" x="993.97" y="154.77" width="55.5" height="2.95" rx="1.1"/><rect class="cls-57" x="995.15" y="157.72" width="53.13" height="2.36" rx="1.1"/><rect class="cls-57" x="1000.76" y="160.38" width="41.92" height="2.95" rx="1.1"/><rect class="cls-57" x="1007.1" y="210.56" width="29.94" height="2.95" rx="1.1"/><rect class="cls-57" x="1004.89" y="234.18" width="33.65" height="2.95" rx="1.1"/><rect class="cls-59" x="1009.91" y="163.58" width="23.62" height="17.46"/><rect class="cls-59" x="1002.53" y="181.04" width="38.38" height="5.9" rx="1.1"/><rect class="cls-59" x="1007.19" y="186.94" width="29.1" height="23.62"/><rect class="cls-57" x="1007.26" y="213.51" width="29.63" height="20.66"/><rect class="cls-59" x="1010.21" y="186.94" width="23.03" height="23.62" rx="0.6"/><rect class="cls-59" x="997.8" y="203.43" width="8.87" height="15.69"/><rect class="cls-59" x="1037.41" y="203.43" width="8.46" height="15.69"/><rect class="cls-57" x="993.57" y="199.06" width="3.2" height="24.66" rx="0.4"/><rect class="cls-57" x="988.05" y="199.06" width="3.2" height="24.66" rx="0.4"/><rect class="cls-57" x="1051.8" y="199.06" width="3.2" height="24.66" rx="0.4"/><rect class="cls-57" x="1046.27" y="199.06" width="3.2" height="24.66" rx="0.4"/><text class="cls-54" transform="translate(1008.42 264.98) scale(0.9 1)">SANLEY</text><ellipse class="cls-55" cx="1037.47" cy="296" rx="1.84" ry="1.79"/><circle class="cls-56" cx="1037.47" cy="296" r="1.6"/><circle class="cls-55" cx="1037.47" cy="296" r="1.25"/><circle class="cls-56" cx="1037.47" cy="296" r="0.89"/><ellipse class="cls-55" cx="1037.47" cy="302.03" rx="1.84" ry="1.79"/><circle class="cls-56" cx="1037.47" cy="302.03" r="1.6"/><circle class="cls-55" cx="1037.47" cy="302.03" r="1.25"/><circle class="cls-56" cx="1037.47" cy="302.03" r="0.89"/><rect class="cls-57" x="1000.64" y="271.06" width="40.12" height="50.77" rx="8.93"/><path class="cls-57" d="M1008.54,255.71h25.08a7.3,7.3,0,0,1,7.3,7.3V311.5a9.74,9.74,0,0,1-9.74,9.74h-21.25a9.74,9.74,0,0,1-9.74-9.74V264.07A8.36,8.36,0,0,1,1008.54,255.71Z"/><rect class="cls-57" x="1001.2" y="277.66" width="6.27" height="36.18"/><rect class="cls-57" x="1034.2" y="277.66" width="6.24" height="36.18"/><rect class="cls-58" x="1009.33" y="271.79" width="1.77" height="50.04"/><rect class="cls-58" x="1012.87" y="271.79" width="1.77" height="50.04"/><rect class="cls-58" x="1016.41" y="271.79" width="1.77" height="50.04"/><rect class="cls-58" x="1019.95" y="271.79" width="1.77" height="50.04"/><rect class="cls-58" x="1023.5" y="271.79" width="1.77" height="50.04"/><rect class="cls-58" x="1027.04" y="271.79" width="1.77" height="50.04"/><rect class="cls-58" x="1030.58" y="271.79" width="1.77" height="50.04"/><path class="cls-57" d="M1044.38,313.65h-2.78l-.83-.83V295.59l.83-.83h2.78l.83.83v17.23Z"/><rect class="cls-59" x="1002.19" y="321.83" width="36.36" height="8.27"/><rect class="cls-59" x="1009.03" y="321.83" width="4.13" height="8.27"/><rect class="cls-59" x="1029.11" y="321.83" width="4.13" height="8.27"/><rect class="cls-57" x="992.74" y="330.69" width="55.5" height="2.95" rx="1.1"/><rect class="cls-57" x="993.92" y="333.64" width="53.13" height="2.36" rx="1.1"/><rect class="cls-57" x="999.53" y="336.29" width="41.92" height="2.95" rx="1.1"/><rect class="cls-57" x="1005.88" y="386.48" width="29.94" height="2.95" rx="1.1"/><rect class="cls-57" x="1003.67" y="410.09" width="33.65" height="2.95" rx="1.1"/><rect class="cls-59" x="1008.68" y="339.49" width="23.62" height="17.46"/><rect class="cls-59" x="1001.3" y="356.96" width="38.38" height="5.9" rx="1.1"/><rect class="cls-59" x="1005.96" y="362.86" width="29.1" height="23.62"/><rect class="cls-57" x="1006.04" y="389.43" width="29.63" height="20.66"/><rect class="cls-59" x="1008.98" y="362.86" width="23.03" height="23.62" rx="0.6"/><rect class="cls-59" x="996.57" y="379.35" width="8.87" height="15.69"/><rect class="cls-59" x="1036.18" y="379.35" width="8.46" height="15.69"/><rect class="cls-57" x="992.35" y="374.97" width="3.2" height="24.66" rx="0.4"/><rect class="cls-57" x="986.83" y="374.97" width="3.2" height="24.66" rx="0.4"/><rect class="cls-57" x="1050.57" y="374.97" width="3.2" height="24.66" rx="0.4"/><rect class="cls-57" x="1045.05" y="374.97" width="3.2" height="24.66" rx="0.4"/><text class="cls-54" transform="translate(1009.88 508.48) scale(0.9 1)">SANLEY</text><ellipse class="cls-55" cx="1038.93" cy="539.51" rx="1.84" ry="1.79"/><circle class="cls-56" cx="1038.93" cy="539.51" r="1.6"/><circle class="cls-55" cx="1038.93" cy="539.51" r="1.25"/><circle class="cls-56" cx="1038.93" cy="539.51" r="0.89"/><ellipse class="cls-55" cx="1038.93" cy="545.53" rx="1.84" ry="1.79"/><circle class="cls-56" cx="1038.93" cy="545.53" r="1.6"/><circle class="cls-55" cx="1038.93" cy="545.53" r="1.25"/><circle class="cls-56" cx="1038.93" cy="545.53" r="0.89"/><rect class="cls-57" x="1002.1" y="514.56" width="40.12" height="50.77" rx="8.93"/><path class="cls-57" d="M1010,499.21h25.08a7.3,7.3,0,0,1,7.3,7.3V555a9.74,9.74,0,0,1-9.74,9.74h-21.25a9.74,9.74,0,0,1-9.74-9.74V507.57A8.36,8.36,0,0,1,1010,499.21Z"/><rect class="cls-57" x="1002.66" y="521.16" width="6.27" height="36.18"/><rect class="cls-57" x="1035.66" y="521.16" width="6.24" height="36.18"/><rect class="cls-58" x="1010.78" y="515.29" width="1.77" height="50.04"/><rect class="cls-58" x="1014.33" y="515.29" width="1.77" height="50.04"/><rect class="cls-58" x="1017.87" y="515.29" width="1.77" height="50.04"/><rect class="cls-58" x="1021.41" y="515.29" width="1.77" height="50.04"/><rect class="cls-58" x="1024.95" y="515.29" width="1.77" height="50.04"/><rect class="cls-58" x="1028.5" y="515.29" width="1.77" height="50.04"/><rect class="cls-58" x="1032.04" y="515.29" width="1.77" height="50.04"/><path class="cls-57" d="M1045.84,557.15h-2.79l-.83-.83V539.09l.83-.83h2.79l.83.83v17.23Z"/><rect class="cls-59" x="1003.65" y="565.33" width="36.36" height="8.27"/><rect class="cls-59" x="1010.49" y="565.33" width="4.13" height="8.27"/><rect class="cls-59" x="1030.56" y="565.33" width="4.13" height="8.27"/><rect class="cls-57" x="994.2" y="574.19" width="55.5" height="2.95" rx="1.1"/><rect class="cls-57" x="995.38" y="577.14" width="53.13" height="2.36" rx="1.1"/><rect class="cls-57" x="1000.99" y="579.8" width="41.92" height="2.95" rx="1.1"/><rect class="cls-57" x="1007.33" y="629.98" width="29.94" height="2.95" rx="1.1"/><rect class="cls-57" x="1005.12" y="653.59" width="33.65" height="2.95" rx="1.1"/><rect class="cls-59" x="1010.14" y="583" width="23.62" height="17.46"/><rect class="cls-59" x="1002.76" y="600.46" width="38.38" height="5.9" rx="1.1"/><rect class="cls-59" x="1007.42" y="606.36" width="29.1" height="23.62"/><rect class="cls-57" x="1007.49" y="632.93" width="29.63" height="20.66"/><rect class="cls-59" x="1010.43" y="606.36" width="23.03" height="23.62" rx="0.6"/><rect class="cls-59" x="998.03" y="622.85" width="8.87" height="15.69"/><rect class="cls-59" x="1037.64" y="622.85" width="8.46" height="15.69"/><rect class="cls-57" x="993.8" y="618.48" width="3.2" height="24.66" rx="0.4"/><rect class="cls-57" x="988.28" y="618.48" width="3.2" height="24.66" rx="0.4"/><rect class="cls-57" x="1052.02" y="618.48" width="3.2" height="24.66" rx="0.4"/><rect class="cls-57" x="1046.5" y="618.48" width="3.2" height="24.66" rx="0.4"/><text class="cls-54" transform="translate(1008.65 693.4) scale(0.9 1)">SANLEY</text><ellipse class="cls-55" cx="1037.7" cy="724.42" rx="1.84" ry="1.79"/><circle class="cls-56" cx="1037.7" cy="724.42" r="1.6"/><circle class="cls-55" cx="1037.7" cy="724.42" r="1.25"/><circle class="cls-56" cx="1037.7" cy="724.42" r="0.89"/><ellipse class="cls-55" cx="1037.7" cy="730.45" rx="1.84" ry="1.79"/><circle class="cls-56" cx="1037.7" cy="730.45" r="1.6"/><circle class="cls-55" cx="1037.7" cy="730.45" r="1.25"/><circle class="cls-56" cx="1037.7" cy="730.45" r="0.89"/><rect class="cls-57" x="1000.87" y="699.48" width="40.12" height="50.77" rx="8.93"/><path class="cls-57" d="M1008.76,684.13h25.08a7.3,7.3,0,0,1,7.3,7.3v48.49a9.74,9.74,0,0,1-9.74,9.74h-21.25a9.74,9.74,0,0,1-9.74-9.74V692.48A8.36,8.36,0,0,1,1008.76,684.13Z"/><rect class="cls-57" x="1001.43" y="706.08" width="6.27" height="36.18"/><rect class="cls-57" x="1034.43" y="706.08" width="6.24" height="36.18"/><rect class="cls-58" x="1009.56" y="700.21" width="1.77" height="50.04"/><rect class="cls-58" x="1013.1" y="700.21" width="1.77" height="50.04"/><rect class="cls-58" x="1016.64" y="700.21" width="1.77" height="50.04"/><rect class="cls-58" x="1020.18" y="700.21" width="1.77" height="50.04"/><rect class="cls-58" x="1023.73" y="700.21" width="1.77" height="50.04"/><rect class="cls-58" x="1027.27" y="700.21" width="1.77" height="50.04"/><rect class="cls-58" x="1030.81" y="700.21" width="1.77" height="50.04"/><path class="cls-57" d="M1044.61,742.07h-2.78l-.84-.83V724l.84-.83h2.78l.83.83v17.23Z"/><rect class="cls-59" x="1002.42" y="750.25" width="36.36" height="8.27"/><rect class="cls-59" x="1009.26" y="750.25" width="4.13" height="8.27"/><rect class="cls-59" x="1029.33" y="750.25" width="4.13" height="8.27"/><rect class="cls-57" x="992.97" y="759.1" width="55.5" height="2.95" rx="1.1"/><rect class="cls-57" x="994.15" y="762.06" width="53.13" height="2.36" rx="1.1"/><rect class="cls-57" x="999.76" y="764.71" width="41.92" height="2.95" rx="1.1"/><rect class="cls-57" x="1006.11" y="814.9" width="29.94" height="2.95" rx="1.1"/><rect class="cls-57" x="1003.89" y="838.51" width="33.65" height="2.95" rx="1.1"/><rect class="cls-59" x="1008.91" y="767.91" width="23.62" height="17.46"/><rect class="cls-59" x="1001.53" y="785.38" width="38.38" height="5.9" rx="1.1"/><rect class="cls-59" x="1006.19" y="791.28" width="29.1" height="23.62"/><rect class="cls-57" x="1006.26" y="817.85" width="29.63" height="20.66"/><rect class="cls-59" x="1009.21" y="791.28" width="23.03" height="23.62" rx="0.6"/><rect class="cls-59" x="996.8" y="807.77" width="8.87" height="15.69"/><rect class="cls-59" x="1036.41" y="807.77" width="8.46" height="15.69"/><rect class="cls-57" x="992.58" y="803.39" width="3.2" height="24.66" rx="0.4"/><rect class="cls-57" x="987.05" y="803.39" width="3.2" height="24.66" rx="0.4"/><rect class="cls-57" x="1050.8" y="803.39" width="3.2" height="24.66" rx="0.4"/><rect class="cls-57" x="1045.27" y="803.39" width="3.2" height="24.66" rx="0.4"/><text class="cls-54" transform="translate(1006.86 867.88) scale(0.9 1)">SANLEY</text><ellipse class="cls-55" cx="1035.9" cy="898.9" rx="1.84" ry="1.79"/><circle class="cls-56" cx="1035.9" cy="898.9" r="1.6"/><circle class="cls-55" cx="1035.9" cy="898.9" r="1.25"/><circle class="cls-56" cx="1035.9" cy="898.9" r="0.89"/><ellipse class="cls-55" cx="1035.9" cy="904.93" rx="1.84" ry="1.79"/><circle class="cls-56" cx="1035.9" cy="904.93" r="1.6"/><circle class="cls-55" cx="1035.9" cy="904.93" r="1.25"/><circle class="cls-56" cx="1035.9" cy="904.93" r="0.89"/><rect class="cls-57" x="999.08" y="873.96" width="40.12" height="50.77" rx="8.93"/><path class="cls-57" d="M1007,858.61H1032a7.3,7.3,0,0,1,7.3,7.3V914.4a9.74,9.74,0,0,1-9.74,9.74h-21.25a9.74,9.74,0,0,1-9.74-9.74V867A8.36,8.36,0,0,1,1007,858.61Z"/><rect class="cls-57" x="999.64" y="880.56" width="6.27" height="36.18"/><rect class="cls-57" x="1032.64" y="880.56" width="6.24" height="36.18"/><rect class="cls-58" x="1007.76" y="874.69" width="1.77" height="50.04"/><rect class="cls-58" x="1011.31" y="874.69" width="1.77" height="50.04"/><rect class="cls-58" x="1014.85" y="874.69" width="1.77" height="50.04"/><rect class="cls-58" x="1018.39" y="874.69" width="1.77" height="50.04"/><rect class="cls-58" x="1021.93" y="874.69" width="1.77" height="50.04"/><rect class="cls-58" x="1025.47" y="874.69" width="1.77" height="50.04"/><rect class="cls-58" x="1029.02" y="874.69" width="1.77" height="50.04"/><path class="cls-57" d="M1042.81,916.55H1040l-.83-.83V898.49l.83-.83h2.78l.84.83v17.23Z"/><rect class="cls-59" x="1000.62" y="924.73" width="36.36" height="8.27"/><rect class="cls-59" x="1007.47" y="924.73" width="4.13" height="8.27"/><rect class="cls-59" x="1027.54" y="924.73" width="4.13" height="8.27"/><rect class="cls-57" x="991.18" y="933.59" width="55.5" height="2.95" rx="1.1"/><rect class="cls-57" x="992.36" y="936.54" width="53.13" height="2.36" rx="1.1"/><rect class="cls-57" x="997.97" y="939.19" width="41.92" height="2.95" rx="1.1"/><rect class="cls-57" x="1004.31" y="989.38" width="29.94" height="2.95" rx="1.1"/><rect class="cls-57" x="1002.1" y="1012.99" width="33.65" height="2.95" rx="1.1"/><rect class="cls-59" x="1007.12" y="942.39" width="23.62" height="17.46"/><rect class="cls-59" x="999.74" y="959.86" width="38.38" height="5.9" rx="1.1"/><rect class="cls-59" x="1004.4" y="965.76" width="29.1" height="23.62"/><rect class="cls-57" x="1004.47" y="992.33" width="29.63" height="20.66"/><rect class="cls-59" x="1007.41" y="965.76" width="23.03" height="23.62" rx="0.6"/><rect class="cls-59" x="995.01" y="982.25" width="8.87" height="15.69"/><rect class="cls-59" x="1034.62" y="982.25" width="8.46" height="15.69"/><rect class="cls-57" x="990.78" y="977.87" width="3.2" height="24.66" rx="0.4"/><rect class="cls-57" x="985.26" y="977.87" width="3.2" height="24.66" rx="0.4"/><rect class="cls-57" x="1049" y="977.87" width="3.2" height="24.66" rx="0.4"/><rect class="cls-57" x="1043.48" y="977.87" width="3.2" height="24.66" rx="0.4"/><rect class="cls-20" x="1426.25" y="714.56" width="28.04" height="25.56" rx="2.35" transform="translate(2167.62 -712.93) rotate(90)"/><rect class="cls-6" x="1427.35" y="715.91" width="26.01" height="22.86" rx="1.91" transform="translate(2167.69 -713.01) rotate(90)"/><ellipse class="cls-60" cx="1431.28" cy="716.52" rx="0.86" ry="0.9"/><ellipse class="cls-60" cx="1431.28" cy="737.97" rx="0.86" ry="0.9"/><ellipse class="cls-60" cx="1449.63" cy="716.52" rx="0.86" ry="0.9"/><ellipse class="cls-60" cx="1449.63" cy="737.97" rx="0.86" ry="0.9"/><rect class="cls-61" x="1429.21" y="730.92" width="3.08" height="4.02" transform="translate(2163.68 -697.82) rotate(90)"/><rect class="cls-6" x="1420.4" y="726.33" width="11.14" height="1.06" transform="translate(2152.83 -699.12) rotate(90)"/><rect class="cls-62" x="1410.19" y="718.17" width="11.14" height="17.47" rx="0.25" transform="translate(2142.67 -688.86) rotate(90)"/><rect class="cls-63" x="1415.25" y="721.82" width="5.01" height="10.16" rx="0.15" transform="translate(2144.66 -690.85) rotate(90)"/><text class="cls-64" transform="translate(1448.11 722.79) rotate(90) scale(1.09 1)">压力开关</text><rect class="cls-63" x="1432.12" y="723.46" width="17.84" height="8.73" transform="translate(2168.86 -713.21) rotate(90)"/><text class="cls-65" transform="translate(1443.31 719.29) rotate(90) scale(1.09 1)">CSS</text><text class="cls-66" transform="translate(1440.91 720.16) rotate(90) scale(1.09 1)">asdsanmlopq<tspan class="cls-67" x="10.06" y="0">r</tspan><tspan x="10.75" y="0">st</tspan></text><text class="cls-66" transform="translate(1438.51 720.16) rotate(90) scale(1.09 1)">asdsanmlopq<tspan class="cls-67" x="10.06" y="0">r</tspan><tspan x="10.75" y="0">st</tspan></text></svg>