<svg id="图层_1" data-name="图层 1" xmlns="http://www.w3.org/2000/svg" xmlns:xlink="http://www.w3.org/1999/xlink" viewBox="0 0 1920 1080"><defs><style>.cls-1,.cls-18,.cls-2,.cls-3,.cls-45,.cls-52,.cls-53,.cls-54,.cls-56{stroke:#01579b;}.cls-1,.cls-10,.cls-11,.cls-18,.cls-19,.cls-2,.cls-20,.cls-21,.cls-23,.cls-24,.cls-25,.cls-3,.cls-34,.cls-35,.cls-36,.cls-37,.cls-38,.cls-39,.cls-40,.cls-41,.cls-42,.cls-43,.cls-44,.cls-45,.cls-46,.cls-47,.cls-48,.cls-52,.cls-53,.cls-54,.cls-55,.cls-56,.cls-57,.cls-58{stroke-miterlimit:10;}.cls-1,.cls-11,.cls-19,.cls-2,.cls-3,.cls-34,.cls-35,.cls-36,.cls-37,.cls-38,.cls-39,.cls-40,.cls-41,.cls-42,.cls-43,.cls-44,.cls-46,.cls-47,.cls-48,.cls-52,.cls-55{stroke-width:2px;}.cls-1{fill:url(#未命名的渐变_31);}.cls-2{fill:url(#未命名的渐变_31-2);}.cls-3{fill:url(#未命名的渐变_31-3);}.cls-4{fill:#63c6fa;}.cls-5{fill:#06a8fa;}.cls-22,.cls-23,.cls-29,.cls-30,.cls-6,.cls-7{fill:#143a82;}.cls-7,.cls-8{font-size:22px;}.cls-29,.cls-30,.cls-7,.cls-8{font-family:PingFang-SC-Medium, PingFang SC;font-weight:500;}.cls-8{fill:#db4516;}.cls-9{fill:#df592f;}.cls-10,.cls-11,.cls-19,.cls-20,.cls-25,.cls-34,.cls-35,.cls-36,.cls-37,.cls-38,.cls-39,.cls-40,.cls-41,.cls-42,.cls-43,.cls-44,.cls-45,.cls-46,.cls-47,.cls-48,.cls-52,.cls-53,.cls-54,.cls-55,.cls-56,.cls-57,.cls-58{fill:none;}.cls-10,.cls-19,.cls-20,.cls-23,.cls-24{stroke:#143a82;}.cls-10,.cls-23,.cls-24,.cls-25,.cls-56{stroke-width:3px;}.cls-11{stroke:#10397a;}.cls-12{fill:#0e3773;}.cls-13{fill:#4676a5;}.cls-14{fill:#a1d5ff;}.cls-15{fill:#327cc6;}.cls-16{fill:#0a98ef;}.cls-17,.cls-18,.cls-21{fill:#f2f2f2;}.cls-18,.cls-45{stroke-width:0.75px;}.cls-21,.cls-55{stroke:#333f4f;}.cls-22{font-size:2.93px;}.cls-22,.cls-49{font-family:Benmo-Chenhei, Benmo Chenhei;}.cls-24{fill:#e6e6e6;}.cls-25{stroke:#b3b3b3;}.cls-26{fill:#333f4f;}.cls-27{fill:#868686;}.cls-28{fill:#cee6f9;}.cls-29{font-size:16px;}.cls-30{font-size:14px;}.cls-31{fill:#07a307;}.cls-32{fill:#af0800;}.cls-33{fill:#474747;}.cls-34{stroke:url(#未命名的渐变_15);}.cls-35{stroke:url(#未命名的渐变_15-2);}.cls-36{stroke:url(#未命名的渐变_15-3);}.cls-37{stroke:url(#未命名的渐变_15-4);}.cls-38{stroke:url(#未命名的渐变_15-5);}.cls-39{stroke:url(#未命名的渐变_15-6);}.cls-40{stroke:url(#未命名的渐变_15-7);}.cls-41{stroke:url(#未命名的渐变_15-8);}.cls-42{stroke:url(#未命名的渐变_15-9);}.cls-43{stroke:url(#未命名的渐变_15-10);}.cls-44{stroke:url(#未命名的渐变_15-11);}.cls-46{stroke:url(#未命名的渐变_15-12);}.cls-47{stroke:url(#未命名的渐变_15-13);}.cls-48{stroke:url(#未命名的渐变_15-14);}.cls-49{font-size:6.12px;fill:#01579b;}.cls-50{fill:#2a5e96;}.cls-51{fill:#9ac0f7;}.cls-53{stroke-width:1.5px;}.cls-57{stroke:#618cd1;}.cls-57,.cls-58{stroke-width:0.5px;}.cls-58{stroke:#fff;}.cls-59{fill:#10397a;}.cls-60{fill:#5276aa;}.cls-61,.cls-62{font-size:2.1px;letter-spacing:0.18em;}.cls-61,.cls-62,.cls-63{fill:#fff;}.cls-61{font-family:MicrosoftYaHei-Bold, Microsoft YaHei;font-weight:700;}.cls-62,.cls-63{font-family:MicrosoftYaHei, Microsoft YaHei;}.cls-63{font-size:1.38px;letter-spacing:0.18em;}.cls-64{letter-spacing:0.19em;}.cls-65{letter-spacing:0.18em;}</style><linearGradient id="未命名的渐变_31" x1="267" y1="652.5" x2="578" y2="652.5" gradientUnits="userSpaceOnUse"><stop offset="0" stop-color="#fff"/><stop offset="1" stop-color="#e6e6e6"/></linearGradient><linearGradient id="未命名的渐变_31-2" x1="266.78" y1="545" x2="603.65" y2="545" xlink:href="#未命名的渐变_31"/><linearGradient id="未命名的渐变_31-3" x1="3437.22" y1="3505.78" x2="3651.22" y2="3505.78" gradientTransform="matrix(0, -1, -1, 0, 4096.78, 4191.22)" xlink:href="#未命名的渐变_31"/><linearGradient id="未命名的渐变_15" x1="1118.46" y1="441.61" x2="1203.57" y2="441.61" gradientUnits="userSpaceOnUse"><stop offset="0" stop-color="#4f6c99"/><stop offset="0.16" stop-color="#526f9c"/><stop offset="0.29" stop-color="#5b78a6"/><stop offset="0.4" stop-color="#6c87b6"/><stop offset="0.5" stop-color="#829dcd"/><stop offset="0.59" stop-color="#9fb8ea"/><stop offset="0.62" stop-color="#a9c2f4"/><stop offset="1" stop-color="#718dbe"/></linearGradient><linearGradient id="未命名的渐变_15-2" x1="1210.07" y1="405.54" x2="1295.18" y2="405.54" xlink:href="#未命名的渐变_15"/><linearGradient id="未命名的渐变_15-3" x1="1210.07" y1="912.28" x2="1295.18" y2="912.28" xlink:href="#未命名的渐变_15"/><linearGradient id="未命名的渐变_15-4" x1="1118.46" y1="405.33" x2="1203.57" y2="405.33" xlink:href="#未命名的渐变_15"/><linearGradient id="未命名的渐变_15-5" x1="1118.46" y1="949.36" x2="1203.57" y2="949.36" xlink:href="#未命名的渐变_15"/><linearGradient id="未命名的渐变_15-6" x1="1118.46" y1="913.08" x2="1203.57" y2="913.08" xlink:href="#未命名的渐变_15"/><linearGradient id="未命名的渐变_15-7" x1="1118.46" y1="228.74" x2="1203.57" y2="228.74" xlink:href="#未命名的渐变_15"/><linearGradient id="未命名的渐变_15-8" x1="1210.07" y1="192.68" x2="1295.18" y2="192.68" xlink:href="#未命名的渐变_15"/><linearGradient id="未命名的渐变_15-9" x1="1655.9" y1="185.58" x2="1741.01" y2="185.58" xlink:href="#未命名的渐变_15"/><linearGradient id="未命名的渐变_15-10" x1="1533.8" y1="257.94" x2="1618.92" y2="257.94" xlink:href="#未命名的渐变_15"/><linearGradient id="未命名的渐变_15-11" x1="1118.46" y1="192.46" x2="1203.57" y2="192.46" xlink:href="#未命名的渐变_15"/><linearGradient id="未命名的渐变_15-12" x1="1118.46" y1="735.8" x2="1203.57" y2="735.8" xlink:href="#未命名的渐变_15"/><linearGradient id="未命名的渐变_15-13" x1="1210.07" y1="699.74" x2="1295.18" y2="699.74" xlink:href="#未命名的渐变_15"/><linearGradient id="未命名的渐变_15-14" x1="1118.46" y1="699.52" x2="1203.57" y2="699.52" xlink:href="#未命名的渐变_15"/></defs><title>4泵 副本</title><polyline class="cls-1" points="578 551 578 754 267 754 267 551"/><path class="cls-2" d="M577.82,550H267.18c-.42,0-.55-.44-.17-.58L292.44,540a.47.47,0,0,1,.17,0H603.25c.42,0,.55.44.17.58L578,550A.47.47,0,0,1,577.82,550Z"/><path class="cls-3" d="M578,550.09V753.75c0,.27,1.15.35,1.52.11l24.4-16.16a.14.14,0,0,0,.08-.11V540.25c0-.27-1.15-.35-1.51-.11C602.49,540.14,578,550.06,578,550.09Z"/><path class="cls-4" d="M268,648c6.95-3,45.56-25.44,71.68-30.31C370.2,612,400.09,616,419,623.48c5.19,2.06,38,25.52,58.68,25.52C501,649,569,635,577,632V753H268Z"/><path class="cls-4" d="M579,632V753l24-16V618Z"/><rect class="cls-5" x="391.99" y="387.9" width="298.49" height="14" transform="translate(936.13 -146.33) rotate(90)"/><path class="cls-5" d="M525.27,239.45H229.09c-2.81,0-5.09-3.14-5.09-7h0c0-3.87,2.28-7,5.09-7H525.27c2.81,0,5.09,3.13,5.09,7h0C530.36,236.31,528.08,239.45,525.27,239.45Z"/><rect class="cls-5" x="464" y="774.33" width="257.98" height="14"/><rect class="cls-6" x="539.84" y="455.06" width="2.79" height="15.76" transform="translate(78.3 1004.17) rotate(-90)"/><rect class="cls-6" x="539.84" y="452.24" width="2.79" height="15.76" transform="translate(81.11 1001.35) rotate(-90)"/><rect class="cls-6" x="539.84" y="464.15" width="2.79" height="15.76" transform="translate(69.21 1013.26) rotate(-90)"/><rect class="cls-6" x="539.84" y="461.33" width="2.79" height="15.76" transform="translate(72.02 1010.44) rotate(-90)"/><text class="cls-7" transform="translate(339.34 288.25)">进水阀门</text><text class="cls-8" transform="translate(209.78 206.56)">市政进水</text><polygon class="cls-9" points="567.38 359.69 567.38 391.17 567.38 397.19 559.19 393.72 568.96 416.87 578.73 393.72 570.55 397.19 570.55 391.17 570.55 359.69 567.38 359.69"/><polygon class="cls-9" points="218.91 279.47 250.39 279.47 256.41 279.47 252.94 287.66 276.08 277.89 252.94 268.12 256.41 276.3 250.39 276.3 218.91 276.3 218.91 279.47"/><polygon class="cls-9" points="526.29 810.34 557.77 810.34 563.79 810.34 560.32 818.52 583.46 808.75 560.32 798.98 563.79 807.16 557.77 807.16 526.29 807.16 526.29 810.34"/><path class="cls-5" d="M534.11,252.23l14.86.12a26.83,26.83,0,0,0-27.56-26.94v14.26a12.71,12.71,0,0,1,8.19,2.78A13.06,13.06,0,0,1,534.11,252.23Z"/><rect class="cls-5" x="517.91" y="224.13" width="3.8" height="16.56" transform="translate(1039.62 464.81) rotate(-180)"/><rect class="cls-5" x="539.56" y="245.27" width="3.8" height="16.56" transform="translate(795.01 -287.92) rotate(90)"/><rect class="cls-6" x="393.31" y="224.32" width="3.48" height="15.76"/><rect class="cls-6" x="398.08" y="224.32" width="3.48" height="15.76"/><rect class="cls-6" x="360.16" y="224.32" width="3.48" height="15.76"/><rect class="cls-6" x="364.92" y="224.32" width="3.48" height="15.76"/><circle class="cls-10" cx="380.52" cy="190.31" r="12.98"/><rect class="cls-6" x="374.26" y="179.62" width="1.83" height="10.15" rx="0.91" transform="translate(771.06 50.01) rotate(135)"/><rect class="cls-6" x="385.49" y="190.85" width="1.83" height="10.15" rx="0.91" transform="translate(798.17 61.24) rotate(135)"/><rect class="cls-6" x="377.62" y="174.4" width="6.59" height="3.25"/><polygon class="cls-6" points="379.76 211.74 378.22 212.2 374.65 206.09 376.2 205.62 379.76 211.74"/><polygon class="cls-6" points="382.84 211.74 384.39 212.2 387.56 206.12 386.41 205.62 382.84 211.74"/><rect class="cls-6" x="380.36" y="205.32" width="1.67" height="6.63" transform="translate(762.39 417.27) rotate(180)"/><rect class="cls-6" x="392.76" y="186.01" width="3.69" height="7.92"/><rect class="cls-6" x="374.17" y="203.49" width="13.63" height="3.72" rx="0.72"/><rect class="cls-6" x="378.12" y="213.31" width="6.45" height="7.65" rx="0.72"/><rect class="cls-6" x="374.43" y="210.83" width="13.73" height="1.57" rx="0.44"/><rect class="cls-6" x="374.43" y="212.53" width="13.73" height="1.57" rx="0.42"/><rect class="cls-6" x="364.14" y="190.79" width="3.03" height="3.14"/><rect class="cls-6" x="364.14" y="186.53" width="3.03" height="3.14"/><circle class="cls-11" cx="380.79" cy="190.32" r="3.33"/><circle class="cls-12" cx="380.83" cy="190.31" r="2.22"/><rect class="cls-6" x="385.49" y="179.62" width="1.83" height="10.15" rx="0.91" transform="translate(529.03 588.53) rotate(-135)"/><rect class="cls-6" x="374.26" y="190.85" width="1.83" height="10.15" rx="0.91" transform="translate(501.92 599.75) rotate(-135)"/><rect class="cls-6" x="374.33" y="217.09" width="13.48" height="24.85" rx="4.98"/><rect class="cls-6" x="386.58" y="215.6" width="3.31" height="27.82" rx="1.66"/><rect class="cls-6" x="372.32" y="215.6" width="3.31" height="27.82" rx="1.66"/><circle class="cls-13" cx="380.83" cy="190.31" r="1.33"/><circle class="cls-14" cx="380.83" cy="190.31" r="0.94"/><circle class="cls-15" cx="443" cy="732" r="10"/><ellipse class="cls-16" cx="443.25" cy="732.5" rx="8" ry="7.75"/><rect class="cls-5" x="421.23" y="741" width="44" height="14" rx="7" transform="translate(1191.23 304.77) rotate(90)"/><path class="cls-5" d="M451,761.57l-14.87-.12a26.83,26.83,0,0,0,27.57,26.94V774.13a12.64,12.64,0,0,1-8.19-2.78A13,13,0,0,1,451,761.57Z"/><rect class="cls-5" x="463.41" y="773.12" width="3.8" height="16.56"/><rect class="cls-5" x="441.76" y="751.98" width="3.8" height="16.56" transform="translate(-316.6 1203.92) rotate(-90)"/><rect class="cls-5" x="388.48" y="626.21" width="676.99" height="14" transform="translate(1360.19 -93.76) rotate(90)"/><rect class="cls-17" x="217.69" y="835.17" width="83.41" height="152.94"/><rect class="cls-17" x="398.18" y="835.17" width="83.41" height="152.94"/><rect class="cls-18" x="573.1" y="835.17" width="83.41" height="152.94"/><rect class="cls-17" x="1109.85" y="882.45" width="195.07" height="88.34"/><rect class="cls-5" x="1500.75" y="110.37" width="291.02" height="14"/><rect class="cls-6" x="1699.28" y="54.56" width="0.63" height="2.18"/><rect class="cls-6" x="1693.66" y="56.23" width="0.63" height="2.18" transform="translate(333.96 1068.85) rotate(-38.58)"/><rect class="cls-6" x="1704.78" y="56.55" width="0.63" height="2.18" transform="translate(452.9 -1101.1) rotate(40.84)"/><rect class="cls-6" x="1708.08" y="62.14" width="0.63" height="2.18" transform="translate(1580.13 -1641.52) rotate(83.58)"/><rect class="cls-6" x="1690.03" y="62.08" width="0.63" height="2.18" transform="translate(1395.94 1728.88) rotate(-82.12)"/><rect class="cls-6" x="1698.02" y="54.51" width="0.33" height="1.21" transform="translate(20.5 323.87) rotate(-10.96)"/><rect class="cls-6" x="1700.75" y="54.51" width="0.33" height="1.21" transform="translate(50.61 -360.39) rotate(12.28)"/><rect class="cls-6" x="1701.95" y="54.76" width="0.33" height="1.21" transform="matrix(0.94, 0.34, -0.34, 0.94, 122.23, -580.43)"/><rect class="cls-6" x="1703.1" y="55.17" width="0.33" height="1.21" transform="translate(223.2 -789) rotate(27.84)"/><rect class="cls-6" x="1704.19" y="55.73" width="0.33" height="1.21" transform="translate(351.76 -982.16) rotate(35.62)"/><rect class="cls-6" x="1706.08" y="57.27" width="0.33" height="1.21" transform="translate(681.93 -1307.92) rotate(51.19)"/><rect class="cls-6" x="1706.85" y="58.22" width="0.33" height="1.21" transform="matrix(0.52, 0.86, -0.86, 0.52, 877.5, -1434.25)"/><rect class="cls-6" x="1707.49" y="59.26" width="0.33" height="1.21" transform="translate(1088.66 -1532.77) rotate(66.75)"/><rect class="cls-6" x="1707.98" y="60.38" width="0.33" height="1.21" transform="translate(1311.47 -1601.57) rotate(74.54)"/><rect class="cls-6" x="1708.52" y="61.56" width="0.33" height="1.21" transform="translate(1541.88 -1639.49) rotate(82.32)"/><rect class="cls-6" x="1708.9" y="63.8" width="0.33" height="1.21" transform="translate(1776.46 -1644.54) rotate(90.1)"/><rect class="cls-6" x="1708.9" y="65.02" width="0.33" height="1.21" transform="translate(2008.47 -1618.29) rotate(97.88)"/><rect class="cls-6" x="1708.74" y="66.23" width="0.33" height="1.21" transform="translate(2234.7 -1560.54) rotate(105.67)"/><rect class="cls-6" x="1696.88" y="54.77" width="0.33" height="1.21" transform="translate(69.35 538.74) rotate(-18.41)"/><rect class="cls-6" x="1695.78" y="55.19" width="0.33" height="1.21" transform="translate(145.45 745.22) rotate(-25.86)"/><rect class="cls-6" x="1694.74" y="55.74" width="0.33" height="1.21" transform="translate(247.43 939.91) rotate(-33.3)"/><rect class="cls-6" x="1692.29" y="57.41" width="0.33" height="1.21" transform="translate(532.72 1292.02) rotate(-48.74)"/><rect class="cls-6" x="1691.48" y="58.54" width="0.33" height="1.21" transform="translate(727.6 1450.47) rotate(-57.28)"/><rect class="cls-6" x="1690.43" y="59.79" width="0.33" height="1.21" transform="translate(943.25 1578.04) rotate(-65.83)"/><rect class="cls-6" x="1689.99" y="61.12" width="0.33" height="1.21" transform="translate(1175.42 1672.77) rotate(-74.37)"/><rect class="cls-6" x="1689.71" y="63.89" width="0.33" height="1.21" transform="translate(1668.48 1755.47) rotate(-91.46)"/><rect class="cls-6" x="1689.68" y="65.28" width="0.33" height="1.21" transform="matrix(-0.17, -0.98, 0.98, -0.17, 1918.54, 1741.48)"/><rect class="cls-6" x="1690.06" y="66.63" width="0.33" height="1.21" transform="matrix(-0.32, -0.95, 0.95, -0.32, 2164.16, 1691.04)"/><rect class="cls-6" x="1696.86" y="77.76" width="5.62" height="3.7"/><rect class="cls-6" x="1696.86" y="103.1" width="5.62" height="9.59"/><rect class="cls-6" x="1696.86" y="86.28" width="5.62" height="2.72"/><rect class="cls-6" x="1696.27" y="101.93" width="6.78" height="1.27"/><polygon class="cls-6" points="1704.09 91.36 1695.28 91.36 1696.86 89.2 1702.48 89.2 1704.09 91.36"/><polygon class="cls-6" points="1702.04 81.06 1697.29 81.06 1694.92 83.51 1697.29 85.96 1702.04 85.96 1704.42 83.51 1702.04 81.06"/><polygon class="cls-6" points="1703.11 91.62 1696.24 91.62 1692.81 96.56 1696.24 101.51 1703.11 101.51 1706.55 96.56 1703.11 91.62"/><rect class="cls-6" x="1691.24" y="92.64" width="2.81" height="8.92"/><rect class="cls-6" x="1690.42" y="93.71" width="1.62" height="6.53"/><rect class="cls-6" x="1688.27" y="95.49" width="2.32" height="3.16"/><rect class="cls-6" x="1683.11" y="96" width="1.15" height="2.8" rx="0.37"/><rect class="cls-6" x="1686.89" y="93.54" width="1.04" height="7.8"/><rect class="cls-6" x="1684.58" y="93.54" width="2.76" height="1.73" rx="0.44"/><rect class="cls-6" x="1684.58" y="96.42" width="2.76" height="1.73" rx="0.44"/><rect class="cls-6" x="1684.58" y="99.62" width="2.76" height="1.73" rx="0.44"/><circle class="cls-19" cx="1699.28" cy="64.27" r="13.34"/><path class="cls-20" d="M1689,68.13a12.28,12.28,0,0,1-.57-3.69,10.75,10.75,0,0,1,.56-3.23,10.9,10.9,0,1,1,20.68,6.89"/><polygon class="cls-6" points="1697.14 66.84 1696.01 64.93 1699.82 63.68 1705.67 60.47 1705.81 60.73 1700.04 64.01 1697.14 66.84"/><circle class="cls-21" cx="1699.2" cy="64.26" r="0.84"/><text class="cls-22" transform="translate(1695.61 72.71)">MPA</text><rect class="cls-5" x="1065.29" y="549.81" width="834.73" height="14" transform="translate(2039.47 -925.85) rotate(90)"/><rect class="cls-5" x="745" y="266.64" width="287.01" height="14"/><rect class="cls-5" x="1109.78" y="268.58" width="369.67" height="14"/><rect class="cls-6" x="1481.23" y="486.55" width="2.79" height="15.76" transform="translate(1003.73 1982.15) rotate(-90.6)"/><rect class="cls-6" x="1481.2" y="483.74" width="2.79" height="15.76" transform="matrix(-0.01, -1, 1, -0.01, 1006.51, 1979.28)"/><rect class="cls-6" x="1481.33" y="495.64" width="2.79" height="15.76" transform="translate(994.73 1991.43) rotate(-90.6)"/><rect class="cls-6" x="1481.3" y="492.83" width="2.79" height="15.76" transform="translate(997.52 1988.56) rotate(-90.6)"/><rect class="cls-5" x="726.59" y="480.57" width="304.35" height="14"/><rect class="cls-5" x="1108.63" y="480.57" width="369.43" height="14"/><rect class="cls-5" x="1109.44" y="986.54" width="362.1" height="14"/><rect class="cls-6" x="1520.59" y="230.66" width="2.97" height="9.2" transform="translate(1757.34 -1286.82) rotate(90)"/><rect class="cls-6" x="1520.74" y="206.32" width="2.68" height="9.2" transform="translate(1733 -1311.16) rotate(90)"/><rect class="cls-6" x="1466.11" y="212.12" width="34.39" height="22.59" transform="translate(1706.72 -1259.88) rotate(90)"/><polygon class="cls-6" points="1478.07 243.78 1471.5 241.12 1494.09 241.12 1487.69 243.78 1478.07 243.78"/><polygon class="cls-6" points="1478.07 203.04 1471.5 205.71 1494.09 205.71 1487.69 203.04 1478.07 203.04"/><rect class="cls-6" x="1480.95" y="238.25" width="3.01" height="18.6" transform="translate(1730 -1234.91) rotate(90)"/><rect class="cls-6" x="1480.95" y="242.37" width="3.01" height="18.6" transform="translate(1734.13 -1230.78) rotate(90)"/><rect class="cls-6" x="1480.95" y="185.89" width="3.01" height="18.6" transform="translate(1677.64 -1287.27) rotate(90)"/><rect class="cls-6" x="1480.95" y="190.01" width="3.01" height="18.6" transform="translate(1681.77 -1283.14) rotate(90)"/><rect class="cls-6" x="1489.21" y="220.73" width="14.34" height="5.51" rx="0.4" transform="translate(1719.87 -1272.89) rotate(90)"/><rect class="cls-6" x="1499.96" y="221.65" width="11.97" height="3.32" rx="0.4" transform="translate(1729.26 -1282.64) rotate(90)"/><rect class="cls-6" x="1504" y="221.63" width="11.97" height="3.57" rx="0.4" transform="translate(1733.41 -1286.56) rotate(90)"/><rect class="cls-6" x="1498.91" y="219.47" width="5.99" height="7.73" rx="0.4" transform="translate(1725.25 -1278.57) rotate(90)"/><circle class="cls-23" cx="1521.98" cy="223.5" r="11.18"/><circle class="cls-24" cx="1521.8" cy="223.3" r="7.97"/><circle class="cls-25" cx="1521.74" cy="223.48" r="10.32"/><rect class="cls-6" x="1522.84" y="208.69" width="2.76" height="1.69" transform="translate(1733.75 -1314.69) rotate(90)"/><rect class="cls-6" x="1518.54" y="208.69" width="2.76" height="1.69" transform="translate(1729.45 -1310.39) rotate(90)"/><rect class="cls-26" x="1516.37" y="221.43" width="10.75" height="3.82" transform="translate(1745.08 -1298.4) rotate(90)"/><polygon class="cls-27" points="1519.83 220.84 1519.83 217.97 1523.65 217.97 1523.65 223.65 1519.83 220.84"/><path class="cls-6" d="M1488.44,220.72l3.57-9.13a.43.43,0,0,1,.73-.11l6.12,7.66a.43.43,0,0,1-.27.69l-9.69,1.46A.42.42,0,0,1,1488.44,220.72Z"/><path class="cls-6" d="M1488.44,226.3l3.57,9.12a.42.42,0,0,0,.73.11l6.12-7.65a.43.43,0,0,0-.27-.69l-9.69-1.47A.43.43,0,0,0,1488.44,226.3Z"/><rect class="cls-6" x="1208.88" y="477.34" width="24.9" height="17.43"/><rect class="cls-28" x="1211.37" y="479.84" width="2.49" height="12.54"/><rect class="cls-28" x="1228.8" y="479.54" width="2.49" height="12.74"/><rect class="cls-28" x="1220.96" y="475.94" width="0.74" height="20.08" transform="translate(1581.14 1750.24) rotate(-127.58)"/><polygon class="cls-6" points="1209.48 473.44 1237.19 473.44 1223.34 468.14 1223.34 468.14 1223.34 470.79 1209.48 470.79 1209.48 473.44"/><rect class="cls-6" x="1208.88" y="983.84" width="24.9" height="17.43"/><rect class="cls-28" x="1211.37" y="986.33" width="2.49" height="12.54"/><rect class="cls-28" x="1228.8" y="986.04" width="2.49" height="12.74"/><rect class="cls-28" x="1220.96" y="982.43" width="0.74" height="20.08" transform="translate(1179.77 2565.66) rotate(-127.58)"/><polygon class="cls-6" points="1209.48 979.94 1237.19 979.94 1223.34 974.63 1223.34 974.63 1223.34 977.29 1209.48 977.29 1209.48 979.94"/><rect class="cls-6" x="1208.88" y="266.53" width="24.9" height="17.43"/><rect class="cls-28" x="1211.37" y="269.02" width="2.49" height="12.54"/><rect class="cls-28" x="1228.8" y="268.73" width="2.49" height="12.74"/><rect class="cls-28" x="1220.96" y="265.12" width="0.74" height="20.08" transform="translate(1748.2 1410.84) rotate(-127.58)"/><polygon class="cls-6" points="1209.48 262.63 1237.19 262.63 1223.34 257.32 1223.34 257.32 1223.34 259.98 1209.48 259.98 1209.48 262.63"/><text class="cls-7" transform="translate(956.66 256.49)">1#泵</text><text class="cls-7" transform="translate(956.66 473.61)">2#泵</text><text class="cls-7" transform="translate(956.66 977.29)">4#泵</text><text class="cls-7" transform="translate(1527.23 160.92)">出水阀门</text><text class="cls-7" transform="translate(1515.53 798.02) rotate(90)">压力控制器</text><text class="cls-8" transform="translate(1745.06 92.19)">供水入户</text><text class="cls-7" transform="translate(1664.86 159.23)">压力表</text><text class="cls-7" transform="translate(1543.59 229.69)">流量计</text><text class="cls-29" transform="translate(140.1 859.5)">水箱液位 </text><text class="cls-29" transform="translate(140.1 897.93)">出水压力 </text><text class="cls-29" transform="translate(140.1 936.18)">设定压力 </text><text class="cls-29" transform="translate(495.51 858.21)">余氯 </text><text class="cls-29" transform="translate(320.59 859.5)">PH </text><text class="cls-29" transform="translate(320.59 897.93)">湿度 </text><text class="cls-29" transform="translate(320.59 936.18)">噪音 </text><text class="cls-29" transform="translate(320.59 976.12)">浊度 </text><text class="cls-29" transform="translate(140.1 977.41)">瞬时流量 </text><text class="cls-29" transform="translate(494.51 897.93)">累计流量 </text><text class="cls-29" transform="translate(494.51 936.18)">累计电量 </text><text class="cls-29" transform="translate(495.51 976.12)">- - </text><rect class="cls-17" x="1612.46" y="847.43" width="186" height="113.65"/><text class="cls-30" transform="translate(1626.81 878.74)">状态说明 </text><text class="cls-30" transform="translate(1726.82 878.74)">运行状态 </text><text class="cls-30" transform="translate(1726.82 906.29)">停止状态 </text><text class="cls-30" transform="translate(1726.82 933.26)">故障状态 </text><path class="cls-31" d="M1705.55,866.12a7.16,7.16,0,1,0,7.16,7.16,7.16,7.16,0,0,0-7.16-7.16Zm0,13.2a6,6,0,1,1,6-6,6,6,0,0,1-6,6Zm2.87,2.89"/><path class="cls-31" d="M1701.82,872.37c-1.31.66-2.19,2.19-1.31,3.07,1.53,1.53,2.19-.66,3.28-1.32.68-.4,1.32-.87,1.32-1.31s-2-1.09-3.29-.44Zm5,2.18c-.69-.38-1.41-.69-1.79-.48s0,2.26,1.26,3.07,3,.8,3.31-.4c.56-2.09-1.66-1.57-2.78-2.19Zm-.56-1c.38.22,1.94-1.16,2-2.62s-.8-3-2-2.68c-2.1.57-.53,2.23-.51,3.51,0,.79.1,1.57.48,1.79Zm0,0"/><path class="cls-32" d="M1705.55,893.09a7.16,7.16,0,1,0,7.16,7.16,7.15,7.15,0,0,0-7.16-7.16Zm0,13.2a6,6,0,1,1,6-6,6,6,0,0,1-6,6Zm2.87,2.89"/><path class="cls-32" d="M1701.82,899.34c-1.31.66-2.19,2.19-1.31,3.07,1.53,1.53,2.19-.66,3.28-1.32.68-.4,1.32-.87,1.32-1.31s-2-1.1-3.29-.44Zm5,2.18c-.69-.38-1.41-.7-1.79-.48s0,2.25,1.26,3.06,3,.81,3.31-.39c.56-2.1-1.66-1.57-2.78-2.19Zm-.56-1c.38.22,1.94-1.16,2-2.63s-.8-3-2-2.67c-2.1.56-.53,2.23-.51,3.5,0,.79.1,1.58.48,1.8Zm0,0"/><path class="cls-33" d="M1705.55,920.05a7.17,7.17,0,1,0,7.16,7.17,7.16,7.16,0,0,0-7.16-7.17Zm0,13.21a6,6,0,1,1,6-6,6,6,0,0,1-6,6Zm2.87,2.89"/><path class="cls-33" d="M1701.82,926.31c-1.31.66-2.19,2.19-1.31,3.06,1.53,1.54,2.19-.65,3.28-1.31.68-.41,1.32-.88,1.32-1.31s-2-1.1-3.29-.44Zm5,2.18c-.69-.38-1.41-.7-1.79-.48s0,2.25,1.26,3.06,3,.8,3.31-.39c.56-2.1-1.66-1.57-2.78-2.19Zm-.56-1c.38.21,1.94-1.16,2-2.63s-.8-3-2-2.67c-2.1.56-.53,2.22-.51,3.5,0,.79.1,1.58.48,1.8Zm0,0"/><rect class="cls-17" x="1109.85" y="374.7" width="195.07" height="88.34"/><rect class="cls-34" x="1119.46" y="426.51" width="83.11" height="30.2"/><path class="cls-6" d="M1169.57,434.47h1.84v6.58h5.88v-6.58h1.83v15.75h-1.83v-7.4h-5.88v7.4h-1.84Z"/><path class="cls-6" d="M1182.36,449.16l7.17-9h-6.37v-1.61h8.95v1.06l-7.18,9h7.37v1.64h-9.94Z"/><rect class="cls-35" x="1211.07" y="390.44" width="83.11" height="30.2"/><path class="cls-6" d="M1273.18,397.41H1275V404h5.88v-6.58h1.84v15.74h-1.84v-7.39H1275v7.39h-1.83Z"/><rect class="cls-36" x="1211.07" y="897.18" width="83.11" height="30.2"/><path class="cls-6" d="M1273.18,904.14H1275v6.58h5.88v-6.58h1.84v15.75h-1.84v-7.4H1275v7.4h-1.83Z"/><rect class="cls-37" x="1119.46" y="390.23" width="83.11" height="30.2"/><path class="cls-6" d="M1173.92,398.2h2.3l5.3,15.74h-2.16l-2.71-8.78c-.55-1.76-1.08-3.48-1.56-5.31H1175c-.51,1.83-1,3.55-1.56,5.31l-2.76,8.78h-2.07Zm-2.5,9.33h7.22v1.64h-7.22Z"/><rect class="cls-38" x="1119.46" y="934.26" width="83.11" height="30.2"/><path class="cls-6" d="M1169.57,942.22h1.84v6.58h5.88v-6.58h1.83V958h-1.83v-7.39h-5.88V958h-1.84Z"/><path class="cls-6" d="M1182.36,956.91l7.17-9h-6.37V946.3h8.95v1.06l-7.18,9h7.37V958h-9.94Z"/><rect class="cls-39" x="1119.46" y="897.98" width="83.11" height="30.2"/><path class="cls-6" d="M1173.92,906h2.3l5.3,15.74h-2.16l-2.71-8.78c-.55-1.75-1.08-3.48-1.56-5.31H1175c-.51,1.83-1,3.56-1.56,5.31l-2.76,8.78h-2.07Zm-2.5,9.34h7.22v1.63h-7.22Z"/><rect class="cls-17" x="1109.85" y="161.83" width="195.07" height="88.34"/><rect class="cls-40" x="1119.46" y="213.64" width="83.11" height="30.2"/><path class="cls-6" d="M1169.57,221.6h1.84v6.58h5.88V221.6h1.83v15.75h-1.83V230h-5.88v7.39h-1.84Z"/><path class="cls-6" d="M1182.36,236.29l7.17-9h-6.37v-1.61h8.95v1.06l-7.18,9h7.37v1.63h-9.94Z"/><rect class="cls-41" x="1211.07" y="177.57" width="83.11" height="30.2"/><path class="cls-6" d="M1274.18,185.54H1276v6.58h5.88v-6.58h1.83v15.75h-1.83v-7.4H1276v7.4h-1.84Z"/><rect class="cls-42" x="1656.9" y="170.48" width="83.11" height="30.2"/><rect class="cls-43" x="1534.8" y="242.84" width="83.11" height="30.2"/><rect class="cls-44" x="1119.46" y="177.36" width="83.11" height="30.2"/><path class="cls-6" d="M1173.92,185.33h2.3l5.3,15.74h-2.16l-2.71-8.78c-.55-1.75-1.08-3.48-1.56-5.3H1175c-.51,1.82-1,3.55-1.56,5.3l-2.76,8.78h-2.07Zm-2.5,9.34h7.22v1.63h-7.22Z"/><polygon class="cls-9" points="812.33 300.77 843.81 300.77 849.83 300.77 846.36 308.95 869.5 299.18 846.36 289.41 849.83 297.6 843.81 297.6 812.33 297.6 812.33 300.77"/><polygon class="cls-9" points="1385.01 300.77 1416.49 300.77 1422.52 300.77 1419.04 308.95 1442.19 299.18 1419.04 289.41 1422.52 297.6 1416.49 297.6 1385.01 297.6 1385.01 300.77"/><polygon class="cls-9" points="1760.47 153.43 1791.95 153.43 1797.97 153.43 1794.5 161.62 1817.64 151.85 1794.5 142.08 1797.97 150.26 1791.95 150.26 1760.47 150.26 1760.47 153.43"/><polygon class="cls-9" points="812.33 513.87 843.81 513.87 849.83 513.87 846.36 522.05 869.5 512.28 846.36 502.51 849.83 510.69 843.81 510.69 812.33 510.69 812.33 513.87"/><polygon class="cls-9" points="1385.01 513.87 1416.49 513.87 1422.52 513.87 1419.04 522.05 1442.19 512.28 1419.04 502.51 1422.52 510.69 1416.49 510.69 1385.01 510.69 1385.01 513.87"/><polygon class="cls-9" points="812.33 1030.94 843.81 1030.94 849.83 1030.94 846.36 1039.13 869.5 1029.36 846.36 1019.59 849.83 1027.77 843.81 1027.77 812.33 1027.77 812.33 1030.94"/><polygon class="cls-9" points="1385.01 1030.94 1416.49 1030.94 1422.52 1030.94 1419.04 1039.13 1442.19 1029.36 1419.04 1019.59 1422.52 1027.77 1416.49 1027.77 1385.01 1027.77 1385.01 1030.94"/><polygon class="cls-9" points="1511.59 522.7 1511.59 491.22 1511.59 485.2 1519.77 488.67 1510 465.53 1500.23 488.67 1508.41 485.2 1508.41 491.22 1508.41 522.7 1511.59 522.7"/><path class="cls-5" d="M746.42,281.08l.12-14.86a26.83,26.83,0,0,0-26.94,27.56h14.26a12.67,12.67,0,0,1,2.78-8.18A13,13,0,0,1,746.42,281.08Z"/><rect class="cls-5" x="724.69" y="287.11" width="3.8" height="16.56" transform="translate(1021.98 -431.21) rotate(90)"/><rect class="cls-5" x="745.83" y="265.45" width="3.8" height="16.56"/><path class="cls-5" d="M1502.29,125.15l.12-14.87a26.81,26.81,0,0,0-26.94,27.56h14.26a12.62,12.62,0,0,1,2.78-8.18A13,13,0,0,1,1502.29,125.15Z"/><rect class="cls-5" x="1480.56" y="131.17" width="3.8" height="16.56" transform="translate(1621.91 -1343.01) rotate(90)"/><rect class="cls-5" x="1501.7" y="109.52" width="3.8" height="16.56"/><rect class="cls-5" x="747.87" y="986.54" width="282.99" height="14"/><path class="cls-5" d="M734.69,974.1,719.82,974a26.85,26.85,0,0,0,27.57,26.94V986.65a12.58,12.58,0,0,1-8.19-2.78A13,13,0,0,1,734.69,974.1Z"/><rect class="cls-5" x="747.09" y="985.64" width="3.8" height="16.56"/><rect class="cls-5" x="725.44" y="964.5" width="3.8" height="16.56" transform="translate(-245.44 1700.12) rotate(-90)"/><path class="cls-5" d="M1463.21,986.83l-.12,14.86A26.81,26.81,0,0,0,1490,974.13h-14.26a12.61,12.61,0,0,1-2.78,8.18A13,13,0,0,1,1463.21,986.83Z"/><rect class="cls-5" x="1481.14" y="964.25" width="3.8" height="16.56" transform="translate(510.51 2455.57) rotate(-90)"/><rect class="cls-5" x="1460" y="985.9" width="3.8" height="16.56" transform="translate(2923.8 1988.36) rotate(-180)"/><rect class="cls-45" x="126.53" y="835.06" width="529.98" height="153.55"/><rect class="cls-45" x="126.52" y="835.67" width="529.98" height="38.16"/><rect class="cls-45" x="126.52" y="874.1" width="529.98" height="38.16"/><rect class="cls-45" x="126.52" y="912.35" width="529.98" height="38.16"/><rect class="cls-45" x="126.52" y="950.45" width="529.98" height="38.16"/><rect class="cls-6" x="922.7" y="265.76" width="3.48" height="15.76"/><rect class="cls-6" x="927.46" y="265.76" width="3.48" height="15.76"/><rect class="cls-6" x="889.55" y="265.76" width="3.48" height="15.76"/><rect class="cls-6" x="894.31" y="265.76" width="3.48" height="15.76"/><circle class="cls-10" cx="909.9" cy="231.75" r="12.98"/><rect class="cls-6" x="903.64" y="221.06" width="1.83" height="10.15" rx="0.91" transform="translate(1704.08 -253.58) rotate(135)"/><rect class="cls-6" x="914.87" y="232.29" width="1.83" height="10.15" rx="0.91" transform="translate(1731.19 -242.35) rotate(135)"/><rect class="cls-6" x="907" y="215.83" width="6.59" height="3.25"/><polygon class="cls-6" points="909.15 253.17 907.61 253.64 904.04 247.52 905.59 247.06 909.15 253.17"/><polygon class="cls-6" points="912.23 253.17 913.77 253.64 916.94 247.56 915.8 247.06 912.23 253.17"/><rect class="cls-6" x="909.74" y="246.75" width="1.67" height="6.63" transform="translate(1821.16 500.14) rotate(180)"/><rect class="cls-6" x="922.14" y="227.45" width="3.69" height="7.92"/><rect class="cls-6" x="903.56" y="244.93" width="13.63" height="3.72" rx="0.72"/><rect class="cls-6" x="907.5" y="254.75" width="6.45" height="7.65" rx="0.72"/><rect class="cls-6" x="903.81" y="252.27" width="13.73" height="1.57" rx="0.44"/><rect class="cls-6" x="903.81" y="253.96" width="13.73" height="1.57" rx="0.42"/><rect class="cls-6" x="893.52" y="232.23" width="3.03" height="3.14"/><rect class="cls-6" x="893.52" y="227.96" width="3.03" height="3.14"/><circle class="cls-11" cx="910.18" cy="231.76" r="3.33"/><circle class="cls-12" cx="910.22" cy="231.75" r="2.22"/><rect class="cls-6" x="914.87" y="221.06" width="1.83" height="10.15" rx="0.91" transform="translate(1403.44 1033.6) rotate(-135)"/><rect class="cls-6" x="903.64" y="232.29" width="1.83" height="10.15" rx="0.91" transform="translate(1376.33 1044.82) rotate(-135)"/><rect class="cls-6" x="903.71" y="258.53" width="13.48" height="24.85" rx="4.98"/><rect class="cls-6" x="915.97" y="257.03" width="3.31" height="27.82" rx="1.66"/><rect class="cls-6" x="901.71" y="257.03" width="3.31" height="27.82" rx="1.66"/><circle class="cls-13" cx="910.22" cy="231.75" r="1.33"/><circle class="cls-14" cx="910.22" cy="231.75" r="0.94"/><rect class="cls-6" x="1580.91" y="108.82" width="3.48" height="15.76"/><rect class="cls-6" x="1585.67" y="108.82" width="3.48" height="15.76"/><rect class="cls-6" x="1547.76" y="108.82" width="3.48" height="15.76"/><rect class="cls-6" x="1552.52" y="108.82" width="3.48" height="15.76"/><circle class="cls-10" cx="1568.11" cy="74.82" r="12.98"/><rect class="cls-6" x="1561.86" y="64.12" width="1.83" height="10.15" rx="0.91" transform="translate(2716.75 -986.91) rotate(135)"/><rect class="cls-6" x="1573.08" y="75.35" width="1.83" height="10.15" rx="0.91" transform="translate(2743.86 -975.68) rotate(135)"/><rect class="cls-6" x="1565.22" y="58.9" width="6.59" height="3.25"/><polygon class="cls-6" points="1567.36 96.24 1565.82 96.71 1562.25 90.59 1563.8 90.12 1567.36 96.24"/><polygon class="cls-6" points="1570.44 96.24 1571.98 96.71 1575.16 90.63 1574.01 90.12 1570.44 96.24"/><rect class="cls-6" x="1567.96" y="89.82" width="1.67" height="6.63" transform="translate(3137.59 186.27) rotate(180)"/><rect class="cls-6" x="1580.36" y="70.52" width="3.69" height="7.92"/><rect class="cls-6" x="1561.77" y="87.99" width="13.63" height="3.72" rx="0.72"/><rect class="cls-6" x="1565.71" y="97.82" width="6.45" height="7.65" rx="0.72"/><rect class="cls-6" x="1562.02" y="95.33" width="13.73" height="1.57" rx="0.44"/><rect class="cls-6" x="1562.02" y="97.03" width="13.73" height="1.57" rx="0.42"/><rect class="cls-6" x="1551.73" y="75.29" width="3.03" height="3.14"/><rect class="cls-6" x="1551.73" y="71.03" width="3.03" height="3.14"/><circle class="cls-11" cx="1568.39" cy="74.82" r="3.33"/><circle class="cls-12" cx="1568.43" cy="74.82" r="2.22"/><rect class="cls-6" x="1573.08" y="64.12" width="1.83" height="10.15" rx="0.91" transform="translate(2638.05 1231.12) rotate(-135)"/><rect class="cls-6" x="1561.86" y="75.35" width="1.83" height="10.15" rx="0.91" transform="translate(2610.95 1242.34) rotate(-135)"/><rect class="cls-6" x="1561.93" y="101.6" width="13.48" height="24.85" rx="4.98"/><rect class="cls-6" x="1574.18" y="100.1" width="3.31" height="27.82" rx="1.66"/><rect class="cls-6" x="1559.92" y="100.1" width="3.31" height="27.82" rx="1.66"/><circle class="cls-13" cx="1568.43" cy="74.82" r="1.33"/><circle class="cls-14" cx="1568.43" cy="74.82" r="0.94"/><rect class="cls-6" x="1351.61" y="265.76" width="3.48" height="15.76"/><rect class="cls-6" x="1356.37" y="265.76" width="3.48" height="15.76"/><rect class="cls-6" x="1318.46" y="265.76" width="3.48" height="15.76"/><rect class="cls-6" x="1323.22" y="265.76" width="3.48" height="15.76"/><circle class="cls-10" cx="1338.81" cy="231.75" r="12.98"/><rect class="cls-6" x="1332.55" y="221.06" width="1.83" height="10.15" rx="0.91" transform="translate(2436.28 -556.86) rotate(135)"/><rect class="cls-6" x="1343.78" y="232.29" width="1.83" height="10.15" rx="0.91" transform="translate(2463.38 -545.64) rotate(135)"/><rect class="cls-6" x="1335.91" y="215.83" width="6.59" height="3.25"/><polygon class="cls-6" points="1338.06 253.17 1336.52 253.64 1332.95 247.52 1334.49 247.06 1338.06 253.17"/><polygon class="cls-6" points="1341.14 253.17 1342.68 253.64 1345.86 247.56 1344.71 247.06 1341.14 253.17"/><rect class="cls-6" x="1338.66" y="246.75" width="1.67" height="6.63" transform="translate(2678.99 500.14) rotate(180)"/><rect class="cls-6" x="1351.06" y="227.45" width="3.69" height="7.92"/><rect class="cls-6" x="1332.47" y="244.93" width="13.63" height="3.72" rx="0.72"/><rect class="cls-6" x="1336.41" y="254.75" width="6.45" height="7.65" rx="0.72"/><rect class="cls-6" x="1332.72" y="252.27" width="13.73" height="1.57" rx="0.44"/><rect class="cls-6" x="1332.72" y="253.96" width="13.73" height="1.57" rx="0.42"/><rect class="cls-6" x="1322.43" y="232.23" width="3.03" height="3.14"/><rect class="cls-6" x="1322.43" y="227.96" width="3.03" height="3.14"/><circle class="cls-11" cx="1339.09" cy="231.76" r="3.33"/><circle class="cls-12" cx="1339.13" cy="231.75" r="2.22"/><rect class="cls-6" x="1343.78" y="221.06" width="1.83" height="10.15" rx="0.91" transform="translate(2135.63 1336.88) rotate(-135)"/><rect class="cls-6" x="1332.55" y="232.29" width="1.83" height="10.15" rx="0.91" transform="translate(2108.53 1348.11) rotate(-135)"/><rect class="cls-6" x="1332.63" y="258.53" width="13.48" height="24.85" rx="4.98"/><rect class="cls-6" x="1344.88" y="257.03" width="3.31" height="27.82" rx="1.66"/><rect class="cls-6" x="1330.62" y="257.03" width="3.31" height="27.82" rx="1.66"/><circle class="cls-13" cx="1339.13" cy="231.75" r="1.33"/><circle class="cls-14" cx="1339.13" cy="231.75" r="0.94"/><rect class="cls-6" x="922.7" y="479.45" width="3.48" height="15.76"/><rect class="cls-6" x="927.46" y="479.45" width="3.48" height="15.76"/><rect class="cls-6" x="889.55" y="479.45" width="3.48" height="15.76"/><rect class="cls-6" x="894.31" y="479.45" width="3.48" height="15.76"/><circle class="cls-10" cx="909.9" cy="445.45" r="12.98"/><rect class="cls-6" x="903.64" y="434.76" width="1.83" height="10.15" rx="0.91" transform="translate(1855.19 111.22) rotate(135)"/><rect class="cls-6" x="914.87" y="445.99" width="1.83" height="10.15" rx="0.91" transform="translate(1882.29 122.45) rotate(135)"/><rect class="cls-6" x="907" y="429.53" width="6.59" height="3.25"/><polygon class="cls-6" points="909.15 466.87 907.61 467.34 904.04 461.22 905.59 460.75 909.15 466.87"/><polygon class="cls-6" points="912.23 466.87 913.77 467.34 916.94 461.26 915.8 460.75 912.23 466.87"/><rect class="cls-6" x="909.74" y="460.45" width="1.67" height="6.63" transform="translate(1821.16 927.54) rotate(180)"/><rect class="cls-6" x="922.14" y="441.15" width="3.69" height="7.92"/><rect class="cls-6" x="903.56" y="458.63" width="13.63" height="3.72" rx="0.72"/><rect class="cls-6" x="907.5" y="468.45" width="6.45" height="7.65" rx="0.72"/><rect class="cls-6" x="903.81" y="465.97" width="13.73" height="1.57" rx="0.44"/><rect class="cls-6" x="903.81" y="467.66" width="13.73" height="1.57" rx="0.42"/><rect class="cls-6" x="893.52" y="445.93" width="3.03" height="3.14"/><rect class="cls-6" x="893.52" y="441.66" width="3.03" height="3.14"/><circle class="cls-11" cx="910.18" cy="445.45" r="3.33"/><circle class="cls-12" cx="910.22" cy="445.45" r="2.22"/><rect class="cls-6" x="914.87" y="434.76" width="1.83" height="10.15" rx="0.91" transform="translate(1252.33 1398.4) rotate(-135)"/><rect class="cls-6" x="903.64" y="445.99" width="1.83" height="10.15" rx="0.91" transform="translate(1225.23 1409.63) rotate(-135)"/><rect class="cls-6" x="903.71" y="472.23" width="13.48" height="24.85" rx="4.98"/><rect class="cls-6" x="915.97" y="470.73" width="3.31" height="27.82" rx="1.66"/><rect class="cls-6" x="901.71" y="470.73" width="3.31" height="27.82" rx="1.66"/><circle class="cls-13" cx="910.22" cy="445.45" r="1.33"/><circle class="cls-14" cx="910.22" cy="445.45" r="0.94"/><rect class="cls-6" x="1351.61" y="479.45" width="3.48" height="15.76"/><rect class="cls-6" x="1356.37" y="479.45" width="3.48" height="15.76"/><rect class="cls-6" x="1318.46" y="479.45" width="3.48" height="15.76"/><rect class="cls-6" x="1323.22" y="479.45" width="3.48" height="15.76"/><circle class="cls-10" cx="1338.81" cy="445.45" r="12.98"/><rect class="cls-6" x="1332.55" y="434.76" width="1.83" height="10.15" rx="0.91" transform="translate(2587.38 -192.06) rotate(135)"/><rect class="cls-6" x="1343.78" y="445.99" width="1.83" height="10.15" rx="0.91" transform="translate(2614.49 -180.84) rotate(135)"/><rect class="cls-6" x="1335.91" y="429.53" width="6.59" height="3.25"/><polygon class="cls-6" points="1338.06 466.87 1336.52 467.34 1332.95 461.22 1334.49 460.75 1338.06 466.87"/><polygon class="cls-6" points="1341.14 466.87 1342.68 467.34 1345.86 461.26 1344.71 460.75 1341.14 466.87"/><rect class="cls-6" x="1338.66" y="460.45" width="1.67" height="6.63" transform="translate(2678.99 927.54) rotate(180)"/><rect class="cls-6" x="1351.06" y="441.15" width="3.69" height="7.92"/><rect class="cls-6" x="1332.47" y="458.63" width="13.63" height="3.72" rx="0.72"/><rect class="cls-6" x="1336.41" y="468.45" width="6.45" height="7.65" rx="0.72"/><rect class="cls-6" x="1332.72" y="465.97" width="13.73" height="1.57" rx="0.44"/><rect class="cls-6" x="1332.72" y="467.66" width="13.73" height="1.57" rx="0.42"/><rect class="cls-6" x="1322.43" y="445.93" width="3.03" height="3.14"/><rect class="cls-6" x="1322.43" y="441.66" width="3.03" height="3.14"/><circle class="cls-11" cx="1339.09" cy="445.45" r="3.33"/><circle class="cls-12" cx="1339.13" cy="445.45" r="2.22"/><rect class="cls-6" x="1343.78" y="434.76" width="1.83" height="10.15" rx="0.91" transform="translate(1984.52 1701.69) rotate(-135)"/><rect class="cls-6" x="1332.55" y="445.99" width="1.83" height="10.15" rx="0.91" transform="translate(1957.42 1712.91) rotate(-135)"/><rect class="cls-6" x="1332.63" y="472.23" width="13.48" height="24.85" rx="4.98"/><rect class="cls-6" x="1344.88" y="470.73" width="3.31" height="27.82" rx="1.66"/><rect class="cls-6" x="1330.62" y="470.73" width="3.31" height="27.82" rx="1.66"/><circle class="cls-13" cx="1339.13" cy="445.45" r="1.33"/><circle class="cls-14" cx="1339.13" cy="445.45" r="0.94"/><rect class="cls-5" x="726.59" y="774.76" width="304.35" height="14"/><rect class="cls-5" x="1108.63" y="774.76" width="369.43" height="14"/><rect class="cls-6" x="1208.88" y="771.54" width="24.9" height="17.43"/><rect class="cls-28" x="1211.37" y="774.03" width="2.49" height="12.54"/><rect class="cls-28" x="1228.8" y="773.73" width="2.49" height="12.74"/><rect class="cls-28" x="1220.96" y="770.13" width="0.74" height="20.08" transform="translate(1348.01 2223.86) rotate(-127.58)"/><polygon class="cls-6" points="1209.48 767.63 1237.19 767.63 1223.34 762.33 1223.34 762.33 1223.34 764.98 1209.48 764.98 1209.48 767.63"/><text class="cls-7" transform="translate(956.66 767.8)">3#泵</text><rect class="cls-17" x="1109.85" y="668.89" width="195.07" height="88.34"/><rect class="cls-46" x="1119.46" y="720.7" width="83.11" height="30.2"/><path class="cls-6" d="M1169.57,728.66h1.84v6.58h5.88v-6.58h1.83v15.75h-1.83V737h-5.88v7.4h-1.84Z"/><path class="cls-6" d="M1182.36,743.35l7.17-9h-6.37v-1.61h8.95v1.06l-7.18,9h7.37v1.63h-9.94Z"/><rect class="cls-47" x="1211.07" y="684.63" width="83.11" height="30.2"/><path class="cls-6" d="M1273.18,691.6H1275v6.58h5.88V691.6h1.84v15.74h-1.84V700H1275v7.39h-1.83Z"/><rect class="cls-48" x="1119.46" y="684.42" width="83.11" height="30.2"/><path class="cls-6" d="M1173.92,692.39h2.3l5.3,15.74h-2.16l-2.71-8.78c-.55-1.75-1.08-3.48-1.56-5.31H1175c-.51,1.83-1,3.56-1.56,5.31l-2.76,8.78h-2.07Zm-2.5,9.33h7.22v1.64h-7.22Z"/><polygon class="cls-9" points="812.33 808.05 843.81 808.05 849.83 808.05 846.36 816.24 869.5 806.47 846.36 796.7 849.83 804.88 843.81 804.88 812.33 804.88 812.33 808.05"/><polygon class="cls-9" points="1385.01 806.05 1416.49 806.05 1422.52 806.05 1419.04 814.24 1442.19 804.47 1419.04 794.7 1422.52 802.88 1416.49 802.88 1385.01 802.88 1385.01 806.05"/><rect class="cls-6" x="922.7" y="773.64" width="3.48" height="15.76"/><rect class="cls-6" x="927.46" y="773.64" width="3.48" height="15.76"/><rect class="cls-6" x="889.55" y="773.64" width="3.48" height="15.76"/><rect class="cls-6" x="894.31" y="773.64" width="3.48" height="15.76"/><circle class="cls-10" cx="909.9" cy="739.64" r="12.98"/><rect class="cls-6" x="903.64" y="728.95" width="1.83" height="10.15" rx="0.91" transform="translate(2063.21 613.44) rotate(135)"/><rect class="cls-6" x="914.87" y="740.18" width="1.83" height="10.15" rx="0.91" transform="translate(2090.32 624.67) rotate(135)"/><rect class="cls-6" x="907" y="723.72" width="6.59" height="3.25"/><polygon class="cls-6" points="909.15 761.06 907.61 761.53 904.04 755.41 905.59 754.95 909.15 761.06"/><polygon class="cls-6" points="912.23 761.06 913.77 761.53 916.94 755.45 915.8 754.95 912.23 761.06"/><rect class="cls-6" x="909.74" y="754.64" width="1.67" height="6.63" transform="translate(1821.16 1515.92) rotate(180)"/><rect class="cls-6" x="922.14" y="735.34" width="3.69" height="7.92"/><rect class="cls-6" x="903.56" y="752.82" width="13.63" height="3.72" rx="0.72"/><rect class="cls-6" x="907.5" y="762.64" width="6.45" height="7.65" rx="0.72"/><rect class="cls-6" x="903.81" y="760.16" width="13.73" height="1.57" rx="0.44"/><rect class="cls-6" x="903.81" y="761.85" width="13.73" height="1.57" rx="0.42"/><rect class="cls-6" x="893.52" y="740.12" width="3.03" height="3.14"/><rect class="cls-6" x="893.52" y="735.85" width="3.03" height="3.14"/><circle class="cls-11" cx="910.18" cy="739.65" r="3.33"/><circle class="cls-12" cx="910.22" cy="739.64" r="2.22"/><rect class="cls-6" x="914.87" y="728.95" width="1.83" height="10.15" rx="0.91" transform="translate(1044.31 1900.62) rotate(-135)"/><rect class="cls-6" x="903.64" y="740.18" width="1.83" height="10.15" rx="0.91" transform="translate(1017.2 1911.84) rotate(-135)"/><rect class="cls-6" x="903.71" y="766.42" width="13.48" height="24.85" rx="4.98"/><rect class="cls-6" x="915.97" y="764.92" width="3.31" height="27.82" rx="1.66"/><rect class="cls-6" x="901.71" y="764.92" width="3.31" height="27.82" rx="1.66"/><circle class="cls-13" cx="910.22" cy="739.64" r="1.33"/><circle class="cls-14" cx="910.22" cy="739.64" r="0.94"/><rect class="cls-6" x="1351.61" y="773.64" width="3.48" height="15.76"/><rect class="cls-6" x="1356.37" y="773.64" width="3.48" height="15.76"/><rect class="cls-6" x="1318.46" y="773.64" width="3.48" height="15.76"/><rect class="cls-6" x="1323.22" y="773.64" width="3.48" height="15.76"/><circle class="cls-10" cx="1338.81" cy="739.64" r="12.98"/><rect class="cls-6" x="1332.55" y="728.95" width="1.83" height="10.15" rx="0.91" transform="translate(2795.41 310.17) rotate(135)"/><rect class="cls-6" x="1343.78" y="740.18" width="1.83" height="10.15" rx="0.91" transform="translate(2822.51 321.38) rotate(135)"/><rect class="cls-6" x="1335.91" y="723.72" width="6.59" height="3.25"/><polygon class="cls-6" points="1338.06 761.06 1336.52 761.53 1332.95 755.41 1334.49 754.95 1338.06 761.06"/><polygon class="cls-6" points="1341.14 761.06 1342.68 761.53 1345.86 755.45 1344.71 754.95 1341.14 761.06"/><rect class="cls-6" x="1338.66" y="754.64" width="1.67" height="6.63" transform="translate(2678.99 1515.92) rotate(180)"/><rect class="cls-6" x="1351.06" y="735.34" width="3.69" height="7.92"/><rect class="cls-6" x="1332.47" y="752.82" width="13.63" height="3.72" rx="0.72"/><rect class="cls-6" x="1336.41" y="762.64" width="6.45" height="7.65" rx="0.72"/><rect class="cls-6" x="1332.72" y="760.16" width="13.73" height="1.57" rx="0.44"/><rect class="cls-6" x="1332.72" y="761.85" width="13.73" height="1.57" rx="0.42"/><rect class="cls-6" x="1322.43" y="740.12" width="3.03" height="3.14"/><rect class="cls-6" x="1322.43" y="735.85" width="3.03" height="3.14"/><circle class="cls-11" cx="1339.09" cy="739.65" r="3.33"/><circle class="cls-12" cx="1339.13" cy="739.64" r="2.22"/><rect class="cls-6" x="1343.78" y="728.95" width="1.83" height="10.15" rx="0.91" transform="translate(1776.5 2203.9) rotate(-135)"/><rect class="cls-6" x="1332.55" y="740.18" width="1.83" height="10.15" rx="0.91" transform="translate(1749.4 2215.13) rotate(-135)"/><rect class="cls-6" x="1332.63" y="766.42" width="13.48" height="24.85" rx="4.98"/><rect class="cls-6" x="1344.88" y="764.92" width="3.31" height="27.82" rx="1.66"/><rect class="cls-6" x="1330.62" y="764.92" width="3.31" height="27.82" rx="1.66"/><circle class="cls-13" cx="1339.13" cy="739.64" r="1.33"/><circle class="cls-14" cx="1339.13" cy="739.64" r="0.94"/><rect class="cls-5" x="726.59" y="580.12" width="753.92" height="14"/><rect class="cls-6" x="897.88" y="577.89" width="24.9" height="17.43"/><rect class="cls-28" x="900.37" y="580.38" width="2.49" height="12.54"/><rect class="cls-28" x="917.8" y="580.09" width="2.49" height="12.74"/><rect class="cls-28" x="909.96" y="576.49" width="0.74" height="20.08" transform="translate(1000.77 1665.66) rotate(-127.58)"/><polygon class="cls-6" points="898.48 573.99 926.19 573.99 912.34 568.68 912.34 568.68 912.34 571.34 898.48 571.34 898.48 573.99"/><polygon class="cls-9" points="929.33 614.41 960.81 614.41 966.83 614.41 963.36 622.6 986.5 612.83 963.36 603.06 966.83 611.24 960.81 611.24 929.33 611.24 929.33 614.41"/><polygon class="cls-9" points="1278.35 614.41 1309.83 614.41 1315.85 614.41 1312.38 622.6 1335.52 612.83 1312.38 603.06 1315.85 611.24 1309.83 611.24 1278.35 611.24 1278.35 614.41"/><rect class="cls-6" x="1242.61" y="579" width="3.48" height="15.76"/><rect class="cls-6" x="1247.37" y="579" width="3.48" height="15.76"/><rect class="cls-6" x="1209.46" y="579" width="3.48" height="15.76"/><rect class="cls-6" x="1214.22" y="579" width="3.48" height="15.76"/><circle class="cls-10" cx="1229.81" cy="545" r="12.98"/><rect class="cls-6" x="1223.55" y="534.31" width="1.83" height="10.15" rx="0.91" transform="translate(2471.7 54.95) rotate(135)"/><rect class="cls-6" x="1234.78" y="545.53" width="1.83" height="10.15" rx="0.91" transform="translate(2498.8 66.17) rotate(135)"/><rect class="cls-6" x="1226.91" y="529.08" width="6.59" height="3.25"/><polygon class="cls-6" points="1229.06 566.42 1227.52 566.89 1223.95 560.77 1225.49 560.3 1229.06 566.42"/><polygon class="cls-6" points="1232.14 566.42 1233.68 566.89 1236.86 560.81 1235.71 560.3 1232.14 566.42"/><rect class="cls-6" x="1229.66" y="560" width="1.67" height="6.63" transform="translate(2460.99 1126.63) rotate(180)"/><rect class="cls-6" x="1242.06" y="540.7" width="3.69" height="7.92"/><rect class="cls-6" x="1223.47" y="558.17" width="13.63" height="3.72" rx="0.72"/><rect class="cls-6" x="1227.41" y="568" width="6.45" height="7.65" rx="0.72"/><rect class="cls-6" x="1223.72" y="565.51" width="13.73" height="1.57" rx="0.44"/><rect class="cls-6" x="1223.72" y="567.21" width="13.73" height="1.57" rx="0.42"/><rect class="cls-6" x="1213.43" y="545.48" width="3.03" height="3.14"/><rect class="cls-6" x="1213.43" y="541.21" width="3.03" height="3.14"/><circle class="cls-11" cx="1230.09" cy="545" r="3.33"/><circle class="cls-12" cx="1230.13" cy="545" r="2.22"/><rect class="cls-6" x="1234.78" y="534.31" width="1.83" height="10.15" rx="0.91" transform="translate(1728.05 1794.56) rotate(-135)"/><rect class="cls-6" x="1223.55" y="545.53" width="1.83" height="10.15" rx="0.91" transform="translate(1700.96 1805.78) rotate(-135)"/><rect class="cls-6" x="1223.63" y="571.78" width="13.48" height="24.85" rx="4.98"/><rect class="cls-6" x="1235.88" y="570.28" width="3.31" height="27.82" rx="1.66"/><rect class="cls-6" x="1221.62" y="570.28" width="3.31" height="27.82" rx="1.66"/><circle class="cls-13" cx="1230.13" cy="545" r="1.33"/><circle class="cls-14" cx="1230.13" cy="545" r="0.94"/><rect class="cls-6" x="922.7" y="985.87" width="3.48" height="15.76"/><rect class="cls-6" x="927.46" y="985.87" width="3.48" height="15.76"/><rect class="cls-6" x="889.55" y="985.87" width="3.48" height="15.76"/><rect class="cls-6" x="894.31" y="985.87" width="3.48" height="15.76"/><circle class="cls-10" cx="909.9" cy="951.87" r="12.98"/><rect class="cls-6" x="903.64" y="941.18" width="1.83" height="10.15" rx="0.91" transform="translate(2213.28 975.74) rotate(135)"/><rect class="cls-6" x="914.87" y="952.41" width="1.83" height="10.15" rx="0.91" transform="translate(2240.39 986.97) rotate(135)"/><rect class="cls-6" x="907" y="935.95" width="6.59" height="3.25"/><polygon class="cls-6" points="909.15 973.29 907.61 973.76 904.04 967.64 905.59 967.17 909.15 973.29"/><polygon class="cls-6" points="912.23 973.29 913.77 973.76 916.94 967.68 915.8 967.17 912.23 973.29"/><rect class="cls-6" x="909.74" y="966.87" width="1.67" height="6.63" transform="translate(1821.16 1940.38) rotate(180)"/><rect class="cls-6" x="922.14" y="947.57" width="3.69" height="7.92"/><rect class="cls-6" x="903.56" y="965.05" width="13.63" height="3.72" rx="0.72"/><rect class="cls-6" x="907.5" y="974.87" width="6.45" height="7.65" rx="0.72"/><rect class="cls-6" x="903.81" y="972.39" width="13.73" height="1.57" rx="0.44"/><rect class="cls-6" x="903.81" y="974.08" width="13.73" height="1.57" rx="0.42"/><rect class="cls-6" x="893.52" y="952.35" width="3.03" height="3.14"/><rect class="cls-6" x="893.52" y="948.08" width="3.03" height="3.14"/><circle class="cls-11" cx="910.18" cy="951.87" r="3.33"/><circle class="cls-12" cx="910.22" cy="951.87" r="2.22"/><rect class="cls-6" x="914.87" y="941.18" width="1.83" height="10.15" rx="0.91" transform="translate(894.24 2262.91) rotate(-135)"/><rect class="cls-6" x="903.64" y="952.41" width="1.83" height="10.15" rx="0.91" transform="translate(867.14 2274.14) rotate(-135)"/><rect class="cls-6" x="903.71" y="978.65" width="13.48" height="24.85" rx="4.98"/><rect class="cls-6" x="915.97" y="977.15" width="3.31" height="27.82" rx="1.66"/><rect class="cls-6" x="901.71" y="977.15" width="3.31" height="27.82" rx="1.66"/><circle class="cls-13" cx="910.22" cy="951.87" r="1.33"/><circle class="cls-14" cx="910.22" cy="951.87" r="0.94"/><rect class="cls-6" x="1351.61" y="985.87" width="3.48" height="15.76"/><rect class="cls-6" x="1356.37" y="985.87" width="3.48" height="15.76"/><rect class="cls-6" x="1318.46" y="985.87" width="3.48" height="15.76"/><rect class="cls-6" x="1323.22" y="985.87" width="3.48" height="15.76"/><circle class="cls-10" cx="1338.81" cy="951.87" r="12.98"/><rect class="cls-6" x="1332.55" y="941.18" width="1.83" height="10.15" rx="0.91" transform="translate(2945.48 672.46) rotate(135)"/><rect class="cls-6" x="1343.78" y="952.41" width="1.83" height="10.15" rx="0.91" transform="translate(2972.58 683.68) rotate(135)"/><rect class="cls-6" x="1335.91" y="935.95" width="6.59" height="3.25"/><polygon class="cls-6" points="1338.06 973.29 1336.52 973.76 1332.95 967.64 1334.49 967.17 1338.06 973.29"/><polygon class="cls-6" points="1341.14 973.29 1342.68 973.76 1345.86 967.68 1344.71 967.17 1341.14 973.29"/><rect class="cls-6" x="1338.66" y="966.87" width="1.67" height="6.63" transform="translate(2678.99 1940.38) rotate(180)"/><rect class="cls-6" x="1351.06" y="947.57" width="3.69" height="7.92"/><rect class="cls-6" x="1332.47" y="965.05" width="13.63" height="3.72" rx="0.72"/><rect class="cls-6" x="1336.41" y="974.87" width="6.45" height="7.65" rx="0.72"/><rect class="cls-6" x="1332.72" y="972.39" width="13.73" height="1.57" rx="0.44"/><rect class="cls-6" x="1332.72" y="974.08" width="13.73" height="1.57" rx="0.42"/><rect class="cls-6" x="1322.43" y="952.35" width="3.03" height="3.14"/><rect class="cls-6" x="1322.43" y="948.08" width="3.03" height="3.14"/><circle class="cls-11" cx="1339.09" cy="951.87" r="3.33"/><circle class="cls-12" cx="1339.13" cy="951.87" r="2.22"/><rect class="cls-6" x="1343.78" y="941.18" width="1.83" height="10.15" rx="0.91" transform="translate(1626.43 2566.2) rotate(-135)"/><rect class="cls-6" x="1332.55" y="952.41" width="1.83" height="10.15" rx="0.91" transform="translate(1599.34 2577.43) rotate(-135)"/><rect class="cls-6" x="1332.63" y="978.65" width="13.48" height="24.85" rx="4.98"/><rect class="cls-6" x="1344.88" y="977.15" width="3.31" height="27.82" rx="1.66"/><rect class="cls-6" x="1330.62" y="977.15" width="3.31" height="27.82" rx="1.66"/><circle class="cls-13" cx="1339.13" cy="951.87" r="1.33"/><circle class="cls-14" cx="1339.13" cy="951.87" r="0.94"/><text class="cls-49" transform="translate(1057.63 133.7)">SANLEY</text><ellipse class="cls-50" cx="1090.62" cy="169.43" rx="2.12" ry="2.06"/><circle class="cls-51" cx="1090.62" cy="169.43" r="1.84"/><circle class="cls-50" cx="1090.62" cy="169.43" r="1.43"/><circle class="cls-51" cx="1090.62" cy="169.43" r="1.02"/><ellipse class="cls-50" cx="1090.62" cy="176.36" rx="2.12" ry="2.06"/><circle class="cls-51" cx="1090.62" cy="176.36" r="1.84"/><circle class="cls-50" cx="1090.62" cy="176.36" r="1.43"/><circle class="cls-51" cx="1090.62" cy="176.36" r="1.02"/><rect class="cls-52" x="1048.21" y="140.7" width="46.2" height="58.47" rx="10.76"/><rect class="cls-52" x="1047.67" y="123.03" width="46.91" height="75.46" rx="10.76"/><rect class="cls-53" x="1048.35" y="146.15" width="8.16" height="45.27"/><rect class="cls-53" x="1086.43" y="146.15" width="8.16" height="45.27"/><rect class="cls-54" x="1058.21" y="140.36" width="2.04" height="58.47"/><rect class="cls-54" x="1062.29" y="140.36" width="2.04" height="58.47"/><rect class="cls-54" x="1066.37" y="140.36" width="2.04" height="58.47"/><rect class="cls-54" x="1070.45" y="140.36" width="2.04" height="58.47"/><rect class="cls-54" x="1074.53" y="140.36" width="2.04" height="58.47"/><rect class="cls-54" x="1078.61" y="140.36" width="2.04" height="58.47"/><rect class="cls-54" x="1082.69" y="140.36" width="2.04" height="58.47"/><path class="cls-52" d="M1098.43,191.31h-2.56l-1.1-1.1V170.66l1.1-1.1h2.56l1.1,1.1v19.55Z"/><rect class="cls-52" x="1049.99" y="199.17" width="41.87" height="9.52"/><rect class="cls-52" x="1057.87" y="199.17" width="4.76" height="9.52"/><rect class="cls-52" x="1080.99" y="199.17" width="4.76" height="9.52"/><rect class="cls-52" x="1039.11" y="209.37" width="63.91" height="3.4" rx="1.1"/><rect class="cls-52" x="1040.47" y="212.77" width="61.19" height="2.72" rx="1.1"/><rect class="cls-52" x="1046.93" y="215.82" width="48.27" height="3.4" rx="1.1"/><rect class="cls-55" x="1053.06" y="273.61" width="35.35" height="3.4" rx="1.1"/><rect class="cls-52" x="1051.69" y="300.81" width="38.75" height="3.4" rx="1.1"/><rect class="cls-52" x="1057.47" y="219.22" width="27.19" height="20.4"/><rect class="cls-56" x="1048.97" y="239.62" width="44.19" height="6.8" rx="1.1"/><rect class="cls-52" x="1054.34" y="246.42" width="33.51" height="27.19"/><rect class="cls-52" x="1053.73" y="277.01" width="34.12" height="23.79"/><rect class="cls-52" x="1057.81" y="246.42" width="26.51" height="27.19" rx="0.6"/><rect class="cls-52" x="1042.34" y="265.4" width="10.72" height="18.07"/><rect class="cls-52" x="1088.4" y="265.4" width="10.72" height="18.07"/><rect class="cls-52" x="1038.66" y="260.36" width="3.68" height="28.39" rx="0.4"/><rect class="cls-52" x="1032.3" y="260.36" width="3.68" height="28.39" rx="0.4"/><rect class="cls-52" x="1105.7" y="260.36" width="3.68" height="28.39" rx="0.4"/><rect class="cls-52" x="1099.34" y="260.36" width="3.68" height="28.39" rx="0.4"/><text class="cls-49" transform="translate(1057.1 346.59)">SANLEY</text><ellipse class="cls-50" cx="1090.09" cy="382.32" rx="2.12" ry="2.06"/><circle class="cls-51" cx="1090.09" cy="382.32" r="1.84"/><circle class="cls-50" cx="1090.09" cy="382.32" r="1.43"/><circle class="cls-51" cx="1090.09" cy="382.32" r="1.02"/><ellipse class="cls-50" cx="1090.09" cy="389.25" rx="2.12" ry="2.06"/><circle class="cls-51" cx="1090.09" cy="389.25" r="1.84"/><circle class="cls-50" cx="1090.09" cy="389.25" r="1.43"/><circle class="cls-51" cx="1090.09" cy="389.25" r="1.02"/><rect class="cls-52" x="1047.68" y="353.59" width="46.2" height="58.47" rx="10.76"/><rect class="cls-52" x="1047.14" y="335.92" width="46.91" height="75.46" rx="10.76"/><rect class="cls-53" x="1047.82" y="359.04" width="8.16" height="45.27"/><rect class="cls-53" x="1085.9" y="359.04" width="8.16" height="45.27"/><rect class="cls-54" x="1057.68" y="353.25" width="2.04" height="58.47"/><rect class="cls-54" x="1061.76" y="353.25" width="2.04" height="58.47"/><rect class="cls-54" x="1065.84" y="353.25" width="2.04" height="58.47"/><rect class="cls-54" x="1069.92" y="353.25" width="2.04" height="58.47"/><rect class="cls-54" x="1074" y="353.25" width="2.04" height="58.47"/><rect class="cls-54" x="1078.08" y="353.25" width="2.04" height="58.47"/><rect class="cls-54" x="1082.16" y="353.25" width="2.04" height="58.47"/><path class="cls-52" d="M1097.9,404.2h-2.56l-1.1-1.1V383.55l1.1-1.1h2.56l1.1,1.1V403.1Z"/><rect class="cls-52" x="1049.46" y="412.06" width="41.87" height="9.52"/><rect class="cls-52" x="1057.34" y="412.06" width="4.76" height="9.52"/><rect class="cls-52" x="1080.46" y="412.06" width="4.76" height="9.52"/><rect class="cls-52" x="1038.58" y="422.26" width="63.91" height="3.4" rx="1.1"/><rect class="cls-52" x="1039.94" y="425.66" width="61.19" height="2.72" rx="1.1"/><rect class="cls-52" x="1046.4" y="428.71" width="48.27" height="3.4" rx="1.1"/><rect class="cls-55" x="1052.53" y="486.5" width="35.35" height="3.4" rx="1.1"/><rect class="cls-52" x="1051.16" y="513.7" width="38.75" height="3.4" rx="1.1"/><rect class="cls-52" x="1056.94" y="432.11" width="27.19" height="20.4"/><rect class="cls-56" x="1048.44" y="452.51" width="44.19" height="6.8" rx="1.1"/><rect class="cls-52" x="1053.8" y="459.31" width="33.51" height="27.19"/><rect class="cls-52" x="1053.2" y="489.9" width="34.12" height="23.79"/><rect class="cls-52" x="1057.28" y="459.31" width="26.51" height="27.19" rx="0.6"/><rect class="cls-52" x="1041.81" y="478.29" width="10.72" height="18.07"/><rect class="cls-52" x="1087.87" y="478.29" width="10.72" height="18.07"/><rect class="cls-52" x="1038.13" y="473.26" width="3.68" height="28.39" rx="0.4"/><rect class="cls-52" x="1031.77" y="473.26" width="3.68" height="28.39" rx="0.4"/><rect class="cls-52" x="1105.17" y="473.26" width="3.68" height="28.39" rx="0.4"/><rect class="cls-52" x="1098.81" y="473.26" width="3.68" height="28.39" rx="0.4"/><text class="cls-49" transform="translate(1056.58 642.81)">SANLEY</text><ellipse class="cls-50" cx="1089.56" cy="678.54" rx="2.12" ry="2.06"/><circle class="cls-51" cx="1089.56" cy="678.54" r="1.84"/><circle class="cls-50" cx="1089.56" cy="678.54" r="1.43"/><circle class="cls-51" cx="1089.56" cy="678.54" r="1.02"/><ellipse class="cls-50" cx="1089.56" cy="685.47" rx="2.12" ry="2.06"/><circle class="cls-51" cx="1089.56" cy="685.47" r="1.84"/><circle class="cls-50" cx="1089.56" cy="685.47" r="1.43"/><circle class="cls-51" cx="1089.56" cy="685.47" r="1.02"/><rect class="cls-52" x="1047.16" y="649.81" width="46.2" height="58.47" rx="10.76"/><rect class="cls-52" x="1046.62" y="632.13" width="46.91" height="75.46" rx="10.76"/><rect class="cls-53" x="1047.3" y="655.26" width="8.16" height="45.27"/><rect class="cls-53" x="1085.37" y="655.26" width="8.16" height="45.27"/><rect class="cls-54" x="1057.16" y="649.47" width="2.04" height="58.47"/><rect class="cls-54" x="1061.24" y="649.47" width="2.04" height="58.47"/><rect class="cls-54" x="1065.32" y="649.47" width="2.04" height="58.47"/><rect class="cls-54" x="1069.4" y="649.47" width="2.04" height="58.47"/><rect class="cls-54" x="1073.47" y="649.47" width="2.04" height="58.47"/><rect class="cls-54" x="1077.55" y="649.47" width="2.04" height="58.47"/><rect class="cls-54" x="1081.63" y="649.47" width="2.04" height="58.47"/><path class="cls-52" d="M1097.38,700.42h-2.56l-1.1-1.1V679.76l1.1-1.1h2.56l1.1,1.1v19.56Z"/><rect class="cls-52" x="1048.94" y="708.27" width="41.87" height="9.52"/><rect class="cls-52" x="1056.82" y="708.27" width="4.76" height="9.52"/><rect class="cls-52" x="1079.93" y="708.27" width="4.76" height="9.52"/><rect class="cls-52" x="1038.06" y="718.47" width="63.91" height="3.4" rx="1.1"/><rect class="cls-52" x="1039.42" y="721.87" width="61.19" height="2.72" rx="1.1"/><rect class="cls-52" x="1045.88" y="724.93" width="48.27" height="3.4" rx="1.1"/><rect class="cls-55" x="1052" y="782.72" width="35.35" height="3.4" rx="1.1"/><rect class="cls-52" x="1050.64" y="809.91" width="38.75" height="3.4" rx="1.1"/><rect class="cls-52" x="1056.42" y="728.33" width="27.19" height="20.4"/><rect class="cls-56" x="1047.92" y="748.73" width="44.19" height="6.8" rx="1.1"/><rect class="cls-52" x="1053.28" y="755.52" width="33.51" height="27.19"/><rect class="cls-52" x="1052.68" y="786.12" width="34.12" height="23.79"/><rect class="cls-52" x="1056.76" y="755.52" width="26.51" height="27.19" rx="0.6"/><rect class="cls-52" x="1041.28" y="774.51" width="10.72" height="18.07"/><rect class="cls-52" x="1087.35" y="774.51" width="10.72" height="18.07"/><rect class="cls-52" x="1037.6" y="769.47" width="3.68" height="28.39" rx="0.4"/><rect class="cls-52" x="1031.25" y="769.47" width="3.68" height="28.39" rx="0.4"/><rect class="cls-52" x="1104.65" y="769.47" width="3.68" height="28.39" rx="0.4"/><rect class="cls-52" x="1098.29" y="769.47" width="3.68" height="28.39" rx="0.4"/><text class="cls-49" transform="translate(1056.58 851.52)">SANLEY</text><ellipse class="cls-50" cx="1089.56" cy="887.24" rx="2.12" ry="2.06"/><circle class="cls-51" cx="1089.56" cy="887.24" r="1.84"/><circle class="cls-50" cx="1089.56" cy="887.24" r="1.43"/><circle class="cls-51" cx="1089.56" cy="887.24" r="1.02"/><ellipse class="cls-50" cx="1089.56" cy="894.18" rx="2.12" ry="2.06"/><circle class="cls-51" cx="1089.56" cy="894.18" r="1.84"/><circle class="cls-50" cx="1089.56" cy="894.18" r="1.43"/><circle class="cls-51" cx="1089.56" cy="894.18" r="1.02"/><rect class="cls-52" x="1047.16" y="858.52" width="46.2" height="58.47" rx="10.76"/><rect class="cls-52" x="1046.62" y="840.84" width="46.91" height="75.46" rx="10.76"/><rect class="cls-53" x="1047.3" y="863.97" width="8.16" height="45.27"/><rect class="cls-53" x="1085.37" y="863.97" width="8.16" height="45.27"/><rect class="cls-54" x="1057.16" y="858.18" width="2.04" height="58.47"/><rect class="cls-54" x="1061.24" y="858.18" width="2.04" height="58.47"/><rect class="cls-54" x="1065.32" y="858.18" width="2.04" height="58.47"/><rect class="cls-54" x="1069.4" y="858.18" width="2.04" height="58.47"/><rect class="cls-54" x="1073.47" y="858.18" width="2.04" height="58.47"/><rect class="cls-54" x="1077.55" y="858.18" width="2.04" height="58.47"/><rect class="cls-54" x="1081.63" y="858.18" width="2.04" height="58.47"/><path class="cls-52" d="M1097.38,909.13h-2.56l-1.1-1.1V888.47l1.1-1.1h2.56l1.1,1.1V908Z"/><rect class="cls-52" x="1048.94" y="916.98" width="41.87" height="9.52"/><rect class="cls-52" x="1056.82" y="916.98" width="4.76" height="9.52"/><rect class="cls-52" x="1079.93" y="916.98" width="4.76" height="9.52"/><rect class="cls-52" x="1038.06" y="927.18" width="63.91" height="3.4" rx="1.1"/><rect class="cls-52" x="1039.42" y="930.58" width="61.19" height="2.72" rx="1.1"/><rect class="cls-52" x="1045.88" y="933.64" width="48.27" height="3.4" rx="1.1"/><rect class="cls-55" x="1052" y="991.43" width="35.35" height="3.4" rx="1.1"/><rect class="cls-52" x="1050.64" y="1018.62" width="38.75" height="3.4" rx="1.1"/><rect class="cls-52" x="1056.42" y="937.04" width="27.19" height="20.4"/><rect class="cls-56" x="1047.92" y="957.43" width="44.19" height="6.8" rx="1.1"/><rect class="cls-52" x="1053.28" y="964.23" width="33.51" height="27.19"/><rect class="cls-52" x="1052.68" y="994.83" width="34.12" height="23.79"/><rect class="cls-52" x="1056.76" y="964.23" width="26.51" height="27.19" rx="0.6"/><rect class="cls-52" x="1041.28" y="983.22" width="10.72" height="18.07"/><rect class="cls-52" x="1087.35" y="983.22" width="10.72" height="18.07"/><rect class="cls-52" x="1037.6" y="978.18" width="3.68" height="28.39" rx="0.4"/><rect class="cls-52" x="1031.25" y="978.18" width="3.68" height="28.39" rx="0.4"/><rect class="cls-52" x="1104.65" y="978.18" width="3.68" height="28.39" rx="0.4"/><rect class="cls-52" x="1098.29" y="978.18" width="3.68" height="28.39" rx="0.4"/><rect class="cls-20" x="1511.53" y="748.35" width="32.29" height="29.43" rx="2.35" transform="translate(2290.74 -764.62) rotate(90)"/><rect class="cls-6" x="1512.79" y="749.9" width="29.95" height="26.32" rx="1.91" transform="translate(2290.83 -764.71) rotate(90)"/><ellipse class="cls-57" cx="1517.32" cy="750.6" rx="0.99" ry="1.03"/><ellipse class="cls-57" cx="1517.32" cy="775.3" rx="0.99" ry="1.03"/><ellipse class="cls-57" cx="1538.45" cy="750.6" rx="0.99" ry="1.03"/><ellipse class="cls-57" cx="1538.45" cy="775.3" rx="0.99" ry="1.03"/><rect class="cls-58" x="1514.94" y="767.19" width="3.54" height="4.63" transform="translate(2286.21 -747.21) rotate(90)"/><rect class="cls-6" x="1504.8" y="761.89" width="12.83" height="1.22" transform="translate(2273.72 -748.71) rotate(90)"/><rect class="cls-59" x="1493.04" y="752.5" width="12.83" height="20.12" rx="0.25" transform="translate(2262.01 -736.9) rotate(90)"/><rect class="cls-60" x="1498.86" y="756.71" width="5.77" height="11.7" rx="0.15" transform="translate(2264.31 -739.2) rotate(90)"/><text class="cls-61" transform="translate(1536.71 757.82) rotate(90) scale(1.09 1)">压力开关</text><rect class="cls-60" x="1518.29" y="758.59" width="20.54" height="10.06" transform="translate(2292.17 -764.94) rotate(90)"/><text class="cls-62" transform="translate(1531.18 753.78) rotate(90) scale(1.09 1)">CSS</text><text class="cls-63" transform="translate(1528.41 754.79) rotate(90) scale(1.09 1)">asdsanmlopq<tspan class="cls-64" x="11.59" y="0">r</tspan><tspan class="cls-65" x="12.38" y="0">st</tspan></text><text class="cls-63" transform="translate(1525.65 754.79) rotate(90) scale(1.09 1)">asdsanmlopq<tspan class="cls-64" x="11.59" y="0">r</tspan><tspan class="cls-65" x="12.38" y="0">st</tspan></text></svg>