<svg id="图层_1" data-name="图层 1" xmlns="http://www.w3.org/2000/svg" xmlns:xlink="http://www.w3.org/1999/xlink" viewBox="0 0 1920 1080"><defs><style>.cls-1,.cls-2,.cls-7{fill:#f2f2f2;}.cls-2,.cls-34,.cls-43,.cls-44,.cls-45,.cls-47,.cls-57,.cls-58,.cls-59{stroke:#01579b;}.cls-10,.cls-11,.cls-2,.cls-22,.cls-23,.cls-24,.cls-25,.cls-26,.cls-27,.cls-28,.cls-29,.cls-30,.cls-31,.cls-32,.cls-34,.cls-35,.cls-36,.cls-43,.cls-44,.cls-45,.cls-46,.cls-47,.cls-48,.cls-49,.cls-5,.cls-57,.cls-58,.cls-59,.cls-6,.cls-7,.cls-9{stroke-miterlimit:10;}.cls-2,.cls-34{stroke-width:0.75px;}.cls-3{fill:#06a8fa;}.cls-15,.cls-17,.cls-18,.cls-4,.cls-8,.cls-9{fill:#143a82;}.cls-11,.cls-22,.cls-23,.cls-24,.cls-25,.cls-26,.cls-27,.cls-28,.cls-29,.cls-30,.cls-31,.cls-32,.cls-34,.cls-35,.cls-36,.cls-43,.cls-44,.cls-45,.cls-46,.cls-47,.cls-48,.cls-49,.cls-5,.cls-6{fill:none;}.cls-10,.cls-35,.cls-5,.cls-6,.cls-9{stroke:#143a82;}.cls-22,.cls-23,.cls-24,.cls-25,.cls-26,.cls-27,.cls-28,.cls-29,.cls-30,.cls-31,.cls-32,.cls-36,.cls-43,.cls-46,.cls-5,.cls-57,.cls-58,.cls-59{stroke-width:2px;}.cls-46,.cls-7{stroke:#333f4f;}.cls-8{font-size:2.93px;}.cls-40,.cls-8{font-family:Benmo-Chenhei, Benmo Chenhei;}.cls-10,.cls-11,.cls-35,.cls-47,.cls-9{stroke-width:3px;}.cls-10{fill:#e6e6e6;}.cls-11{stroke:#b3b3b3;}.cls-12{fill:#333f4f;}.cls-13{fill:#868686;}.cls-14{fill:#cee6f9;}.cls-15,.cls-16{font-size:22px;}.cls-15,.cls-16,.cls-17,.cls-18{font-family:PingFang-SC-Medium, PingFang SC;font-weight:500;}.cls-16{fill:#db4516;}.cls-17{font-size:16px;}.cls-18{font-size:14px;}.cls-19{fill:#07a307;}.cls-20{fill:#af0800;}.cls-21{fill:#474747;}.cls-22{stroke:url(#未命名的渐变_15);}.cls-23{stroke:url(#未命名的渐变_15-2);}.cls-24{stroke:url(#未命名的渐变_15-3);}.cls-25{stroke:url(#未命名的渐变_15-4);}.cls-26{stroke:url(#未命名的渐变_15-5);}.cls-27{stroke:url(#未命名的渐变_15-6);}.cls-28{stroke:url(#未命名的渐变_15-7);}.cls-29{stroke:url(#未命名的渐变_15-8);}.cls-30{stroke:url(#未命名的渐变_15-9);}.cls-31{stroke:url(#未命名的渐变_15-10);}.cls-32{stroke:url(#未命名的渐变_15-11);}.cls-33{fill:#df592f;}.cls-36{stroke:#10397a;}.cls-37{fill:#0e3773;}.cls-38{fill:#4676a5;}.cls-39{fill:#a1d5ff;}.cls-40{font-size:7.04px;fill:#01579b;}.cls-41{fill:#2a5e96;}.cls-42{fill:#9ac0f7;}.cls-44{stroke-width:1.5px;}.cls-48{stroke:#618cd1;}.cls-48,.cls-49{stroke-width:0.5px;}.cls-49{stroke:#fff;}.cls-50{fill:#10397a;}.cls-51{fill:#5276aa;}.cls-52,.cls-53{font-size:2.1px;letter-spacing:0.18em;}.cls-52,.cls-53,.cls-54{fill:#fff;}.cls-52{font-family:MicrosoftYaHei-Bold, Microsoft YaHei;font-weight:700;}.cls-53,.cls-54{font-family:MicrosoftYaHei, Microsoft YaHei;}.cls-54{font-size:1.38px;letter-spacing:0.18em;}.cls-55{letter-spacing:0.19em;}.cls-56{letter-spacing:0.18em;}.cls-57{fill:url(#未命名的渐变_31);}.cls-58{fill:url(#未命名的渐变_31-2);}.cls-59{fill:url(#未命名的渐变_31-3);}.cls-60{fill:#63c6fa;}.cls-61{fill:#327cc6;}.cls-62{fill:#0a98ef;}</style><linearGradient id="未命名的渐变_15" x1="1099.75" y1="547.37" x2="1184.87" y2="547.37" gradientUnits="userSpaceOnUse"><stop offset="0" stop-color="#4f6c99"/><stop offset="0.16" stop-color="#526f9c"/><stop offset="0.29" stop-color="#5b78a6"/><stop offset="0.4" stop-color="#6c87b6"/><stop offset="0.5" stop-color="#829dcd"/><stop offset="0.59" stop-color="#9fb8ea"/><stop offset="0.62" stop-color="#a9c2f4"/><stop offset="1" stop-color="#718dbe"/></linearGradient><linearGradient id="未命名的渐变_15-2" x1="1191.37" y1="511.31" x2="1276.48" y2="511.31" xlink:href="#未命名的渐变_15"/><linearGradient id="未命名的渐变_15-3" x1="1191.37" y1="896.04" x2="1276.48" y2="896.04" xlink:href="#未命名的渐变_15"/><linearGradient id="未命名的渐变_15-4" x1="1099.75" y1="511.1" x2="1184.87" y2="511.1" xlink:href="#未命名的渐变_15"/><linearGradient id="未命名的渐变_15-5" x1="1099.75" y1="933.12" x2="1184.87" y2="933.12" xlink:href="#未命名的渐变_15"/><linearGradient id="未命名的渐变_15-6" x1="1099.75" y1="896.85" x2="1184.87" y2="896.85" xlink:href="#未命名的渐变_15"/><linearGradient id="未命名的渐变_15-7" x1="1099.75" y1="294.5" x2="1184.87" y2="294.5" xlink:href="#未命名的渐变_15"/><linearGradient id="未命名的渐变_15-8" x1="1191.37" y1="258.44" x2="1276.48" y2="258.44" xlink:href="#未命名的渐变_15"/><linearGradient id="未命名的渐变_15-9" x1="1636.2" y1="211.34" x2="1721.31" y2="211.34" xlink:href="#未命名的渐变_15"/><linearGradient id="未命名的渐变_15-10" x1="1515.1" y1="317.7" x2="1600.21" y2="317.7" xlink:href="#未命名的渐变_15"/><linearGradient id="未命名的渐变_15-11" x1="1099.75" y1="258.23" x2="1184.87" y2="258.23" xlink:href="#未命名的渐变_15"/><linearGradient id="未命名的渐变_31" x1="259.09" y1="602.81" x2="570.09" y2="602.81" gradientUnits="userSpaceOnUse"><stop offset="0" stop-color="#fff"/><stop offset="1" stop-color="#e6e6e6"/></linearGradient><linearGradient id="未命名的渐变_31-2" x1="258.87" y1="495.31" x2="595.74" y2="495.31" xlink:href="#未命名的渐变_31"/><linearGradient id="未命名的渐变_31-3" x1="2653.91" y1="2680.69" x2="2867.91" y2="2680.69" gradientTransform="matrix(0, -1, -1, 0, 3263.78, 3358.22)" xlink:href="#未命名的渐变_31"/></defs><title>3泵 副本</title><rect class="cls-1" x="218.98" y="840.94" width="83.41" height="152.94"/><rect class="cls-1" x="399.47" y="840.94" width="83.41" height="152.94"/><rect class="cls-2" x="574.39" y="840.94" width="83.41" height="152.94"/><rect class="cls-1" x="1091.15" y="866.21" width="195.07" height="88.34"/><rect class="cls-3" x="1482.04" y="136.14" width="291.02" height="14"/><rect class="cls-4" x="1680.57" y="80.32" width="0.63" height="2.18"/><rect class="cls-4" x="1674.95" y="81.99" width="0.63" height="2.18" transform="translate(313.82 1062.81) rotate(-38.58)"/><rect class="cls-4" x="1686.07" y="82.32" width="0.63" height="2.18" transform="translate(465.2 -1082.59) rotate(40.84)"/><rect class="cls-4" x="1689.38" y="87.9" width="0.63" height="2.18" transform="translate(1589.12 -1600.05) rotate(83.58)"/><rect class="cls-4" x="1671.32" y="87.85" width="0.63" height="2.18" transform="translate(1354.27 1732.58) rotate(-82.12)"/><rect class="cls-4" x="1679.32" y="80.27" width="0.33" height="1.21" transform="translate(15.26 320.78) rotate(-10.96)"/><rect class="cls-4" x="1682.05" y="80.27" width="0.33" height="1.21" transform="translate(55.66 -355.82) rotate(12.28)"/><rect class="cls-4" x="1683.25" y="80.52" width="0.33" height="1.21" transform="translate(129.93 -572.45) rotate(20.06)"/><rect class="cls-4" x="1684.4" y="80.93" width="0.33" height="1.21" transform="translate(233.07 -777.28) rotate(27.84)"/><rect class="cls-4" x="1685.48" y="81.5" width="0.33" height="1.21" transform="translate(363.27 -966.45) rotate(35.62)"/><rect class="cls-4" x="1687.37" y="83.04" width="0.33" height="1.21" transform="translate(695.03 -1283.73) rotate(51.19)"/><rect class="cls-4" x="1688.15" y="83.98" width="0.33" height="1.21" transform="translate(890.51 -1405.73) rotate(58.97)"/><rect class="cls-4" x="1688.78" y="85.03" width="0.33" height="1.21" transform="translate(1101.01 -1499.99) rotate(66.75)"/><rect class="cls-4" x="1689.27" y="86.15" width="0.33" height="1.21" transform="translate(1322.58 -1564.65) rotate(74.54)"/><rect class="cls-4" x="1689.81" y="87.32" width="0.33" height="1.21" transform="translate(1551.21 -1598.63) rotate(82.32)"/><rect class="cls-4" x="1690.19" y="89.56" width="0.33" height="1.21" transform="translate(1783.49 -1600.02) rotate(90.1)"/><rect class="cls-4" x="1690.2" y="90.79" width="0.33" height="1.21" transform="translate(2012.72 -1570.46) rotate(97.88)"/><rect class="cls-4" x="1690.04" y="92" width="0.33" height="1.21" transform="translate(2235.75 -1509.81) rotate(105.67)"/><rect class="cls-4" x="1678.17" y="80.54" width="0.33" height="1.21" transform="translate(60.26 534.15) rotate(-18.41)"/><rect class="cls-4" x="1677.07" y="80.95" width="0.33" height="1.21" transform="translate(132.34 739.64) rotate(-25.86)"/><rect class="cls-4" x="1676.04" y="81.5" width="0.33" height="1.21" transform="translate(230.21 933.87) rotate(-33.3)"/><rect class="cls-4" x="1673.59" y="83.17" width="0.33" height="1.21" transform="translate(506.98 1286.74) rotate(-48.74)"/><rect class="cls-4" x="1672.77" y="84.31" width="0.33" height="1.21" transform="translate(697.32 1446.57) rotate(-57.28)"/><rect class="cls-4" x="1671.73" y="85.56" width="0.33" height="1.21" transform="translate(908.7 1576.19) rotate(-65.83)"/><rect class="cls-4" x="1671.28" y="86.88" width="0.33" height="1.21" transform="translate(1136.94 1673.58) rotate(-74.37)"/><rect class="cls-4" x="1671.01" y="89.66" width="0.33" height="1.21" transform="translate(1623.54 1763.19) rotate(-91.46)"/><rect class="cls-4" x="1670.97" y="91.05" width="0.33" height="1.21" transform="translate(1871.21 1753.3) rotate(-100)"/><rect class="cls-4" x="1671.35" y="92.39" width="0.33" height="1.21" transform="translate(2115.08 1707.27) rotate(-108.55)"/><rect class="cls-4" x="1678.16" y="103.52" width="5.62" height="3.7"/><rect class="cls-4" x="1678.16" y="128.87" width="5.62" height="9.59"/><rect class="cls-4" x="1678.16" y="112.04" width="5.62" height="2.72"/><rect class="cls-4" x="1677.56" y="127.7" width="6.78" height="1.27"/><polygon class="cls-4" points="1685.38 117.13 1676.58 117.13 1678.16 114.96 1683.77 114.96 1685.38 117.13"/><polygon class="cls-4" points="1683.34 106.82 1678.59 106.82 1676.21 109.27 1678.59 111.72 1683.34 111.72 1685.71 109.27 1683.34 106.82"/><polygon class="cls-4" points="1684.41 117.39 1677.54 117.39 1674.11 122.33 1677.54 127.27 1684.41 127.27 1687.84 122.33 1684.41 117.39"/><rect class="cls-4" x="1672.53" y="118.4" width="2.81" height="8.92"/><rect class="cls-4" x="1671.71" y="119.47" width="1.62" height="6.53"/><rect class="cls-4" x="1669.56" y="121.26" width="2.32" height="3.16"/><rect class="cls-4" x="1664.41" y="121.76" width="1.15" height="2.8" rx="0.37"/><rect class="cls-4" x="1668.18" y="119.31" width="1.04" height="7.8"/><rect class="cls-4" x="1665.87" y="119.31" width="2.76" height="1.73" rx="0.44"/><rect class="cls-4" x="1665.87" y="122.19" width="2.76" height="1.73" rx="0.44"/><rect class="cls-4" x="1665.87" y="125.39" width="2.76" height="1.73" rx="0.44"/><circle class="cls-5" cx="1680.57" cy="90.03" r="13.34"/><path class="cls-6" d="M1670.33,93.89a12.46,12.46,0,0,1-.56-3.69,10.75,10.75,0,0,1,.56-3.23A10.9,10.9,0,0,1,1691,93.86"/><polygon class="cls-4" points="1678.43 92.6 1677.3 90.69 1681.12 89.45 1686.96 86.23 1687.1 86.49 1681.33 89.77 1678.43 92.6"/><circle class="cls-7" cx="1680.5" cy="90.03" r="0.84"/><text class="cls-8" transform="translate(1676.9 98.48)">MPA</text><rect class="cls-3" x="418.96" y="652.49" width="602.62" height="14" transform="translate(1379.76 -60.78) rotate(90)"/><rect class="cls-3" x="1064" y="552.19" width="799.9" height="14" transform="translate(2023.14 -904.76) rotate(90)"/><rect class="cls-3" x="737.2" y="332.4" width="263.85" height="14"/><rect class="cls-3" x="1089.5" y="334.34" width="371.25" height="14"/><rect class="cls-4" x="1462.53" y="482.32" width="2.79" height="15.76" transform="translate(989.06 1959.17) rotate(-90.6)"/><rect class="cls-4" x="1462.5" y="479.5" width="2.79" height="15.76" transform="translate(991.84 1956.29) rotate(-90.6)"/><rect class="cls-4" x="1462.62" y="491.41" width="2.79" height="15.76" transform="translate(980.07 1968.45) rotate(-90.6)"/><rect class="cls-4" x="1462.59" y="488.59" width="2.79" height="15.76" transform="translate(982.85 1965.57) rotate(-90.6)"/><rect class="cls-3" x="720.27" y="586.33" width="279.79" height="14"/><rect class="cls-3" x="1089.92" y="586.33" width="369.43" height="14"/><rect class="cls-3" x="739.83" y="970.31" width="260.16" height="14"/><rect class="cls-3" x="1090.73" y="970.31" width="362.1" height="14"/><rect class="cls-4" x="1501.89" y="290.43" width="2.97" height="9.2" transform="translate(1798.4 -1208.35) rotate(90)"/><rect class="cls-4" x="1502.03" y="266.08" width="2.68" height="9.2" transform="translate(1774.06 -1232.69) rotate(90)"/><rect class="cls-4" x="1447.4" y="271.89" width="34.39" height="22.59" transform="translate(1747.78 -1181.41) rotate(90)"/><polygon class="cls-4" points="1459.36 303.55 1452.8 300.88 1475.39 300.88 1468.98 303.55 1459.36 303.55"/><polygon class="cls-4" points="1459.36 262.81 1452.8 265.47 1475.39 265.47 1468.98 262.81 1459.36 262.81"/><rect class="cls-4" x="1462.24" y="298.01" width="3.01" height="18.6" transform="translate(1771.06 -1156.44) rotate(90)"/><rect class="cls-4" x="1462.24" y="302.14" width="3.01" height="18.6" transform="translate(1775.19 -1152.31) rotate(90)"/><rect class="cls-4" x="1462.24" y="245.65" width="3.01" height="18.6" transform="translate(1718.7 -1208.8) rotate(90)"/><rect class="cls-4" x="1462.24" y="249.78" width="3.01" height="18.6" transform="translate(1722.83 -1204.67) rotate(90)"/><rect class="cls-4" x="1470.5" y="280.5" width="14.34" height="5.51" rx="0.4" transform="translate(1760.93 -1194.42) rotate(90)"/><rect class="cls-4" x="1481.26" y="281.41" width="11.97" height="3.32" rx="0.4" transform="translate(1770.31 -1204.17) rotate(90)"/><rect class="cls-4" x="1485.29" y="281.4" width="11.97" height="3.57" rx="0.4" transform="translate(1774.47 -1208.09) rotate(90)"/><rect class="cls-4" x="1480.21" y="279.24" width="5.99" height="7.73" rx="0.4" transform="translate(1766.31 -1200.1) rotate(90)"/><circle class="cls-9" cx="1503.28" cy="283.26" r="11.18"/><circle class="cls-10" cx="1503.09" cy="283.06" r="7.97"/><circle class="cls-11" cx="1503.03" cy="283.24" r="10.32"/><rect class="cls-4" x="1504.13" y="268.45" width="2.76" height="1.69" transform="translate(1774.81 -1236.22) rotate(90)"/><rect class="cls-4" x="1499.84" y="268.45" width="2.76" height="1.69" transform="translate(1770.51 -1231.92) rotate(90)"/><rect class="cls-12" x="1497.66" y="281.2" width="10.75" height="3.82" transform="translate(1786.14 -1219.93) rotate(90)"/><polygon class="cls-13" points="1501.13 280.61 1501.13 277.73 1504.94 277.73 1504.94 283.41 1501.13 280.61"/><path class="cls-4" d="M1469.73,280.48l3.58-9.12a.42.42,0,0,1,.73-.11l6.11,7.65a.42.42,0,0,1-.27.69l-9.69,1.47A.43.43,0,0,1,1469.73,280.48Z"/><path class="cls-4" d="M1469.73,286.06l3.58,9.13a.43.43,0,0,0,.73.11l6.11-7.66a.42.42,0,0,0-.27-.69l-9.69-1.47A.43.43,0,0,0,1469.73,286.06Z"/><rect class="cls-4" x="1190.17" y="583.11" width="24.9" height="17.43"/><rect class="cls-14" x="1192.66" y="585.6" width="2.49" height="12.54"/><rect class="cls-14" x="1210.1" y="585.31" width="2.49" height="12.74"/><rect class="cls-14" x="1202.26" y="581.7" width="0.74" height="20.08" transform="translate(1467.21 1905.69) rotate(-127.58)"/><polygon class="cls-4" points="1190.78 579.21 1218.48 579.21 1204.63 573.9 1204.63 573.9 1204.63 576.55 1190.78 576.55 1190.78 579.21"/><rect class="cls-4" x="1190.17" y="967.61" width="24.9" height="17.43"/><rect class="cls-14" x="1192.66" y="970.1" width="2.49" height="12.54"/><rect class="cls-14" x="1210.1" y="969.8" width="2.49" height="12.74"/><rect class="cls-14" x="1202.26" y="966.2" width="0.74" height="20.08" transform="translate(1162.52 2524.7) rotate(-127.58)"/><polygon class="cls-4" points="1190.78 963.71 1218.48 963.71 1204.63 958.4 1204.63 958.4 1204.63 961.05 1190.78 961.05 1190.78 963.71"/><rect class="cls-4" x="1190.17" y="332.3" width="24.9" height="17.43"/><rect class="cls-14" x="1192.66" y="334.79" width="2.49" height="12.54"/><rect class="cls-14" x="1210.1" y="334.49" width="2.49" height="12.74"/><rect class="cls-14" x="1202.26" y="330.89" width="0.74" height="20.08" transform="translate(1665.97 1501.89) rotate(-127.58)"/><polygon class="cls-4" points="1190.78 328.39 1218.48 328.39 1204.63 323.09 1204.63 323.09 1204.63 325.74 1190.78 325.74 1190.78 328.39"/><text class="cls-15" transform="translate(937.96 322.25)">1#泵</text><text class="cls-15" transform="translate(937.96 579.38)">2#泵</text><text class="cls-15" transform="translate(937.96 961.05)">3#泵</text><text class="cls-15" transform="translate(1508.52 186.69)">出水阀门</text><text class="cls-15" transform="translate(1496.83 793.79) rotate(90)">压力控制器</text><text class="cls-16" transform="translate(1726.35 117.96)">供水入户</text><text class="cls-15" transform="translate(1646.16 184.99)">压力表</text><text class="cls-15" transform="translate(1524.89 289.46)">流量计</text><text class="cls-17" transform="translate(141.4 865.26)">水箱液位 </text><text class="cls-17" transform="translate(141.4 903.69)">出水压力 </text><text class="cls-17" transform="translate(141.4 941.95)">设定压力 </text><text class="cls-17" transform="translate(496.8 863.97)">余氯 </text><text class="cls-17" transform="translate(321.88 865.26)">PH </text><text class="cls-17" transform="translate(321.88 903.69)">湿度 </text><text class="cls-17" transform="translate(321.88 941.95)">噪音 </text><text class="cls-17" transform="translate(321.88 981.89)">浊度 </text><text class="cls-17" transform="translate(141.4 983.18)">瞬时流量 </text><text class="cls-17" transform="translate(495.8 903.69)">累计流量 </text><text class="cls-17" transform="translate(495.8 941.95)">累计电量 </text><text class="cls-17" transform="translate(496.8 981.89)">- - </text><rect class="cls-1" x="1593.75" y="843.2" width="186" height="113.65"/><text class="cls-18" transform="translate(1608.1 874.51)">状态说明 </text><text class="cls-18" transform="translate(1708.12 874.51)">运行状态 </text><text class="cls-18" transform="translate(1708.12 902.05)">停止状态 </text><text class="cls-18" transform="translate(1708.12 929.02)">故障状态 </text><path class="cls-19" d="M1686.84,861.88a7.16,7.16,0,1,0,7.17,7.17,7.17,7.17,0,0,0-7.17-7.17Zm0,13.21a6,6,0,1,1,6.05-6,6,6,0,0,1-6.05,6Zm2.87,2.88"/><path class="cls-19" d="M1683.12,868.14c-1.32.66-2.19,2.19-1.32,3.06,1.53,1.54,2.19-.65,3.29-1.31.67-.41,1.31-.88,1.31-1.32s-2-1.09-3.28-.43Zm5,2.18c-.69-.38-1.42-.7-1.8-.48s0,2.25,1.27,3.06,3,.8,3.31-.39c.56-2.1-1.67-1.57-2.78-2.19Zm-.56-1c.38.21,1.93-1.16,2-2.63s-.8-3-2-2.67c-2.09.56-.53,2.22-.5,3.5,0,.79.1,1.58.48,1.8Zm0,0"/><path class="cls-20" d="M1686.84,888.85A7.16,7.16,0,1,0,1694,896a7.17,7.17,0,0,0-7.17-7.16Zm0,13.2a6,6,0,1,1,6.05-6,6,6,0,0,1-6.05,6Zm2.87,2.89"/><path class="cls-20" d="M1683.12,895.11c-1.32.65-2.19,2.19-1.32,3.06,1.53,1.54,2.19-.66,3.29-1.31.67-.41,1.31-.88,1.31-1.32s-2-1.09-3.28-.43Zm5,2.18c-.69-.39-1.42-.7-1.8-.49s0,2.26,1.27,3.07,3,.8,3.31-.4c.56-2.09-1.67-1.56-2.78-2.18Zm-.56-1c.38.22,1.93-1.16,2-2.62s-.8-3-2-2.67c-2.09.56-.53,2.22-.5,3.5,0,.79.1,1.57.48,1.79Zm0,0"/><path class="cls-21" d="M1686.84,915.82A7.16,7.16,0,1,0,1694,923a7.17,7.17,0,0,0-7.17-7.16Zm0,13.2a6,6,0,1,1,6.05-6,6,6,0,0,1-6.05,6Zm2.87,2.89"/><path class="cls-21" d="M1683.12,922.07c-1.32.66-2.19,2.19-1.32,3.07,1.53,1.53,2.19-.66,3.29-1.32.67-.4,1.31-.87,1.31-1.31s-2-1.09-3.28-.44Zm5,2.18c-.69-.38-1.42-.69-1.8-.48s0,2.26,1.27,3.07,3,.8,3.31-.4c.56-2.09-1.67-1.57-2.78-2.19Zm-.56-1c.38.22,1.93-1.16,2-2.63s-.8-3-2-2.67c-2.09.57-.53,2.23-.5,3.51,0,.79.1,1.57.48,1.79Zm0,0"/><rect class="cls-1" x="1091.15" y="480.46" width="195.07" height="88.34"/><rect class="cls-22" x="1100.75" y="532.27" width="83.11" height="30.2"/><rect class="cls-23" x="1192.37" y="496.21" width="83.11" height="30.2"/><rect class="cls-24" x="1192.37" y="880.94" width="83.11" height="30.2"/><rect class="cls-25" x="1100.75" y="496" width="83.11" height="30.2"/><rect class="cls-26" x="1100.75" y="918.02" width="83.11" height="30.2"/><rect class="cls-27" x="1100.75" y="881.75" width="83.11" height="30.2"/><rect class="cls-1" x="1091.15" y="227.59" width="195.07" height="88.34"/><rect class="cls-28" x="1100.75" y="279.4" width="83.11" height="30.2"/><rect class="cls-29" x="1192.37" y="243.34" width="83.11" height="30.2"/><rect class="cls-30" x="1637.2" y="196.24" width="83.11" height="30.2"/><rect class="cls-31" x="1516.1" y="302.6" width="83.11" height="30.2"/><rect class="cls-32" x="1100.75" y="243.13" width="83.11" height="30.2"/><polygon class="cls-33" points="793.62 366.53 825.11 366.53 831.13 366.53 827.65 374.72 850.8 364.95 827.65 355.18 831.13 363.36 825.11 363.36 793.62 363.36 793.62 366.53"/><polygon class="cls-33" points="1366.31 366.53 1397.79 366.53 1403.81 366.53 1400.34 374.72 1423.48 364.95 1400.34 355.18 1403.81 363.36 1397.79 363.36 1366.31 363.36 1366.31 366.53"/><polygon class="cls-33" points="1741.76 179.2 1773.24 179.2 1779.27 179.2 1775.79 187.38 1798.94 177.61 1775.79 167.84 1779.27 176.03 1773.24 176.03 1741.76 176.03 1741.76 179.2"/><polygon class="cls-33" points="793.62 619.63 825.11 619.63 831.13 619.63 827.65 627.82 850.8 618.04 827.65 608.27 831.13 616.46 825.11 616.46 793.62 616.46 793.62 619.63"/><polygon class="cls-33" points="1366.31 619.63 1397.79 619.63 1403.81 619.63 1400.34 627.82 1423.48 618.04 1400.34 608.27 1403.81 616.46 1397.79 616.46 1366.31 616.46 1366.31 619.63"/><polygon class="cls-33" points="793.62 1014.71 825.11 1014.71 831.13 1014.71 827.65 1022.89 850.8 1013.12 827.65 1003.35 831.13 1011.54 825.11 1011.54 793.62 1011.54 793.62 1014.71"/><polygon class="cls-33" points="1366.31 1014.71 1397.79 1014.71 1403.81 1014.71 1400.34 1022.89 1423.48 1013.12 1400.34 1003.35 1403.81 1011.54 1397.79 1011.54 1366.31 1011.54 1366.31 1014.71"/><polygon class="cls-33" points="1492.88 518.47 1492.88 486.99 1492.88 480.96 1501.07 484.44 1491.3 461.29 1481.52 484.44 1489.71 480.96 1489.71 486.99 1489.71 518.47 1492.88 518.47"/><path class="cls-3" d="M739.71,346.85q.06-7.44.13-14.87a26.83,26.83,0,0,0-26.94,27.56h14.26a12.58,12.58,0,0,1,2.78-8.18A13,13,0,0,1,739.71,346.85Z"/><rect class="cls-3" x="717.99" y="352.87" width="3.8" height="16.56" transform="translate(1081.04 -358.74) rotate(90)"/><rect class="cls-3" x="739.13" y="331.22" width="3.8" height="16.56"/><path class="cls-3" d="M1483.58,150.91l.12-14.86a26.83,26.83,0,0,0-26.94,27.56H1471a12.58,12.58,0,0,1,2.78-8.19A13,13,0,0,1,1483.58,150.91Z"/><rect class="cls-3" x="1461.85" y="156.93" width="3.8" height="16.56" transform="translate(1628.97 -1298.54) rotate(90)"/><rect class="cls-3" x="1483" y="135.28" width="3.8" height="16.56"/><path class="cls-3" d="M727,957.86l-14.86-.12a26.81,26.81,0,0,0,27.56,26.94V970.42a12.68,12.68,0,0,1-8.18-2.78A13,13,0,0,1,727,957.86Z"/><rect class="cls-3" x="739.38" y="969.41" width="3.8" height="16.56"/><rect class="cls-3" x="717.73" y="948.27" width="3.8" height="16.56" transform="translate(-236.91 1676.18) rotate(-90)"/><path class="cls-3" d="M1444.51,970.59l-.12,14.87a26.85,26.85,0,0,0,26.94-27.56h-14.26a12.67,12.67,0,0,1-2.79,8.18A13,13,0,0,1,1444.51,970.59Z"/><rect class="cls-3" x="1462.43" y="948.01" width="3.8" height="16.56" transform="translate(508.04 2420.62) rotate(-90)"/><rect class="cls-3" x="1441.29" y="969.67" width="3.8" height="16.56" transform="translate(2886.39 1955.89) rotate(-180)"/><rect class="cls-34" x="127.82" y="840.82" width="529.98" height="153.55"/><rect class="cls-34" x="127.81" y="841.43" width="529.98" height="38.16"/><rect class="cls-34" x="127.81" y="879.86" width="529.98" height="38.16"/><rect class="cls-34" x="127.81" y="918.12" width="529.98" height="38.16"/><rect class="cls-34" x="127.81" y="956.22" width="529.98" height="38.16"/><rect class="cls-4" x="903.99" y="331.52" width="3.48" height="15.76"/><rect class="cls-4" x="908.76" y="331.52" width="3.48" height="15.76"/><rect class="cls-4" x="870.84" y="331.52" width="3.48" height="15.76"/><rect class="cls-4" x="875.6" y="331.52" width="3.48" height="15.76"/><circle class="cls-35" cx="891.2" cy="297.52" r="12.98"/><rect class="cls-4" x="884.94" y="286.82" width="1.83" height="10.15" rx="0.91" transform="translate(1718.65 -128.09) rotate(135)"/><rect class="cls-4" x="896.17" y="298.05" width="1.83" height="10.15" rx="0.91" transform="translate(1745.76 -116.86) rotate(135)"/><rect class="cls-4" x="888.3" y="281.6" width="6.59" height="3.25"/><polygon class="cls-4" points="890.45 318.94 888.9 319.41 885.34 313.29 886.88 312.82 890.45 318.94"/><polygon class="cls-4" points="893.52 318.94 895.07 319.41 898.24 313.33 897.09 312.82 893.52 318.94"/><rect class="cls-4" x="891.04" y="312.52" width="1.67" height="6.63" transform="translate(1783.75 631.67) rotate(180)"/><rect class="cls-4" x="903.44" y="293.21" width="3.69" height="7.92"/><rect class="cls-4" x="884.85" y="310.69" width="13.63" height="3.72" rx="0.72"/><rect class="cls-4" x="888.8" y="320.52" width="6.45" height="7.65" rx="0.72"/><rect class="cls-4" x="885.11" y="318.03" width="13.73" height="1.57" rx="0.44"/><rect class="cls-4" x="885.11" y="319.73" width="13.73" height="1.57" rx="0.42"/><rect class="cls-4" x="874.82" y="297.99" width="3.03" height="3.14"/><rect class="cls-4" x="874.82" y="293.73" width="3.03" height="3.14"/><circle class="cls-36" cx="891.47" cy="297.52" r="3.33"/><circle class="cls-37" cx="891.51" cy="297.52" r="2.22"/><rect class="cls-4" x="896.17" y="286.82" width="1.83" height="10.15" rx="0.91" transform="translate(1325.01 1132.64) rotate(-135)"/><rect class="cls-4" x="884.94" y="298.05" width="1.83" height="10.15" rx="0.91" transform="translate(1297.9 1143.86) rotate(-135)"/><rect class="cls-4" x="885.01" y="324.3" width="13.48" height="24.85" rx="4.98"/><rect class="cls-4" x="897.26" y="322.8" width="3.31" height="27.82" rx="1.66"/><rect class="cls-4" x="883" y="322.8" width="3.31" height="27.82" rx="1.66"/><circle class="cls-38" cx="891.51" cy="297.52" r="1.33"/><circle class="cls-39" cx="891.51" cy="297.52" r="0.94"/><rect class="cls-4" x="1562.2" y="134.59" width="3.48" height="15.76"/><rect class="cls-4" x="1566.97" y="134.59" width="3.48" height="15.76"/><rect class="cls-4" x="1529.05" y="134.59" width="3.48" height="15.76"/><rect class="cls-4" x="1533.82" y="134.59" width="3.48" height="15.76"/><circle class="cls-35" cx="1549.41" cy="100.58" r="12.98"/><rect class="cls-4" x="1543.15" y="89.89" width="1.83" height="10.15" rx="0.91" transform="translate(2703.04 -929.7) rotate(135)"/><rect class="cls-4" x="1554.38" y="101.12" width="1.83" height="10.15" rx="0.91" transform="translate(2730.14 -918.47) rotate(135)"/><rect class="cls-4" x="1546.51" y="84.66" width="6.59" height="3.25"/><polygon class="cls-4" points="1548.66 122 1547.11 122.47 1543.55 116.35 1545.09 115.89 1548.66 122"/><polygon class="cls-4" points="1551.74 122 1553.28 122.47 1556.45 116.39 1555.3 115.89 1551.74 122"/><rect class="cls-4" x="1549.25" y="115.58" width="1.67" height="6.63" transform="translate(3100.18 237.8) rotate(180)"/><rect class="cls-4" x="1561.65" y="96.28" width="3.69" height="7.92"/><rect class="cls-4" x="1543.07" y="113.76" width="13.63" height="3.72" rx="0.72"/><rect class="cls-4" x="1547.01" y="123.58" width="6.45" height="7.65" rx="0.72"/><rect class="cls-4" x="1543.32" y="121.1" width="13.73" height="1.57" rx="0.44"/><rect class="cls-4" x="1543.32" y="122.79" width="13.73" height="1.57" rx="0.42"/><rect class="cls-4" x="1533.03" y="101.06" width="3.03" height="3.14"/><rect class="cls-4" x="1533.03" y="96.79" width="3.03" height="3.14"/><circle class="cls-36" cx="1549.68" cy="100.59" r="3.33"/><circle class="cls-37" cx="1549.73" cy="100.58" r="2.22"/><rect class="cls-4" x="1554.38" y="89.89" width="1.83" height="10.15" rx="0.91" transform="translate(2587.9 1261.87) rotate(-135)"/><rect class="cls-4" x="1543.15" y="101.12" width="1.83" height="10.15" rx="0.91" transform="translate(2560.8 1273.1) rotate(-135)"/><rect class="cls-4" x="1543.22" y="127.36" width="13.48" height="24.85" rx="4.98"/><rect class="cls-4" x="1555.47" y="125.86" width="3.31" height="27.82" rx="1.66"/><rect class="cls-4" x="1541.21" y="125.86" width="3.31" height="27.82" rx="1.66"/><circle class="cls-38" cx="1549.73" cy="100.58" r="1.33"/><circle class="cls-39" cx="1549.73" cy="100.58" r="0.94"/><rect class="cls-4" x="1332.9" y="331.52" width="3.48" height="15.76"/><rect class="cls-4" x="1337.67" y="331.52" width="3.48" height="15.76"/><rect class="cls-4" x="1299.75" y="331.52" width="3.48" height="15.76"/><rect class="cls-4" x="1304.52" y="331.52" width="3.48" height="15.76"/><circle class="cls-35" cx="1320.11" cy="297.52" r="12.98"/><rect class="cls-4" x="1313.85" y="286.82" width="1.83" height="10.15" rx="0.91" transform="translate(2450.85 -431.37) rotate(135)"/><rect class="cls-4" x="1325.08" y="298.05" width="1.83" height="10.15" rx="0.91" transform="translate(2477.95 -420.15) rotate(135)"/><rect class="cls-4" x="1317.21" y="281.6" width="6.59" height="3.25"/><polygon class="cls-4" points="1319.36 318.94 1317.81 319.41 1314.25 313.29 1315.79 312.82 1319.36 318.94"/><polygon class="cls-4" points="1322.43 318.94 1323.98 319.41 1327.15 313.33 1326 312.82 1322.43 318.94"/><rect class="cls-4" x="1319.95" y="312.52" width="1.67" height="6.63" transform="translate(2641.57 631.67) rotate(180)"/><rect class="cls-4" x="1332.35" y="293.21" width="3.69" height="7.92"/><rect class="cls-4" x="1313.76" y="310.69" width="13.63" height="3.72" rx="0.72"/><rect class="cls-4" x="1317.71" y="320.52" width="6.45" height="7.65" rx="0.72"/><rect class="cls-4" x="1314.02" y="318.03" width="13.73" height="1.57" rx="0.44"/><rect class="cls-4" x="1314.02" y="319.73" width="13.73" height="1.57" rx="0.42"/><rect class="cls-4" x="1303.73" y="297.99" width="3.03" height="3.14"/><rect class="cls-4" x="1303.73" y="293.73" width="3.03" height="3.14"/><circle class="cls-36" cx="1320.38" cy="297.52" r="3.33"/><circle class="cls-37" cx="1320.42" cy="297.52" r="2.22"/><rect class="cls-4" x="1325.08" y="286.82" width="1.83" height="10.15" rx="0.91" transform="translate(2057.2 1435.92) rotate(-135)"/><rect class="cls-4" x="1313.85" y="298.05" width="1.83" height="10.15" rx="0.91" transform="translate(2030.1 1447.15) rotate(-135)"/><rect class="cls-4" x="1313.92" y="324.3" width="13.48" height="24.85" rx="4.98"/><rect class="cls-4" x="1326.17" y="322.8" width="3.31" height="27.82" rx="1.66"/><rect class="cls-4" x="1311.91" y="322.8" width="3.31" height="27.82" rx="1.66"/><circle class="cls-38" cx="1320.42" cy="297.52" r="1.33"/><circle class="cls-39" cx="1320.42" cy="297.52" r="0.94"/><rect class="cls-4" x="903.99" y="585.22" width="3.48" height="15.76"/><rect class="cls-4" x="908.76" y="585.22" width="3.48" height="15.76"/><rect class="cls-4" x="870.84" y="585.22" width="3.48" height="15.76"/><rect class="cls-4" x="875.6" y="585.22" width="3.48" height="15.76"/><circle class="cls-35" cx="891.2" cy="551.21" r="12.98"/><rect class="cls-4" x="884.94" y="540.52" width="1.83" height="10.15" rx="0.91" transform="translate(1898.04 305) rotate(135)"/><rect class="cls-4" x="896.17" y="551.75" width="1.83" height="10.15" rx="0.91" transform="translate(1925.15 316.23) rotate(135)"/><rect class="cls-4" x="888.3" y="535.3" width="6.59" height="3.25"/><polygon class="cls-4" points="890.45 572.64 888.9 573.1 885.34 566.99 886.88 566.52 890.45 572.64"/><polygon class="cls-4" points="893.52 572.64 895.07 573.1 898.24 567.02 897.09 566.52 893.52 572.64"/><rect class="cls-4" x="891.04" y="566.21" width="1.67" height="6.63" transform="translate(1783.75 1139.06) rotate(180)"/><rect class="cls-4" x="903.44" y="546.91" width="3.69" height="7.92"/><rect class="cls-4" x="884.85" y="564.39" width="13.63" height="3.72" rx="0.72"/><rect class="cls-4" x="888.8" y="574.21" width="6.45" height="7.65" rx="0.72"/><rect class="cls-4" x="885.11" y="571.73" width="13.73" height="1.57" rx="0.44"/><rect class="cls-4" x="885.11" y="573.43" width="13.73" height="1.57" rx="0.42"/><rect class="cls-4" x="874.82" y="551.69" width="3.03" height="3.14"/><rect class="cls-4" x="874.82" y="547.43" width="3.03" height="3.14"/><circle class="cls-36" cx="891.47" cy="551.22" r="3.33"/><circle class="cls-37" cx="891.51" cy="551.21" r="2.22"/><rect class="cls-4" x="896.17" y="540.52" width="1.83" height="10.15" rx="0.91" transform="translate(1145.61 1565.73) rotate(-135)"/><rect class="cls-4" x="884.94" y="551.75" width="1.83" height="10.15" rx="0.91" transform="translate(1118.51 1576.95) rotate(-135)"/><rect class="cls-4" x="885.01" y="577.99" width="13.48" height="24.85" rx="4.98"/><rect class="cls-4" x="897.26" y="576.5" width="3.31" height="27.82" rx="1.66"/><rect class="cls-4" x="883" y="576.5" width="3.31" height="27.82" rx="1.66"/><circle class="cls-38" cx="891.51" cy="551.21" r="1.33"/><circle class="cls-39" cx="891.51" cy="551.21" r="0.94"/><rect class="cls-4" x="1332.9" y="585.22" width="3.48" height="15.76"/><rect class="cls-4" x="1337.67" y="585.22" width="3.48" height="15.76"/><rect class="cls-4" x="1299.75" y="585.22" width="3.48" height="15.76"/><rect class="cls-4" x="1304.52" y="585.22" width="3.48" height="15.76"/><circle class="cls-35" cx="1320.11" cy="551.21" r="12.98"/><rect class="cls-4" x="1313.85" y="540.52" width="1.83" height="10.15" rx="0.91" transform="translate(2630.24 1.72) rotate(135)"/><rect class="cls-4" x="1325.08" y="551.75" width="1.83" height="10.15" rx="0.91" transform="translate(2657.34 12.94) rotate(135)"/><rect class="cls-4" x="1317.21" y="535.3" width="6.59" height="3.25"/><polygon class="cls-4" points="1319.36 572.64 1317.81 573.1 1314.25 566.99 1315.79 566.52 1319.36 572.64"/><polygon class="cls-4" points="1322.43 572.64 1323.98 573.1 1327.15 567.02 1326 566.52 1322.43 572.64"/><rect class="cls-4" x="1319.95" y="566.21" width="1.67" height="6.63" transform="translate(2641.57 1139.06) rotate(180)"/><rect class="cls-4" x="1332.35" y="546.91" width="3.69" height="7.92"/><rect class="cls-4" x="1313.76" y="564.39" width="13.63" height="3.72" rx="0.72"/><rect class="cls-4" x="1317.71" y="574.21" width="6.45" height="7.65" rx="0.72"/><rect class="cls-4" x="1314.02" y="571.73" width="13.73" height="1.57" rx="0.44"/><rect class="cls-4" x="1314.02" y="573.43" width="13.73" height="1.57" rx="0.42"/><rect class="cls-4" x="1303.73" y="551.69" width="3.03" height="3.14"/><rect class="cls-4" x="1303.73" y="547.43" width="3.03" height="3.14"/><circle class="cls-36" cx="1320.38" cy="551.22" r="3.33"/><circle class="cls-37" cx="1320.42" cy="551.21" r="2.22"/><rect class="cls-4" x="1325.08" y="540.52" width="1.83" height="10.15" rx="0.91" transform="translate(1877.8 1869.02) rotate(-135)"/><rect class="cls-4" x="1313.85" y="551.75" width="1.83" height="10.15" rx="0.91" transform="translate(1850.71 1880.24) rotate(-135)"/><rect class="cls-4" x="1313.92" y="577.99" width="13.48" height="24.85" rx="4.98"/><rect class="cls-4" x="1326.17" y="576.5" width="3.31" height="27.82" rx="1.66"/><rect class="cls-4" x="1311.91" y="576.5" width="3.31" height="27.82" rx="1.66"/><circle class="cls-38" cx="1320.42" cy="551.21" r="1.33"/><circle class="cls-39" cx="1320.42" cy="551.21" r="0.94"/><rect class="cls-3" x="720.27" y="723.88" width="741.54" height="14"/><rect class="cls-4" x="879.17" y="721.66" width="24.9" height="17.43"/><rect class="cls-14" x="881.66" y="724.15" width="2.49" height="12.54"/><rect class="cls-14" x="899.1" y="723.86" width="2.49" height="12.74"/><rect class="cls-14" x="891.26" y="720.25" width="0.74" height="20.08" transform="translate(856.73 1882.29) rotate(-127.58)"/><polygon class="cls-4" points="879.78 717.75 907.49 717.75 893.63 712.45 893.63 712.45 893.63 715.1 879.78 715.1 879.78 717.75"/><polygon class="cls-33" points="910.62 762.18 942.11 762.18 948.13 762.18 944.65 770.36 967.8 760.59 944.65 750.82 948.13 759.01 942.11 759.01 910.62 759.01 910.62 762.18"/><polygon class="cls-33" points="1259.64 762.18 1291.13 762.18 1297.15 762.18 1293.67 770.36 1316.82 760.59 1293.67 750.82 1297.15 759.01 1291.13 759.01 1259.64 759.01 1259.64 762.18"/><rect class="cls-4" x="1223.9" y="722.77" width="3.48" height="15.76"/><rect class="cls-4" x="1228.67" y="722.77" width="3.48" height="15.76"/><rect class="cls-4" x="1190.75" y="722.77" width="3.48" height="15.76"/><rect class="cls-4" x="1195.52" y="722.77" width="3.48" height="15.76"/><circle class="cls-35" cx="1211.11" cy="688.76" r="12.98"/><rect class="cls-4" x="1204.85" y="678.07" width="1.83" height="10.15" rx="0.91" transform="translate(2541.43 313.61) rotate(135)"/><rect class="cls-4" x="1216.08" y="689.3" width="1.83" height="10.15" rx="0.91" transform="translate(2568.53 324.83) rotate(135)"/><rect class="cls-4" x="1208.21" y="672.84" width="6.59" height="3.25"/><polygon class="cls-4" points="1210.36 710.18 1208.81 710.65 1205.25 704.53 1206.79 704.07 1210.36 710.18"/><polygon class="cls-4" points="1213.43 710.18 1214.98 710.65 1218.15 704.57 1217 704.07 1213.43 710.18"/><rect class="cls-4" x="1210.95" y="703.76" width="1.67" height="6.63" transform="translate(2423.57 1414.16) rotate(180)"/><rect class="cls-4" x="1223.35" y="684.46" width="3.69" height="7.92"/><rect class="cls-4" x="1204.76" y="701.94" width="13.63" height="3.72" rx="0.72"/><rect class="cls-4" x="1208.71" y="711.76" width="6.45" height="7.65" rx="0.72"/><rect class="cls-4" x="1205.02" y="709.28" width="13.73" height="1.57" rx="0.44"/><rect class="cls-4" x="1205.02" y="710.98" width="13.73" height="1.57" rx="0.42"/><rect class="cls-4" x="1194.73" y="689.24" width="3.03" height="3.14"/><rect class="cls-4" x="1194.73" y="684.97" width="3.03" height="3.14"/><circle class="cls-36" cx="1211.38" cy="688.77" r="3.33"/><circle class="cls-37" cx="1211.42" cy="688.76" r="2.22"/><rect class="cls-4" x="1216.08" y="678.07" width="1.83" height="10.15" rx="0.91" transform="translate(1594.47 2026.75) rotate(-135)"/><rect class="cls-4" x="1204.85" y="689.3" width="1.83" height="10.15" rx="0.91" transform="translate(1567.37 2037.97) rotate(-135)"/><rect class="cls-4" x="1204.92" y="715.54" width="13.48" height="24.85" rx="4.98"/><rect class="cls-4" x="1217.17" y="714.04" width="3.31" height="27.82" rx="1.66"/><rect class="cls-4" x="1202.91" y="714.04" width="3.31" height="27.82" rx="1.66"/><circle class="cls-38" cx="1211.42" cy="688.76" r="1.33"/><circle class="cls-39" cx="1211.42" cy="688.76" r="0.94"/><rect class="cls-4" x="903.99" y="969.64" width="3.48" height="15.76"/><rect class="cls-4" x="908.76" y="969.64" width="3.48" height="15.76"/><rect class="cls-4" x="870.84" y="969.64" width="3.48" height="15.76"/><rect class="cls-4" x="875.6" y="969.64" width="3.48" height="15.76"/><circle class="cls-35" cx="891.2" cy="935.63" r="12.98"/><rect class="cls-4" x="884.94" y="924.94" width="1.83" height="10.15" rx="0.91" transform="translate(2169.87 961.25) rotate(135)"/><rect class="cls-4" x="896.17" y="936.17" width="1.83" height="10.15" rx="0.91" transform="translate(2196.97 972.48) rotate(135)"/><rect class="cls-4" x="888.3" y="919.72" width="6.59" height="3.25"/><polygon class="cls-4" points="890.45 957.06 888.9 957.52 885.34 951.41 886.88 950.94 890.45 957.06"/><polygon class="cls-4" points="893.52 957.06 895.07 957.52 898.24 951.44 897.09 950.94 893.52 957.06"/><rect class="cls-4" x="891.04" y="950.64" width="1.67" height="6.63" transform="translate(1783.75 1907.9) rotate(180)"/><rect class="cls-4" x="903.44" y="931.33" width="3.69" height="7.92"/><rect class="cls-4" x="884.85" y="948.81" width="13.63" height="3.72" rx="0.72"/><rect class="cls-4" x="888.8" y="958.63" width="6.45" height="7.65" rx="0.72"/><rect class="cls-4" x="885.11" y="956.15" width="13.73" height="1.57" rx="0.44"/><rect class="cls-4" x="885.11" y="957.85" width="13.73" height="1.57" rx="0.42"/><rect class="cls-4" x="874.82" y="936.11" width="3.03" height="3.14"/><rect class="cls-4" x="874.82" y="931.85" width="3.03" height="3.14"/><circle class="cls-36" cx="891.47" cy="935.64" r="3.33"/><circle class="cls-37" cx="891.51" cy="935.63" r="2.22"/><rect class="cls-4" x="896.17" y="924.94" width="1.83" height="10.15" rx="0.91" transform="translate(873.79 2221.97) rotate(-135)"/><rect class="cls-4" x="884.94" y="936.17" width="1.83" height="10.15" rx="0.91" transform="translate(846.69 2233.2) rotate(-135)"/><rect class="cls-4" x="885.01" y="962.41" width="13.48" height="24.85" rx="4.98"/><rect class="cls-4" x="897.26" y="960.92" width="3.31" height="27.82" rx="1.66"/><rect class="cls-4" x="883" y="960.92" width="3.31" height="27.82" rx="1.66"/><circle class="cls-38" cx="891.51" cy="935.63" r="1.33"/><circle class="cls-39" cx="891.51" cy="935.63" r="0.94"/><rect class="cls-4" x="1332.9" y="969.64" width="3.48" height="15.76"/><rect class="cls-4" x="1337.67" y="969.64" width="3.48" height="15.76"/><rect class="cls-4" x="1299.75" y="969.64" width="3.48" height="15.76"/><rect class="cls-4" x="1304.52" y="969.64" width="3.48" height="15.76"/><circle class="cls-35" cx="1320.11" cy="935.63" r="12.98"/><rect class="cls-4" x="1313.85" y="924.94" width="1.83" height="10.15" rx="0.91" transform="translate(2902.06 657.97) rotate(135)"/><rect class="cls-4" x="1325.08" y="936.17" width="1.83" height="10.15" rx="0.91" transform="translate(2929.17 669.18) rotate(135)"/><rect class="cls-4" x="1317.21" y="919.72" width="6.59" height="3.25"/><polygon class="cls-4" points="1319.36 957.06 1317.81 957.52 1314.25 951.41 1315.79 950.94 1319.36 957.06"/><polygon class="cls-4" points="1322.43 957.06 1323.98 957.52 1327.15 951.44 1326 950.94 1322.43 957.06"/><rect class="cls-4" x="1319.95" y="950.64" width="1.67" height="6.63" transform="translate(2641.57 1907.9) rotate(180)"/><rect class="cls-4" x="1332.35" y="931.33" width="3.69" height="7.92"/><rect class="cls-4" x="1313.76" y="948.81" width="13.63" height="3.72" rx="0.72"/><rect class="cls-4" x="1317.71" y="958.63" width="6.45" height="7.65" rx="0.72"/><rect class="cls-4" x="1314.02" y="956.15" width="13.73" height="1.57" rx="0.44"/><rect class="cls-4" x="1314.02" y="957.85" width="13.73" height="1.57" rx="0.42"/><rect class="cls-4" x="1303.73" y="936.11" width="3.03" height="3.14"/><rect class="cls-4" x="1303.73" y="931.85" width="3.03" height="3.14"/><circle class="cls-36" cx="1320.38" cy="935.64" r="3.33"/><circle class="cls-37" cx="1320.42" cy="935.63" r="2.22"/><rect class="cls-4" x="1325.08" y="924.94" width="1.83" height="10.15" rx="0.91" transform="translate(1605.98 2525.26) rotate(-135)"/><rect class="cls-4" x="1313.85" y="936.17" width="1.83" height="10.15" rx="0.91" transform="translate(1578.88 2536.48) rotate(-135)"/><rect class="cls-4" x="1313.92" y="962.41" width="13.48" height="24.85" rx="4.98"/><rect class="cls-4" x="1326.17" y="960.92" width="3.31" height="27.82" rx="1.66"/><rect class="cls-4" x="1311.91" y="960.92" width="3.31" height="27.82" rx="1.66"/><circle class="cls-38" cx="1320.42" cy="935.63" r="1.33"/><circle class="cls-39" cx="1320.42" cy="935.63" r="0.94"/><text class="cls-40" transform="translate(1029.92 177.61)">SANLEY</text><ellipse class="cls-41" cx="1067.9" cy="218.74" rx="2.44" ry="2.37"/><circle class="cls-42" cx="1067.9" cy="218.74" r="2.12"/><circle class="cls-41" cx="1067.9" cy="218.74" r="1.65"/><circle class="cls-42" cx="1067.9" cy="218.74" r="1.18"/><ellipse class="cls-41" cx="1067.9" cy="226.73" rx="2.44" ry="2.37"/><circle class="cls-42" cx="1067.9" cy="226.73" r="2.12"/><circle class="cls-41" cx="1067.9" cy="226.73" r="1.65"/><circle class="cls-42" cx="1067.9" cy="226.73" r="1.18"/><rect class="cls-43" x="1019.08" y="185.67" width="53.19" height="67.31" rx="10.76"/><rect class="cls-43" x="1018.46" y="165.32" width="54.01" height="86.88" rx="10.76"/><rect class="cls-44" x="1019.24" y="191.94" width="9.39" height="52.12"/><rect class="cls-44" x="1063.07" y="191.94" width="9.39" height="52.12"/><rect class="cls-45" x="1030.59" y="185.28" width="2.35" height="67.31"/><rect class="cls-45" x="1035.29" y="185.28" width="2.35" height="67.31"/><rect class="cls-45" x="1039.98" y="185.28" width="2.35" height="67.31"/><rect class="cls-45" x="1044.68" y="185.28" width="2.35" height="67.31"/><rect class="cls-45" x="1049.37" y="185.28" width="2.35" height="67.31"/><rect class="cls-45" x="1054.07" y="185.28" width="2.35" height="67.31"/><rect class="cls-45" x="1058.77" y="185.28" width="2.35" height="67.31"/><path class="cls-43" d="M1077.06,243.94h-3.28l-1.1-1.1V220l1.1-1.1h3.28l1.1,1.1v22.85Z"/><rect class="cls-43" x="1021.13" y="252.98" width="48.21" height="10.96"/><rect class="cls-43" x="1030.2" y="252.98" width="5.48" height="10.96"/><rect class="cls-43" x="1056.81" y="252.98" width="5.48" height="10.96"/><rect class="cls-43" x="1008.6" y="264.72" width="73.57" height="3.91" rx="1.1"/><rect class="cls-43" x="1010.17" y="268.63" width="70.44" height="3.13" rx="1.1"/><rect class="cls-43" x="1017.6" y="272.16" width="55.57" height="3.91" rx="1.1"/><rect class="cls-46" x="1024.65" y="338.68" width="40.69" height="3.91" rx="1.1"/><rect class="cls-43" x="1023.08" y="369.99" width="44.61" height="3.91" rx="1.1"/><rect class="cls-43" x="1029.74" y="276.07" width="31.31" height="23.48"/><rect class="cls-47" x="1019.95" y="299.55" width="50.87" height="7.83" rx="1.1"/><rect class="cls-43" x="1026.13" y="307.38" width="38.58" height="31.31"/><rect class="cls-43" x="1025.43" y="342.6" width="39.28" height="27.39"/><rect class="cls-43" x="1030.13" y="307.38" width="30.52" height="31.31" rx="0.6"/><rect class="cls-43" x="1012.31" y="329.23" width="12.34" height="20.8"/><rect class="cls-43" x="1065.35" y="329.23" width="12.34" height="20.8"/><rect class="cls-43" x="1008.08" y="323.43" width="4.24" height="32.69" rx="0.4"/><rect class="cls-43" x="1000.76" y="323.43" width="4.24" height="32.69" rx="0.4"/><rect class="cls-43" x="1085.26" y="323.43" width="4.24" height="32.69" rx="0.4"/><rect class="cls-43" x="1077.94" y="323.43" width="4.24" height="32.69" rx="0.4"/><text class="cls-40" transform="translate(1029.6 431.2)">SANLEY</text><ellipse class="cls-41" cx="1067.58" cy="472.32" rx="2.44" ry="2.37"/><circle class="cls-42" cx="1067.58" cy="472.32" r="2.12"/><circle class="cls-41" cx="1067.58" cy="472.32" r="1.65"/><circle class="cls-42" cx="1067.58" cy="472.32" r="1.18"/><ellipse class="cls-41" cx="1067.58" cy="480.31" rx="2.44" ry="2.37"/><circle class="cls-42" cx="1067.58" cy="480.31" r="2.12"/><circle class="cls-41" cx="1067.58" cy="480.31" r="1.65"/><circle class="cls-42" cx="1067.58" cy="480.31" r="1.18"/><rect class="cls-43" x="1018.76" y="439.25" width="53.19" height="67.31" rx="10.76"/><rect class="cls-43" x="1018.14" y="418.9" width="54.01" height="86.88" rx="10.76"/><rect class="cls-44" x="1018.92" y="445.53" width="9.39" height="52.12"/><rect class="cls-44" x="1062.75" y="445.53" width="9.39" height="52.12"/><rect class="cls-45" x="1030.27" y="438.86" width="2.35" height="67.31"/><rect class="cls-45" x="1034.97" y="438.86" width="2.35" height="67.31"/><rect class="cls-45" x="1039.66" y="438.86" width="2.35" height="67.31"/><rect class="cls-45" x="1044.36" y="438.86" width="2.35" height="67.31"/><rect class="cls-45" x="1049.06" y="438.86" width="2.35" height="67.31"/><rect class="cls-45" x="1053.75" y="438.86" width="2.35" height="67.31"/><rect class="cls-45" x="1058.45" y="438.86" width="2.35" height="67.31"/><path class="cls-43" d="M1076.74,497.52h-3.28l-1.1-1.1V473.57l1.1-1.1h3.28l1.1,1.1v22.85Z"/><rect class="cls-43" x="1020.81" y="506.56" width="48.21" height="10.96"/><rect class="cls-43" x="1029.88" y="506.56" width="5.48" height="10.96"/><rect class="cls-43" x="1056.49" y="506.56" width="5.48" height="10.96"/><rect class="cls-43" x="1008.29" y="518.3" width="73.57" height="3.91" rx="1.1"/><rect class="cls-43" x="1009.85" y="522.22" width="70.44" height="3.13" rx="1.1"/><rect class="cls-43" x="1017.29" y="525.74" width="55.57" height="3.91" rx="1.1"/><rect class="cls-46" x="1024.34" y="592.27" width="40.69" height="3.91" rx="1.1"/><rect class="cls-43" x="1022.77" y="623.57" width="44.61" height="3.91" rx="1.1"/><rect class="cls-43" x="1029.42" y="529.65" width="31.31" height="23.48"/><rect class="cls-47" x="1019.63" y="553.13" width="50.87" height="7.83" rx="1.1"/><rect class="cls-43" x="1025.81" y="560.96" width="38.58" height="31.31"/><rect class="cls-43" x="1025.11" y="596.18" width="39.28" height="27.39"/><rect class="cls-43" x="1029.81" y="560.96" width="30.52" height="31.31" rx="0.6"/><rect class="cls-43" x="1012" y="582.82" width="12.34" height="20.8"/><rect class="cls-43" x="1065.03" y="582.82" width="12.34" height="20.8"/><rect class="cls-43" x="1007.76" y="577.02" width="4.24" height="32.69" rx="0.4"/><rect class="cls-43" x="1000.44" y="577.02" width="4.24" height="32.69" rx="0.4"/><rect class="cls-43" x="1084.94" y="577.02" width="4.24" height="32.69" rx="0.4"/><rect class="cls-43" x="1077.62" y="577.02" width="4.24" height="32.69" rx="0.4"/><text class="cls-40" transform="translate(1030.47 815.48)">SANLEY</text><ellipse class="cls-41" cx="1068.44" cy="856.61" rx="2.44" ry="2.37"/><circle class="cls-42" cx="1068.44" cy="856.61" r="2.12"/><circle class="cls-41" cx="1068.44" cy="856.61" r="1.65"/><circle class="cls-42" cx="1068.44" cy="856.61" r="1.18"/><ellipse class="cls-41" cx="1068.44" cy="864.59" rx="2.44" ry="2.37"/><circle class="cls-42" cx="1068.44" cy="864.59" r="2.12"/><circle class="cls-41" cx="1068.44" cy="864.59" r="1.65"/><circle class="cls-42" cx="1068.44" cy="864.59" r="1.18"/><rect class="cls-43" x="1019.62" y="823.54" width="53.19" height="67.31" rx="10.76"/><rect class="cls-43" x="1019" y="803.19" width="54.01" height="86.88" rx="10.76"/><rect class="cls-44" x="1019.79" y="829.81" width="9.39" height="52.12"/><rect class="cls-44" x="1063.62" y="829.81" width="9.39" height="52.12"/><rect class="cls-45" x="1031.13" y="823.14" width="2.35" height="67.31"/><rect class="cls-45" x="1035.83" y="823.14" width="2.35" height="67.31"/><rect class="cls-45" x="1040.53" y="823.14" width="2.35" height="67.31"/><rect class="cls-45" x="1045.22" y="823.14" width="2.35" height="67.31"/><rect class="cls-45" x="1049.92" y="823.14" width="2.35" height="67.31"/><rect class="cls-45" x="1054.61" y="823.14" width="2.35" height="67.31"/><rect class="cls-45" x="1059.31" y="823.14" width="2.35" height="67.31"/><path class="cls-43" d="M1077.6,881.8h-3.27l-1.1-1.1V857.86l1.1-1.1h3.27l1.1,1.1V880.7Z"/><rect class="cls-43" x="1021.67" y="890.85" width="48.21" height="10.96"/><rect class="cls-43" x="1030.74" y="890.85" width="5.48" height="10.96"/><rect class="cls-43" x="1057.35" y="890.85" width="5.48" height="10.96"/><rect class="cls-43" x="1009.15" y="902.59" width="73.57" height="3.91" rx="1.1"/><rect class="cls-43" x="1010.71" y="906.5" width="70.44" height="3.13" rx="1.1"/><rect class="cls-43" x="1018.15" y="910.02" width="55.57" height="3.91" rx="1.1"/><rect class="cls-46" x="1025.2" y="976.55" width="40.69" height="3.91" rx="1.1"/><rect class="cls-43" x="1023.63" y="1007.86" width="44.61" height="3.91" rx="1.1"/><rect class="cls-43" x="1030.28" y="913.94" width="31.31" height="23.48"/><rect class="cls-47" x="1020.5" y="937.42" width="50.87" height="7.83" rx="1.1"/><rect class="cls-43" x="1026.67" y="945.24" width="38.58" height="31.31"/><rect class="cls-43" x="1025.98" y="980.46" width="39.28" height="27.39"/><rect class="cls-43" x="1030.67" y="945.24" width="30.52" height="31.31" rx="0.6"/><rect class="cls-43" x="1012.86" y="967.1" width="12.34" height="20.8"/><rect class="cls-43" x="1065.89" y="967.1" width="12.34" height="20.8"/><rect class="cls-43" x="1008.62" y="961.3" width="4.24" height="32.69" rx="0.4"/><rect class="cls-43" x="1001.3" y="961.3" width="4.24" height="32.69" rx="0.4"/><rect class="cls-43" x="1085.81" y="961.3" width="4.24" height="32.69" rx="0.4"/><rect class="cls-43" x="1078.49" y="961.3" width="4.24" height="32.69" rx="0.4"/><rect class="cls-6" x="1492.83" y="744.11" width="32.29" height="29.43" rx="2.35" transform="translate(2267.8 -750.15) rotate(90)"/><rect class="cls-4" x="1494.09" y="745.66" width="29.95" height="26.32" rx="1.91" transform="translate(2267.89 -750.24) rotate(90)"/><ellipse class="cls-48" cx="1498.61" cy="746.36" rx="0.99" ry="1.03"/><ellipse class="cls-48" cx="1498.61" cy="771.07" rx="0.99" ry="1.03"/><ellipse class="cls-48" cx="1519.75" cy="746.36" rx="0.99" ry="1.03"/><ellipse class="cls-48" cx="1519.75" cy="771.07" rx="0.99" ry="1.03"/><rect class="cls-49" x="1496.24" y="762.95" width="3.54" height="4.63" transform="translate(2263.27 -732.74) rotate(90)"/><rect class="cls-4" x="1486.09" y="757.66" width="12.83" height="1.22" transform="translate(2250.78 -734.24) rotate(90)"/><rect class="cls-50" x="1474.33" y="748.26" width="12.83" height="20.12" rx="0.25" transform="translate(2239.07 -722.43) rotate(90)"/><rect class="cls-51" x="1480.16" y="752.47" width="5.77" height="11.7" rx="0.15" transform="translate(2241.37 -724.72) rotate(90)"/><text class="cls-52" transform="translate(1518 753.58) rotate(90) scale(1.09 1)">压力开关</text><rect class="cls-51" x="1499.58" y="754.35" width="20.54" height="10.06" transform="translate(2269.23 -750.47) rotate(90)"/><text class="cls-53" transform="translate(1512.47 749.55) rotate(90) scale(1.09 1)">CSS</text><text class="cls-54" transform="translate(1509.71 750.56) rotate(90) scale(1.09 1)">asdsanmlopq<tspan class="cls-55" x="11.59" y="0">r</tspan><tspan class="cls-56" x="12.38" y="0">st</tspan></text><text class="cls-54" transform="translate(1506.94 750.56) rotate(90) scale(1.09 1)">asdsanmlopq<tspan class="cls-55" x="11.59" y="0">r</tspan><tspan class="cls-56" x="12.38" y="0">st</tspan></text><polyline class="cls-57" points="570.09 501.31 570.09 704.31 259.09 704.31 259.09 501.31"/><path class="cls-58" d="M569.91,500.31H259.27c-.42,0-.55-.45-.17-.59l25.43-9.38a.47.47,0,0,1,.17,0H595.34c.42,0,.55.44.17.58l-25.43,9.39A.47.47,0,0,1,569.91,500.31Z"/><path class="cls-59" d="M570.09,500.4V704.05c0,.27,1.15.35,1.51.11L596,688s.08-.07.08-.11V490.56c0-.27-1.15-.35-1.52-.11C594.57,490.45,570.09,500.36,570.09,500.4Z"/><path class="cls-60" d="M260.09,598.31c7-3,45.56-25.45,71.67-30.31,30.53-5.69,60.42-1.69,79.29,5.79,5.18,2.05,38,25.52,58.68,25.52,23.36,0,91.36-14,99.36-17v121h-309Z"/><path class="cls-60" d="M571.09,582.31v121l24-16v-119Z"/><rect class="cls-3" x="384.07" y="338.21" width="298.49" height="14" transform="translate(878.53 -188.11) rotate(90)"/><path class="cls-3" d="M517.36,189.75H221.18c-2.81,0-5.09-3.13-5.09-7h0c0-3.86,2.28-7,5.09-7H517.36c2.81,0,5.09,3.14,5.09,7h0C522.45,186.62,520.17,189.75,517.36,189.75Z"/><rect class="cls-3" x="456.09" y="724.64" width="257.98" height="14"/><rect class="cls-4" x="531.93" y="405.36" width="2.79" height="15.76" transform="translate(120.08 946.56) rotate(-90)"/><rect class="cls-4" x="531.93" y="402.55" width="2.79" height="15.76" transform="translate(122.89 943.75) rotate(-90)"/><rect class="cls-4" x="531.93" y="414.45" width="2.79" height="15.76" transform="translate(110.99 955.65) rotate(-90)"/><rect class="cls-4" x="531.93" y="411.64" width="2.79" height="15.76" transform="translate(113.8 952.84) rotate(-90)"/><text class="cls-15" transform="translate(331.43 238.55)">进水阀门</text><text class="cls-16" transform="translate(201.87 156.87)">市政进水</text><polygon class="cls-33" points="559.47 310 559.47 341.48 559.47 347.5 551.28 344.03 561.05 367.17 570.82 344.03 562.64 347.5 562.64 341.48 562.64 310 559.47 310"/><polygon class="cls-33" points="211 229.78 242.48 229.78 248.5 229.78 245.03 237.96 268.17 228.19 245.03 218.42 248.5 226.61 242.48 226.61 211 226.61 211 229.78"/><polygon class="cls-33" points="518.38 760.64 549.86 760.64 555.88 760.64 552.4 768.83 575.55 759.06 552.4 749.29 555.88 757.47 549.86 757.47 518.38 757.47 518.38 760.64"/><path class="cls-3" d="M526.2,202.53l14.86.13a26.81,26.81,0,0,0-27.56-26.94V190a12.61,12.61,0,0,1,8.18,2.78A13,13,0,0,1,526.2,202.53Z"/><rect class="cls-3" x="510" y="174.43" width="3.8" height="16.56" transform="translate(1023.79 365.42) rotate(-180)"/><rect class="cls-3" x="531.65" y="195.57" width="3.8" height="16.56" transform="translate(737.4 -329.7) rotate(90)"/><rect class="cls-4" x="385.4" y="174.62" width="3.48" height="15.76"/><rect class="cls-4" x="390.16" y="174.62" width="3.48" height="15.76"/><rect class="cls-4" x="352.25" y="174.62" width="3.48" height="15.76"/><rect class="cls-4" x="357.01" y="174.62" width="3.48" height="15.76"/><circle class="cls-35" cx="372.6" cy="140.62" r="12.98"/><rect class="cls-4" x="366.35" y="129.93" width="1.83" height="10.15" rx="0.91" transform="translate(722.41 -29.23) rotate(135)"/><rect class="cls-4" x="377.57" y="141.16" width="1.83" height="10.15" rx="0.91" transform="translate(749.52 -18) rotate(135)"/><rect class="cls-4" x="369.71" y="124.7" width="6.59" height="3.25"/><polygon class="cls-4" points="371.85 162.04 370.31 162.51 366.74 156.39 368.29 155.93 371.85 162.04"/><polygon class="cls-4" points="374.93 162.04 376.48 162.51 379.65 156.43 378.5 155.93 374.93 162.04"/><rect class="cls-4" x="372.45" y="155.62" width="1.67" height="6.63" transform="translate(746.57 317.88) rotate(180)"/><rect class="cls-4" x="384.85" y="136.32" width="3.69" height="7.92"/><rect class="cls-4" x="366.26" y="153.8" width="13.63" height="3.72" rx="0.72"/><rect class="cls-4" x="370.2" y="163.62" width="6.45" height="7.65" rx="0.72"/><rect class="cls-4" x="366.51" y="161.14" width="13.73" height="1.57" rx="0.44"/><rect class="cls-4" x="366.51" y="162.83" width="13.73" height="1.57" rx="0.42"/><rect class="cls-4" x="356.22" y="141.1" width="3.03" height="3.14"/><rect class="cls-4" x="356.22" y="136.83" width="3.03" height="3.14"/><circle class="cls-36" cx="372.88" cy="140.63" r="3.33"/><circle class="cls-37" cx="372.92" cy="140.62" r="2.22"/><rect class="cls-4" x="377.57" y="129.93" width="1.83" height="10.15" rx="0.91" transform="translate(550.66 498.1) rotate(-135)"/><rect class="cls-4" x="366.35" y="141.16" width="1.83" height="10.15" rx="0.91" transform="translate(523.55 509.33) rotate(-135)"/><rect class="cls-4" x="366.42" y="167.4" width="13.48" height="24.85" rx="4.98"/><rect class="cls-4" x="378.67" y="165.9" width="3.31" height="27.82" rx="1.66"/><rect class="cls-4" x="364.41" y="165.9" width="3.31" height="27.82" rx="1.66"/><circle class="cls-38" cx="372.92" cy="140.62" r="1.33"/><circle class="cls-39" cx="372.92" cy="140.62" r="0.94"/><circle class="cls-61" cx="435.09" cy="682.31" r="10"/><ellipse class="cls-62" cx="435.34" cy="682.81" rx="8" ry="7.75"/><rect class="cls-3" x="413.32" y="691.31" width="44" height="14" rx="7" transform="translate(1133.63 262.98) rotate(90)"/><path class="cls-3" d="M443.1,711.88l-14.87-.12a26.85,26.85,0,0,0,27.56,26.94V724.44a12.67,12.67,0,0,1-8.18-2.79A13,13,0,0,1,443.1,711.88Z"/><rect class="cls-3" x="455.5" y="723.43" width="3.8" height="16.56"/><rect class="cls-3" x="433.84" y="702.29" width="3.8" height="16.56" transform="translate(-274.82 1146.31) rotate(-90)"/></svg>