<svg id="图层_1" data-name="图层 1" xmlns="http://www.w3.org/2000/svg" xmlns:xlink="http://www.w3.org/1999/xlink" viewBox="0 0 1920 1080"><defs><style>.cls-1{fill:#448aff;}.cls-2{fill:#2f7bac;}.cls-3{fill:#7ecef4;}.cls-4{fill:#06a8fa;}.cls-17,.cls-5,.cls-55,.cls-61,.cls-7{fill:#143a82;}.cls-6{fill:#cee6f9;}.cls-50,.cls-7{font-size:22px;}.cls-43,.cls-50,.cls-60,.cls-61,.cls-7{font-family:PingFang-SC-Medium, PingFang SC;font-weight:500;}.cls-8{fill:#df592f;}.cls-10,.cls-14,.cls-15,.cls-18,.cls-19,.cls-20,.cls-31,.cls-32,.cls-33,.cls-34,.cls-35,.cls-38,.cls-51,.cls-57,.cls-62,.cls-67,.cls-68,.cls-69,.cls-70,.cls-71,.cls-72,.cls-9{fill:none;}.cls-14,.cls-15,.cls-55,.cls-56,.cls-9{stroke:#143a82;}.cls-10,.cls-14,.cls-15,.cls-16,.cls-18,.cls-19,.cls-20,.cls-31,.cls-32,.cls-33,.cls-34,.cls-35,.cls-36,.cls-38,.cls-44,.cls-45,.cls-46,.cls-47,.cls-48,.cls-49,.cls-51,.cls-52,.cls-55,.cls-56,.cls-57,.cls-62,.cls-67,.cls-68,.cls-69,.cls-70,.cls-71,.cls-72,.cls-9{stroke-miterlimit:10;}.cls-35,.cls-36,.cls-55,.cls-56,.cls-57,.cls-9{stroke-width:3px;}.cls-10{stroke:#10397a;}.cls-10,.cls-14,.cls-18,.cls-31,.cls-34,.cls-48,.cls-51,.cls-62,.cls-67,.cls-68,.cls-69,.cls-70,.cls-71,.cls-72{stroke-width:2px;}.cls-11{fill:#0e3773;}.cls-12{fill:#4676a5;}.cls-13{fill:#a1d5ff;}.cls-16,.cls-66{fill:#f2f2f2;}.cls-16,.cls-34{stroke:#333f4f;}.cls-17{font-size:2.93px;}.cls-17,.cls-28{font-family:Benmo-Chenhei, Benmo Chenhei;}.cls-18{stroke:url(#未命名的渐变_15);}.cls-19{stroke:#618cd1;}.cls-19,.cls-20,.cls-44,.cls-45,.cls-46,.cls-47,.cls-49{stroke-width:0.5px;}.cls-20{stroke:#fff;}.cls-21{fill:#10397a;}.cls-22{fill:#5276aa;}.cls-23,.cls-24{font-size:2.1px;letter-spacing:0.18em;}.cls-23,.cls-24,.cls-25,.cls-64,.cls-65{fill:#fff;}.cls-23{font-family:MicrosoftYaHei-Bold, Microsoft YaHei;}.cls-23,.cls-40,.cls-41{font-weight:700;}.cls-24,.cls-25{font-family:MicrosoftYaHei, Microsoft YaHei;}.cls-25{font-size:1.38px;letter-spacing:0.18em;}.cls-26{letter-spacing:0.19em;}.cls-27{letter-spacing:0.18em;}.cls-28{font-size:7.04px;fill:#01579b;}.cls-29{fill:#2a5e96;}.cls-30{fill:#9ac0f7;}.cls-31,.cls-32,.cls-33,.cls-35{stroke:#01579b;}.cls-32{stroke-width:1.5px;}.cls-36,.cls-39,.cls-40,.cls-41{fill:#edeeee;}.cls-36{stroke:#06375b;}.cls-37{fill:#81a3c2;}.cls-38{stroke:#e3e5e5;}.cls-40{font-size:3.95px;}.cls-40,.cls-41{font-family:PingFang-SC-Bold, PingFang SC;}.cls-41{font-size:2.91px;}.cls-42{fill:#66c8f5;}.cls-43{font-size:19.32px;fill:#234e80;}.cls-44,.cls-45,.cls-46,.cls-47,.cls-48,.cls-49{stroke:#0977af;}.cls-44{fill:url(#未命名的渐变_54);}.cls-45{fill:url(#未命名的渐变_54-2);}.cls-46{fill:url(#未命名的渐变_54-3);}.cls-47{fill:url(#未命名的渐变_54-4);}.cls-48{fill:#caeafc;}.cls-49{fill:url(#未命名的渐变_54-5);}.cls-50,.cls-60{fill:#db4516;}.cls-51{stroke:url(#未命名的渐变_15-2);}.cls-52{fill:#334c68;stroke:#20363f;stroke-width:0.1px;}.cls-53,.cls-54{fill:#7f91aa;}.cls-54{font-size:9.4px;font-family:AdobeSongStd-Light-GBpc-EUC-H, Adobe Song Std;letter-spacing:-0.09em;}.cls-56{fill:#e6e6e6;}.cls-57{stroke:#b3b3b3;}.cls-58{fill:#333f4f;}.cls-59{fill:#868686;}.cls-60,.cls-61{font-size:20.23px;}.cls-62{stroke:url(#未命名的渐变_15-3);}.cls-63{fill:#38bf55;}.cls-65{font-size:17.79px;font-family:MicrosoftYaHeiUI, Microsoft YaHei UI;}.cls-67{stroke:url(#未命名的渐变_15-4);}.cls-68{stroke:url(#未命名的渐变_15-5);}.cls-69{stroke:url(#未命名的渐变_15-6);}.cls-70{stroke:url(#未命名的渐变_15-7);}.cls-71{stroke:url(#未命名的渐变_15-8);}.cls-72{stroke:url(#未命名的渐变_15-9);}</style><linearGradient id="未命名的渐变_15" x1="1545.15" y1="458.65" x2="1630.27" y2="458.65" gradientUnits="userSpaceOnUse"><stop offset="0" stop-color="#4f6c99"/><stop offset="0.16" stop-color="#526f9c"/><stop offset="0.29" stop-color="#5b78a6"/><stop offset="0.4" stop-color="#6c87b6"/><stop offset="0.5" stop-color="#829dcd"/><stop offset="0.59" stop-color="#9fb8ea"/><stop offset="0.62" stop-color="#a9c2f4"/><stop offset="1" stop-color="#718dbe"/></linearGradient><linearGradient id="未命名的渐变_54" x1="1099.29" y1="601.49" x2="1110.38" y2="601.49" gradientUnits="userSpaceOnUse"><stop offset="0" stop-color="#3f84a7"/><stop offset="0.21" stop-color="#4286a9"/><stop offset="0.37" stop-color="#4c8eb1"/><stop offset="0.51" stop-color="#5c9cbe"/><stop offset="0.64" stop-color="#73aed0"/><stop offset="0.76" stop-color="#90c6e7"/><stop offset="0.82" stop-color="#a1d4f5"/><stop offset="1" stop-color="#529dc4"/></linearGradient><linearGradient id="未命名的渐变_54-2" x1="1070.81" y1="577.49" x2="1137.25" y2="577.49" xlink:href="#未命名的渐变_54"/><linearGradient id="未命名的渐变_54-3" x1="1070.81" y1="506.01" x2="1137.25" y2="506.01" xlink:href="#未命名的渐变_54"/><linearGradient id="未命名的渐变_54-4" x1="1070.81" y1="543.25" x2="1137.25" y2="543.25" xlink:href="#未命名的渐变_54"/><linearGradient id="未命名的渐变_54-5" x1="1094.77" y1="611.49" x2="1115.46" y2="611.49" xlink:href="#未命名的渐变_54"/><linearGradient id="未命名的渐变_15-2" x1="204.21" y1="275.84" x2="289.33" y2="275.84" xlink:href="#未命名的渐变_15"/><linearGradient id="未命名的渐变_15-3" x1="1639.1" y1="167.66" x2="1717.54" y2="167.66" xlink:href="#未命名的渐变_15"/><linearGradient id="未命名的渐变_15-4" x1="1159.58" y1="160.27" x2="1233.76" y2="160.27" xlink:href="#未命名的渐变_15"/><linearGradient id="未命名的渐变_15-5" x1="1239.14" y1="131.96" x2="1313.32" y2="131.96" xlink:href="#未命名的渐变_15"/><linearGradient id="未命名的渐变_15-6" x1="1159.58" y1="128.77" x2="1233.76" y2="128.77" xlink:href="#未命名的渐变_15"/><linearGradient id="未命名的渐变_15-7" x1="1159.58" y1="873.38" x2="1233.76" y2="873.38" xlink:href="#未命名的渐变_15"/><linearGradient id="未命名的渐变_15-8" x1="1239.14" y1="845.07" x2="1313.32" y2="845.07" xlink:href="#未命名的渐变_15"/><linearGradient id="未命名的渐变_15-9" x1="1159.58" y1="841.88" x2="1233.76" y2="841.88" xlink:href="#未命名的渐变_15"/></defs><title>新户外供水2泵设备 </title><rect class="cls-1" x="1027.3" y="314.8" width="58.36" height="2.76"/><rect class="cls-1" x="1030.3" y="937.86" width="58.36" height="2.76"/><polygon class="cls-1" points="1029.34 940.62 1027.29 315.07 1030.41 315.06 1032.47 940.61 1029.34 940.62"/><polygon class="cls-1" points="1675.57 903.95 1673.29 191.26 1676.42 191.26 1678.69 903.95 1675.57 903.95"/><rect class="cls-2" x="1006.6" y="403.67" width="47.4" height="77.31"/><rect class="cls-3" x="1011.57" y="403.67" width="1.63" height="77.31"/><rect class="cls-3" x="1016.68" y="403.67" width="1.63" height="77.31"/><rect class="cls-3" x="1021.8" y="403.67" width="1.63" height="77.31"/><rect class="cls-3" x="1026.91" y="403.67" width="1.63" height="77.31"/><rect class="cls-3" x="1032.02" y="403.67" width="1.63" height="77.31"/><rect class="cls-3" x="1037.13" y="403.67" width="1.63" height="77.31"/><rect class="cls-3" x="1042.24" y="403.67" width="1.63" height="77.31"/><rect class="cls-3" x="1047.35" y="403.67" width="1.63" height="77.31"/><rect class="cls-2" x="1006.6" y="697.51" width="47.4" height="77.31"/><rect class="cls-3" x="1011.57" y="697.51" width="1.63" height="77.31"/><rect class="cls-3" x="1016.68" y="697.51" width="1.63" height="77.31"/><rect class="cls-3" x="1021.8" y="697.51" width="1.63" height="77.31"/><rect class="cls-3" x="1026.91" y="697.51" width="1.63" height="77.31"/><rect class="cls-3" x="1032.02" y="697.51" width="1.63" height="77.31"/><rect class="cls-3" x="1037.13" y="697.51" width="1.63" height="77.31"/><rect class="cls-3" x="1042.24" y="697.51" width="1.63" height="77.31"/><rect class="cls-3" x="1047.35" y="697.51" width="1.63" height="77.31"/><rect class="cls-4" x="1101.72" y="543.63" width="859.46" height="14" transform="translate(2082.08 -980.82) rotate(90)"/><path class="cls-4" d="M1538.57,121.6l-14.87.13a26.83,26.83,0,0,1,27.57-26.94v14.26a12.64,12.64,0,0,0-8.19,2.78A13,13,0,0,0,1538.57,121.6Z"/><rect class="cls-4" x="1550.97" y="93.5" width="3.8" height="16.56"/><rect class="cls-4" x="1529.32" y="114.64" width="3.8" height="16.56" transform="translate(1654.14 -1408.3) rotate(90)"/><path class="cls-4" d="M798.76,298.9l.12-14.87a26.81,26.81,0,0,0-26.94,27.56H786.2a12.68,12.68,0,0,1,2.78-8.18A13,13,0,0,1,798.76,298.9Z"/><rect class="cls-4" x="777.03" y="304.92" width="3.8" height="16.56" transform="translate(1092.13 -465.73) rotate(90)"/><rect class="cls-4" x="798.17" y="283.27" width="3.8" height="16.56"/><rect class="cls-4" x="446.4" y="639.11" width="665.83" height="14" transform="translate(1425.43 -133.2) rotate(90)"/><rect class="cls-4" x="802.08" y="988.2" width="257" height="14"/><rect class="cls-5" x="1259.22" y="985.51" width="24.9" height="17.43"/><rect class="cls-6" x="1261.71" y="988" width="2.49" height="12.54"/><rect class="cls-6" x="1279.14" y="987.7" width="2.49" height="12.74"/><rect class="cls-6" x="1271.3" y="984.1" width="0.74" height="20.08" transform="translate(1259.49 2608.23) rotate(-127.58)"/><polygon class="cls-5" points="1259.82 981.6 1287.53 981.6 1273.67 976.3 1273.67 976.3 1273.67 978.95 1259.82 978.95 1259.82 981.6"/><text class="cls-7" transform="translate(1007 978.95)">2#泵</text><polygon class="cls-8" points="862.67 1032.61 894.15 1032.61 900.17 1032.61 896.7 1040.79 919.84 1031.02 896.7 1021.25 900.17 1029.44 894.15 1029.44 862.67 1029.44 862.67 1032.61"/><path class="cls-4" d="M787,975.76l-14.87-.12a26.83,26.83,0,0,0,27.56,26.94V988.32a12.7,12.7,0,0,1-8.18-2.78A13.06,13.06,0,0,1,787,975.76Z"/><rect class="cls-4" x="799.43" y="987.31" width="3.8" height="16.56"/><rect class="cls-4" x="777.77" y="966.17" width="3.8" height="16.56" transform="translate(-194.77 1754.12) rotate(-90)"/><path class="cls-4" d="M1511.55,987.49l-.12,14.87a26.83,26.83,0,0,0,26.94-27.56h-14.26a12.64,12.64,0,0,1-2.78,8.18A13.06,13.06,0,0,1,1511.55,987.49Z"/><rect class="cls-4" x="1529.48" y="964.91" width="3.8" height="16.56" transform="translate(558.19 2504.57) rotate(-90)"/><rect class="cls-4" x="1508.33" y="986.56" width="3.8" height="16.56" transform="translate(3020.47 1989.69) rotate(-180)"/><rect class="cls-5" x="963.04" y="987.54" width="3.48" height="15.76"/><rect class="cls-5" x="967.8" y="987.54" width="3.48" height="15.76"/><rect class="cls-5" x="929.88" y="987.54" width="3.48" height="15.76"/><rect class="cls-5" x="934.65" y="987.54" width="3.48" height="15.76"/><circle class="cls-9" cx="950.24" cy="953.53" r="12.98"/><rect class="cls-5" x="943.98" y="942.84" width="1.83" height="10.15" rx="0.91" transform="translate(2283.32 950.06) rotate(135)"/><rect class="cls-5" x="955.21" y="954.07" width="1.83" height="10.15" rx="0.91" transform="translate(2310.42 961.28) rotate(135)"/><rect class="cls-5" x="947.34" y="937.62" width="6.59" height="3.25"/><polygon class="cls-5" points="949.49 974.96 947.95 975.42 944.38 969.31 945.92 968.84 949.49 974.96"/><polygon class="cls-5" points="952.57 974.96 954.11 975.42 957.28 969.34 956.13 968.84 952.57 974.96"/><rect class="cls-5" x="950.08" y="968.53" width="1.67" height="6.63" transform="translate(1901.84 1943.7) rotate(180)"/><rect class="cls-5" x="962.48" y="949.23" width="3.69" height="7.92"/><rect class="cls-5" x="943.9" y="966.71" width="13.63" height="3.72" rx="0.72"/><rect class="cls-5" x="947.84" y="976.53" width="6.45" height="7.65" rx="0.72"/><rect class="cls-5" x="944.15" y="974.05" width="13.73" height="1.57" rx="0.44"/><rect class="cls-5" x="944.15" y="975.75" width="13.73" height="1.57" rx="0.42"/><rect class="cls-5" x="933.86" y="954.01" width="3.03" height="3.14"/><rect class="cls-5" x="933.86" y="949.75" width="3.03" height="3.14"/><circle class="cls-10" cx="950.52" cy="953.54" r="3.33"/><circle class="cls-11" cx="950.56" cy="953.53" r="2.22"/><rect class="cls-5" x="955.21" y="942.84" width="1.83" height="10.15" rx="0.91" transform="translate(961.93 2294.28) rotate(-135)"/><rect class="cls-5" x="943.98" y="954.07" width="1.83" height="10.15" rx="0.91" transform="translate(934.82 2305.51) rotate(-135)"/><rect class="cls-5" x="944.05" y="980.31" width="13.48" height="24.85" rx="4.98"/><rect class="cls-5" x="956.31" y="978.82" width="3.31" height="27.82" rx="1.66"/><rect class="cls-5" x="942.05" y="978.82" width="3.31" height="27.82" rx="1.66"/><circle class="cls-12" cx="950.56" cy="953.53" r="1.33"/><circle class="cls-13" cx="950.56" cy="953.53" r="0.94"/><rect class="cls-4" x="1148.03" y="988.2" width="361.77" height="14"/><rect class="cls-5" x="1259.22" y="985.51" width="24.9" height="17.43"/><rect class="cls-6" x="1261.71" y="988" width="2.49" height="12.54"/><rect class="cls-6" x="1279.14" y="987.7" width="2.49" height="12.74"/><rect class="cls-6" x="1271.3" y="984.1" width="0.74" height="20.08" transform="translate(1259.49 2608.23) rotate(-127.58)"/><polygon class="cls-5" points="1259.82 981.6 1287.53 981.6 1273.67 976.3 1273.67 976.3 1273.67 978.95 1259.82 978.95 1259.82 981.6"/><polygon class="cls-8" points="862.67 1032.61 894.15 1032.61 900.17 1032.61 896.7 1040.79 919.84 1031.02 896.7 1021.25 900.17 1029.44 894.15 1029.44 862.67 1029.44 862.67 1032.61"/><polygon class="cls-8" points="1405.35 1032.61 1436.83 1032.61 1442.86 1032.61 1439.38 1040.79 1462.53 1031.02 1439.38 1021.25 1442.86 1029.44 1436.83 1029.44 1405.35 1029.44 1405.35 1032.61"/><rect class="cls-4" x="796.24" y="284.3" width="263.85" height="14"/><rect class="cls-4" x="796.08" y="284.3" width="264.01" height="14"/><rect class="cls-5" x="1249.22" y="284.2" width="24.9" height="17.43"/><rect class="cls-6" x="1251.71" y="286.69" width="2.49" height="12.54"/><rect class="cls-6" x="1269.14" y="286.39" width="2.49" height="12.74"/><rect class="cls-6" x="1261.3" y="282.79" width="0.74" height="20.08" transform="translate(1799.15 1471.25) rotate(-127.58)"/><polygon class="cls-5" points="1249.82 280.29 1277.53 280.29 1263.67 274.99 1263.67 274.99 1263.67 277.64 1249.82 277.64 1249.82 280.29"/><text class="cls-7" transform="translate(997 274.15)">1#泵</text><rect class="cls-4" x="1149.03" y="286.24" width="380.2" height="14"/><rect class="cls-5" x="1249.22" y="284.2" width="24.9" height="17.43"/><rect class="cls-6" x="1251.71" y="286.69" width="2.49" height="12.54"/><rect class="cls-6" x="1269.14" y="286.39" width="2.49" height="12.74"/><rect class="cls-6" x="1261.3" y="282.79" width="0.74" height="20.08" transform="translate(1799.15 1471.25) rotate(-127.58)"/><polygon class="cls-5" points="1249.82 280.29 1277.53 280.29 1263.67 274.99 1263.67 274.99 1263.67 277.64 1249.82 277.64 1249.82 280.29"/><polygon class="cls-8" points="852.67 324.43 884.15 324.43 890.17 324.43 886.7 332.62 909.84 322.85 886.7 313.08 890.17 321.26 884.15 321.26 852.67 321.26 852.67 324.43"/><polygon class="cls-8" points="1433.67 324.43 1485.26 324.43 1481.79 332.62 1504.93 322.85 1481.79 313.08 1485.26 321.26 1433.67 321.26 1433.67 324.43"/><rect class="cls-5" x="1596.03" y="382.92" width="0.63" height="2.18" transform="translate(1980.35 -1212.33) rotate(90)"/><rect class="cls-5" x="1594.36" y="377.3" width="0.63" height="2.18" transform="translate(896.06 -1104.21) rotate(51.42)"/><rect class="cls-5" x="1594.03" y="388.42" width="0.63" height="2.18" transform="translate(2931.72 -561.85) rotate(130.84)"/><rect class="cls-5" x="1588.45" y="391.73" width="0.63" height="2.18" transform="translate(3211.5 605.46) rotate(173.58)"/><rect class="cls-5" x="1588.5" y="373.68" width="0.63" height="2.18" transform="translate(66.41 -214.37) rotate(7.88)"/><rect class="cls-5" x="1596.72" y="382" width="0.33" height="1.21" transform="translate(1668.9 -1257.89) rotate(79.04)"/><rect class="cls-5" x="1596.72" y="384.73" width="0.33" height="1.21" transform="translate(2312.94 -1093.1) rotate(102.28)"/><rect class="cls-5" x="1596.46" y="385.93" width="0.33" height="1.21" transform="translate(2507.33 -980.67) rotate(110.06)"/><rect class="cls-5" x="1596.05" y="387.08" width="0.33" height="1.21" transform="translate(2684.49 -842.71) rotate(117.84)"/><rect class="cls-5" x="1595.49" y="388.17" width="0.33" height="1.21" transform="translate(2841.07 -681.83) rotate(125.62)"/><rect class="cls-5" x="1593.95" y="390.06" width="0.33" height="1.21" transform="translate(3081.12 -304.06) rotate(141.19)"/><rect class="cls-5" x="1593" y="390.83" width="0.33" height="1.21" transform="translate(3160.13 -94.38) rotate(148.97)"/><rect class="cls-5" x="1591.96" y="391.47" width="0.33" height="1.21" transform="translate(3209.73 123.92) rotate(156.75)"/><rect class="cls-5" x="1590.84" y="391.96" width="0.33" height="1.21" transform="translate(3229.08 346.69) rotate(164.54)"/><rect class="cls-5" x="1589.66" y="392.5" width="0.33" height="1.21" transform="translate(3217.93 570.16) rotate(172.32)"/><rect class="cls-5" x="1587.42" y="392.88" width="0.33" height="1.21" transform="translate(3174.48 789.75) rotate(-179.9)"/><rect class="cls-5" x="1586.2" y="392.88" width="0.33" height="1.21" transform="translate(3103.77 1000.83) rotate(-172.12)"/><rect class="cls-5" x="1584.99" y="392.72" width="0.33" height="1.21" transform="translate(3005.22 1200.07) rotate(-164.33)"/><rect class="cls-5" x="1596.45" y="380.86" width="0.33" height="1.21" transform="translate(1454.37 -1253.91) rotate(71.59)"/><rect class="cls-5" x="1596.04" y="379.76" width="0.33" height="1.21" transform="translate(1242.35 -1221.92) rotate(64.14)"/><rect class="cls-5" x="1595.48" y="378.72" width="0.33" height="1.21" transform="translate(1036.52 -1162.54) rotate(56.7)"/><rect class="cls-5" x="1593.81" y="376.27" width="0.33" height="1.21" transform="translate(644.28 -957.62) rotate(41.26)"/><rect class="cls-5" x="1592.68" y="375.46" width="0.33" height="1.21" transform="translate(455.93 -801.22) rotate(32.72)"/><rect class="cls-5" x="1591.43" y="374.41" width="0.33" height="1.21" transform="translate(293.1 -618.83) rotate(24.17)"/><rect class="cls-5" x="1590.1" y="373.97" width="0.33" height="1.21" transform="translate(159.69 -414.54) rotate(15.63)"/><rect class="cls-5" x="1587.33" y="373.69" width="0.33" height="1.21" transform="matrix(1, -0.03, 0.03, 1, -9.03, 40.59)"/><rect class="cls-5" x="1585.94" y="373.66" width="0.33" height="1.21" transform="translate(-40.9 281.25) rotate(-10)"/><rect class="cls-5" x="1584.59" y="374.04" width="0.33" height="1.21" transform="translate(-36.85 523.6) rotate(-18.55)"/><rect class="cls-5" x="1569.58" y="382.24" width="5.62" height="3.7" transform="translate(1956.47 -1188.29) rotate(90)"/><rect class="cls-5" x="1541.29" y="379.3" width="5.62" height="9.59" transform="translate(1928.19 -1160) rotate(90)"/><rect class="cls-5" x="1561.55" y="382.73" width="5.62" height="2.72" transform="translate(1948.44 -1180.26) rotate(90)"/><rect class="cls-5" x="1546.03" y="383.44" width="6.78" height="1.27" transform="translate(1933.5 -1165.35) rotate(90)"/><polygon class="cls-5" points="1560.63 388.51 1560.63 379.7 1562.8 381.29 1562.8 386.9 1560.63 388.51"/><polygon class="cls-5" points="1570.93 386.46 1570.93 381.72 1568.48 379.34 1566.04 381.72 1566.04 386.46 1568.48 388.84 1570.93 386.46"/><polygon class="cls-5" points="1560.37 387.53 1560.37 380.67 1555.43 377.23 1550.48 380.67 1550.48 387.53 1555.43 390.97 1560.37 387.53"/><rect class="cls-5" x="1553.49" y="372.61" width="2.81" height="8.92" transform="translate(1931.96 -1177.83) rotate(90)"/><rect class="cls-5" x="1554.21" y="372.39" width="1.62" height="6.53" transform="translate(1930.67 -1179.37) rotate(90)"/><rect class="cls-5" x="1553.76" y="372.27" width="2.32" height="3.16" transform="translate(1928.77 -1181.07) rotate(90)"/><rect class="cls-5" x="1554.02" y="366.71" width="1.15" height="2.8" rx="0.37" transform="translate(1922.7 -1186.48) rotate(90)"/><rect class="cls-5" x="1554.03" y="367.93" width="1.04" height="7.8" transform="translate(1926.38 -1182.72) rotate(90)"/><rect class="cls-5" x="1556.2" y="369.52" width="2.76" height="1.73" rx="0.44" transform="translate(1927.97 -1187.2) rotate(90)"/><rect class="cls-5" x="1553.33" y="369.52" width="2.76" height="1.73" rx="0.44" transform="translate(1925.09 -1184.32) rotate(90)"/><rect class="cls-5" x="1550.13" y="369.52" width="2.76" height="1.73" rx="0.44" transform="translate(1921.89 -1181.12) rotate(90)"/><circle class="cls-14" cx="1587.72" cy="383.7" r="13.34"/><path class="cls-15" d="M1583.86,373.46a12.66,12.66,0,0,1,3.69-.57,11.42,11.42,0,0,1,3.23.56,10.9,10.9,0,1,1-6.89,20.68"/><polygon class="cls-5" points="1585.15 381.56 1587.06 380.43 1588.31 384.24 1591.52 390.09 1591.27 390.23 1587.98 384.46 1585.15 381.56"/><circle class="cls-16" cx="1587.73" cy="383.63" r="0.84"/><text class="cls-17" transform="translate(1579.28 380.03) rotate(90)">MPA</text><text class="cls-7" transform="translate(1546.05 826.04)">压力控制器</text><text class="cls-7" transform="translate(1542.15 430.41)">出水压力表</text><rect class="cls-18" x="1546.15" y="443.55" width="83.11" height="30.2"/><polygon class="cls-8" points="1566.76 604.53 1566.76 573.05 1566.76 567.02 1574.94 570.5 1565.17 547.35 1555.4 570.5 1563.59 567.02 1563.59 573.05 1563.59 604.53 1566.76 604.53"/><rect class="cls-15" x="1560.17" y="761.96" width="32.29" height="29.43" rx="2.35" transform="translate(2353 -799.64) rotate(90)"/><rect class="cls-5" x="1561.43" y="763.52" width="29.95" height="26.32" rx="1.91" transform="translate(2353.09 -799.73) rotate(90)"/><ellipse class="cls-19" cx="1565.96" cy="764.21" rx="0.99" ry="1.03"/><ellipse class="cls-19" cx="1565.96" cy="788.92" rx="0.99" ry="1.03"/><ellipse class="cls-19" cx="1587.09" cy="764.21" rx="0.99" ry="1.03"/><ellipse class="cls-19" cx="1587.09" cy="788.92" rx="0.99" ry="1.03"/><rect class="cls-20" x="1563.58" y="780.8" width="3.54" height="4.63" transform="translate(2348.47 -782.23) rotate(90)"/><rect class="cls-5" x="1553.44" y="775.51" width="12.83" height="1.22" transform="translate(2335.97 -783.73) rotate(90)"/><rect class="cls-21" x="1541.68" y="766.11" width="12.83" height="20.12" rx="0.25" transform="translate(2324.27 -771.92) rotate(90)"/><rect class="cls-22" x="1547.5" y="770.32" width="5.77" height="11.7" rx="0.15" transform="translate(2326.56 -774.22) rotate(90)"/><text class="cls-23" transform="translate(1585.35 771.43) rotate(90) scale(1.09 1)">压力开关</text><rect class="cls-22" x="1566.93" y="772.2" width="20.54" height="10.06" transform="translate(2354.43 -799.97) rotate(90)"/><text class="cls-24" transform="translate(1579.82 767.4) rotate(90) scale(1.09 1)">CSS</text><text class="cls-25" transform="translate(1577.05 768.41) rotate(90) scale(1.09 1)">asdsanmlopq<tspan class="cls-26" x="11.59" y="0">r</tspan><tspan class="cls-27" x="12.38" y="0">st</tspan></text><text class="cls-25" transform="translate(1574.29 768.41) rotate(90) scale(1.09 1)">asdsanmlopq<tspan class="cls-26" x="11.59" y="0">r</tspan><tspan class="cls-27" x="12.38" y="0">st</tspan></text><text class="cls-28" transform="translate(1088.46 831.76)">SANLEY</text><ellipse class="cls-29" cx="1126.43" cy="872.89" rx="2.44" ry="2.37"/><circle class="cls-30" cx="1126.43" cy="872.89" r="2.12"/><circle class="cls-29" cx="1126.43" cy="872.89" r="1.65"/><circle class="cls-30" cx="1126.43" cy="872.89" r="1.18"/><ellipse class="cls-29" cx="1126.43" cy="880.87" rx="2.44" ry="2.37"/><circle class="cls-30" cx="1126.43" cy="880.87" r="2.12"/><circle class="cls-29" cx="1126.43" cy="880.87" r="1.65"/><circle class="cls-30" cx="1126.43" cy="880.87" r="1.18"/><rect class="cls-31" x="1077.61" y="839.81" width="53.19" height="67.31" rx="10.76"/><rect class="cls-31" x="1076.99" y="819.46" width="54.01" height="86.88" rx="10.76"/><rect class="cls-32" x="1077.78" y="846.09" width="9.39" height="52.12"/><rect class="cls-32" x="1121.61" y="846.09" width="9.39" height="52.12"/><rect class="cls-33" x="1089.13" y="839.42" width="2.35" height="67.31"/><rect class="cls-33" x="1093.82" y="839.42" width="2.35" height="67.31"/><rect class="cls-33" x="1098.52" y="839.42" width="2.35" height="67.31"/><rect class="cls-33" x="1103.21" y="839.42" width="2.35" height="67.31"/><rect class="cls-33" x="1107.91" y="839.42" width="2.35" height="67.31"/><rect class="cls-33" x="1112.61" y="839.42" width="2.35" height="67.31"/><rect class="cls-33" x="1117.3" y="839.42" width="2.35" height="67.31"/><path class="cls-31" d="M1135.6,898.08h-3.28l-1.1-1.1V874.13l1.1-1.1h3.28l1.1,1.1V897Z"/><rect class="cls-31" x="1079.66" y="907.12" width="48.21" height="10.96"/><rect class="cls-31" x="1088.73" y="907.12" width="5.48" height="10.96"/><rect class="cls-31" x="1115.35" y="907.12" width="5.48" height="10.96"/><rect class="cls-31" x="1067.14" y="918.87" width="73.57" height="3.91" rx="1.1"/><rect class="cls-31" x="1068.7" y="922.78" width="70.44" height="3.13" rx="1.1"/><rect class="cls-31" x="1076.14" y="926.3" width="55.57" height="3.91" rx="1.1"/><rect class="cls-34" x="1083.19" y="992.83" width="40.69" height="3.91" rx="1.1"/><rect class="cls-31" x="1081.62" y="1024.14" width="44.61" height="3.91" rx="1.1"/><rect class="cls-31" x="1088.27" y="930.21" width="31.31" height="23.48"/><rect class="cls-35" x="1078.49" y="953.69" width="50.87" height="7.83" rx="1.1"/><rect class="cls-31" x="1084.66" y="961.52" width="38.58" height="31.31"/><rect class="cls-31" x="1083.97" y="996.74" width="39.28" height="27.39"/><rect class="cls-31" x="1088.66" y="961.52" width="30.52" height="31.31" rx="0.6"/><rect class="cls-31" x="1070.85" y="983.38" width="12.34" height="20.8"/><rect class="cls-31" x="1123.88" y="983.38" width="12.34" height="20.8"/><rect class="cls-31" x="1066.61" y="977.58" width="4.24" height="32.69" rx="0.4"/><rect class="cls-31" x="1059.29" y="977.58" width="4.24" height="32.69" rx="0.4"/><rect class="cls-31" x="1143.8" y="977.58" width="4.24" height="32.69" rx="0.4"/><rect class="cls-31" x="1136.48" y="977.58" width="4.24" height="32.69" rx="0.4"/><text class="cls-28" transform="translate(1089.46 129.76)">SANLEY</text><ellipse class="cls-29" cx="1127.43" cy="170.89" rx="2.44" ry="2.37"/><circle class="cls-30" cx="1127.43" cy="170.89" r="2.12"/><circle class="cls-29" cx="1127.43" cy="170.89" r="1.65"/><circle class="cls-30" cx="1127.43" cy="170.89" r="1.18"/><ellipse class="cls-29" cx="1127.43" cy="178.87" rx="2.44" ry="2.37"/><circle class="cls-30" cx="1127.43" cy="178.87" r="2.12"/><circle class="cls-29" cx="1127.43" cy="178.87" r="1.65"/><circle class="cls-30" cx="1127.43" cy="178.87" r="1.18"/><rect class="cls-31" x="1078.61" y="137.81" width="53.19" height="67.31" rx="10.76"/><rect class="cls-31" x="1077.99" y="117.46" width="54.01" height="86.88" rx="10.76"/><rect class="cls-32" x="1078.78" y="144.09" width="9.39" height="52.12"/><rect class="cls-32" x="1122.61" y="144.09" width="9.39" height="52.12"/><rect class="cls-33" x="1090.13" y="137.42" width="2.35" height="67.31"/><rect class="cls-33" x="1094.82" y="137.42" width="2.35" height="67.31"/><rect class="cls-33" x="1099.52" y="137.42" width="2.35" height="67.31"/><rect class="cls-33" x="1104.21" y="137.42" width="2.35" height="67.31"/><rect class="cls-33" x="1108.91" y="137.42" width="2.35" height="67.31"/><rect class="cls-33" x="1113.61" y="137.42" width="2.35" height="67.31"/><rect class="cls-33" x="1118.3" y="137.42" width="2.35" height="67.31"/><path class="cls-31" d="M1136.6,196.08h-3.28l-1.1-1.1V172.13l1.1-1.1h3.28l1.1,1.1V195Z"/><rect class="cls-31" x="1080.66" y="205.12" width="48.21" height="10.96"/><rect class="cls-31" x="1089.73" y="205.12" width="5.48" height="10.96"/><rect class="cls-31" x="1116.35" y="205.12" width="5.48" height="10.96"/><rect class="cls-31" x="1068.14" y="216.87" width="73.57" height="3.91" rx="1.1"/><rect class="cls-31" x="1069.7" y="220.78" width="70.44" height="3.13" rx="1.1"/><rect class="cls-31" x="1077.14" y="224.3" width="55.57" height="3.91" rx="1.1"/><rect class="cls-34" x="1084.19" y="290.83" width="40.69" height="3.91" rx="1.1"/><rect class="cls-31" x="1082.62" y="322.14" width="44.61" height="3.91" rx="1.1"/><rect class="cls-31" x="1089.27" y="228.21" width="31.31" height="23.48"/><rect class="cls-35" x="1079.49" y="251.69" width="50.87" height="7.83" rx="1.1"/><rect class="cls-31" x="1085.66" y="259.52" width="38.58" height="31.31"/><rect class="cls-31" x="1084.97" y="294.74" width="39.28" height="27.39"/><rect class="cls-31" x="1089.66" y="259.52" width="30.52" height="31.31" rx="0.6"/><rect class="cls-31" x="1071.85" y="281.38" width="12.34" height="20.8"/><rect class="cls-31" x="1124.88" y="281.38" width="12.34" height="20.8"/><rect class="cls-31" x="1067.61" y="275.58" width="4.24" height="32.69" rx="0.4"/><rect class="cls-31" x="1060.29" y="275.58" width="4.24" height="32.69" rx="0.4"/><rect class="cls-31" x="1144.8" y="275.58" width="4.24" height="32.69" rx="0.4"/><rect class="cls-31" x="1137.48" y="275.58" width="4.24" height="32.69" rx="0.4"/><polygon class="cls-1" points="1678.57 903.95 1133.12 905.74 1133.11 902.31 1678.56 900.52 1678.57 903.95"/><rect class="cls-36" x="1617.62" y="575.24" width="104.29" height="64.18"/><rect class="cls-37" x="1619.73" y="577.25" width="100.07" height="9.67"/><rect class="cls-37" x="1619.74" y="631.87" width="99.98" height="5.66"/><circle class="cls-38" cx="1629.66" cy="582.09" r="3.64"/><rect class="cls-39" x="1637.68" y="579.67" width="16.04" height="0.92"/><rect class="cls-39" x="1637.68" y="582.09" width="8.02" height="2.01"/><text class="cls-40" transform="translate(1663.14 583.09)">青岛三利集团</text><text class="cls-41" transform="translate(1663.14 636.16)">青岛三利集团</text><circle class="cls-42" cx="1628.29" cy="597.95" r="4.91"/><circle class="cls-42" cx="1648.94" cy="597.95" r="4.91"/><circle class="cls-42" cx="1669.59" cy="597.95" r="4.91"/><circle class="cls-42" cx="1690.25" cy="597.95" r="4.91"/><circle class="cls-42" cx="1710.9" cy="597.95" r="4.91"/><circle class="cls-42" cx="1628.29" cy="619.62" r="4.91"/><circle class="cls-42" cx="1648.94" cy="619.62" r="4.91"/><circle class="cls-42" cx="1669.59" cy="619.62" r="4.91"/><circle class="cls-42" cx="1690.25" cy="619.62" r="4.91"/><circle class="cls-42" cx="1710.9" cy="619.62" r="4.91"/><text class="cls-43" transform="translate(1735.37 614.7)">触摸屏</text><rect class="cls-1" x="1144.8" y="191.26" width="531.01" height="2.76"/><rect class="cls-5" x="963.04" y="987.54" width="3.48" height="15.76"/><rect class="cls-5" x="967.8" y="987.54" width="3.48" height="15.76"/><rect class="cls-5" x="929.88" y="987.54" width="3.48" height="15.76"/><rect class="cls-5" x="934.65" y="987.54" width="3.48" height="15.76"/><circle class="cls-9" cx="950.24" cy="953.53" r="12.98"/><rect class="cls-5" x="943.98" y="942.84" width="1.83" height="10.15" rx="0.91" transform="translate(2283.32 950.06) rotate(135)"/><rect class="cls-5" x="955.21" y="954.07" width="1.83" height="10.15" rx="0.91" transform="translate(2310.42 961.28) rotate(135)"/><rect class="cls-5" x="947.34" y="937.62" width="6.59" height="3.25"/><polygon class="cls-5" points="949.49 974.96 947.95 975.42 944.38 969.31 945.92 968.84 949.49 974.96"/><polygon class="cls-5" points="952.57 974.96 954.11 975.42 957.28 969.34 956.13 968.84 952.57 974.96"/><rect class="cls-5" x="950.08" y="968.53" width="1.67" height="6.63" transform="translate(1901.84 1943.7) rotate(180)"/><rect class="cls-5" x="962.48" y="949.23" width="3.69" height="7.92"/><rect class="cls-5" x="943.9" y="966.71" width="13.63" height="3.72" rx="0.72"/><rect class="cls-5" x="947.84" y="976.53" width="6.45" height="7.65" rx="0.72"/><rect class="cls-5" x="944.15" y="974.05" width="13.73" height="1.57" rx="0.44"/><rect class="cls-5" x="944.15" y="975.75" width="13.73" height="1.57" rx="0.42"/><rect class="cls-5" x="933.86" y="954.01" width="3.03" height="3.14"/><rect class="cls-5" x="933.86" y="949.75" width="3.03" height="3.14"/><circle class="cls-10" cx="950.52" cy="953.54" r="3.33"/><circle class="cls-11" cx="950.56" cy="953.53" r="2.22"/><rect class="cls-5" x="955.21" y="942.84" width="1.83" height="10.15" rx="0.91" transform="translate(961.93 2294.28) rotate(-135)"/><rect class="cls-5" x="943.98" y="954.07" width="1.83" height="10.15" rx="0.91" transform="translate(934.82 2305.51) rotate(-135)"/><rect class="cls-5" x="944.05" y="980.31" width="13.48" height="24.85" rx="4.98"/><rect class="cls-5" x="956.31" y="978.82" width="3.31" height="27.82" rx="1.66"/><rect class="cls-5" x="942.05" y="978.82" width="3.31" height="27.82" rx="1.66"/><circle class="cls-12" cx="950.56" cy="953.53" r="1.33"/><circle class="cls-13" cx="950.56" cy="953.53" r="0.94"/><rect class="cls-5" x="963.04" y="283.42" width="3.48" height="15.76"/><rect class="cls-5" x="967.8" y="283.42" width="3.48" height="15.76"/><rect class="cls-5" x="929.88" y="283.42" width="3.48" height="15.76"/><rect class="cls-5" x="934.65" y="283.42" width="3.48" height="15.76"/><circle class="cls-9" cx="950.24" cy="249.42" r="12.98"/><rect class="cls-5" x="943.98" y="238.72" width="1.83" height="10.15" rx="0.91" transform="translate(1785.43 -251.95) rotate(135)"/><rect class="cls-5" x="955.21" y="249.95" width="1.83" height="10.15" rx="0.91" transform="translate(1812.54 -240.72) rotate(135)"/><rect class="cls-5" x="947.34" y="233.5" width="6.59" height="3.25"/><polygon class="cls-5" points="949.49 270.84 947.95 271.31 944.38 265.19 945.92 264.72 949.49 270.84"/><polygon class="cls-5" points="952.57 270.84 954.11 271.31 957.28 265.23 956.13 264.72 952.57 270.84"/><rect class="cls-5" x="950.08" y="264.42" width="1.67" height="6.63" transform="translate(1901.84 535.47) rotate(180)"/><rect class="cls-5" x="962.48" y="245.11" width="3.69" height="7.92"/><rect class="cls-5" x="943.9" y="262.59" width="13.63" height="3.72" rx="0.72"/><rect class="cls-5" x="947.84" y="272.42" width="6.45" height="7.65" rx="0.72"/><rect class="cls-5" x="944.15" y="269.93" width="13.73" height="1.57" rx="0.44"/><rect class="cls-5" x="944.15" y="271.63" width="13.73" height="1.57" rx="0.42"/><rect class="cls-5" x="933.86" y="249.89" width="3.03" height="3.14"/><rect class="cls-5" x="933.86" y="245.63" width="3.03" height="3.14"/><circle class="cls-10" cx="950.52" cy="249.42" r="3.33"/><circle class="cls-11" cx="950.56" cy="249.42" r="2.22"/><rect class="cls-5" x="955.21" y="238.72" width="1.83" height="10.15" rx="0.91" transform="translate(1459.82 1092.27) rotate(-135)"/><rect class="cls-5" x="943.98" y="249.95" width="1.83" height="10.15" rx="0.91" transform="translate(1432.71 1103.5) rotate(-135)"/><rect class="cls-5" x="944.05" y="276.2" width="13.48" height="24.85" rx="4.98"/><rect class="cls-5" x="956.31" y="274.7" width="3.31" height="27.82" rx="1.66"/><rect class="cls-5" x="942.05" y="274.7" width="3.31" height="27.82" rx="1.66"/><circle class="cls-12" cx="950.56" cy="249.42" r="1.33"/><circle class="cls-13" cx="950.56" cy="249.42" r="0.94"/><text class="cls-7" transform="translate(1069.71 657.32)">气压罐</text><rect class="cls-4" x="783.44" y="614.34" width="747.13" height="14"/><rect class="cls-5" x="931.14" y="612.11" width="24.9" height="17.43"/><rect class="cls-6" x="933.63" y="614.6" width="2.49" height="12.54"/><rect class="cls-6" x="951.06" y="614.31" width="2.49" height="12.74"/><rect class="cls-6" x="943.22" y="610.71" width="0.74" height="20.08" transform="translate(1027.2 1747.11) rotate(-127.58)"/><polygon class="cls-5" points="931.74 608.21 959.45 608.21 945.6 602.91 945.6 602.91 945.6 605.56 931.74 605.56 931.74 608.21"/><rect class="cls-5" x="1275.87" y="613.22" width="3.48" height="15.76"/><rect class="cls-5" x="1280.63" y="613.22" width="3.48" height="15.76"/><rect class="cls-5" x="1242.72" y="613.22" width="3.48" height="15.76"/><rect class="cls-5" x="1247.48" y="613.22" width="3.48" height="15.76"/><circle class="cls-9" cx="1263.07" cy="579.22" r="12.98"/><rect class="cls-5" x="1256.82" y="568.53" width="1.83" height="10.15" rx="0.91" transform="translate(2552.68 89.86) rotate(135)"/><rect class="cls-5" x="1268.04" y="579.75" width="1.83" height="10.15" rx="0.91" transform="translate(2579.78 101.07) rotate(135)"/><rect class="cls-5" x="1260.18" y="563.3" width="6.59" height="3.25"/><polygon class="cls-5" points="1262.32 600.64 1260.78 601.11 1257.21 594.99 1258.76 594.52 1262.32 600.64"/><polygon class="cls-5" points="1265.4 600.64 1266.94 601.11 1270.12 595.03 1268.97 594.52 1265.4 600.64"/><rect class="cls-5" x="1262.92" y="594.22" width="1.67" height="6.63" transform="translate(2527.51 1195.07) rotate(180)"/><rect class="cls-5" x="1275.32" y="574.92" width="3.69" height="7.92"/><rect class="cls-5" x="1256.73" y="592.39" width="13.63" height="3.72" rx="0.72"/><rect class="cls-5" x="1260.67" y="602.22" width="6.45" height="7.65" rx="0.72"/><rect class="cls-5" x="1256.98" y="599.73" width="13.73" height="1.57" rx="0.44"/><rect class="cls-5" x="1256.98" y="601.43" width="13.73" height="1.57" rx="0.42"/><rect class="cls-5" x="1246.69" y="579.7" width="3.03" height="3.14"/><rect class="cls-5" x="1246.69" y="575.43" width="3.03" height="3.14"/><circle class="cls-10" cx="1263.35" cy="579.22" r="3.33"/><circle class="cls-11" cx="1263.39" cy="579.22" r="2.22"/><rect class="cls-5" x="1268.04" y="568.53" width="1.83" height="10.15" rx="0.91" transform="translate(1760.64 1876.49) rotate(-135)"/><rect class="cls-5" x="1256.82" y="579.75" width="1.83" height="10.15" rx="0.91" transform="translate(1733.54 1887.72) rotate(-135)"/><rect class="cls-5" x="1256.89" y="606" width="13.48" height="24.85" rx="4.98"/><rect class="cls-5" x="1269.14" y="604.5" width="3.31" height="27.82" rx="1.66"/><rect class="cls-5" x="1254.88" y="604.5" width="3.31" height="27.82" rx="1.66"/><circle class="cls-12" cx="1263.39" cy="579.22" r="1.33"/><circle class="cls-13" cx="1263.39" cy="579.22" r="0.94"/><rect class="cls-44" x="1099.29" y="591.8" width="11.09" height="19.38"/><path class="cls-45" d="M1137.25,578.88c0,13.41-14.88,21.5-33.22,21.5s-33.22-8.09-33.22-21.5,14.87-24.27,33.22-24.27S1137.25,565.48,1137.25,578.88Z"/><path class="cls-46" d="M1137.25,505.09c0,11.2-14.88,20.28-33.22,20.28s-33.22-9.08-33.22-20.28,14.87-18.43,33.22-18.43S1137.25,493.89,1137.25,505.09Z"/><rect class="cls-47" x="1070.81" y="505.37" width="66.44" height="75.76"/><rect class="cls-48" x="1087.8" y="518.52" width="33.97" height="16.48"/><rect class="cls-49" x="1094.77" y="608.76" width="20.69" height="5.45"/><rect class="cls-4" x="265.7" y="484.47" width="537.15" height="14" transform="translate(1025.74 -42.81) rotate(90)"/><path class="cls-4" d="M516.87,208.79H136.33a6.77,6.77,0,0,1-6.54-7h0a6.77,6.77,0,0,1,6.54-7H516.87a6.77,6.77,0,0,1,6.53,7h0A6.77,6.77,0,0,1,516.87,208.79Z"/><text class="cls-7" transform="translate(318.39 257.59)">进水阀门</text><text class="cls-50" transform="translate(88.68 175.9)">市政进水</text><polygon class="cls-8" points="558.42 478.87 558.42 510.35 558.42 516.37 550.23 512.9 560 536.04 569.78 512.9 561.59 516.37 561.59 510.35 561.59 478.87 558.42 478.87"/><polygon class="cls-8" points="104.09 248.82 135.57 248.82 141.6 248.82 138.12 257 161.27 247.23 138.12 237.46 141.6 245.65 135.57 245.65 104.09 245.65 104.09 248.82"/><path class="cls-4" d="M527.15,221.57l14.87.13a26.83,26.83,0,0,0-27.56-26.94V209a12.58,12.58,0,0,1,8.18,2.78A13,13,0,0,1,527.15,221.57Z"/><rect class="cls-4" x="510.95" y="193.47" width="3.8" height="16.56" transform="translate(1025.7 403.5) rotate(-180)"/><rect class="cls-4" x="532.6" y="214.61" width="3.8" height="16.56" transform="translate(757.39 -311.61) rotate(90)"/><rect class="cls-5" x="372.35" y="193.66" width="3.48" height="15.76"/><rect class="cls-5" x="377.12" y="193.66" width="3.48" height="15.76"/><rect class="cls-5" x="339.2" y="193.66" width="3.48" height="15.76"/><rect class="cls-5" x="343.97" y="193.66" width="3.48" height="15.76"/><circle class="cls-9" cx="359.56" cy="159.66" r="12.98"/><rect class="cls-5" x="353.3" y="148.97" width="1.83" height="10.15" rx="0.91" transform="translate(713.6 12.5) rotate(135)"/><rect class="cls-5" x="364.53" y="160.2" width="1.83" height="10.15" rx="0.91" transform="translate(740.71 23.73) rotate(135)"/><rect class="cls-5" x="356.66" y="143.74" width="6.59" height="3.25"/><polygon class="cls-5" points="358.81 181.08 357.26 181.55 353.7 175.43 355.24 174.97 358.81 181.08"/><polygon class="cls-5" points="361.89 181.08 363.43 181.55 366.6 175.47 365.45 174.97 361.89 181.08"/><rect class="cls-5" x="359.4" y="174.66" width="1.67" height="6.63" transform="translate(720.48 355.96) rotate(180)"/><rect class="cls-5" x="371.8" y="155.36" width="3.69" height="7.92"/><rect class="cls-5" x="353.22" y="172.84" width="13.63" height="3.72" rx="0.72"/><rect class="cls-5" x="357.16" y="182.66" width="6.45" height="7.65" rx="0.72"/><rect class="cls-5" x="353.47" y="180.18" width="13.73" height="1.57" rx="0.44"/><rect class="cls-5" x="353.47" y="181.87" width="13.73" height="1.57" rx="0.42"/><rect class="cls-5" x="343.18" y="160.14" width="3.03" height="3.14"/><rect class="cls-5" x="343.18" y="155.87" width="3.03" height="3.14"/><circle class="cls-10" cx="359.83" cy="159.66" r="3.33"/><circle class="cls-11" cx="359.87" cy="159.66" r="2.22"/><rect class="cls-5" x="364.53" y="148.97" width="1.83" height="10.15" rx="0.91" transform="translate(514.92 521.37) rotate(-135)"/><rect class="cls-5" x="353.3" y="160.2" width="1.83" height="10.15" rx="0.91" transform="translate(487.82 532.6) rotate(-135)"/><rect class="cls-5" x="353.37" y="186.44" width="13.48" height="24.85" rx="4.98"/><rect class="cls-5" x="365.62" y="184.94" width="3.31" height="27.82" rx="1.66"/><rect class="cls-5" x="351.36" y="184.94" width="3.31" height="27.82" rx="1.66"/><circle class="cls-12" cx="359.87" cy="159.66" r="1.33"/><circle class="cls-13" cx="359.87" cy="159.66" r="0.94"/><rect class="cls-5" x="248.18" y="136.82" width="0.63" height="2.18"/><rect class="cls-5" x="242.56" y="138.49" width="0.63" height="2.18" transform="translate(-34.03 181.92) rotate(-38.58)"/><rect class="cls-5" x="253.68" y="138.81" width="0.63" height="2.18" transform="translate(153.35 -132.05) rotate(40.84)"/><rect class="cls-5" x="256.99" y="144.4" width="0.63" height="2.18" transform="translate(373.09 -126.47) rotate(83.58)"/><rect class="cls-5" x="238.94" y="144.34" width="0.63" height="2.18" transform="translate(62.38 362.47) rotate(-82.12)"/><rect class="cls-5" x="246.93" y="136.76" width="0.33" height="1.21" transform="translate(-21.61 49.48) rotate(-10.96)"/><rect class="cls-5" x="249.66" y="136.76" width="0.33" height="1.21" transform="translate(34.92 -49.98) rotate(12.28)"/><rect class="cls-5" x="250.86" y="137.02" width="0.33" height="1.21" transform="matrix(0.94, 0.34, -0.34, 0.94, 62.43, -77.75)"/><rect class="cls-5" x="252.01" y="137.43" width="0.33" height="1.21" transform="translate(93.65 -101.79) rotate(27.84)"/><rect class="cls-5" x="253.09" y="137.99" width="0.33" height="1.21" transform="translate(128.12 -121.57) rotate(35.62)"/><rect class="cls-5" x="254.98" y="139.53" width="0.33" height="1.21" transform="translate(204.43 -146.51) rotate(51.19)"/><rect class="cls-5" x="255.76" y="140.48" width="0.33" height="1.21" transform="translate(244.9 -150.94) rotate(58.97)"/><rect class="cls-5" x="256.39" y="141.52" width="0.33" height="1.21" transform="translate(285.89 -149.7) rotate(66.75)"/><rect class="cls-5" x="256.88" y="142.64" width="0.33" height="1.21" transform="translate(326.57 -142.69) rotate(74.54)"/><rect class="cls-5" x="257.42" y="143.82" width="0.33" height="1.21" transform="translate(366.28 -130.16) rotate(82.32)"/><rect class="cls-5" x="257.8" y="146.06" width="0.33" height="1.21" transform="translate(405.08 -111.04) rotate(90.1)"/><rect class="cls-5" x="257.81" y="147.28" width="0.33" height="1.21" transform="translate(439.84 -87.36) rotate(97.88)"/><rect class="cls-5" x="257.65" y="148.49" width="0.33" height="1.21" transform="translate(470.99 -58.88) rotate(105.67)"/><rect class="cls-5" x="245.78" y="137.03" width="0.33" height="1.21" transform="translate(-30.88 84.71) rotate(-18.41)"/><rect class="cls-5" x="244.68" y="137.44" width="0.33" height="1.21" transform="translate(-35.69 120.6) rotate(-25.86)"/><rect class="cls-5" x="243.65" y="138" width="0.33" height="1.21" transform="translate(-36.06 156.64) rotate(-33.3)"/><rect class="cls-5" x="241.2" y="139.67" width="0.33" height="1.21" transform="translate(-23.26 229.21) rotate(-48.74)"/><rect class="cls-5" x="240.39" y="140.8" width="0.33" height="1.21" transform="translate(-8.44 267.37) rotate(-57.28)"/><rect class="cls-5" x="239.34" y="142.05" width="0.33" height="1.21" transform="translate(11.28 302.75) rotate(-65.83)"/><rect class="cls-5" x="238.89" y="143.38" width="0.33" height="1.21" transform="translate(36 335.42) rotate(-74.37)"/><rect class="cls-5" x="238.62" y="146.15" width="0.33" height="1.21" transform="translate(98.16 389.2) rotate(-91.46)"/><rect class="cls-5" x="238.59" y="147.54" width="0.33" height="1.21" transform="translate(134.33 409) rotate(-100)"/><rect class="cls-5" x="238.96" y="148.89" width="0.33" height="1.21" transform="translate(173.47 423.76) rotate(-108.55)"/><rect class="cls-5" x="245.77" y="160.02" width="5.62" height="3.7"/><rect class="cls-5" x="245.77" y="185.36" width="5.62" height="9.59"/><rect class="cls-5" x="245.77" y="168.54" width="5.62" height="2.72"/><rect class="cls-5" x="245.17" y="184.19" width="6.78" height="1.27"/><polygon class="cls-5" points="252.99 173.62 244.19 173.62 245.77 171.46 251.38 171.46 252.99 173.62"/><polygon class="cls-5" points="250.95 163.32 246.2 163.32 243.83 165.77 246.2 168.22 250.95 168.22 253.32 165.77 250.95 163.32"/><polygon class="cls-5" points="252.02 173.88 245.15 173.88 241.72 178.82 245.15 183.77 252.02 183.77 255.45 178.82 252.02 173.88"/><rect class="cls-5" x="240.15" y="174.9" width="2.81" height="8.92"/><rect class="cls-5" x="239.33" y="175.97" width="1.62" height="6.53"/><rect class="cls-5" x="237.17" y="177.75" width="2.32" height="3.16"/><rect class="cls-5" x="232.02" y="178.26" width="1.15" height="2.8" rx="0.37"/><rect class="cls-5" x="235.8" y="175.8" width="1.04" height="7.8"/><rect class="cls-5" x="233.49" y="175.8" width="2.76" height="1.73" rx="0.44"/><rect class="cls-5" x="233.49" y="178.68" width="2.76" height="1.73" rx="0.44"/><rect class="cls-5" x="233.49" y="181.88" width="2.76" height="1.73" rx="0.44"/><circle class="cls-14" cx="248.18" cy="146.53" r="13.34"/><path class="cls-15" d="M238,150.39a12.28,12.28,0,0,1-.57-3.69,10.75,10.75,0,0,1,.56-3.23,10.9,10.9,0,1,1,20.68,6.89"/><polygon class="cls-5" points="246.04 149.1 244.91 147.19 248.73 145.94 254.57 142.73 254.71 142.99 248.94 146.27 246.04 149.1"/><circle class="cls-16" cx="248.11" cy="146.52" r="0.84"/><text class="cls-17" transform="translate(244.51 154.97)">MPA</text><text class="cls-7" transform="translate(191.77 247.6)">进水压力表</text><rect class="cls-51" x="205.21" y="260.74" width="83.11" height="30.2"/><rect class="cls-5" x="436.33" y="194.91" width="67.24" height="13.52"/><polygon class="cls-5" points="468.61 227.17 444.25 214.75 492.98 214.75 468.61 227.17"/><rect class="cls-52" x="490.26" y="182.3" width="2.49" height="32.45" rx="0.2"/><rect class="cls-5" x="443.71" y="182.3" width="49.81" height="35.15" rx="0.4"/><rect class="cls-22" x="489.82" y="182.3" width="1.68" height="35.15"/><rect class="cls-22" x="486.75" y="182.3" width="1.68" height="35.15"/><rect class="cls-22" x="448.86" y="182.3" width="1.68" height="35.15"/><rect class="cls-22" x="445.78" y="182.3" width="1.68" height="35.15"/><rect class="cls-22" x="453.67" y="223.06" width="29.88" height="5.41" rx="0.2"/><ellipse class="cls-5" cx="468.61" cy="216.55" rx="16.19" ry="8.11"/><rect class="cls-53" x="452.52" y="217.45" width="32.37" height="8.7" rx="0.1"/><rect class="cls-5" x="452.43" y="217.19" width="32.37" height="7.47"/><rect class="cls-22" x="457.89" y="226.89" width="2.49" height="2.7"/><rect class="cls-22" x="464.53" y="226.89" width="2.49" height="2.7"/><rect class="cls-22" x="471.17" y="226.89" width="2.49" height="2.7"/><rect class="cls-22" x="477.81" y="226.89" width="2.49" height="2.7"/><rect class="cls-22" x="452.63" y="190.41" width="31.2" height="16.22" rx="1"/><text class="cls-54" transform="translate(453.86 195.61) scale(1.05 1)">----------<tspan x="2.73" y="3.64">--------</tspan><tspan x="5.45" y="7.27">------</tspan></text><rect class="cls-5" x="496.1" y="193.56" width="7.47" height="16.22" rx="0.1"/><rect class="cls-5" x="433.84" y="193.56" width="7.47" height="16.22" rx="0.1"/><text class="cls-7" transform="translate(434.84 257.62)">过滤器</text><path class="cls-4" d="M541.93,759l-14.86-.13a26.81,26.81,0,0,0,27.56,26.94V771.53a12.61,12.61,0,0,1-8.18-2.78A13,13,0,0,1,541.93,759Z"/><rect class="cls-4" x="554.33" y="770.52" width="3.8" height="16.56"/><rect class="cls-4" x="532.68" y="749.38" width="3.8" height="16.56" transform="translate(-223.08 1292.24) rotate(-90)"/><rect class="cls-4" x="552.96" y="771.85" width="229.8" height="14"/><rect class="cls-5" x="694.14" y="771.08" width="3.48" height="15.76"/><rect class="cls-5" x="698.9" y="771.08" width="3.48" height="15.76"/><rect class="cls-5" x="660.99" y="771.08" width="3.48" height="15.76"/><rect class="cls-5" x="665.75" y="771.08" width="3.48" height="15.76"/><circle class="cls-9" cx="681.34" cy="737.07" r="12.98"/><rect class="cls-5" x="675.08" y="726.38" width="1.83" height="10.15" rx="0.91" transform="translate(1671.22 770.68) rotate(135)"/><rect class="cls-5" x="686.31" y="737.61" width="1.83" height="10.15" rx="0.91" transform="translate(1698.33 781.91) rotate(135)"/><rect class="cls-5" x="678.44" y="721.16" width="6.59" height="3.25"/><polygon class="cls-5" points="680.59 758.5 679.05 758.96 675.48 752.85 677.02 752.38 680.59 758.5"/><polygon class="cls-5" points="683.67 758.5 685.21 758.96 688.38 752.88 687.24 752.38 683.67 758.5"/><rect class="cls-5" x="681.19" y="752.08" width="1.67" height="6.63" transform="translate(1364.04 1510.79) rotate(180)"/><rect class="cls-5" x="693.59" y="732.77" width="3.69" height="7.92"/><rect class="cls-5" x="675" y="750.25" width="13.63" height="3.72" rx="0.72"/><rect class="cls-5" x="678.94" y="760.07" width="6.45" height="7.65" rx="0.72"/><rect class="cls-5" x="675.25" y="757.59" width="13.73" height="1.57" rx="0.44"/><rect class="cls-5" x="675.25" y="759.29" width="13.73" height="1.57" rx="0.42"/><rect class="cls-5" x="664.96" y="737.55" width="3.03" height="3.14"/><rect class="cls-5" x="664.96" y="733.29" width="3.03" height="3.14"/><circle class="cls-10" cx="681.62" cy="737.08" r="3.33"/><circle class="cls-11" cx="681.66" cy="737.07" r="2.22"/><rect class="cls-5" x="686.31" y="726.38" width="1.83" height="10.15" rx="0.91" transform="translate(655.95 1734.62) rotate(-135)"/><rect class="cls-5" x="675.08" y="737.61" width="1.83" height="10.15" rx="0.91" transform="translate(628.84 1745.85) rotate(-135)"/><rect class="cls-5" x="675.15" y="763.85" width="13.48" height="24.85" rx="4.98"/><rect class="cls-5" x="687.41" y="762.36" width="3.31" height="27.82" rx="1.66"/><rect class="cls-5" x="673.15" y="762.36" width="3.31" height="27.82" rx="1.66"/><circle class="cls-12" cx="681.66" cy="737.07" r="1.33"/><circle class="cls-13" cx="681.66" cy="737.07" r="0.94"/><rect class="cls-5" x="597.67" y="713.77" width="0.63" height="2.18"/><rect class="cls-5" x="592.05" y="715.44" width="0.63" height="2.18" transform="translate(-317.54 525.78) rotate(-38.58)"/><rect class="cls-5" x="603.17" y="715.77" width="0.63" height="2.18" transform="translate(615.78 -220.12) rotate(40.84)"/><rect class="cls-5" x="606.48" y="721.35" width="0.63" height="2.18" transform="translate(1256.83 38.65) rotate(83.58)"/><rect class="cls-5" x="588.43" y="721.29" width="0.63" height="2.18" transform="translate(-207.56 1206.49) rotate(-82.12)"/><rect class="cls-5" x="596.42" y="713.72" width="0.33" height="1.21" transform="translate(-124.93 126.45) rotate(-10.96)"/><rect class="cls-5" x="599.15" y="713.72" width="0.33" height="1.21" transform="translate(165.58 -111.09) rotate(12.28)"/><rect class="cls-5" x="600.35" y="713.97" width="0.33" height="1.21" transform="translate(281.51 -162.62) rotate(20.06)"/><rect class="cls-5" x="601.5" y="714.38" width="0.33" height="1.21" transform="translate(403.55 -198.23) rotate(27.84)"/><rect class="cls-5" x="602.58" y="714.95" width="0.33" height="1.21" transform="translate(529.57 -217.17) rotate(35.62)"/><rect class="cls-5" x="604.48" y="716.48" width="0.33" height="1.21" transform="translate(784.44 -203.5) rotate(51.19)"/><rect class="cls-5" x="605.25" y="717.43" width="0.33" height="1.21" transform="translate(908.63 -170.87) rotate(58.97)"/><rect class="cls-5" x="605.89" y="718.48" width="0.33" height="1.21" transform="translate(1027.55 -121.58) rotate(66.75)"/><rect class="cls-5" x="606.38" y="719.6" width="0.33" height="1.21" transform="translate(1138.94 -56.41) rotate(74.54)"/><rect class="cls-5" x="606.92" y="720.77" width="0.33" height="1.21" transform="matrix(0.13, 0.99, -0.99, 0.13, 1240.83, 23.32)"/><rect class="cls-5" x="607.29" y="723.01" width="0.33" height="1.21" transform="translate(1332.14 117.43) rotate(90.1)"/><rect class="cls-5" x="607.3" y="724.23" width="0.33" height="1.21" transform="translate(1408.77 222.53) rotate(97.88)"/><rect class="cls-5" x="607.14" y="725.45" width="0.33" height="1.21" transform="translate(1470.37 337.36) rotate(105.67)"/><rect class="cls-5" x="595.28" y="713.98" width="0.33" height="1.21" transform="translate(-195.19 224.6) rotate(-18.41)"/><rect class="cls-5" x="594.18" y="714.4" width="0.33" height="1.21" transform="translate(-252.33 330.78) rotate(-25.86)"/><rect class="cls-5" x="593.14" y="714.95" width="0.33" height="1.21" transform="translate(-295.46 443.3) rotate(-33.3)"/><rect class="cls-5" x="590.69" y="716.62" width="0.33" height="1.21" transform="translate(-337.96 688.4) rotate(-48.74)"/><rect class="cls-5" x="589.88" y="717.76" width="0.33" height="1.21" transform="translate(-333.26 826.55) rotate(-57.28)"/><rect class="cls-5" x="588.83" y="719" width="0.33" height="1.21" transform="translate(-308.7 962.3) rotate(-65.83)"/><rect class="cls-5" x="588.38" y="720.33" width="0.33" height="1.21" transform="translate(-264.28 1093.52) rotate(-74.37)"/><rect class="cls-5" x="588.11" y="723.11" width="0.33" height="1.21" transform="translate(-120.21 1330.24) rotate(-91.46)"/><rect class="cls-5" x="588.08" y="724.49" width="0.33" height="1.21" transform="translate(-23.64 1430.37) rotate(-100)"/><rect class="cls-5" x="588.45" y="725.84" width="0.33" height="1.21" transform="translate(87.16 1515.58) rotate(-108.55)"/><rect class="cls-5" x="595.26" y="736.97" width="5.62" height="3.7"/><rect class="cls-5" x="595.26" y="762.31" width="5.62" height="9.59"/><rect class="cls-5" x="595.26" y="745.49" width="5.62" height="2.72"/><rect class="cls-5" x="594.66" y="761.14" width="6.78" height="1.27"/><polygon class="cls-5" points="602.48 750.58 593.68 750.58 595.26 748.41 600.88 748.41 602.48 750.58"/><polygon class="cls-5" points="600.44 740.27 595.69 740.27 593.32 742.72 595.69 745.17 600.44 745.17 602.81 742.72 600.44 740.27"/><polygon class="cls-5" points="601.51 750.83 594.64 750.83 591.21 755.78 594.64 760.72 601.51 760.72 604.94 755.78 601.51 750.83"/><rect class="cls-5" x="589.64" y="751.85" width="2.81" height="8.92"/><rect class="cls-5" x="588.82" y="752.92" width="1.62" height="6.53"/><rect class="cls-5" x="586.67" y="754.7" width="2.32" height="3.16"/><rect class="cls-5" x="581.51" y="755.21" width="1.15" height="2.8" rx="0.37"/><rect class="cls-5" x="585.29" y="752.76" width="1.04" height="7.8"/><rect class="cls-5" x="582.98" y="752.76" width="2.76" height="1.73" rx="0.44"/><rect class="cls-5" x="582.98" y="755.63" width="2.76" height="1.73" rx="0.44"/><rect class="cls-5" x="582.98" y="758.83" width="2.76" height="1.73" rx="0.44"/><circle class="cls-14" cx="597.67" cy="723.48" r="13.34"/><path class="cls-15" d="M587.44,727.34a12.28,12.28,0,0,1-.57-3.69,10.75,10.75,0,0,1,.56-3.23,10.9,10.9,0,0,1,20.68,6.89"/><polygon class="cls-5" points="595.53 726.05 594.41 724.14 598.22 722.9 604.07 719.68 604.2 719.94 598.43 723.22 595.53 726.05"/><circle class="cls-16" cx="597.6" cy="723.47" r="0.84"/><text class="cls-17" transform="translate(594 731.92)">MPA</text><path class="cls-4" d="M1550.43,108.72H1820.2c2.56,0,4.64-3.13,4.64-7h0c0-3.86-2.08-7-4.64-7H1550.43c-2.55,0-4.63,3.14-4.63,7h0C1545.8,105.59,1547.88,108.72,1550.43,108.72Z"/><rect class="cls-5" x="1687.83" y="61.35" width="2.73" height="8.46"/><rect class="cls-5" x="1665.58" y="61.35" width="2.47" height="8.46"/><rect class="cls-5" x="1662.5" y="90.85" width="31.63" height="20.78"/><polygon class="cls-5" points="1697.04 106.06 1694.59 112.1 1694.59 91.32 1697.04 97.21 1697.04 106.06"/><polygon class="cls-5" points="1659.57 106.06 1662.02 112.1 1662.02 91.32 1659.57 97.21 1659.57 106.06"/><rect class="cls-5" x="1699.11" y="93.47" width="2.77" height="17.11"/><rect class="cls-5" x="1702.91" y="93.47" width="2.77" height="17.11"/><rect class="cls-5" x="1650.96" y="93.47" width="2.77" height="17.11"/><rect class="cls-5" x="1654.75" y="93.47" width="2.77" height="17.11"/><rect class="cls-5" x="1671.78" y="86.68" width="13.19" height="5.07" rx="0.4"/><rect class="cls-5" x="1672.7" y="78.89" width="11.01" height="3.05" rx="0.4"/><rect class="cls-5" x="1672.8" y="75.06" width="11.01" height="3.29" rx="0.4"/><rect class="cls-5" x="1675.48" y="80.58" width="5.51" height="7.11" rx="0.4"/><circle class="cls-55" cx="1678.38" cy="65.66" r="10.28"/><circle class="cls-56" cx="1678.2" cy="65.84" r="7.33"/><circle class="cls-57" cx="1678.36" cy="65.89" r="9.49"/><rect class="cls-5" x="1664.27" y="62.83" width="2.53" height="1.55"/><rect class="cls-5" x="1664.27" y="66.79" width="2.53" height="1.55"/><rect class="cls-58" x="1673.29" y="64.14" width="9.88" height="3.51"/><polygon class="cls-59" points="1675.94 67.65 1673.29 67.65 1673.29 64.14 1678.52 64.14 1675.94 67.65"/><path class="cls-5" d="M1675.77,96.5l-8.28-3.25a.43.43,0,0,1-.12-.73l7-5.55a.43.43,0,0,1,.69.27l1.34,8.8A.43.43,0,0,1,1675.77,96.5Z"/><path class="cls-5" d="M1681,96.5l8.28-3.25a.42.42,0,0,0,.11-.73l-7-5.55a.43.43,0,0,0-.69.27l-1.33,8.8A.43.43,0,0,0,1681,96.5Z"/><text class="cls-60" transform="translate(1743.62 79.77)">供水入户</text><text class="cls-61" transform="translate(1647.97 142.98)">流量计</text><rect class="cls-62" x="1640.1" y="153.77" width="76.44" height="27.78"/><polygon class="cls-8" points="1757.8 135.22 1784.69 135.22 1790.72 135.22 1787.24 143.4 1810.39 133.63 1787.24 123.86 1790.72 132.04 1784.69 132.04 1757.8 132.04 1757.8 135.22"/><rect class="cls-63" x="295.78" y="353.66" width="129.2" height="50.96"/><rect class="cls-64" x="303.67" y="381.32" width="113.04" height="19.96"/><path class="cls-63" d="M315.91,387.35h-6v-2h8.44v1.41c-2.95,3.69-3.46,6.34-3.68,11.29h-2.31C312.63,393.6,313.48,390.75,315.91,387.35Z"/><path class="cls-63" d="M319.7,396.58l1.06-1.47a4.16,4.16,0,0,0,2.94,1.35,2.28,2.28,0,0,0,2.43-2.43,2.18,2.18,0,0,0-2.32-2.37,3.19,3.19,0,0,0-2,.71l-1.08-.7.38-6.27h6.72v2h-4.75l-.26,3.06a3.52,3.52,0,0,1,1.66-.41,3.67,3.67,0,0,1,3.95,4,4.25,4.25,0,0,1-4.43,4.38A5.73,5.73,0,0,1,319.7,396.58Z"/><path class="cls-63" d="M330.25,392.14c0-4.93,2.36-7,4.94-7a4.51,4.51,0,0,1,3.36,1.44L337.33,388a2.77,2.77,0,0,0-2-.95c-1.63,0-3,1.28-3,5.1,0,3.13,1,4.44,2.42,4.44,1.05,0,1.88-.86,1.88-2.41s-.73-2.27-2-2.27a2.85,2.85,0,0,0-2.32,1.59l-.1-1.62a3.78,3.78,0,0,1,2.84-1.63c2.16,0,3.67,1.28,3.67,3.93a4,4,0,0,1-4,4.17C332.35,398.34,330.25,396.41,330.25,392.14Z"/><path class="cls-63" d="M340,396.54l1.08-1.47a4.13,4.13,0,0,0,3,1.39c1.38,0,2.32-.72,2.32-1.91s-.83-2.16-3.69-2.16v-1.67c2.46,0,3.27-.87,3.27-2a1.64,1.64,0,0,0-1.86-1.7,3.61,3.61,0,0,0-2.51,1.19l-1.18-1.42a5.59,5.59,0,0,1,3.79-1.6c2.4,0,4.05,1.21,4.05,3.36a3,3,0,0,1-2.19,2.91v.08a3.21,3.21,0,0,1,2.62,3.16c0,2.32-2,3.67-4.42,3.67A5.38,5.38,0,0,1,340,396.54Z"/><path class="cls-63" d="M350.41,396.77c3.49-3.43,5.69-5.66,5.69-7.6A2,2,0,0,0,354,387a3.43,3.43,0,0,0-2.45,1.4l-1.27-1.26a5.12,5.12,0,0,1,4-2,3.7,3.7,0,0,1,4,3.89c0,2.26-2.07,4.59-4.57,7.23.66-.06,1.49-.13,2.11-.13h3.07v2h-8.49Z"/><path class="cls-63" d="M369.35,385.05h2.29V391h.06l4.6-5.93h2.55l-4,5.09,4.65,8H377l-3.5-6.14-1.85,2.33v3.81h-2.29Z"/><path class="cls-63" d="M379.66,385.05H382l1.12,6.59c.21,1.39.43,2.78.64,4.17h.08c.27-1.39.55-2.79.83-4.17l1.59-6.59h2l1.58,6.59c.29,1.35.57,2.77.86,4.17h.08c.21-1.4.41-2.8.62-4.17l1.12-6.59h2.2l-2.48,13.05h-2.84l-1.6-6.87c-.22-1-.41-2-.57-3h-.08c-.18,1-.37,2-.59,3L385,398.1h-2.79Z"/><path class="cls-63" d="M396.37,391.7a1.47,1.47,0,1,1,1.47,1.55A1.49,1.49,0,0,1,396.37,391.7Z"/><path class="cls-63" d="M402,384h2.28v3.65l-.1,1.89a4.49,4.49,0,0,1,3.11-1.48c2.08,0,3,1.42,3,3.89v6.15H408v-5.85c0-1.61-.46-2.22-1.51-2.22a3,3,0,0,0-2.21,1.22v6.85H402Z"/><text class="cls-65" transform="translate(304.73 371.94) scale(0.99 1)">温度</text><rect class="cls-64" x="303.67" y="381.32" width="113.04" height="19.96"/><text class="cls-65" transform="translate(304.73 371.94) scale(0.99 1)">温度显示</text><rect class="cls-5" x="1391.95" y="987.54" width="3.48" height="15.76"/><rect class="cls-5" x="1396.71" y="987.54" width="3.48" height="15.76"/><rect class="cls-5" x="1358.79" y="987.54" width="3.48" height="15.76"/><rect class="cls-5" x="1363.56" y="987.54" width="3.48" height="15.76"/><circle class="cls-9" cx="1379.15" cy="953.53" r="12.98"/><rect class="cls-5" x="1372.89" y="942.84" width="1.83" height="10.15" rx="0.91" transform="translate(3015.52 646.78) rotate(135)"/><rect class="cls-5" x="1384.12" y="954.07" width="1.83" height="10.15" rx="0.91" transform="translate(3042.62 657.99) rotate(135)"/><rect class="cls-5" x="1376.25" y="937.62" width="6.59" height="3.25"/><polygon class="cls-5" points="1378.4 974.96 1376.86 975.42 1373.29 969.31 1374.83 968.84 1378.4 974.96"/><polygon class="cls-5" points="1381.48 974.96 1383.02 975.42 1386.19 969.34 1385.05 968.84 1381.48 974.96"/><rect class="cls-5" x="1378.99" y="968.53" width="1.67" height="6.63" transform="translate(2759.66 1943.7) rotate(180)"/><rect class="cls-5" x="1391.39" y="949.23" width="3.69" height="7.92"/><rect class="cls-5" x="1372.81" y="966.71" width="13.63" height="3.72" rx="0.72"/><rect class="cls-5" x="1376.75" y="976.53" width="6.45" height="7.65" rx="0.72"/><rect class="cls-5" x="1373.06" y="974.05" width="13.73" height="1.57" rx="0.44"/><rect class="cls-5" x="1373.06" y="975.75" width="13.73" height="1.57" rx="0.42"/><rect class="cls-5" x="1362.77" y="954.01" width="3.03" height="3.14"/><rect class="cls-5" x="1362.77" y="949.75" width="3.03" height="3.14"/><circle class="cls-10" cx="1379.43" cy="953.54" r="3.33"/><circle class="cls-11" cx="1379.47" cy="953.53" r="2.22"/><rect class="cls-5" x="1384.12" y="942.84" width="1.83" height="10.15" rx="0.91" transform="translate(1694.12 2597.57) rotate(-135)"/><rect class="cls-5" x="1372.89" y="954.07" width="1.83" height="10.15" rx="0.91" transform="translate(1667.02 2608.79) rotate(-135)"/><rect class="cls-5" x="1372.96" y="980.31" width="13.48" height="24.85" rx="4.98"/><rect class="cls-5" x="1385.22" y="978.82" width="3.31" height="27.82" rx="1.66"/><rect class="cls-5" x="1370.96" y="978.82" width="3.31" height="27.82" rx="1.66"/><circle class="cls-12" cx="1379.47" cy="953.53" r="1.33"/><circle class="cls-13" cx="1379.47" cy="953.53" r="0.94"/><rect class="cls-5" x="1391.95" y="283.42" width="3.48" height="15.76"/><rect class="cls-5" x="1396.71" y="283.42" width="3.48" height="15.76"/><rect class="cls-5" x="1358.79" y="283.42" width="3.48" height="15.76"/><rect class="cls-5" x="1363.56" y="283.42" width="3.48" height="15.76"/><circle class="cls-9" cx="1379.15" cy="249.42" r="12.98"/><rect class="cls-5" x="1372.89" y="238.72" width="1.83" height="10.15" rx="0.91" transform="translate(2517.63 -555.23) rotate(135)"/><rect class="cls-5" x="1384.12" y="249.95" width="1.83" height="10.15" rx="0.91" transform="translate(2544.73 -544.01) rotate(135)"/><rect class="cls-5" x="1376.25" y="233.5" width="6.59" height="3.25"/><polygon class="cls-5" points="1378.4 270.84 1376.86 271.31 1373.29 265.19 1374.83 264.72 1378.4 270.84"/><polygon class="cls-5" points="1381.48 270.84 1383.02 271.31 1386.19 265.23 1385.05 264.72 1381.48 270.84"/><rect class="cls-5" x="1378.99" y="264.42" width="1.67" height="6.63" transform="translate(2759.66 535.47) rotate(180)"/><rect class="cls-5" x="1391.39" y="245.11" width="3.69" height="7.92"/><rect class="cls-5" x="1372.81" y="262.59" width="13.63" height="3.72" rx="0.72"/><rect class="cls-5" x="1376.75" y="272.42" width="6.45" height="7.65" rx="0.72"/><rect class="cls-5" x="1373.06" y="269.93" width="13.73" height="1.57" rx="0.44"/><rect class="cls-5" x="1373.06" y="271.63" width="13.73" height="1.57" rx="0.42"/><rect class="cls-5" x="1362.77" y="249.89" width="3.03" height="3.14"/><rect class="cls-5" x="1362.77" y="245.63" width="3.03" height="3.14"/><circle class="cls-10" cx="1379.43" cy="249.42" r="3.33"/><circle class="cls-11" cx="1379.47" cy="249.42" r="2.22"/><rect class="cls-5" x="1384.12" y="238.72" width="1.83" height="10.15" rx="0.91" transform="translate(2192.01 1395.56) rotate(-135)"/><rect class="cls-5" x="1372.89" y="249.95" width="1.83" height="10.15" rx="0.91" transform="translate(2164.91 1406.78) rotate(-135)"/><rect class="cls-5" x="1372.96" y="276.2" width="13.48" height="24.85" rx="4.98"/><rect class="cls-5" x="1385.22" y="274.7" width="3.31" height="27.82" rx="1.66"/><rect class="cls-5" x="1370.96" y="274.7" width="3.31" height="27.82" rx="1.66"/><circle class="cls-12" cx="1379.47" cy="249.42" r="1.33"/><circle class="cls-13" cx="1379.47" cy="249.42" r="0.94"/><rect class="cls-66" x="1152.24" y="102.17" width="169.4" height="76.72"/><rect class="cls-67" x="1160.58" y="147.16" width="72.18" height="26.23"/><rect class="cls-68" x="1240.14" y="118.84" width="72.18" height="26.23"/><rect class="cls-69" x="1160.58" y="115.66" width="72.18" height="26.23"/><rect class="cls-66" x="1152.24" y="815.28" width="169.4" height="76.72"/><rect class="cls-70" x="1160.58" y="860.27" width="72.18" height="26.23"/><rect class="cls-71" x="1240.14" y="831.95" width="72.18" height="26.23"/><rect class="cls-72" x="1160.58" y="828.77" width="72.18" height="26.23"/></svg>