<?xml version="1.0" standalone="no"?><!DOCTYPE svg PUBLIC "-//W3C//DTD SVG 1.1//EN" "http://www.w3.org/Graphics/SVG/1.1/DTD/svg11.dtd"><svg t="1585404769352" class="icon" viewBox="0 0 1024 1024" version="1.1" xmlns="http://www.w3.org/2000/svg" p-id="8582" xmlns:xlink="http://www.w3.org/1999/xlink" width="40" height="40"><defs><style type="text/css"></style></defs><path d="M879.36 212.48c-4.48-5.76-12.16-8.32-19.84-7.04L182.4 371.84c-19.2 5.12-33.92 19.2-39.04 38.4-5.12 19.2 0 39.04 14.08 53.12L288 592.64l-26.24 204.8c-1.28 7.68 2.56 15.36 9.6 19.2 3.2 1.92 6.4 2.56 9.6 2.56 4.48 0 8.32-1.28 12.16-4.48l71.68-57.6c8.32-6.4 9.6-18.56 3.2-26.88-6.4-8.32-18.56-9.6-26.88-3.2l-34.56 27.52 16.64-128.64 177.92 176.64c10.24 10.24 23.68 16 38.4 16 20.48 0 39.04-11.52 48.64-29.44l294.4-556.8c1.92-5.76 1.28-14.08-3.2-19.84z m-699.52 208c0.64-2.56 3.2-8.96 11.52-11.52L761.6 268.8 309.76 561.28 183.68 435.84c-5.76-5.76-4.48-12.8-3.84-15.36z m372.48 351.36c-2.56 5.76-8.32 8.96-14.72 8.96-3.2 0-7.68-0.64-11.52-4.48L337.92 588.8l473.6-305.92-259.2 488.96z" p-id="8583" fill="#00fffc"></path></svg>