<?xml version="1.0" standalone="no"?><!DOCTYPE svg PUBLIC "-//W3C//DTD SVG 1.1//EN" "http://www.w3.org/Graphics/SVG/1.1/DTD/svg11.dtd"><svg t="1585405067740" class="icon" viewBox="0 0 1024 1024" version="1.1" xmlns="http://www.w3.org/2000/svg" p-id="9278" xmlns:xlink="http://www.w3.org/1999/xlink" width="40" height="40"><defs><style type="text/css"></style></defs><path d="M556.842667 760.149333a42.666667 42.666667 0 1 1 0-85.333333 42.666667 42.666667 0 0 1 0 85.333333z m-42.666667-298.666666a42.666667 42.666667 0 1 1 0-85.333334 42.666667 42.666667 0 0 1 0 85.333334z m-170.666667 170.666666a42.666667 42.666667 0 1 1 0-85.333333 42.666667 42.666667 0 0 1 0 85.333333zM853.333333 213.333333V106.666667a21.333333 21.333333 0 0 1 21.333334-21.333334h42.666666a21.333333 21.333333 0 0 1 21.333334 21.333334v747.178666a85.333333 85.333333 0 0 1-85.333334 85.333334H213.376a85.333333 85.333333 0 0 1-85.333333-85.333334V220.373333l-40.533334-121.557333 60.714667-20.224a21.333333 21.333333 0 0 1 27.008 13.482667l30.464 91.306666a732.330667 732.330667 0 0 1 315.989333 9.898667c50.432 12.629333 104.106667 19.285333 160.981334 19.968v85.333333a779.946667 779.946667 0 0 1-181.717334-22.528 647.210667 647.210667 0 0 0-287.573333-7.253333v585.045333H853.333333V725.333333h-64a21.333333 21.333333 0 0 1-21.333333-21.333333v-42.666667a21.333333 21.333333 0 0 1 21.333333-21.333333H853.333333v-128h-106.666666a21.333333 21.333333 0 0 1-21.333334-21.333333v-42.666667a21.333333 21.333333 0 0 1 21.333334-21.333333H853.333333V298.666667h-64a21.333333 21.333333 0 0 1-21.333333-21.333334v-42.666666a21.333333 21.333333 0 0 1 21.333333-21.333334H853.333333z m-723.072 13.610667L128 213.418667v6.954666l2.218667 6.570667z" p-id="9279" fill="#00fffc"></path></svg>